<svg xmlns="http://www.w3.org/2000/svg" xmlns:xlink="http://www.w3.org/1999/xlink" viewBox="0 0 3629.96 2423.84"><defs><style>.a{isolation:isolate;}.b{fill:#929192;}.c{fill:#0e2d34;}.aj,.ak,.c,.d,.e,.f,.g,.h,.i,.j,.k,.m{fill-rule:evenodd;}.d{fill:#1b7154;}.e{fill:url(#a);}.f{fill:#5f9850;}.g{fill:url(#b);}.h{fill:url(#c);}.i{fill:url(#d);}.j{fill:#211f22;}.k,.p{fill:#555356;}.l{fill:#76d9e4;}.m,.s{fill:#fff;}.n{fill:#aa2e2e;}.o{fill:#d44945;}.q{fill:#020202;opacity:0.2;}.as,.q{mix-blend-mode:multiply;}.ak,.r{fill:#4878ea;}.t{fill:#373438;}.u{fill:#f0f0ee;}.v{fill:#ff6b6e;}.w{fill:#ffc54f;}.x{fill:#c1cc8c;}.y{fill:#0cf;}.z{fill:#ff56a9;}.aa{fill:#e3eaff;}.ab{fill:#ffc359;}.ac{fill:#fcd65b;}.ad{fill:#4c62a5;}.ae{fill:#687ccd;}.af{fill:#141414;}.ag{fill:#ffa79b;}.ah{fill:#ea9188;}.ai{fill:#a5807c;}.aj,.ar{fill:#af3535;}.al{fill:#751616;}.am{fill:#aa9af4;}.an{fill:#7373ef;}.ao{fill:#3434c1;}.ap{fill:#3e3ad8;}.aq{fill:#6562ed;}.at,.au{fill:none;stroke-miterlimit:10;stroke-width:5.23px;}.at{stroke:#000;}.au{stroke:#fff;}</style><linearGradient id="a" x1="1288.34" y1="1491.73" x2="1605.16" y2="2421.06" gradientUnits="userSpaceOnUse"><stop offset="0" stop-color="#8ccc6d"/><stop offset="0.19" stop-color="#81c768"/><stop offset="0.54" stop-color="#62b85b"/><stop offset="0.92" stop-color="#39a54a"/></linearGradient><linearGradient id="b" x1="1572.13" y1="1519.54" x2="1793.9" y2="2332.71" gradientUnits="userSpaceOnUse"><stop offset="0" stop-color="#00b488"/><stop offset="0.92" stop-color="#007bc0"/></linearGradient><linearGradient id="c" x1="2542.84" y1="2228.87" x2="3336.34" y2="2228.87" xlink:href="#b"/><linearGradient id="d" x1="2570.96" y1="2035.54" x2="3098.51" y2="2035.54" xlink:href="#a"/></defs><g class="a"><path class="b" d="M4012.26,2353.91q0,46.58-2.8,92.48-2.64,43.41-7.72,86.18H618q-5.06-42.77-7.72-86.18-2.79-45.9-2.79-92.48C607.53,1471.4,1369.7,756,2309.89,756S4012.26,1471.4,4012.26,2353.91Z" transform="translate(-478.78 -291.35)"/><path class="c" d="M1465.71,2503.74c-93.23-15.15-224.88-52.56-353-143.86-181.48-129.36,200.31-85.31,511.17,19.11l-120.13,106.8Z" transform="translate(-478.78 -291.35)"/><path class="d" d="M1769.15,2511.42l-16,49.67H1595.54l-30.8-12.06c-22.58-18.05-45.25-36-67.72-53.56q-20.74-16.2-41.15-32c-97.3-75.51-186.65-143.1-240.94-189.52-10.84-9.27-20.28-17.71-28.12-25.18-198.53-189.61-99.32-372.95,108.34-262.9A471.47,471.47,0,0,1,1351,2020.9c43.66,31.57,89.29,72.6,135,120q10.51,10.88,21,22.22c30.79,33.14,61.51,69,91.59,106.51,28.12,35.1,55.69,71.72,82.27,109.08,3.14,4.42,6.28,8.84,9.38,13.29s6.16,8.78,9.22,13.2q20,28.92,39.09,58.2c1.09,1.63,2.14,3.28,3.2,4.91Q1755.79,2489.88,1769.15,2511.42Z" transform="translate(-478.78 -291.35)"/><path class="c" d="M1704.42,2561.09H1690.7c-22-31.25-45.48-61.79-69.89-91.37-1.74-2.11-3.48-4.19-5.22-6.3q-12.75-15.27-25.78-30.23c-34.68-39.78-70.63-77.59-106.31-112.84-34.08-33.62-67.87-65-100-93.45-121.82-108-220.2-175.49-220.89-176a6.39,6.39,0,0,1-1.82-8.39,5.38,5.38,0,0,1,7.78-1.74c.66.49,89.8,61.66,203.7,160.84,42,36.61,87.4,78.39,133,124.22,31.31,31.48,62.68,64.87,93.11,99.81q4.41,5.09,8.81,10.2,10.7,12.45,21.19,25.16c.65.79,1.31,1.59,2,2.39C1656.26,2495,1681.21,2527.61,1704.42,2561.09Z" transform="translate(-478.78 -291.35)"/><path class="e" d="M1574.74,1848.38c29.45,83.88,72.58,280.75,124.12,484.51a378.71,378.71,0,0,1-150,199.55C1427.53,2339.31,1321.9,2117.7,1285.23,1944,1213.45,1604,1462.63,1529.08,1574.74,1848.38Z" transform="translate(-478.78 -291.35)"/><path class="f" d="M1623.07,2467.18c-169.74-325.26-243.16-717.31-243.47-718.94a6.8,6.8,0,0,1,4.89-8,6.28,6.28,0,0,1,7.42,5.24c.32,1.62,72.92,389.13,240,711.26Q1627.55,2462,1623.07,2467.18Z" transform="translate(-478.78 -291.35)"/><path class="g" d="M1558.52,1851.17c.4,84.95,27.7,281.83,46.16,480.49l70.38,169.42,98.6-48.37c55.72-219.63,87-471.38,62.84-641.48C1794.07,1512.82,1557.08,1553,1558.52,1851.17Z" transform="translate(-478.78 -291.35)"/><path class="c" d="M1679.93,2498.69c90.1-359.41,15.83-803.39,15.57-805a5.37,5.37,0,0,0-6.66-4.4,6.38,6.38,0,0,0-4.77,7.13c.26,1.61,73.32,438.49-13.6,793.64l4.59,11Z" transform="translate(-478.78 -291.35)"/><path class="c" d="M3320.12,2395c-3.45,2.4-7.13,4.85-11,7.33a1011.41,1011.41,0,0,1-175.55,90.34h-349.3l-5.22,6.5-6.67-6.5-3.45-3.36L2688.61,2411l-14.48-14.14c2.19-.63,4.36-1.26,6.56-1.86q11.71-3.33,23.52-6.53v0c6.45-1.74,12.86-3.45,19.34-5.16,35.41-9.38,71.26-18.08,107-26q9.54-2.14,19-4.22,24.09-5.17,47.91-9.93,12.11-2.39,24.18-4.67c33.88-6.48,67.19-12.15,99.36-17,74-11.24,142.18-18.11,198.27-19.85a0,0,0,0,1,0,0C3357.9,2297.27,3422.78,2324.3,3320.12,2395Z" transform="translate(-478.78 -291.35)"/><path class="h" d="M3203.35,2267.56c-24.87,23.84-62.76,55.41-109.33,92.59a0,0,0,0,0,0,0c-35.42,28.26-75.8,59.69-119.17,93.42-39.81,30.91-82.13,63.74-125.45,97.67H2659l-5.22,6.5-6.67-6.5h-92l-12.27-51.3q10.1-15.22,20.48-30.34v0c1.2-1.68,2.31-3.28,3.45-5,2.54-3.71,5.08-7.36,7.61-11l4.54-6.5V2447c3.82-5.47,7.64-10.89,11.46-16.31.51-.68,1-1.37,1.48-2.08v0q12.79-18,25.76-35.76c60.11-82.38,123.79-161.06,187.78-230.36,0,0,0-.06.06-.08q13-14,25.95-27.58s.05-.06,0-.08c56.7-59,113.13-110.11,167.2-149.43a583.27,583.27,0,0,1,69.27-43.78c1.31-.68,2.56-1.37,3.85-2C3326.46,1806.47,3447.85,2032.61,3203.35,2267.56Z" transform="translate(-478.78 -291.35)"/><path class="c" d="M3232.7,2021.86c-.83.62-119.55,82.64-267.66,214-2,1.77-3.94,3.54-5.94,5.31C2907,2287.61,2851.54,2340,2796.36,2397q-26.7,27.6-53.16,56.58-27.07,29.68-53.49,60.74-11.8,13.86-23.39,28l-.94,1.14c-2.14,2.59-4.28,5.16-6.39,7.78l-5.22,6.5-6.67-6.5H2641c.86-1.11,1.77-2.22,2.65-3.33l0,0q6.12-7.62,12.32-15.2l0,0c.34-.4.65-.8,1-1.2,6.27-7.61,12.63-15.2,19-22.7,2.08-2.48,4.22-5,6.3-7.44l.06-.06q20.7-24.21,41.84-47.68,23.86-26.47,48-51.9c68.29-71.75,137.59-136.54,200.76-191.89,1.91-1.68,3.82-3.36,5.73-5,138.3-120.62,245.76-194.91,246.58-195.45a6.68,6.68,0,0,1,9.7,2.11A8,8,0,0,1,3232.7,2021.86Z" transform="translate(-478.78 -291.35)"/><path class="i" d="M3083.07,1890.82q-5,23.87-11.32,48.71c-21.14,82.81-53.24,172.84-93.08,265.26-4.42,10.33-9,20.71-13.63,31.11-21.31,47.77-44.58,96-69.33,144.13q-18.95,36.91-39.07,73.57-26.94,49.32-55.55,97.67H2674.42c-2.77-2.94-5.47-5.9-8.1-8.92-1.05-1.14-2.05-2.28-3.05-3.45-2.14-2.46-4.25-4.91-6.3-7.42-1.57-1.85-3.11-3.76-4.62-5.64a465.57,465.57,0,0,1-48-72.24c-2.12-3.88-4.14-7.78-6.11-11.72-2.22-4.36-4.33-8.78-6.39-13.23v0a459.55,459.55,0,0,1-20.9-53.53c63.25-253.11,116.07-497.67,152.34-601.9C2861.29,1376.35,3170.93,1468.46,3083.07,1890.82Z" transform="translate(-478.78 -291.35)"/><path class="f" d="M2662.54,2540.33c209.52-404.42,299.24-891.4,299.63-893.42.84-4.55-1.89-9-6.11-9.92s-8.35,2-9.2,6.52c-.38,2-89.1,483.36-295.3,883.88Q2656.93,2533.95,2662.54,2540.33Z" transform="translate(-478.78 -291.35)"/><path class="j" d="M4096.05,2511.84v.83c0,26.63-19.28,48.42-42.86,48.42H521.64c-23.58,0-42.86-21.79-42.86-48.42v-.83c0-26.63,19.28-48.42,42.86-48.42H4053.19C4076.77,2463.42,4096.05,2485.21,4096.05,2511.84Z" transform="translate(-478.78 -291.35)"/><path class="k" d="M2219.16,350.8h-584A33.22,33.22,0,0,0,1602,384V733.1a52.36,52.36,0,0,0,52.36,52.36h391.42a13.17,13.17,0,0,1,8.72,3.31c21.59,19,62.24,47.52,131.83,73.16l-.22-.17.28.17a171.29,171.29,0,0,1-12.68-63.15,13.16,13.16,0,0,1,13.16-13.32H2200a52.36,52.36,0,0,0,52.36-52.36V384A33.21,33.21,0,0,0,2219.16,350.8Z" transform="translate(-478.78 -291.35)"/><path class="l" d="M1767.09,515a52.15,52.15,0,0,1,78.71,11.21L1936,492.05a147.93,147.93,0,0,0-243.38-37.93Z" transform="translate(-478.78 -291.35)"/><path class="l" d="M1833.6,595.24a52.13,52.13,0,0,1-79-63.63l-74.92-61.22a147.91,147.91,0,0,0,228.74,186Z" transform="translate(-478.78 -291.35)"/><path class="m" d="M2048.53,639.81Zm-18.3-69.71a35.22,35.22,0,1,0,10.31,24.9,35.11,35.11,0,0,0-10.31-24.9Zm-7.61-34.9a62.17,62.17,0,0,1,25.91,15,2.17,2.17,0,0,0,2.58.31l16.36-9.45.09-.05a4.09,4.09,0,0,1,5.45,1.54l.07.11,11.51,19.94a4,4,0,0,1,.39,3.09,4.07,4.07,0,0,1-1.88,2.46l-.11.06-16.23,9.37a2.15,2.15,0,0,0-1,2.39h0a61.84,61.84,0,0,1,1.37,7.44,62.77,62.77,0,0,1,0,15.17,61.84,61.84,0,0,1-1.37,7.44,2.15,2.15,0,0,0,1.14,2.45l16.22,9.37h0a4.06,4.06,0,0,1,1.88,2.47,4,4,0,0,1-.39,3.08L2073,647.45h0a4.09,4.09,0,0,1-5.54,1.49l-.12-.07-16.25-9.38a2.16,2.16,0,0,0-2.57.32,63.16,63.16,0,0,1-12.1,9.12,62.29,62.29,0,0,1-13.9,5.9,2.17,2.17,0,0,0-1.57,2.08v18.87a4.06,4.06,0,0,1-4,4.05h-23.16a4.06,4.06,0,0,1-4-4.05V656.91a2.16,2.16,0,0,0-1.66-2.1,62.29,62.29,0,0,1-25.91-15,2.16,2.16,0,0,0-2.69-.26l-16.25,9.39a4.08,4.08,0,0,1-5.54-1.49l-.07-.11-11.51-20h0a4.06,4.06,0,0,1-.4-3.07,4.1,4.1,0,0,1,1.88-2.47l16.35-9.43a2.17,2.17,0,0,0,1-2.39h0a61.84,61.84,0,0,1-1.37-7.44,64.15,64.15,0,0,1,0-15.17,61.84,61.84,0,0,1,1.37-7.44,2.15,2.15,0,0,0-1.14-2.45l-16.23-9.37a4.07,4.07,0,0,1-1.48-5.54l.06-.12,11.52-19.94h0a4.08,4.08,0,0,1,5.54-1.49h0l16.36,9.45a2.16,2.16,0,0,0,2.63-.36,62.09,62.09,0,0,1,26-15,2.16,2.16,0,0,0,1.57-2.08V514.22a4.06,4.06,0,0,1,4-4h23.16a4,4,0,0,1,2.86,1.19,4,4,0,0,1,1.19,2.85V533.1A2.16,2.16,0,0,0,2022.62,535.2Z" transform="translate(-478.78 -291.35)"/><path class="n" d="M2479.18,1025.87V2553.5a117,117,0,0,1-2.84,25.6,115,115,0,0,1-3.45,12.11c-.75,2-1.49,4-2.23,6a121.89,121.89,0,0,1-19.38,32.24,133.34,133.34,0,0,1-13.27,13.84,144.92,144.92,0,0,1-15.24,11.93c-3.58,2.4-7.34,4.69-11.17,6.86h-.06q-5.74,3.18-11.85,5.86h-.06a146.39,146.39,0,0,1-19.08,6.81h-.06c-4.38,1.22-8.82,2.28-13.39,3.12a159,159,0,0,1-28.39,2.57H1645.42a155.09,155.09,0,0,1-29.87-2.9c-1.6-.34-3.15-.62-4.75-1s-3.52-.83-5.25-1.28a152.81,152.81,0,0,1-21-7.31c-3.4-1.5-6.67-3.07-9.81-4.74-1.48-.78-3-1.56-4.39-2.4-3.08-1.73-6-3.62-8.94-5.58a136.61,136.61,0,0,1-24.32-21c-2.84-3.13-5.56-6.36-8.09-9.76a126.37,126.37,0,0,1-10.12-16,113.58,113.58,0,0,1-9.44-23.26v-.06a115,115,0,0,1-4.45-31.68V1025.87c0-70,62.9-126.91,140.48-126.91h693.28C2416.35,899,2479.18,955.86,2479.18,1025.87Z" transform="translate(-478.78 -291.35)"/><path class="o" d="M2527.61,1025.87V2553.5a117,117,0,0,1-2.84,25.6,115,115,0,0,1-3.46,12.11c-.74,2-1.48,4-2.22,6a121.89,121.89,0,0,1-19.38,32.24,134.39,134.39,0,0,1-13.27,13.84,144.92,144.92,0,0,1-15.24,11.93c-3.58,2.4-7.35,4.69-11.17,6.86H2460q-5.74,3.18-11.86,5.86h-.06a146.25,146.25,0,0,1-19.07,6.81h-.06c-4.38,1.22-8.83,2.28-13.39,3.12a159,159,0,0,1-28.39,2.57H1693.85a155.09,155.09,0,0,1-29.87-2.9c-1.6-.34-3.15-.62-4.75-1s-3.52-.83-5.25-1.28a152.35,152.35,0,0,1-21-7.31c-3.4-1.5-6.67-3.07-9.82-4.74-1.48-.78-3-1.56-4.38-2.4-3.08-1.73-6-3.62-9-5.58a136.54,136.54,0,0,1-24.31-21c-2.84-3.13-5.56-6.36-8.09-9.76a126.37,126.37,0,0,1-10.12-16,113.58,113.58,0,0,1-9.44-23.26v-.06a115,115,0,0,1-4.45-31.68V1025.87c0-70,62.89-126.91,140.47-126.91H2387.2C2464.78,899,2527.61,955.86,2527.61,1025.87Z" transform="translate(-478.78 -291.35)"/><path class="p" d="M2496.75,1025.87V2553.5a91.6,91.6,0,0,1-2.22,20.08,76.27,76.27,0,0,1-2.59,9.15l-2,5.41a92.78,92.78,0,0,1-14.88,24.6,98.44,98.44,0,0,1-10.43,10.82,106,106,0,0,1-12,9.43c-2.1,1.4-4.63,3-7.53,4.63l-1.17.67c-2.41,1.34-4.88,2.62-7.47,3.79l-1.79.73a105.33,105.33,0,0,1-13.27,4.85l-1.54.45c-3.65,1-7,1.78-10.37,2.45a129,129,0,0,1-22.28,2H1693.85a119.66,119.66,0,0,1-23.27-2.24c-2.59-.5-5.18-1.06-7.65-1.73a117.38,117.38,0,0,1-16.66-5.8c-2.6-1.17-5.19-2.4-7.41-3.62-1.3-.67-2.28-1.17-3.15-1.68l-.68-.39c-1.91-1.06-4.07-2.4-6.72-4.18a110.94,110.94,0,0,1-19-16.46c-2.35-2.56-4.38-5-6.24-7.47a99.69,99.69,0,0,1-7.9-12.5,90.21,90.21,0,0,1-7-16.68l-.43-1.5a90.82,90.82,0,0,1-3.46-24.77V1025.87c0-54.56,49.19-99,109.61-99H2387.2c46.1,0,85.66,25.94,101.77,62.48A90,90,0,0,1,2496.75,1025.87Z" transform="translate(-478.78 -291.35)"/><path class="q" d="M2524.6,2130c.74-5.69,1.73-12.44,3-20.08v120.43c-7.16-19-12-33-12.9-38.15C2512.56,2179.66,2518.37,2153.11,2524.6,2130Z" transform="translate(-478.78 -291.35)"/><path class="o" d="M2527.62,1412.7h0V1232.34h0c15.56,0,28.17,11.39,28.17,25.45v129.46C2555.79,1401.31,2543.18,1412.7,2527.62,1412.7Z" transform="translate(-478.78 -291.35)"/><path class="o" d="M1545.16,1322.52h22.38v-90.18h-22.38a5.79,5.79,0,0,0-5.79,5.79v78.6A5.79,5.79,0,0,0,1545.16,1322.52Z" transform="translate(-478.78 -291.35)"/><path class="o" d="M1545.16,1431.3h22.38v-90.19h-22.38a5.8,5.8,0,0,0-5.79,5.79v78.61A5.79,5.79,0,0,0,1545.16,1431.3Z" transform="translate(-478.78 -291.35)"/><path class="o" d="M2183,972.88H1921.71c-44,0-79.6-25.5-79.6-57h420.53C2262.64,947.38,2227,972.88,2183,972.88Z" transform="translate(-478.78 -291.35)"/><rect class="r" x="1187.46" y="847.2" width="774.85" height="275.28"/><rect class="r" x="1187.46" y="1170.91" width="774.85" height="137.64"/><rect class="r" x="1187.46" y="1356.97" width="774.85" height="137.64"/><rect class="r" x="1187.46" y="1680.68" width="774.85" height="137.64"/><rect class="r" x="1187.46" y="1869.29" width="774.85" height="137.64"/><rect class="s" x="1187.46" y="755.44" width="463.89" height="33.13" rx="14.26"/><rect class="t" x="1302.16" y="1030.72" width="922.68" height="1231.09" rx="35.28"/><path class="p" d="M2653.69,1973v474.35a13.75,13.75,0,0,1-13.74,13.76H1864.18a13.77,13.77,0,0,1-13.77-13.76V1973a13.77,13.77,0,0,1,13.77-13.76H2640A13.74,13.74,0,0,1,2653.69,1973Z" transform="translate(-478.78 -291.35)"/><path class="r" d="M2653.69,1973v37.46H1850.41V1973a13.77,13.77,0,0,1,13.77-13.76H2640A13.74,13.74,0,0,1,2653.69,1973Z" transform="translate(-478.78 -291.35)"/><path class="s" d="M2561.1,1986.42a10.19,10.19,0,1,1-10.19-10.18A10.19,10.19,0,0,1,2561.1,1986.42Z" transform="translate(-478.78 -291.35)"/><path class="s" d="M2596.91,1986.42a10.19,10.19,0,1,1-10.19-10.18A10.19,10.19,0,0,1,2596.91,1986.42Z" transform="translate(-478.78 -291.35)"/><path class="s" d="M2632.71,1986.42a10.19,10.19,0,1,1-10.18-10.18A10.19,10.19,0,0,1,2632.71,1986.42Z" transform="translate(-478.78 -291.35)"/><rect class="s" x="1434.65" y="1738.84" width="4.37" height="34.31"/><path class="u" d="M2215.91,2263.91a9,9,0,0,1-3.33,7,11.35,11.35,0,0,1-7.65,2.88,10.32,10.32,0,0,1-5.4-1.53,10.15,10.15,0,0,1-4-4.77l-10.8-24.12h-63.36l-10.8,24.12a10.27,10.27,0,0,1-4,4.77,10.66,10.66,0,0,1-5.58,1.53,11.45,11.45,0,0,1-7.56-2.88,8.86,8.86,0,0,1-3.42-7,11.09,11.09,0,0,1,1.08-4.68l49.68-106.74a11.61,11.61,0,0,1,5-5.49,14.32,14.32,0,0,1,14.22,0,11.61,11.61,0,0,1,4.95,5.49l49.86,106.74A11.09,11.09,0,0,1,2215.91,2263.91Zm-39.06-38.52-23.76-53.46-23.76,53.46Z" transform="translate(-478.78 -291.35)"/><path class="u" d="M2236.52,2271a11.51,11.51,0,0,1-3.15-8.55v-105.3q0-5.22,3-8.1t8.19-2.88h44.27q20.34,0,31.69,10.17t11.34,28.53q0,18.36-11.34,28.62t-31.69,10.26h-32.21v38.7a10.87,10.87,0,0,1-11.71,11.7A11.27,11.27,0,0,1,2236.52,2271Zm49.4-65.07q23.94,0,23.95-20.88t-23.95-20.88h-29.33V2206Z" transform="translate(-478.78 -291.35)"/><path class="u" d="M2355.31,2270.93a11.62,11.62,0,0,1-3.15-8.46V2156.81a10.83,10.83,0,0,1,11.52-11.52,11.55,11.55,0,0,1,8.55,3.15,11.31,11.31,0,0,1,3.15,8.37v105.66a11.62,11.62,0,0,1-3.15,8.46,11.37,11.37,0,0,1-8.55,3.24A11.14,11.14,0,0,1,2355.31,2270.93Z" transform="translate(-478.78 -291.35)"/><rect class="v" x="1453.87" y="1770.57" width="389.6" height="9.29" rx="2.08"/><rect class="w" x="1453.87" y="2055.43" width="434.82" height="9.15" rx="2.08"/><path class="s" d="M2425.5,2087.89H1936.62a4,4,0,0,0-4,4h0a4,4,0,0,0,4,4H2425.5a4,4,0,0,0,4-4h0A4,4,0,0,0,2425.5,2087.89Z" transform="translate(-478.78 -291.35)"/><rect class="x" x="1453.87" y="2080.81" width="420.31" height="8.98" rx="2.08"/><rect class="v" x="1453.87" y="2032.31" width="497.29" height="9.42" rx="2.32"/><rect class="x" x="1971.05" y="1796.12" width="122.77" height="8.46" rx="2.08"/><rect class="s" x="1452.72" y="1745.36" width="142.58" height="9.1" rx="2.08"/><path class="y" d="M1943.76,1469.5h-56.25c-3,0-5.41-4.87-5.41-10.88h0c0-6,2.42-10.87,5.41-10.87h56.25c3,0,5.42,4.87,5.42,10.87h0C1949.18,1464.63,1946.75,1469.5,1943.76,1469.5Z" transform="translate(-478.78 -291.35)"/><path class="y" d="M2292,1469.5H1970.25c-3,0-5.42-4.87-5.42-10.88h0c0-6,2.43-10.87,5.42-10.87H2292c3,0,5.41,4.87,5.41,10.87h0C2297.43,1464.63,2295,1469.5,2292,1469.5Z" transform="translate(-478.78 -291.35)"/><path class="z" d="M2072.89,1514.46H1970.25c-3,0-5.42-4.87-5.42-10.88h0c0-6,2.43-10.88,5.42-10.88h102.64c3,0,5.41,4.87,5.41,10.88h0C2078.3,1509.59,2075.88,1514.46,2072.89,1514.46Z" transform="translate(-478.78 -291.35)"/><path class="aa" d="M2241.71,1514.46H2093.78c-3,0-5.41-4.87-5.41-10.88h0c0-6,2.42-10.88,5.41-10.88h147.93c3,0,5.41,4.87,5.41,10.88h0C2247.12,1509.59,2244.7,1514.46,2241.71,1514.46Z" transform="translate(-478.78 -291.35)"/><path class="aa" d="M2292,1733.34H1970.25c-3,0-5.42-4.86-5.42-10.87h0c0-6,2.43-10.88,5.42-10.88H2292c3,0,5.41,4.87,5.41,10.88h0C2297.43,1728.48,2295,1733.34,2292,1733.34Z" transform="translate(-478.78 -291.35)"/><path class="y" d="M1943.76,1778.3h-56.25c-3,0-5.41-4.87-5.41-10.87h0c0-6,2.42-10.88,5.41-10.88h56.25c3,0,5.42,4.87,5.42,10.88h0C1949.18,1773.43,1946.75,1778.3,1943.76,1778.3Z" transform="translate(-478.78 -291.35)"/><path class="aa" d="M2072.89,1778.3H1970.25c-3,0-5.42-4.87-5.42-10.87h0c0-6,2.43-10.88,5.42-10.88h102.64c3,0,5.41,4.87,5.41,10.88h0C2078.3,1773.43,2075.88,1778.3,2072.89,1778.3Z" transform="translate(-478.78 -291.35)"/><path class="z" d="M2241.71,1778.3H2093.78c-3,0-5.41-4.87-5.41-10.87h0c0-6,2.42-10.88,5.41-10.88h147.93c3,0,5.41,4.87,5.41,10.88h0C2247.12,1773.43,2244.7,1778.3,2241.71,1778.3Z" transform="translate(-478.78 -291.35)"/><path class="z" d="M2371.81,1559.41H1970.25c-3,0-5.42-4.87-5.42-10.87h0c0-6,2.43-10.88,5.42-10.88h401.56c3,0,5.42,4.87,5.42,10.88h0C2377.23,1554.54,2374.8,1559.41,2371.81,1559.41Z" transform="translate(-478.78 -291.35)"/><rect class="y" x="1709.65" y="1291.27" width="104.95" height="21.75" rx="0.57"/><path class="aa" d="M2103.64,1604.37H1970.25c-3,0-5.42-4.87-5.42-10.88h0c0-6,2.43-10.87,5.42-10.87h133.39c3,0,5.41,4.87,5.41,10.87h0C2109.05,1599.5,2106.63,1604.37,2103.64,1604.37Z" transform="translate(-478.78 -291.35)"/><path class="y" d="M2174.63,1604.37h-52.9c-3,0-5.41-4.87-5.41-10.88h0c0-6,2.42-10.87,5.41-10.87h52.9c3,0,5.41,4.87,5.41,10.87h0C2180,1599.5,2177.62,1604.37,2174.63,1604.37Z" transform="translate(-478.78 -291.35)"/><path class="aa" d="M1943.76,1647.83h-56.25c-3,0-5.41-4.87-5.41-10.88h0c0-6,2.42-10.87,5.41-10.87h56.25c3,0,5.42,4.86,5.42,10.87h0C1949.18,1643,1946.75,1647.83,1943.76,1647.83Z" transform="translate(-478.78 -291.35)"/><path class="aa" d="M2371.81,1647.83H1970.25c-3,0-5.42-4.87-5.42-10.88h0c0-6,2.43-10.87,5.42-10.87h401.56c3,0,5.42,4.86,5.42,10.87h0C2377.23,1643,2374.8,1647.83,2371.81,1647.83Z" transform="translate(-478.78 -291.35)"/><path class="aa" d="M1943.76,1819.94h-56.25c-3,0-5.41-4.87-5.41-10.88h0c0-6,2.42-10.88,5.41-10.88h56.25c3,0,5.42,4.87,5.42,10.88h0C1949.18,1815.07,1946.75,1819.94,1943.76,1819.94Z" transform="translate(-478.78 -291.35)"/><rect class="aa" x="1709.65" y="1506.83" width="145.2" height="21.75" rx="0.68"/><path class="aa" d="M2103.64,1819.94H1970.25c-3,0-5.42-4.87-5.42-10.88h0c0-6,2.43-10.88,5.42-10.88h133.39c3,0,5.41,4.87,5.41,10.88h0C2109.05,1815.07,2106.63,1819.94,2103.64,1819.94Z" transform="translate(-478.78 -291.35)"/><path class="aa" d="M2174.63,1819.94h-52.9c-3,0-5.41-4.87-5.41-10.88h0c0-6,2.42-10.88,5.41-10.88h52.9c3,0,5.41,4.87,5.41,10.88h0C2180,1815.07,2177.62,1819.94,2174.63,1819.94Z" transform="translate(-478.78 -291.35)"/><path class="ab" d="M1943.76,1863.4h-56.25c-3,0-5.41-4.87-5.41-10.88h0c0-6,2.42-10.88,5.41-10.88h56.25c3,0,5.42,4.87,5.42,10.88h0C1949.18,1858.53,1946.75,1863.4,1943.76,1863.4Z" transform="translate(-478.78 -291.35)"/><path class="y" d="M2039.77,1863.4h-69.52c-3,0-5.42-4.87-5.42-10.88h0c0-6,2.43-10.88,5.42-10.88h69.52c3,0,5.42,4.87,5.42,10.88h0C2045.19,1858.53,2042.76,1863.4,2039.77,1863.4Z" transform="translate(-478.78 -291.35)"/><path class="y" d="M1887.51,1692.79c-3,0-5.41-4.87-5.41-10.88h0c0-6,2.42-10.88,5.41-10.88h56.25c3,0,5.42,4.87,5.42,10.88h0c0,6-2.43,10.88-5.42,10.88" transform="translate(-478.78 -291.35)"/><rect class="aa" x="1709.65" y="1379.68" width="164.07" height="21.75" rx="0.72"/><path class="ab" d="M2103.64,1692.79H1970.25c-3,0-5.42-4.87-5.42-10.88h0c0-6,2.43-10.88,5.42-10.88h133.39c3,0,5.41,4.87,5.41,10.88h0C2109.05,1687.92,2106.63,1692.79,2103.64,1692.79Z" transform="translate(-478.78 -291.35)"/><path class="ab" d="M2174.63,1692.79h-52.9c-3,0-5.41-4.87-5.41-10.88h0c0-6,2.42-10.88,5.41-10.88h52.9c3,0,5.41,4.87,5.41,10.88h0C2180,1687.92,2177.62,1692.79,2174.63,1692.79Z" transform="translate(-478.78 -291.35)"/><path class="ac" d="M1633.17,1236.58c-.38-7.16-1.17-12.71-2.46-15.76a306.78,306.78,0,0,0-17.1-33.89l-1-13.32,59.29-184.44-104.3,61.68-11.49,122.27s-60.86,82.21-51.63,90.55c8,7.18,36.52-18.11,44.27-25.19,1.19-1.16,1.91-1.83,1.91-1.83s37.61,12.18,59-17.1C1609.67,1219.55,1621.53,1235.52,1633.17,1236.58Z" transform="translate(-478.78 -291.35)"/><path class="ac" d="M1546,1211l-12.61,85.75A68.89,68.89,0,0,0,1520.8,1327c-2.53,17.66,10.08,5,10.08,5s-10.08,12.61-2.52,17.65,64.51,5,95.84-60.53c27.74-58-12.61-116-12.61-116Z" transform="translate(-478.78 -291.35)"/><path class="ad" d="M1201,2400.25l42.09,129.26s72.14,60.12,78.16,75.15,0,42.09,0,42.09H1195l-102.21-87.18-36.07-147.3Z" transform="translate(-478.78 -291.35)"/><path class="ad" d="M1117.27,2650.43l-13.1,5,5.53,30.31s25.22,37.83,98.36,27.74c0,0,32.79-7.57,40.36-35.31V2653Z" transform="translate(-478.78 -291.35)"/><path class="ae" d="M1074.39,2378.05,1089.53,2484l13.62,165.74a31.6,31.6,0,0,0,19.58,26.71c29.53,12,88.3,28.75,122.82-9.24a13.76,13.76,0,0,0,2.76-13.91l-70.51-194.52,2.52-123.58Z" transform="translate(-478.78 -291.35)"/><path class="af" d="M1467.84,1851.73c-6.22,39.11-33.64,100-68.66,165.72-78.85,147.9-196.17,319.67-196.17,319.67l-7.13-17.77-75.57-49.6-27.51-18.06,17.59-77,137.08-599.56,24.23-106,22.12-96.19,50.44-43.53s10,27.48,24.32,70.28c2.17,6.38,4.42,13.14,6.73,20.2C1416.35,1544.45,1481.88,1763.08,1467.84,1851.73Z" transform="translate(-478.78 -291.35)"/><path d="M1357,1807.18l-55.37,44.58,33.12,22.33a1.7,1.7,0,0,1-1,3.1h-60.6L1165.4,2269.75l-27.51-18.06,154.67-676.52,4.66-82.76-15,336.68,73.4-24.47A1.48,1.48,0,0,1,1357,1807.18Z" transform="translate(-478.78 -291.35)"/><path d="M1399.18,2017.45c-78.85,147.9-196.17,319.67-196.17,319.67l-7.13-17.77-75.57-49.6-27.51-18.06,17.59-77c17.58-15.63,38.51-27.11,63.37-32C1264.18,2124.86,1348,2062.72,1399.18,2017.45Z" transform="translate(-478.78 -291.35)"/><path class="af" d="M1293.82,1359.75c-1,23.09-2.31,47.17-3.73,72.06-22.66,394-89.58,990.38-89.58,990.38L1074.26,2438l-35.18,4.39S955.85,1589.27,971,1473.23c9.32-71.54,55.1-126.8,88.83-158.63,21-19.78,37.27-30.51,37.27-30.51l132.87,51.1Z" transform="translate(-478.78 -291.35)"/><path d="M1340.33,614.64s128.44-33.32,75.9-155.5-163.47-138.83-233.53-83.3-17.52,133.29-17.52,133.29-64.22-38.88-93.41,11.1,5.84,77.75,5.84,77.75S990,568.45,966.69,625.72c-27.26,66.85,52.54,83.33,52.54,83.33s-35,44.42-17.51,77.74,40.86,44.43,40.86,44.43-93.41,16.66-93.41,94.41,128.44,55.53,128.44,55.53h169.31l11.68-288.77Z" transform="translate(-478.78 -291.35)"/><path class="ac" d="M1194.38,775.69,1182.7,920.07l146.76,67.62,5-200.9,63.48-23a50.82,50.82,0,0,0,25.77-74.73l-112.6-179.93s-35,161-87.57,172.15-58.39-27.77-58.39-27.77-93.41,44.43-58.38,94.41S1194.38,775.69,1194.38,775.69Z" transform="translate(-478.78 -291.35)"/><path d="M1340.5,615.34A50.3,50.3,0,0,0,1371,645.42l-2.91-3.83c0,.14-.15,1.36-.1.95s-.12.81-.15,1c-.13.73-.28,1.46-.45,2.18a35,35,0,0,1-1.51,4.79c-.06.17-.13.35-.2.52.16-.38.14-.35,0,.08s-.31.67-.47,1c-.36.72-.73,1.44-1.13,2.14s-.82,1.39-1.27,2.06c-.2.31-.41.61-.63.92-.08.11-1,1.27-.49.68-1.28,1.63-1.72,4,0,5.62,1.42,1.31,4.24,1.75,5.61,0a41.19,41.19,0,0,0,8.77-21.9c.17-1.81-1.37-3.29-2.91-3.83-.83-.29-1.64-.6-2.45-.93.88.36-.22-.11-.4-.19l-1-.48a45.85,45.85,0,0,1-4.28-2.39c-.64-.4-1.28-.83-1.9-1.26l-1.06-.77q-.54-.4,0,0l-.52-.41q-1.85-1.49-3.54-3.15t-3.2-3.49l-.82-1c.59.75-.26-.37-.36-.5q-.67-.93-1.29-1.89a44.46,44.46,0,0,1-2.45-4.24c-.34-.68-.66-1.37-1-2.06-.18-.42-.17-.4,0,0-.09-.2-.17-.4-.25-.6-.16-.41-.31-.81-.46-1.22-.72-2-2.73-3.48-4.89-2.78-1.91.62-3.54,2.8-2.78,4.89Z" transform="translate(-478.78 -291.35)"/><path d="M1365.49,714.4a39.5,39.5,0,0,1-5.48,3.12l-.66.3c-.2.09-1,.56-.13.06a8.92,8.92,0,0,1-1.36.53c-1,.38-2,.71-3,1a34.24,34.24,0,0,1-6,1.26l-.69.07-1.46.12c-1.08.07-2.16.1-3.23.1s-2,0-2.94-.1c-.54,0-1.07-.08-1.61-.13l-.73-.08c-.5-.06-.77,0-.11,0a31.81,31.81,0,0,1-6.33-1.32c-1-.27-1.88-.57-2.8-.89q-.71-.24-1.38-.51l-.55-.21-.54-.22c.5.21.54.22.14,0a46.91,46.91,0,0,1-5.44-2.85c-1-.61-2-1.26-2.9-2l-.47-.35c.86.64-.19-.15-.35-.28-.45-.37-.89-.75-1.33-1.13a40.25,40.25,0,0,1-4.81-5.13c-1.29-1.64-4.29-1.45-5.62,0a4.09,4.09,0,0,0,0,5.62c11.47,14.59,32.12,20.39,49.85,16a43.79,43.79,0,0,0,14-6.19,4,4,0,0,0,1.43-5.43c-1.11-1.71-3.6-2.67-5.44-1.43Z" transform="translate(-478.78 -291.35)"/><path d="M1328.42,777.62l-38.9,11.74a4,4,0,1,0,2.11,7.66l38.9-11.74a4,4,0,1,0-2.11-7.66Z" transform="translate(-478.78 -291.35)"/><path d="M1134.43,729.57c0-.91-.07-1.81,0-2.72,0-.4,0-.8.07-1.2l.06-.59.06-.59-.06.47c.18-.21.18-1.06.23-1.32.09-.43.18-.87.29-1.3q.32-1.29.75-2.55c.13-.37.26-.74.41-1.1,0,0,.39-.94.13-.35s0-.08.1-.2c.39-.86.81-1.7,1.27-2.52s.86-1.45,1.33-2.15c.25-.38.51-.74.77-1.11l.36-.48c-.39.54-.14.17.11-.14a36.54,36.54,0,0,1,3.61-3.85c.63-.59,1.28-1.15,1.95-1.69,0,0,.81-.63.31-.25s.1-.07.21-.15l1.24-.88a39.15,39.15,0,0,1,4.74-2.74c.41-.2.83-.38,1.25-.57.17-.08.7-.28-.11,0l.56-.23q1.28-.49,2.58-.9a26.39,26.39,0,0,1,5.32-1.19l.6,0c.45,0,.9-.07,1.36-.09.91,0,1.82,0,2.72,0a22.67,22.67,0,0,1,2.74.24c-.91-.15.15,0,.47.09l1.5.29a38.23,38.23,0,0,1,5.25,1.58c.32.12,1.26.53.46.17l1.25.57c.87.41,1.72.85,2.56,1.33a48.93,48.93,0,0,1,4.46,2.93c.51.36-.73-.6,0,0l.48.38.94.79c.74.64,1.45,1.3,2.15,2a47.13,47.13,0,0,1,3.72,4.14c.08.09.49.62.17.2s.27.38.34.47q.46.63.9,1.26c.58.86,1.14,1.73,1.67,2.62s1,1.8,1.5,2.73c.23.46.46.92.68,1.39l.26.57c0,.1.46,1,.23.52s0,.12.1.24c.12.29.23.58.34.87.19.48.36,1,.53,1.46q.51,1.47.9,3c.27,1,.5,2,.7,3,.1.51.19,1,.27,1.52,0,.14.12.81,0,.24s.06.59.08.7l6.78-2.81A34.61,34.61,0,0,0,1182.05,720a33.55,33.55,0,0,0-25.27,12,34.18,34.18,0,0,0-7.27,14.36,4,4,0,1,0,7.66,2.11,28.74,28.74,0,0,1,.8-2.89c.15-.45.31-.89.48-1.34,0,0,.42-1,.16-.4s.27-.57.32-.67a34.49,34.49,0,0,1,3.11-5.11c-.47.65-.15.19,0,0s.4-.49.61-.73.55-.64.83-.95c.72-.77,1.47-1.51,2.26-2.21.39-.35.8-.68,1.21-1,.57-.46,0,0-.06,0l.77-.55a28.47,28.47,0,0,1,2.67-1.68c.83-.46,1.68-.86,2.54-1.26-.88.41.56-.22.81-.31.49-.17,1-.34,1.5-.49a27.18,27.18,0,0,1,2.8-.68l1-.17c.2,0,.77-.06-.09,0,.6,0,1.19-.12,1.78-.15a28.78,28.78,0,0,1,3.08,0c.44,0,.87,0,1.3.09l1,.11c-.7-.09-.15,0,.23,0a31.63,31.63,0,0,1,6,1.61l.75.3-.2-.08.45.2c.54.25,1.07.51,1.6.79a32.56,32.56,0,0,1,3,1.85l.53.38c.26.18.77.59.23.16.51.41,1,.83,1.49,1.26a31.65,31.65,0,0,1,2.48,2.57,3.93,3.93,0,0,0,4.34.82,3.89,3.89,0,0,0,2.44-3.63c-1.83-16.51-12.1-32.39-27.42-39.42a38.57,38.57,0,0,0-24.73-2.9,41.25,41.25,0,0,0-20.91,12.14c-6.31,6.82-10.3,15.89-9.75,25.29a4,4,0,0,0,8,0Z" transform="translate(-478.78 -291.35)"/><path class="ac" d="M1240.85,923.44l-25.22-2.53s-128.63-20.17-156.37,2.53-42.87,111-42.87,111S1210.58,1147.9,1372,1042c118.66-77.87,94.2-135.3,72.92-160.25-7.48-8.78-17.15,1.31-27.46,6.47l-93.38,32.72Z" transform="translate(-478.78 -291.35)"/><path class="ag" d="M1649.42,1175.64l-100-11.1-13.54-1.51s10.09-111,5-131.15c0,0-93.62,140.23-113.49,194.2a491.4,491.4,0,0,1-58,111,24.93,24.93,0,0,1-5.49,5.4c-6.39,4.84-16.7,9.81-29.94,14-45.57,14.3-125.57,18.82-197-25.75a234.06,234.06,0,0,1-40-31.45l-2.42-23.28-10.19-97.78-130-38.76-13.74-4.11s3.3-7,8.82-18.46c8.25-17.3,21.54-44.85,36.14-74.25l0,0c10.72-21.64,22.17-44.31,32.81-64.66,0,0,0,0,0,0l0,0c10.43-19.87,20.1-37.53,27.65-49.87a16.46,16.46,0,0,1,20.48-6.53c9.41,4,23.69,9.67,41.33,15.6,9.71,3.25,20.43,6.55,31.93,9.7,73.19,20,177.15,32.49,245.39-27.11a149.23,149.23,0,0,0,11.33-10.94c9.53-10.14,16.21-12.76,23.78-26.48h0c14.68-14.69,36.38-16.92,57.11-18,55-3,161.82-23.62,173-18,15.13,7.57,37.83,7.57,40.36,75.66S1649.42,1175.64,1649.42,1175.64Z" transform="translate(-478.78 -291.35)"/><path class="ah" d="M1140,946.71V1170.6l-73.14-37.83,5.32-28.23S1098.81,1037,1108,937C1117.75,940.26,1128.47,943.56,1140,946.71Z" transform="translate(-478.78 -291.35)"/><path class="ah" d="M1549.47,1164.54l-13.54-1.51s10.09-111,5-131.15c0,0-93.62,140.23-113.49,194.2a491.4,491.4,0,0,1-58,111,24.93,24.93,0,0,1-5.49,5.4l-7.12-25.57,37.83-307.69-9.33-89.59-3.28-31.47c4.49,3.68,9.46,10.94,14.61,20.53,26.65,49.53,58.53,161.06,58.53,161.06,32.79,0,93.32-85.75,93.32-85.75C1556.66,994.1,1551.72,1117,1549.47,1164.54Z" transform="translate(-478.78 -291.35)"/><path class="af" d="M1375.07,1316.16a60.64,60.64,0,0,0-4.32,28.17l3,35.32,1.53,18,1.75,20.11-87,14-.24,0-18.15,2.91-129.21,20.84-52.75-90-29.91-51-3.1-5.29a774.34,774.34,0,0,0,30.81-92.29c38.39-143.51,33.91-275.78,32.53-302.11a4.33,4.33,0,0,1,4.51-4.54l34.9,1.72a4.34,4.34,0,0,1,4.09,4c5.38,85.05,4.14,141,4.14,141,143.76,17.65,201.77,0,201.77,0,5-32.77-18.94-149.43-18.94-149.43l32.2-12.09a2.49,2.49,0,0,1,3.55,1c32.1,67.22,50.14,225.61,38.66,271.48C1409.7,1229.05,1385.84,1290,1375.07,1316.16Z" transform="translate(-478.78 -291.35)"/><path d="M1178.11,1139.74l213.72-1.43s13,110.81-85.22,119.6C1159.4,1271.1,1178.11,1139.74,1178.11,1139.74Z" transform="translate(-478.78 -291.35)"/><path d="M1378.38,1251.92l-36.07,48.1-105.21,9-7.13,26.15h0a11.25,11.25,0,0,1-9,8.12l-131.27,22.3-4.45.76s-49.6,41.87-43.59,258.31c4.26,153.4,28.62,730.78,32.56,813.29l-35.18,4.39S955.85,1589.27,971,1473.23c9.32-71.54,55.1-126.8,88.83-158.63l-3.1-5.29a774.34,774.34,0,0,0,30.81-92.29L1249.12,1264Z" transform="translate(-478.78 -291.35)"/><path class="ac" d="M1352,1320.85c-6.83-2.22-12-4.42-14.59-6.45a306.61,306.61,0,0,1-28.34-25.27l-12.61-4.4L1103,1294.41l86.51-84.84L1310.61,1230s95.13-37.58,100.8-26.51c4.89,9.56-26.91,30.62-35.76,36.27-1.42.85-2.25,1.38-2.25,1.38s2,39.47-31.75,52.6C1341.65,1293.75,1354,1309.32,1352,1320.85Z" transform="translate(-478.78 -291.35)"/><path class="ac" d="M1349.76,1230l86.1,9.94a69,69,0,0,1,32.5-4.37c17.7,2.12,2.27,11.05,2.27,11.05s14.78-6.5,17.7,2.12-11.83,63.6-83.21,77c-63.2,11.83-108.83-42.12-108.83-42.12Z" transform="translate(-478.78 -291.35)"/><path class="ag" d="M1235.81,1205.91l-6.26,50.06-8.88,71s-36.11,3.26-83.6,3.71c-70.9.71-164.43-8.49-206.43-36.49-53-35.31-2.52-138.72-2.52-138.72l21.43-38.63,1.72-2.75,11-5.78,54.13-28.5C1059.26,1087.37,1235.81,1205.91,1235.81,1205.91Z" transform="translate(-478.78 -291.35)"/><path class="ah" d="M1229.55,1256l-8.88,71s-36.11,3.26-83.6,3.71c-70.9.71-164.43-8.49-206.43-36.49-53-35.31-2.52-138.72-2.52-138.72l21.43-38.63c8.25-17.3,21.54-44.85,36.14-74.25a556.44,556.44,0,0,0-23.43,65.72c-2.87,10-5.49,20.41-7.79,31.1a397,397,0,0,0-8.7,66.51c-2.62,63,74.45,74,148.9,70C1163.22,1272.26,1229.55,1256,1229.55,1256Z" transform="translate(-478.78 -291.35)"/><path class="p" d="M3977.29,1438.84a154.28,154.28,0,0,0-131.55-73.68,160.68,160.68,0,0,0-43.44,6.26,186.7,186.7,0,0,0-158.43-87.87c-90.91,0-166.73,65-183.53,151-2.71-.18-5.38-.5-8.18-.5a139.78,139.78,0,0,0,0,279.56h489.59a139.65,139.65,0,0,0,35.54-274.75Z" transform="translate(-478.78 -291.35)"/><path class="u" d="M4004.43,1428a154.31,154.31,0,0,0-131.55-73.68,160.68,160.68,0,0,0-43.44,6.26A186.7,186.7,0,0,0,3671,1272.69c-90.91,0-166.73,65-183.53,151-2.71-.18-5.38-.5-8.18-.5a139.78,139.78,0,0,0,0,279.56h489.6A139.65,139.65,0,0,0,4004.43,1428Z" transform="translate(-478.78 -291.35)"/><path class="l" d="M3821.3,1527.9v-51.77l-46.77,4.19a110.11,110.11,0,0,0-17.9-39.87l37.63-29.6-36.6-36.6-31.24,37.38a110.14,110.14,0,0,0-39.86-15.78l5.81-48.65h-51.76l4.37,48.87a110.16,110.16,0,0,0-39.66,16.32l-30-38.15-36.6,36.61,36.78,30.73a110.29,110.29,0,0,0-17.4,40.1l-46.43-5.55v51.77l45.72-4.09a110.19,110.19,0,0,0,16.45,41.74l-35.12,27.64,36.6,36.6,28.24-33.8a110.32,110.32,0,0,0,42.2,17.64l-5.15,43.2h51.76l-3.89-43.4a110,110,0,0,0,42-18.22l27.21,34.58,36.6-36.6-34.43-28.78a110,110,0,0,0,16-41.94Zm-154.81,29.54a52.65,52.65,0,1,1,52.65-52.65A52.65,52.65,0,0,1,3666.49,1557.44Z" transform="translate(-478.78 -291.35)"/><path class="s" d="M3924.46,1578.27v-31.55l-28.5,2.55a67.13,67.13,0,0,0-10.91-24.29l22.93-18-22.31-22.31-19,22.79a67.06,67.06,0,0,0-24.29-9.62l3.54-29.64h-31.54l2.66,29.77a67.05,67.05,0,0,0-24.16,9.94l-18.29-23.24-22.3,22.31,22.41,18.73a67,67,0,0,0-10.6,24.43l-28.29-3.38v31.55l27.86-2.5a67,67,0,0,0,10,25.44l-21.4,16.84,22.3,22.3,17.21-20.59a67.13,67.13,0,0,0,25.72,10.74l-3.14,26.33h31.54l-2.37-26.44a67,67,0,0,0,25.58-11.11l16.57,21.07,22.31-22.3-21-17.54a67,67,0,0,0,9.72-25.56Zm-94.34,18a32.09,32.09,0,1,1,32.08-32.09A32.09,32.09,0,0,1,3830.12,1596.27Z" transform="translate(-478.78 -291.35)"/><polygon class="ac" points="3149.19 2050.86 3156.3 2183.27 3042.01 2187.69 3026.67 2062.92 3149.19 2050.86"/><path d="M3640.17,2437.16l37.94,177.3L3587,2631.37l-6.21-16.66-24.85,25.8-185.11,27s-9.5-31.77,5.74-42,53.44-32.19,53.44-32.19l76.15-75.26-5.69-77.21Z" transform="translate(-478.78 -291.35)"/><polygon class="ac" points="2758.86 2082.35 2743.5 2214.06 2630.11 2199.11 2636.06 2073.54 2758.86 2082.35"/><path d="M3239,2437.34l2.12,213.17-92.71,1.27-3.3-17.47-28.86,21.23-187,.65s-4-32.91,12.74-40.39,58.12-22.7,58.12-22.7l87.76-66.65,7.44-85.06Z" transform="translate(-478.78 -291.35)"/><path class="ai" d="M2704.87,972.24s-61.35-42.68-90.7,0,58.69,144,136,157.38c0,0,40-109.36-16-176S2704.87,972.24,2704.87,972.24Z" transform="translate(-478.78 -291.35)"/><path class="aj" d="M2816.9,1161.63l-27.57,111.14s254.3,112.92,294.31,64.91l-122.7-176Z" transform="translate(-478.78 -291.35)"/><path class="r" d="M3374,1471l-25.81,208.26L3253,2447.51H3088.13c-10.92-199.87-11.09-570.36-9.92-797.27v-1.85c.74-114-3.85-169.34-3.85-169.34l20.76-.34c5.22,2.57,26,12.15,58.72,20.22,7.67-14.94,14.48-28,19.59-37.56l165.31,7.93Z" transform="translate(-478.78 -291.35)"/><path class="r" d="M3348.15,1679.24,3253,2447.51H3135c141.62-206.37,141.62-719.76,141.62-719.76l5.7-105.51Z" transform="translate(-478.78 -291.35)"/><polygon class="ak" points="3179.12 2156.16 3132.61 2159.7 3004.26 2169.48 2732.75 1156.11 2875.25 1137.94 3083.53 1111.39 3179.12 2156.16"/><path class="aj" d="M3093.6,804.74l-79.5,64a62.24,62.24,0,0,0-21.75,35l-54.13,244.69s-28.26,155.39,143.61,103.59l33-367.27Z" transform="translate(-478.78 -291.35)"/><path class="aj" d="M3178.57,1320.34l-37.39,139.51-46.87,19.2s-15.53,56-16.11,171.2c-9.71-.32-24-1.87-37.43-7.26-23.55-9.42,44.1-805.29,44.1-805.29l43.07-65.91,49.73,23.66Z" transform="translate(-478.78 -291.35)"/><path class="r" d="M3657.9,2447.51l-46.51,3.54-32.45-326.92c-139.73-513.3-313.69-638.78-313.69-638.78l88.78-56.06,208.28-26.55Z" transform="translate(-478.78 -291.35)"/><path class="o" d="M3173.43,1461.37c-5.11,9.53-11.92,22.62-19.59,37.56-32.71-8.07-53.5-17.65-58.72-20.22l46.06-18.88Z" transform="translate(-478.78 -291.35)"/><path class="o" d="M3338.74,1469.3,3197.41,816.52l-19.73-21.07s-39.13,58.74-50.91,2.22l-1.08,2L3103,841.84s14.37,367.84-9.18,636.21c0,0,.43.23,1.31.66l46.06-18.88,32.25,1.54c-5.11,9.53-11.92,22.62-19.59,37.56,44.74,11,111.78,19.19,191.89,2.68Z" transform="translate(-478.78 -291.35)"/><path class="ai" d="M2978.37,457.51l-5.94,182.13a67.83,67.83,0,0,0,79.36,69.05l32.77-5.68,12.58,125.22,188.59-14.44L3166.62,388.52Z" transform="translate(-478.78 -291.35)"/><path d="M2902.42,334.16c74.59-94.81,172.46-2.55,172.46-2.55s108.54-34,166.67,16.65c139.32,121.48-26,323-26,323l-90.22-48.08s83.76-41.8,43.49-116.72-85.29,33-85.29,33-55.22-108.74-105.17-81.89S2825.41,432.06,2902.42,334.16Z" transform="translate(-478.78 -291.35)"/><path d="M2983.8,530c.2.9.38,1.81.52,2.72l0,.3c.06.41.06.41,0,0l0-.31c0,.21.05.41.08.61.05.51.1,1,.14,1.53a43.63,43.63,0,0,1,.06,5.83c-.05.92-.12,1.84-.23,2.76,0,0-.06.61-.07.61s.16-1.12,0-.16c-.09.56-.18,1.12-.28,1.67a50.08,50.08,0,0,1-1.44,5.67c-.28.88-.58,1.76-.91,2.62l-.45,1.15c-.39,1,.32-.72,0-.1l-.38.84a50.2,50.2,0,0,1-2.74,5.18c-.48.79-1,1.56-1.51,2.32-.27.38-.53.76-.81,1.13l-.36.5c-.59.8.54-.66,0,0a53.42,53.42,0,0,1-3.9,4.34c-.81.79-1.64,1.55-2.5,2.27-.38.33-.83.62-1.19,1,.72-.7.44-.33.2-.15l-.74.55a43.63,43.63,0,0,1-5.78,3.51,4.6,4.6,0,0,0-1.64,6.26,4.68,4.68,0,0,0,6.26,1.64c15.78-8,26-24.69,27.51-42.1a48.51,48.51,0,0,0-1-14.66,4.61,4.61,0,0,0-5.63-3.19,4.67,4.67,0,0,0-3.2,5.63Z" transform="translate(-478.78 -291.35)"/><path d="M2991.27,641.71a104.15,104.15,0,0,0,42-11.53,99,99,0,0,0,10.24-6.14l-6.26-1.64c.4.68.79,1.38,1.15,2.09.18.36.35.71.52,1.07.08.18.15.39.24.55-.22-.37-.31-.77-.06-.13a34,34,0,0,1,1.45,4.52c.19.77.35,1.55.49,2.33,0,.16.22,1.52.13.71s0-.15,0,0c0,.29.07.59.1.88a38,38,0,0,1,.15,4.77c0,.8-.07,1.59-.14,2.39,0,.39-.12.79-.13,1.19,0-.1.17-1.13,0-.33,0,.25-.07.49-.11.74a37.45,37.45,0,0,1-1.08,4.66c-.22.76-.47,1.52-.75,2.27-.11.32-.24.65-.37,1a4.59,4.59,0,0,1-.22.56c.25-.59.3-.73.17-.41-.06.14-.12.27-.19.41a36,36,0,0,1-2.24,4.2c-.47.75-1,1.49-1.49,2.21a3,3,0,0,1-.36.48c.39-.49.47-.61.26-.34l-.28.35c-.25.31-.51.61-.77.91a32.79,32.79,0,0,1-4.08,3.91c-1.87,1.51-1.69,4.92,0,6.47,2,1.83,4.47,1.62,6.47,0,11.73-9.49,16.52-25.91,13.53-40.45a37.55,37.55,0,0,0-4.52-11.59c-1.2-2-4.2-3.06-6.26-1.64-2.82,1.92-5.73,3.71-8.73,5.34q-2.25,1.21-4.56,2.31c-.74.36-1.49.7-2.24,1l-1.21.53.22-.09-.7.28a98.06,98.06,0,0,1-19.62,5.74c-1,.18-2,.35-3,.5l-.56.08c-.11,0-.93.13-.33,0l-.15,0-.94.11c-1.94.23-3.89.39-5.85.5-2.39.14-4.69,2-4.58,4.58.11,2.36,2,4.72,4.58,4.58Z" transform="translate(-478.78 -291.35)"/><path class="aj" d="M3614.41,1590.41c-81.81,43.55-156.24,61.2-205.86,68.3-38.87,5.59-62.51,4.68-62.51,4.68L3209.16,896.57l-46.88-79.08,101-88.09c103.61,30.6,197.77,75.34,197.77,75.34,14.23,28.46,36.19,126.36,59.08,243.91C3565.45,1281.15,3614.41,1590.41,3614.41,1590.41Z" transform="translate(-478.78 -291.35)"/><polygon class="ai" points="2626.2 998.32 2919.61 1000.98 2900.94 910.29 2682.22 942.3 2626.2 998.32"/><path class="al" d="M3093.81,1478.05s.43.23,1.31.66l-.8.34s-15.37,55.38-16.11,169.34c-.77,1.54-1.17,2.36-1.17,2.36-6.2-28.71-6.17-59.28-7.1-88.48-4.69-148.23.45-297,4.88-445.16q2.94-98.67,6.74-197.33c.76-20,1.36-40,2.37-60,.2-3.83-1.22-12.86.64-16.21,16.59-29.84,19.6,34.06,19.86,43.27C3109.9,1083.55,3111,1281.84,3093.81,1478.05Z" transform="translate(-478.78 -291.35)"/><path class="ai" d="M2927.64,1263.74s46.63,53.06,126.26,55.21,109.76-56,109.76-56Z" transform="translate(-478.78 -291.35)"/><polygon class="am" points="2816.33 923.63 2816.31 924.22 2756.9 942.3 2711.56 923.63 2816.33 923.63"/><path class="an" d="M3235.68,1233.44H2750.75l-54.41-177.26-28.14-91.74a8.4,8.4,0,0,1,8-10.87h490.17l49.42,199.65.77,3.16Z" transform="translate(-478.78 -291.35)"/><rect class="ao" x="2271.98" y="942.09" width="484.93" height="30.48"/><polygon class="ap" points="2816.33 923.57 2816.33 923.63 2816.31 924.22 2815.59 950.3 2756.9 971.64 2756.9 942.3 2816.17 923.63 2816.33 923.57"/><polygon class="ao" points="2687.55 662.22 2699.79 662.22 2768.6 938.58 2756.9 942.3 2687.55 662.22"/><path class="aq" d="M2984.36,1233.64h-91.65l-.23-.2L2694.92,1051.9l-26.72-87.46a8.4,8.4,0,0,1,8-10.87h29.31l278.61,279.87Z" transform="translate(-478.78 -291.35)"/><polygon class="aq" points="2262.24 662.22 2532.36 942.3 2607.29 942.3 2343.99 662.22 2262.24 662.22"/><polygon class="aq" points="2743.98 890.1 2519.7 662.22 2542.65 662.22 2737.05 861.87 2737.82 865.03 2743.98 890.1"/><path class="ar" d="M3408.55,1658.71c167.85-222.86,76.23-584.17,73.43-592.55l38.18-17.51c45.29,232.5,94.25,541.76,94.25,541.76C3532.6,1634,3458.17,1651.61,3408.55,1658.71Z" transform="translate(-478.78 -291.35)"/><path class="aj" d="M3352.37,1344.42a22,22,0,0,1-27.77-13.54l-10-28.49L3283.7,1215l135.74-82.84a34.83,34.83,0,0,0,15.72-37.85l-49.74-207.17,73-82.39s2.36,1.09,6.53,3.4c26.83,14.94,128,81,146.83,236.12C3643.81,1308.44,3423.29,1320,3352.37,1344.42Z" transform="translate(-478.78 -291.35)"/><path class="ar" d="M3352.37,1344.42a22,22,0,0,1-27.77-13.54l-10-28.49c32.76-3.16,194.45-27,255.82-190.61,61-162.74-75.22-280.15-105.42-303.64,26.83,14.94,128,81,146.83,236.12C3643.81,1308.44,3423.29,1320,3352.37,1344.42Z" transform="translate(-478.78 -291.35)"/><rect class="o" x="213.22" y="1514.65" width="271.77" height="193.8" rx="27.14"/><path class="s" d="M809.3,1923.89a5.48,5.48,0,0,1,.9,3.06,6.37,6.37,0,0,1-1.86,4.72,6.23,6.23,0,0,1-4.6,1.86,9.09,9.09,0,0,1-3.36-.72l-42.24-17.23a10.72,10.72,0,0,1-4.67-3.77,10.36,10.36,0,0,1,0-11.31,9.71,9.71,0,0,1,4.67-3.71l42.24-17.24a9.35,9.35,0,0,1,3.48-.72,6.13,6.13,0,0,1,4.54,1.8,6.29,6.29,0,0,1,1.8,4.67,5.29,5.29,0,0,1-3.47,5.14l-39.14,15.68,39.14,15.68A5.7,5.7,0,0,1,809.3,1923.89Z" transform="translate(-478.78 -291.35)"/><path class="s" d="M827,1948.19a7.16,7.16,0,0,1-4.13,1.26,7.28,7.28,0,0,1-4.9-1.86,6,6,0,0,1-2.16-4.73,9.56,9.56,0,0,1,.36-2.51l27.41-86.17a7.1,7.1,0,0,1,2.69-3.77,7,7,0,0,1,4-1.26,7.5,7.5,0,0,1,5,1.85,6,6,0,0,1,2.15,4.73,10,10,0,0,1-.35,2.52l-27.53,86.17A6.51,6.51,0,0,1,827,1948.19Z" transform="translate(-478.78 -291.35)"/><path class="s" d="M920,1900.5a10.36,10.36,0,0,1,0,11.31,10.77,10.77,0,0,1-4.67,3.77L873,1932.81a9,9,0,0,1-3.35.72,6.25,6.25,0,0,1-4.61-1.86,6.41,6.41,0,0,1-1.85-4.72,5.48,5.48,0,0,1,.9-3.06,5.6,5.6,0,0,1,2.57-2.09l39.14-15.68-39.14-15.68a5.28,5.28,0,0,1-3.47-5.14,6.32,6.32,0,0,1,1.79-4.67,6.16,6.16,0,0,1,4.55-1.8,9.26,9.26,0,0,1,3.47.72l42.25,17.24A9.76,9.76,0,0,1,920,1900.5Z" transform="translate(-478.78 -291.35)"/><g class="as"><path class="p" d="M2652.61,727.79a71.38,71.38,0,0,0-60.84-34.07,74.43,74.43,0,0,0-20.08,2.89,86.44,86.44,0,0,0-158.14,29.18c-1.25-.08-2.49-.23-3.78-.23a64.65,64.65,0,0,0,0,129.29h226.41a64.58,64.58,0,0,0,16.43-127.06Z" transform="translate(-478.78 -291.35)"/></g><path class="u" d="M2659.37,722.72a71.33,71.33,0,0,0-60.83-34.08,74.12,74.12,0,0,0-20.09,2.9,86.44,86.44,0,0,0-158.14,29.18c-1.25-.08-2.49-.23-3.78-.23a64.64,64.64,0,0,0,0,129.28h226.41a64.58,64.58,0,0,0,16.43-127Z" transform="translate(-478.78 -291.35)"/><path class="am" d="M2415.75,774a10.46,10.46,0,0,1,5.12-8.53l51.81-29.78a10,10,0,0,1,5-1.4,9.83,9.83,0,0,1,9.77,9.77,9,9,0,0,1-4.5,7.91L2442,774l40.94,22a8.86,8.86,0,0,1,4.5,7.91,9.94,9.94,0,0,1-9.77,9.78,11.2,11.2,0,0,1-5.12-1.71L2421,782.37C2418.24,780.67,2415.75,777.41,2415.75,774Z" transform="translate(-478.78 -291.35)"/><path class="am" d="M2536.89,706.06a9,9,0,0,1,8.53-6.51c5,0,9.31,4,9.31,8.84a15.92,15.92,0,0,1-.47,3.26l-31.17,115.86a9,9,0,0,1-8.38,6.51,9.08,9.08,0,0,1-9.31-9,10,10,0,0,1,.47-3.1Z" transform="translate(-478.78 -291.35)"/><path class="am" d="M2577.06,796l41-22-41-22a9.05,9.05,0,0,1-4.5-7.91,9.83,9.83,0,0,1,9.78-9.77,10,10,0,0,1,5,1.4l51.8,29.78a10.44,10.44,0,0,1,5.12,8.53c0,3.41-2.48,6.67-5.27,8.37L2587.45,812a11.12,11.12,0,0,1-5.11,1.71,9.94,9.94,0,0,1-9.78-9.78A8.88,8.88,0,0,1,2577.06,796Z" transform="translate(-478.78 -291.35)"/><line class="at" x1="3027.39" y1="2132.33" x2="3153.58" y2="2119.27"/><line class="at" x1="2983.51" y1="1365.48" x2="3090.49" y2="2132.33"/><line class="at" x1="2942.82" y1="1937.52" x2="2769.31" y2="1304.92"/><line class="at" x1="2636.78" y1="2073.54" x2="2759.57" y2="2064.58"/><line class="au" x1="721.73" y1="2130.84" x2="815.04" y2="1168.48"/><path class="at" d="M3388.35,972.88s61,58.25,46.36,142.41-151,99.7-151,99.7" transform="translate(-478.78 -291.35)"/><path class="at" d="M3294.36,1241.65l51.37,144.56s413.67-135.37,210.67-470.28" transform="translate(-478.78 -291.35)"/></g></svg>