<svg xmlns="http://www.w3.org/2000/svg" xmlns:xlink="http://www.w3.org/1999/xlink" viewBox="0 0 4157.11 2308.27"><defs><style>.a{isolation:isolate;}.b{fill:#c0bfbf;}.c{fill:url(#a);}.d{fill:url(#b);}.ao,.at,.e,.f,.g,.h,.i{fill-rule:evenodd;}.e{fill:url(#c);}.f{fill:#0e2d34;}.g{fill:url(#d);}.h{fill:#5f9850;}.i{fill:url(#e);}.j{fill:#322f33;}.k{fill:#1a171a;}.l{fill:#403e41;}.m{fill:#555356;}.n{fill:#211f22;}.o{fill:#62d3bd;}.p{fill:#f95d84;}.q{fill:#aa9af4;}.r{fill:#76d9e4;}.s{fill:#dcecff;}.t{fill:#f7622a;}.u{fill:#22a851;}.v{fill:#fcd740;}.w{fill:#9edc6f;}.x{fill:#3fc9ee;}.y{fill:#373438;}.z{fill:#e3eaff;}.aa{fill:#ffc359;}.ab{fill:#c9c9c9;opacity:0.55;}.ab,.ah{mix-blend-mode:multiply;}.ac{fill:#f37e3f;}.ad{fill:#fff;}.ae{fill:#fcd65b;}.af{fill:#929192;}.ag{fill:#b6d4ff;}.ah{fill:#c4c4c4;opacity:0.73;}.ai,.ao{fill:#4878ea;}.aj{fill:#e7f2f2;}.ak{fill:#ff6b6e;}.al{fill:#ffc54f;}.am{fill:#c1cc8c;}.an{fill:#a5807c;}.ap{fill:#d44945;}.aq{fill:#4638a8;}.ar{fill:#6553bc;}.as{fill:#ababff;}.au{fill:#ffa79b;}.av{fill:#687ccd;}.aw,.ax{fill:none;stroke-miterlimit:10;stroke-width:2.89px;}.aw{stroke:#000;}.ax{stroke:#fff;}</style><linearGradient id="a" x1="1308.63" y1="2125.37" x2="1838.2" y2="2896.27" gradientUnits="userSpaceOnUse"><stop offset="0" stop-color="#00b488"/><stop offset="0.92" stop-color="#007bc0"/></linearGradient><linearGradient id="b" x1="3746.73" y1="1886.23" x2="2891.8" y2="3158.69" xlink:href="#a"/><linearGradient id="c" x1="2783.19" y1="2096.23" x2="3921.91" y2="2096.23" gradientTransform="translate(813.34 -393.53) rotate(8.95)" xlink:href="#a"/><linearGradient id="d" x1="3091.08" y1="1873.26" x2="3989.8" y2="1873.26" gradientUnits="userSpaceOnUse"><stop offset="0" stop-color="#8ccc6d"/><stop offset="0.19" stop-color="#81c768"/><stop offset="0.54" stop-color="#62b85b"/><stop offset="0.92" stop-color="#39a54a"/></linearGradient><linearGradient id="e" x1="4114.8" y1="1925.66" x2="4876.26" y2="1925.66" gradientTransform="matrix(-1, 0, 0, 1, 5408.9, 0)" xlink:href="#d"/></defs><g class="a"><path class="b" d="M3650.77,1191.62c-139.06-229.06-387.67-382.14-672.23-382.14-77,0-151.13,12.35-221.94,32.48C2587.79,568.72,2288.9,386.24,1947,386.24c-464.53,0-852,336.9-937.8,783-13.88-.94-27.51-2.6-41.8-2.6-394.37,0-714.23,324.8-714.23,724.72,0,400.41,319.86,725.11,714.23,725.11h2501.8c394.68,0,714.59-324.7,714.59-725.11C4183.78,1555,3957.68,1272.74,3650.77,1191.62Z" transform="translate(-253.16 -386.24)"/><path class="c" d="M2472.22,2432.86s-289.09-482.54-667.13-275.22c0,0-98.2-250.83-400.27-177.8-268.36,64.89-436,235.14-436,235.14s-298.56-189-407.58,72.07C466.75,2513.21,860,2614.79,860,2614.79H2472.22Z" transform="translate(-253.16 -386.24)"/><path class="d" d="M2678.48,2231.13c101.08-119.29,254.76-227.08,431.73-101.93,0,0,148.89-368.48,335-191.88s148.89,368.56,148.89,368.56,344.56-396.59,567.64-130c273.64,327-260.56,446.69-260.56,446.69H2551.88C2551.88,2470.27,2598.23,2325.84,2678.48,2231.13Z" transform="translate(-253.16 -386.24)"/><path class="e" d="M4164.3,2312.38c-40.57,28.25-101.35,64.54-175.66,106.86a0,0,0,0,0,0,0c-56.52,32.16-120.77,67.69-189.79,105.83-63.33,34.94-130.65,72-199.63,110.46l-269.89-42.5-8.85,8.06-8-10.71L3182,2569.87l-5.93-75.46q17.72-19.34,35.8-38.44v0c2.07-2.12,4-4.14,6-6.27,4.42-4.68,8.83-9.29,13.25-13.94q3.95-4.11,7.88-8.21v-.08c6.64-6.91,13.27-13.73,19.9-20.56.88-.86,1.72-1.72,2.56-2.62v0q22.14-22.62,44.49-44.95c103.6-103.37,211.44-200.69,317.62-284.64,0,0,0-.07.1-.11q21.51-17,42.94-33.3s.1-.06.06-.11c93.54-71,184.95-130.83,270.37-174.51,37.86-19.39,73.88-34.81,108-46.59,2-.68,3.94-1.37,5.91-2C4441.74,1686.22,4563.35,2033.89,4164.3,2312.38Z" transform="translate(-253.16 -386.24)"/><path class="f" d="M4260.74,1970.62c-1.31.71-187.91,90.47-427.21,243.69-3.19,2.07-6.37,4.14-9.59,6.2-84.18,54.15-174.54,116-265.49,184.55q-44,33.17-88,68.34-45,36-89.39,74.17-19.83,17-39.4,34.48c-.53.45-1.07.95-1.59,1.4-3.61,3.2-7.22,6.37-10.8,9.61l-8.85,8.06-8-10.71-8.69-1.37c1.46-1.39,3-2.76,4.5-4.14l.05,0q10.36-9.43,20.85-18.8l.05,0c.57-.49,1.11-1,1.64-1.48,10.59-9.4,21.3-18.73,32-27.95,3.51-3.05,7.09-6.09,10.6-9.14l.09-.07q34.76-29.7,70-58.26,39.75-32.2,79.7-62.84c112.84-86.47,225.53-162.85,327.43-227.21,3.08-2,6.17-3.92,9.25-5.84,223-140.13,391.89-221.45,393.19-222a9.58,9.58,0,0,1,13.27,5.16A11.39,11.39,0,0,1,4260.74,1970.62Z" transform="translate(-253.16 -386.24)"/><path class="g" d="M3967.64,1624.06q-7.12,34.26-16.23,69.91c-30.35,118.84-76.42,248-133.58,380.67-6.34,14.81-12.9,29.72-19.56,44.66-30.57,68.54-64,137.78-99.49,206.82q-16,31.13-32.58,62.16-11.62,21.76-23.49,43.41c-8.4,15.41-32,64.94-60.93,126.26-2.17,4.57-4.35,9.22-6.57,13.91-5.46,11.63-11.1,23.59-16.82,35.79-7.31,15.48-14.74,31.34-22.22,47.22h-440c-1.76-5-3.45-10.14-5.1-15.23,6.44-25.78,13.52-53.11,21.15-81.69,99.64-374.26,290.78-963.74,339.12-1102.69C3649.37,885.76,4093.74,1018,3967.64,1624.06Z" transform="translate(-253.16 -386.24)"/><path class="h" d="M3794.14,1274c-.32,1.67-90.16,340.56-223.72,738.55-47.27,140.84-100,289.06-156.2,432.36q-11,28-22.09,55.62-5.6,13.88-11.21,27.66-6.08,15-12.21,29.73c-.62,1.46-1.21,2.9-1.81,4.34-1.32,3.21-2.66,6.39-4,9.57q-17.55,42.09-35.44,83H3303q17.89-40.82,35.57-83c1.94-4.59,3.85-9.22,5.79-13.86a.08.08,0,0,1,0-.05q9.61-23.19,19.14-46.68,12-29.45,23.73-59.27c51.67-131,100.58-266.69,145.12-397.44,142-417,239.48-783.66,239.8-785.4,1.24-6.51,7.13-10.71,13.2-9.37S3795.36,1267.5,3794.14,1274Z" transform="translate(-253.16 -386.24)"/><path class="i" d="M551.42,1714.52q6,29,13.75,59.23c25.71,100.69,64.75,210.15,113.18,322.53,5.37,12.55,10.93,25.18,16.57,37.84,25.9,58.08,54.2,116.74,84.3,175.24q13.54,26.37,27.6,52.66,9.85,18.45,19.9,36.79c7.12,13.05,27.12,55,51.63,107,1.83,3.87,3.69,7.81,5.56,11.79,4.63,9.85,9.41,20,14.26,30.32,6.19,13.12,12.48,26.55,18.82,40h372.8q2.24-6.42,4.31-12.91c-5.45-21.83-11.45-45-17.92-69.21-84.41-317.1-246.36-816.55-287.32-934.28C821.08,1089,444.58,1201,551.42,1714.52Z" transform="translate(-253.16 -386.24)"/><path class="h" d="M698.42,1418c.27,1.41,76.39,288.54,189.55,625.75C928,2163,972.73,2288.62,1020.32,2410q9.28,23.68,18.72,47.13,4.74,11.74,9.5,23.43,5.14,12.67,10.33,25.19c.53,1.24,1,2.46,1.54,3.68,1.12,2.72,2.25,5.41,3.37,8.11q14.88,35.66,30,70.33h20.74q-15.16-34.59-30.13-70.33c-1.65-3.9-3.27-7.81-4.91-11.75a.06.06,0,0,0,0,0q-8.15-19.65-16.22-39.55-10.12-24.95-20.1-50.22c-43.78-111-85.22-226-123-336.74-120.34-353.34-202.9-664-203.18-665.45-1-5.52-6-9.07-11.18-7.94S697.39,1412.41,698.42,1418Z" transform="translate(-253.16 -386.24)"/><path class="j" d="M4289.08,2606.41a48.62,48.62,0,0,1-48.46,48.46H515.21a48.46,48.46,0,0,1,0-96.92H4240.62A48.58,48.58,0,0,1,4289.08,2606.41Z" transform="translate(-253.16 -386.24)"/><rect class="k" x="1620.69" y="1709.02" width="691.79" height="378.18"/><rect class="j" x="1732.13" y="1715.26" width="691.79" height="371.95"/><rect class="l" x="533.02" y="106.45" width="2827.88" height="1786.92" rx="142.22"/><rect class="m" x="630.57" y="106.45" width="2827.88" height="1786.92" rx="142.22"/><rect class="k" x="709.7" y="156.21" width="2670.49" height="1662.64" rx="88.4"/><path class="n" d="M3056.39,2513.21a44.9,44.9,0,0,1-44.73,44.74H1570.2a44.74,44.74,0,0,1,0-89.47H3011.66A44.86,44.86,0,0,1,3056.39,2513.21Z" transform="translate(-253.16 -386.24)"/><path class="n" d="M3056.39,2513.21a44.9,44.9,0,0,1-44.73,44.74H1749.14a44.74,44.74,0,0,1,0-89.47H3011.66A44.86,44.86,0,0,1,3056.39,2513.21Z" transform="translate(-253.16 -386.24)"/><path class="o" d="M1307.27,1104.33a118.42,118.42,0,0,1,87.1-158.16v-219c-174.5,12.09-312.31,157.46-312.31,335a334.5,334.5,0,0,0,36,151.36Z" transform="translate(-253.16 -386.24)"/><path class="o" d="M1441.49,946.17a118.32,118.32,0,0,1,67.18,40L1698,876.86a335.63,335.63,0,0,0-256.54-149.67Z" transform="translate(-253.16 -386.24)"/><path class="o" d="M1531.17,1027.6a118.38,118.38,0,0,1-198.66,116.56L1142.21,1254c60.69,87.07,161.54,144,275.72,144,185.49,0,335.86-150.37,335.86-335.86a334.53,334.53,0,0,0-32.53-144.36Z" transform="translate(-253.16 -386.24)"/><path class="p" d="M1307.27,1104.33a118.42,118.42,0,0,1,87.1-158.16v-219c-174.5,12.09-312.31,157.46-312.31,335a334.5,334.5,0,0,0,36,151.36Z" transform="translate(-253.16 -386.24)"/><path class="q" d="M1441.49,946.17a118.32,118.32,0,0,1,67.18,40L1698,876.86a335.63,335.63,0,0,0-256.54-149.67Z" transform="translate(-253.16 -386.24)"/><path class="r" d="M1531.17,1027.6a118.38,118.38,0,0,1-198.66,116.56L1142.21,1254c60.69,87.07,161.54,144,275.72,144,185.49,0,335.86-150.37,335.86-335.86a334.53,334.53,0,0,0-32.53-144.36Z" transform="translate(-253.16 -386.24)"/><rect class="s" x="2447.84" y="648.24" width="857.16" height="450.06" rx="16.23"/><path class="m" d="M2460.21,643.26h832.42A12.37,12.37,0,0,1,3305,655.63v56.95a0,0,0,0,1,0,0H2447.84a0,0,0,0,1,0,0V655.64A12.37,12.37,0,0,1,2460.21,643.26Z"/><path class="t" d="M3440.74,1064.17a9.9,9.9,0,1,0-9.89,9.89A9.89,9.89,0,0,0,3440.74,1064.17Z" transform="translate(-253.16 -386.24)"/><path class="u" d="M3478.22,1064.17a9.9,9.9,0,1,0-9.9,9.89A9.9,9.9,0,0,0,3478.22,1064.17Z" transform="translate(-253.16 -386.24)"/><path class="v" d="M3515.69,1064.17a9.9,9.9,0,1,0-9.89,9.89A9.89,9.89,0,0,0,3515.69,1064.17Z" transform="translate(-253.16 -386.24)"/><rect class="t" x="2501.76" y="760.36" width="47.61" height="17.43"/><rect class="v" x="2575.68" y="760.36" width="85.91" height="17.43"/><rect class="w" x="2534.46" y="797.41" width="178.43" height="17.43"/><rect class="x" x="2739.2" y="797.41" width="47.61" height="17.43"/><rect class="w" x="2534.46" y="834.45" width="178.43" height="17.43"/><rect class="x" x="2739.2" y="834.45" width="47.61" height="17.43"/><rect class="w" x="2534.46" y="871.49" width="178.43" height="17.43"/><rect class="x" x="2739.2" y="871.49" width="47.61" height="17.43"/><rect class="t" x="2501.76" y="908.53" width="47.61" height="17.43"/><rect class="v" x="2575.68" y="908.53" width="85.91" height="17.43"/><rect class="x" x="2534.46" y="945.57" width="89.21" height="17.43"/><rect class="w" x="2649.99" y="945.57" width="136.83" height="17.43"/><rect class="x" x="2534.46" y="982.61" width="89.21" height="17.43"/><rect class="w" x="2649.99" y="982.61" width="136.83" height="17.43"/><rect class="x" x="2534.46" y="1019.65" width="89.21" height="17.43"/><rect class="w" x="2649.99" y="1019.65" width="136.83" height="17.43"/><rect class="s" x="1645.1" y="1622.46" width="685.93" height="121.78" rx="32.43"/><rect class="y" x="1644.21" y="666.13" width="686.82" height="888.22" rx="25.3"/><path class="r" d="M2050.82,1171.44h-45.76c-2.44,0-4.41-4-4.41-8.85h0c0-4.89,2-8.85,4.41-8.85h45.76c2.43,0,4.4,4,4.4,8.85h0C2055.22,1167.48,2053.25,1171.44,2050.82,1171.44Z" transform="translate(-253.16 -386.24)"/><path class="r" d="M2334.13,1171.44H2072.36c-2.43,0-4.41-4-4.41-8.85h0c0-4.89,2-8.85,4.41-8.85h261.77c2.43,0,4.4,4,4.4,8.85h0C2338.53,1167.48,2336.56,1171.44,2334.13,1171.44Z" transform="translate(-253.16 -386.24)"/><path class="p" d="M2155.86,1208h-83.5c-2.43,0-4.41-4-4.41-8.85h0c0-4.89,2-8.85,4.41-8.85h83.5c2.44,0,4.41,4,4.41,8.85h0C2160.27,1204.05,2158.3,1208,2155.86,1208Z" transform="translate(-253.16 -386.24)"/><path class="z" d="M2293.2,1208H2172.86c-2.43,0-4.4-4-4.4-8.85h0c0-4.89,2-8.85,4.4-8.85H2293.2c2.43,0,4.41,4,4.41,8.85h0C2297.61,1204.05,2295.63,1208,2293.2,1208Z" transform="translate(-253.16 -386.24)"/><path class="z" d="M2334.13,1386.08H2072.36c-2.43,0-4.41-4-4.41-8.85h0c0-4.89,2-8.85,4.41-8.85h261.77c2.43,0,4.4,4,4.4,8.85h0C2338.53,1382.12,2336.56,1386.08,2334.13,1386.08Z" transform="translate(-253.16 -386.24)"/><path class="r" d="M2050.82,1422.65h-45.76c-2.44,0-4.41-4-4.41-8.85h0c0-4.88,2-8.85,4.41-8.85h45.76c2.43,0,4.4,4,4.4,8.85h0C2055.22,1418.69,2053.25,1422.65,2050.82,1422.65Z" transform="translate(-253.16 -386.24)"/><path class="z" d="M2155.86,1422.65h-83.5c-2.43,0-4.41-4-4.41-8.85h0c0-4.88,2-8.85,4.41-8.85h83.5c2.44,0,4.41,4,4.41,8.85h0C2160.27,1418.69,2158.3,1422.65,2155.86,1422.65Z" transform="translate(-253.16 -386.24)"/><path class="p" d="M2293.2,1422.65H2172.86c-2.43,0-4.4-4-4.4-8.85h0c0-4.88,2-8.85,4.4-8.85H2293.2c2.43,0,4.41,4,4.41,8.85h0C2297.61,1418.69,2295.63,1422.65,2293.2,1422.65Z" transform="translate(-253.16 -386.24)"/><path class="p" d="M2399,1244.58H2072.36c-2.43,0-4.41-4-4.41-8.85h0c0-4.88,2-8.85,4.41-8.85H2399c2.44,0,4.41,4,4.41,8.85h0C2403.45,1240.62,2401.48,1244.58,2399,1244.58Z" transform="translate(-253.16 -386.24)"/><rect class="r" x="1996.7" y="877.21" width="85.38" height="17.7" rx="0.69"/><path class="z" d="M2180.88,1281.15H2072.36c-2.43,0-4.41-4-4.41-8.84h0c0-4.89,2-8.85,4.41-8.85h108.52c2.43,0,4.4,4,4.4,8.85h0C2185.28,1277.19,2183.31,1281.15,2180.88,1281.15Z" transform="translate(-253.16 -386.24)"/><path class="r" d="M2238.63,1281.15h-43c-2.44,0-4.41-4-4.41-8.84h0c0-4.89,2-8.85,4.41-8.85h43c2.43,0,4.41,4,4.41,8.85h0C2243,1277.19,2241.06,1281.15,2238.63,1281.15Z" transform="translate(-253.16 -386.24)"/><path class="z" d="M2050.82,1316.51h-45.76c-2.44,0-4.41-4-4.41-8.85h0c0-4.89,2-8.85,4.41-8.85h45.76c2.43,0,4.4,4,4.4,8.85h0C2055.22,1312.55,2053.25,1316.51,2050.82,1316.51Z" transform="translate(-253.16 -386.24)"/><path class="z" d="M2399,1316.51H2072.36c-2.43,0-4.41-4-4.41-8.85h0c0-4.89,2-8.85,4.41-8.85H2399c2.44,0,4.41,4,4.41,8.85h0C2403.45,1312.55,2401.48,1316.51,2399,1316.51Z" transform="translate(-253.16 -386.24)"/><path class="z" d="M2050.82,1456.52h-45.76c-2.44,0-4.41-4-4.41-8.84h0c0-4.89,2-8.85,4.41-8.85h45.76c2.43,0,4.4,4,4.4,8.85h0C2055.22,1452.56,2053.25,1456.52,2050.82,1456.52Z" transform="translate(-253.16 -386.24)"/><rect class="z" x="1996.7" y="1052.58" width="118.12" height="17.7" rx="0.81"/><path class="z" d="M2180.88,1456.52H2072.36c-2.43,0-4.41-4-4.41-8.84h0c0-4.89,2-8.85,4.41-8.85h108.52c2.43,0,4.4,4,4.4,8.85h0C2185.28,1452.56,2183.31,1456.52,2180.88,1456.52Z" transform="translate(-253.16 -386.24)"/><path class="z" d="M2238.63,1456.52h-43c-2.44,0-4.41-4-4.41-8.84h0c0-4.89,2-8.85,4.41-8.85h43c2.43,0,4.41,4,4.41,8.85h0C2243,1452.56,2241.06,1456.52,2238.63,1456.52Z" transform="translate(-253.16 -386.24)"/><path class="aa" d="M2050.82,1491.88h-45.76c-2.44,0-4.41-4-4.41-8.85h0c0-4.89,2-8.85,4.41-8.85h45.76c2.43,0,4.4,4,4.4,8.85h0C2055.22,1487.92,2053.25,1491.88,2050.82,1491.88Z" transform="translate(-253.16 -386.24)"/><path class="r" d="M2128.92,1491.88h-56.56c-2.43,0-4.41-4-4.41-8.85h0c0-4.89,2-8.85,4.41-8.85h56.56c2.43,0,4.41,4,4.41,8.85h0C2133.33,1487.92,2131.35,1491.88,2128.92,1491.88Z" transform="translate(-253.16 -386.24)"/><path class="r" d="M2005.06,1353.08c-2.44,0-4.41-4-4.41-8.84h0c0-4.89,2-8.85,4.41-8.85h45.76c2.43,0,4.4,4,4.4,8.85h0c0,4.88-2,8.84-4.4,8.84" transform="translate(-253.16 -386.24)"/><rect class="z" x="1996.7" y="949.14" width="133.47" height="17.7" rx="0.87"/><path class="aa" d="M2180.88,1353.08H2072.36c-2.43,0-4.41-4-4.41-8.84h0c0-4.89,2-8.85,4.41-8.85h108.52c2.43,0,4.4,4,4.4,8.85h0C2185.28,1349.12,2183.31,1353.08,2180.88,1353.08Z" transform="translate(-253.16 -386.24)"/><path class="aa" d="M2238.63,1353.08h-43c-2.44,0-4.41-4-4.41-8.84h0c0-4.89,2-8.85,4.41-8.85h43c2.43,0,4.41,4,4.41,8.85h0C2243,1349.12,2241.06,1353.08,2238.63,1353.08Z" transform="translate(-253.16 -386.24)"/><path class="z" d="M2334.13,1529.48H2072.36c-2.43,0-4.41-4-4.41-8.85h0c0-4.89,2-8.85,4.41-8.85h261.77c2.43,0,4.4,4,4.4,8.85h0C2338.53,1525.52,2336.56,1529.48,2334.13,1529.48Z" transform="translate(-253.16 -386.24)"/><path class="z" d="M2155.86,1566.05h-83.5c-2.43,0-4.41-4-4.41-8.85h0c0-4.88,2-8.84,4.41-8.84h83.5c2.44,0,4.41,4,4.41,8.84h0C2160.27,1562.09,2158.3,1566.05,2155.86,1566.05Z" transform="translate(-253.16 -386.24)"/><path class="z" d="M2293.2,1566.05H2172.86c-2.43,0-4.4-4-4.4-8.85h0c0-4.88,2-8.84,4.4-8.84H2293.2c2.43,0,4.41,4,4.41,8.84h0C2297.61,1562.09,2295.63,1566.05,2293.2,1566.05Z" transform="translate(-253.16 -386.24)"/><path class="z" d="M2334.13,1744.12H2072.36c-2.43,0-4.41-4-4.41-8.85h0c0-4.88,2-8.85,4.41-8.85h261.77c2.43,0,4.4,4,4.4,8.85h0C2338.53,1740.16,2336.56,1744.12,2334.13,1744.12Z" transform="translate(-253.16 -386.24)"/><path class="p" d="M2050.82,1780.69h-45.76c-2.44,0-4.41-4-4.41-8.85h0c0-4.88,2-8.84,4.41-8.84h45.76c2.43,0,4.4,4,4.4,8.84h0C2055.22,1776.73,2053.25,1780.69,2050.82,1780.69Z" transform="translate(-253.16 -386.24)"/><path class="r" d="M2155.86,1780.69h-83.5c-2.43,0-4.41-4-4.41-8.85h0c0-4.88,2-8.84,4.41-8.84h83.5c2.44,0,4.41,4,4.41,8.84h0C2160.27,1776.73,2158.3,1780.69,2155.86,1780.69Z" transform="translate(-253.16 -386.24)"/><path class="z" d="M2293.2,1780.69H2172.86c-2.43,0-4.4-4-4.4-8.85h0c0-4.88,2-8.84,4.4-8.84H2293.2c2.43,0,4.41,4,4.41,8.84h0C2297.61,1776.73,2295.63,1780.69,2293.2,1780.69Z" transform="translate(-253.16 -386.24)"/><path class="p" d="M2050.82,1602.62h-45.76c-2.44,0-4.41-4-4.41-8.84h0c0-4.89,2-8.85,4.41-8.85h45.76c2.43,0,4.4,4,4.4,8.85h0C2055.22,1598.66,2053.25,1602.62,2050.82,1602.62Z" transform="translate(-253.16 -386.24)"/><rect class="p" x="1814.79" y="1198.68" width="243.41" height="17.7" rx="0.79"/><path class="z" d="M2050.82,1639.2h-45.76c-2.44,0-4.41-4-4.41-8.85h0c0-4.89,2-8.85,4.41-8.85h45.76c2.43,0,4.4,4,4.4,8.85h0C2055.22,1635.24,2053.25,1639.2,2050.82,1639.2Z" transform="translate(-253.16 -386.24)"/><path class="z" d="M2180.88,1639.2H2072.36c-2.43,0-4.41-4-4.41-8.85h0c0-4.89,2-8.85,4.41-8.85h108.52c2.43,0,4.4,4,4.4,8.85h0C2185.28,1635.24,2183.31,1639.2,2180.88,1639.2Z" transform="translate(-253.16 -386.24)"/><path class="z" d="M2238.63,1639.2h-43c-2.44,0-4.41-4-4.41-8.85h0c0-4.89,2-8.85,4.41-8.85h43c2.43,0,4.41,4,4.41,8.85h0C2243,1635.24,2241.06,1639.2,2238.63,1639.2Z" transform="translate(-253.16 -386.24)"/><path class="z" d="M2050.82,1674.55h-45.76c-2.44,0-4.41-4-4.41-8.85h0c0-4.88,2-8.85,4.41-8.85h45.76c2.43,0,4.4,4,4.4,8.85h0C2055.22,1670.59,2053.25,1674.55,2050.82,1674.55Z" transform="translate(-253.16 -386.24)"/><rect class="z" x="1814.79" y="1270.61" width="306.5" height="17.7" rx="0.89"/><path class="z" d="M2050.82,1814.56h-45.76c-2.44,0-4.41-4-4.41-8.84h0c0-4.89,2-8.85,4.41-8.85h45.76c2.43,0,4.4,4,4.4,8.85h0C2055.22,1810.6,2053.25,1814.56,2050.82,1814.56Z" transform="translate(-253.16 -386.24)"/><path class="z" d="M2398.7,1814.56H2254.26c-2.43,0-4.4-4-4.4-8.84h0c0-4.89,2-8.85,4.4-8.85H2398.7c2.43,0,4.41,4,4.41,8.85h0C2403.11,1810.6,2401.13,1814.56,2398.7,1814.56Z" transform="translate(-253.16 -386.24)"/><path class="z" d="M2180.88,1814.56H2072.36c-2.43,0-4.41-4-4.41-8.84h0c0-4.89,2-8.85,4.41-8.85h108.52c2.43,0,4.4,4,4.4,8.85h0C2185.28,1810.6,2183.31,1814.56,2180.88,1814.56Z" transform="translate(-253.16 -386.24)"/><path class="z" d="M2238.63,1814.56h-43c-2.44,0-4.41-4-4.41-8.84h0c0-4.89,2-8.85,4.41-8.85h43c2.43,0,4.41,4,4.41,8.85h0C2243,1810.6,2241.06,1814.56,2238.63,1814.56Z" transform="translate(-253.16 -386.24)"/><rect class="aa" x="1814.79" y="1445.98" width="202.48" height="17.7" rx="0.72"/><rect class="p" x="1996.7" y="1307.18" width="141.31" height="17.7" rx="0.89"/><path class="aa" d="M2180.88,1711.12H2072.36c-2.43,0-4.41-4-4.41-8.84h0c0-4.89,2-8.85,4.41-8.85h108.52c2.43,0,4.4,4,4.4,8.85h0C2185.28,1707.16,2183.31,1711.12,2180.88,1711.12Z" transform="translate(-253.16 -386.24)"/><path class="aa" d="M2238.63,1711.12h-43c-2.44,0-4.41-4-4.41-8.84h0c0-4.89,2-8.85,4.41-8.85h43c2.43,0,4.41,4,4.41,8.85h0C2243,1707.16,2241.06,1711.12,2238.63,1711.12Z" transform="translate(-253.16 -386.24)"/><path class="ab" d="M2399,791.87H1886.74a75.33,75.33,0,0,0,0,150.65h37.66l36.41,36.41,36.41-36.41H2399a75.33,75.33,0,0,0,0-150.65Z" transform="translate(-253.16 -386.24)"/><path class="ac" d="M2407,779.86H1894.75a75.33,75.33,0,0,0,0,150.65h37.67l36.4,36.4,36.41-36.4H2407a75.33,75.33,0,0,0,0-150.65Z" transform="translate(-253.16 -386.24)"/><path class="ad" d="M2260.4,879.19H1923.35a8.43,8.43,0,0,1-8.43-8.42h0a8.43,8.43,0,0,1,8.43-8.43H2260.4a8.42,8.42,0,0,1,8.43,8.43h0A8.42,8.42,0,0,1,2260.4,879.19Z" transform="translate(-253.16 -386.24)"/><path class="ad" d="M2155.07,832.85H1923.35a8.43,8.43,0,0,1-8.43-8.43h0a8.43,8.43,0,0,1,8.43-8.42h231.72a8.42,8.42,0,0,1,8.43,8.42h0A8.42,8.42,0,0,1,2155.07,832.85Z" transform="translate(-253.16 -386.24)"/><path class="ae" d="M2749.49,1814.45c-.24,1.78-.41,3.56-.58,5.33C2749.07,1818,2749.26,1816.22,2749.49,1814.45Z" transform="translate(-253.16 -386.24)"/><path class="p" d="M2930.85,1611.15c-132.43,0-239.78,107.36-239.78,239.78s107.35,239.79,239.78,239.79,239.78-107.36,239.78-239.79S3063.27,1611.15,2930.85,1611.15Zm0,416.9A177.12,177.12,0,1,1,3108,1850.93,177.11,177.11,0,0,1,2930.85,2028.05Z" transform="translate(-253.16 -386.24)"/><path class="ae" d="M3169.16,1825.51a239.42,239.42,0,0,0-173.9-204.79c-127.54-35.62-259.81,38.88-295.45,166.43a245.59,245.59,0,0,0-6.13,28.36c-.27,1.66-.49,3.35-.71,5-.32,2.58-.6,5.16-.84,7.76-11.29,113.71,60.27,222.53,174.09,254.32a245.58,245.58,0,0,0,24.85,5.55l.13-.7,11-61a170.07,170.07,0,0,1-19.08-4.2,177.14,177.14,0,0,1-127.95-193.54c0-.44.11-.87.16-1.31a177.14,177.14,0,0,1,352.37,33.54c-.15,2.65-.33,5.29-.6,7.91,0,.65-.13,1.33-.22,2-.13,1.2-.27,2.4-.43,3.6-.11.87-.25,1.77-.38,2.64-.06.52-.14,1.06-.25,1.58-.16,1.2-.35,2.43-.6,3.63-.24,1.44-.52,2.88-.82,4.33-.81,4.22-1.85,8.47-3,12.7a176.13,176.13,0,0,1-39,70.92l45.94,41.94.35.32a238.31,238.31,0,0,0,53.08-96.32q1.56-5.55,2.81-11.11c.44-1.94.87-3.87,1.25-5.84s.79-3.89,1.15-5.85.62-3.68.92-5.54a1.84,1.84,0,0,1,.06-.4c.27-1.88.54-3.79.79-5.7a2.72,2.72,0,0,0,0-.49c.25-1.85.47-3.71.66-5.56,0-.24,0-.46,0-.68.19-1.88.36-3.76.49-5.64.14-1.63.25-3.27.33-4.9.11-1.86.19-3.71.25-5.59,0-1,.05-1.88.08-2.83,0-.49,0-1,0-1.53A239.41,239.41,0,0,0,3169.16,1825.51Z" transform="translate(-253.16 -386.24)"/><path class="p" d="M2695,1808.13q-.69,3.69-1.27,7.38c-.27,1.66-.49,3.35-.71,5a244.37,244.37,0,0,0-1.9,30.41c0,118.91,86.56,217.63,200.13,236.52l11-61a170.07,170.07,0,0,1-19.08-4.2,177.14,177.14,0,0,1-127.95-193.54c0-.44.11-.87.16-1.31a177.16,177.16,0,0,1,254.36-135.09l28-55.35.3-.59a238.35,238.35,0,0,0-107.06-25.21C2813.05,1611.15,2715.13,1696.12,2695,1808.13Z" transform="translate(-253.16 -386.24)"/><path class="ae" d="M3108.26,2012.19a240,240,0,0,1-217.06,75.26l11-61a170.07,170.07,0,0,1-19.08-4.2c-84-23.49-136.84-103.77-128.59-187.7q-.75,8.1-.75,16.39a177.13,177.13,0,0,0,350.62,35.7c-.81,4.22-1.85,8.47-3,12.7a176.13,176.13,0,0,1-39,70.92Z" transform="translate(-253.16 -386.24)"/><path class="r" d="M3169.3,1825.51l-62.43,5.94a177.05,177.05,0,0,0-97.22-139.15l28.26-55.94A239.82,239.82,0,0,1,3169.3,1825.51Z" transform="translate(-253.16 -386.24)"/><path class="p" d="M3355.88,1780.09a155.32,155.32,0,1,0,155.31,155.31A155.31,155.31,0,0,0,3355.88,1780.09Zm0,270A114.72,114.72,0,1,1,3470.6,1935.4,114.72,114.72,0,0,1,3355.88,2050.12Z" transform="translate(-253.16 -386.24)"/><path class="ae" d="M3510.24,1918.94a155.33,155.33,0,0,0-304-24.85,158.18,158.18,0,0,0-4,18.37c-.18,1.07-.32,2.17-.46,3.25-.21,1.66-.39,3.34-.55,5A155.32,155.32,0,0,0,3314,2085.46a160.2,160.2,0,0,0,16.09,3.6l.09-.46,7.1-39.52a108.47,108.47,0,0,1-12.36-2.72A114.74,114.74,0,0,1,3242.06,1921c0-.28.07-.56.11-.85a114.8,114.8,0,0,1,144.51-94.76,114.78,114.78,0,0,1,83.73,116.49c-.1,1.71-.22,3.42-.39,5.12,0,.42-.09.86-.14,1.3-.09.78-.18,1.56-.29,2.33-.07.57-.15,1.15-.24,1.72,0,.33-.09.68-.16,1-.11.78-.23,1.57-.39,2.35-.16.93-.33,1.87-.53,2.8-.53,2.74-1.2,5.49-2,8.23a114.12,114.12,0,0,1-25.27,45.94l29.75,27.16.23.21a154.25,154.25,0,0,0,34.38-62.39c.68-2.4,1.28-4.8,1.82-7.2.29-1.25.57-2.5.81-3.78s.52-2.52.75-3.79.4-2.38.6-3.58a1.24,1.24,0,0,1,0-.27q.27-1.83.51-3.69a1.65,1.65,0,0,0,0-.31q.24-1.8.42-3.6a3.27,3.27,0,0,1,0-.45c.12-1.21.23-2.43.31-3.65.09-1.06.16-2.12.22-3.18s.12-2.4.16-3.61c0-.62,0-1.22,0-1.84,0-.32,0-.65,0-1A154.46,154.46,0,0,0,3510.24,1918.94Z" transform="translate(-253.16 -386.24)"/><path class="p" d="M3203.08,1907.67c-.3,1.6-.57,3.19-.82,4.79-.18,1.07-.32,2.17-.46,3.25a158.07,158.07,0,0,0-1.23,19.69,155.35,155.35,0,0,0,129.63,153.2l7.1-39.52a108.47,108.47,0,0,1-12.36-2.72A114.74,114.74,0,0,1,3242.06,1921c0-.28.07-.56.11-.85a114.74,114.74,0,0,1,164.75-87.5L3425,1796.8l.19-.39a155.33,155.33,0,0,0-222.14,111.26Z" transform="translate(-253.16 -386.24)"/><path class="ae" d="M3470.79,2039.85a155.44,155.44,0,0,1-140.59,48.75l7.1-39.52a108.47,108.47,0,0,1-12.36-2.72,114.72,114.72,0,0,1-83.29-121.57c-.32,3.49-.49,7-.49,10.61a114.73,114.73,0,0,0,227.11,23.12c-.53,2.74-1.2,5.49-2,8.23a114.12,114.12,0,0,1-25.27,45.94Z" transform="translate(-253.16 -386.24)"/><path class="r" d="M3510.33,1918.94l-40.44,3.84a114.65,114.65,0,0,0-63-90.13l18.3-36.24A155.35,155.35,0,0,1,3510.33,1918.94Z" transform="translate(-253.16 -386.24)"/><rect class="af" x="2446.93" y="357.46" width="788.74" height="130.75"/><rect class="m" x="2446.93" y="511.21" width="788.74" height="65.38"/><rect class="ag" x="794.23" y="1154.9" width="788.74" height="65.38"/><rect class="w" x="794.23" y="1243.27" width="788.74" height="65.38"/><rect class="w" x="794.23" y="1397.03" width="788.74" height="65.38"/><rect class="w" x="794.23" y="1486.62" width="788.74" height="65.38"/><rect class="w" x="794.23" y="1576.09" width="788.74" height="125.9"/><rect class="ah" x="212.84" y="787.09" width="652.63" height="870.77" rx="24.95"/><rect class="y" x="199.89" y="772.5" width="652.63" height="870.77" rx="24.95"/><path class="k" d="M1070.36,1619.12v335.52a9.72,9.72,0,0,1-9.72,9.73H511.93a9.74,9.74,0,0,1-9.74-9.73V1619.12a9.74,9.74,0,0,1,9.74-9.73h548.71A9.72,9.72,0,0,1,1070.36,1619.12Z" transform="translate(-253.16 -386.24)"/><path class="ai" d="M1070.36,1619.12v26.5H502.19v-26.5a9.74,9.74,0,0,1,9.74-9.73h548.71A9.72,9.72,0,0,1,1070.36,1619.12Z" transform="translate(-253.16 -386.24)"/><path class="ad" d="M1004.87,1628.65a7.21,7.21,0,1,1-7.21-7.21A7.2,7.2,0,0,1,1004.87,1628.65Z" transform="translate(-253.16 -386.24)"/><path class="ad" d="M1030.2,1628.65a7.21,7.21,0,1,1-7.21-7.21A7.2,7.2,0,0,1,1030.2,1628.65Z" transform="translate(-253.16 -386.24)"/><path class="ad" d="M1055.53,1628.65a7.21,7.21,0,1,1-7.21-7.21A7.2,7.2,0,0,1,1055.53,1628.65Z" transform="translate(-253.16 -386.24)"/><rect class="ad" x="293.6" y="1273.36" width="3.09" height="24.27"/><path class="aj" d="M729.36,1823.25a6.1,6.1,0,0,1-1.67-4.52v-55.61a5.66,5.66,0,0,1,1.57-4.28,6,6,0,0,1,4.33-1.52H757q10.74,0,16.74,5.37t6,15.07q0,9.69-6,15.12T757,1798.29H740v20.44a5.75,5.75,0,0,1-6.18,6.18A6,6,0,0,1,729.36,1823.25Zm26.09-34.37q12.64,0,12.65-11t-12.65-11H740v22.05Z" transform="translate(-253.16 -386.24)"/><path class="aj" d="M845,1833.66a6.43,6.43,0,0,1,1,3.33,4.37,4.37,0,0,1-1.71,3.56,6.17,6.17,0,0,1-4,1.38,6.76,6.76,0,0,1-3.23-.81,6.26,6.26,0,0,1-2.48-2.42l-5.61-9.22a8.24,8.24,0,0,0-3.47-3.24,12.8,12.8,0,0,0-5.56-1,33.11,33.11,0,0,1-17-4.18A28.06,28.06,0,0,1,792,1809a44.56,44.56,0,0,1,0-36.46A28,28,0,0,1,803,1760.65a36.28,36.28,0,0,1,33.85,0A28,28,0,0,1,848,1772.58a40,40,0,0,1,3.9,18.2q0,11.33-4.51,19.45a26.91,26.91,0,0,1-12.89,11.83,13.74,13.74,0,0,1,7.23,6.28ZM834.41,1809q5.18-6.37,5.18-18.26t-5.18-18.2q-5.19-6.33-14.41-6.32t-14.49,6.32q-5.19,6.32-5.19,18.2t5.19,18.26q5.18,6.36,14.49,6.37T834.41,1809Z" transform="translate(-253.16 -386.24)"/><rect class="ak" x="307.2" y="1295.8" width="275.57" height="6.57" rx="1.47"/><rect class="al" x="307.2" y="1497.29" width="307.56" height="6.47" rx="1.47"/><path class="ad" d="M909,1700.42H563.17a2.81,2.81,0,0,0-2.81,2.8h0a2.81,2.81,0,0,0,2.81,2.81H909a2.8,2.8,0,0,0,2.8-2.81h0A2.8,2.8,0,0,0,909,1700.42Z" transform="translate(-253.16 -386.24)"/><rect class="am" x="307.2" y="1515.25" width="297.29" height="6.35" rx="1.47"/><rect class="ak" x="307.2" y="1480.94" width="351.74" height="6.66" rx="1.64"/><rect class="am" x="673.01" y="1313.87" width="86.84" height="5.98" rx="1.47"/><rect class="ad" x="306.39" y="1277.97" width="100.85" height="6.44" rx="1.47"/><path class="r" d="M568.22,1263H528.43c-2.11,0-3.83-3.44-3.83-7.69h0c0-4.25,1.72-7.69,3.83-7.69h39.79c2.12,0,3.83,3.44,3.83,7.69h0C572.05,1259.58,570.34,1263,568.22,1263Z" transform="translate(-253.16 -386.24)"/><path class="r" d="M814.54,1263H587c-2.11,0-3.83-3.44-3.83-7.69h0c0-4.25,1.72-7.69,3.83-7.69H814.54c2.12,0,3.84,3.44,3.84,7.69h0C818.38,1259.58,816.66,1263,814.54,1263Z" transform="translate(-253.16 -386.24)"/><path class="p" d="M659.55,1294.82H587c-2.11,0-3.83-3.44-3.83-7.69h0c0-4.25,1.72-7.69,3.83-7.69h72.6c2.12,0,3.83,3.44,3.83,7.69h0C663.38,1291.38,661.67,1294.82,659.55,1294.82Z" transform="translate(-253.16 -386.24)"/><path class="z" d="M779,1294.82H674.33c-2.11,0-3.83-3.44-3.83-7.69h0c0-4.25,1.72-7.69,3.83-7.69H779c2.11,0,3.83,3.44,3.83,7.69h0C782.79,1291.38,781.07,1294.82,779,1294.82Z" transform="translate(-253.16 -386.24)"/><path class="z" d="M814.54,1449.64H587c-2.11,0-3.83-3.44-3.83-7.69h0c0-4.25,1.72-7.69,3.83-7.69H814.54c2.12,0,3.84,3.44,3.84,7.69h0C818.38,1446.2,816.66,1449.64,814.54,1449.64Z" transform="translate(-253.16 -386.24)"/><path class="r" d="M568.22,1481.44H528.43c-2.11,0-3.83-3.44-3.83-7.69h0c0-4.25,1.72-7.7,3.83-7.7h39.79c2.12,0,3.83,3.45,3.83,7.7h0C572.05,1478,570.34,1481.44,568.22,1481.44Z" transform="translate(-253.16 -386.24)"/><path class="z" d="M659.55,1481.44H587c-2.11,0-3.83-3.44-3.83-7.69h0c0-4.25,1.72-7.7,3.83-7.7h72.6c2.12,0,3.83,3.45,3.83,7.7h0C663.38,1478,661.67,1481.44,659.55,1481.44Z" transform="translate(-253.16 -386.24)"/><path class="p" d="M779,1481.44H674.33c-2.11,0-3.83-3.44-3.83-7.69h0c0-4.25,1.72-7.7,3.83-7.7H779c2.11,0,3.83,3.45,3.83,7.7h0C782.79,1478,781.07,1481.44,779,1481.44Z" transform="translate(-253.16 -386.24)"/><path class="p" d="M871,1326.62H587c-2.11,0-3.83-3.44-3.83-7.69h0c0-4.25,1.72-7.7,3.83-7.7H871c2.11,0,3.83,3.45,3.83,7.7h0C874.82,1323.18,873.1,1326.62,871,1326.62Z" transform="translate(-253.16 -386.24)"/><rect class="r" x="488.11" y="956.79" width="74.23" height="15.39" rx="0.41"/><path class="z" d="M681.3,1358.42H587c-2.11,0-3.83-3.45-3.83-7.7h0c0-4.24,1.72-7.69,3.83-7.69H681.3c2.12,0,3.83,3.45,3.83,7.69h0C685.13,1355,683.42,1358.42,681.3,1358.42Z" transform="translate(-253.16 -386.24)"/><path class="r" d="M731.51,1358.42H694.1c-2.12,0-3.83-3.45-3.83-7.7h0c0-4.24,1.71-7.69,3.83-7.69h37.41c2.12,0,3.83,3.45,3.83,7.69h0C735.34,1355,733.63,1358.42,731.51,1358.42Z" transform="translate(-253.16 -386.24)"/><path class="z" d="M568.22,1389.16H528.43c-2.11,0-3.83-3.45-3.83-7.7h0c0-4.25,1.72-7.69,3.83-7.69h39.79c2.12,0,3.83,3.44,3.83,7.69h0C572.05,1385.71,570.34,1389.16,568.22,1389.16Z" transform="translate(-253.16 -386.24)"/><path class="z" d="M871,1389.16H587c-2.11,0-3.83-3.45-3.83-7.7h0c0-4.25,1.72-7.69,3.83-7.69H871c2.11,0,3.83,3.44,3.83,7.69h0C874.82,1385.71,873.1,1389.16,871,1389.16Z" transform="translate(-253.16 -386.24)"/><path class="z" d="M568.22,1510.89H528.43c-2.11,0-3.83-3.44-3.83-7.69h0c0-4.25,1.72-7.7,3.83-7.7h39.79c2.12,0,3.83,3.45,3.83,7.7h0C572.05,1507.45,570.34,1510.89,568.22,1510.89Z" transform="translate(-253.16 -386.24)"/><rect class="z" x="488.11" y="1109.26" width="102.7" height="15.39" rx="0.48"/><path class="z" d="M681.3,1510.89H587c-2.11,0-3.83-3.44-3.83-7.69h0c0-4.25,1.72-7.7,3.83-7.7H681.3c2.12,0,3.83,3.45,3.83,7.7h0C685.13,1507.45,683.42,1510.89,681.3,1510.89Z" transform="translate(-253.16 -386.24)"/><path class="z" d="M731.51,1510.89H694.1c-2.12,0-3.83-3.44-3.83-7.69h0c0-4.25,1.71-7.7,3.83-7.7h37.41c2.12,0,3.83,3.45,3.83,7.7h0C735.34,1507.45,733.63,1510.89,731.51,1510.89Z" transform="translate(-253.16 -386.24)"/><path class="aa" d="M568.22,1541.63H528.43c-2.11,0-3.83-3.44-3.83-7.69h0c0-4.25,1.72-7.7,3.83-7.7h39.79c2.12,0,3.83,3.45,3.83,7.7h0C572.05,1538.19,570.34,1541.63,568.22,1541.63Z" transform="translate(-253.16 -386.24)"/><path class="r" d="M636.13,1541.63H587c-2.11,0-3.83-3.44-3.83-7.69h0c0-4.25,1.72-7.7,3.83-7.7h49.18c2.11,0,3.83,3.45,3.83,7.7h0C640,1538.19,638.24,1541.63,636.13,1541.63Z" transform="translate(-253.16 -386.24)"/><path class="r" d="M528.43,1421c-2.11,0-3.83-3.45-3.83-7.7h0c0-4.25,1.72-7.69,3.83-7.69h39.79c2.12,0,3.83,3.44,3.83,7.69h0c0,4.25-1.71,7.7-3.83,7.7" transform="translate(-253.16 -386.24)"/><rect class="z" x="488.11" y="1019.33" width="116.05" height="15.39" rx="0.51"/><path class="aa" d="M681.3,1421H587c-2.11,0-3.83-3.45-3.83-7.7h0c0-4.25,1.72-7.69,3.83-7.69H681.3c2.12,0,3.83,3.44,3.83,7.69h0C685.13,1417.51,683.42,1421,681.3,1421Z" transform="translate(-253.16 -386.24)"/><path class="aa" d="M731.51,1421H694.1c-2.12,0-3.83-3.45-3.83-7.7h0c0-4.25,1.71-7.69,3.83-7.69h37.41c2.12,0,3.83,3.44,3.83,7.69h0C735.34,1417.51,733.63,1421,731.51,1421Z" transform="translate(-253.16 -386.24)"/><polygon class="an" points="2847.6 984.33 2874.55 988.09 2892.1 968.03 2854.5 940.46 2847.6 984.33"/><polygon class="ae" points="3095.48 2021.66 3087.49 2183.76 3019.71 2184.82 3003.52 2027.07 3095.48 2021.66"/><path d="M3351.45,2561.1l7.48,118.74-60.8,2.16-2.42-11.41-18.62,14.33-122.75-.4s-3.09-21.53,7.78-26.68,37.8-15.72,37.8-15.72l56.7-41.47,3.78-50.67Z" transform="translate(-253.16 -386.24)"/><polygon class="ae" points="3388.72 1965.5 3466.36 2108.02 3409.06 2144.24 3313.04 2018.04 3388.72 1965.5"/><path d="M3718.76,2467.5l79.86,88.19-46.2,39.58-9-7.41-5.62,22.82-96.24,76.2s-15.84-14.92-10.54-25.72,19.76-35.85,19.76-35.85l18.48-67.78-28.62-42Z" transform="translate(-253.16 -386.24)"/><path class="ao" d="M3704.24,2419.6l-57,30L3609,2469.74s-210.56-183-223.1-401.07-15-235.62-15-235.62l73.93,7.39,101.54,10.15,35.09,280.75s20.06,12.53,12.54,25.07Z" transform="translate(-253.16 -386.24)"/><path class="ao" d="M3448.56,1888.19c-10,120.32-92.74,606.61-92.74,606.61H3250.54c-45.12-366-20.06-591.57-20.06-591.57l29.78-2Z" transform="translate(-253.16 -386.24)"/><path class="ap" d="M3441,1434.49H3471s74.83,35,122.23,169.56-24.95,145.34-47.4,131.88S3441,1434.49,3441,1434.49Z" transform="translate(-253.16 -386.24)"/><polygon class="an" points="2872.04 1025.69 2874.55 988.09 2836.95 980.57 2826.92 1015.66 2872.04 1025.69"/><polygon class="aq" points="2851.99 860.25 2846.98 865.26 2864.52 983.08 2869.54 980.57 2851.99 860.25"/><polygon class="ar" points="2851.99 860.25 2869.54 980.57 2934.71 973.05 2919.67 855.24 2851.99 860.25"/><path class="as" d="M3110,1254.76l15.8,103.83a3,3,0,0,0,3.28,2.48l51.49-6.44a2.94,2.94,0,0,0,2.55-3.31l-13.56-101.69a3,3,0,0,0-3.15-2.55l-53.73,4.3A3,3,0,0,0,3110,1254.76Z" transform="translate(-253.16 -386.24)"/><polygon class="ar" points="2862.88 861.97 2867.85 866.94 2907.61 864.45 2910.1 859.48 2862.88 861.97"/><path class="an" d="M3100.14,1379.34l-10-12.53-2.51-60.16s32.59-50.13,37.6-47.62,5,20-10,42.61c0,0,10,55.15-1.26,72.69S3100.14,1379.34,3100.14,1379.34Z" transform="translate(-253.16 -386.24)"/><path class="an" d="M3277.09,1225.06l-18.71,90.41A34.37,34.37,0,0,0,3292,1356.8h16.86l-4.55,63.6,95.4,9.09L3377,1206.89Z" transform="translate(-253.16 -386.24)"/><path d="M3249.83,1156.91c45.43-40.88,86.31,13.63,86.31,13.63s57.13-7.61,81.77,22.72c59.06,72.68-40.88,159-40.88,159l-40.89-31.8s45.43-13.63,31.8-54.52-45.43,9.09-45.43,9.09-18.17-59.06-45.42-50S3202.92,1199.13,3249.83,1156.91Z" transform="translate(-253.16 -386.24)"/><path d="M3273.52,1261.46a21.85,21.85,0,0,1-14.92,21.42c-2.84.88-1.63,5.36,1.23,4.47,10.94-3.4,18.84-14.4,18.33-25.89-.13-3-4.77-3-4.64,0Z" transform="translate(-253.16 -386.24)"/><path d="M3268,1318.17a52.56,52.56,0,0,0,27.59-4.51l-3.41-1.39a16.51,16.51,0,0,1-7.09,19.88c-2.6,1.47-.26,5.48,2.34,4,8.49-4.79,12.69-16,9.23-25.12a2.38,2.38,0,0,0-3.41-1.39,48,48,0,0,1-25.25,3.88,2.34,2.34,0,0,0-2.32,2.32,2.37,2.37,0,0,0,2.32,2.32Z" transform="translate(-253.16 -386.24)"/><path class="ap" d="M3558.41,1886.92c-136.69,77-327.93,16.31-327.93,16.31,10-130.33-7.53-300.79-5-303.3.33-.33-2.13-.13-6.68.37-31.32,3.43-162.54,21.1-180.66-16.43-.22-.5-.44-1-.64-1.49-17.55-45.11,37.6-195.52,37.6-195.52l60.14,15,2.51,60.17,82.74-10c15-12.53,80.2-30.07,80.2-30.07,40.11-52.64,95.26-40.12,95.26-40.12l15,30.1c17.45,4.35,42.5,14.64,60.47,22.49a67.9,67.9,0,0,1,34.69,34C3567.73,1603.73,3558.41,1886.92,3558.41,1886.92Z" transform="translate(-253.16 -386.24)"/><polygon class="aq" points="2864.52 983.08 2932.2 975.55 2934.71 973.05 2869.54 980.57 2864.52 983.08"/><path class="at" d="M1719.32,1950.17v343l-7.46,320.6h-74.55l-24.86-318.11s-19-131.45-41.2-201c-4.4-13.82-9-25.2-13.47-32.61-27.34-44.73-12.43-111.83-12.43-111.83Z" transform="translate(-253.16 -386.24)"/><path class="at" d="M1594.34,1950.17l-9.23,121.77-13.86,22.67-13.47,22.07-109.35,178.94L1267,2516.81l-26.54-17.3-30.62-20S1354,2255.85,1354,2250.88V2236l17.39-12.42L1441,2034.67l29.82-109.36Z" transform="translate(-253.16 -386.24)"/><path class="at" d="M1681.94,2613.73h-44.63l-24.86-318.11s-19-131.45-41.2-201l-1-.3h0a15.33,15.33,0,0,0-27.94-1.52c-29.79,57.93-96,180.84-141,220.22-47.3,41.38-128.94,145.22-160.75,186.5l-30.62-20S1354,2255.85,1354,2250.88V2236l17.39-12.42L1441,2034.67l29.82-109.36,123.55,24.86h57.8l29.8,25.84S1704.23,2124.13,1681.94,2613.73Z" transform="translate(-253.16 -386.24)"/><path d="M1722.94,1389.55s81.83-21.23,48.35-99.07S1667.14,1202,1622.5,1237.4s-11.16,84.92-11.16,84.92-40.92-24.77-59.52,7.08,3.72,49.54,3.72,49.54-55.8-18.82-70.68,17.67c-17.37,42.6,33.48,53.09,33.48,53.09s-22.32,28.31-11.16,49.54,26,28.31,26,28.31-59.52,10.61-59.52,60.15,81.84,35.38,81.84,35.38h107.88l7.44-184Z" transform="translate(-253.16 -386.24)"/><path class="ae" d="M1629.94,1492.16l-7.44,92,93.51,43.08,3.21-128,40.44-14.66a32.37,32.37,0,0,0,16.42-47.61l-71.74-114.65S1682,1424.94,1648.54,1432s-37.2-17.69-37.2-17.69-59.52,28.31-37.2,60.15S1629.94,1492.16,1629.94,1492.16Z" transform="translate(-253.16 -386.24)"/><path d="M1723.05,1390a32.08,32.08,0,0,0,19.42,19.16l-1.86-2.44a20.32,20.32,0,0,1-4.1,10.38,2.61,2.61,0,0,0,0,3.58,2.56,2.56,0,0,0,3.58,0,26.55,26.55,0,0,0,5.59-14,2.57,2.57,0,0,0-1.86-2.44,26.73,26.73,0,0,1-15.89-15.63,2.62,2.62,0,0,0-3.12-1.77,2.55,2.55,0,0,0-1.76,3.12Z" transform="translate(-253.16 -386.24)"/><path d="M1739,1453.12c-8.38,5.64-19.66,5.45-28.19.23a24,24,0,0,1-6.36-5.69,2.55,2.55,0,0,0-3.58,0,2.59,2.59,0,0,0,0,3.58c7.32,9.26,20.39,13,31.68,10.21a28,28,0,0,0,9-4,2.59,2.59,0,0,0,.91-3.46,2.55,2.55,0,0,0-3.46-.91Z" transform="translate(-253.16 -386.24)"/><path d="M1715.34,1493.39l-24.78,7.49c-3.11.94-1.79,5.82,1.34,4.88l24.79-7.48c3.11-.94,1.79-5.83-1.35-4.89Z" transform="translate(-253.16 -386.24)"/><path d="M1591.74,1462.78c-.47-8.55,6.17-16.13,14.27-18.56,8.48-2.55,17.16,1.39,22.69,8.26a27.15,27.15,0,0,1,5.68,13.42l4.32-1.79a22.12,22.12,0,0,0-16.58-7.42,21.38,21.38,0,0,0-16.08,7.6,21.89,21.89,0,0,0-4.69,9.21,2.6,2.6,0,0,0,1.77,3.12,2.57,2.57,0,0,0,3.12-1.77,16.52,16.52,0,0,1,28.88-7.16c1.36,1.57,4.57.38,4.32-1.79-1.19-10.51-7.68-20.61-17.44-25.11a24.62,24.62,0,0,0-15.87-1.84,26.26,26.26,0,0,0-13.24,7.72,22.21,22.21,0,0,0-6.21,16.11,2.59,2.59,0,0,0,2.53,2.53,2.55,2.55,0,0,0,2.53-2.53Z" transform="translate(-253.16 -386.24)"/><path class="au" d="M1765.86,1805c-14.52,32.25-29,29.56-21.77,88.69s-14.51,69.88-19.35,72.56c-1.28.7-12,4.55-29,8.15-5.86,1.23-12.46,2.44-19.67,3.46a.23.23,0,0,0-.12,0,305.55,305.55,0,0,1-32.48,3c-50,1.88-114.59-8.31-167.83-57.6,0,0-21.77-32.25,24.19-75.25s38-161.85,48.37-193.51c6-18.33,18.5-52.16,42.16-75.22,14.46-14.14,33.11-24.22,57-24.22,0,0,27.94-1.93,60.08,22.23a139.93,139.93,0,0,1,17.32,15.4s33.86,10.75,48.37,26.87S1780.37,1772.71,1765.86,1805Z" transform="translate(-253.16 -386.24)"/><path class="ad" d="M1846.07,1624.6s14.91-24.86,12.42-99.41c0,0,47.22,24.85,72.08,29.82s84.5,5,84.5,5l-24.86,47.22L1948,1671.82l-62.13,82-37.59,2.49-58.66-87.26S1826.19,1654.42,1846.07,1624.6Z" transform="translate(-253.16 -386.24)"/><polygon class="ae" points="1620.24 1362.62 1660.01 1302.97 1684.86 1310.43 1667.46 1389.95 1620.24 1362.62"/><path class="au" d="M1851,1751.35s14.91-22.37,29.82-19.89c0,0,12.43,19.89,49.71,17.4,0,0,12.42,2.49,2.48,37.28s-69.6,87-109.35,74.58S1851,1751.35,1851,1751.35Z" transform="translate(-253.16 -386.24)"/><path class="au" d="M1700.24,1695s3.38-87.8,57.35-73.41,105.41,149,105.41,149,30.36,51.82,5.48,76.89-48,27.21-109-38.67C1708.87,1754,1700.24,1695,1700.24,1695Z" transform="translate(-253.16 -386.24)"/><path class="au" d="M1880.86,1731.46l7.46-9.94s12.42,12.43,42.25,14.91v12.43S1893.29,1753.83,1880.86,1731.46Z" transform="translate(-253.16 -386.24)"/><path class="av" d="M1625.64,2571.45l-2.85,123.06,61.67-.23,2-14.14,19.44,13.78,124.32-.2s2.27-27-8.94-31.8-38.92-14.42-38.92-14.42l-59.08-39.76-5.84-51.17Z" transform="translate(-253.16 -386.24)"/><path class="av" d="M1215.15,2452.69l-91.94,81.85,42.24,44.94,11.7-8.18,3.18,23.61,85,90.78s21.31-16.77,17.15-28.23-16-38.3-16-38.3l-11.22-70.32,33.43-39.17Z" transform="translate(-253.16 -386.24)"/><path class="ae" d="M1913.17,1714.07l22.37-7.46,33-31.82a24.71,24.71,0,0,0,8.55-13.91l8.1-46.22L1948,1671.82l-34.79,17.39-7.46,18.23Z" transform="translate(-253.16 -386.24)"/><path class="ae" d="M1938,1689.21l9.6-12.79a29.79,29.79,0,0,0,5.9-15.93l1.9-28.44s-9.94-5-14.91,14.91-27.34,7.46-34.8,59.65Z" transform="translate(-253.16 -386.24)"/><path class="aw" d="M1759.89,1810s-7.82,6.73-33.49-59.17" transform="translate(-253.16 -386.24)"/><path class="k" d="M1849,1739.54s4.84,1.18,19.07,46.92" transform="translate(-253.16 -386.24)"/><line class="aw" x1="3292.65" y1="1349.69" x2="3271.85" y2="1207.53"/><path class="aw" d="M3336.05,1449.45s22.39-25,63.69-20" transform="translate(-253.16 -386.24)"/><path class="aw" d="M3139.65,1593.78c3-2.55,114,4.51,136.22-45.42" transform="translate(-253.16 -386.24)"/><path d="M3939.13,966a.75.75,0,0,0,0-1.5.75.75,0,0,0,0,1.5Z" transform="translate(-253.16 -386.24)"/><path class="aw" d="M3407.86,2177.35s20.56-123.13,33.18-149.3" transform="translate(-253.16 -386.24)"/><line class="aw" x1="3014.84" y1="2066.44" x2="3082.89" y2="2066.44"/><path class="aw" d="M3348.64,1981s-53,327-46.61,486.48" transform="translate(-253.16 -386.24)"/><path class="ax" d="M1261.8,2452.69s162.62-117.7,247.58-322.21" transform="translate(-253.16 -386.24)"/><path class="ax" d="M1698,2528.45s-13.6-515-37.86-548.73" transform="translate(-253.16 -386.24)"/><polyline class="aw" points="3355.83 2054.87 3386.18 2038.99 3419.31 2021.66"/><path class="aw" d="M3639.34,2425.24c-143.44-137.77-211.28-352.3-211.28-352.3" transform="translate(-253.16 -386.24)"/></g></svg>