<svg xmlns="http://www.w3.org/2000/svg" xmlns:xlink="http://www.w3.org/1999/xlink" viewBox="0 0 4054.65 2204.23"><defs><style>.a{isolation:isolate;}.b{fill:#c0bfbf;}.ab,.ae,.af,.aj,.ak,.am,.an,.ao,.ap,.aq,.ar,.as,.at,.au,.av,.aw,.b,.c,.d,.e,.f,.g,.i,.j{fill-rule:evenodd;}.c{fill:#0e2d34;}.d{fill:#1b7154;}.e{fill:url(#a);}.f{fill:#5f9850;}.g{fill:url(#b);}.h{fill:#322f33;}.i{fill:url(#c);}.j{fill:url(#d);}.k{fill:#cc273f;}.aq,.l{fill:#d44945;}.ar,.m{fill:#c13838;}.n{fill:#b5b5b5;opacity:0.77;}.ac,.n{mix-blend-mode:multiply;}.ae,.o{fill:#f0f0ee;}.p{fill:#4878ea;}.q{fill:#aa9af4;}.r{fill:#f9fbfc;}.s{fill:#cdd4ff;}.t{fill:#373438;}.u{fill:#555356;}.aj,.v{fill:#fff;}.w{fill:#1a171a;}.x{fill:#b73939;}.y{fill:#963232;}.z{fill:#fcd65b;}.aa{fill:#687ccd;}.ac{opacity:0.55;fill:url(#e);}.ad,.ak,.as,.ax{fill:none;}.af{fill:#ffa79b;}.ag{fill:#f7fafc;}.ah{fill:#f95d84;}.ai{fill:#ffac27;}.ak,.as,.ax{stroke:#000;stroke-miterlimit:10;}.ak{stroke-width:2.69px;}.al{fill:#a5807c;}.am{fill:#1b2a6b;}.an{fill:#152359;}.ao{fill:#5b5a5c;}.ap{fill:#f48f4a;}.as,.ax{stroke-width:3.94px;}.at{fill:#8dd1ff;}.au{fill:#44a8e0;}.av{fill:#53b1f2;}.aw{fill:#7bc3ff;}</style><linearGradient id="a" x1="11629.53" y1="766.23" x2="11999.72" y2="1852.13" gradientTransform="matrix(-1, 0.09, 0.09, 1, 15640.58, -722.24)" gradientUnits="userSpaceOnUse"><stop offset="0" stop-color="#8ccc6d"/><stop offset="0.19" stop-color="#81c768"/><stop offset="0.54" stop-color="#62b85b"/><stop offset="0.92" stop-color="#39a54a"/></linearGradient><linearGradient id="b" x1="12711.21" y1="361.14" x2="12906.98" y2="1078.95" gradientTransform="matrix(-0.97, 0.25, 0.25, 0.97, 15916.6, -2060.81)" gradientUnits="userSpaceOnUse"><stop offset="0" stop-color="#00b488"/><stop offset="0.92" stop-color="#007bc0"/></linearGradient><linearGradient id="c" x1="-1075.17" y1="1540.32" x2="-701.93" y2="2635.18" gradientTransform="translate(1714.72 -722.24) rotate(4.94)" xlink:href="#a"/><linearGradient id="d" x1="267.72" y1="3204.62" x2="466.45" y2="3933.28" gradientTransform="translate(1438.7 -2060.81) rotate(14.32)" xlink:href="#b"/><linearGradient id="e" x1="15060.36" y1="584.96" x2="14955.67" y2="316.39" gradientTransform="matrix(-0.99, 0.17, 0.17, 0.99, 17630.79, -1315.84)" gradientUnits="userSpaceOnUse"><stop offset="0" stop-color="#172652" stop-opacity="0"/><stop offset="1" stop-color="#17263f"/></linearGradient></defs><g class="a"><path class="b" d="M4025.47,1431.74h-387a230.83,230.83,0,0,0,78.64-173.49v-47.67a229.76,229.76,0,0,0-38-126.76h63.82c68.13,0,123.88-56.09,123.88-124.63h0c0-68.55-55.75-124.64-123.88-124.64H2806.79a123.31,123.31,0,0,0,7-40.91V696.31c0-68.2-55.46-124-123.25-124H727.8c-67.79,0-123.25,55.8-123.25,124v97.33c0,68.2,55.46,124,123.25,124H782a124.16,124.16,0,0,0-7.15,41.55h0A124.93,124.93,0,0,0,776.65,980h-170c-126.08,0-229.23,103.78-229.23,230.62v47.67c0,126.84,103.15,230.62,229.23,230.62H959.09a209,209,0,0,0-65.46,150.59H715.28c-157.43,0-286.23,129.58-286.23,288v130.32c0,158.38,128.8,288,286.23,288H3482.45c157.42,0,286.23-129.58,286.23-288V1927.42a287.3,287.3,0,0,0-10.65-77.64h267.44c114.27,0,207.76-94.06,207.76-209h0C4233.23,1525.8,4139.74,1431.74,4025.47,1431.74Z" transform="translate(-309.43 -447.03)"/><path class="c" d="M3977.12,2260.76c92.69-20.5,222.19-63.55,343.32-153.74,171.63-127.79-209.57-59.65-513.92,56.15l130.59,84.73Z" transform="translate(-309.43 -447.03)"/><path class="d" d="M4272.27,2024.67c-56.8,56.36-208.53,171.67-354.7,293.31L3751.17,2390,3708,2300.62C3811.51,2122,3955,1936.13,4086.55,1836.84,4317.33,1662.65,4471.58,1826.88,4272.27,2024.67Z" transform="translate(-309.43 -447.03)"/><path class="c" d="M3749,2385.61c170.16-291.69,522.05-544.38,523.33-545.31a5.94,5.94,0,0,1,8,.93,5.16,5.16,0,0,1-1.09,7.52c-1.26.92-347.52,249.59-517.26,536.59l-10.85,4.69Z" transform="translate(-309.43 -447.03)"/><path class="e" d="M3841.38,1452.06c-25.1,85.3-54.62,283.28-93,488.77,37.57,79.05,23.92,283.77,107.94,324.27,118.35-201,297.47-568.83,322-743.39C4226.22,1180,3937,1127.36,3841.38,1452.06Z" transform="translate(-309.43 -447.03)"/><path class="f" d="M3847.27,2066.9c160.2-335.5,204.9-728.7,205.09-730.34a7.17,7.17,0,0,0-14.2-1.68c-.2,1.63-44.4,390.28-201.88,722.46C3839.89,2060.58,3843.54,2063.77,3847.27,2066.9Z" transform="translate(-309.43 -447.03)"/><path class="g" d="M3769.11,1712.56c20.88,72.8,76.91,377.82,108.54,551.87l-60.15,29.81-108.86-19.87C3599,2098.57,3505.27,1890,3486.4,1739.09,3453.31,1474.44,3695.88,1457.09,3769.11,1712.56Z" transform="translate(-309.43 -447.03)"/><path class="c" d="M3812.11,2293.25c-178.38-287.92-216.67-684.11-216.82-685.56-.29-2.83,2.14-5.17,5.44-5.22s6.17,2.22,6.46,5.06c.15,1.44,37.85,391.29,212,676.26l-1.74,10.45Z" transform="translate(-309.43 -447.03)"/><rect class="h" x="177.18" y="1801.23" width="3812.79" height="158.69" rx="78.39"/><path class="c" d="M692.54,2064.36c-93-29.18-222.41-92.48-341.68-229.77-169-194.52,214-99.82,517.68,71.83L733.45,2043Z" transform="translate(-309.43 -447.03)"/><path class="d" d="M391,1711.79C441.3,1769,575.58,1886,704.94,2009.36l147.26,73.09,38.17-90.71c-91.57-181.22-218.54-369.77-335-470.5C351.15,1344.52,214.64,1511.14,391,1711.79Z" transform="translate(-309.43 -447.03)"/><path class="c" d="M854.09,2078c-150.59-295.92-462-552.28-463.15-553.22a4.8,4.8,0,0,0-7.08,1,5.71,5.71,0,0,0,1,7.62c1.11.93,307.56,253.21,457.77,544.37l9.6,4.76Z" transform="translate(-309.43 -447.03)"/><path class="i" d="M772.37,1130.88c22.22,86.53,48.34,287.38,82.3,495.86-33.25,80.19-21.17,287.88-95.53,329-104.74-203.88-263.26-577.08-284.93-754.17C431.79,854.9,687.77,801.46,772.37,1130.88Z" transform="translate(-309.43 -447.03)"/><path class="f" d="M767.15,1754.63c-141.77-340.36-181.33-739.26-181.5-740.92a6.84,6.84,0,0,1,5.59-7.6,6.32,6.32,0,0,1,7,5.89c.18,1.65,39.3,395.94,178.66,732.93Q772.1,1749.87,767.15,1754.63Z" transform="translate(-309.43 -447.03)"/><path class="j" d="M836.33,1395.16c-18.48,73.85-68.07,383.3-96.06,559.87l53.24,30.24,96.33-20.16c97-178.34,180-390,196.69-543C1115.81,1153.58,901.14,1136,836.33,1395.16Z" transform="translate(-309.43 -447.03)"/><path class="c" d="M798.27,1984.27c157.87-292.1,191.76-694,191.89-695.51a4.82,4.82,0,0,0-4.81-5.29,5.72,5.72,0,0,0-5.72,5.14c-.13,1.45-33.5,397-187.66,686.06l1.54,10.6Z" transform="translate(-309.43 -447.03)"/><path class="k" d="M469.46,2017.89v17c0,7.19,17.68,13,39.53,13h982v-30c0-17.29-42.63-31.32-95.18-31.32H564.63C512.08,1986.57,469.46,2000.6,469.46,2017.89Z" transform="translate(-309.43 -447.03)"/><path class="l" d="M519.62,2047.87l9.22,25.9,122.78,317.36h6.24c29.39,9.94,160.52,17.44,317.85,17.44,66.11,0,127.61-1.32,178.86-3.59,15.18-.69,29.44-1.43,42.68-2.25,63.18-4,102.6-9.59,102.6-15.83,0-1.46-2.22-2.88-6.23-4.26l137.74-334.77Z" transform="translate(-309.43 -447.03)"/><path class="m" d="M469.46,2017.89v17c0,7.19,17.68,13,39.53,13h10.63l9.22,25.9s624.1,60.77,668.41,328.94v0c63.18-4,102.6-9.59,102.6-15.83,0-1.46-2.22-2.88-6.23-4.26l137.74-334.77H1491v-30c0-17.29-42.63-31.32-95.18-31.32H564.63C512.08,1986.57,469.46,2000.6,469.46,2017.89Z" transform="translate(-309.43 -447.03)"/><path class="n" d="M2035.88,47.33h778.81a17.52,17.52,0,0,1,17.52,17.52v1152a17.52,17.52,0,0,1-17.52,17.52h-778.8a17.53,17.53,0,0,1-17.53-17.53V64.85A17.52,17.52,0,0,1,2035.88,47.33Z"/><rect class="o" x="2043.41" width="813.86" height="1187.01" rx="17.52"/><rect class="p" x="2182.93" y="110.45" width="527.07" height="116.26" rx="16.43"/><path class="p" d="M2668.71,1320H2564a44.55,44.55,0,0,1-44.55-44.55h0a44.56,44.56,0,0,1,44.55-44.55h104.67a44.55,44.55,0,0,1,44.55,44.55h0A44.54,44.54,0,0,1,2668.71,1320Z" transform="translate(-309.43 -447.03)"/><path class="q" d="M2971,1320H2866.33a44.54,44.54,0,0,1-44.55-44.55h0a44.55,44.55,0,0,1,44.55-44.55H2971a44.55,44.55,0,0,1,44.55,44.55h0A44.54,44.54,0,0,1,2971,1320Z" transform="translate(-309.43 -447.03)"/><rect class="r" x="2171.3" y="342.98" width="565.82" height="89.14" rx="12.06"/><rect class="r" x="2171.3" y="494.13" width="565.82" height="89.14" rx="12.06"/><rect class="s" x="2293.38" y="639.46" width="325.54" height="20.35" rx="10.17"/><rect class="t" x="995.06" y="1568.25" width="544.28" height="310.99"/><path class="t" d="M2462.1,2106.28h-1679c-51.85,0-93.89-45.15-93.89-100.84V940.11c0-55.7,42-100.84,93.89-100.84h1679c51.85,0,93.88,45.14,93.88,100.84V2005.44C2556,2061.13,2514,2106.28,2462.1,2106.28Z" transform="translate(-309.43 -447.03)"/><rect class="u" x="1082.74" y="1572.04" width="544.28" height="307.2"/><path class="u" d="M2526.49,2106.28h-1679c-51.85,0-93.88-45.15-93.88-100.84V940.11c0-55.7,42-100.84,93.88-100.84h1679c51.85,0,93.88,45.14,93.88,100.84V2005.44C2620.37,2061.13,2578.34,2106.28,2526.49,2106.28Z" transform="translate(-309.43 -447.03)"/><rect class="v" x="515.87" y="461.34" width="1722.73" height="1097.88"/><rect class="u" x="528.93" y="482.41" width="1695.56" height="1046.94"/><rect class="w" x="528.93" y="482.41" width="1695.56" height="87.24"/><rect class="h" x="528.93" y="1463.92" width="1695.56" height="65.43"/><rect class="h" x="697.11" y="569.66" width="1228.52" height="894.26"/><rect class="u" x="528.93" y="569.66" width="168.18" height="894.26"/><rect class="v" x="574.94" y="637.14" width="76.15" height="77.7"/><rect class="v" x="574.94" y="775.16" width="76.15" height="77.7"/><rect class="v" x="574.94" y="913.18" width="76.15" height="77.7"/><rect class="v" x="574.94" y="1051.21" width="76.15" height="77.7"/><rect class="o" x="1951.01" y="637.14" width="243.67" height="23.86"/><rect class="p" x="1951.01" y="660.99" width="243.67" height="190.85"/><rect class="o" x="1951.01" y="912.16" width="243.67" height="23.86"/><rect class="p" x="1951.01" y="936.02" width="243.67" height="190.85"/><rect class="o" x="1951.01" y="1159.58" width="243.67" height="23.86"/><rect class="p" x="1951.01" y="1183.44" width="243.67" height="190.85"/><rect class="v" x="2145.19" y="510.49" width="30.46" height="31.08"/><rect class="v" x="2096.33" y="510.49" width="30.46" height="31.08"/><rect class="v" x="2047.47" y="510.49" width="30.46" height="31.08"/><rect class="t" x="810.02" y="1879.24" width="1009.1" height="111.3" rx="49.16"/><rect class="u" x="897.83" y="1879.24" width="921.29" height="111.3" rx="49.04"/><rect class="v" x="814.59" y="993.5" width="261.61" height="45.11"/><rect class="v" x="1153.81" y="952.01" width="124.23" height="42"/><rect class="v" x="1344.62" y="952.01" width="436.95" height="42"/><rect class="v" x="814.59" y="1085.43" width="183.82" height="29.57"/><rect class="v" x="1063.7" y="1037.6" width="183.82" height="27.53"/><rect class="v" x="814.59" y="1177.1" width="337.34" height="12.12"/><rect class="v" x="1254.51" y="1122.94" width="337.34" height="11.28"/><rect class="v" x="1323.42" y="1223.65" width="337.34" height="11.28"/><rect class="v" x="814.59" y="1269.33" width="471.93" height="44.74"/><rect class="v" x="814.59" y="666.28" width="280.2" height="64.71"/><rect class="v" x="814.59" y="748.73" width="380.71" height="20.34"/><path class="x" d="M4166.42,1936.6q0,8.54-.46,17.07c-6.28,134.11-86.63,240.52-184.54,240.52H3800.05V2067.77h181.37c51.9,0,94.2-58.79,94.2-131.17s-42.3-131.17-94.2-131.17H3833.49V1679h147.93C4083.41,1679,4166.42,1794.58,4166.42,1936.6Z" transform="translate(-309.43 -447.03)"/><path class="x" d="M4166,1953.67c-6.28,134.11-86.63,240.52-184.54,240.52H3800.05V2067.77h181.37c48.42,0,88.45-51.21,93.67-116.84.3-4.74.53-9.48.53-14.33,0-72.27-42.3-131.17-94.2-131.17H3833.49V1713h147.93C4079.33,1713,4159.76,1819.55,4166,1953.67Z" transform="translate(-309.43 -447.03)"/><path class="l" d="M4166,1953.67c-6.28,134.11-86.63,240.52-184.54,240.52H3800.05v-97.87h181.37c51.9,0,94.2-58.79,94.2-131.17,0-4.85-.15-9.59-.53-14.22.3-4.74.53-9.48.53-14.33,0-72.27-42.3-131.17-94.2-131.17H3833.49V1713h147.93C4079.33,1713,4159.76,1819.55,4166,1953.67Z" transform="translate(-309.43 -447.03)"/><path class="y" d="M4104.05,2418c0,63.19-304,132.08-678.92,132.08-26.41,0-52.51-.26-78.16-.77-304-5.83-550.79-60.15-596.81-110.76-5.2-5.67-7.92-11.54-7.92-17.47,0-63.13,307.93-99.67,682.89-99.67S4104.05,2374,4104.05,2418Z" transform="translate(-309.43 -447.03)"/><path class="x" d="M4104.05,2418c0,55.08-304.85,99.69-680.9,99.69-26.49,0-52.67-.22-78.39-.67-304.85-5.08-548.42-39.67-594.57-83.79-5.22-4.94-8-10.06-8-15.23,0-55,304.85-99.64,680.91-99.64S4104.05,2363,4104.05,2418Z" transform="translate(-309.43 -447.03)"/><path class="y" d="M4076.51,2416c0,48-292.52,87-653.36,87-6.28,0-12.56,0-18.84-.05-316.13-1.17-576.11-32.25-625.82-72.78-5.76-4.62-8.71-9.34-8.71-14.15,0-33.2,140.21-62.09,346.17-76.73,91.55-6.52,196.12-10.2,307.2-10.2C3784,2329.07,4076.51,2368,4076.51,2416Z" transform="translate(-309.43 -447.03)"/><path class="y" d="M3662,2441.79l-257.71,61.14c-316.13-1.17-576.11-32.25-625.82-72.78-5.76-4.62-8.71-9.34-8.71-14.15,0-33.2,140.21-62.09,346.17-76.73l307.2,20.71Z" transform="translate(-309.43 -447.03)"/><path class="l" d="M3880,1535.91c-6.81,98.72-13.55,237-20.36,335.69q-5.22,76.17-10.52,152.44c-5.52,80.81-10.06,161.3-41.08,232-2.2,4.95-4.39,9.7-6.74,14.54a376.75,376.75,0,0,1-27.69,47.73,358.34,358.34,0,0,1-33,41.61,349.93,349.93,0,0,1-104.27,77.23,382,382,0,0,1-35.25,14.85,446.37,446.37,0,0,1-54.71,16c-41.16,9.06-82.93,12.53-123.41,12.64h-51c-109.41-.42-228.73-24.87-317.64-120.74-26.71-28.76-49.78-63.74-67.41-103.88-31-70.69-35.57-151.18-41.17-232q-5.22-76.17-10.44-152.44c-6.81-98.72-13.62-237-20.35-335.69Z" transform="translate(-309.43 -447.03)"/><path class="x" d="M3801.33,1535.91l-27.69,782.39a358.34,358.34,0,0,1-33,41.61,349.93,349.93,0,0,1-104.27,77.23V1535.91Z" transform="translate(-309.43 -447.03)"/><path class="x" d="M3601.13,1535.91V2452a446.37,446.37,0,0,1-54.71,16v-932.1Z" transform="translate(-309.43 -447.03)"/><rect class="x" x="2566.48" y="1059.73" width="1026.48" height="81.43" rx="29.61"/><path class="l" d="M3601.36,1506.76v9.87a29.7,29.7,0,0,1-29.61,29.61H2875.91v-9.87a29.7,29.7,0,0,1,29.61-29.61Z" transform="translate(-309.43 -447.03)"/><polygon class="z" points="2502.48 1256.74 2546.69 1367.24 2616.95 1349.55 2588.78 1242.82 2502.48 1256.74"/><path class="aa" d="M2930.64,1778.18l48.93,126.64L2929.72,1924l-9.81-12.63-10.63,23.94-133.86,51.42s-14.18-19.59-6.3-30.39,33.16-27.41,33.16-27.41l43.38-65.88-11.74-47.68Z" transform="translate(-309.43 -447.03)"/><path class="ab" d="M2769.63,1712.85l127.94-21.48.72-.88L3056.19,1502l36.3-26.72,49-36-42.71-43.48L3051,1347.14s-75.09-11.18-155-12.89c-72.62-1.59-149.19,4.62-177.21,34C2659.86,1430.09,2769.63,1712.85,2769.63,1712.85Z" transform="translate(-309.43 -447.03)"/><path class="ac" d="M3050.93,1392.31l-187.29,76.28s-27.55-40.38-32-25.78,19.68,34.77,19.68,34.77l-23.57,4,30.9,19,26.56,158.25L2846,1665.4a7.82,7.82,0,0,0-5,12.32l20.46,28.06a34.5,34.5,0,0,0,33.6,13.7l77.73-13,87.75-322.83" transform="translate(-309.43 -447.03)"/><path class="ad" d="M2876.47,1658.77c-3.22-14.19-6.4-28.59-9.5-42.91l-50,10.84c3.15,14.51,6.33,28.92,9.64,43.5Z" transform="translate(-309.43 -447.03)"/><polygon class="ae" points="2533.19 1185.86 2538.19 1184.76 2536.44 1176.74 2531.43 1177.83 2533.19 1185.86"/><polygon class="ae" points="2536.36 1200.25 2541.36 1199.13 2539.59 1191.12 2534.59 1192.22 2536.36 1200.25"/><polygon class="ae" points="2539.57 1214.58 2544.57 1213.45 2542.77 1205.44 2537.77 1206.56 2539.57 1214.58"/><polygon class="ad" points="2557.53 1168.83 2548.43 1125.79 2498.28 1136.12 2507.49 1179.66 2557.53 1168.83"/><polygon class="ae" points="2523.92 1142.57 2528.93 1141.52 2527.26 1133.48 2522.24 1134.52 2523.92 1142.57"/><polygon class="ae" points="2526.96 1156.99 2531.97 1155.92 2530.27 1147.89 2525.26 1148.95 2526.96 1156.99"/><polygon class="ae" points="2530.03 1171.35 2535.04 1170.27 2533.32 1162.25 2528.31 1163.32 2530.03 1171.35"/><path class="ad" d="M2857.86,1572.82q-4.43-21.54-8.58-43l-50.29,9.64q4.22,21.94,8.72,43.74Z" transform="translate(-309.43 -447.03)"/><polygon class="ae" points="2515.11 1099.18 2520.14 1098.19 2518.57 1090.14 2513.54 1091.11 2515.11 1099.18"/><polygon class="ae" points="2517.98 1113.64 2523 1112.63 2521.39 1104.58 2516.37 1105.58 2517.98 1113.64"/><polygon class="ae" points="2520.91 1128.03 2525.92 1127 2524.28 1118.96 2519.26 1119.98 2520.91 1128.03"/><path class="ad" d="M2849.28,1529.77c-2.75-14.35-5.39-28.68-7.77-42.94l-50.51,8.44c2.49,14.83,5.18,29.51,8,44.14Z" transform="translate(-309.43 -447.03)"/><polygon class="ae" points="2506.98 1055.65 2512.02 1054.76 2510.63 1046.69 2505.58 1047.54 2506.98 1055.65"/><polygon class="ae" points="2509.58 1070.16 2514.62 1069.23 2513.16 1061.17 2508.12 1062.07 2509.58 1070.16"/><polygon class="ae" points="2512.29 1084.6 2517.32 1083.65 2515.8 1075.59 2510.76 1076.53 2512.29 1084.6"/><path class="ad" d="M2841.51,1486.83c-2.36-14.22-4.58-28.56-5.91-42l-51,4.89c1.58,15.87,3.91,30.7,6.37,45.59Z" transform="translate(-309.43 -447.03)"/><polygon class="ae" points="2500.17 1011.84 2505.25 1011.2 2504.3 1003.1 2499.21 1003.64 2500.17 1011.84"/><polygon class="ae" points="2502.2 1026.47 2507.26 1025.71 2506.1 1017.62 2501.03 1018.32 2502.2 1026.47"/><polygon class="ae" points="2504.49 1041 2509.54 1040.17 2508.24 1032.09 2503.18 1032.88 2504.49 1041"/><path class="ad" d="M2835.6,1444.79l-.36-4.12-13.78-49.49c-7.19,1.47-14.34,3.37-20.38,6.53-2.88,1.71-5.81,3.36-7.84,5.93-1.06,1.22-2.31,2.38-3.3,3.74s-1.62,2.88-2.43,4.28c-3,5.73-3.77,12.87-3.83,20.12,0,3.59.14,7.47.37,10.73l.17,2.54.14,1.61.27,3Z" transform="translate(-309.43 -447.03)"/><path class="ae" d="M2816,1417.15l3.52,4.3c2.27-.74,4.6-1.28,6.92-1.79l-2-4.81A70.33,70.33,0,0,0,2816,1417.15Z" transform="translate(-309.43 -447.03)"/><path class="ae" d="M2807.59,1428.47l5.07,2.24a26.73,26.73,0,0,1,.39-3.56,5.46,5.46,0,0,1,1.42-3.2l-4.49-3.61a7,7,0,0,0-1.8,3.85A30.6,30.6,0,0,0,2807.59,1428.47Z" transform="translate(-309.43 -447.03)"/><path class="ae" d="M2808,1444l5.1-.42c-.21-2.58-.37-4.88-.44-7.28l-5.17-1C2807.57,1438.26,2807.78,1441.23,2808,1444Z" transform="translate(-309.43 -447.03)"/><path class="ad" d="M2835.24,1440.67l2.64-.45,5-.75c3.37-.48,6.82-.92,10.31-1.32,7-.81,14.09-1.5,21.26-2.11l-4.38-51c-7.53.64-15.1,1.37-22.77,2.25-3.84.45-7.7.93-11.64,1.49l-6,.9-3,.51c-.59.1-1.61.28-2.49.47l-2.71.53Z" transform="translate(-309.43 -447.03)"/><polygon class="ae" points="2551.2 962.75 2551.71 967.85 2559.85 967.09 2559.4 961.98 2551.2 962.75"/><polygon class="ae" points="2536.52 964.37 2537.15 969.46 2545.26 968.52 2544.7 963.42 2536.52 964.37"/><path class="ae" d="M2831.34,1413.52l.86,5c2.66-.46,5.34-.86,8-1.24l-.71-5.07C2836.78,1412.64,2834.06,1413.05,2831.34,1413.52Z" transform="translate(-309.43 -447.03)"/><path class="ad" d="M2874.44,1436c14.33-1.22,28.84-2.17,43.39-3l-2.87-51.13c-14.9.85-29.83,1.82-44.9,3.11Z" transform="translate(-309.43 -447.03)"/><polygon class="ae" points="2595.39 959.32 2595.7 964.43 2603.89 963.95 2603.59 958.83 2595.39 959.32"/><polygon class="ae" points="2580.67 960.3 2581.03 965.4 2589.21 964.85 2588.88 959.74 2580.67 960.3"/><polygon class="ae" points="2566.01 961.42 2566.43 966.52 2574.6 965.88 2574.21 960.77 2566.01 961.42"/><path class="ad" d="M2917.83,1433.05q21.84-1.23,43.79-2.08l-2-51.17q-22.28.9-44.61,2.12Z" transform="translate(-309.43 -447.03)"/><polygon class="ae" points="2639.61 957.02 2639.83 962.14 2648.03 961.79 2647.82 956.68 2639.61 957.02"/><polygon class="ae" points="2624.89 957.7 2625.13 962.82 2633.33 962.43 2633.09 957.32 2624.89 957.7"/><polygon class="ae" points="2610.21 958.46 2610.49 963.58 2618.68 963.14 2618.42 958.03 2610.21 958.46"/><path class="ad" d="M2961.62,1431q21.95-.88,43.94-1.5l-1.47-51.19q-22.26.65-44.52,1.52Z" transform="translate(-309.43 -447.03)"/><polygon class="ae" points="2683.85 955.38 2684.01 960.5 2692.22 960.25 2692.07 955.13 2683.85 955.38"/><polygon class="ae" points="2669.12 955.87 2669.3 960.99 2677.5 960.71 2677.34 955.59 2669.12 955.87"/><polygon class="ae" points="2654.44 956.41 2654.64 961.53 2662.84 961.22 2662.65 956.1 2654.44 956.41"/><path class="ad" d="M3005.56,1429.47c14.63-.42,29.37-.78,43.89-1l-.78-51.2c-15,.25-29.73.61-44.58,1Z" transform="translate(-309.43 -447.03)"/><polygon class="ae" points="2728.11 954.22 2728.21 959.34 2736.42 959.18 2736.32 954.06 2728.11 954.22"/><polygon class="ae" points="2713.37 954.55 2713.5 959.67 2721.7 959.48 2721.59 954.36 2713.37 954.55"/><polygon class="ae" points="2698.69 954.94 2698.83 960.06 2707.03 959.84 2706.9 954.72 2698.69 954.94"/><polygon class="z" points="2733.55 1412.64 2725.86 1574.61 2658.13 1575.79 2641.67 1418.21 2733.55 1412.64"/><path class="aa" d="M3048.53,1998.39l22.4,116.75-60,9.81-3.84-11-16.65,16.57-121.7,15.09s-5.78-20.95,4.34-27.42,35.49-20.35,35.49-20.35l51-48.27-2.65-50.69Z" transform="translate(-309.43 -447.03)"/><path class="ab" d="M2924.75,1894.52l134.7-1.84,67-302s100.23-25.72,172.92-52.15c18-6.55,34.32-13.13,47-19.38,0,0,3.79-121.8-171.36-154.72,0,0-33,12.84-76.29,31.4-30.77,13.2-66.74,29.27-99.82,45.69-48.54,24.08-90.8,48.89-101,66.36-12.07,20.68-7.88,100.71.37,182.65C2908.42,1791.08,2924.75,1894.52,2924.75,1894.52Z" transform="translate(-309.43 -447.03)"/><path class="ad" d="M3304.72,1444.8c-14.87,6.08-29.54,12.18-44.27,18.38l19.85,47.2c14.56-6.12,29.21-12.22,43.74-18.16Z" transform="translate(-309.43 -447.03)"/><polygon class="ae" points="2973.04 1036.63 2971.07 1031.91 2962.91 1035.33 2964.89 1040.05 2973.04 1036.63"/><polygon class="ae" points="2987.68 1030.54 2985.72 1025.81 2977.55 1029.21 2979.52 1033.93 2987.68 1030.54"/><polygon class="ae" points="3002.29 1024.52 3000.35 1019.78 2992.16 1023.15 2994.12 1027.88 3002.29 1024.52"/><path class="ad" d="M3260.45,1463.18q-22.07,9.27-44.06,18.78l20.32,47q21.73-9.4,43.59-18.58Z" transform="translate(-309.43 -447.03)"/><polygon class="ae" points="2929.18 1055.2 2927.17 1050.5 2919.03 1053.99 2921.06 1058.69 2929.18 1055.2"/><polygon class="ae" points="2943.77 1048.98 2941.76 1044.26 2933.62 1047.73 2935.63 1052.44 2943.77 1048.98"/><polygon class="ae" points="2958.32 1042.81 2956.33 1038.1 2948.18 1041.54 2950.18 1046.26 2958.32 1042.81"/><path class="ad" d="M3216.39,1482q-22,9.52-43.95,19.36l21,46.69q21.51-9.66,43.26-19Z" transform="translate(-309.43 -447.03)"/><polygon class="ae" points="2885.54 1074.24 2883.46 1069.56 2875.37 1073.17 2877.47 1077.85 2885.54 1074.24"/><polygon class="ae" points="2900.04 1067.84 2897.98 1063.15 2889.88 1066.71 2891.95 1071.4 2900.04 1067.84"/><polygon class="ae" points="2914.52 1061.53 2912.49 1056.83 2904.37 1060.36 2906.42 1065.05 2914.52 1061.53"/><path class="ad" d="M3172.44,1501.32c-14.63,6.59-29.24,13.29-43.87,20.4l22.35,46.06c13.94-6.76,28.2-13.31,42.53-19.77Z" transform="translate(-309.43 -447.03)"/><polygon class="ae" points="2842.24 1094.01 2840.05 1089.38 2832.04 1093.2 2834.26 1097.81 2842.24 1094.01"/><polygon class="ae" points="2856.6 1087.32 2854.45 1082.67 2846.42 1086.4 2848.58 1091.04 2856.6 1087.32"/><polygon class="ae" points="2870.97 1080.77 2868.86 1076.1 2860.8 1079.76 2862.92 1084.42 2870.97 1080.77"/><path class="ad" d="M3128.57,1521.72c-7.32,3.52-14.65,7.22-22.05,11.08-3.71,2-7.43,4-11.24,6.16s-7.62,4.47-12.11,7.53l29.45,41.9c2.07-1.41,5.09-3.28,8.13-5s6.35-3.53,9.65-5.28c6.69-3.49,13.53-6.95,20.52-10.32Z" transform="translate(-309.43 -447.03)"/><path class="ae" d="M3109.31,1562.52l-2.54-4.44c-2.6,1.45-5.17,3-7.73,4.63l2.77,4.31C3104.26,1565.47,3106.76,1564,3109.31,1562.52Z" transform="translate(-309.43 -447.03)"/><path class="ae" d="M3123.2,1555l-2.35-4.55c-2.64,1.34-5.26,2.75-7.88,4.16l2.44,4.5C3118,1557.75,3120.58,1556.36,3123.2,1555Z" transform="translate(-309.43 -447.03)"/><polygon class="ae" points="2827.86 1100.92 2825.61 1096.33 2817.66 1100.27 2819.96 1104.84 2827.86 1100.92"/><path class="ad" d="M3083.17,1546.49a95.64,95.64,0,0,0-10.4,9,54.12,54.12,0,0,0-5.23,8.59l-2.25,4.52c-.66,1.52-1.05,2.89-1.41,3.86l-1.08,3.15c-.33,1-.57,1.92-.85,2.89-.53,1.88-1.14,3.85-1.59,5.65-1.88,7.3-3.45,14.33-4.83,21.25l50.19,10.18c1.26-6.37,2.67-12.57,4.16-18.4.37-1.49.78-2.75,1.16-4.13.2-.66.39-1.41.58-2l.58-1.65.3-.93.12-.07Z" transform="translate(-309.43 -447.03)"/><path class="ae" d="M3085,1598.79l-5-1.15c-.63,2.9-1.34,5.8-1.91,8.71l5,1C3083.67,1604.51,3084.36,1601.66,3085,1598.79Z" transform="translate(-309.43 -447.03)"/><path class="ae" d="M3089,1583.61l-4.87-1.56c-.87,2.9-1.75,5.79-2.46,8.69l4.95,1.28C3087.34,1589.18,3088.19,1586.4,3089,1583.61Z" transform="translate(-309.43 -447.03)"/><path class="ae" d="M3096.24,1570.93l-3.48-3.75a30.78,30.78,0,0,0-2.8,2.56,22,22,0,0,0-3.14,5.28l4.53,2.37a16.92,16.92,0,0,1,2.57-4.36A24.29,24.29,0,0,1,3096.24,1570.93Z" transform="translate(-309.43 -447.03)"/><path class="ad" d="M3055.53,1605.38c-3.28,16.25-5.91,32.18-8.38,48.11l50.6,7.83c2.4-15.45,4.95-30.88,8-45.76Z" transform="translate(-309.43 -447.03)"/><polygon class="ae" points="2766.74 1198.45 2761.68 1197.63 2760.29 1206.38 2765.35 1207.18 2766.74 1198.45"/><polygon class="ae" points="2769.39 1182.84 2764.34 1181.95 2762.84 1190.69 2767.89 1191.54 2769.39 1182.84"/><polygon class="ae" points="2772.25 1167.33 2767.22 1166.34 2765.57 1175.07 2770.61 1175.99 2772.25 1167.33"/><path class="ad" d="M3047.15,1653.49c-2.46,15.92-4.71,31.79-6.85,47.66L3091,1708q3.16-23.42,6.71-46.66Z" transform="translate(-309.43 -447.03)"/><polygon class="ae" points="2759.7 1245.53 2754.63 1244.83 2753.43 1253.6 2758.51 1254.29 2759.7 1245.53"/><polygon class="ae" points="2761.94 1229.84 2756.87 1229.1 2755.61 1237.87 2760.68 1238.59 2761.94 1229.84"/><polygon class="ae" points="2764.26 1214.22 2759.2 1213.44 2757.88 1222.2 2762.94 1222.95 2764.26 1214.22"/><path class="ad" d="M3040.3,1701.15q-3.21,23.79-6.1,47.56l50.83,6.22q2.88-23.52,6-47Z" transform="translate(-309.43 -447.03)"/><polygon class="ae" points="2753.5 1292.74 2748.42 1292.11 2747.33 1300.89 2752.41 1301.52 2753.5 1292.74"/><polygon class="ae" points="2755.5 1277.02 2750.42 1276.36 2749.3 1285.14 2754.38 1285.79 2755.5 1277.02"/><polygon class="ae" points="2757.56 1261.35 2752.48 1260.67 2751.32 1269.45 2756.39 1270.11 2757.56 1261.35"/><polygon class="ad" points="2724.77 1301.68 2719.17 1349.23 2770.05 1354.99 2775.59 1307.9 2724.77 1301.68"/><polygon class="ae" points="2747.82 1340.03 2742.73 1339.44 2741.72 1348.23 2746.81 1348.82 2747.82 1340.03"/><polygon class="ae" points="2749.66 1324.28 2744.58 1323.68 2743.54 1332.47 2748.63 1333.06 2749.66 1324.28"/><polygon class="ae" points="2751.54 1308.59 2746.46 1307.97 2745.4 1316.76 2750.48 1317.37 2751.54 1308.59"/><polygon class="ad" points="2719.17 1349.23 2713.99 1396.87 2764.94 1402.07 2770.05 1354.99 2719.17 1349.23"/><polygon class="ae" points="2742.56 1387.37 2737.47 1386.83 2736.53 1395.63 2741.63 1396.16 2742.56 1387.37"/><polygon class="ae" points="2744.26 1371.61 2739.17 1371.05 2738.21 1379.84 2743.31 1380.39 2744.26 1371.61"/><polygon class="ae" points="2746.01 1355.9 2740.92 1355.32 2739.94 1364.12 2745.03 1364.68 2746.01 1355.9"/><path class="af" d="M3072.85,1424.7c4.16-.17,8.61-.41,13.38-.79a124,124,0,0,1,36.05,2.48c90.8,19.74,136.12,136.8,136.12,136.8,9-10.22,28.29-17.81,45.4-22.9a306.91,306.91,0,0,1,32.64-7.72c90.77-24.48,39.64-239.65,26.36-290-1.8-6.73-2.89-10.51-2.89-10.51l-319.34-31.7-1.45,178.34S2976.86,1428.32,3072.85,1424.7Z" transform="translate(-309.43 -447.03)"/><path d="M3020.84,841.9s-78.2,7-73.26-71.52,63.43-109.91,113.53-92.93,36.31,70.77,36.31,70.77,28-34.45,54.26-12.41,12.23,44.48,12.23,44.48,42.91-33.9,67.33-6.64c28.51,31.82-12.68,56.89-12.68,56.89s28.37,17.78,25.25,39.83-13.92,32.9-13.92,32.9,55.36-9.32,70.85,34-60.5,56.53-60.5,56.53l-94.34,33.73-64-158.58Z" transform="translate(-309.43 -447.03)"/><path class="z" d="M3134.25,902.56l35.26,78.13-68.3,66.9-42.82-110.93-39.95-.17A30.07,30.07,0,0,1,2989.2,900l26.89-122.68s51.6,82.75,83.09,78.48,27-27.11,27-27.11,60.89,6.15,51.33,41S3134.25,902.56,3134.25,902.56Z" transform="translate(-309.43 -447.03)"/><path d="M3016.19,842.5a25.07,25.07,0,0,1-9.31,19.08,2.38,2.38,0,0,0-.37,2.84,24,24,0,0,0,8.88,10c2.57,1.63,4.93-2.44,2.38-4.06a19.52,19.52,0,0,1-7.2-8.28l-.37,2.85a29.55,29.55,0,0,0,10.69-22.4c0-3-4.66-3-4.7,0Z" transform="translate(-309.43 -447.03)"/><path d="M3025.64,907.08c10.63,2.71,22.54-1.6,29.34-10.14a27.46,27.46,0,0,0,4.61-8.38c1-2.87-3.57-4.1-4.53-1.25-3.79,11.21-16.91,18.11-28.17,15.24-2.93-.75-4.19,3.78-1.25,4.53Z" transform="translate(-309.43 -447.03)"/><path d="M3060.12,935l24-1.2a2.41,2.41,0,0,0,2.35-2.35,2.37,2.37,0,0,0-2.35-2.35l-24,1.2a2.41,2.41,0,0,0-2.35,2.35,2.37,2.37,0,0,0,2.35,2.35Z" transform="translate(-309.43 -447.03)"/><path d="M3162.94,863.51c-2.78-9.42-12.49-15.16-22-15.08-10.46.09-18.77,7.55-22.26,17.06a29.73,29.73,0,0,0-1,16.91,2.39,2.39,0,0,0,2.27,1.72,2.46,2.46,0,0,0,2.27-1.72,15.33,15.33,0,0,1,27.25-2.55c1.62,2.54,5.69.18,4.06-2.38a20.57,20.57,0,0,0-14.24-9.24,20.06,20.06,0,0,0-16.15,4.95,20.32,20.32,0,0,0-5.46,8h4.54a24.62,24.62,0,0,1,6.8-23.21,18.48,18.48,0,0,1,21.54-2.42,15.75,15.75,0,0,1,7.86,9.24c.86,2.89,5.4,1.66,4.53-1.25Z" transform="translate(-309.43 -447.03)"/><path class="af" d="M3178.85,962.72s89.79,6.33,150.88,89.6,122.71,206.6,102.26,234.32-108.76,94.29-180.21,108.11c0,0,11.69-85.94-41.76-108.58l-145.81-5.56-139.54,17.27s50.88-154.28,79.33-209.37,72.39-83.52,72.39-83.52Z" transform="translate(-309.43 -447.03)"/><path class="z" d="M3329.33,1335s10.57-81.39-69.13-81.86L3111,1354.37s-65.15-37.53-104.94,14.15c0,0-15.69,30.32,20.24,38.14s94.87,8.31,94.87,8.31Z" transform="translate(-309.43 -447.03)"/><polygon class="z" points="2574.86 819.65 2432.88 786.25 2430.83 801.63 2427.31 828.01 2599.91 914.31 2574.86 819.65"/><path class="z" d="M2759,1252.77l-16.7-19.49-30.62-33.41-44.55-30.62s-8.35,11.13,13.92,30.62,16.71,44.55,19.49,47.33,16.7,27.84,36.19,27.84S2759,1252.77,2759,1252.77Z" transform="translate(-309.43 -447.03)"/><path class="z" d="M2703,1211h-33.73s-26-16.71-46.72-11.14-18.16,11.14-18.16,11.14-20.77,0-20.77,8.35,33.74,39,72.67,47.33,80.45,8.35,80.45,8.35Z" transform="translate(-309.43 -447.03)"/><polyline class="z" points="2749.94 854.44 2767.91 897.86 2802.89 923.44 2801.59 907.33"/><path class="ag" d="M3070.79,1329.05l-55.65-134.75s-183.74,44.55-208.8-16.7l83.52,183.74-30.62,130.85s30.62,39,111.36,36.19,125.27-39,125.27-39Z" transform="translate(-309.43 -447.03)"/><path class="z" d="M3065.25,1325.15l-20.44,2.25s-78.61-7.58-72.49,1.78,15,7.87,15,7.87-8.85,1.49-7.72,8.22,28.81,9,28.81,9-21.75-.77-22.68,3.8c-2.17,10.75,20.51,10.41,20.51,10.41s-14-1.94-12.7,5.59c1.13,6.73,79.57,24.76,79.57,24.76s10.24,22.48,45.63,16.54c29-4.87-1.46-50.07-20.05-68C3094.35,1343.28,3072.05,1316.89,3065.25,1325.15Z" transform="translate(-309.43 -447.03)"/><path class="ah" d="M3279.13,776.29l278.73,1a15.46,15.46,0,0,0,15.51-15.4l.4-110.63a15.45,15.45,0,0,0-15.4-15.51l-240.22-.87a15.44,15.44,0,0,0-15.51,15.4l-.36,98.46a9.3,9.3,0,0,1-3.35,7.11L3278,773.24A1.73,1.73,0,0,0,3279.13,776.29Z" transform="translate(-309.43 -447.03)"/><circle class="v" cx="3076.13" cy="259.51" r="9.44"/><circle class="v" cx="3128.28" cy="259.7" r="9.44"/><circle class="v" cx="3181.2" cy="259.89" r="9.44"/><path class="ai" d="M1747.14,1400.54v144.74a40.15,40.15,0,0,1-40.15,40.16h-54.65l7.2,74.49-93.11-74.49H1417.12a40.15,40.15,0,0,1-40.16-40.16V1400.54a40.14,40.14,0,0,1,40.16-40.15H1707A40.14,40.14,0,0,1,1747.14,1400.54Z" transform="translate(-309.43 -447.03)"/><path class="z" d="M1730.19,1400.54v144.74a40.15,40.15,0,0,1-40.16,40.16h-54.65l24.16,74.49-104.41-74.49H1411.46a40.15,40.15,0,0,1-40.15-40.16V1400.54a40.14,40.14,0,0,1,40.15-40.15H1690A40.14,40.14,0,0,1,1730.19,1400.54Z" transform="translate(-309.43 -447.03)"/><circle class="v" cx="1326.89" cy="1026.9" r="15.01"/><circle class="v" cx="1243.97" cy="1026.9" r="15.01"/><circle class="v" cx="1159.83" cy="1026.9" r="15.01"/><path class="aj" d="M2069.23,757.12Zm-17.84-67.92a34.31,34.31,0,1,0,10.05,24.26,34.21,34.21,0,0,0-10.05-24.26Zm-7.41-34a60.65,60.65,0,0,1,25.25,14.62,2.09,2.09,0,0,0,2.51.3l15.94-9.2.09,0a4,4,0,0,1,5.31,1.5l.07.11,11.21,19.43a4,4,0,0,1-1.45,5.4l-.1.06L2087,696.49a2.11,2.11,0,0,0-1,2.33h0a58.73,58.73,0,0,1,1.34,7.25,62.28,62.28,0,0,1,0,14.78,60.66,60.66,0,0,1-1.34,7.25,2.1,2.1,0,0,0,1.12,2.39l15.8,9.13h0a4,4,0,0,1,1.45,5.41l-11.28,19.54h0a4,4,0,0,1-2.4,1.83,3.92,3.92,0,0,1-3-.39l-.11-.06-15.84-9.14a2.08,2.08,0,0,0-2.5.31,61.88,61.88,0,0,1-11.8,8.89,60.67,60.67,0,0,1-13.54,5.75,2.1,2.1,0,0,0-1.53,2v18.38a4,4,0,0,1-3.95,4h-22.56a4,4,0,0,1-3.95-4V773.79a2.11,2.11,0,0,0-1.62-2.06,60.56,60.56,0,0,1-13.45-5.72,61.88,61.88,0,0,1-11.8-8.89,2.09,2.09,0,0,0-2.61-.25L1966.58,766a4,4,0,0,1-5.4-1.45l-.07-.12L1949.89,745h0a3.92,3.92,0,0,1-.39-3,4,4,0,0,1,1.83-2.41l15.93-9.19a2.1,2.1,0,0,0,1-2.32h0a59.24,59.24,0,0,1-1.34-7.26,62.28,62.28,0,0,1,0-14.78,58.73,58.73,0,0,1,1.34-7.25,2.11,2.11,0,0,0-1.12-2.39l-15.81-9.13a4,4,0,0,1-1.44-5.4l.06-.11,11.22-19.43h0a4,4,0,0,1,5.4-1.45h0l15.94,9.2a2.09,2.09,0,0,0,2.56-.35,61.29,61.29,0,0,1,11.75-8.84,60.21,60.21,0,0,1,13.54-5.75,2.12,2.12,0,0,0,1.53-2v-18.4a4,4,0,0,1,3.95-3.94h22.56a4,4,0,0,1,3.95,3.94v18.4A2.1,2.1,0,0,0,2044,655.19Z" transform="translate(-309.43 -447.03)"/><path class="aj" d="M2201.9,627.32Zm-22-83.59a42.22,42.22,0,1,0,12.37,29.86,42.07,42.07,0,0,0-12.37-29.86Zm-9.12-41.85a74.48,74.48,0,0,1,31.07,18,2.61,2.61,0,0,0,3.09.37l19.63-11.33.1-.06a4.89,4.89,0,0,1,6.54,1.84l.08.14,13.8,23.91a4.88,4.88,0,0,1-1.78,6.65l-.13.08-19.46,11.23a2.58,2.58,0,0,0-1.22,2.86h0a73.54,73.54,0,0,1,1.64,8.92,75.47,75.47,0,0,1,0,18.19,73.54,73.54,0,0,1-1.64,8.92,2.58,2.58,0,0,0,1.37,2.94l19.45,11.23h0a4.9,4.9,0,0,1,2.26,3,4.85,4.85,0,0,1-.48,3.69l-13.88,24h0a4.9,4.9,0,0,1-6.64,1.78l-.15-.08L2205,626.94a2.59,2.59,0,0,0-3.08.38,75.46,75.46,0,0,1-14.51,10.94,74.45,74.45,0,0,1-16.67,7.08,2.58,2.58,0,0,0-1.88,2.49v22.63a4.88,4.88,0,0,1-4.86,4.86H2136.2a4.88,4.88,0,0,1-4.86-4.86V647.83a2.59,2.59,0,0,0-2-2.52,74.61,74.61,0,0,1-31.07-18,2.57,2.57,0,0,0-3.22-.3l-19.49,11.25a4.89,4.89,0,0,1-3.69.47,4.83,4.83,0,0,1-3-2.25l-.09-.14L2055,612.43h0a4.84,4.84,0,0,1-.48-3.67,4.92,4.92,0,0,1,2.25-3l19.61-11.31a2.6,2.6,0,0,0,1.22-2.86h0a76.06,76.06,0,0,1-1.63-8.93,75.47,75.47,0,0,1,0-18.19,75.52,75.52,0,0,1,1.63-8.92,2.59,2.59,0,0,0-1.37-3l-19.46-11.23a4.88,4.88,0,0,1-1.77-6.64l.07-.15,13.81-23.91h0a4.89,4.89,0,0,1,6.64-1.79h0l19.63,11.33a2.58,2.58,0,0,0,3.15-.43,75.19,75.19,0,0,1,14.46-10.89,74.37,74.37,0,0,1,16.66-7.08,2.59,2.59,0,0,0,1.88-2.5V476.72a4.88,4.88,0,0,1,4.86-4.85H2164a4.88,4.88,0,0,1,4.86,4.85v22.63A2.6,2.6,0,0,0,2170.82,501.88Z" transform="translate(-309.43 -447.03)"/><path class="aj" d="M981.41,2063.55a7.69,7.69,0,1,1,15.37,0v18.06h18.06a7.69,7.69,0,1,1,0,15.37H996.78v18.07a7.69,7.69,0,0,1-15.37,0V2097H963.34a7.69,7.69,0,1,1,0-15.37h18.07Z" transform="translate(-309.43 -447.03)"/><path class="aj" d="M3474.27,956.17a7.69,7.69,0,0,1,15.37,0v18.07h18.07a7.69,7.69,0,0,1,0,15.38h-18.07v18.06a7.69,7.69,0,1,1-15.37,0V989.62H3456.2a7.69,7.69,0,0,1,0-15.38h18.07Z" transform="translate(-309.43 -447.03)"/><path class="aj" d="M656.08,2229.23a7.69,7.69,0,1,1,15.37,0v18.07h18.06a7.69,7.69,0,1,1,0,15.37H671.45v18.07a7.69,7.69,0,0,1-15.37,0v-18.07H638a7.69,7.69,0,0,1,0-15.37h18.08Z" transform="translate(-309.43 -447.03)"/><path class="aj" d="M883,646.79a7.69,7.69,0,1,1,15.37,0v18.06h18.07a7.69,7.69,0,0,1,0,15.38H898.38v18.06a7.69,7.69,0,0,1-15.37,0V680.23H865a7.69,7.69,0,1,1,0-15.38H883Z" transform="translate(-309.43 -447.03)"/><path class="aj" d="M1047.27,719.17a7.69,7.69,0,1,1,15.37,0v18.07h18.06a7.69,7.69,0,1,1,0,15.37h-18.06v18.07a7.69,7.69,0,0,1-15.37,0V752.61H1029.2a7.69,7.69,0,1,1,0-15.37h18.07Z" transform="translate(-309.43 -447.03)"/><path class="aj" d="M3614.32,1296.84a7.68,7.68,0,1,1,15.36,0v18.06h18.07a7.69,7.69,0,1,1,0,15.37h-18.07v18.07a7.68,7.68,0,1,1-15.36,0v-18.07h-18.08a7.69,7.69,0,0,1,0-15.37h18.08Z" transform="translate(-309.43 -447.03)"/><path class="ak" d="M3277.41,1254.71l29.25-19.81s-46.8-26.56-68-114.58" transform="translate(-309.43 -447.03)"/><path class="ak" d="M3057.32,1178.74s-36.94,21.23,2,122.73" transform="translate(-309.43 -447.03)"/><path class="al" d="M1948.48,1599.36l54.17,126.32a51.17,51.17,0,0,1-36.8,70.3l-24.59,5,25.54,91.42L1830.35,1934l-33.06-331.46Z" transform="translate(-309.43 -447.03)"/><path d="M1968,1491.86c-78.43-46.13-121.86,45.54-121.86,45.54s-85.59,5.88-112.52,57.45c-64.53,123.59,106.92,219.77,106.92,219.77l50.18-58.54s-70.32-6.37-62.6-70.06,69-.26,69-.26,9-91.55,51.41-86.4S2049,1539.49,1968,1491.86Z" transform="translate(-309.43 -447.03)"/><path d="M1957.79,1653c2,12.83,11.43,24.17,23.29,29.2a37.88,37.88,0,0,0,11.32,2.88,3.46,3.46,0,0,0,3.45-3.45,3.54,3.54,0,0,0-3.45-3.45l-.62-.06-.16,0-.76-.12c-.72-.13-1.42-.28-2.13-.45a32.79,32.79,0,0,1-4.12-1.29l-.58-.23.11,0q-.5-.21-1-.45c-.65-.3-1.29-.63-1.93-1a35.79,35.79,0,0,1-3.67-2.3l-.88-.65.09.07-.49-.39c-.56-.46-1.11-.94-1.64-1.43a37.19,37.19,0,0,1-3-3.13c-.24-.27-.47-.55-.7-.83l-.29-.37c.09.11.37.5,0,0s-.85-1.18-1.25-1.78a36.86,36.86,0,0,1-2.17-3.75c-.18-.37-.36-.75-.53-1.12l-.25-.57c.14.32.1.25,0,0-.29-.77-.58-1.54-.83-2.33a34.53,34.53,0,0,1-1.12-4.83c-.28-1.79-2.61-2.94-4.24-2.41a3.55,3.55,0,0,0-2.41,4.25Z" transform="translate(-309.43 -447.03)"/><path d="M1987.81,1725.77a70.19,70.19,0,0,1-18.86,3.47,74.34,74.34,0,0,1-9.67-.21,65.39,65.39,0,0,1-9.42-1.52c-1.67-.39-3.93.5-4.25,2.41a31.77,31.77,0,0,0,12.52,30.31,28.56,28.56,0,0,0,8.48,4.32,3.48,3.48,0,0,0,4.25-2.41,3.53,3.53,0,0,0-2.41-4.24l-1.16-.4c-.13,0-1.29-.54-.58-.22-.65-.3-1.29-.6-1.91-1s-1.4-.81-2.07-1.26c-.34-.23-.66-.47-1-.71.57.42-.14-.11-.26-.21a28.06,28.06,0,0,1-3.28-3.17c-.27-.3-.52-.62-.79-.93s-.25-.32,0,0l-.36-.49c-.45-.62-.88-1.26-1.27-1.91s-.78-1.32-1.12-2c-.19-.36-.36-.73-.53-1.1-.09-.18-.17-.37-.25-.56l.05.12a29.17,29.17,0,0,1-1.35-4.35q-.12-.52-.21-1c0-.14-.21-1.42-.11-.58-.09-.75-.15-1.51-.18-2.27s0-1.52,0-2.28c0-.4.07-.81.1-1.21s0-.41,0,0c0-.2.06-.41.1-.61l-4.25,2.41a78.06,78.06,0,0,0,41.62-1.74,3.45,3.45,0,0,0-1.83-6.65Z" transform="translate(-309.43 -447.03)"/><path class="am" d="M2288.47,2549.41l-25.09.36-329.61,4.73-364.28-61.25c22.76-175.39,230-181,230-181s284.6,11.14,364.28,8.36c65.17-2.29,130.33,23.35,161.88,84.55a170.66,170.66,0,0,1,15.71,46.29C2359.53,2546.15,2288.47,2549.41,2288.47,2549.41Z" transform="translate(-309.43 -447.03)"/><path class="an" d="M2288.47,2549.41l-25.09.36-26.8-31.46L2219,2386.1s56.69-18.82,106.57,19.1a170.66,170.66,0,0,1,15.71,46.29C2359.53,2546.15,2288.47,2549.41,2288.47,2549.41Z" transform="translate(-309.43 -447.03)"/><path class="al" d="M2298.89,2537.8c-11.66,9.29-28.13,16.42-41.06,22.27l-287.63,16.7-29.83-72.1s19.38-11.11,48.93-26.59c77.27-40.45,224.19-110.75,276.88-90.62C2323.71,2409.45,2347.09,2499.35,2298.89,2537.8Z" transform="translate(-309.43 -447.03)"/><path class="al" d="M2298,2537.27c-8.18,12.47-27.25,16.95-40.18,22.8l-287.63,16.7-29.83-72.1s19.38-11.11,48.93-26.59C2046,2499.32,2151,2530,2298,2537.27Z" transform="translate(-309.43 -447.03)"/><path class="al" d="M2279,2628.33a22.34,22.34,0,0,1-1,6.74,22.9,22.9,0,0,1-29.17,15l-19.49-6.48-219.94-36.19-.44-.31v.31H1651.45s-94.71-22.28-80.15-114.2c8.4-53,48.19-90,92.31-87.92,50.7,2.42,140.9,24.33,293.29,108.38h0q24.88,13.74,52,29.7v.06l.44-.06,32.16-21.4a72.31,72.31,0,0,1,51.42-11.22l1.39.22a72.23,72.23,0,0,1,41.9,22.52l19.29,21,77.73,27.14a50.41,50.41,0,0,1,17.71,10.67l20.68,19.21A22.83,22.83,0,0,1,2279,2628.33Z" transform="translate(-309.43 -447.03)"/><path class="ao" d="M2279,2628.33a22.34,22.34,0,0,1-1,6.74,22.9,22.9,0,0,1-29.17,15l-19.49-6.48-219.94-36.19-.44-.31v.31h-56.29c8.85-32.63,4.28-93.74,4.28-93.74h0q24.88,13.74,52,29.7v.06l.44-.06,32.16-21.4a72.31,72.31,0,0,1,51.42-11.22l1.39.22a72.23,72.23,0,0,1,41.9,22.52l19.29,21,77.73,27.14a50.41,50.41,0,0,1,17.71,10.67l20.68,19.21A22.83,22.83,0,0,1,2279,2628.33Z" transform="translate(-309.43 -447.03)"/><path class="ap" d="M2088.76,2359c-16.59,11.28-40.28,22.87-73.85,34.05-70.55,23.54-146,12.69-206.26-5.41,0,0,0,0,0,0-68.07-20.48-116.63-50.25-116.63-50.25q-1.54-13-2.67-26c-13.38-154.07,16.59-291.42,16.59-291.42L1800,2063.1l15.21,7,222,101.79,2.72,1.23,10.69,15.28,61.92,88.46,5.33,7.64S2146.5,2319.75,2088.76,2359Z" transform="translate(-309.43 -447.03)"/><path class="al" d="M2320.73,1522.73s101.75-91.36,110.57-82.76c10.28,10-47.62,56.49-47.62,56.49s13.44,9.86,14.49,15.1c0,0-4-3.56,5.67,6.51s3.59,23.29,3.59,23.29,7.76,3.35-1.25,18.26-52.45,37.81-52.45,37.81l-25.82-.83Z" transform="translate(-309.43 -447.03)"/><polygon class="al" points="1947.69 1244.44 1989.99 1142.2 2044.97 1150.86 2025.65 1286.2 1947.69 1244.44"/><path class="al" d="M2324.59,1613.43l-25.24-20.56-6.93-48.32,20.22-40.83,35.35-35.57s14.23,6,1.15,25.6c-7.43,11.13-21.82,26.36-21.82,26.36S2365.73,1552.56,2324.59,1613.43Z" transform="translate(-309.43 -447.03)"/><path class="aq" d="M2337.87,1730.45s.51,280.32-241.32,340.85c-2.13.54-4.28,1-6.46,1.57l-103-225.5,156.43-11.95a36.79,36.79,0,0,0,27.76-16.25L2258,1689l67.76,35.18Z" transform="translate(-309.43 -447.03)"/><path class="ar" d="M2088.76,2359a150.82,150.82,0,0,1-10.85,16.93,331.57,331.57,0,0,1-27.69,32.61l-35.31,9.59-200.44-8.36c-6.67-.31-11.13-5.28-11.13-12a13.15,13.15,0,0,1,5.28-10.16c-68.07-20.48-116.63-50.25-116.63-50.25s-10.31-4.44-23.82-15l21.15-11,15.57-8.11,78.71-41,6.92-16.64.18-.46,5.23-12.59,0,0s70,91.89,216,83.38q8.19-.47,16.69-1.38c1-.13,2.1-.23,3.16-.36,28.74-3.36,46.22-1,55.58,5.07C2099.83,2327.39,2097.83,2342.15,2088.76,2359Z" transform="translate(-309.43 -447.03)"/><path class="aq" d="M2117.93,2317.87l-30.56,1.41-60,2.75-16.58.74-47.18,2.15-252.37,11.57-19.2.87s-10.31-4.44-23.82-15c-38-29.53-101.3-107-31.87-269,25-58.34,60.4-113.28,110.35-153.29,27.42-21.95,68.27-33.49,101.77-42.89,41.68-11.7,89.93-22.13,132.91-16.09,26.4,3.71,74-1.68,92.07,23,13.13,17.89,17.82,121.37,24.92,236.65,3.64,58.89,7.92,120.86,14.28,176.09C2114.22,2291,2116,2304.75,2117.93,2317.87Z" transform="translate(-309.43 -447.03)"/><path class="as" d="M1742.58,1926.41s97.42,76.92,66.66,187.17-5.13,143.58-5.13,143.58l-33.33-28.2" transform="translate(-309.43 -447.03)"/><polygon class="at" points="1507.83 1937.64 1715.12 1890.87 1705.49 1946 1507.83 1937.64"/><polygon class="au" points="1961.62 1876.4 1961.62 1901.45 1740.79 1961.48 1705.48 1971.07 1705.48 1945.99 1768.48 1928.86 1961.62 1876.4"/><polygon class="av" points="1705.49 1946 1755.6 1659.25 2006.16 1617.49 1961.61 1876.4 1705.49 1946"/><path class="aw" d="M2014.91,2393v25.08l-200.44-8.36c-6.67-.31-11.13-5.28-11.13-12a13.15,13.15,0,0,1,5.28-10.16s0,0,0,0a13.15,13.15,0,0,1,8.07-2.92h.54l138.56,5.84,18.46.77Z" transform="translate(-309.43 -447.03)"/><polygon class="aw" points="1738.9 1662.03 1755.6 1659.25 1705.49 1946 1689.13 1945.07 1738.9 1662.03"/><path class="al" d="M1711.47,2337.35s-36.19-100.22,58.46-108.58l105.79,83.52s64.26-15,109.5,28.8-22.58,52.8-22.58,52.8L1912.05,2369s-26.75,4.23-40.63,2a70.89,70.89,0,0,1-24.61-9.13Z" transform="translate(-309.43 -447.03)"/><path class="ax" d="M2009.35,2543.36c-13-7.33-88.44-49-88.44-49" transform="translate(-309.43 -447.03)"/><path class="as" d="M2038.91,1846.05s71.33-33.41,58,231.1" transform="translate(-309.43 -447.03)"/></g></svg>