<svg xmlns="http://www.w3.org/2000/svg" xmlns:xlink="http://www.w3.org/1999/xlink" viewBox="0 0 3631.83 3030.24"><defs><style>.a{isolation:isolate;}.b{fill:#c0bfbf;}.c{fill:#5b5a5c;}.d{fill:#f0f0ee;}.e{fill:#322f33;}.f{fill:#68e5f2;}.g{fill:#929192;}.h{fill:#84e3ef;}.i{fill:#b6e7ff;}.j{fill:#373438;}.k{fill:#211f22;}.l{fill:#555356;}.m{fill:#247c5c;}.af,.ap,.m,.n,.o,.p{fill-rule:evenodd;}.n{fill:#0e2d34;}.o{fill:#1b7154;}.p{fill:#1f7757;}.q{fill:#932b2b;}.r{fill:#d44945;}.s{fill:#fcd65b;}.t{fill:#ffa79b;}.al,.ap,.u{fill:none;}.ap,.u{stroke:#000;}.al,.u{stroke-linecap:round;stroke-linejoin:round;}.u{stroke-width:10px;}.v,.w,.x{opacity:0.55;}.v,.w,.x,.y{mix-blend-mode:multiply;}.v{fill:url(#a);}.w{fill:url(#b);}.x{fill:url(#c);}.y{opacity:0.5;fill:url(#d);}.z{fill:#606060;}.aa{fill:#444;}.ab{fill:#303030;}.ac{fill:#7c7c7c;}.ad,.af{fill:#fff;}.ae{fill:#1487e3;}.ag{fill:#aa9af4;}.ah{fill:#f37e3f;}.ai{fill:#9edc6f;}.aj{fill:#f95d84;}.ak{fill:#76d9e4;}.al{stroke:#202d45;stroke-width:5.22px;}.am{fill:#4878ea;}.an{fill:#2d2a2e;}.ao{fill:#403e41;}.ap{stroke-miterlimit:10;stroke-width:7.32px;}</style><linearGradient id="a" x1="2791.8" y1="2675.75" x2="2135.81" y2="2689.67" gradientUnits="userSpaceOnUse"><stop offset="0" stop-color="#ffcf3d"/><stop offset="1" stop-color="#f15a24"/></linearGradient><linearGradient id="b" x1="2219.95" y1="2491.25" x2="2487.48" y2="2491.25" xlink:href="#a"/><linearGradient id="c" x1="2527.67" y1="2421.18" x2="2260.46" y2="2426.84" xlink:href="#a"/><linearGradient id="d" x1="2223.18" y1="2496.74" x2="1459.7" y2="2512.93" xlink:href="#a"/></defs><g class="a"><path class="b" d="M3919.86,598.13V1887.57H972.11V770.85q0-11.42.85-22.66c.27-3.75.61-7.49,1.06-11.21.21-1.87.45-3.72.7-5.59C988.41,625.63,1057.83,533,1160,488.23c39.46-17.3,84.72-36,135.39-55.34,5.78-2.19,11.61-4.41,17.54-6.63q15.33-5.76,31.29-11.56c4.72-1.73,9.47-3.43,14.27-5.16,496.23-177.67,1420.29-374.16,2473.9,59.95,52.4,21.59,86.54,71.11,87.47,126C3919.86,596.38,3919.86,597.27,3919.86,598.13Z" transform="translate(-500.76 109.82)"/><path class="c" d="M3919.86,598.13V1887.57h-497V571.67c0-35.77,30-64.76,67-64.76h335.53c51.25,0,92.94,39.43,94.39,88.6C3919.86,596.38,3919.86,597.27,3919.86,598.13Z" transform="translate(-500.76 109.82)"/><rect class="d" x="3297.09" y="749.76" width="76.53" height="136.39"/><rect class="d" x="3294.95" y="962.95" width="76.53" height="136.39"/><rect class="d" x="3296.02" y="1176.14" width="76.53" height="136.38"/><rect class="d" x="3293.88" y="1389.33" width="76.53" height="136.39"/><rect class="d" x="3296.02" y="1602.52" width="76.53" height="136.39"/><rect class="d" x="3293.88" y="1815.72" width="76.53" height="136.39"/><rect class="d" x="3152.54" y="749.76" width="76.53" height="136.39"/><rect class="d" x="3150.4" y="962.95" width="76.53" height="136.39"/><rect class="d" x="3151.47" y="1176.14" width="76.53" height="136.38"/><rect class="d" x="3149.33" y="1389.33" width="76.53" height="136.39"/><rect class="d" x="3151.47" y="1602.52" width="76.53" height="136.39"/><rect class="d" x="3149.33" y="1815.72" width="76.53" height="136.39"/><path class="e" d="M3488.44,506.9h55.29v985.8H3422.9V570.24C3422.9,535.26,3452.24,506.9,3488.44,506.9Z" transform="translate(-500.76 109.82)"/><path class="f" d="M1800.35,1510.12a26.48,26.48,0,0,0-26.3-25.88h-93.9a18.38,18.38,0,0,0-18.26,18.5v123.32h-83.61v-1.65h-89.62v-72.27a23.57,23.57,0,0,0-23.42-23.73h-83.61a16.38,16.38,0,0,0-16.27,16.48v91.72h-75.24a23.58,23.58,0,0,0-23.43,23.73v227.23h222V1887H1610.8l4.46.55h185.1V1510.89C1800.36,1510.64,1800.36,1510.38,1800.35,1510.12Z" transform="translate(-500.76 109.82)"/><path class="d" d="M2838.41,1119c-.87-29.25-25.67-52.7-56.15-52.7H2581.8c-21.53,0-39,16.87-39,37.68v251.1H2364.3v-3.37H2173V1204.56c0-26.7-22.39-48.32-50-48.32h-178.5c-19.18,0-34.72,15-34.72,33.55v186.78H1749.07c-27.62,0-50,21.62-50,48.32v462.69H2173v-1.13h260.77l9.51,1.13h395.18v-767C2838.43,1120.05,2838.43,1119.52,2838.41,1119Z" transform="translate(-500.76 109.82)"/><path class="c" d="M2801.15,739.34V1887.57H2358.62V715.76c0-31.85,26.7-57.64,59.66-57.64h298.79C2763.51,658.12,2801.15,694.46,2801.15,739.34Z" transform="translate(-500.76 109.82)"/><rect class="d" x="2191.74" y="886.39" width="68.15" height="121.45"/><rect class="d" x="2189.83" y="1076.24" width="68.15" height="121.45"/><rect class="d" x="2190.79" y="1266.08" width="68.15" height="121.45"/><rect class="d" x="2188.88" y="1455.92" width="68.15" height="121.45"/><rect class="d" x="2190.79" y="1645.77" width="68.15" height="121.45"/><rect class="d" x="2188.88" y="1835.61" width="68.15" height="121.45"/><rect class="d" x="2063.02" y="886.39" width="68.15" height="121.45"/><rect class="d" x="2061.11" y="1076.24" width="68.15" height="121.45"/><rect class="d" x="2062.07" y="1266.08" width="68.15" height="121.45"/><rect class="d" x="2060.16" y="1455.92" width="68.15" height="121.45"/><rect class="d" x="2062.07" y="1645.77" width="68.15" height="121.45"/><rect class="d" x="2060.16" y="1835.61" width="68.15" height="121.45"/><path class="g" d="M2404.39,858.76c40.54,0,43.09-58.55,2.64-61.16-1.45-.09-2.91-.14-4.38-.14a67,67,0,0,0-17.42,2.31c-7-30.47-35.06-53.26-68.68-53.26a72.12,72.12,0,0,0-26.56,5c-5.85-31.84-34.61-56-69.23-56-33.69,0-61.83,22.89-68.72,53.45a72.74,72.74,0,0,0-18.75-2.46c-31.23,0-57.69,19.67-66.88,46.89-.82,0-1.64-.06-2.47-.06a77.78,77.78,0,0,0-33.3,7.41c-30,14.17-19.19,58,14.23,58Z" transform="translate(-500.76 109.82)"/><path class="e" d="M2417,658.1h49.23V1536h-107.6V714.51C2358.61,683.36,2384.74,658.1,2417,658.1Z" transform="translate(-500.76 109.82)"/><rect class="h" x="2044.94" y="1146.96" width="68.15" height="121.45" transform="translate(3657.27 2525.19) rotate(-180)"/><rect class="h" x="2046.85" y="1336.8" width="68.15" height="121.45" transform="translate(3661.08 2904.88) rotate(-180)"/><rect class="h" x="2045.89" y="1526.65" width="68.15" height="121.45" transform="translate(3659.17 3284.57) rotate(-180)"/><rect class="h" x="2047.8" y="1716.49" width="68.15" height="121.45" transform="translate(3662.99 3664.25) rotate(-180)"/><rect class="h" x="2173.66" y="1146.96" width="68.15" height="121.45" transform="translate(3914.71 2525.19) rotate(-180)"/><rect class="h" x="2175.57" y="1336.8" width="68.15" height="121.45" transform="translate(3918.53 2904.88) rotate(-180)"/><rect class="h" x="2174.62" y="1526.65" width="68.15" height="121.45" transform="translate(3916.62 3284.57) rotate(-180)"/><rect class="h" x="2176.52" y="1716.49" width="68.15" height="121.45" transform="translate(3920.43 3664.25) rotate(-180)"/><polygon class="c" points="3142.87 1393.3 3142.87 1997.39 2754.76 1997.39 2738.77 1995.49 2259.69 1938.42 2259.69 1460.89 2225.86 1460.89 2225.86 1393.3 3142.87 1393.3"/><polygon class="i" points="2223.48 1387.66 2223.48 1456.97 2257.7 1456.97 2257.7 1995.49 2809.38 1995.49 2809.38 1387.66 2223.48 1387.66"/><path class="d" d="M3237.67,1447.14a16.45,16.45,0,0,1-5,11.76,17.58,17.58,0,0,1-12.16,4.87H2760.83v-33.25h459.64C3229.93,1430.52,3237.67,1438,3237.67,1447.14Z" transform="translate(-500.76 109.82)"/><path class="d" d="M3237.67,1550.52a16.38,16.38,0,0,1-5,11.75,17.53,17.53,0,0,1-12.16,4.87H2760.83v-33.27h459.64C3229.93,1533.87,3237.67,1541.37,3237.67,1550.52Z" transform="translate(-500.76 109.82)"/><path class="d" d="M3237.67,1666.79a16.4,16.4,0,0,1-5,11.76,17.58,17.58,0,0,1-12.16,4.87H2760.83v-33.25h459.64C3229.93,1650.17,3237.67,1657.65,3237.67,1666.79Z" transform="translate(-500.76 109.82)"/><path class="d" d="M3237.67,1770.17a16.41,16.41,0,0,1-5,11.75,17.53,17.53,0,0,1-12.16,4.87H2760.83v-33.25h459.64C3229.93,1753.54,3237.67,1761,3237.67,1770.17Z" transform="translate(-500.76 109.82)"/><path class="g" d="M3207.45,613.76c53,0,56.37-76.6,3.45-80q-2.85-.18-5.73-.18a87.78,87.78,0,0,0-22.8,3c-9.1-39.86-45.86-69.69-89.84-69.69a94.51,94.51,0,0,0-34.75,6.58c-7.66-41.64-45.29-73.28-90.58-73.28-44.08,0-80.89,29.95-89.91,69.93a94.76,94.76,0,0,0-24.53-3.23c-40.86,0-75.48,25.74-87.49,61.35-1.08,0-2.16-.08-3.24-.08a101.78,101.78,0,0,0-43.56,9.7c-39.29,18.55-25.11,75.9,18.61,75.9Z" transform="translate(-500.76 109.82)"/><path class="g" d="M3919.86,872.43v183.66H3654.43c-40.83,0-54.07-53.56-17.39-70.91a95.45,95.45,0,0,1,40.72-9c1,0,2,0,3,.08,11.22-33.27,43.56-57.31,81.72-57.31a89.43,89.43,0,0,1,22.91,3c8.43-37.33,42.83-65.32,84-65.32A87.49,87.49,0,0,1,3919.86,872.43Z" transform="translate(-500.76 109.82)"/><path class="g" d="M1477.43,1148c62.08,0,66-89.66,4-93.65-2.22-.15-4.45-.22-6.71-.22a102.28,102.28,0,0,0-26.67,3.54c-10.66-46.66-53.68-81.57-105.16-81.57a110.51,110.51,0,0,0-40.68,7.71c-9-48.75-53-85.78-106-85.78-51.58,0-94.67,35.05-105.22,81.84a111.22,111.22,0,0,0-28.71-3.77c-47.83,0-88.35,30.13-102.41,71.81-1.26,0-2.52-.09-3.79-.09a119.16,119.16,0,0,0-51,11.34c-46,21.71-29.38,88.84,21.79,88.84Z" transform="translate(-500.76 109.82)"/><path class="j" d="M1215.19,624.73V1890.31H972.11V770.84c0-121.64,73.38-232.23,187.85-282.45,37.22-16.35,79.61-34,126.81-52.2q34.2-13.15,71.71-26.65h.08C1213.72,493.5,1215.19,624.73,1215.19,624.73Z" transform="translate(-500.76 109.82)"/><path class="k" d="M1182.88,624.73V1890.31H972.11V770.84c0-121.64,73.38-232.23,187.85-282.45,37.22-16.35,79.61-34,126.81-52.2C1181.7,518.62,1182.88,624.73,1182.88,624.73Z" transform="translate(-500.76 109.82)"/><path class="k" d="M2875.22,2532.75h1103.1a41,41,0,0,0,41-41v-564.1H2981.83Z" transform="translate(-500.76 109.82)"/><polygon class="l" points="439.28 2642.57 3405.22 2642.57 3405.22 2037.5 444.31 2037.5 439.28 2642.57"/><rect class="k" x="348.89" y="1914.02" width="3282.94" height="190.83" rx="85.4"/><path class="g" d="M3995.76,2525.3c13.9,0,19.88,17.64,8.85,26.09h0A1481.23,1481.23,0,0,1,3270,2848.14c-92,10.47-196.59,21.17-311.18,31-309.24,26.63-691.39,47.08-1096.88,39.72-700.15-12.73-1116.77-113.49-1298.86-170.59q-25.86-8.1-45.42-14.91c-22.33-7.69-22.57-39.21-.38-47.29L958.45,2525.3Z" transform="translate(-500.76 109.82)"/><path class="m" d="M3683.9,1793.62c-50.87,57.86-186.75,176.24-317.65,301.12l-149,74-38.62-91.79c92.66-183.38,221.14-374.18,339-476.11C3724.26,1422,3862.4,1590.57,3683.9,1793.62Z" transform="translate(-500.76 109.82)"/><path class="n" d="M3215.32,2164.16c152.39-299.45,467.53-558.86,468.67-559.81a4.87,4.87,0,0,1,7.17,1,5.8,5.8,0,0,1-1,7.72c-1.13.94-311.23,256.23-463.24,550.87l-9.71,4.81Z" transform="translate(-500.76 109.82)"/><path class="o" d="M3197.54,1307.42c-7.06,80.29-.81,262.94-.41,453.52,41.38,66.5,61.14,253.17,133.37,278.82,63.29-196.89,149.58-552.41,142.85-713.25C3460.19,1011.7,3224.45,1001.73,3197.54,1307.42Z" transform="translate(-500.76 109.82)"/><path class="n" d="M3293.82,1861.93c76.21-323.83,52.82-684.75,52.73-686.25a6.17,6.17,0,0,0-6.09-6,5.7,5.7,0,0,0-5.35,6.27c.08,1.5,23.18,358.25-51.37,678.73C3287.06,1857.19,3290.42,1859.6,3293.82,1861.93Z" transform="translate(-500.76 109.82)"/><path class="p" d="M3233.3,1473.21c18.69,74.73,68.87,387.87,97.2,566.55l-53.87,30.6-97.49-20.4c-98.2-180.47-182.13-394.65-199-549.51C2950.47,1228.75,3167.71,1210.94,3233.3,1473.21Z" transform="translate(-500.76 109.82)"/><path class="n" d="M3271.81,2069.35c-159.75-295.58-194-702.32-194.18-703.8a4.87,4.87,0,0,1,4.87-5.36,5.8,5.8,0,0,1,5.79,5.2c.13,1.47,33.89,401.7,189.89,694.25l-1.55,10.72Z" transform="translate(-500.76 109.82)"/><path class="q" d="M3598.65,2069v20.7c0,8.77-10.51,15.86-23.5,15.86H2991.33V2069c0-21.08,25.34-38.2,56.59-38.2h494.15C3573.31,2030.81,3598.65,2047.93,3598.65,2069Z" transform="translate(-500.76 109.82)"/><path class="r" d="M3568.83,2105.57l-5.48,31.6-73,421h-3.7c-17.48,12.12-95.44,21.28-189,21.28-39.3,0-75.86-1.62-106.33-4.39-9-.84-17.5-1.74-25.37-2.74-37.56-4.84-61-11.7-61-19.31,0-1.77,1.32-3.52,3.71-5.19l-81.89-442.28Z" transform="translate(-500.76 109.82)"/><path class="e" d="M3128.54,2219.46c-.06,1.74-.09,3.47-.18,5.21-.21,6.11-.5,12.17-.86,18.13-.21,3.82-.48,7.64-.78,11.41-.18,2.29-.35,4.58-.56,6.85-.21,2.76-.45,5.52-.75,8.26-.27,3-.6,5.93-.92,8.87a2.12,2.12,0,0,1,0,.44q-.59,5.29-1.26,10.5c-.06.56-.15,1.12-.23,1.67-.36,2.88-.75,5.77-1.17,8.59-.44,3.38-1,6.7-1.52,10-.24,1.59-.47,3.15-.77,4.7-.36,2.21-.72,4.38-1.11,6.56-.23,1.26-.44,2.53-.71,3.79-.36,2-.75,4.09-1.14,6.09-.29,1.58-.62,3.17-1,4.73-.36,1.91-.77,3.82-1.19,5.73-.15.79-.3,1.56-.51,2.35-.6,2.82-1.22,5.62-1.91,8.41a10.45,10.45,0,0,1-.3,1.32c-.68,2.85-1.37,5.7-2.08,8.5a2.45,2.45,0,0,1-.18.67c-.72,2.85-1.46,5.65-2.21,8.44-.24.88-.48,1.76-.74,2.61-.69,2.56-1.4,5.09-2.18,7.59a.48.48,0,0,1-.09.29c-.86,3.09-1.82,6.15-2.77,9.17-.78,2.53-1.58,5-2.42,7.5-.48,1.53-1,3-1.52,4.53-.39,1.2-.8,2.41-1.25,3.58-.51,1.59-1.07,3.15-1.67,4.7-.66,1.83-1.31,3.65-2,5.44-.3.86-.59,1.68-1,2.5-.63,1.68-1.26,3.35-1.94,5s-1.22,3.11-1.85,4.67c-.45,1.15-.92,2.27-1.4,3.38-.72,1.8-1.46,3.56-2.24,5.32q-1.38,3.22-2.8,6.41-1.56,3.52-3.16,7c-.18.35-.33.67-.51,1-1.19,2.52-2.38,5-3.61,7.52-1.31,2.65-2.62,5.26-4,7.88s-2.69,5.14-4.06,7.67-2.77,5.06-4.17,7.56-2.83,5-4.3,7.4-2.89,4.85-4.38,7.23-2.95,4.77-4.47,7.09c-1.22,1.91-2.48,3.82-3.7,5.67-1.85,2.73-3.67,5.44-5.54,8.08-1.55,2.24-3.14,4.41-4.72,6.59s-3.25,4.41-4.92,6.61c-1.28,1.68-2.56,3.35-3.87,5q-5.46,7-11.15,13.67c-1.58,1.85-3.16,3.67-4.77,5.46-2.18,2.5-4.39,5-6.62,7.38q-4.74,5.16-9.58,10.06c-2.08,2.08-4.17,4.17-6.29,6.23-3.25,3.2-6.56,6.32-9.87,9.34-.18.15-.38.33-.59.53-1.85,1.71-3.73,3.38-5.64,5.06s-3.82,3.35-5.78,5c-3.4,2.94-6.83,5.76-10.29,8.52-.93.74-1.85,1.47-2.77,2.18-1.41,1.11-2.81,2.23-4.21,3.29-2,1.53-3.93,3-5.9,4.47s-4.18,3.08-6.26,4.61q-8.73,6.32-17.63,12.08c-2.2,1.41-4.44,2.85-6.65,4.24-1.81,1.17-3.63,2.29-5.42,3.41a.15.15,0,0,0-.12,0c-2,1.24-4.06,2.44-6.05,3.65s-4.09,2.41-6.15,3.59-4.08,2.32-6.14,3.46-4.11,2.27-6.17,3.38-4.12,2.21-6.17,3.27-4.12,2.14-6.18,3.17-4.11,2.06-6.2,3.09c-1.91.94-3.85,1.85-5.75,2.76l-6.62,3.09c-2.06.94-4.15,1.88-6.21,2.79s-4.11,1.82-6.17,2.7q-9.3,4-18.51,7.59c-2.06.82-4.12,1.59-6.18,2.38s-4.08,1.53-6.11,2.26-3.94,1.44-5.9,2.15c-6.38,2.23-12.77,4.38-19.09,6.41-3.75,1.17-7.51,2.35-11.21,3.47l-12,3.46c-3.82,1-7.61,2.06-11.37,3.06s-7.72,2-11.54,2.91c-10.94,2.65-21.55,5-31.75,7l-1.1.2c-1.76.36-3.52.68-5.25,1-3.49.68-6.89,1.3-10.26,1.88-1.7.3-3.37.56-5,.86q-6.53,1.1-12.73,2-5.64.84-11,1.59c-6,.82-11.81,1.56-17.3,2.18-1.37.14-2.71.32-4.05.47s-2.66.29-3.94.41c-3.16.35-6.17.65-9.09.94-5.43.53-10.44,1-15,1.32-1.31.12-2.6.21-3.82.33-.95.08-1.85.14-2.74.2-1.61.15-3.19.27-4.65.35-1.76.12-3.37.27-4.89.39-.69.05-1.38.11-2,.14l-3.31.27c-1.85.14-3.43.29-4.71.44-2.06.2-4.12.38-6.18.56-.53,0-1.1.09-1.66.11l-1.11.09c-.56,0-1.16.06-1.79.12-2.11.12-4.56.29-7.39.47-13.84.91-36.2,2.32-65.36,4-203.66,11.67-739.52,36.59-1029.29-5.06q-29.51-4.23-55.4-9.23c-221-42.3-250.5-120.6-250.62-159.2-.06-23.34-4.11-46.47-10.79-68.84-53.64-179.78-57.76-324.46-31.64-440.74q3.22-14.25,7-27.93v0c20.55-74.07,53.7-135.92,93.93-187.51,0,0,.21-.26.59-.79s.9-1.15,1.35-1.7a11.89,11.89,0,0,1,1-1.21c.39-.47.74-.94,1.13-1.41.63-.76,1.31-1.62,2.06-2.53.45-.53.89-1.09,1.4-1.67.84-1.09,1.73-2.15,2.63-3.24,3-3.67,6.08-7.26,9.21-10.81,1.76-2,3.52-4,5.31-6,2-2.29,4.08-4.53,6.14-6.76s4.41-4.7,6.65-7c2.06-2.14,4.14-4.26,6.2-6.38q6.71-6.74,13.57-13.22c2.17-2.06,4.35-4.12,6.56-6.12a1.77,1.77,0,0,0,.24-.23c2.05-1.85,4.11-3.74,6.17-5.56,4.71-4.2,9.48-8.32,14.28-12.31,2.18-1.83,4.35-3.62,6.53-5.38s4.41-3.62,6.65-5.35c1.55-1.24,3.1-2.44,4.65-3.65,12.41-9.64,25-18.69,37.72-27.16,1.4-1,2.83-1.91,4.27-2.82a9.91,9.91,0,0,1,1.07-.71q2.1-1.41,4.2-2.73c1.58-1,3.16-2.06,4.77-3.06s3.19-2,4.78-3l4.8-3c1.58-1,3.19-1.94,4.77-2.88s3.19-1.92,4.8-2.86c1.25-.76,2.53-1.49,3.78-2.23,1.91-1.12,3.85-2.23,5.79-3.32,1.76-1,3.55-2,5.31-3,1.4-.79,2.83-1.59,4.26-2.35,3.19-1.76,6.38-3.5,9.54-5.17,1.58-.86,3.19-1.68,4.77-2.5,3.19-1.68,6.35-3.32,9.51-4.91s6.33-3.15,9.46-4.68c1.58-.79,3.16-1.52,4.71-2.29,8.53-4.08,16.93-8,25.28-11.61,2.42-1.06,4.86-2.12,7.28-3.14l4.56-1.94c1.52-.62,3-1.27,4.53-1.89,2.69-1.11,5.34-2.17,8-3.26,14.64-5.85,28.83-11.08,42.43-15.72,2-.71,4.08-1.39,6.08-2.06,1.37-.47,2.74-.91,4.08-1.35l4.09-1.33c28.3-9.14,53.52-15.69,73.89-20.31,1.82-.44,3.61-.82,5.33-1.2l3.11-.68a258.44,258.44,0,0,0,84-34.36c1-.68,2.09-1.33,3.13-2q19-12,37.84-22.61c2.42-1.35,4.8-2.7,7.22-4,2.23-1.27,4.5-2.47,6.74-3.71q7.43-4,14.79-7.76c2-1.06,4.11-2.09,6.14-3.14,2.74-1.36,5.46-2.68,8.17-4,2.39-1.15,4.74-2.29,7.13-3.41s4.74-2.26,7.09-3.35c3-1.35,5.88-2.71,8.77-4,3.82-1.7,7.6-3.38,11.39-5,5.07-2.17,10.14-4.26,15.18-6.32,2.32-.94,4.68-1.88,7-2.79,5.49-2.14,10.95-4.23,16.37-6.23,3.76-1.38,7.52-2.73,11.25-4l1.49-.53c4.23-1.47,8.43-2.88,12.64-4.23q6.88-2.25,13.75-4.35l6.85-2c2.27-.67,4.57-1.32,6.83-2,6.83-1.91,13.63-3.73,20.37-5.41,2.17-.55,4.32-1.08,6.5-1.61.65-.15,1.31-.3,2-.47,3.34-.8,6.61-1.56,9.92-2.27l4-.88c3.73-.82,7.42-1.58,11.12-2.29,9-1.79,17.8-3.38,26.63-4.76,2.12-.36,4.2-.68,6.32-1s4.35-.65,6.53-.94c2-.3,3.94-.56,5.9-.8,7-.91,13.9-1.7,20.76-2.41,1.88-.17,3.73-.35,5.57-.5,4.66-.44,9.31-.82,13.9-1.14,1.73-.12,3.43-.24,5.13-.33,5.45-.35,10.88-.61,16.28-.82,1.55-.09,3.07-.15,4.59-.18,1.88-.08,3.79-.11,5.67-.17,5.69-.15,11.33-.21,16.9-.21,3.31,0,6.65,0,9.93.09,1.22,0,2.42,0,3.61.06h.89q4.66.09,9.31.26,10.77.36,21.38,1.06c1.22.09,2.44.15,3.63.27.36,0,.72,0,1.05.06,2.89.2,5.78.41,8.65.67,3,.24,6,.53,9.06.82,1,.09,2,.18,3,.3,2.86.26,5.7.59,8.5.91,1.52.15,3,.32,4.5.53a3.68,3.68,0,0,1,.57.06c2.68.32,5.34.64,8,1,6.44.85,12.85,1.79,19.14,2.79,1.7.26,3.4.53,5.07.82.3.06.57.09.84.15,2.47.41,4.92.82,7.36,1.26,6.41,1.15,12.73,2.35,19,3.65,1.64.32,3.25.67,4.89,1,.21,0,.38.06.59.11,5.64,1.21,11.21,2.44,16.7,3.77.6.11,1.16.26,1.73.41,2.8.65,5.61,1.35,8.35,2.06,3.25.79,6.47,1.61,9.63,2.47a1.21,1.21,0,0,1,.18,0q4.88,1.29,9.66,2.65c2.56.71,5.1,1.44,7.6,2.15,3.85,1.11,7.64,2.26,11.36,3.41,2.69.82,5.31,1.64,7.94,2.49q9.89,3.18,19.41,6.47c2.8,1,5.57,2,8.32,3,2.47.88,4.92,1.79,7.36,2.7,1.28.47,2.57.94,3.85,1.44,10.58,4,20.78,8.12,30.53,12.26,2.3,1,4.56,2,6.8,3,20.16,8.79,38.38,17.75,54.42,26.28,1,.53,2,1.09,3,1.62.6.32,1.22.64,1.82,1,49.2,26.6,76.93,48.53,76.93,48.53a715.46,715.46,0,0,1,89.09-20.58c1.85-.29,3.67-.59,5.52-.85,1.43-.24,2.86-.44,4.29-.65q6-.84,12-1.59l4.44-.53,6.15-.67c1.73-.18,3.48-.35,5.21-.5.9-.09,1.82-.18,2.72-.24,1.25-.11,2.53-.23,3.78-.32,181-14.55,269.95,74.63,311.66,145.53,15.3,26,30.33,53.56,40.17,72a254.56,254.56,0,0,1,18.75,44.89c1.43,4.67,2.86,9.31,4.26,14,2.78,9.26,5.46,18.4,8.06,27.48,1.28,4.53,2.53,9,3.78,13.52s2.42,8.85,3.61,13.26c0,.09.06.21.09.3,1.16,4.38,2.33,8.75,3.43,13.08,2.21,8.43,4.29,16.81,6.32,25.07q1.83,7.62,3.58,15.11c.89,3.82,1.76,7.61,2.59,11.4,1,4.21,1.88,8.41,2.78,12.55q1.78,8.21,3.39,16.26c.54,2.62,1.05,5.2,1.56,7.79.14.62.26,1.23.38,1.85.72,3.68,1.4,7.32,2.09,11,.81,4.2,1.58,8.4,2.3,12.55.68,3.79,1.34,7.58,2,11.34.57,3.18,1.08,6.35,1.58,9.5s1,6.26,1.47,9.35c1,6.49,1.93,12.9,2.8,19.28.36,2.7.71,5.38,1.07,8.08.72,5.35,1.34,10.64,1.94,15.87q.4,3.22.72,6.44,1.83,16.58,3.07,32.54c.41,5.29.77,10.58,1.07,15.79.15,1.76.24,3.49.33,5.26Q3129.68,2183.89,3128.54,2219.46Z" transform="translate(-500.76 109.82)"/><path d="M2629.7,1977c-1.25-4.18,9.78-71,128.43-124,0,0-139.58,38.72-129.68,119.78" transform="translate(-500.76 109.82)"/><path d="M2699.13,2313.21s84.75-42,143-26.52c0,0-90.86,2.69-132.74,33.9" transform="translate(-500.76 109.82)"/><path d="M1719,1908.1s-27.67-111.37-102.67-186.41C1616.34,1721.69,1693,1830.77,1719,1908.1Z" transform="translate(-500.76 109.82)"/><path d="M1622.5,2146.54s-67.72-99.32-141.6-120.28c0,0,126.49,93.8,141.6,134.63" transform="translate(-500.76 109.82)"/><path class="k" d="M1417,2721.82l-1,1.17C1115.09,2665.38,1169.15,2541,1169.15,2541c-67.3-201.35-74.54-360.76-46.22-486.83q3.22-14.25,7-27.93C1129.85,2032.28,1122.19,2652.15,1417,2721.82Z" transform="translate(-500.76 109.82)"/><path class="s" d="M2208.08,2798.86c-128.89,25.78-332.94-21.63-332.94-21.63l39.07-10.13,37.29-94.78c56.23,12.89,205-26.93,205-26.93l39.64,118Z" transform="translate(-500.76 109.82)"/><path class="s" d="M2271.72,2807.05l-62.62-6s-223.63,6-265.37,20.87-110.33,26.84-89.46-8.94,104.36-77.53,104.36-77.53l167-56.65L2233,2750.39Z" transform="translate(-500.76 109.82)"/><path class="s" d="M1976.11,2579.6s88.74-64.68,114.22-105h279.41v101.11l-318.07,103.68Z" transform="translate(-500.76 109.82)"/><path class="t" d="M1752.89,1951.27,1660.46,1990s-56.66,92.43,0,143.12,229.59,14.91,229.59,14.91l-107.34-83.49Z" transform="translate(-500.76 109.82)"/><path d="M1841.67,1230.94s-210.11,40-217.76-174.25,142.5-315,282.85-282.33,117.38,182.13,117.38,182.13,66.78-100.91,143.76-48.2,45.08,117.3,45.08,117.3,107.25-103.38,180.74-36c85.8,78.61-19.13,157.62-19.13,157.62s81.66,40.59,79.11,101.21-28.93,92.9-28.93,92.9,147.59-40.1,201.18,73.18-148.87,169.44-148.87,169.44L2230.39,1700.6l-216-412.71Z" transform="translate(-500.76 109.82)"/><path class="s" d="M2136,1385.08l116.53,202.33-167.24,199.67-145.79-289.25-108.35,10.24a81.91,81.91,0,0,1-89-91.13l40-339.78s162,210.51,246.25,190.48,65.92-80.69,65.92-80.69,166.73.35,150.14,97.31S2136,1385.08,2136,1385.08Z" transform="translate(-500.76 109.82)"/><path d="M1816.1,1258.5a73.06,73.06,0,0,1,1.48,7.64l-.23-1.71a74.7,74.7,0,0,1,0,19.76l.23-1.7a75.82,75.82,0,0,1-4.66,17.77l-.41,1c.72-1.81.28-.65.09-.23-.33.76-.67,1.51-1,2.25-.66,1.38-1.37,2.75-2.12,4.08a69.75,69.75,0,0,1-5,7.71,5.91,5.91,0,0,0-.76,4.09,6.93,6.93,0,0,0,1.76,3.67,64.47,64.47,0,0,0,30.23,20.26,6.46,6.46,0,0,0,7.88-4.47,6.56,6.56,0,0,0-4.47-7.88c-1.35-.43-2.69-.9-4-1.43-.44-.17-1.5-.74.22.11-.26-.13-.54-.24-.81-.36-.59-.26-1.18-.54-1.76-.82a58.33,58.33,0,0,1-7.18-4.17q-.81-.54-1.59-1.11l-.85-.64c-1-.78,1.19,1,.18.14s-2.09-1.73-3.09-2.64a59.12,59.12,0,0,1-5.7-6l1,7.76a79.77,79.77,0,0,0,15.26-50.75,80.61,80.61,0,0,0-2.29-15.68,6.47,6.47,0,0,0-7.88-4.47,6.54,6.54,0,0,0-4.47,7.88Z" transform="translate(-500.76 109.82)"/><path d="M1834.12,1408.2a74.8,74.8,0,0,0,42.68,10.49,81.78,81.78,0,0,0,41.82-13.75,74.2,74.2,0,0,0,18.61-18.25,6.4,6.4,0,0,0-2.3-8.77c-3.3-1.74-6.68-.62-8.76,2.3-.28.4-.57.8-.86,1.19l-.36.47c-.58.77.47-.6.47-.6a16.76,16.76,0,0,1-1.86,2.27q-1.82,2.1-3.8,4t-4.13,3.7c-.37.31-.75.61-1.13.91s-1,.69.6-.46l-.46.35c-.78.59-1.57,1.15-2.37,1.71a71.53,71.53,0,0,1-9.6,5.56c-.79.38-1.59.74-2.39,1.1-1.51.66,1.43-.59-.09,0l-1.36.54q-2.6,1-5.27,1.82a77.43,77.43,0,0,1-12.33,2.68l1.7-.22a75.89,75.89,0,0,1-19.86,0l1.7.23a69.17,69.17,0,0,1-13.17-3.13c-1.06-.36-2.11-.76-3.15-1.18-.45-.18-1.46-.65.46.2l-.81-.35c-.49-.21-1-.44-1.46-.67a63.21,63.21,0,0,1-6.06-3.28,6.46,6.46,0,0,0-8.76,2.29,6.55,6.55,0,0,0,2.3,8.77Z" transform="translate(-500.76 109.82)"/><path d="M1944.8,1492.76l50.52-7.56,14.25-2.14a6.39,6.39,0,0,0,3.83-2.94,6.55,6.55,0,0,0,.64-4.94,6.45,6.45,0,0,0-2.94-3.82,7.42,7.42,0,0,0-4.93-.65l-50.53,7.57-14.25,2.13a6.4,6.4,0,0,0-3.83,2.95,6.41,6.41,0,0,0,2.3,8.76,7.5,7.5,0,0,0,4.94.64Z" transform="translate(-500.76 109.82)"/><path class="u" d="M2189.57,1311.47s-70.16-1.33-72.35,49.24-17.8-91.89,51.16-106.16" transform="translate(-500.76 109.82)"/><path class="t" d="M2627.85,1942.69c-17.66-60-39-123.58-60.93-167.34-77.68-155.35-202.76-190.84-310.11-220.65,0,0-19.41,70.93-120,102.55-99.81,25.67-170-49.83-170-49.83-121.84,66.78-306.94,383.09-306.94,383.09l182.76,383.09,585,14.06V2169.75c84.35-63.26,244.47-60.39,244.47-60.39C2662.3,2047.54,2647,1992.2,2627.85,1942.69Z" transform="translate(-500.76 109.82)"/><path d="M2329.35,1917.8c-.94-9.45,96.58,278.53,96.58,278.53l9.74,63.26-97.11,87.3L2293,2311.43S2374.16,2365,2329.35,1917.8Z" transform="translate(-500.76 109.82)"/><path d="M1896,1832s-88.42,148.2-80.51,247.49l74.54,3S1854.27,2025.82,1896,1832Z" transform="translate(-500.76 109.82)"/><path d="M2175.77,2608s-110.92,55.57-138.16,57.33,14.06,14.05,14.06,14.05l133.43-43.49Z" transform="translate(-500.76 109.82)"/><path class="k" d="M2826.64,2549.34c-84.35,342.64-572.88,295.21-623.84,268.84-6.36-3.28-12.17-8.74-17.41-15.79-7.55-10.08-14-23.4-19.5-38.2-21.32-57.54-28.12-137.55-28.12-137.55,29.74-24.53,112-68.53,197-111.19-151.6-4.49-298.58-84.11-298.58-84.11s439.41-66.52,593.67-89.36c122-18.07,174.1,122.11,190.57,181.55l.07.22C2824.8,2539.35,2826.64,2549.34,2826.64,2549.34Z" transform="translate(-500.76 109.82)"/><path class="v" d="M2826.64,2549.34c-84.35,342.64-572.88,295.21-623.84,268.84-6.36-3.28-12.17-8.74-17.41-15.79-7.55-10.08-14-23.4-19.5-38.2v-11.88s495.42,86.34,654.51-228.78l.07.22C2824.8,2539.35,2826.64,2549.34,2826.64,2549.34Z" transform="translate(-500.76 109.82)"/><path class="w" d="M2334.74,2515.45s114.08-44.32,152.74-49.16c0,0-231,44.74-267.53,38.23C2220,2504.52,2323.63,2519.7,2334.74,2515.45Z" transform="translate(-500.76 109.82)"/><path class="t" d="M2098.78,1674l-10-11.51s-68.63-7.17-100.29-69c0,0-47.71,14.91-113.31,62.62s-214.68,334-214.68,334l313.08-292.22Z" transform="translate(-500.76 109.82)"/><path class="x" d="M2541.55,2355.14s-97.61,112.52-218,136.11l-48.84-24.13-3-56.65,193.82-44.73Z" transform="translate(-500.76 109.82)"/><path class="k" d="M1905,2273.31s-384-6.78-509.88,74.54c-193.82,125.24-63,421,143.12,444.29,396.58,44.72,542.69-113.31,542.69-113.31s-43.19-77.42-46.94-120.71l54.83-47.42Z" transform="translate(-500.76 109.82)"/><path class="y" d="M1571,2419.41s-23.85-17.89-80.51-17.89c0,0,32.8,14.91,50.69,65.6s26.84,95.42,119.28,140.15,533.74-65.6,602.32-92.44S1571,2419.41,1571,2419.41Z" transform="translate(-500.76 109.82)"/><path class="s" d="M2432.74,2166s23.85,71.56,20.87,107.35,59.64,86.47,128.22,38.76,35.78-199.78,35.78-199.78S2495.36,2118.25,2432.74,2166Z" transform="translate(-500.76 109.82)"/><path class="s" d="M2486.41,2207.71s-32.8-11.93-131.2,80.51C2284.46,2354.68,2223,2403.1,2223,2403.1s4.71,34.2,58,37.19,300.81-128.22,300.81-128.22S2578.85,2225.6,2486.41,2207.71Z" transform="translate(-500.76 109.82)"/><polygon class="z" points="1859.18 2538.37 1732.19 2538.18 1735.18 2585.89 1859.18 2538.37"/><path class="s" d="M2164.38,2380.65s41.74-35.78,104.36-11.93,44.73,59.64,20.87,68.58-95.41,11.93-95.41,11.93Z" transform="translate(-500.76 109.82)"/><path class="aa" d="M1466,2080.5h650.3l131.2,434.16h-635a40.42,40.42,0,0,1-38.54-28.25l-130.46-375.19A23.6,23.6,0,0,1,1466,2080.5Z" transform="translate(-500.76 109.82)"/><polygon class="ab" points="1732.19 2582.91 1859.18 2538.37 1859.18 2581.42 1746.71 2624.48 1732.19 2582.91"/><path class="ac" d="M2232.57,2471.6H1567.94l5,14.52a42.43,42.43,0,0,0,40.08,28.54h634.43Z" transform="translate(-500.76 109.82)"/><path class="ab" d="M2116.28,2080.5l10.88-.52a13.42,13.42,0,0,1,13.46,9.44l116.19,374.72-23.85,9Z" transform="translate(-500.76 109.82)"/><path class="ad" d="M2345.36,2127.18,2605.92,1734c5.42-8.18,12.77-12.78,20.44-12.78h967.33c3.86,0,7-4.72,7-10.54h0c0-5.83-3.13-10.55-7-10.55H2620.57c-7.67,0-15,4.6-20.44,12.78l-264.65,399.41a14.6,14.6,0,0,0,0,14.91h0C2338.21,2131.3,2342.64,2131.3,2345.36,2127.18Z" transform="translate(-500.76 109.82)"/><polygon class="ae" points="1254.68 2029.64 1266.58 2017.74 792.12 1459.45 43.2 1459.45 43.2 1476.29 785.14 1476.29 1254.68 2029.64"/><path class="af" d="M1523.26,1893.62Zm-22.86-87a44,44,0,1,0,12.88,31.1,43.83,43.83,0,0,0-12.88-31.1Zm-9.5-43.58a77.54,77.54,0,0,1,32.36,18.74,2.71,2.71,0,0,0,3.22.39l20.43-11.8.11-.07a5.1,5.1,0,0,1,6.81,1.92l.08.15,14.38,24.9a5.09,5.09,0,0,1-1.86,6.92l-.14.08-20.26,11.7a2.7,2.7,0,0,0-1.27,3h0a77.36,77.36,0,0,1,1.71,9.29,79,79,0,0,1,0,18.94,77.36,77.36,0,0,1-1.71,9.29,2.7,2.7,0,0,0,1.42,3.07l20.26,11.69h0a5.1,5.1,0,0,1,1.86,6.92l-14.46,25.05h0a5.11,5.11,0,0,1-6.92,1.85l-.15-.08-20.29-11.72a2.71,2.71,0,0,0-3.21.4,78.45,78.45,0,0,1-15.12,11.39,77.63,77.63,0,0,1-17.35,7.38,2.69,2.69,0,0,0-2,2.59v23.57a5.09,5.09,0,0,1-5.06,5.06h-28.93a5.07,5.07,0,0,1-5-5.06V1915a2.71,2.71,0,0,0-2.08-2.63,77.53,77.53,0,0,1-17.24-7.34,79.07,79.07,0,0,1-15.12-11.39,2.68,2.68,0,0,0-3.35-.31L1391.71,1905a5.13,5.13,0,0,1-6.93-1.86l-.08-.15-14.38-24.9h0a5,5,0,0,1-.49-3.83,5.07,5.07,0,0,1,2.34-3.08l20.41-11.78a2.7,2.7,0,0,0,1.28-3h0a75.94,75.94,0,0,1-1.71-9.3,79,79,0,0,1,0-18.94,75.43,75.43,0,0,1,1.71-9.29,2.72,2.72,0,0,0-1.43-3.07l-20.27-11.7a5.1,5.1,0,0,1-1.85-6.92l.08-.15,14.38-24.9h0a5.1,5.1,0,0,1,6.92-1.86h0l20.44,11.8a2.69,2.69,0,0,0,3.27-.45,77.7,77.7,0,0,1,32.41-18.71,2.71,2.71,0,0,0,2-2.6v-23.58a5.07,5.07,0,0,1,5-5h28.93a5.09,5.09,0,0,1,5.06,5v23.58A2.69,2.69,0,0,0,1490.9,1763Z" transform="translate(-500.76 109.82)"/><path class="af" d="M3408.87,599.75Zm-18.62-70.91a35.83,35.83,0,1,0,10.49,25.33,35.74,35.74,0,0,0-10.49-25.33Zm-7.74-35.51a63.19,63.19,0,0,1,26.36,15.27,2.21,2.21,0,0,0,2.62.32l16.65-9.61.09-.06a4.17,4.17,0,0,1,3-.35,4.11,4.11,0,0,1,2.51,1.92l.07.11,11.71,20.29a4.15,4.15,0,0,1-1.51,5.64l-.12.07-16.51,9.53a2.19,2.19,0,0,0-1,2.42h0a61.69,61.69,0,0,1,1.39,7.57,63.56,63.56,0,0,1,0,15.43,62,62,0,0,1-1.39,7.57,2.19,2.19,0,0,0,1.16,2.49l16.51,9.53h0a4.16,4.16,0,0,1,1.51,5.64l-11.78,20.4h0a4.15,4.15,0,0,1-5.63,1.51L3428,609l-16.53-9.54a2.19,2.19,0,0,0-2.61.32,64,64,0,0,1-12.32,9.28,63.25,63.25,0,0,1-14.13,6,2.19,2.19,0,0,0-1.6,2.11v19.2a4.13,4.13,0,0,1-4.12,4.12h-23.56a4.13,4.13,0,0,1-4.12-4.12v-19.2a2.21,2.21,0,0,0-1.7-2.14A63.2,63.2,0,0,1,3321,599.75a2.2,2.2,0,0,0-2.74-.25L3301.7,609a4.11,4.11,0,0,1-3.13.4,4.15,4.15,0,0,1-2.51-1.91l-.07-.12-11.71-20.29h0a4.14,4.14,0,0,1,1.51-5.62l16.63-9.6a2.21,2.21,0,0,0,1-2.43h0a62,62,0,0,1-1.39-7.57,63.56,63.56,0,0,1,0-15.43,61.69,61.69,0,0,1,1.39-7.57,2.21,2.21,0,0,0-1.16-2.5l-16.51-9.53a4.15,4.15,0,0,1-1.51-5.64l.07-.12,11.71-20.28h0a4.15,4.15,0,0,1,5.64-1.52h0l16.64,9.61a2.21,2.21,0,0,0,2.68-.37,63.12,63.12,0,0,1,26.4-15.24,2.21,2.21,0,0,0,1.6-2.12V472a4.11,4.11,0,0,1,1.21-2.91,4.15,4.15,0,0,1,2.91-1.21h23.56a4.15,4.15,0,0,1,2.91,1.21,4.11,4.11,0,0,1,1.21,2.91v19.2A2.19,2.19,0,0,0,3382.51,493.33Z" transform="translate(-500.76 109.82)"/><path class="af" d="M1526,1261a7.54,7.54,0,0,1,15.08,0v17.73h17.74a7.54,7.54,0,1,1,0,15.08h-17.74v17.74a7.54,7.54,0,0,1-15.08,0v-17.74h-17.74a7.54,7.54,0,1,1,0-15.08H1526Z" transform="translate(-500.76 109.82)"/><path class="af" d="M2523.51,1452.92a7.55,7.55,0,0,1,15.09,0v17.74h17.73a7.54,7.54,0,0,1,0,15.08H2538.6v17.74a7.55,7.55,0,0,1-15.09,0v-17.74h-17.73a7.54,7.54,0,0,1,0-15.08h17.73Z" transform="translate(-500.76 109.82)"/><path class="af" d="M1121,1420.62a7.54,7.54,0,1,1,15.08,0v17.73h17.74a7.55,7.55,0,0,1,0,15.09h-17.74v17.73a7.54,7.54,0,0,1-15.08,0v-17.73h-17.74a7.55,7.55,0,0,1,0-15.09H1121Z" transform="translate(-500.76 109.82)"/><path class="af" d="M2707.85,1888.57a7.55,7.55,0,1,1,15.09,0v17.73h17.73a7.55,7.55,0,0,1,0,15.09h-17.73v17.73a7.55,7.55,0,0,1-15.09,0v-17.73h-17.73a7.55,7.55,0,1,1,0-15.09h17.73Z" transform="translate(-500.76 109.82)"/><path class="af" d="M2855.63,1988.29a7.54,7.54,0,0,1,15.08,0V2006h17.73a7.54,7.54,0,0,1,0,15.08h-17.73v17.74a7.54,7.54,0,0,1-15.08,0v-17.74h-17.74a7.54,7.54,0,0,1,0-15.08h17.74Z" transform="translate(-500.76 109.82)"/><path class="k" d="M2706,764.18v791.29c0,17,9.8,30.75,21.88,30.75H3839.61c12.08,0,21.87-13.77,21.87-30.75V764.18c0-17-9.79-30.75-21.87-30.75H2727.87C2715.79,733.43,2706,747.2,2706,764.18Z" transform="translate(-500.76 109.82)"/><path class="ag" d="M2217.91,843.25H3348a12.68,12.68,0,0,1,12.68,12.68V974.6a0,0,0,0,1,0,0H2205.23a0,0,0,0,1,0,0V855.93A12.68,12.68,0,0,1,2217.91,843.25Z"/><path class="ah" d="M3703.2,799.11c0-10.36-6-18.75-13.34-18.75s-13.34,8.39-13.34,18.75,6,18.75,13.34,18.75S3703.2,809.46,3703.2,799.11Z" transform="translate(-500.76 109.82)"/><path class="ai" d="M3753.71,799.11c0-10.36-6-18.75-13.33-18.75S3727,788.75,3727,799.11s6,18.75,13.34,18.75S3753.71,809.46,3753.71,799.11Z" transform="translate(-500.76 109.82)"/><path class="aj" d="M3804.23,799.11c0-10.36-6-18.75-13.34-18.75s-13.34,8.39-13.34,18.75,6,18.75,13.34,18.75S3804.23,809.46,3804.23,799.11Z" transform="translate(-500.76 109.82)"/><rect class="ah" x="2284.62" y="1069.85" width="64.19" height="33.03"/><rect class="aj" x="2384.27" y="1069.85" width="115.8" height="33.03"/><rect class="ad" x="2328.71" y="1140.03" width="240.53" height="33.03"/><rect class="ak" x="2604.7" y="1140.03" width="64.19" height="33.03"/><rect class="ad" x="2328.71" y="1210.22" width="240.53" height="33.03"/><rect class="ak" x="2604.7" y="1210.22" width="64.19" height="33.03"/><rect class="ad" x="2328.71" y="1280.4" width="240.53" height="33.03"/><rect class="ak" x="2604.7" y="1280.4" width="64.19" height="33.03"/><rect class="ah" x="2284.62" y="1350.59" width="64.19" height="33.03"/><rect class="aj" x="2384.27" y="1350.59" width="115.8" height="33.03"/><rect class="ak" x="2328.71" y="1420.77" width="120.26" height="33.03"/><rect class="ad" x="2484.43" y="1420.77" width="184.45" height="33.03"/><rect class="ak" x="2328.71" y="1490.96" width="120.26" height="33.03"/><rect class="ad" x="2484.43" y="1490.96" width="184.45" height="33.03"/><rect class="ak" x="2328.71" y="1561.15" width="120.26" height="33.03"/><rect class="ad" x="2484.43" y="1561.15" width="184.45" height="33.03"/><rect class="aj" x="2888.79" y="1069.85" width="64.19" height="33.03"/><rect class="ai" x="2988.44" y="1069.85" width="115.8" height="33.03"/><rect class="ad" x="2932.88" y="1140.03" width="55.56" height="33.03"/><rect class="ak" x="3023.9" y="1140.03" width="249.15" height="33.03"/><rect class="ad" x="2932.88" y="1210.22" width="55.56" height="33.03"/><rect class="ah" x="3023.9" y="1210.22" width="249.15" height="33.03"/><rect class="ad" x="2932.88" y="1280.4" width="55.56" height="33.03"/><rect class="ak" x="3023.9" y="1280.4" width="249.15" height="33.03"/><rect class="aj" x="2888.79" y="1350.59" width="64.19" height="33.03"/><rect class="ai" x="2988.44" y="1350.59" width="115.8" height="33.03"/><rect class="ak" x="2932.88" y="1420.77" width="197.87" height="33.03"/><rect class="ad" x="3166.21" y="1420.77" width="106.84" height="33.03"/><rect class="ai" x="2932.88" y="1490.96" width="197.87" height="33.03"/><rect class="ad" x="3166.21" y="1490.96" width="106.84" height="33.03"/><rect class="ak" x="2932.88" y="1561.15" width="197.87" height="33.03"/><rect class="ad" x="3166.21" y="1561.15" width="106.84" height="33.03"/><line class="al" x1="2778.84" y1="1051.27" x2="2778.84" y2="1647.56"/><path class="am" d="M1459.58,645.35H1333.73a68.93,68.93,0,0,0-69,68.84v89.1a68.83,68.83,0,0,0,46.51,65l2.21,47.75,62-43.93h84.14a68.93,68.93,0,0,0,69-68.84v-89.1A68.93,68.93,0,0,0,1459.58,645.35Z" transform="translate(-500.76 109.82)"/><path class="ad" d="M1541.84,593.76H1399.3a78.16,78.16,0,0,0-78.16,78.17V773.08a78.16,78.16,0,0,0,78.16,78.16h95.3l70.23,49.88,2.5-54.21A78.14,78.14,0,0,0,1620,773.08V671.93A78.16,78.16,0,0,0,1541.84,593.76Z" transform="translate(-500.76 109.82)"/><path class="an" d="M1419.45,741.56a6.62,6.62,0,0,1,1.21,4,8.24,8.24,0,0,1-2.35,6.11,8.09,8.09,0,0,1-6,2.35,12.73,12.73,0,0,1-4.16-.8l-44.71-17.32a12.57,12.57,0,0,1-6.1-4.7,12.92,12.92,0,0,1-2.22-7.52,12.77,12.77,0,0,1,2.22-7.31,13.25,13.25,0,0,1,6.1-4.9l44.71-17.32a12.47,12.47,0,0,1,4.16-.8,8.09,8.09,0,0,1,6,2.35,8.23,8.23,0,0,1,2.35,6.1,6.81,6.81,0,0,1-4.56,6.58l-39.87,15.3L1416.1,739A7.91,7.91,0,0,1,1419.45,741.56Z" transform="translate(-500.76 109.82)"/><path class="an" d="M1455.36,771.43a9.13,9.13,0,0,1-5.3,1.61,9.79,9.79,0,0,1-6.58-2.41,7.77,7.77,0,0,1-2.82-6.18,8.87,8.87,0,0,1,.54-3.08l30.47-95.72a9.09,9.09,0,0,1,3.42-4.83,9,9,0,0,1,5.17-1.61,10,10,0,0,1,6.65,2.42,7.83,7.83,0,0,1,2.88,6.3,14.71,14.71,0,0,1-.54,3l-30.47,95.71A9.14,9.14,0,0,1,1455.36,771.43Z" transform="translate(-500.76 109.82)"/><path class="an" d="M1573.22,716.33a12.77,12.77,0,0,1,2.22,7.31,12.92,12.92,0,0,1-2.22,7.52,12.6,12.6,0,0,1-6.11,4.7l-44.7,17.32a12,12,0,0,1-4.16.8,8.05,8.05,0,0,1-6-2.35,8.24,8.24,0,0,1-2.35-6.11,6.68,6.68,0,0,1,1.2-4,8,8,0,0,1,3.36-2.61l39.87-15.31-39.87-15.3a7,7,0,0,1-3.36-2.55,6.92,6.92,0,0,1-1.2-4,8.23,8.23,0,0,1,2.35-6.1,8.05,8.05,0,0,1,6-2.35,12.52,12.52,0,0,1,4.16.8l44.7,17.32A13.28,13.28,0,0,1,1573.22,716.33Z" transform="translate(-500.76 109.82)"/><rect class="ao" x="131.05" y="663.99" width="524.97" height="742.15" rx="50.32"/><rect class="r" x="615.69" y="541.28" width="524.97" height="742.15" rx="44.32" transform="translate(1255.6 1934.53) rotate(180)"/><rect class="k" x="644.71" y="575.59" width="466.94" height="609.06" transform="translate(1255.59 1870.06) rotate(180)"/><rect class="ao" x="676.09" y="619.38" width="406.4" height="81.08" transform="translate(1257.81 1429.67) rotate(180)"/><rect class="ao" x="915.21" y="731.9" width="167.27" height="397.41" transform="translate(1496.93 1971.03) rotate(180)"/><rect class="ao" x="676.09" y="731.9" width="208.05" height="46.03" transform="translate(1059.46 1619.64) rotate(180)"/><rect class="ao" x="676.09" y="811.46" width="208.05" height="46.03" transform="translate(1059.46 1778.77) rotate(180)"/><rect class="ao" x="676.09" y="891.03" width="208.05" height="46.03" transform="translate(1059.46 1937.9) rotate(180)"/><rect class="ao" x="676.09" y="970.59" width="208.05" height="158.72" transform="translate(1059.46 2209.72) rotate(180)"/><path class="r" d="M1269,2648a66.73,66.73,0,0,0-7.48,1l-7.64-1.16-.58-.1V2768s55.29,11.8,66.7-61.06C1329.1,2649,1286.71,2646.57,1269,2648Zm-7.19,26.76a29.67,29.67,0,0,0,7.35.22c8.67-.87,32.24-.48,27.37,30.63-5.93,37.92-34.72,31.76-34.72,31.76Z" transform="translate(-500.76 109.82)"/><path class="q" d="M1261.53,2599.43c0,6.29-36.18,11.71-87,13.8-14.7.61-30.63.94-47.27.94-74.15,0-134.28-6.61-134.28-14.74s60.13-14.76,134.28-14.76S1261.53,2591.28,1261.53,2599.43Z" transform="translate(-500.76 109.82)"/><path class="b" d="M1079.46,2615.71s-103.17-25.79-83.82-90.27,90.27-64.48,67.7-193.44-6.44-145.09,93.5-212.79c0,0-80.6,112.84,0,199.89s-16.16,166.84-29,199.89c-22.57,58,33.85,94.58,33.85,94.58Z" transform="translate(-500.76 109.82)"/><path class="b" d="M1190.61,2615.71s40.6-13.56,33-47.48-80.19-56.52-28.07-100.82c64.48-54.81.64-112.7-38.69-148.31,0,0,38.69,67.71-22.57,148.31-33.7,44.34,32.25,80.05,37.31,97.43,8.88,30.53-13.33,49.74-13.33,49.74Z" transform="translate(-500.76 109.82)"/><path class="r" d="M1261.53,2599.43v134.48a74.65,74.65,0,0,1-74.64,74.67H1066.57a74.65,74.65,0,0,1-74.64-74.67V2599.43h1c0,8.13,60.13,14.74,134.28,14.74,16.64,0,32.57-.33,47.27-.94C1225.35,2611.14,1261.53,2605.72,1261.53,2599.43Z" transform="translate(-500.76 109.82)"/><path class="r" d="M1174.48,2613.23v120.68a74.65,74.65,0,0,1-74.64,74.67h-33.27a74.65,74.65,0,0,1-74.64-74.67V2599.43h1c0,8.13,60.13,14.74,134.28,14.74C1143.85,2614.17,1159.78,2613.84,1174.48,2613.23Z" transform="translate(-500.76 109.82)"/><path class="j" d="M2142.65-108.32a.75.75,0,0,0,0-1.5.75.75,0,0,0,0,1.5Z" transform="translate(-500.76 109.82)"/><path class="ap" d="M2172.93,2068.19s82.19,9,123.52-21.8" transform="translate(-500.76 109.82)"/></g></svg>