<svg xmlns="http://www.w3.org/2000/svg" xmlns:xlink="http://www.w3.org/1999/xlink" viewBox="0 0 3957.2 2550.34"><defs><style>.a,.bb,.bc,.bd{fill:none;}.b{isolation:isolate;}.c{fill:#c0bfbf;}.av,.aw,.c,.d,.e,.f,.g{fill-rule:evenodd;}.d{fill:#83d9ff;}.e{fill:#929192;}.f{fill:#4fbafc;}.g{fill:#555356;}.h{fill:#322f33;}.i{fill:#d0e0f0;}.j{fill:#91c1f1;}.k{fill:#f95d84;}.l{fill:#f37e3f;}.m{fill:#4c73dc;}.n{fill:#8cb3de;}.o{fill:#62d3bd;}.p{fill:#fcd65b;}.q{fill:#76d9e4;}.r{fill:#211f22;}.s{fill:#403e41;}.t{fill:#a2f2e3;}.u{clip-path:url(#a);}.v{fill:#9edc6f;}.w{fill:#6933d1;}.x{fill:#7e3fe0;}.y{fill:#5227ba;}.z{fill:#6426db;}.aa{fill:#373438;}.ab{fill:#ffa79b;}.ac{fill:#f44545;}.ad,.aw{fill:#fff;}.ae{fill:#e07127;}.af{fill:#f48337;}.ag{fill:#f49c92;}.ah{fill:#f27c49;}.ai,.ao,.aq{opacity:0.6;}.ai{fill:url(#b);}.aj{fill:#70a3ff;}.ak{fill:#5b4ced;}.al{fill:#2b2ba5;}.am,.as,.av{opacity:0.55;}.am{fill:url(#c);}.an{fill:#3e3ed6;}.ao{fill:url(#d);}.ap{fill:#4040c6;}.aq{fill:url(#e);}.ar{fill:#3030b5;}.as{fill:url(#f);}.at{fill:#6562f4;}.au{fill:#5454d6;}.av{fill:#c9c9c9;}.av,.ba{mix-blend-mode:multiply;}.ax{fill:#ffac27;}.ay{fill:#ffc64a;}.az{fill:#3131c9;}.ba{fill:#6060cc;opacity:0.56;}.bb,.bc,.bd{stroke:#000;stroke-miterlimit:10;}.bb{stroke-width:6px;}.bc{stroke-width:5.16px;}.bd{stroke-width:3.93px;}</style><clipPath id="a" transform="translate(-278.27 -439.08)"><rect class="a" x="428.83" y="1294.79" width="1281.76" height="1344.91"/></clipPath><linearGradient id="b" x1="1711.19" y1="1906.17" x2="1968.14" y2="2078.49" gradientUnits="userSpaceOnUse"><stop offset="0" stop-color="#f85254"/><stop offset="1" stop-color="#f79865" stop-opacity="0.6"/></linearGradient><linearGradient id="c" x1="1948.87" y1="2301.82" x2="1174.09" y2="1807.84" gradientUnits="userSpaceOnUse"><stop offset="0" stop-color="#6062ac"/><stop offset="1" stop-color="#3053a4"/></linearGradient><linearGradient id="d" x1="-7038.33" y1="1964.83" x2="-7220.84" y2="1795.24" gradientTransform="matrix(-1, 0, 0, 1, -4324.76, -439.08)" gradientUnits="userSpaceOnUse"><stop offset="0" stop-color="#6663b2"/><stop offset="1" stop-color="#372bcd"/></linearGradient><linearGradient id="e" x1="3174.98" y1="1475.23" x2="3332.95" y2="1328.45" gradientTransform="matrix(1, 0, 0, 1, 0, 0)" xlink:href="#d"/><linearGradient id="f" x1="-7312.64" y1="1199.31" x2="-7309.4" y2="1548" gradientTransform="matrix(-1, 0, 0, 1, -4046.5, 0)" xlink:href="#d"/></defs><g class="b"><path class="c" d="M4194.07,2019.66a209.24,209.24,0,0,1-55.86,56c-35.26,23.94-80.11,38.46-134.52,38.46a204.16,204.16,0,0,0-120.47,39.19c-48.69,35.41-81.14,91.63-83.65,155.14-.11,2.64-.16,5.31-.16,8,0,101.51-41.94,193.79-109.46,260.7a373.4,373.4,0,0,1-263.19,108.42H921.17C654.89,2685.6,437,2469.81,437,2206.06a471,471,0,0,1,38.29-186.4,482.89,482.89,0,0,1,103.92-152.28C667,1780.48,788,1726.52,921.17,1726.52h12.72c53.43,0,97.14-43.32,97.14-96.22a95.53,95.53,0,0,0-28.53-68,97.27,97.27,0,0,0-68.61-28.29H880.46c-129.9,0-236.19-105.26-236.19-233.92,0-64.26,26.51-122.7,69.24-165.1A236.56,236.56,0,0,1,880,1066.18h230.47c112.32,0,204.25-91,204.25-202.32,0-101.51,41.91-193.79,109.46-260.7a373.3,373.3,0,0,1,263.19-108.45H3591.8c266.27,0,484.12,215.79,484.12,479.54,0,131.87-54.46,251.76-142.2,338.67s-208.78,140.87-341.92,140.87a97.33,97.33,0,0,0-68.64,28.28,95.23,95.23,0,0,0,0,135.92,97.4,97.4,0,0,0,68.64,28.26h411.89C4223.5,1646.25,4287,1883,4194.07,2019.66Z" transform="translate(-278.27 -439.08)"/><path class="d" d="M287.45,2090.81h.06q-4.75,5-9.24,10C281.24,2097.46,284.32,2094.11,287.45,2090.81Z" transform="translate(-278.27 -439.08)"/><path class="e" d="M455.33,2090.81H4138.21c-35.26,23.35-80.11,37.51-134.52,37.51a207.65,207.65,0,0,0-120.47,38.22c-48.69,34.53-81.14,89.36-83.65,151.29-18,23.11-28.39,49.8-28.39,78.18,0,79.62-44.66,152-116.57,204.52s-171.15,85.07-280.28,85.07H921.17C654.89,2685.6,437,2475.16,437,2217.94a449.09,449.09,0,0,1,18.29-127.13Z" transform="translate(-278.27 -439.08)"/><path class="f" d="M4188.13,2169.21c1.28-1.39,2.56-2.78,3.79-4.17-1.23,1.39-2.42,2.8-3.7,4.17Z" transform="translate(-278.27 -439.08)"/><path class="g" d="M4194.07,2034.24a210.11,210.11,0,0,1-55.86,56.57c-35.26,24.17-80.11,38.83-134.52,38.83a202.84,202.84,0,0,0-120.47,39.57H440a478.76,478.76,0,0,1,35.37-135Z" transform="translate(-278.27 -439.08)"/><rect class="h" x="2019.9" y="49.4" width="1463.76" height="1307.76"/><polygon class="i" points="3394.92 1201.22 2832.26 1201.22 2832.26 352.29 3276.47 352.29 3394.92 474.86 3394.92 1201.22"/><polygon class="j" points="3276.47 352.29 3394.92 474.86 3277.29 474.86 3276.47 352.29"/><path class="k" d="M3357.27,1192.74a76.41,76.41,0,0,1-41.15-57.67l-147.25,16.37a224.45,224.45,0,0,0,128.94,177Z" transform="translate(-278.27 -439.08)"/><path class="l" d="M3429.34,1057.94a76.44,76.44,0,0,1-64.16,138.26L3305.72,1332c112.71,46.86,242.65-5,291.83-117.28,48.74-111.27.08-240.6-108.68-292.62Z" transform="translate(-278.27 -439.08)"/><path class="m" d="M3315.42,1126.45a76.43,76.43,0,0,1,106.15-72.3L3481,918.46c-113.39-49.06-245.23,2.71-294.85,116A223.45,223.45,0,0,0,3168,1142.85Z" transform="translate(-278.27 -439.08)"/><rect class="n" x="2889.02" y="1053.43" width="46.62" height="67.92"/><rect class="m" x="2946.52" y="1024.7" width="46.62" height="96.65"/><rect class="k" x="3004.02" y="997.47" width="46.62" height="123.88"/><rect class="l" x="3061.53" y="1020.16" width="46.62" height="101.19"/><rect class="n" x="3119.03" y="1008.06" width="46.63" height="113.29"/><rect class="m" x="3176.53" y="982.34" width="46.62" height="139"/><rect class="o" x="3234.03" y="958.15" width="46.62" height="163.2"/><rect class="l" x="3291.54" y="933.95" width="46.62" height="187.4"/><path class="o" d="M2608.92,928.89a100.33,100.33,0,0,1,73.78-134V609.43c-147.81,10.25-264.54,133.38-264.54,283.79a283.21,283.21,0,0,0,30.48,128.21Z" transform="translate(-278.27 -439.08)"/><path class="o" d="M2722.61,794.92a100.17,100.17,0,0,1,56.91,33.9l160.4-92.61a284.31,284.31,0,0,0-217.31-126.78Z" transform="translate(-278.27 -439.08)"/><path class="o" d="M2798.58,863.9a100.27,100.27,0,0,1-168.27,98.73l-161.2,93.06a284.13,284.13,0,0,0,233.55,122c157.12,0,284.49-127.38,284.49-284.5a283.42,283.42,0,0,0-27.55-122.28Z" transform="translate(-278.27 -439.08)"/><path class="p" d="M2608.92,928.89a100.33,100.33,0,0,1,73.78-134V609.43c-147.81,10.25-264.54,133.38-264.54,283.79a283.21,283.21,0,0,0,30.48,128.21Z" transform="translate(-278.27 -439.08)"/><path class="l" d="M2722.61,794.92a100.17,100.17,0,0,1,56.91,33.9l160.4-92.61a284.31,284.31,0,0,0-217.31-126.78Z" transform="translate(-278.27 -439.08)"/><path class="q" d="M2798.58,863.9a100.27,100.27,0,0,1-168.27,98.73l-161.2,93.06a284.13,284.13,0,0,0,233.55,122c157.12,0,284.49-127.38,284.49-284.5a283.42,283.42,0,0,0-27.55-122.28Z" transform="translate(-278.27 -439.08)"/><rect class="l" x="2833.68" y="291.19" width="571.98" height="28.6"/><rect class="l" x="2833.68" y="228.79" width="457.59" height="28.6"/><rect class="l" x="2833.68" y="166.39" width="457.59" height="28.6"/><path class="r" d="M3860.72,489.78a50.86,50.86,0,0,1-50.69,50.7H2257.87a50.7,50.7,0,0,1,0-101.4H3810A50.83,50.83,0,0,1,3860.72,489.78Z" transform="translate(-278.27 -439.08)"/><path class="s" d="M3655.33,489.78a50.87,50.87,0,0,1-50.7,50.7H2242.27a50.7,50.7,0,0,1,0-101.4H3604.63A50.83,50.83,0,0,1,3655.33,489.78Z" transform="translate(-278.27 -439.08)"/><path class="r" d="M3832.13,1820.94c0,6.79-3.39,13-8.86,17.44a33.53,33.53,0,0,1-21.28,7.26H2294.51c-16.58,0-30.14-11.11-30.14-24.7,0-6.79,3.39-13,8.86-17.44a33.53,33.53,0,0,1,21.28-7.26H3802C3818.57,1796.24,3832.13,1807.35,3832.13,1820.94Z" transform="translate(-278.27 -439.08)"/><path class="s" d="M3719.32,1820.94c0,6.79-3.38,13-8.85,17.44a33.57,33.57,0,0,1-21.28,7.26H2294.51c-16.58,0-30.14-11.11-30.14-24.7,0-6.79,3.39-13,8.86-17.44a33.53,33.53,0,0,1,21.28-7.26H3689.19C3705.77,1796.24,3719.32,1807.35,3719.32,1820.94Z" transform="translate(-278.27 -439.08)"/><path class="t" d="M2173.7,834.57h514a68,68,0,0,1,68,68v389.59a0,0,0,0,1,0,0h-650a0,0,0,0,1,0,0V902.57A68,68,0,0,1,2173.7,834.57Z"/><g class="u"><path class="v" d="M428.83,2031.4s8-4.15,21.44-9.49c61.47-19,191.61-13,239.71,7.67,28.7,12.34,95.56,44.93,152.8,73.2-21,2.46-71.58,16.17-87.65-.39,0,0-34.64,83.88-20.61,120s169.5,51.83,139.1,60.26S724,2265.09,724,2265.09s-10.53,86.3,22.21,103.17,204.57-8.43,188.2,8.44-173.59,34.35-191.71,15.67c0,0-3.5,103.65,53.77,114.5s214-77.14,200.54-53-158.46,94-202.88,67.5c0,0,39.75,98.83,76,98.83S995.74,2493,1013.87,2511.7s-78.29,109.67-132.07,120.52c0,0,21.05,56.65,90,39.77s57.28-127.75,78.32-118.11,1.17,131.38-69,131.38c0,0,114.56,27.71,141.44-36.16,7.57-18,11.25-32.68,12.77-44.7,10.48,50.46,16.43,111.33,19.39,172.35H1050.26c-157.51,54-150.94,162.8,13.5,212.67h315.39c164.49-49.88,171-158.7,13.5-212.67h-85.37c19.83-161.94,49.21-296.54,73.17-389.08,3.78,10.8,10,24.62,19.21,34.14,17.2,17.73,50.26-42.7,50.26-72.83s-35.58-1.2-35.58-18.08,5.19-8.44,50.79-8.44,61.95-96.41,61.95-96.41-69,8.43-69-4.83,54.94-6,90-15.67,54.94-88,54.94-88-100.53,30.13-100.53,16.87,77.74-25.91,92.35-41,19.87-83.16,19.87-83.16-66.63,63.88-77.15,63.88,70.72-70.51,63.13-78.35-10.53-41.12-10.53-41.12c-14.54,15-38.57-4.67-53.77,11s-42.67,135.59-53.77,147,31-95.82,11.69-115.71-71.53,30.5-81.83,41.12,24.55,127,10.52,141.48-11.16-102.39-22.33-113.9-40.79,18.08-49.56,52.43,67.51,93.11,45.59,115.71-42.08-63.28-61.37-83.16c-14.26-14.71-43.8,14.05-58.27,39.55,3.38-104,8.59-196.66,16.39-262.77,15.62,43.42,96.28,95.45,153,35.88,12.08,9.83,27,14.21,45.59,7.31,67.39-25,73.59-42.29,59.41-49.15s-145.88-83.26-129.79-91.48,134.2,87.21,156.73,75.71,57.18-58.76,53.12-60.72-167.53-62.79-149.29-72.11,144.64,80.53,168.44,40.85,24.83-63.72,22.61-73.32-143.68-20.36-138.91-30.85,137.95,11.19,148.28-11.54,12.92-55.61,1.43-61.16-80.38,15.55-75.21,4.18,72.71-15,70.21-25.8-9.83-70.85-5-81.34c0,0-47.77-32.67-59.34-48.92s-24-10.55-28-1.8-35.42,142.3-38.89,127.29,36.15-134,28-137.87-50-36.92-62.87-17.57-17.52,196.28-32.17,197.72,20.8-205.34,20.8-205.34-49.11,2.93-66.71,25.36.9,230.07-14.25,229-7.89-218.33-7.89-218.33-61,29.17-64.84,59.32,38.53,166.29,25.12,173.14-27.39-133.72-27.39-133.72-53.12,24.46-56.18,65.63,48.49,92.74,42.53,105.85-51.94-42.28-59.7-75.75-66.11,138.67-16.79,162.5c14.89,7.19,26.1,9.76,34.56,9.92-24.41,64.88-31.7,322.13-33.72,392.08-9.34-9.13-15.68-15.79-15.68-15.79-13,5.16-20.69,22.06-24.28,43.87-6.41-8.18-10.92-13.13-10.92-13.13s-5.23,18.13-13.15,42.59c-8.24-65.56-7.31-48.06-7.54-62.07,1.29-8.26,1.32-15.11-.32-20-6.67-417.77-4.83-391.26-6.82-393.54.94-28.77,10.16-282.19,44.33-350.38,36.24-72.31,59.61-156.68,59.61-156.68s-31,50-58.44,78.34-51.44,33.75-51.44,59.06,36.24,107.27,12.86,95.22-17.54-61.47-25.72-61.47-42.08,113.29-42.08,119.32,58.45,53,43.25,68.7-39.74-60.27-49.09-50.62-11.7,92.8-11.7,114.5,45,10.24,24.55,31.33-24.5,105.17-24.54,144c-48.6-114.75-92.27-144.28-163.65-187.67,15.54,0,35.3-4.19,51.72-21.12,32.33-33.34,47.19-156.42-27.36-190.35,3.29-18.17,1-36.75-12.1-53.72-47.34-61.47-64-59.66-64-40.68s-10.51,201.59-23.67,188,18.42-190.74,0-209.72-71-33.44-71-28,14.9,215.15,0,199.79,8.77-198.88-33.32-205.2-62.25,4.51-69.26,11.74,40.33,167.81,29.81,167.81-45.59-157-68.39-157-50.85,13.56-50.85,28.93S641.88,1499,630.48,1499s-41.2-72.32-49.1-64.18-54.36,46.1-64.87,46.1c0,0-7.9,68.7-16.67,89.49s.88,31.65,9.65,31.65,131.07-32.1,120.11-20.8-124.49,27.13-124.49,38-10.52,73.22,10.52,77.74S684,1618.28,691,1633.65s-177.09,79.55-177.09,79.55,21.91,52.43,47.34,60.56,188.8-115.7,193.91-98.53-176.38,117.52-176.38,117.52,48.22,52.43,74.53,41.58,121.42-125.2,132.38-113.9-99.07,96.72-99.07,96.72,41.21,46.11,76.28,28.93,57-99.43,70.13-99.43-14.13,78.06-38.57,103.27,140.27,3.39,140.27-62.6c0-27.92-4.56-43.46-9.81-52.19,29.21,18,60.81,34.88,88.25,64.32,71.1,73.57,116.74,218.71,146.18,386.67-10.15-7.22-18-6.47-18,2.56,0,15.67-36.82,179-55,160.3s51.45-167.53,26.89-192.84c-14.57-15-48.45-34.64-75.08-44.39,0,0,0-.05,0-.08-11.5-11.85-46.44-24.23-35.69-58.58S956.62,1988,956.62,1988s-35.07,52.42-66.63,52.42,40.33-34.35,40.33-54.24-108.71-56-108.71-56S852.11,2020,851.93,2047c-12.95-9.35-26.81-13.69-38.67-20.28-10.28-29.65-15-88.09-32-94.76-17.65-6.93-43.25-24.72-55.07-12.14,34.76,91.15-3.45,73.47-21,66.89-8.48-22.08-29.1-96.33-34.41-96.33-5.75,0-16.23,7-32.84,11.91,12.4,24.5,40.15,83,24.63,87.7-14.45,4.33-53.34-53.28-73-84.15-2.13-.28-4.3-.6-6.51-1-14.9-2.65-24.94-3.86-32.74-3.17,11.71,17.43,28.27,45.66,21.7,57.5-5.87,10.57-33.24-14.14-54.35-35.78-5.61,6.16-12.38,13.77-21.36,23C454.77,1989.33,428.83,2031.4,428.83,2031.4Zm480.45-416.73c-4.36-4.5,25.78-34.7,42.07-71.3a64.27,64.27,0,0,0,.89,11.64C956.62,1580.32,916.73,1622.35,909.28,1614.67Zm486.79,262.73c5.33-2.73,14.24,38.24,34.21,67.7a39.86,39.86,0,0,0-9.1-3.32C1400.28,1937,1386.94,1882.06,1396.07,1877.4Zm-221.33,303.53c-13.29-76.33-30.66-148.46-61.27-229.55,9.74,6.19,23,3.7,34.86-8.58,20.58-21.21,12.11-98.12,25.6-113.21C1172.58,1861.42,1173.25,2005.26,1174.74,2180.93Zm77.88,239.84c0,4.61-.12,9.2-.17,13.8-13.57,18.55-29.46,39.86-41.87,41.51q-1.1-12.79-2.23-25.53c8.08-10.17,20.11-23,31.1-38.53C1245.65,2419.86,1249.3,2420,1252.62,2420.77Zm84.5-125.42c-8.84,9.11-38-13.53-62-35.22q.38-16.05.82-31.87C1296,2251.71,1350.05,2282,1337.12,2295.35Zm-65.29,481.4c-.49-79.86-.71-172.13-.18-267.21,10.58-34.07,12-72.19,10-91.16,32.25-8.9,72.09-33,87.44-42.82-24.56,93.61-55.43,232.74-76,401.19Zm-42.44,0c-2.73-64.16-6.41-132.94-11.25-202.66,13.65-4.83,23.1-10.67,33.19-23.55-.52,80.56-.51,157.94-.26,226.21Zm-34.62,0c-1.08-51.78-2.43-116.37-4-197.35a93.3,93.3,0,0,0,11.13-1.2c4.15,69.38,6.81,136.44,8.61,198.55Zm-58.07-210.54a109.28,109.28,0,0,0,42,12.82c.79,71.81,1.58,139.34,2.26,197.72h-13.38C1163.34,2702.23,1154.09,2626.61,1136.7,2566.21Zm37-287.77c2.65,19.36,2,7.71,2.61,68.34-16.2,44.23-35.5,87.18-47.8,81.75C1111.67,2421.11,1152.28,2339.87,1173.65,2278.44Zm-192.82-139.1c6.94-2.06,14.08-4.28,20.9-6.57,3.26,47.56,19.2,148.72-11.21,148.72C963,2281.49,981,2190.48,980.83,2139.34ZM855.15,2108.9,879.48,2121c12.59,28.27,36.08,85.54,17.53,81C876.35,2196.87,867.27,2130,855.15,2108.9Z" transform="translate(-278.27 -439.08)"/></g><path class="w" d="M1307.6,2020.92h-65a31.29,31.29,0,0,1-31.19-31.2V1544.25c0-58.14,47.57-105.71,105.71-105.71h65c-58.14,0-105.72,47.57-105.72,105.71v445.47A31.29,31.29,0,0,0,1307.6,2020.92Z" transform="translate(-278.27 -439.08)"/><path class="x" d="M1858.79,1469.73v520a31.29,31.29,0,0,1-31.2,31.2h-520a31.29,31.29,0,0,1-31.2-31.2V1544.25c0-58.14,47.58-105.71,105.72-105.71h445.47A31.28,31.28,0,0,1,1858.79,1469.73Z" transform="translate(-278.27 -439.08)"/><path class="y" d="M2302.39,2020.92h-60.82a29.3,29.3,0,0,1-29.19-29.25V1574c0-54.5,44.52-99.11,98.91-99.11h60.83c-54.4,0-98.92,44.61-98.92,99.11v417.63A29.3,29.3,0,0,0,2302.39,2020.92Z" transform="translate(-278.27 -439.08)"/><path class="z" d="M2818.16,1504.18v487.49a29.31,29.31,0,0,1-29.2,29.25H2302.39a29.3,29.3,0,0,1-29.19-29.25V1574c0-54.5,44.52-99.11,98.92-99.11H2789A29.32,29.32,0,0,1,2818.16,1504.18Z" transform="translate(-278.27 -439.08)"/><rect class="h" x="878.54" y="1901.63" width="2449.13" height="363.99" rx="30.02"/><rect class="r" x="722.54" y="1901.63" width="210.59" height="421.19" rx="31.2"/><rect class="aa" x="722.54" y="1901.63" width="163.8" height="421.19" rx="31.2"/><rect class="r" x="3223.67" y="1901.63" width="210.59" height="421.19" rx="31.2"/><rect class="aa" x="3273.07" y="1901.63" width="161.2" height="421.19" rx="31.2"/><polygon class="aa" points="3561.66 1849.63 613.35 1849.63 864.29 1548.24 3304.26 1548.24 3390.04 1648.68 3561.66 1849.63"/><rect class="r" x="592.55" y="1849.63" width="2989.91" height="104" rx="30.02"/><path d="M2673.89,1238s111.11-28.83,65.65-134.52-141.41-120.1-202-72.06-15.16,115.3-15.16,115.3-55.55-33.63-80.8,9.61,5,67.26,5,67.26-75.76-25.55-96,24c-23.58,57.83,45.45,72.09,45.45,72.09s-30.3,38.43-15.15,67.25,35.36,38.44,35.36,38.44-80.81,14.41-80.81,81.66,111.11,48,111.11,48h146.46l10.1-249.81Z" transform="translate(-278.27 -439.08)"/><path class="p" d="M2547.63,1377.34l-10.1,124.9,127,58.49,4.35-173.79,54.91-19.9A44,44,0,0,0,2746,1302.4l-97.4-155.66s-30.31,139.32-75.76,148.93-50.51-24-50.51-24-80.8,38.43-50.5,81.66S2547.63,1377.34,2547.63,1377.34Z" transform="translate(-278.27 -439.08)"/><path d="M2674,1238.62a43.56,43.56,0,0,0,26.37,26l-2.52-3.32c0,.37-.07.74-.12,1.1.08-.55-.09.55-.09.54-.12.67-.26,1.33-.41,2a35,35,0,0,1-1.28,4,2.12,2.12,0,0,1-.22.54c-.13.28-.25.56-.39.83q-.43.92-.93,1.8c-.37.64-.75,1.27-1.16,1.88-.2.31-.41.61-.62.91-.06.07-.64.84-.35.48-1.11,1.41-1.48,3.5,0,4.86,1.23,1.13,3.67,1.51,4.86,0a35.78,35.78,0,0,0,7.58-19,3.47,3.47,0,0,0-2.52-3.31c-.71-.25-1.43-.51-2.12-.81.54.23-.25-.12-.37-.17l-.89-.42a38,38,0,0,1-3.68-2.06q-.82-.51-1.62-1.08c-.31-.21-.62-.44-.92-.66l-.39-.3c.26.21.24.19-.08-.06-1-.87-2.06-1.75-3-2.7s-1.88-2-2.74-3l-.62-.76c.39.49-.27-.37-.34-.47q-.63-.86-1.2-1.74a38,38,0,0,1-2.11-3.65c-.3-.58-.57-1.17-.84-1.76s.11.3-.16-.38c-.16-.4-.31-.81-.46-1.21a3.5,3.5,0,0,0-4.23-2.4c-1.65.53-3.07,2.42-2.4,4.22Z" transform="translate(-278.27 -439.08)"/><path d="M2695.65,1324.32a34.28,34.28,0,0,1-4.71,2.69c-.18.08-1.34.58-.64.3l-1.09.42c-.91.35-1.84.65-2.77.92a39.26,39.26,0,0,1-5.15,1.08c.81-.11-.47,0-.68.07l-1.32.11c-.92.06-1.85.09-2.78.08s-1.67,0-2.5-.08l-1.32-.11-.73-.08c-.18,0-1.05-.15-.25,0a45.83,45.83,0,0,1-5.18-1.09c-.84-.24-1.69-.5-2.52-.79l-1.1-.41-.54-.21c-.76-.29.41.19-.27-.11a39.62,39.62,0,0,1-4.79-2.5c-.87-.53-1.72-1.1-2.54-1.71l-.47-.35c.61.46-.16-.13-.22-.18-.38-.31-.75-.63-1.11-.95a33.68,33.68,0,0,1-4.21-4.48c-1.12-1.42-3.71-1.25-4.86,0a3.53,3.53,0,0,0,0,4.86c9.9,12.58,27.65,17.61,42.95,13.88a38.19,38.19,0,0,0,12.27-5.39,3.44,3.44,0,1,0-3.47-5.94Z" transform="translate(-278.27 -439.08)"/><path d="M2663.58,1379l-33.65,10.16a3.44,3.44,0,0,0,1.83,6.63l33.65-10.16a3.44,3.44,0,0,0-1.83-6.63Z" transform="translate(-278.27 -439.08)"/><path d="M2495.77,1337.44c0-.76-.06-1.51,0-2.27l.06-1.05.06-.59c.05-.68-.06.3,0-.12a28.09,28.09,0,0,1,1.1-4.45c.11-.33.23-.65.36-1,0-.1.27-.67.11-.28s0-.09.06-.13c.33-.72.68-1.43,1.07-2.12s.75-1.29,1.16-1.91c.2-.29.39-.58.6-.86l.35-.49c.38-.51-.14.17.11-.13a34.43,34.43,0,0,1,3.19-3.42c.52-.48,1.06-1,1.61-1.39l.48-.38c-.49.37-.07,0,0,0l1-.7a32,32,0,0,1,4.09-2.38c.31-.16.64-.3,1-.45.6-.28.15-.07,0,0l.56-.23c.76-.29,1.53-.56,2.3-.8a33.9,33.9,0,0,1,4.44-1c-.74.12.37,0,.59,0l1.06-.08c.81,0,1.62-.05,2.43,0s1.52.09,2.28.18c-.68-.08.25,0,.46.08.46.08.91.16,1.36.26a30.82,30.82,0,0,1,4.54,1.36c.19.07,1.06.42.46.16q.55.24,1.11.51c.69.32,1.37.68,2,1a37.16,37.16,0,0,1,4,2.59c.09.07.51.4,0,0,.17.12.33.25.49.38l.82.69c.62.54,1.23,1.1,1.82,1.68a42,42,0,0,1,3.22,3.57s.33.43.11.14.25.34.3.4l.81,1.14c.5.73,1,1.47,1.43,2.23a41.22,41.22,0,0,1,2.41,4.73c-.26-.6.24.61.3.77.16.43.32.87.47,1.32.29.83.55,1.68.77,2.53s.43,1.71.6,2.57q.12.62.21,1.23c0,.2.07.41.1.61-.09-.62,0,.1,0,.32l5.86-2.43a30,30,0,0,0-22.59-10.07,29,29,0,0,0-21.82,10.41,29.54,29.54,0,0,0-6.29,12.42,3.44,3.44,0,1,0,6.63,1.83c.18-.82.4-1.64.66-2.44.13-.39.28-.79.43-1.18.23-.63.06-.19,0,0,.12-.29.25-.58.39-.86a25.74,25.74,0,0,1,2.69-4.44c.32-.44-.31.37,0,0,.13-.17.26-.33.4-.49.27-.32.55-.64.83-1,.61-.65,1.25-1.28,1.92-1.87q.48-.42,1-.81c.52-.43.17-.13,0,0l.51-.37a24.9,24.9,0,0,1,2.4-1.52c.73-.41,1.48-.78,2.25-1.12-.62.27.5-.19.64-.24.44-.16.89-.31,1.34-.45a23.46,23.46,0,0,1,2.34-.57c.14,0,1.39-.22.7-.13q.79-.1,1.62-.15a25,25,0,0,1,2.6,0c.43,0,.87,0,1.3.09l.65.07c-.51-.06,0,0,.21,0a27.5,27.5,0,0,1,5.2,1.38l.6.24c-.61-.25.35.15.38.17.44.2.88.42,1.32.65a25.4,25.4,0,0,1,2.64,1.6l.53.37c.5.35-.07-.07.21.16s.76.61,1.12.94a26.26,26.26,0,0,1,2.27,2.33c1.85,2.15,6.2.52,5.87-2.43-1.59-14.24-10.41-27.93-23.61-34.05a33.45,33.45,0,0,0-21.55-2.55,35.6,35.6,0,0,0-18.08,10.54c-5.44,5.9-8.86,13.71-8.4,21.83a3.44,3.44,0,0,0,6.88,0Z" transform="translate(-278.27 -439.08)"/><path class="ab" d="M3138.1,1987.12H2371.65a392.76,392.76,0,0,1-20.45-34.9c-21.61-40.91-51.71-111.76-45.11-179.41,7.32-74.88,57-157.7,83.76-197.66,10.36-15.43,24.36-30.56,40.77-39.26l122.55-58.06s60.51,161.36,123.54,141.19c32.3-10.34,7.57-151.27,7.57-151.27s176.48,12.6,231.95,123.54C2989.58,1738,3138.1,1987.12,3138.1,1987.12Z" transform="translate(-278.27 -439.08)"/><path class="ab" d="M2542.7,1480.35l4.79-42.85s51.08,64.28,72.31,169.54C2619.8,1607,2542.7,1520.69,2542.7,1480.35Z" transform="translate(-278.27 -439.08)"/><path class="ab" d="M2671.28,1404.93s-40.51,102.94,12.61,188.88l8.22-124.29Z" transform="translate(-278.27 -439.08)"/><path class="ac" d="M2830.45,1167.08h212.27a11.77,11.77,0,0,0,11.77-11.78v-84.24a11.77,11.77,0,0,0-11.77-11.77H2859.78a11.77,11.77,0,0,0-11.77,11.77v75a7.08,7.08,0,0,1-2.54,5.43l-15.86,13.29A1.31,1.31,0,0,0,2830.45,1167.08Z" transform="translate(-278.27 -439.08)"/><circle class="ad" cx="2633.04" cy="674.59" r="7.19"/><circle class="ad" cx="2672.76" cy="674.59" r="7.19"/><circle class="ad" cx="2713.06" cy="674.59" r="7.19"/><path class="ae" d="M2703.66,1905.56s17.21-6.9,20-5.73.51,19.4.51,19.4-18.33,83.68-35.37,85.13,3.47-66.9,3.47-66.9Z" transform="translate(-278.27 -439.08)"/><path class="p" d="M2652.24,1904.4l69.46,4.74a60.88,60.88,0,0,0,33.67-7.46c25-13.83,72.6-39.9,87-46.15,10.56-4.59,29.6-8.64,45.09-11.42a6.19,6.19,0,0,1,4.82,11L2854,1884.21a10.49,10.49,0,0,0,3.64,18.5l46.51,12.4a46.49,46.49,0,0,0,19.71.92c19.09-3.23,62-9.17,86.4-2.22a4,4,0,0,1,.46,7.6l-17.71,7.7-35.72,10-1.66,7-21.06,31.18a59.77,59.77,0,0,1-12.59,13.54l-24.84,19.53a47.57,47.57,0,0,1-38.23,9.35L2722.34,1994a92.05,92.05,0,0,0-14.89-1.55l-75-1.68Z" transform="translate(-278.27 -439.08)"/><path class="ab" d="M2654.85,1940.4c-3.14,13.44-4.21,30.51-.75,51.75.48,3,1.05,6,1.71,9.11,0,0,0,0,0,0-3.28,1.5-167.49,76.59-284.79-9.14L2414.26,1882a71.92,71.92,0,0,1,9.71-12.83c17.14-18.75,59-50.29,140.69-38.85,113.94,16,113.94,68.36,113.94,68.36S2661.71,1910.64,2654.85,1940.4Z" transform="translate(-278.27 -439.08)"/><path class="af" d="M2678.6,1898.72s-41,22.79-22.79,102.54l29.44,3.47a8.17,8.17,0,0,0,9.13-8.09c.07-21.36,2.95-74.11,28.7-94.25a2,2,0,0,0-1.21-3.67Z" transform="translate(-278.27 -439.08)"/><path class="ag" d="M2581.56,1542.53s205.4-44.2,210.6-26c6.06,21.21-106.6,39-106.6,39s10.4,23.4,7.8,31.2c0,0-2.6-7.8,2.6,13s-13,33.8-13,33.8,7.8,10.4-15.6,23.4-98.8,10.4-98.8,10.4l-33.79-20.8Z" transform="translate(-278.27 -439.08)"/><path class="p" d="M2197.15,1685.76l-8.56,157.43-2,37.19L2180,2000.59l-.4,7.19c-.19,0-.42,0-.64-.07-19.06-2-83-30.09-142.08-68a148.93,148.93,0,0,1-25.68-21c-.07-.07-.12-.15-.22-.25-5.57-5.64-9.53-10.42-12.14-13.11-1.72-1.72-2.66-2.79-2.89-3l0,0s-2.88,6.87-7.46,18.44c-2.07,5.2-4.46,11.29-7.12,18.16-5.87,15.33-13,34.41-20.15,55.12-14.56,41.9-9.48,80.81-9.48,80.81L1797,2068.22l-553.79-23.32c-195.18-80-94.23-318.09,91.81-482.11,142.92-126,351.58-166,351.58-166l34,9.28s102.75-19.6,244.34,38.37,71.09,50.81,101.24,84.55c29.19,32.62,124.46,148.72,130.68,156.33C2197.05,1685.63,2197.15,1685.76,2197.15,1685.76Z" transform="translate(-278.27 -439.08)"/><path class="p" d="M2314.86,1917.31c-2.65,34.63-8.84,70.33-36.78,89.2-9.18,6.19-20.73,10.56-35.26,12.48l-13.18-1.24-33.83-3.23-16.53-5.59-.29-1.22-32.57-132.49-7.36-30-31.2-126.82,88.94-33.05.34-.13,58,62.5,10.79,11.63,30.68,33S2319.41,1857.46,2314.86,1917.31Z" transform="translate(-278.27 -439.08)"/><path class="p" d="M2490.62,1814.12s-44.25,64-105.82,120.74c-6.63,6.11-13.47,12.14-20.46,18-27.17,22.7-56.42,42.07-86.26,53.66-16,6.24-32.27,10.22-48.44,11.24a122.21,122.21,0,0,1-32-2,120.15,120.15,0,0,1-28.29-9.43c-14-6.69-27.79-16.46-41.1-29.83-.6-.59-1.17-1.27-1.74-1.92a79.38,79.38,0,0,1-.81-8.45c-.86-15.39.16-50.26,20.7-90.89,2.67-5.28,5.66-10.64,9-16.07,2.67-4.37,5.61-8.76,8.78-13.18a243.15,243.15,0,0,1,21.3-25.69c19.76-20.88,45.89-41.7,80.41-60.91,4.48-2.47,9.08-4.94,13.83-7.36,5.33-2.76,10.9-5.46,16.64-8.11l98.31-55.38,4.26,5.59,70.23,92Z" transform="translate(-278.27 -439.08)"/><path class="ah" d="M1403,1881.31s51.76-43.93,144.13-16.57c114.61,34,182.91,118.72,181.95,135.92,0,0,16.67-14.67-11.71-54.89C1664.88,1871.34,1457.41,1790.69,1403,1881.31Z" transform="translate(-278.27 -439.08)"/><path class="ai" d="M1988.47,1920.67c-2.06,5.19-4.45,11.3-7.11,18.16-5.89,15.33-13,34.41-20.17,55.11-14.54,41.91-9.47,80.82-9.47,80.82L1797,2066.09l-112.38-6.31c42.59-3.58,79.83-10.36,112.38-19.31,91.13-25,145.39-66.78,176.65-101.64C1979.3,1932.5,1984.22,1926.41,1988.47,1920.67Z" transform="translate(-278.27 -439.08)"/><path class="aj" d="M1961.19,2043.34c-14.54,41.91-9.47,80.82-9.47,80.82L1797,2117.63v-129.4h184.4C1975.47,2003.56,1968.37,2022.64,1961.19,2043.34Z" transform="translate(-278.27 -439.08)"/><polygon class="ag" points="2115.32 1259.14 2224.13 1175.88 2290.85 1229.38 2178.93 1361.11 2115.32 1259.14"/><path class="ag" d="M2517.5,1666.43l-18-46.68,27.63-69.72,58.12-39,74.28-20.48s14.41,18.86-18,35c-18.4,9.18-49.21,18.51-49.21,18.51S2618.81,1616.66,2517.5,1666.43Z" transform="translate(-278.27 -439.08)"/><polygon class="r" points="1044.93 1769.03 847.34 1849.63 1642.92 1849.63 1785.71 1760.72 1044.93 1769.03"/><polygon class="ak" points="1897.71 1653.86 1690.66 1653.86 1763.44 1726.64 1897.71 1653.86"/><polygon class="al" points="1897.71 1653.86 1758.69 1728.71 1758.69 1776.83 1897.71 1693.95 1897.71 1653.86"/><path class="al" d="M1205.54,1758.77l17.58-10.55a38.6,38.6,0,0,1,19.84-5.49h678.43a22.06,22.06,0,0,1,21.21,16l113.07,398.35L2037,2167.79Z" transform="translate(-278.27 -439.08)"/><path class="ak" d="M2037,2167.79H1331.18l-125.62-409h711.15a10.46,10.46,0,0,1,10.09,7.67l87,317Z" transform="translate(-278.27 -439.08)"/><rect class="al" x="1044.9" y="1728.71" width="721.81" height="48.12" rx="6.37"/><rect class="ad" x="1554.6" y="1929.92" width="83.2" height="15.6" rx="7.51" transform="translate(2914.12 3436.36) rotate(180)"/><rect class="ad" x="1570.19" y="1955.92" width="83.2" height="15.6" rx="7.51" transform="translate(2945.32 3488.36) rotate(-180)"/><rect class="ad" x="1588.39" y="1979.32" width="83.2" height="15.6" rx="7.51" transform="translate(2981.72 3535.15) rotate(180)"/><path class="am" d="M2037,2167.79H1331.18l-125.62-409h140.55c103,92,347.53,279.9,667.71,324.68Z" transform="translate(-278.27 -439.08)"/><polygon class="r" points="3561.66 1849.63 2942.88 1849.63 2766.08 1727.43 3205.47 1654.63 3447.26 1717.03 3561.66 1849.63"/><path class="an" d="M3627.42,1320.18l-790.91,24.06c-22.24,0-40.27,18.31-40.27,40.91v524.11c0,22.59,18,40.91,40.27,40.91l790.91-52.93c22.24,0,40.26-18.32,40.26-40.91V1361.09C3667.68,1338.49,3649.66,1320.18,3627.42,1320.18Z" transform="translate(-278.27 -439.08)"/><path class="ak" d="M3699.53,1349.92V1867.5a29.53,29.53,0,0,1-29.27,29.74l-24.23,1.58-282.45,18.39-506.22,33a29.53,29.53,0,0,1-29.27-29.74V1374a29.8,29.8,0,0,1,16.89-27,28.84,28.84,0,0,1,12.38-2.79l812.9-24.06a28.74,28.74,0,0,1,14.54,3.92A29.9,29.9,0,0,1,3699.53,1349.92Z" transform="translate(-278.27 -439.08)"/><polygon class="ao" points="2836.44 1342.36 2740.9 1347.17 2593.25 1511.09 2917.51 1489.43 2836.44 1342.36"/><path class="ap" d="M3424.49,1759.78l59.71,334c5.1,29.13-16.95,55.86-46.07,55.86l-259.73,24.06-63.69-392.28Z" transform="translate(-278.27 -439.08)"/><polygon class="aq" points="3367.76 1459.74 3085.31 1478.12 3165.17 1320.7 3279.17 1314.18 3367.76 1459.74"/><path class="ar" d="M3447.65,1759.78l59.71,334c5.1,29.13-17,55.86-46.07,55.86l-259.73,24.06-63.69-392.28Z" transform="translate(-278.27 -439.08)"/><path class="as" d="M2845,1347l122.09,126.63L3598.24,1440s65.22-81.65,86.55-115.89a28.66,28.66,0,0,0-14.53-3.91l-812.9,24.06A28.74,28.74,0,0,0,2845,1347Z" transform="translate(-278.27 -439.08)"/><path class="at" d="M3097.25,1556,3473.8,1532a8.67,8.67,0,0,0,8.59-8.74v-6.06a8.66,8.66,0,0,0-8.59-8.73l-376.55,24.06a8.67,8.67,0,0,0-8.6,8.73v6.07A8.67,8.67,0,0,0,3097.25,1556Z" transform="translate(-278.27 -439.08)"/><path class="at" d="M3097.25,1606,3473.8,1582a8.66,8.66,0,0,0,8.59-8.73v-6.06a8.67,8.67,0,0,0-8.59-8.74l-376.55,24.06a8.67,8.67,0,0,0-8.6,8.74v6.06A8.67,8.67,0,0,0,3097.25,1606Z" transform="translate(-278.27 -439.08)"/><path class="at" d="M3097.25,1656,3473.8,1632a8.67,8.67,0,0,0,8.59-8.74v-6.06a8.66,8.66,0,0,0-8.59-8.73l-376.55,24.06a8.67,8.67,0,0,0-8.6,8.73v6.06A8.67,8.67,0,0,0,3097.25,1656Z" transform="translate(-278.27 -439.08)"/><path class="at" d="M3097.25,1703.09,3473.8,1679a8.66,8.66,0,0,0,8.59-8.73v-6.07a8.66,8.66,0,0,0-8.59-8.73l-376.55,24.06a8.67,8.67,0,0,0-8.6,8.73v6.07A8.67,8.67,0,0,0,3097.25,1703.09Z" transform="translate(-278.27 -439.08)"/><path class="ar" d="M3202.21,2174.31l-159.41-8.64a20.48,20.48,0,0,1-19.21-19.47l-.13-2.45a20.49,20.49,0,0,1,20.82-21.78l157.93,4.22Z" transform="translate(-278.27 -439.08)"/><polygon class="au" points="2765.28 1682.3 2888.38 1662.25 2892.3 1686.41 2765.28 1682.3"/><path class="av" d="M1537.36,741.09H838a36.15,36.15,0,0,0-36.15,36.15V1197.9a58.86,58.86,0,0,0,58.86,58.86h468.87a12.23,12.23,0,0,1,8.17,3.1c25.37,22.54,73.77,56.84,157.34,87.63l-.26-.21.33.21a203.48,203.48,0,0,1-15-78.46,12.34,12.34,0,0,1,12.35-12.27h22.17a58.85,58.85,0,0,0,58.85-58.86V777.24A36.14,36.14,0,0,0,1537.36,741.09Z" transform="translate(-278.27 -439.08)"/><path class="aw" d="M1543.89,731.31H851.07a39.41,39.41,0,0,0-39.41,39.4v414.16A62.12,62.12,0,0,0,873.78,1247h464.37a15.67,15.67,0,0,1,10.35,3.92c25.61,22.54,73.84,56.39,156.4,86.81l-.26-.21.33.21a203.5,203.5,0,0,1-15-74.92,15.62,15.62,0,0,1,15.61-15.81h15.65a62.11,62.11,0,0,0,62.11-62.11V770.71A39.4,39.4,0,0,0,1543.89,731.31Z" transform="translate(-278.27 -439.08)"/><path class="ax" d="M1138.49,907.19a21.7,21.7,0,0,1,25.92,1.57q5.83,5.13,5.84,14a30.23,30.23,0,0,1-1.7,9.4l-59.25,162.07a20.55,20.55,0,0,1-9,10.68,26.82,26.82,0,0,1-14.1,3.85,26.08,26.08,0,0,1-14-3.85,20.74,20.74,0,0,1-8.83-10.68L1021,974.27l-43.58,119.92a20.74,20.74,0,0,1-8.83,10.68,27,27,0,0,1-27.77,0,20.58,20.58,0,0,1-9-10.68L872.59,932.12a27.46,27.46,0,0,1-1.71-9.12q0-8.82,6.27-14.1a23.4,23.4,0,0,1,27.2-1.71,20.47,20.47,0,0,1,8.12,10.4l43.86,126.18,45.58-125.61a21.16,21.16,0,0,1,8.12-10.54,21,21,0,0,1,23.78,0,21.46,21.46,0,0,1,8,10.82l43.58,127.61,45.29-128.46A21,21,0,0,1,1138.49,907.19Z" transform="translate(-278.27 -439.08)"/><path class="ax" d="M1204.72,1101q-5.42-5.41-5.41-15.38V926.42q0-10,5.41-15.38t15.38-5.42h100.84q21.07,0,21.07,17.1,0,17.37-21.07,17.37H1242.6v47h72.64q21.08,0,21.08,17.38,0,17.09-21.08,17.09H1242.6V1072h78.34q21.07,0,21.07,17.38,0,17.09-21.07,17.09H1220.1Q1210.13,1106.44,1204.72,1101Z" transform="translate(-278.27 -439.08)"/><path class="ax" d="M1524.17,1020.28q9.54,12.67,9.54,31.19,0,25.35-18.66,40.16t-51.41,14.81H1389q-10,0-15.38-5.41t-5.41-15.38V926.42q0-10,5.41-15.38t15.38-5.42h71.78q31.34,0,49.71,14t18.37,38.17q0,15.68-8.4,27.49a47.73,47.73,0,0,1-23.22,17.23Q1514.62,1007.6,1524.17,1020.28Zm-112.66-32.9h41.87q17.1,0,25.21-5.84t8.12-17.81q0-12.53-8.12-18.37t-25.21-5.84h-41.87Zm72.64,79.18q8-6,8-19.37t-8-19.65q-8-6.27-25.64-6.27h-47v51.27h47Q1476.17,1072.54,1484.15,1066.56Z" transform="translate(-278.27 -439.08)"/><path class="ay" d="M1127.25,893a21.7,21.7,0,0,1,25.92,1.57q5.85,5.11,5.84,13.95a30.13,30.13,0,0,1-1.7,9.4L1098.06,1080a20.58,20.58,0,0,1-9,10.68,26.88,26.88,0,0,1-14.11,3.85,26.08,26.08,0,0,1-14-3.85,20.74,20.74,0,0,1-8.83-10.68l-42.45-119.92L966.17,1080a20.74,20.74,0,0,1-8.83,10.68,27,27,0,0,1-27.77,0,20.58,20.58,0,0,1-9-10.68L861.35,918a27.36,27.36,0,0,1-1.71-9.11q0-8.82,6.27-14.1a23.4,23.4,0,0,1,27.2-1.71,20.47,20.47,0,0,1,8.12,10.4l43.86,126.18L990.67,904a21.21,21.21,0,0,1,8.12-10.54,20.92,20.92,0,0,1,11.82-3.71,20.71,20.71,0,0,1,12,3.71,21.46,21.46,0,0,1,8,10.82l43.58,127.61,45.29-128.46A21,21,0,0,1,1127.25,893Z" transform="translate(-278.27 -439.08)"/><path class="ay" d="M1193.48,1086.88q-5.42-5.42-5.41-15.38V912.27q0-10,5.41-15.38t15.38-5.42H1309.7q21.08,0,21.07,17.09,0,17.38-21.07,17.38h-78.34v47H1304q21.07,0,21.08,17.38,0,17.08-21.08,17.09h-72.64v50.41h78.34q21.08,0,21.07,17.38,0,17.08-21.07,17.09H1208.86Q1198.89,1092.29,1193.48,1086.88Z" transform="translate(-278.27 -439.08)"/><path class="ay" d="M1512.93,1006.12q9.54,12.69,9.54,31.19,0,25.37-18.66,40.17t-51.41,14.81h-74.63q-10,0-15.38-5.41T1357,1071.5V912.27q0-10,5.41-15.38t15.38-5.42h71.78q31.34,0,49.71,14t18.37,38.17q0,15.67-8.4,27.49A47.73,47.73,0,0,1,1486,988.32Q1503.38,993.45,1512.93,1006.12Zm-112.66-32.9h41.88q17.08,0,25.2-5.83t8.12-17.81q0-12.52-8.12-18.37t-25.2-5.84h-41.88Zm72.64,79.19q8-6,8-19.37t-8-19.65q-8-6.27-25.64-6.27h-47v51.27h47Q1464.94,1058.39,1472.91,1052.41Z" transform="translate(-278.27 -439.08)"/><rect class="ad" x="1691.83" y="157.74" width="256.41" height="27.34"/><rect class="ad" x="1768.08" y="213.54" width="180.16" height="27.11"/><rect class="ad" x="1617.61" y="269.11" width="330.64" height="27.34"/><rect class="ad" x="1485.69" y="324.91" width="462.56" height="27.11"/><path class="aw" d="M1728,689.56Zm-16-61a30.83,30.83,0,1,0,9,21.8,30.7,30.7,0,0,0-9-21.8ZM1705.26,598a54.49,54.49,0,0,1,22.68,13.14,1.9,1.9,0,0,0,2.26.28l14.33-8.27.08-.05a3.57,3.57,0,0,1,4.77,1.35l.06.1L1759.52,622a3.58,3.58,0,0,1-1.3,4.85l-.1.06-14.21,8.2a1.88,1.88,0,0,0-.89,2.09h0a53.2,53.2,0,0,1,1.2,6.52,55.31,55.31,0,0,1,0,13.28,52.7,52.7,0,0,1-1.2,6.51,1.9,1.9,0,0,0,1,2.15l14.21,8.2h0a3.5,3.5,0,0,1,1.64,2.16,3.54,3.54,0,0,1-.34,2.69l-10.14,17.56h0a3.58,3.58,0,0,1-2.16,1.65,3.5,3.5,0,0,1-2.69-.35l-.1,0-14.23-8.22a1.91,1.91,0,0,0-2.26.28,54.43,54.43,0,0,1-22.76,13.16,1.89,1.89,0,0,0-1.38,1.82v16.52a3.55,3.55,0,0,1-3.55,3.55H1680a3.55,3.55,0,0,1-3.55-3.55V704.54a1.91,1.91,0,0,0-1.46-1.85,54.32,54.32,0,0,1-22.68-13.13,1.89,1.89,0,0,0-2.36-.22l-14.22,8.22a3.59,3.59,0,0,1-4.86-1.31l-.06-.1-10.08-17.46h0a3.58,3.58,0,0,1,1.3-4.84l14.31-8.26a1.9,1.9,0,0,0,.9-2.09h0A53.2,53.2,0,0,1,1636,657a55.31,55.31,0,0,1,0-13.28,53.2,53.2,0,0,1,1.2-6.52,1.91,1.91,0,0,0-1-2.15l-14.21-8.2a3.51,3.51,0,0,1-1.64-2.15,3.56,3.56,0,0,1,.34-2.7l.06-.11,10.08-17.45h0a3.58,3.58,0,0,1,4.85-1.31h0l14.33,8.27a1.89,1.89,0,0,0,2.3-.32,54.83,54.83,0,0,1,10.56-7.95,54.17,54.17,0,0,1,12.16-5.16,1.9,1.9,0,0,0,1.38-1.83V579.59a3.55,3.55,0,0,1,3.55-3.54h20.27a3.55,3.55,0,0,1,3.55,3.54v16.53A1.88,1.88,0,0,0,1705.26,598Z" transform="translate(-278.27 -439.08)"/><path class="aw" d="M2147.72,946.74Zm-17-64.92a32.82,32.82,0,1,0,9.6,23.19,32.69,32.69,0,0,0-9.6-23.19Zm-7.09-32.51a57.57,57.57,0,0,1,12.86,5.48,58.24,58.24,0,0,1,11.28,8.5,2,2,0,0,0,2.4.29l15.24-8.8.08,0a3.81,3.81,0,0,1,5.08,1.43l.06.11,10.72,18.57a3.81,3.81,0,0,1-1.38,5.17l-.11.06-15.11,8.73a2,2,0,0,0-.95,2.22h0A59.7,59.7,0,0,1,2165,898a58.25,58.25,0,0,1,0,14.13,59.7,59.7,0,0,1-1.27,6.93,2,2,0,0,0,1.06,2.28l15.11,8.73h0a3.81,3.81,0,0,1,1.38,5.17l-10.78,18.67h0a3.75,3.75,0,0,1-2.3,1.75,3.7,3.7,0,0,1-2.86-.36l-.11-.06-15.14-8.74a2,2,0,0,0-2.39.29,57.93,57.93,0,0,1-24.22,14,2,2,0,0,0-1.46,1.94v17.57a3.79,3.79,0,0,1-3.78,3.78h-21.57a3.79,3.79,0,0,1-3.77-3.78V962.68a2,2,0,0,0-1.55-2,58,58,0,0,1-24.13-14,2,2,0,0,0-2.5-.23l-15.14,8.74a3.72,3.72,0,0,1-2.87.36,3.76,3.76,0,0,1-2.29-1.75l-.06-.1-10.73-18.58h0a3.76,3.76,0,0,1-.37-2.85A3.83,3.83,0,0,1,2035,930l15.23-8.79a2,2,0,0,0,.95-2.22h0a57.66,57.66,0,0,1-1.27-6.93,58.25,58.25,0,0,1,0-14.13,57.66,57.66,0,0,1,1.27-6.93,2,2,0,0,0-1.06-2.29L2035,880a3.8,3.8,0,0,1-1.38-5.16l.06-.11,10.73-18.58h0a3.79,3.79,0,0,1,5.16-1.38h0l15.24,8.8a2,2,0,0,0,2.44-.34,58.54,58.54,0,0,1,11.24-8.45,57.25,57.25,0,0,1,12.93-5.5,2,2,0,0,0,1.47-1.94V829.77a3.79,3.79,0,0,1,3.77-3.77h21.57a3.79,3.79,0,0,1,3.78,3.77v17.58A2,2,0,0,0,2123.58,849.31Z" transform="translate(-278.27 -439.08)"/><path class="aw" d="M1118.16,1300.65a6.91,6.91,0,0,1,13.81,0v16.24h16.24a6.91,6.91,0,1,1,0,13.81H1132v16.24a6.91,6.91,0,0,1-13.81,0V1330.7h-16.24a6.91,6.91,0,0,1,0-13.81h16.24Z" transform="translate(-278.27 -439.08)"/><path class="aw" d="M3833.63,1008.53a6.91,6.91,0,0,1,13.82,0v16.24h16.23a6.91,6.91,0,1,1,0,13.82h-16.23v16.23a6.91,6.91,0,1,1-13.82,0v-16.23H3817.4a6.91,6.91,0,0,1,0-13.82h16.23Z" transform="translate(-278.27 -439.08)"/><path class="aw" d="M825.81,1449.54a6.91,6.91,0,0,1,13.81,0v16.24h16.24a6.91,6.91,0,0,1,0,13.81H839.62v16.24a6.91,6.91,0,0,1-13.81,0v-16.24H809.57a6.91,6.91,0,0,1,0-13.81h16.24Z" transform="translate(-278.27 -439.08)"/><path class="aw" d="M3854.21,1833.78a6.91,6.91,0,1,1,13.81,0V1850h16.24a6.91,6.91,0,0,1,0,13.81H3868v16.23a6.91,6.91,0,0,1-13.81,0v-16.23H3838a6.91,6.91,0,0,1,0-13.81h16.24Z" transform="translate(-278.27 -439.08)"/><path class="aw" d="M3989.51,1925.09a6.91,6.91,0,1,1,13.81,0v16.23h16.23a6.91,6.91,0,1,1,0,13.81h-16.23v16.24a6.91,6.91,0,1,1-13.81,0v-16.24h-16.24a6.91,6.91,0,1,1,0-13.81h16.24Z" transform="translate(-278.27 -439.08)"/><path class="az" d="M2847,2178.91c23,10.65,47,21.65,65,40.06,18.67,19.11,27.24,44.89,36.29,69.4,17.92,48.52,38,96.53,64.08,141.29,25.79,44.24,57.76,85.28,97.6,117.72,39.48,32.16,85.43,55.93,134.12,70.65,51,15.42,105,19.93,158.08,19.88,54.43,0,108.94-8,159.1-29.87,10.69-4.65,20.6-9.89,29.82-17.06a208,208,0,0,0,26.28-24.68c16.68-18.41,30.47-38.28,36.45-62.72,10.15-41.48,6.61-85.9-2.22-127.25a450.24,450.24,0,0,0-46.74-124.24c-18.85-33.87-42.63-66.65-73.8-90.21a146.36,146.36,0,0,0-20.6-13.09c-4.44-2.31-8.39,4.42-3.93,6.74,32.2,16.76,57,45.93,76.65,75.8,23.65,35.93,41.36,75.85,53.34,117.11,11.55,39.79,18.2,81.88,14.54,123.35-2.18,24.74-8.11,48.27-22.71,68.68-13.59,19-30.54,37.47-50.22,50.26-10.23,6.64-21.86,11.3-33.2,15.64a332.76,332.76,0,0,1-38.91,12.18,405.39,405.39,0,0,1-79,11,674.6,674.6,0,0,1-80.68-1.63c-26.24-1.94-52.19-5.12-77.8-11.31-48.49-11.72-94.83-32.31-135.47-61.31-41.48-29.61-75.43-68.21-102.72-111.07-27.14-42.64-48.07-88.92-66.27-136-9.12-23.58-16.35-48.44-28.73-70.58-12.2-21.8-30.67-37.49-52.25-49.58-10.44-5.84-21.28-10.89-32.13-15.9-4.53-2.09-8.49,4.63-3.94,6.73Z" transform="translate(-278.27 -439.08)"/><path class="ar" d="M2869.32,2178.79a22.57,22.57,0,0,1-1.74,3.43c-8.32,13.52-31.61,23.24-75.42,23.24a341.69,341.69,0,0,1-52-3.61c-45.86-7.07-68.29-23.27-79.27-37a28.45,28.45,0,0,1,4.06-39.68c15.78-13.15,46.77-28.36,103.79-23.74a155.88,155.88,0,0,1,47.52,11.57C2854.3,2129,2878.19,2157.62,2869.32,2178.79Z" transform="translate(-278.27 -439.08)"/><path class="ak" d="M2867.58,2182.22c-8.32,13.52-31.61,23.24-75.42,23.24a341.69,341.69,0,0,1-52-3.61c10.43-53,52-77,52-77C2829.75,2134.77,2856.82,2167.27,2867.58,2182.22Z" transform="translate(-278.27 -439.08)"/><path class="ak" d="M2869.32,2178.79c-24.2-39.65-72-56.53-72-56.53,4.13-2.08,11-5.43,18.92-9.23C2854.3,2129,2878.19,2157.62,2869.32,2178.79Z" transform="translate(-278.27 -439.08)"/><path class="ba" d="M2869.32,2178.79a22.57,22.57,0,0,1-1.74,3.43c-8.32,13.52-31.61,23.24-75.42,23.24a341.69,341.69,0,0,1-52-3.61c-45.86-7.07-68.29-23.27-79.27-37a28.12,28.12,0,0,1-6-14.82c12.58,6.39,29.3,12,51.53,15.39a340.17,340.17,0,0,0,52,3.61c43.81,0,67.1-9.72,75.42-23.24a22.57,22.57,0,0,0,1.74-3.43c2.55-6.06,2.4-12.72,0-19.53C2861.91,2139.16,2876.58,2161.47,2869.32,2178.79Z" transform="translate(-278.27 -439.08)"/><path class="bb" d="M2481.35,1373.46" transform="translate(-278.27 -439.08)"/><path class="ab" d="M1736.37,1442.12l140.08-363.53L2154,1095.51,2137.57,1306a85.76,85.76,0,0,1-95.72,78.49l-84.3-10.11-30.39,129Z" transform="translate(-278.27 -439.08)"/><path d="M1984.91,1150.14s215.08,50.64,239.9-47-279.84-176.67-371-98.24-61.79,277.84-61.79,277.84l119.44-13.65s-73.87-102.75-17.19-127.54,72.36,55.18,72.36,55.18Z" transform="translate(-278.27 -439.08)"/><path d="M2124.29,1204.26l17.62,41.89,2.07-5.1a53.78,53.78,0,0,1-8.39,5.07c-.76.37-1.53.74-2.32,1.05l-.43.17-1.19.45q-2.31.84-4.69,1.47c-1.58.42-3.18.77-4.79,1l-1.08.17c-.52.08-.48.07.12,0l-.72.09c-.78.09-1.57.17-2.35.22a52,52,0,0,1-10-.22c-2.36-.27-4.62,2.27-4.51,4.52.12,2.67,2,4.22,4.51,4.51a58,58,0,0,0,40.37-10.75c1.45-1.07,2.89-3.16,2.08-5.09L2133,1201.86a5,5,0,0,0-2.08-2.7,4.62,4.62,0,0,0-3.47-.45c-2.08.67-4.13,3.22-3.15,5.55Z" transform="translate(-278.27 -439.08)"/><path d="M2070.85,1298.92a139.94,139.94,0,0,1-25.09-7.47l-1.39-.57.05,0-.69-.29c-1-.45-2.06-.91-3.08-1.38q-3.06-1.41-6.06-3-5.73-3-11.17-6.49c-2-1.32-4.05-2.7-6-4.12-1-.73-2-1.48-3-2.24-.15-.11-.68-.52,0,0l-.74-.57-1.61-1.29a4.59,4.59,0,0,0-7.54,2c-4.08,10.61-4.15,22.59-1.13,33.48a59.48,59.48,0,0,0,17.56,28.51,53.29,53.29,0,0,0,17,10.14,4.54,4.54,0,0,0,5.55-3.15,4.62,4.62,0,0,0-3.15-5.55l-1.75-.68c-.46-.17.42.18.42.18a1.61,1.61,0,0,0-.4-.17l-1.05-.48c-1.16-.55-2.3-1.15-3.42-1.79s-2.19-1.33-3.25-2.07c-.51-.35-1-.72-1.5-1.08-.67-.5.65.53,0,0l-.89-.72a51.09,51.09,0,0,1-5.55-5.36c-.38-.43-.76-.86-1.13-1.3l-.63-.78-.27-.33c-.44-.54.2.15.18.23,0-.18-1-1.29-1.11-1.5-.39-.55-.77-1.1-1.14-1.66a54.93,54.93,0,0,1-3.82-6.77c-.27-.56-.52-1.13-.78-1.7-.34-.77.32.8,0,0-.15-.36-.29-.71-.43-1.07-.47-1.21-.9-2.43-1.28-3.67a54.32,54.32,0,0,1-1.78-7.54c0-.29-.08-.57-.13-.85-.09-.51.06.51.06.48,0-.18,0-.38-.07-.56-.08-.67-.15-1.33-.2-2-.1-1.23-.16-2.47-.17-3.71,0-1.47,0-3,.16-4.42a14,14,0,0,0,.22-2.13s-.15,1-.07.49c0-.18.05-.37.08-.56.06-.38.12-.75.19-1.13a46.25,46.25,0,0,1,2.35-8.41l-7.54,2a145.82,145.82,0,0,0,48.08,25.92,140,140,0,0,0,14.7,3.74c2.3.45,5-.66,5.55-3.15.51-2.24-.68-5.06-3.16-5.55Z" transform="translate(-278.27 -439.08)"/><path d="M1896.28,1182a19.87,19.87,0,0,1-.58-2.27c-.1-.47.11-.68,0,.45a4.53,4.53,0,0,0-.07-.62c0-.38,0-.76,0-1.13s0-.74,0-1.11c0-.13,0-.27,0-.4,0-.81-.24,1.21,0,.42a19.21,19.21,0,0,1,.53-2.08l.13-.36c.15-.46.49-.66-.17.35.17-.26.28-.6.42-.87a15.25,15.25,0,0,1,1.13-1.85c.09-.13.2-.26.29-.4.32-.45-.79.94-.27.37.22-.25.43-.52.66-.76a21.8,21.8,0,0,1,1.61-1.58,5.7,5.7,0,0,0,.81-.66c-.63.8-.68.5-.24.19l.35-.25c.64-.45,1.32-.87,2-1.27s1.36-.73,2.07-1.06l.5-.23c.8-.36-1.06.43-.25.11l1.17-.44a32.82,32.82,0,0,1,4.76-1.29l1.15-.19c.72-.12-.49.06-.51.06l.69-.08c.85-.09,1.7-.15,2.56-.17s1.55,0,2.32,0c.39,0,.77,0,1.16.09l.69.07c.89.09-1.17-.19-.29,0a26.77,26.77,0,0,1,4.67,1.15c.22.07,1.53.61.74.26s.4.19.6.28a21.09,21.09,0,0,1,2.17,1.22c.36.22.69.46,1,.7s.59.53-.37-.29c.17.15.36.28.53.43a23.32,23.32,0,0,1,2.09,2,16.9,16.9,0,0,1,2.07,2.41c-.67-1.08.27.38.42.6.36.51.7,1,1,1.55.55.88,1.06,1.78,1.54,2.7.24.46.47.92.7,1.39.13.28.26.56.38.85s.63,1,0,.06a14.1,14.1,0,0,1,1.09,2.93c.37,1.1.69,2.21,1,3.32a67.32,67.32,0,0,1,1.34,6.76c.1.69-.14-1.16,0-.08,0,.38.09.76.13,1.13.07.6.13,1.19.18,1.79.11,1.31.2,2.63.25,4,.12,2.66.12,5.32,0,8-.14,5.29-.58,10.57-1.1,15.84h9a37.08,37.08,0,0,0-11.52-23,41.32,41.32,0,0,0-22.8-11,34.39,34.39,0,0,0-14.51,1,4.51,4.51,0,0,0,2.4,8.7c.87-.26,1.76-.49,2.65-.67.42-.09.85-.15,1.27-.23.78-.13-.26.05-.35,0a5.63,5.63,0,0,0,1-.1,30.43,30.43,0,0,1,5.4,0,6.84,6.84,0,0,0,1.27.13c-1,.11-.69-.1-.21,0l.7.11c.94.17,1.87.37,2.79.62s1.65.47,2.46.74c.41.14.81.29,1.21.45l.67.26c1,.37-1-.44,0,0a41.25,41.25,0,0,1,4.82,2.58c.73.46,1.45.94,2.15,1.45l.23.18c.31.23.31.23,0,0l-.23-.18.46.36,1.1.92a36.91,36.91,0,0,1,3.93,4c.08.1.69,1,.82,1-.17,0-.57-.76-.19-.23l.42.57c.56.78,1.08,1.57,1.56,2.39s1,1.73,1.4,2.63c.11.22.2.43.3.65.49,1-.27-.75,0,.1.17.44.34.88.5,1.33a28.85,28.85,0,0,1,.86,3c.11.46.2.93.29,1.4,0,.24.06.48.11.71s0,.19-.06-.48c0,.19,0,.38.07.57.26,2.34,1.89,4.63,4.51,4.51a4.64,4.64,0,0,0,4.51-4.51c2-19.59,3-42.11-10.46-58.13a26.4,26.4,0,0,0-9.5-7.33,31.81,31.81,0,0,0-11.89-2.65,34.2,34.2,0,0,0-21,6.29,22.92,22.92,0,0,0-7.91,10,18.42,18.42,0,0,0-.19,12.26,4.51,4.51,0,0,0,8.7-2.4Z" transform="translate(-278.27 -439.08)"/><path class="bc" d="M1550.14,1747.34s57.38-48.06,58.75-106.24" transform="translate(-278.27 -439.08)"/><line class="bc" x1="1717.66" y1="1463.15" x2="1777.41" y2="1381.86"/><path class="bd" d="M2678.6,1898.72s-61.6-77-179.07-71.85c0,0,4.51-37.87,25.16-84.14" transform="translate(-278.27 -439.08)"/><line class="bd" x1="1728.64" y1="1460.62" x2="1768.08" y2="1437.55"/><path class="bd" d="M2647.67,1835.23c81.83-45,92.11-31.78,125-53.79" transform="translate(-278.27 -439.08)"/><path class="bd" d="M2265.93,1759.37l-22.37,49Z" transform="translate(-278.27 -439.08)"/><line class="bd" x1="2028.68" y1="1381.64" x2="2001.5" y2="1312.93"/></g></svg>