<svg xmlns="http://www.w3.org/2000/svg" xmlns:xlink="http://www.w3.org/1999/xlink" viewBox="0 0 4050.21 2247.68"><defs><style>.a{isolation:isolate;}.b{fill:#c0bfbf;}.b,.l,.m,.n,.o,.p,.w,.x{fill-rule:evenodd;}.c{fill:url(#a);}.ak,.al,.au,.av,.d,.j{fill:none;}.d,.j{stroke:#2c6d7c;}.ak,.al,.au,.av,.d,.f,.j,.k{stroke-miterlimit:10;}.d{stroke-width:5.34px;}.e{fill:#1b7154;}.f,.k{fill:#0e2d34;stroke:#0e2d34;}.f{stroke-width:4.96px;}.g{fill:url(#b);}.h{fill:url(#c);}.i{fill:url(#d);}.j{stroke-width:3.8px;}.k{stroke-width:3.53px;}.aa,.l{fill:#403e41;}.m{fill:#555356;}.n{fill:#d6d6d6;opacity:0.6;mix-blend-mode:multiply;}.o{fill:url(#e);}.p,.z{fill:#aa9af4;}.q{fill:#29c4cc;}.r{fill:#76d9e4;}.s,.x{fill:#fff;}.t{fill:#e04646;}.u{fill:#f95d84;}.v{fill:#373438;}.w{fill:#c0cdea;}.y{fill:#2d2a2e;}.ab{fill:#f0f0ee;}.ac{fill:#211f22;}.ad{fill:#929192;}.ae{fill:#4878ea;}.af{fill:#322f33;}.ag{fill:#fcd65b;}.ah{fill:#687ccd;}.ai{fill:#e27600;}.aj{fill:#ffa79b;}.ak{stroke:#f0f0ee;stroke-width:3.25px;}.al,.au,.av{stroke:#000;}.al{stroke-width:3.11px;}.am{fill:#ffba94;}.an{fill:#c91720;}.ao{fill:#2a3977;}.ap{fill:#e8c152;}.aq{fill:#c64747;}.ar{fill:#d44945;}.as{fill:#605f5f;}.at{fill:#b52d2d;}.au{stroke-width:3.85px;}.av{stroke-width:6.68px;}</style><linearGradient id="a" x1="12890.9" y1="2435.38" x2="13337.19" y2="3344.91" gradientTransform="matrix(-0.98, -0.17, -0.17, 0.98, 16939.28, 1511.83)" gradientUnits="userSpaceOnUse"><stop offset="0" stop-color="#8ccc6d"/><stop offset="0.19" stop-color="#81c768"/><stop offset="0.54" stop-color="#62b85b"/><stop offset="0.92" stop-color="#39a54a"/></linearGradient><linearGradient id="b" x1="2039.78" y1="2168.88" x2="2431.78" y2="2739.53" gradientUnits="userSpaceOnUse"><stop offset="0" stop-color="#00b488"/><stop offset="0.92" stop-color="#007bc0"/></linearGradient><linearGradient id="c" x1="3238.05" y1="2043.65" x2="2920.48" y2="2668.87" xlink:href="#b"/><linearGradient id="d" x1="2811.07" y1="943.48" x2="3128.78" y2="1590.96" gradientTransform="translate(-2109.98 1511.83) rotate(-9.99)" xlink:href="#a"/><linearGradient id="e" x1="1726.16" y1="1806.99" x2="2109.13" y2="2148.11" gradientUnits="userSpaceOnUse"><stop offset="0" stop-color="#571d98"/><stop offset="1" stop-color="#736dc5"/></linearGradient></defs><g class="a"><path class="b" d="M1071.49,1967.93H792.38c-155.78,0-283.24,127.45-283.24,283.23h0c0,155.78,127.46,283.23,283.24,283.23H3544.73c252.25,0,458.63-206.39,458.63-458.63h0c0-252.25-206.38-458.64-458.63-458.64h0c-106.66,0-193.91-87.26-193.91-193.92h0c0-106.65,87.25-193.92,193.91-193.92h233.39c110.89,0,201.62-90.73,201.62-201.61h0c0-110.89-90.73-201.62-201.62-201.62H3483a78.71,78.71,0,0,1-78.49-78.49h0A78.71,78.71,0,0,1,3483,669.07h52a54.33,54.33,0,0,0,54.17-54.17h0A54.33,54.33,0,0,0,3535,560.72H3193.65c-71.9,0-79.91,84.94-261.51,84.94H2408.89a70.9,70.9,0,0,0-70.69,70.68h0A70.9,70.9,0,0,0,2408.89,787h67.89c56.32,0,102.41,46.1,102.41,102.42h0c0,56.33-46.09,102.42-102.41,102.42H2374.62c-275.88,0-314.84,72.1-363.16,215.49s-299.25,155-299.25,155H1033.14c-84.88,0-154.34,69.46-154.34,154.35h0c0,84.88,69.45,154.34,154.34,154.34h38.35c81.65,0,148.45,66.8,148.45,148.46h0c0,81.65-66.8,148.46-148.45,148.46ZM3687,669.07a54.18,54.18,0,1,1,54.17-54.17A54.18,54.18,0,0,1,3687,669.07Z" transform="translate(-413.16 -365.43)"/><path class="c" d="M3100,2100.36c-2.3,39.64,1.48,79.39,8.55,119.07s17.34,79.2,28,118.4c11.41,41.85,19,85.37,27.56,128.52l238.48,42a838,838,0,0,1,174.67-70.68c52.73-14.75,108.19-25,155.14-50.06s85.13-69.22,81.51-120.65-63.64-102.81-116.82-89.23c-21.47,5.48-47,18.93-63.88,3.6-15.92-14.47-2.94-37.86,13.88-48.83,27.45-17.94,62.4-24.41,95.44-33.16s66.82-21.47,85.14-47.33,13.63-68.12-17.8-85.22c-11.73-6.39-25.93-8.81-36-17.31-16.93-14.31-13.94-39.26-1.78-55.07s31-26.05,45.48-40.14c50.73-49.49,26.42-147.1-45.1-180.86s-165.62,7.89-174.41,77.21c-2.75,21.48,1.46,44.28-5.19,64.76s-30.77,37.95-53.38,28.4c-22.91-9.65-26.6-37.55-41.55-56.24-24.83-31.14-79.61-29.66-107.13-4.7s-33.14,64.43-30.35,101.35,12.59,74.09,10.46,110.65c-.77,12.83-5,27.69-18.52,30.87-21.58,5.12-35.84-21.88-49.16-39.74-31.87-42.64-104.59-45.3-145.31-15.53S3102.81,2051.25,3100,2100.36Z" transform="translate(-413.16 -365.43)"/><path class="d" d="M3499.84,2121.26a4141.47,4141.47,0,0,0-220.43,365.4l5.81,1c1.91-3.65,3.86-7.27,5.82-10.91q27.87-51.71,57.35-102.65a1638.42,1638.42,0,0,1,295.33-115.65c3.34-.93.82-5.68-2.5-4.72a1641.15,1641.15,0,0,0-288,112q98.31-169.53,212.89-329.88a3,3,0,0,0,.82-.14l120.16-37.86c3.31-1.06.79-5.77-2.49-4.72q-56.74,17.85-113.48,35.75,64.93-90.45,134.74-177.67c2-2.54-2.64-5.72-4.66-3.18q-66.87,83.43-129.27,169.92-33.69,46.68-65.93,94.25a827.71,827.71,0,0,0-10.64-186.84c-.54-3.25-6-2.64-5.47.62a822.41,822.41,0,0,1,9.92,195C3499.82,2121.05,3499.83,2121.17,3499.84,2121.26Z" transform="translate(-413.16 -365.43)"/><path class="d" d="M3250.81,2481.63l5.54,1c26.18-124.74,34.28-252.83,27.91-383.1-.14-3.24-5.74-4-5.58-.73C3285.06,2229,3277,2357,3250.81,2481.63Z" transform="translate(-413.16 -365.43)"/><path class="e" d="M3473.9,2305.3c.59,24.33,4.9,48.43,11.22,72.32s14.59,47.52,23.08,70.93c9.09,25,15.92,51.21,23.32,77.15l147.83,13.65a513.92,513.92,0,0,1,103.17-52c31.48-11.67,64.86-20.73,92.28-38.41s48.53-46.58,43.72-77.82-44.06-59.62-75.87-48.64c-12.85,4.43-27.79,13.94-38.85,5.42-10.46-8-3.7-23,6-30.54,15.87-12.34,36.9-18,56.65-25.07s39.74-16.48,49.64-33.2,4.89-42.32-15.18-51.18c-7.48-3.32-16.28-4.08-22.84-8.77-11.06-7.89-10.49-23.28-3.86-33.56s17.65-17.48,25.77-26.82c28.5-32.79,8.73-91.21-36.67-108.24s-100.8,13.17-102.68,56c-.6,13.26,3.12,27,.09,39.83s-16.89,24.74-31.19,20c-14.48-4.74-18.14-21.6-28.22-32.27-16.74-17.77-50.14-14.11-65.69,2.53s-17,41-13.44,63.45,11.42,44.64,12,67.09c.18,7.88-1.67,17.17-9.76,19.79-12.93,4.22-23-11.56-32-21.81-21.62-24.45-66.19-22.4-89.57-2.16S3473.17,2275.14,3473.9,2305.3Z" transform="translate(-413.16 -365.43)"/><path class="f" d="M3719.3,2297.92A2538.65,2538.65,0,0,0,3603,2532.3l3.61.33c1-2.33,2-4.63,3-7q14.41-33,29.86-65.61a1004.92,1004.92,0,0,1,174.63-85.54c2-.74.22-3.51-1.76-2.76A1005.48,1005.48,0,0,0,3642,2454.68q51.53-108.54,113.47-212.29a2.06,2.06,0,0,0,.5-.13l71.51-29.19c2-.81.19-3.56-1.76-2.75q-33.78,13.75-67.54,27.55,35.12-58.53,73.38-115.34c1.11-1.66-1.9-3.36-3-1.71q-36.66,54.34-70.43,110.33-18.24,30.22-35.54,60.92a507,507,0,0,0-15.91-113.63c-.49-2-3.82-1.31-3.31.65a503.81,503.81,0,0,1,15.88,118.63C3719.27,2297.79,3719.29,2297.86,3719.3,2297.92Z" transform="translate(-413.16 -365.43)"/><path class="f" d="M3585.29,2530.66l3.43.32c9.71-77.54,8.21-156.22-2.24-235.5-.26-2-3.72-2.15-3.45-.16C3593.49,2374.56,3595,2453.19,3585.29,2530.66Z" transform="translate(-413.16 -365.43)"/><path class="g" d="M2896.82,2404.14S2691.49,2061.41,2423,2208.66c0,0-126.36-242.51-284.3-126.28s-126.36,242.56-126.36,242.56-321.29-321.23-481.73-85.57,221.13,294,221.13,294h1145.1Z" transform="translate(-413.16 -365.43)"/><path class="h" d="M3480.5,2296.54c-62.56-73.84-157.68-140.55-267.21-63.09,0,0-92.15-228.07-207.35-118.76s-92.15,228.12-92.15,228.12-293.74-338-351.33-80.48,161.27,276.48,161.27,276.48h835.13C3558.86,2444.55,3530.17,2355.16,3480.5,2296.54Z" transform="translate(-413.16 -365.43)"/><path class="i" d="M1335.68,2256.61c1.64,28.22-1,56.52-6.08,84.76s-12.35,56.39-19.95,84.29c-8.13,29.79-13.53,60.78-19.62,91.5l-169.77,29.89a597.3,597.3,0,0,0-124.35-50.32c-37.53-10.49-77-17.79-110.44-35.63s-60.6-49.28-58-85.89,45.3-73.19,83.16-63.52c15.28,3.9,33.49,13.47,45.47,2.56,11.33-10.3,2.09-26.95-9.88-34.76-19.54-12.77-44.42-17.37-67.94-23.61s-47.57-15.28-60.61-33.69-9.71-48.5,12.67-60.66c8.35-4.56,18.46-6.28,25.6-12.33,12.05-10.19,9.92-27.95,1.26-39.2s-22.09-18.55-32.37-28.58c-36.11-35.23-18.81-104.72,32.11-128.75s117.9,5.61,124.16,55c2,15.3-1.05,31.53,3.69,46.11s21.9,27,38,20.22c16.31-6.88,18.94-26.74,29.58-40,17.68-22.16,56.68-21.1,76.26-3.34s23.6,45.87,21.61,72.15-9,52.74-7.44,78.77c.54,9.14,3.57,19.71,13.18,22,15.36,3.64,25.51-15.58,35-28.3,22.69-30.35,74.46-32.24,103.45-11.05S1333.65,2221.65,1335.68,2256.61Z" transform="translate(-413.16 -365.43)"/><path class="j" d="M1051,2271.48a2951.26,2951.26,0,0,1,156.93,260.13l-4.14.73c-1.36-2.6-2.75-5.17-4.15-7.76q-19.83-36.81-40.82-73.07a1166,1166,0,0,0-210.24-82.34c-2.38-.66-.59-4,1.78-3.35a1167.16,1167.16,0,0,1,205,79.7q-70-120.69-151.55-234.84a2.09,2.09,0,0,1-.59-.1l-85.54-27c-2.36-.75-.56-4.1,1.78-3.35q40.39,12.7,80.78,25.44-46.21-64.38-95.92-126.48c-1.44-1.8,1.88-4.06,3.32-2.25q47.61,59.39,92,120.95,24,33.24,46.93,67.1a589.75,589.75,0,0,1,7.57-133c.39-2.31,4.3-1.88,3.9.44a584.49,584.49,0,0,0-7.06,138.8C1051,2271.34,1051,2271.42,1051,2271.48Z" transform="translate(-413.16 -365.43)"/><path class="j" d="M1228.28,2528l-3.94.69c-18.64-88.8-24.4-180-19.87-272.73.1-2.3,4.09-2.84,4-.51C1203.9,2348.18,1209.64,2439.31,1228.28,2528Z" transform="translate(-413.16 -365.43)"/><path class="e" d="M1069.47,2402.5c-.42,17.32-3.49,34.48-8,51.49s-10.38,33.83-16.43,50.49c-6.47,17.8-11.33,36.46-16.6,54.92l-105.24,9.72a365.48,365.48,0,0,0-73.44-37c-22.41-8.31-46.17-14.76-65.69-27.34s-34.55-33.16-31.13-55.4,31.37-42.44,54-34.63c9.15,3.16,19.79,9.92,27.66,3.86,7.44-5.73,2.64-16.36-4.29-21.74C819,2388.07,804.06,2384,790,2379s-28.3-11.73-35.34-23.64-3.49-30.12,10.8-36.43c5.33-2.36,11.59-2.9,16.26-6.24,7.88-5.62,7.47-16.57,2.75-23.89s-12.57-12.45-18.34-19.09c-20.3-23.35-6.22-64.94,26.1-77.06s71.76,9.37,73.1,39.84c.43,9.45-2.23,19.21-.07,28.36s12,17.61,22.2,14.27,12.92-15.38,20.09-23c11.92-12.65,35.7-10,46.77,1.8s12.11,29.22,9.57,45.17-8.13,31.78-8.52,47.76c-.12,5.61,1.19,12.22,7,14.1,9.2,3,16.38-8.24,22.81-15.53,15.39-17.41,47.12-15.95,63.77-1.54S1070,2381,1069.47,2402.5Z" transform="translate(-413.16 -365.43)"/><path class="k" d="M894.78,2397.25a1810.44,1810.44,0,0,1,82.78,166.85l-2.57.24c-.7-1.66-1.42-3.3-2.14-5q-10.26-23.51-21.26-46.71a715.18,715.18,0,0,0-124.32-60.9c-1.42-.53-.16-2.5,1.26-2a716,716,0,0,1,121.26,59Q913.1,2431.57,869,2357.72a1.5,1.5,0,0,1-.35-.09l-50.91-20.78c-1.4-.58-.14-2.54,1.25-2l48.08,19.61q-25-41.67-52.24-82.11c-.79-1.18,1.35-2.39,2.14-1.21q26.1,38.68,50.14,78.54,13,21.51,25.3,43.36a361,361,0,0,1,11.33-80.89c.35-1.39,2.72-.93,2.36.47a358.13,358.13,0,0,0-11.31,84.45A.78.78,0,0,0,894.78,2397.25Z" transform="translate(-413.16 -365.43)"/><path class="k" d="M990.18,2562.94l-2.45.22c-6.91-55.2-5.84-111.21,1.6-167.65.18-1.4,2.64-1.53,2.45-.11C984.34,2451.81,983.25,2507.79,990.18,2562.94Z" transform="translate(-413.16 -365.43)"/><path class="l" d="M2312.33,1943.8l-97.1,49.64a693.15,693.15,0,0,0,38.08,130.2l3.64-.35.14.35,3.65-.35c0,.12.09.23.13.35l3.65-.35.14.35,3.64-.35.14.35,3.65-.35.14.35,3.64-.35.14.35,3.64-.35.14.35,3.65-.35.14.35,3.64-.35.14.35,3.65-.35c0,.12.09.23.13.35l3.65-.35.14.35,3.64-.35.14.35,3.65-.35c0,.12.09.23.13.35l3.65-.35.14.35,3.64-.35.14.35,3.65-.35c0,.12.09.23.13.35l3.65-.35.14.35,3.64-.35.14.35,3.65-.35c0,.12.09.23.13.35l3.65-.35.14.35,36.25-3.51a587.64,587.64,0,0,0,64.49,104.63l-59.26,91.52a690.72,690.72,0,0,0,98.08,93.74l2-1.43c.6.47,1.18,1,1.78,1.43l2-1.43c.6.47,1.18,1,1.78,1.43l2-1.43c.59.47,1.18,1,1.78,1.43l2-1.43c.6.47,1.18,1,1.78,1.43l2-1.43c.6.47,1.18,1,1.78,1.43l2-1.43c.59.47,1.18,1,1.78,1.43l2-1.43c.6.47,1.18,1,1.78,1.43l2-1.43c.6.47,1.18,1,1.78,1.43l2-1.43c.59.47,1.18,1,1.78,1.43l2-1.43c.6.47,1.18,1,1.78,1.43l2-1.43c.6.47,1.18,1,1.78,1.43l2-1.43c.59.47,1.18,1,1.78,1.43l2-1.43c.6.47,1.18,1,1.78,1.43l2-1.43c.6.47,1.18,1,1.78,1.43l2-1.43c.6.47,1.18,1,1.78,1.43l2-1.43c.6.47,1.18,1,1.78,1.43l2-1.43c.6.47,1.18,1,1.78,1.43l2-1.43c.6.47,1.18,1,1.78,1.43l2-1.43c.6.47,1.18,1,1.78,1.43l2-1.43c.6.47,1.19,1,1.78,1.43l52.9-37.78a586.38,586.38,0,0,0,74.77,37.13l-5.56,108.9a691.62,691.62,0,0,0,131.8,32.14l.25-.54c1.18.17,2.35.38,3.54.54l.24-.54c1.18.17,2.36.38,3.54.54l.25-.54c1.18.17,2.35.38,3.53.54l.25-.54c1.18.17,2.36.38,3.54.54l.24-.54c1.18.17,2.36.38,3.54.54l.25-.54c1.18.17,2.35.38,3.53.54l.25-.54c1.18.17,2.36.38,3.54.54l.25-.54c1.17.17,2.35.38,3.53.54l.25-.54c1.18.17,2.35.38,3.53.54l.25-.54c1.18.17,2.36.38,3.54.54l.25-.54c1.17.17,2.35.38,3.53.54l.25-.54c1.18.17,2.35.38,3.53.54l.25-.54c1.18.17,2.36.38,3.54.54l.25-.54c1.18.17,2.35.38,3.53.54l.25-.54c1.18.17,2.35.38,3.53.54l.25-.54c1.18.17,2.36.38,3.54.54l.25-.54c1.18.17,2.35.38,3.53.54l.25-.54c1.18.17,2.35.38,3.53.54l.25-.54c1.18.17,2.36.38,3.54.54l.25-.54c1.18.17,2.35.38,3.53.54l44.14-97c1.15,0,2.31,0,3.46,0s2.52,0,3.79,0,2.52,0,3.78,0,2.52,0,3.78,0,2.52,0,3.79,0,2.52,0,3.78,0,2.52,0,3.78,0,2.52,0,3.79,0,2.52,0,3.78,0,2.52,0,3.78,0,2.52,0,3.79,0,2.52,0,3.78,0,2.52,0,3.78,0c3.26,0,6.51,0,9.76,0l47,91.9c1.14-.21,2.28-.47,3.43-.69l.35.69c1.15-.21,2.28-.47,3.43-.69l.35.69c1.15-.21,2.29-.47,3.43-.69l.36.69c1.14-.21,2.28-.47,3.43-.69l.35.69c1.15-.21,2.29-.47,3.43-.69l.35.69c1.15-.21,2.29-.47,3.43-.69l.36.69c1.14-.21,2.28-.47,3.43-.69l.35.69c1.15-.21,2.29-.47,3.43-.69l.35.69c1.15-.21,2.29-.47,3.43-.69l.36.69c1.14-.21,2.28-.47,3.43-.69l.35.69c1.15-.21,2.29-.47,3.43-.69l.35.69c1.15-.21,2.29-.47,3.43-.69l.36.69c1.14-.21,2.28-.47,3.43-.69l.35.69c1.15-.21,2.29-.47,3.43-.69l.35.69c1.15-.21,2.29-.47,3.43-.69l.36.69c1.14-.21,2.28-.47,3.43-.69l.35.69c1.15-.21,2.29-.47,3.43-.69l.35.69c1.15-.21,2.29-.47,3.44-.69l.35.69c1.14-.21,2.28-.47,3.43-.69l.35.69c1.15-.21,2.29-.47,3.43-.69l.35.69a691.42,691.42,0,0,0,130.22-38.08l-10.51-108.53a588.15,588.15,0,0,0,75.59-42.22l51.89,33.62,1.61-1.42,2.18,1.42,1.6-1.42,2.18,1.42,1.6-1.42,2.18,1.42,1.61-1.42,2.18,1.42,1.6-1.42,2.18,1.42,1.6-1.42,2.18,1.42,1.61-1.42,2.18,1.42,1.6-1.42,2.18,1.42,1.6-1.42,2.18,1.42,1.61-1.42,2.18,1.42,1.6-1.42,2.18,1.42,1.6-1.42,2.18,1.42,1.61-1.42,2.18,1.42,1.6-1.42,2.18,1.42,1.6-1.42,2.18,1.42,1.61-1.42,2.18,1.42,1.6-1.42,2.18,1.42,1.6-1.42,2.18,1.42,1.61-1.42,2.18,1.42,1.6-1.42,2.18,1.42a691.35,691.35,0,0,0,93.73-98.1l-63.37-88.73a589.28,589.28,0,0,0,61.12-110.82l34.85,1.79.06-.19,3.72.19a1.46,1.46,0,0,1,.07-.19l3.72.19.06-.19,3.72.19.06-.19,3.72.19a1.46,1.46,0,0,1,.07-.19l3.72.19.06-.19,3.72.19.06-.19,3.72.19a1.46,1.46,0,0,1,.07-.19l3.72.19.06-.19,3.72.19.06-.19,3.72.19a1.46,1.46,0,0,1,.07-.19l3.72.19.06-.19,3.72.19.06-.19,3.72.19c0-.06,0-.13.07-.19l3.72.19.06-.19,3.72.19.06-.19,3.72.19a1.46,1.46,0,0,0,.07-.19l3.72.19.06-.19,3.72.19.06-.19,3.72.19a1.46,1.46,0,0,0,.07-.19l3.72.19a691.61,691.61,0,0,0,32.13-131.82l-99.25-45.18a588.73,588.73,0,0,0-3-130.6l97.09-49.61A692,692,0,0,0,3613,1606.77l-3.65.35c0-.12-.09-.24-.14-.35l-3.64.35c-.05-.12-.09-.24-.14-.35l-3.65.35c0-.12-.09-.24-.13-.35l-3.65.35c-.05-.12-.09-.24-.14-.35l-3.64.35c0-.12-.09-.24-.14-.35l-3.65.35c0-.12-.09-.24-.13-.35l-3.65.35c-.05-.12-.09-.24-.14-.35l-3.64.35c0-.12-.09-.24-.14-.35l-3.65.35c0-.12-.09-.24-.13-.35l-3.65.35c-.05-.12-.09-.24-.14-.35l-3.64.35c-.05-.12-.09-.24-.14-.35l-3.65.35c0-.12-.09-.24-.13-.35l-3.65.35c0-.12-.09-.24-.14-.35l-3.64.35c-.05-.12-.09-.24-.14-.35l-3.65.35c0-.12-.09-.24-.13-.35l-3.65.35c0-.12-.09-.24-.14-.35l-3.64.35c-.05-.12-.09-.24-.14-.35l-3.65.35c0-.12-.09-.24-.13-.35l-3.65.35c-.05-.12-.09-.24-.14-.35l-3.64.35c0-.12-.09-.24-.14-.35l-36.26,3.51a586.51,586.51,0,0,0-64.5-104.6l59.28-91.55a691.78,691.78,0,0,0-98.08-93.74l-2,1.43c-.6-.47-1.18-1-1.78-1.43l-2,1.43c-.6-.47-1.18-1-1.78-1.43l-2,1.43c-.6-.47-1.18-1-1.78-1.43l-2,1.43c-.6-.47-1.18-1-1.78-1.43l-2,1.43c-.6-.47-1.18-1-1.78-1.43l-2,1.43c-.6-.47-1.18-1-1.78-1.43l-2,1.43c-.6-.47-1.18-1-1.78-1.43l-2,1.43c-.6-.47-1.19-1-1.78-1.43l-2,1.43c-.6-.47-1.18-1-1.78-1.43l-2,1.43c-.6-.47-1.18-1-1.78-1.43l-2,1.43c-.6-.47-1.19-1-1.78-1.43l-2,1.43c-.6-.47-1.18-1-1.78-1.43l-2,1.43c-.6-.47-1.18-1-1.78-1.43l-2,1.43c-.59-.47-1.18-1-1.78-1.43l-2,1.43c-.6-.47-1.18-1-1.78-1.43l-2,1.43c-.6-.47-1.18-1-1.78-1.43l-2,1.43c-.59-.47-1.18-1-1.78-1.43l-2,1.43c-.6-.47-1.18-1-1.78-1.43l-2,1.43c-.6-.47-1.18-1-1.78-1.43l-2,1.43c-.59-.47-1.18-1-1.78-1.43l-52.9,37.78a586.39,586.39,0,0,0-74.77-37.13l5.56-108.9a691.44,691.44,0,0,0-131.8-32.14l-.25.54c-1.18-.17-2.35-.37-3.53-.54l-.25.54-3.54-.54-.24.54-3.54-.54-.25.54c-1.18-.17-2.35-.37-3.53-.54l-.25.54-3.54-.54-.24.54-3.54-.54-.25.54c-1.18-.17-2.35-.37-3.53-.54l-.25.54-3.54-.54-.25.54c-1.17-.17-2.35-.37-3.53-.54l-.25.54c-1.18-.17-2.35-.37-3.53-.54l-.25.54-3.54-.54-.25.54c-1.17-.17-2.35-.37-3.53-.54l-.25.54c-1.18-.17-2.35-.37-3.53-.54l-.25.54-3.54-.54-.25.54c-1.18-.17-2.35-.37-3.53-.54l-.25.54c-1.18-.17-2.35-.37-3.53-.54l-.25.54-3.54-.54-.25.54c-1.18-.17-2.35-.37-3.53-.54l-.25.54c-1.18-.17-2.35-.37-3.53-.54l-.25.54-3.54-.54-44.13,97H2899.5c-3.25,0-6.5,0-9.76.06l-47-91.91c-1.15.21-2.29.47-3.43.69l-.35-.69c-1.15.21-2.29.47-3.43.69l-.36-.69c-1.14.21-2.28.47-3.43.69l-.35-.69c-1.15.21-2.29.47-3.43.69l-.35-.69c-1.15.21-2.29.47-3.43.69l-.36-.69c-1.14.21-2.28.47-3.43.69l-.35-.69c-1.15.21-2.29.47-3.43.69l-.35-.69c-1.15.21-2.29.47-3.43.69l-.36-.69c-1.14.21-2.28.47-3.43.69l-.35-.69c-1.15.21-2.29.47-3.43.69l-.35-.69c-1.15.21-2.29.47-3.43.69l-.36-.69c-1.14.21-2.28.47-3.43.69l-.35-.69c-1.15.21-2.29.47-3.43.69l-.35-.69c-1.15.21-2.29.47-3.44.69l-.35-.69c-1.14.21-2.28.47-3.43.69l-.35-.69c-1.15.21-2.29.47-3.43.69l-.35-.69c-1.15.21-2.29.47-3.44.69l-.35-.69c-1.14.21-2.28.47-3.43.69l-.35-.69c-1.15.21-2.29.47-3.43.69l-.36-.69c-1.14.21-2.28.47-3.43.69l-.35-.69a692.38,692.38,0,0,0-130.21,38.08l10.51,108.53A589.89,589.89,0,0,0,2571.8,1374l-51.9-33.62-1.6,1.42-2.18-1.42-1.6,1.42-2.18-1.42c-.55.47-1.07,1-1.61,1.42l-2.18-1.42-1.6,1.42-2.18-1.42-1.6,1.42-2.19-1.42-1.6,1.42-2.18-1.42-1.6,1.42-2.18-1.42-1.61,1.42-2.18-1.42-1.6,1.42-2.18-1.42-1.6,1.42-2.18-1.42-1.61,1.42-2.18-1.42-1.6,1.42-2.18-1.42-1.6,1.42-2.18-1.42-1.61,1.42-2.18-1.42-1.6,1.42-2.18-1.42-1.6,1.42-2.18-1.42-1.61,1.42-2.18-1.42-1.6,1.42-2.18-1.42-1.6,1.42-2.18-1.42-1.61,1.42-2.18-1.42a692.86,692.86,0,0,0-93.73,98.09l63.37,88.77A587.55,587.55,0,0,0,2352.76,1638l-34.85-1.79c0,.06,0,.13-.07.19l-3.72-.19-.06.19-3.72-.19-.06.19-3.72-.19a1.46,1.46,0,0,0-.07.19l-3.72-.19-.06.19-3.72-.19-.06.19-3.72-.19a1.46,1.46,0,0,0-.07.19l-3.72-.19-.06.19-3.72-.19-.06.19-3.72-.19a1.46,1.46,0,0,0-.07.19l-3.72-.19-.06.19-3.72-.19-.06.19-3.72-.19a1.46,1.46,0,0,0-.07.19l-3.72-.19-.06.19-3.72-.19a1.46,1.46,0,0,1-.07.19l-3.71-.19a1.46,1.46,0,0,0-.07.19l-3.72-.19-.06.19-3.72-.19a1.46,1.46,0,0,1-.07.19l-3.71-.19a1.46,1.46,0,0,0-.07.19l-3.72-.19-.06.19-3.72-.19A691.61,691.61,0,0,0,2210.11,1768l99.25,45.18A588.13,588.13,0,0,0,2312.33,1943.8Zm811.38,139.65a314.58,314.58,0,0,1-190.63,95.35,314.35,314.35,0,0,1-180.35-85.19C2626.67,1973.15,2622.12,1773,2742.57,1647a314.47,314.47,0,0,1,190.62-95.33,314.4,314.4,0,0,1,180.37,85.17C3239.62,1757.26,3244.17,1957.39,3123.71,2083.45Z" transform="translate(-413.16 -365.43)"/><path class="m" d="M3189.23,1636.8c126.05,120.46,130.61,320.59,10.15,446.65s-320.6,130.62-446.65,10.16S2622.12,1773,2742.57,1647,3063.16,1516.36,3189.23,1636.8Zm-699.7-109.6a588,588,0,0,0-62.72,114.58l-108.9-5.58A692.39,692.39,0,0,0,2285.77,1768L2385,1813.2a588.13,588.13,0,0,0,3,130.6l-97.11,49.64a693.18,693.18,0,0,0,38.09,130.2l108.55-10.51a588.18,588.18,0,0,0,67.86,111.63l-59.26,91.52A691.18,691.18,0,0,0,2544.2,2410l88.76-63.38a587.53,587.53,0,0,0,114.58,62.73l-5.56,108.9a691.62,691.62,0,0,0,131.8,32.14l45.17-99.25a589.38,589.38,0,0,0,130.61-3l49.64,97.09a691.54,691.54,0,0,0,130.21-38.08l-10.51-108.53a588.74,588.74,0,0,0,111.63-67.89l91.52,59.29a691.35,691.35,0,0,0,93.73-98.1l-63.37-88.73a589.1,589.1,0,0,0,62.74-114.61l108.9,5.58a691.61,691.61,0,0,0,32.13-131.82l-99.25-45.18a588.73,588.73,0,0,0-3-130.6l97.09-49.61A692,692,0,0,0,3613,1606.77l-108.55,10.51a587.73,587.73,0,0,0-67.88-111.6l59.28-91.55a691.78,691.78,0,0,0-98.08-93.74L3309,1383.77A587.48,587.48,0,0,0,3194.41,1321l5.56-108.9a691.44,691.44,0,0,0-131.8-32.14L3023,1279.25a588.71,588.71,0,0,0-130.6,3l-49.64-97.1a692.38,692.38,0,0,0-130.21,38.08l10.51,108.53a588.83,588.83,0,0,0-111.63,67.89l-91.53-59.29a692.86,692.86,0,0,0-93.73,98.09Z" transform="translate(-413.16 -365.43)"/><path class="n" d="M2264.14,2003c79.05,75.55,80.78,201.79,2.93,279.45-73.32,73.14-192.68,75.84-269.22,6.1-81.27-74.05-85.27-200.22-9.74-279.27C2062.55,1931.32,2186.23,1928.52,2264.14,2003Zm-432.41-67.73A363.62,363.62,0,0,0,1793,2006l-67.3-3.45a428.24,428.24,0,0,0-19.85,81.47l61.33,27.92a364.34,364.34,0,0,0,1.84,80.71l-60,30.67a427.81,427.81,0,0,0,23.54,80.47l67.08-6.5a363,363,0,0,0,41.94,69l-36.63,56.56a427.48,427.48,0,0,0,60.62,57.93l54.84-39.17a363.46,363.46,0,0,0,70.82,38.77l-3.44,67.3a427.5,427.5,0,0,0,81.45,19.86l27.92-61.33a363.71,363.71,0,0,0,80.71-1.84l30.68,60a427,427,0,0,0,80.47-23.53l-6.5-67.07a363.42,363.42,0,0,0,69-42l44,28.53a19.54,19.54,0,0,0,23.83-2,428.77,428.77,0,0,0,37.08-38.81,19.52,19.52,0,0,0,.87-23.89l-30.5-42.7a363.82,363.82,0,0,0,38.78-70.83l51,2.62A21.21,21.21,0,0,0,2538,2270a425.92,425.92,0,0,0,12.07-49.52,21.23,21.23,0,0,0-12.18-23l-46.52-21.17a363.73,363.73,0,0,0-1.84-80.71l47.48-24.26a18.45,18.45,0,0,0,9.65-20.39,427.72,427.72,0,0,0-19-62.2,6.14,6.14,0,0,0-6.31-3.85l-62.48,6.05a363.37,363.37,0,0,0-41.94-69l31-47.87a13.72,13.72,0,0,0-1.36-16.65,428.07,428.07,0,0,0-45.36-43.35,13.71,13.71,0,0,0-16.69-.61l-46.42,33.14a362.52,362.52,0,0,0-70.81-38.76l2.76-54a17.44,17.44,0,0,0-12.13-17.53,427.6,427.6,0,0,0-68.64-15.6L2161.41,1782a363.71,363.71,0,0,0-80.71,1.84l-30.68-60a427.81,427.81,0,0,0-80.47,23.54l6.5,67.07a364.09,364.09,0,0,0-69,42l-56.56-36.64a428.53,428.53,0,0,0-57.93,60.62Z" transform="translate(-413.16 -365.43)"/><path class="o" d="M1710.08,2183l-60,30.68a427.93,427.93,0,0,0,23.54,80.46l2.25-.22c0,.08.06.15.08.22l2.26-.22c0,.08,0,.15.08.22l2.26-.22a1.43,1.43,0,0,0,.08.22l2.25-.22.09.22,2.25-.22.09.22,2.25-.22.09.22,2.25-.22c0,.08,0,.15.08.22l2.26-.22c0,.08,0,.15.08.22l2.25-.22.09.22,2.25-.22.09.22,2.25-.22.09.22,2.25-.22c0,.08.05.15.08.22l2.26-.22c0,.08,0,.15.08.22l2.26-.22a1.43,1.43,0,0,0,.08.22l2.25-.22.09.22,2.25-.22.09.22,2.25-.22c0,.08.06.15.08.22l2.26-.22c0,.08.05.15.08.22l2.26-.22c0,.08,0,.15.08.22l2.25-.22.09.22,22.4-2.17a363.43,363.43,0,0,0,39.86,64.66L1746,2413.16a426.92,426.92,0,0,0,60.62,57.93l1.23-.88,1.1.88,1.24-.88,1.1.88,1.24-.88,1.1.88,1.24-.88,1.1.88,1.24-.88,1.1.88,1.24-.88,1.1.88,1.23-.88,1.1.88,1.24-.88,1.1.88,1.24-.88,1.1.88,1.24-.88,1.1.88,1.24-.88,1.1.88,1.23-.88,1.1.88,1.24-.88,1.1.88,1.24-.88,1.1.88,1.24-.88,1.1.88,1.24-.88,1.1.88,1.24-.88c.36.29.72.59,1.1.88l1.23-.88,1.1.88,1.24-.88,1.1.88,1.24-.88,1.1.88,32.69-23.34a363.15,363.15,0,0,0,46.21,22.94l-3.44,67.3a428.28,428.28,0,0,0,81.45,19.87l.16-.34,2.18.34.16-.34,2.18.34.15-.34,2.19.34.15-.34,2.19.34.15-.34,2.19.34.15-.34,2.18.34.16-.34,2.18.34.15-.34,2.19.34.15-.34,2.19.34.15-.34,2.19.34.15-.34,2.18.34.16-.34,2.18.34.16-.34,2.18.34.15-.34,2.19.34.15-.34,2.19.34.15-.34,2.18.34.16-.34,2.18.34.16-.34,2.18.34.15-.34,2.19.34.15-.34,2.19.34,27.27-59.94h30.2c2,0,4,0,6,0l29,56.79c.71-.13,1.41-.28,2.12-.42l.22.42c.71-.13,1.41-.28,2.12-.42l.22.42,2.12-.42.21.42c.71-.13,1.42-.28,2.12-.42l.22.42c.71-.13,1.41-.28,2.12-.42l.22.42c.71-.13,1.41-.28,2.12-.42l.22.42c.71-.13,1.41-.28,2.12-.42l.22.42c.71-.13,1.41-.28,2.12-.42l.21.42c.71-.13,1.42-.28,2.12-.42l.22.42c.71-.13,1.42-.28,2.12-.42l.22.42c.71-.13,1.41-.28,2.12-.42l.22.42c.71-.13,1.41-.28,2.12-.42l.22.42c.71-.13,1.41-.28,2.12-.42l.22.42,2.12-.42.21.42c.71-.13,1.42-.28,2.12-.42l.22.42c.71-.13,1.41-.28,2.12-.42l.22.42c.71-.13,1.41-.28,2.12-.42l.22.42c.71-.13,1.41-.28,2.12-.42l.22.42,2.12-.42.21.42c.71-.13,1.42-.28,2.12-.42l.22.42a427,427,0,0,0,80.47-23.53l-6.49-67.07a363.64,363.64,0,0,0,46.72-26.09l32.06,20.77,1-.87,1.34.87,1-.87,1.35.87,1-.87,1.35.87,1-.87,1.35.87,1-.87,1.34.87,1-.87,1.34.87,1-.87,1.35.87,1-.87,1.35.87,1-.87,1.35.87,1-.87,1.35.87,1-.87,1.34.87,1-.87,1.35.87,1-.87,1.35.87,1-.87,1.35.87,1-.87,1.35.87,1-.87,1.34.87,1-.87,1.34.87,1-.87,1.35.87,1-.87,1.35.87,1-.87,1.35.87a427.43,427.43,0,0,0,57.92-60.62l-39.16-54.84a363.38,363.38,0,0,0,37.77-68.48l21.54,1.1a.49.49,0,0,1,0-.11l2.3.11,0-.11,2.3.11a.49.49,0,0,0,0-.11l2.3.11a.49.49,0,0,0,0-.11l2.3.11s0-.07,0-.11l2.3.11a.49.49,0,0,1,0-.11l2.3.11a.49.49,0,0,1,0-.11l2.29.11a.49.49,0,0,0,0-.11l2.3.11a.49.49,0,0,0,0-.11l2.3.11s0-.07,0-.11l2.3.11a.49.49,0,0,1,0-.11l2.3.11a.49.49,0,0,1,0-.11l2.29.11a.49.49,0,0,0,0-.11l2.3.11a.49.49,0,0,0,0-.11l2.3.11s0-.07,0-.11l2.3.11s0-.07,0-.11l2.3.11a.49.49,0,0,1,0-.11l2.3.11a.49.49,0,0,1,0-.11l2.29.11a.49.49,0,0,0,0-.11l2.3.11a.49.49,0,0,0,0-.11l2.3.11a427.23,427.23,0,0,0,19.86-81.46l-61.34-27.92a363.74,363.74,0,0,0-1.83-80.71l60-30.66a428,428,0,0,0-23.53-80.49l-2.25.22-.09-.22-2.25.22-.09-.22-2.25.22-.09-.22-2.25.22c0-.07-.05-.14-.08-.22l-2.26.22c0-.07-.05-.14-.08-.22l-2.26.22c0-.07,0-.14-.08-.22l-2.25.22-.09-.22-2.25.22-.09-.22-2.25.22a1.43,1.43,0,0,1-.08-.22l-2.26.22c0-.07,0-.14-.08-.22l-2.26.22c0-.07,0-.14-.08-.22l-2.25.22-.09-.22-2.25.22-.09-.22-2.25.22-.09-.22-2.25.22c0-.07,0-.14-.08-.22l-2.26.22c0-.07-.05-.14-.08-.22l-2.26.22c0-.07-.05-.14-.08-.22l-2.25.22-.09-.22-2.25.22-.09-.22-2.25.22a1.43,1.43,0,0,1-.08-.22l-22.41,2.17a362.69,362.69,0,0,0-39.86-64.64l36.63-56.57a426.85,426.85,0,0,0-60.61-57.93l-1.24.88-1.1-.88-1.24.88-1.1-.88-1.23.88-1.1-.88-1.24.88-1.1-.88-1.24.88-1.1-.88-1.24.88-1.1-.88-1.24.88-1.1-.88-1.23.88-1.1-.88-1.24.88-1.1-.88-1.24.88-1.1-.88-1.24.88-1.1-.88-1.24.88-1.1-.88-1.24.88c-.36-.29-.72-.59-1.1-.88l-1.23.88-1.1-.88-1.24.88-1.1-.88-1.24.88-1.1-.88-1.24.88-1.1-.88-1.24.88-1.1-.88-1.23.88-1.1-.88-1.24.88-1.1-.88-32.7,23.34a363,363,0,0,0-46.2-22.94l3.43-67.3a428.09,428.09,0,0,0-81.45-19.87l-.15.34-2.19-.34-.15.34-2.19-.34-.15.34-2.18-.34-.16.34-2.18-.34-.16.34-2.18-.34-.15.34-2.19-.34-.15.34-2.19-.34-.15.34-2.19-.34-.15.34-2.18-.34-.16.34-2.18-.34-.16.34-2.18-.34-.15.34-2.19-.34-.15.34-2.19-.34-.15.34-2.18-.34-.16.34-2.18-.34-.16.34-2.18-.34-.15.34-2.19-.34-.15.34-2.19-.34-.15.34-2.19-.34-.15.34-2.18-.34-27.28,59.93H2101c-.78,0-1.56,0-2.34,0s-1.55,0-2.33,0-1.56,0-2.34,0-1.56,0-2.34,0-1.56,0-2.34,0-1.56,0-2.34,0-1.56,0-2.34,0-1.55,0-2.33,0-1.56,0-2.34,0-1.56,0-2.34,0-1.56,0-2.34,0-1.56,0-2.34,0c-2,0-4,0-6,0l-29-56.8-2.12.43-.22-.43-2.12.43-.22-.43-2.12.43-.22-.43-2.12.43-.22-.43-2.12.43-.21-.43-2.12.43-.22-.43-2.12.43-.22-.43-2.12.43-.22-.43-2.12.43-.22-.43-2.12.43-.22-.43-2.12.43-.21-.43-2.12.43-.22-.43-2.12.43-.22-.43-2.12.43-.22-.43-2.12.43-.22-.43-2.12.43-.21-.43-2.12.43-.22-.43-2.12.43-.22-.43-2.12.43-.22-.43-2.12.43-.22-.43a427.81,427.81,0,0,0-80.47,23.54l6.5,67.07a364.18,364.18,0,0,0-46.72,26.09L1838.36,1810l-1,.87L1836,1810l-1,.87-1.35-.87c-.33.28-.65.58-1,.87l-1.34-.87c-.34.28-.66.58-1,.87L1829,1810c-.34.28-.66.58-1,.87l-1.35-.87c-.33.28-.66.58-1,.87l-1.35-.87-1,.87L1822,1810l-1,.87-1.34-.87c-.34.28-.66.58-1,.87l-1.34-.87c-.34.28-.66.58-1,.87L1815,1810l-1,.87-1.35-.87c-.33.28-.66.58-1,.87l-1.35-.87-1,.87L1808,1810l-1,.87-1.34-.87c-.34.28-.66.58-1,.87l-1.35-.87c-.34.28-.66.58-1,.87L1801,1810c-.33.28-.66.58-1,.87l-1.35-.87-1,.87-1.35-.87-1,.87-1.34-.87c-.34.28-.66.58-1,.87l-1.35-.87a428,428,0,0,0-57.93,60.62l39.16,54.85a363.57,363.57,0,0,0-37.76,68.47l-21.54-1.11a.56.56,0,0,0,0,.12l-2.3-.12s0,.08,0,.12l-2.3-.12a.56.56,0,0,1,0,.12l-2.3-.12a.56.56,0,0,1,0,.12l-2.29-.12a.56.56,0,0,0,0,.12l-2.3-.12a.56.56,0,0,0,0,.12l-2.3-.12s0,.08,0,.12l-2.3-.12a.56.56,0,0,1,0,.12l-2.3-.12a.56.56,0,0,1,0,.12l-2.3-.12,0,.12-2.3-.12a.56.56,0,0,0,0,.12l-2.3-.12a.56.56,0,0,0,0,.12l-2.3-.12s0,.08,0,.12l-2.3-.12a.56.56,0,0,1,0,.12l-2.3-.12a.56.56,0,0,1,0,.12l-2.29-.12a.56.56,0,0,0,0,.12l-2.3-.12a.56.56,0,0,0,0,.12l-2.3-.12s0,.08,0,.12l-2.3-.12a.56.56,0,0,1,0,.12l-2.3-.12a.56.56,0,0,1,0,.12l-2.29-.12a427.51,427.51,0,0,0-19.86,81.47l61.34,27.92A363.74,363.74,0,0,0,1710.08,2183Zm501.43,86.31a194.43,194.43,0,0,1-117.81,58.92,194.31,194.31,0,0,1-111.46-52.65c-77.9-74.44-80.71-198.12-6.27-276a194.36,194.36,0,0,1,117.8-58.91,194.3,194.3,0,0,1,111.47,52.64C2283.14,2067.69,2286,2191.37,2211.51,2269.28Z" transform="translate(-413.16 -365.43)"/><path class="p" d="M2252,1993.25c77.91,74.44,80.72,198.12,6.28,276s-198.13,80.72-276,6.27-80.71-198.12-6.27-276S2174.1,1918.81,2252,1993.25Zm-432.41-67.74a363.34,363.34,0,0,0-38.76,70.81l-67.3-3.45a427.51,427.51,0,0,0-19.86,81.47l61.34,27.92a363.74,363.74,0,0,0,1.83,80.71l-60,30.68a428.67,428.67,0,0,0,23.54,80.46l67.08-6.5a363.53,363.53,0,0,0,41.94,69l-36.62,56.56a426.85,426.85,0,0,0,60.61,57.93l54.85-39.17a363.38,363.38,0,0,0,70.81,38.77l-3.43,67.3a427.91,427.91,0,0,0,81.45,19.87l27.91-61.34a363.8,363.8,0,0,0,80.72-1.84l30.67,60a427,427,0,0,0,80.47-23.53l-6.49-67.07a363.34,363.34,0,0,0,69-42l56.57,36.64a427.43,427.43,0,0,0,57.92-60.62l-39.16-54.84a364,364,0,0,0,38.77-70.82l67.3,3.44a427.23,427.23,0,0,0,19.86-81.46l-61.34-27.92a363.74,363.74,0,0,0-1.83-80.71l60-30.66a428,428,0,0,0-23.53-80.49l-67.08,6.5a363.73,363.73,0,0,0-42-69l36.63-56.57a426.85,426.85,0,0,0-60.61-57.93L2326,1836.88a362.85,362.85,0,0,0-70.81-38.77l3.43-67.3a428.09,428.09,0,0,0-81.45-19.87l-27.92,61.34a363.71,363.71,0,0,0-80.71,1.84l-30.67-60a427.91,427.91,0,0,0-80.48,23.54l6.5,67.07a363.93,363.93,0,0,0-69,42L1838.36,1810a427.38,427.38,0,0,0-57.92,60.62Z" transform="translate(-413.16 -365.43)"/><path class="q" d="M1823.32,2083.68v295.77c0,78.43-64.13,142-143.23,142H1124.68c-79.11,0-143.23-63.57-143.23-142V2083.68c0-78.43,64.12-142,143.23-142h555.41C1759.19,1941.68,1823.32,2005.25,1823.32,2083.68Z" transform="translate(-413.16 -365.43)"/><path class="r" d="M1823.32,2083.68v295.77c0,78.43-67.39,142-150.51,142h-466c-83.13,0-150.51-63.57-150.51-142V2083.68c0-78.43,67.38-142,150.51-142h466C1755.93,1941.68,1823.32,2005.25,1823.32,2083.68Z" transform="translate(-413.16 -365.43)"/><path class="s" d="M1146.75,2087.26a40.59,40.59,0,0,1,40.33-40.33h81.74c81.2,0,144.41,49.59,144.41,130.79,0,71.93-63.21,130.24-144.41,130.24H1228v73.57c0,21.8-18,40.33-40.87,40.33a40.59,40.59,0,0,1-40.33-40.33Zm121,149.31c38.69,0,64.3-27.79,64.3-58.85,0-38.69-25.61-58.86-64.3-58.86H1228v117.71Z" transform="translate(-413.16 -365.43)"/><path class="s" d="M1526,2282.89,1432.3,2102a46.24,46.24,0,0,1-5.45-20.16c0-22.89,19.62-38.7,42-38.7,16.89,0,31.6,10.9,38.69,26.71l60.49,134.6,60.49-134.6c7.08-15.81,18.52-26.71,35.42-26.71,22.34,0,42,15.81,42,38.7a46.24,46.24,0,0,1-5.45,20.16l-93.73,180.92v98.64a40.33,40.33,0,1,1-80.65,0Z" transform="translate(-413.16 -365.43)"/><path class="t" d="M1892,1634.93V1845c0,55.7-45.54,100.85-101.73,100.85H1395.79c-56.19,0-101.73-45.15-101.73-100.85V1634.93c0-55.71,45.54-100.86,101.73-100.86h394.47C1846.45,1534.07,1892,1579.22,1892,1634.93Z" transform="translate(-413.16 -365.43)"/><path class="u" d="M1892,1634.93V1845c0,55.7-47.86,100.85-106.9,100.85h-331c-59,0-106.89-45.15-106.89-100.85V1634.93c0-55.71,47.85-100.86,106.89-100.86h331C1844.13,1534.07,1892,1579.22,1892,1634.93Z" transform="translate(-413.16 -365.43)"/><path class="v" d="M4214.28,2566.68a41.09,41.09,0,0,1-41,41H454.12a41,41,0,0,1-14.56-79.22,40.62,40.62,0,0,1,14.56-2.7h3719.2A41.08,41.08,0,0,1,4214.28,2566.68Z" transform="translate(-413.16 -365.43)"/><path class="w" d="M938.54,1564.5a6.72,6.72,0,1,1,13.44,0v15.82H967.8a6.73,6.73,0,0,1,0,13.45H952v15.81a6.72,6.72,0,1,1-13.44,0v-15.81H922.72a6.73,6.73,0,1,1,0-13.45h15.82Z" transform="translate(-413.16 -365.43)"/><path class="w" d="M1028.38,1506.78a6.73,6.73,0,1,1,13.45,0v15.81h15.81a6.73,6.73,0,1,1,0,13.45h-15.81v15.82a6.73,6.73,0,0,1-13.45,0V1536h-15.82a6.73,6.73,0,0,1,0-13.45h15.82Z" transform="translate(-413.16 -365.43)"/><path class="x" d="M3346.38,742.24a6.73,6.73,0,1,1,13.45,0v15.81h15.81a6.73,6.73,0,1,1,0,13.45h-15.81v15.81a6.73,6.73,0,0,1-13.45,0V771.5h-15.81a6.73,6.73,0,1,1,0-13.45h15.81Z" transform="translate(-413.16 -365.43)"/><path class="w" d="M3856.66,2128.36a6.72,6.72,0,1,1,13.44,0v15.81h15.81a6.73,6.73,0,1,1,0,13.45H3870.1v15.81a6.72,6.72,0,1,1-13.44,0v-15.81h-15.82a6.73,6.73,0,0,1,0-13.45h15.82Z" transform="translate(-413.16 -365.43)"/><path class="w" d="M1770.29,1424.15a6.72,6.72,0,1,1,13.44,0V1440h15.82a6.73,6.73,0,0,1,0,13.45h-15.82v15.82a6.72,6.72,0,0,1-13.44,0v-15.82h-15.81a6.73,6.73,0,1,1,0-13.45h15.81Z" transform="translate(-413.16 -365.43)"/><path class="x" d="M3212.83,639.29a6.73,6.73,0,0,1,13.45,0v15.82h15.82a6.72,6.72,0,1,1,0,13.44h-15.82v15.82a6.73,6.73,0,1,1-13.45,0V668.55H3197a6.72,6.72,0,1,1,0-13.44h15.81Z" transform="translate(-413.16 -365.43)"/><path class="x" d="M678.08,2150.62a6.73,6.73,0,0,1,13.45,0v15.81h15.81a6.73,6.73,0,0,1,0,13.46H691.53v15.81a6.73,6.73,0,1,1-13.45,0v-15.81H662.26a6.73,6.73,0,1,1,0-13.46h15.82Z" transform="translate(-413.16 -365.43)"/><path class="s" d="M2763.68,775.59H2657.1A58.44,58.44,0,0,0,2598.65,834v75.64a58.45,58.45,0,0,0,58.45,58.45h71.26l52.51,37.29,1.87-40.53a58.43,58.43,0,0,0,39.39-55.21V834A58.44,58.44,0,0,0,2763.68,775.59Z" transform="translate(-413.16 -365.43)"/><path class="y" d="M2679.4,886.1a5,5,0,0,1,.9,3,6.18,6.18,0,0,1-1.76,4.57,6.05,6.05,0,0,1-4.46,1.76,9.51,9.51,0,0,1-3.12-.6l-33.42-12.95a9.45,9.45,0,0,1-4.57-3.52,10.09,10.09,0,0,1,0-11.09,9.9,9.9,0,0,1,4.57-3.66l33.42-13a9.51,9.51,0,0,1,3.12-.6,6,6,0,0,1,4.46,1.75,6.2,6.2,0,0,1,1.76,4.57,5.08,5.08,0,0,1-3.41,4.92l-29.82,11.44,29.82,11.44A6.06,6.06,0,0,1,2679.4,886.1Z" transform="translate(-413.16 -365.43)"/><path class="y" d="M2706.24,908.44a6.85,6.85,0,0,1-4,1.2,7.32,7.32,0,0,1-4.92-1.81,5.78,5.78,0,0,1-2.11-4.61,6.84,6.84,0,0,1,.4-2.31l22.79-71.57a6.88,6.88,0,0,1,2.56-3.62,6.71,6.71,0,0,1,3.87-1.2,7.48,7.48,0,0,1,5,1.81A5.84,5.84,0,0,1,2732,831a10.77,10.77,0,0,1-.4,2.21l-22.79,71.57A6.77,6.77,0,0,1,2706.24,908.44Z" transform="translate(-413.16 -365.43)"/><path class="y" d="M2794.38,867.23a10.14,10.14,0,0,1,0,11.09,9.5,9.5,0,0,1-4.57,3.52l-33.43,12.95a8.87,8.87,0,0,1-3.11.6,6.06,6.06,0,0,1-4.47-1.76,6.18,6.18,0,0,1-1.76-4.57,5,5,0,0,1,.91-3,6,6,0,0,1,2.51-2l29.81-11.44-29.81-11.44a5.11,5.11,0,0,1-3.42-4.92,6.2,6.2,0,0,1,1.76-4.57,6.05,6.05,0,0,1,4.47-1.75,9.45,9.45,0,0,1,3.11.6l33.43,13A10,10,0,0,1,2794.38,867.23Z" transform="translate(-413.16 -365.43)"/><rect class="z" x="1908.05" y="217.21" width="183.23" height="130.66" rx="26.84"/><path class="s" d="M2400.29,662.12a3.66,3.66,0,0,1,.61,2.06,4.35,4.35,0,0,1-1.25,3.19,4.25,4.25,0,0,1-3.11,1.25,6,6,0,0,1-2.26-.49l-28.48-11.62a7.13,7.13,0,0,1-3.15-2.54,7,7,0,0,1,0-7.62,6.55,6.55,0,0,1,3.15-2.5l28.48-11.62a6.18,6.18,0,0,1,2.34-.49,4.15,4.15,0,0,1,3.07,1.21,4.26,4.26,0,0,1,1.21,3.15,3.58,3.58,0,0,1-2.34,3.47l-26.39,10.57,26.39,10.57A3.74,3.74,0,0,1,2400.29,662.12Z" transform="translate(-413.16 -365.43)"/><path class="s" d="M2412.24,678.5a4.86,4.86,0,0,1-2.79.85,5,5,0,0,1-3.31-1.25,4,4,0,0,1-1.45-3.19,6.44,6.44,0,0,1,.24-1.69l18.48-58.1a4.73,4.73,0,0,1,1.82-2.54,4.67,4.67,0,0,1,2.7-.85,5.06,5.06,0,0,1,3.39,1.25,4,4,0,0,1,1.45,3.19,6.44,6.44,0,0,1-.24,1.69L2414,676A4.37,4.37,0,0,1,2412.24,678.5Z" transform="translate(-413.16 -365.43)"/><path class="s" d="M2474.89,646.35a7,7,0,0,1,0,7.62,7.15,7.15,0,0,1-3.14,2.54l-28.49,11.62a6,6,0,0,1-2.26.49,4.25,4.25,0,0,1-3.11-1.25,4.35,4.35,0,0,1-1.25-3.19,3.71,3.71,0,0,1,2.34-3.47l26.39-10.57L2439,639.57a3.58,3.58,0,0,1-2.34-3.47,4.3,4.3,0,0,1,1.21-3.15,4.15,4.15,0,0,1,3.07-1.21,6.18,6.18,0,0,1,2.34.49l28.49,11.62A6.57,6.57,0,0,1,2474.89,646.35Z" transform="translate(-413.16 -365.43)"/><path class="aa" d="M3870,1060.56a104.67,104.67,0,0,0-89.26-50,108.69,108.69,0,0,0-29.47,4.25,126.84,126.84,0,0,0-232,42.82c-1.84-.13-3.65-.34-5.55-.34a94.85,94.85,0,0,0,0,189.7h332.21A94.76,94.76,0,0,0,3870,1060.56Z" transform="translate(-413.16 -365.43)"/><path class="ab" d="M3880,1053.11a104.71,104.71,0,0,0-89.27-50,109.08,109.08,0,0,0-29.47,4.25,126.84,126.84,0,0,0-232,42.82c-1.84-.12-3.65-.34-5.55-.34a94.85,94.85,0,0,0,0,189.7h332.21A94.76,94.76,0,0,0,3880,1053.11Z" transform="translate(-413.16 -365.43)"/><path class="ac" d="M3519.49,1151.13h-7.25a8.06,8.06,0,1,1,0-16.11h17.09a7.35,7.35,0,0,1,7.38,7.5v24.35c0,6-2.58,9.46-6.52,11.8-5.28,3.08-13.65,4.55-20.9,4.55-26.07,0-36.89-19.31-36.89-42.67,0-23,10.45-43.53,35.78-43.53,5.9,0,16.85,1.1,23.24,5.41,2.71,1.84,4.31,4.06,4.31,7.25,0,4.19-2.83,8.49-7.87,8.49-2.71,0-5-1.23-8-2.46a28.33,28.33,0,0,0-10.33-2.09c-14.75,0-18.93,13.89-18.93,26.81,0,14.26,5,26.19,19.43,26.19a29.7,29.7,0,0,0,9.46-1.48Z" transform="translate(-413.16 -365.43)"/><path class="ac" d="M3569.66,1173.75a9.16,9.16,0,0,1-18.32,0v-66.4a9.16,9.16,0,0,1,9.1-9.1H3582c16.48,0,29.76,11.43,29.76,27.91,0,10.21-5.66,17.46-13.53,21.4l13.28,20.9a12,12,0,0,1,2,5.54c0,5.29-4.18,8.85-9.22,8.85-3.45,0-6.4-2.46-7.87-4.79l-15.62-26h-11.07Zm0-35.78h11.19c7.63,0,12.67-4.68,12.67-11.81,0-6.88-5-11.68-12.67-11.68h-11.19Z" transform="translate(-413.16 -365.43)"/><path class="ac" d="M3622.29,1140.18c0-22.5,9.84-43.16,35.17-43.16s35.29,20.66,35.29,43.16-9.84,43-35.29,43S3622.29,1162.68,3622.29,1140.18Zm52.26,0c0-11.56-3.81-26.56-17.09-26.56s-17,15-17,26.56c0,13.53,4.55,26.44,17,26.44S3674.55,1153.71,3674.55,1140.18Z" transform="translate(-413.16 -365.43)"/><path class="ac" d="M3703.57,1140.18c0-22.5,9.84-43.16,35.17-43.16s35.29,20.66,35.29,43.16-9.84,43-35.29,43S3703.57,1162.68,3703.57,1140.18Zm52.26,0c0-11.56-3.81-26.56-17.09-26.56s-17,15-17,26.56c0,13.53,4.55,26.44,17,26.44S3755.83,1153.71,3755.83,1140.18Z" transform="translate(-413.16 -365.43)"/><path class="ac" d="M3831.09,1168.22c-2.83,10.94-8.37,14.63-17.1,14.63-8,0-14.26-3.81-17.09-14.63l-15.37-59.15a7.54,7.54,0,0,1-.37-2.58,9.16,9.16,0,0,1,9.1-9.1c4.18,0,8.12,2.7,9,6.51l14.75,62.72h.49l14.76-62.72a8.5,8.5,0,0,1,8.49-6.51,9.16,9.16,0,0,1,9.1,9.1,7.54,7.54,0,0,1-.37,2.58Z" transform="translate(-413.16 -365.43)"/><path class="ac" d="M3875,1151.49l-21.15-40.82a10.51,10.51,0,0,1-1.23-4.55c0-5.17,4.43-8.73,9.47-8.73a9.74,9.74,0,0,1,8.73,6l13.65,30.38,13.65-30.38c1.6-3.56,4.18-6,8-6,5,0,9.47,3.56,9.47,8.73a10.36,10.36,0,0,1-1.23,4.55l-21.15,40.82v22.26a9.1,9.1,0,0,1-18.2,0Z" transform="translate(-413.16 -365.43)"/><path class="ad" d="M1833.42,752.78A164.7,164.7,0,0,0,1693,674.13a171.13,171.13,0,0,0-46.36,6.69C1611.4,624.58,1549,587,1477.55,587c-97,0-178,69.33-195.87,161.14-2.9-.19-5.75-.53-8.73-.53a149.19,149.19,0,0,0,0,298.38h522.54a149,149,0,0,0,37.93-293.24Z" transform="translate(-413.16 -365.43)"/><path class="ab" d="M1816.05,760.22a164.69,164.69,0,0,0-140.41-78.65,171.45,171.45,0,0,0-46.35,6.69c-35.26-56.23-97.69-93.79-169.1-93.79-97,0-178,69.33-195.88,161.14-2.9-.19-5.75-.53-8.73-.53a149.19,149.19,0,0,0,0,298.38h522.54a149,149,0,0,0,37.93-293.24Z" transform="translate(-413.16 -365.43)"/><path class="ae" d="M1637.83,884.09V828.84l-49.92,4.47a117.73,117.73,0,0,0-19.11-42.56L1609,759.16l-39.07-39.07L1536.55,760A117.46,117.46,0,0,0,1494,743.15l6.21-51.92H1445l4.67,52.16a117.58,117.58,0,0,0-42.33,17.41l-32-40.71-39.07,39.07L1375.47,792a117.69,117.69,0,0,0-18.57,42.79l-49.54-5.92v55.25l48.79-4.37a117.56,117.56,0,0,0,17.56,44.56l-37.49,29.49,39.07,39.07,30.14-36.08a117.48,117.48,0,0,0,45,18.83L1445,1021.7h55.25l-4.14-46.32a117.48,117.48,0,0,0,44.79-19.45l29,36.91L1609,953.77l-36.75-30.71a117.49,117.49,0,0,0,17-44.77Zm-165.24,31.53a56.2,56.2,0,1,1,56.19-56.2A56.2,56.2,0,0,1,1472.59,915.62Z" transform="translate(-413.16 -365.43)"/><path class="af" d="M1747.92,937.85V904.18l-30.42,2.72A71.64,71.64,0,0,0,1705.86,881l24.47-19.25-23.8-23.81-20.32,24.32A71.64,71.64,0,0,0,1660.29,852l3.78-31.64H1630.4l2.85,31.79a71.35,71.35,0,0,0-25.8,10.61l-19.51-24.81-23.81,23.81,23.92,20a71.57,71.57,0,0,0-11.31,26.07l-30.2-3.6v33.67l29.74-2.67a71.52,71.52,0,0,0,10.7,27.15l-22.85,18,23.81,23.8,18.37-22a71.62,71.62,0,0,0,27.44,11.47l-3.35,28.1h33.67l-2.53-28.23a71.44,71.44,0,0,0,27.3-11.85l17.69,22.49,23.8-23.8-22.39-18.72a71.55,71.55,0,0,0,10.38-27.28Zm-100.69,19.21a34.25,34.25,0,1,1,34.25-34.25A34.24,34.24,0,0,1,1647.23,957.06Z" transform="translate(-413.16 -365.43)"/><path class="s" d="M1408.37,1736.15c0-6.59,4.3-12.61,9.46-15.77l95.75-55c3.44-1.72,5.73-2.58,9.17-2.58a18.17,18.17,0,0,1,18.06,18.06,16.72,16.72,0,0,1-8.31,14.62l-75.68,40.71,75.68,40.71a16.38,16.38,0,0,1,8.31,14.62,18.36,18.36,0,0,1-18.06,18.06c-3.15,0-6.31-1.44-9.46-3.16l-95.17-54.75C1413,1748.48,1408.37,1742.46,1408.37,1736.15Z" transform="translate(-413.16 -365.43)"/><path class="s" d="M1632.26,1610.59c1.72-6.88,8.6-12,15.76-12,9.18,0,17.21,7.45,17.21,16.34a30.79,30.79,0,0,1-.86,6l-57.63,214.14a16.6,16.6,0,0,1-15.48,12c-9.74,0-17.2-7.45-17.2-16.63a18.55,18.55,0,0,1,.86-5.73Z" transform="translate(-413.16 -365.43)"/><path class="s" d="M1706.5,1776.86l75.68-40.71-75.68-40.71a16.72,16.72,0,0,1-8.31-14.62,18.17,18.17,0,0,1,18.06-18.06c3.44,0,5.73.86,9.17,2.58l95.75,55c5.16,3.16,9.46,9.18,9.46,15.77,0,6.31-4.59,12.33-9.75,15.48l-95.17,54.75c-3.15,1.72-6.31,3.16-9.46,3.16a18.36,18.36,0,0,1-18.06-18.06A16.38,16.38,0,0,1,1706.5,1776.86Z" transform="translate(-413.16 -365.43)"/><path d="M4462.65,366.93a.75.75,0,0,0,0-1.5.75.75,0,0,0,0,1.5Z" transform="translate(-413.16 -365.43)"/><path class="ag" d="M3031.19,2232.55c-6.09,22.2,17.27,146.11,16.29,176.35l68.52-10.14s15-142.12,4.86-193.51Z" transform="translate(-413.16 -365.43)"/><path class="ah" d="M3139.46,2549.16c-1,4.78-2.62,8.76-5.17,11.58a6.34,6.34,0,0,1-4.69,2l-230.88.22a6.45,6.45,0,0,1-6.26-4.61,26.34,26.34,0,0,1-1-7.3c.13-6.69,3.21-14.88,15-21a5.86,5.86,0,0,1,1.66-.59l44.42-9.87a56.36,56.36,0,0,0,27.91-15.41l57-57.85a6.25,6.25,0,0,0,1.77-5.29l-3.38-25.42a6.39,6.39,0,0,1,5.55-7.17l78.7-10.92a7.63,7.63,0,0,1,1.91,0,6.45,6.45,0,0,1,5.24,4.34c0,.08.05.13.05.16a5.67,5.67,0,0,1,.24,2.07v.24l-3.84,49.72a6,6,0,0,0,.3,2.5C3127,2465.44,3145.13,2521.1,3139.46,2549.16Z" transform="translate(-413.16 -365.43)"/><path d="M3139.46,2549.17c-1,4.78-2.63,8.75-5.17,11.57a6.37,6.37,0,0,1-4.7,2l-230.87.22a6.45,6.45,0,0,1-6.26-4.62,26.26,26.26,0,0,1-1-7.3l.14-1.61Z" transform="translate(-413.16 -365.43)"/><path d="M3213.45,1803.43c-12.54,150.06-74.52,505.72-74.52,505.72l-109,12.46-29.72,3.41-17.69-616L2975.78,1474C3252.81,1402.67,3226,1653.38,3213.45,1803.43Z" transform="translate(-413.16 -365.43)"/><path class="ag" d="M3296.13,2199.17c.59,23,58.76,134.9,66.57,164.12l62.66-29.51s-26.73-140.38-51.28-186.65Z" transform="translate(-413.16 -365.43)"/><path class="ah" d="M3491.29,2471c.46,4.86,0,9.14-1.6,12.58a6.37,6.37,0,0,1-3.93,3.24l-221,66.94a6.44,6.44,0,0,1-7.32-2.61,26.24,26.24,0,0,1-3-6.71c-1.81-6.43-1.23-15.17,8.29-24.39a6.23,6.23,0,0,1,1.42-1.05l39.67-22.28a56.45,56.45,0,0,0,22.26-22.82L3363.9,2402a6.24,6.24,0,0,0,.16-5.57l-10.58-23.36a6.39,6.39,0,0,1,3.24-8.47l72.18-33.2a7.71,7.71,0,0,1,1.83-.56,6.46,6.46,0,0,1,6.27,2.65,1,1,0,0,1,.1.14,6,6,0,0,1,.83,1.91l.07.23,10.69,48.71a6,6,0,0,0,1,2.3C3455.12,2394.45,3488.61,2442.49,3491.29,2471Z" transform="translate(-413.16 -365.43)"/><path d="M3491.29,2471c.46,4.86,0,9.14-1.6,12.58a6.43,6.43,0,0,1-3.93,3.24l-221,66.93a6.45,6.45,0,0,1-7.33-2.6,26.75,26.75,0,0,1-3-6.71l-.34-1.58Z" transform="translate(-413.16 -365.43)"/><path d="M3441.29,2258.06l-135.38,49.53-1.13.41-327.66-859.08,139.6-51.22,43.82-16s23.33,19.14,53.18,54l0,0c4,4.72,8.17,9.72,12.38,15A577.09,577.09,0,0,1,3287.3,1544C3318.42,1603.72,3441.29,2258.06,3441.29,2258.06Z" transform="translate(-413.16 -365.43)"/><path class="ai" d="M3037.75,1014.28s-65.66,18.78-69,36.41,86.4,11.83,86.4,11.83Z" transform="translate(-413.16 -365.43)"/><path class="ai" d="M3027.49,1023.57l9.5-5.3s83.26-25.21,76.91,1.48c-7.73,32.54-30.32,14.19-30.32,14.19l-13.63,8.34Z" transform="translate(-413.16 -365.43)"/><path class="ag" d="M2942.61,1216.54,2896,1265s-92.43-104.64-93.89-113.91,8-44.48,3-52.86c-5.7-9.5-20.45-15.43-30.92-21.63a27.17,27.17,0,0,0-34.57,5.71l-18.08,18.93s-16,25.13,34.9,59.06c0,0,7.28,10.23,24.16,37.58,11.16,18.09,47.36,80.56,77.65,126.3,14.51,21.9,45.84,13.3,62,5.25l81.59-48.68Z" transform="translate(-413.16 -365.43)"/><path class="aj" d="M3100.93,1197.76s-25.25-120-121.74-93.86c0,0-73.74,107.5-75,118.55s22.69,75.72,61.53,106.88C2965.73,1329.33,3080.81,1235.75,3100.93,1197.76Z" transform="translate(-413.16 -365.43)"/><path class="ag" d="M2781.93,1083.22s-59-58.84-68.32-70.53-11.7,16.37,14,37.42l28.06,35.07Z" transform="translate(-413.16 -365.43)"/><path class="ag" d="M2748.68,1059.46s-25.72-2.34-23.38,9.35,14,39.76,21,37.42,4.68-25.72,4.68-25.72Z" transform="translate(-413.16 -365.43)"/><path class="ag" d="M2730.27,1077s-12.69-2.11-10.57,8.46,12.68,35.94,19,33.82.45-23.74.45-23.74Z" transform="translate(-413.16 -365.43)"/><path class="ag" d="M2721.81,1089.68s-12.68-2.11-10.57,8.46,12.69,35.94,19,33.83.45-23.74.45-23.74Z" transform="translate(-413.16 -365.43)"/><path class="ag" d="M2806,1117.73l-.88-26.94-13.2-36.44s-16.43-30.52-21.13-28.17-7,16.43,9.39,42.25c0,0-16.43,51.65-2.35,70.43S2806,1117.73,2806,1117.73Z" transform="translate(-413.16 -365.43)"/><path class="ak" d="M3183.22,1461s53.69,56.38,88.59,230.88,134.39,531,134.39,531" transform="translate(-413.16 -365.43)"/><path d="M2910.6,865.33s-90.57,8.13-84.85-82.83,73.46-127.29,131.48-107.62,42,82,42,82,32.48-39.9,62.84-14.38S3076.28,794,3076.28,794s49.7-39.25,78-7.69c33,36.85-14.69,65.89-14.69,65.89s32.85,20.59,29.24,46.13-16.12,38.1-16.12,38.1,64.12-10.8,82,39.37-70.07,65.46-70.07,65.46l-109.25,39-74.15-183.64Z" transform="translate(-413.16 -365.43)"/><path class="ag" d="M3041.93,935.58l40.84,90.47-79.1,77.49-49.59-128.47-46.27-.2A34.82,34.82,0,0,1,2874,932.59l31.14-142.08s59.76,95.84,96.22,90.88S3032.58,850,3032.58,850s70.53,7.12,59.45,47.45S3041.93,935.58,3041.93,935.58Z" transform="translate(-413.16 -365.43)"/><path d="M2905.21,866a29,29,0,0,1-10.79,22.09,2.76,2.76,0,0,0-.42,3.3A27.7,27.7,0,0,0,2904.28,903a2.72,2.72,0,1,0,2.75-4.7,22.46,22.46,0,0,1-8.33-9.59l-.43,3.3A34.21,34.21,0,0,0,2910.65,866c0-3.5-5.41-3.51-5.44,0Z" transform="translate(-413.16 -365.43)"/><path d="M2916.15,940.81c12.29,3.14,26.08-1.84,34-11.71a32.09,32.09,0,0,0,5.36-9.74,2.72,2.72,0,1,0-5.25-1.44,26.43,26.43,0,0,1-3.67,6.94c-.21.28-.11.15-.39.5s-.44.54-.66.8c-.49.56-1,1.1-1.52,1.62s-.92.9-1.4,1.32l-.79.68-.62.49a30.62,30.62,0,0,1-3.48,2.28,34.42,34.42,0,0,1-3.37,1.66,31.25,31.25,0,0,1-7.75,2,29.17,29.17,0,0,1-4.58.09c-.82-.06-1.41-.12-1.92-.2-.83-.14-1.65-.31-2.47-.52-3.4-.87-4.85,4.38-1.45,5.25Z" transform="translate(-413.16 -365.43)"/><path d="M2956.08,973.18l27.81-1.39a2.79,2.79,0,0,0,2.73-2.73,2.76,2.76,0,0,0-2.73-2.72l-27.81,1.4a2.78,2.78,0,0,0-2.72,2.72,2.74,2.74,0,0,0,2.72,2.72Z" transform="translate(-413.16 -365.43)"/><path d="M3075.16,890.35c-3.19-10.82-14.29-17.43-25.22-17.46-12.15,0-21.87,8.54-26,19.56a34.46,34.46,0,0,0-1.22,19.77,2.77,2.77,0,0,0,2.63,2,2.81,2.81,0,0,0,2.62-2,18.5,18.5,0,0,1,10.35-10.1,17.48,17.48,0,0,1,14.83,1.19,17.81,17.81,0,0,1,6.38,6,2.79,2.79,0,0,0,3.73,1,2.76,2.76,0,0,0,1-3.73,23.74,23.74,0,0,0-16.48-10.7,23.25,23.25,0,0,0-18.68,5.7,23.51,23.51,0,0,0-6.35,9.26H3028a28.88,28.88,0,0,1,.47-14.61,27.06,27.06,0,0,1,7.4-12.26,18.34,18.34,0,0,1,2.68-2.14,26.69,26.69,0,0,1,3.35-1.86h0c.16-.08.34-.14.51-.21l.77-.28c.56-.19,1.13-.35,1.7-.5s1.16-.26,1.74-.36c.12,0,.78-.12.36-.06l.95-.1a26.45,26.45,0,0,1,3.56,0,15.34,15.34,0,0,1,3.09.44,27.36,27.36,0,0,1,3.43,1l.76.29c.3.12,0,0,0,0l.37.17q.87.39,1.71.84a18.66,18.66,0,0,1,5.75,4.56c.21.23.41.47.6.71-.24-.3.23.31.3.41.38.55.74,1.11,1.07,1.69a12.89,12.89,0,0,1,1.39,3.34c1,3.35,6.25,1.92,5.25-1.45Z" transform="translate(-413.16 -365.43)"/><path class="aj" d="M3168.28,1189.73l-11.9,150.42,45.49,91.61a2,2,0,0,1-.47,1.37c-14.68,17.69-57.72,28.79-101.55,35.32-48.32,7.17-97.55,8.83-110.92,7.64-11.15-1-16.89-5.91-19.84-11.07s-7.47-96.82-7.38-99.09a5.47,5.47,0,0,0-.32-2.22c-3.07-9.38-3.92-60.43-16.29-98.17-12.52-38.32,28-151.75,34.69-161.12a1.88,1.88,0,0,0,.19-1.91c-6.48-14.1-10.56-47.92-11.21-54.94a2.24,2.24,0,0,1,2.41-2.25c49.71.07,110-25,134.82-36.72a2.48,2.48,0,0,1,3.28,1l17.95,38.3c.15.33-13,6-12.72,6.2,3.63,2.46,27.69,19.57,52.38,52.05.25.32,26.85,29,26.85,29.42Z" transform="translate(-413.16 -365.43)"/><path class="al" d="M3049.78,1095.48q4.41-1.43,9-3.08a260.4,260.4,0,0,0,27.68-11.74,134,134,0,0,0,20.31-12.25,52,52,0,0,0,10.1-9.49,18.41,18.41,0,0,0,1.77-2.61c.33-.59.47-.89.41-.89-.45,0-2.88,5.17-13.22,12.65a139.38,139.38,0,0,1-20,11.8,270.26,270.26,0,0,1-27.22,11.45,275.58,275.58,0,0,1-50.11,13.06c-12.49,2-19.66,2.18-19.84,2.44a36.16,36.16,0,0,0,5-.06c3.33-.23,8.16-.55,14.43-1.47a252.57,252.57,0,0,0,41.78-9.81" transform="translate(-413.16 -365.43)"/><path class="ag" d="M3145.11,1280.53l39.31,95.65s-65.06,119.71-74.42,124.22-70.89,5.64-81.82,28.41c-4.93,10.27-9.17,24.43-12.33,36.88a33.5,33.5,0,0,0,19.08,38.85l35.35,15.52s28.93,9.57,52.89-48.19c0,0,2.22-18.71,25.82-45.37,15.61-17.63,75.53-89.64,114.34-136.41,18.58-22.4,4.9-41.15-8.35-68.72l-60.71-124.1Z" transform="translate(-413.16 -365.43)"/><path class="aj" d="M3193.51,1128.44s-89.07-23-98,76.6c0,0,43.08,111.52,53,116.52s78.89,4.93,121.56-20.73C3270.14,1300.83,3222.19,1160.47,3193.51,1128.44Z" transform="translate(-413.16 -365.43)"/><path class="al" d="M3270.14,1300.83s-69.4,36.61-121.56,20.73C3148.58,1321.56,3207.92,1336.4,3270.14,1300.83Z" transform="translate(-413.16 -365.43)"/><path class="ak" d="M3263.76,1495.85l-16.11,13.42s48.32,104.7,53.69,107.39a39.36,39.36,0,0,1,9.78,7.45S3309.4,1565.65,3263.76,1495.85Z" transform="translate(-413.16 -365.43)"/><path class="al" d="M3201.87,1136.7s-16.93-20.75-49.21,0" transform="translate(-413.16 -365.43)"/><path class="al" d="M2968.62,1288s67.59-13.56,116,20.66" transform="translate(-413.16 -365.43)"/><path class="al" d="M2977.12,1143.88s-30.4,36.25-34.4,89.84,16.16,32.72,18.67,130" transform="translate(-413.16 -365.43)"/><line class="ak" x1="2779.95" y1="1649.78" x2="2664.11" y2="1346.07"/><line class="ak" x1="2618.16" y1="1900.03" x2="2699.88" y2="1900.03"/><line class="ak" x1="2664.11" y1="1889.78" x2="2687.77" y2="1462.98"/><polygon class="am" points="1578.07 1933.24 1593.04 2044.38 1688.7 2030.03 1681.77 1923.94 1578.07 1933.24"/><path class="ae" d="M1991.74,2433.22,1987.09,2561l72.79,2.94,1.86-12.87,21.77,12.12,136.59-4.41s1.88-26.67-10.6-31.61-43.21-14.75-43.21-14.75l-66.13-42-7.89-56.11Z" transform="translate(-413.16 -365.43)"/><polygon class="aj" points="1579.79 2101.41 1682.4 2084.61 1679.94 1995.44 1569.74 2004.18 1579.79 2101.41"/><polygon class="aj" points="1289.18 2088.42 1393.15 2089.89 1406.37 2001.66 1296.34 1990.93 1289.18 2088.42"/><path class="ae" d="M1697,2441.65l-8.51,52.6-2.7,16.63-11.74,72.52,72.78,9.75,4.25-13.43,20.68,19.42,147.49,14s6.24-25.51-6.21-33-43.56-23.33-43.56-23.33l-63.22-56.5,1.43-61.29Z" transform="translate(-413.16 -365.43)"/><path class="an" d="M1989.64,959.53v-2.48s-5-5,19.85-5-14.89,19.85-14.89,19.85Z" transform="translate(-413.16 -365.43)"/><path class="ao" d="M1957.36,1402.92" transform="translate(-413.16 -365.43)"/><path class="ah" d="M2121.13,2396.05s-36.05,18.89-99.56,18.09a334,334,0,0,1-41.86-3.2l-104.2-545.83,81.75-351.94,151.91,41.11s.48,17.1,1.22,46.6C2114.16,1750.61,2125.28,2219.88,2121.13,2396.05Z" transform="translate(-413.16 -365.43)"/><path class="ah" d="M2021.57,2414.14a334,334,0,0,1-41.86-3.2l-104.2-545.83,81.75-351.94,151.91,41.11s.48,17.1,1.22,46.6C2074.56,1716.87,1964.7,2110.81,2021.57,2414.14Z" transform="translate(-413.16 -365.43)"/><ellipse class="ap" cx="2381.99" cy="1285.75" rx="13.1" ry="50.49" transform="matrix(0.82, -0.58, 0.58, 0.82, -718.01, 1248.85)"/><path class="aj" d="M2467.81,1273.41c-6.51,2.85-11.76,4.61-15,4.84a304.79,304.79,0,0,1-37.56-.06l-12.22,5-133,105.52V1287l101-50.55s52.07-93.3,63.54-88.84c9.89,3.85.23,40.32-2.59,50.31-.49,1.57-.76,2.51-.76,2.51s27.47,27.82,11.11,59.75C2442.31,1260.21,2461.7,1263.59,2467.81,1273.41Z" transform="translate(-413.16 -365.43)"/><path class="aj" d="M2548.82,1217.09s-47.91,41.81-81,56.32c-6.51,2.85-11.76,4.61-15,4.84a304.79,304.79,0,0,1-37.56-.06l-12.22,5,14-105.66,14.23,20.69s.24-.1.67-.31c8.1-3.59,86.44-38.09,103.28-28.84a.89.89,0,0,1,.14,1.5l-15.74,11.93c1.84-.69,30.07-11.2,39.48-7.13a2.52,2.52,0,0,1,.8,3.9l-11.18,7.39s12.12-1,13.65,4.75-53.06,31.27-54.41,32.22C2508,1223.67,2545.84,1206,2548.82,1217.09Z" transform="translate(-413.16 -365.43)"/><path class="ag" d="M2411.42,1326.72a.26.26,0,0,1-.08,0c-4.14,3.38-191.88,155.41-285.57,26.8V1140.72l67.24-47.49s49.69,178.91,106.76,171.47l52.1-19.85s5.41,27.91,30.49,56.37A155.84,155.84,0,0,0,2411.42,1326.72Z" transform="translate(-413.16 -365.43)"/><path class="ah" d="M1960.39,1451l-186.73,58.81-2.35-34.17-22,41.85-4.54,1.44s-.41,6.14-1.15,17.42c-6.6,34.7-22.2,140.69-23.16,371.06h0c-11.32,191.49-22.53,401.15-23.55,495.32,0,0,52.11,24.54,141.42,12.27,0,0,134-717.7,168.72-862.45Z" transform="translate(-413.16 -365.43)"/><path class="aj" d="M1947.65,1015.42l70.08-282.62,207.38-13.26,7.41,157.6a64.09,64.09,0,0,1-63.69,67.11l-63.46.34-10.53,98.53Z" transform="translate(-413.16 -365.43)"/><path d="M2104.82,775.77s164.22,17.56,173.54-57.18-224-105-284.24-38.37-20,211.8-20,211.8l87.31-21.23s-64.34-69.33-24.6-93S2095.63,812,2095.63,812Z" transform="translate(-413.16 -365.43)"/><path d="M2213.42,803.36l17,29.42.53-4.08a31.78,31.78,0,0,1-5.24,4.12c-1,.65-2.05,1.25-3.11,1.8-.53.28-1.06.54-1.61.8l-1,.44-.35.15a41.42,41.42,0,0,1-6.87,2.06c-.59.12-1.18.23-1.77.32-.16,0-.8.12-.35.06l-.89.11c-1.25.13-2.5.19-3.76.2a3.38,3.38,0,0,0,0,6.75,44.21,44.21,0,0,0,29.7-12,3.43,3.43,0,0,0,.52-4.09q-8.47-14.71-17-29.43a3.37,3.37,0,1,0-5.82,3.41Z" transform="translate(-413.16 -365.43)"/><path d="M2181.91,878.09a102.25,102.25,0,0,1-36.38-9.7,106.47,106.47,0,0,1-9.65-5.33,3.4,3.4,0,0,0-5,2c-4.17,16.92,3.87,35.14,18,44.92a37.65,37.65,0,0,0,13,5.78,3.37,3.37,0,0,0,1.79-6.5c-1-.22-1.91-.47-2.84-.77-.38-.12-.75-.25-1.11-.38l-.83-.31c-.14-.06-.95-.39-.27-.1a33.27,33.27,0,0,1-4.91-2.58c-.79-.49-1.55-1-2.3-1.56l-.58-.43c.49.38.08.06,0,0-.45-.37-.91-.74-1.35-1.13a39.71,39.71,0,0,1-3.93-4c-.32-.37-.63-.74-.94-1.13l-.37-.46c.4.51,0,0-.09-.14-.59-.78-1.15-1.59-1.68-2.42a43.14,43.14,0,0,1-2.76-5l-.24-.53c0-.09-.41-1-.12-.28-.15-.36-.3-.73-.43-1.09-.37-1-.7-1.94-1-2.93a39.48,39.48,0,0,1-1.2-5.57c.09.69,0,.17,0,0s-.07-.58-.1-.87c-.05-.58-.09-1.16-.11-1.75q-.07-1.61,0-3.21c0-.48.05-1,.1-1.46,0-.24,0-.48.07-.72s0-.3.05-.44c-.05.36-.06.42,0,.17.18-1.12.38-2.22.65-3.32l-4.95,2a107,107,0,0,0,37.59,14.48,115,115,0,0,0,11.84,1.47,3.39,3.39,0,0,0,3.37-3.37,3.44,3.44,0,0,0-3.37-3.37Z" transform="translate(-413.16 -365.43)"/><path d="M2041.85,807.25c-.26-.55,0,0,.05.14-.06-.14-.12-.29-.17-.43s-.18-.51-.25-.77-.13-.5-.19-.75,0-.29-.08-.43c-.13-.61,0,.55,0,.15s0-1,0-1.57c0-.1,0-.21,0-.31,0-.44-.15.71,0,.28s.11-.6.19-.9a3.8,3.8,0,0,1,.44-1.37c-.34.42-.25.53-.1.24l.18-.37c.13-.25.26-.5.4-.74s.3-.48.45-.71.56-.76.25-.35.19-.23.28-.33.44-.49.67-.73c.4-.4.81-.78,1.24-1.14l.35-.29s-.53.39-.23.18l.85-.61a23.09,23.09,0,0,1,3.11-1.74l.44-.2c-.09,0-.7.28-.14.06l.8-.3c.61-.22,1.23-.41,1.86-.58s1.19-.3,1.8-.41c.28-.06.57-.09.84-.15.47-.1-.64.06-.16,0l.61-.07a21.18,21.18,0,0,1,3.65,0c.33,0,1.07.15.3,0l.83.15a14.89,14.89,0,0,1,1.86.47c.3.09.6.2.9.31.74.26-.34-.19.19.07s1.15.57,1.69.91l.71.47c.08,0,.5.36.18.12s.16.13.24.2c.64.52,1.25,1.07,1.84,1.65s1.06,1.09,1.55,1.66c.23.27.46.54.68.82s0,0-.07-.09l.44.61a31.39,31.39,0,0,1,2.42,4c.18.36.36.73.53,1.09.07.14.13.28.19.42s.3.67.14.3,0,.13.06.16c.08.19.16.38.23.57.17.43.33.87.49,1.3q.8,2.29,1.37,4.65.65,2.64,1.06,5.32c.07.42.13.85.2,1.27.09.68,0,.21,0,.07,0,.27.06.53.1.8.11.91.2,1.82.29,2.74.34,3.73.49,7.47.59,11.22l6.62-.9c-3.05-12.71-15.91-21.58-28.72-21.57a26.81,26.81,0,0,0-10.87,2.36c-1.67.73-2,3.17-1.21,4.61a3.46,3.46,0,0,0,4.62,1.21c.13-.06.59-.21,0,0l.39-.15.92-.32a20.46,20.46,0,0,1,2-.55l.95-.19.55-.09c.07,0,.53-.06.09,0s.51,0,.65,0l1.11-.07c.64,0,1.29,0,1.93,0,.37,0,.74,0,1.11.08.21,0,1.29.16.48,0a28.3,28.3,0,0,1,3.94.87c.62.18,1.24.39,1.85.63.22.08,1,.39.36.13.34.14.68.3,1,.46a26.64,26.64,0,0,1,3.52,2c.27.18.54.36.8.55s.3.23.45.33c0,0-.42-.34-.13-.1.54.45,1.08.89,1.59,1.36s.93.9,1.37,1.38c.25.27.5.54.74.82s.78,1,.34.4a24.47,24.47,0,0,1,2.33,3.75c.16.33.31.66.46,1-.32-.71.16.45.22.61a22.86,22.86,0,0,1,.67,2.28c.89,3.69,6.72,2.92,6.62-.89-.36-14.13-1.38-30.37-11.72-41.15a22.79,22.79,0,0,0-8.24-5.65,21.22,21.22,0,0,0-8.72-1.27,26.37,26.37,0,0,0-16.22,6.63,16.79,16.79,0,0,0-4.91,7.76,14.49,14.49,0,0,0,1.1,10,3.4,3.4,0,0,0,4.62,1.21,3.45,3.45,0,0,0,1.21-4.61Z" transform="translate(-413.16 -365.43)"/><path class="ag" d="M2067,1565.72c-27.93,5.53-56.54,7.44-84.75,6.85,11.81-70.46,60.54-376,49.6-548.54l-47.32-42.57a69.7,69.7,0,0,1,34,1.79l54,16.67,1.46,19.15s.62,2.26,1.67,6.78a.1.1,0,0,1,0,.07C2084.24,1062.81,2120.34,1248.4,2067,1565.72Z" transform="translate(-413.16 -365.43)"/><path class="ag" d="M2031.82,1024c10.94,172.54-37.79,478.08-49.6,548.54-.62,0-1.27,0-1.89,0-42.17-1.07-83.38-7.69-119.86-16.18-49.94-11.61-104.85-31.43-127.48-40.58-9.43-3.83,41.32-210.92,67.69-338.57v0c15.58-75.47,31.63-137.62,43-147.87,23.62-21.18,102.49-38.9,137.89-47.21l.33-.07c.84-.2,1.68-.38,2.55-.55Z" transform="translate(-413.16 -365.43)"/><path class="ag" d="M2193,1093.23a32.21,32.21,0,0,0-4.66,7.12v0c-3.58,6.94-7.27,17.36-11,30.44-.25.87-.5,1.76-.75,2.68q-1.51,5.43-3,11.41c-.34,1.37-.69,2.73-1,4.14-2,8-4,16.65-5.95,25.83-.47,2.11-.92,4.24-1.37,6.4L2164,1187c-.27,1.37-.57,2.76-.84,4.15-2.14,10.47-4.27,21.48-6.35,32.87q-.75,4-1.49,8c-.5,2.75-1,5.53-1.49,8.31-.52,3-1,6-1.59,9.08q-1.41,8.19-2.83,16.53c-.39,2.48-.82,5-1.24,7.49-1.26,7.67-2.53,15.41-3.77,23.17-.25,1.47-.47,3-.69,4.42-.1.64-.2,1.26-.3,1.88-1.29,8.24-2.58,16.53-3.85,24.79-3.84,25.31-7.49,50.54-10.81,74.46q-.57,4-1.1,8c-.22,1.54-.44,3.08-.64,4.62s-.42,3-.62,4.56q-.93,6.86-1.84,13.47c-.2,1.49-.39,3-.59,4.42-.57,4.39-1.14,8.68-1.71,12.9-.2,1.41-.38,2.8-.55,4.19-.55,4.17-1.09,8.26-1.61,12.23-.23,1.84-.47,3.63-.7,5.39-1,8.16-2,15.88-2.95,23.1-.2,1.56-.4,3.1-.6,4.64-.05.47-.1.94-.17,1.41-.12,1-.25,2-.37,2.93-2.31,18.46-4.05,32.82-5.06,41.38,0,.4-.08.8-.13,1.17-.32,2.68-.57,4.71-.72,6,0,.22,0,.44-.07.62-.08.74-.13,1.11-.13,1.11q-9.68,3.43-19.57,6.13a2.68,2.68,0,0,0-.35.1c-.54.15-1.09.27-1.64.42q-9,2.46-18.08,4.27l-.75.15-.12,0a7.48,7.48,0,0,1-1,.23l-.59.12s-.05,0-.08,0c53.37-317.32,17.27-502.91,8.71-539.8a.1.1,0,0,0,0-.07c-1-4.52-1.67-6.78-1.67-6.78l-1.46-19.15,15.41,4.76a69.54,69.54,0,0,1,27,15.66l71.43,66.71,1.71,1.59Z" transform="translate(-413.16 -365.43)"/><path class="aq" d="M2125.78,1362.43" transform="translate(-413.16 -365.43)"/><path class="ar" d="M2065.79,1297.18l-26.89,186.1a8,8,0,0,1-9.36,6.7l-92-17.39-66-45.68-37.24-63.07,29.21-106.21,188.65,29.45,6.9,1.07A7.94,7.94,0,0,1,2065.79,1297.18Z" transform="translate(-413.16 -365.43)"/><path class="as" d="M2065.79,1297.18l-26.89,186.1a8,8,0,0,1-9.36,6.7l4.89-8.71s25.51-175,25.85-183.3-8-10.89-8-10.89l6.9,1.07A7.94,7.94,0,0,1,2065.79,1297.18Z" transform="translate(-413.16 -365.43)"/><path class="at" d="M1869.88,1283.63s57,195.41,113,197.53L1854,1456.48l-34.47-101.7Z" transform="translate(-413.16 -365.43)"/><ellipse class="ap" cx="1861.98" cy="1440.18" rx="66.51" ry="11.94" transform="translate(-862.65 1519.95) rotate(-48.62)"/><path class="aj" d="M1954.9,1452.05l-16.09-27.79a4.24,4.24,0,0,0-2.09-1.81L1877,1398.67a4.21,4.21,0,0,0-5.11,1.64l-40.42,63.13a4.18,4.18,0,0,0-.42,3.7c2.49,6.88,12,30.31,30.9,48.62.29,0,57-7.89,73.49-34.6l-8.17-21.67a.83.83,0,0,1,.77-1.11h-.92l-3.53-7.64a7.44,7.44,0,0,1,6.77-10.56h1.85s7.18,18.2,13.24,18.2h5.75A4.22,4.22,0,0,0,1954.9,1452.05Z" transform="translate(-413.16 -365.43)"/><path class="ag" d="M1922.17,1390.65c-18-1.09-47.64,32.26-69.64,60.86-16.38,21.27-28.5,39.9-28.5,39.9-29.45-20.91-52.51-42.53-70.17-64.5C1712.7,1375.64,1701,1322.47,1706,1272v0c0-17.79,5.84-37.28,10.82-54.21a389.69,389.69,0,0,1,19.29-51.34,534.52,534.52,0,0,1,43.66-77.27q10.73-15.95,22.4-31.23c7.11-9.34,13.11-22.63,24.45-27.37l33.81-14.15c6.89-2.89,15.65-7.37,22.17-2,15,12.36,24.67,49.07,30.7,83.95,6.62,37.93,8.9,73.7,8.9,73.7C1827.17,1314.62,1922.17,1390.65,1922.17,1390.65Z" transform="translate(-413.16 -365.43)"/><path class="au" d="M1801.08,1540.09s-29.77,86.84-29.77,268S1733,2414.77,1733,2414.77" transform="translate(-413.16 -365.43)"/><path class="au" d="M1841.59,1523.37s83.88-19.44,93.89-42.21" transform="translate(-413.16 -365.43)"/><path class="au" d="M2119.37,1471.89s37.29-360,69-371.51" transform="translate(-413.16 -365.43)"/><line class="au" x1="1301.75" y1="2004.18" x2="1400.37" y2="2015.66"/><line class="av" x1="1429.71" y1="2025.05" x2="1585.62" y2="1210.24"/><path class="au" d="M2002.89,2389.82s82.62,5.38,100.76-14.47" transform="translate(-413.16 -365.43)"/><path class="au" d="M2067,2385.87s44-755.47,17.77-798.64" transform="translate(-413.16 -365.43)"/><path class="au" d="M1851.94,1257.63l25,18.78s-15.21-46.13,53.86-120.63" transform="translate(-413.16 -365.43)"/><polyline class="au" points="1438.78 925.17 1429.71 921.65 1463.77 910.98"/><path class="au" d="M2278.63,1268.12c-8.63,18.91,15.51-3.29,15.51-3.29" transform="translate(-413.16 -365.43)"/></g></svg>