<svg version="1.1" id="Layer_1" xmlns="http://www.w3.org/2000/svg" xmlns:xlink="http://www.w3.org/1999/xlink" x="0" y="0" viewBox="0 0 4037.9 2598.1" style="enable-background:new 0 0 4037.9 2598.1" xml:space="preserve"><style>.st4{fill:#555356}.st5{fill:#403e41}.st7{fill:#f95d84}.st8{fill:#76d9e4}.st9{fill:#9edc6f}.st10{fill:#211f22}.st11{fill:#322f33}.st12{fill:#e3eaff}.st13{fill:#f0f0ee}.st15{fill:#d44945}.st18{fill:#fcd65b}.st25{fill-rule:evenodd;clip-rule:evenodd}.st26{fill:#ffa79b}.st27{fill:#e9eeff}.st29{fill:#ffac27}.st37{fill:#3030b5}.st40{fill:#e23b3b}.st41{fill:#ffe1e1}.st45{fill:#3f90e0}.st49{fill:#f47621}</style><path d="M210.9 1615.2c14.8 21.5 33.6 39.9 55.3 54.4 34.9 23.2 79.3 37.3 133.1 37.3 42.7-.1 84.4 13.2 119.2 38 48.2 34.4 80.3 88.9 82.8 150.5.1 2.6.2 5.2.2 7.8 0 98.5 41.5 188 108.3 252.9 69.8 67.6 163.2 105.4 260.4 105.2h2479c263.4 0 479-209.3 479-465.2 0-42.8-6.1-85.4-18.1-126.5-5.4-18.5-12-36.7-19.8-54.4-24.4-55.4-59.3-105.6-102.8-147.7-90.7-87.9-212-136.9-338.3-136.6h-12.6c-52.9 0-96.1-42-96.1-93.3.1-24.9 10.3-48.7 28.2-65.9 18.2-17.6 42.5-27.5 67.9-27.4h52.9c128.5 0 233.7-102.1 233.7-226.9 0-62.3-26.2-119-68.5-160.2-44.1-42.8-103.2-66.8-164.7-66.8h-228c-111.1 0-202.1-88.3-202.1-196.3 0-98.5-41.5-188-108.3-252.9-69.8-67.6-163.2-105.4-260.4-105.2H806.8c-263.4 0-479 209.3-479 465.2 0 127.9 53.9 244.2 140.7 328.5 90.7 87.9 212 136.9 338.3 136.6 25.3-.1 49.7 9.8 67.9 27.4 36.4 34.7 37.8 92.4 3.1 128.8-1 1-2 2.1-3.1 3.1-18.2 17.6-42.6 27.5-67.9 27.4H399.2c-217.4-.1-280.2 229.6-188.3 362.2z" style="fill-rule:evenodd;clip-rule:evenodd;fill:#c0bfbf"/><defs><path id="SVGID_1_" d="M210.9 1615.2c14.8 21.5 33.6 39.9 55.3 54.4 34.9 23.2 79.3 37.3 133.1 37.3 42.7-.1 84.4 13.2 119.2 38 48.2 34.4 80.3 88.9 82.8 150.5.1 2.6.2 5.2.2 7.8 0 98.5 41.5 188 108.3 252.9 69.8 67.6 163.2 105.4 260.4 105.2h2479c263.4 0 479-209.3 479-465.2 0-42.8-6.1-85.4-18.1-126.5-5.4-18.5-12-36.7-19.8-54.4-24.4-55.4-59.3-105.6-102.8-147.7-90.7-87.9-212-136.9-338.3-136.6h-12.6c-52.9 0-96.1-42-96.1-93.3.1-24.9 10.3-48.7 28.2-65.9 18.2-17.6 42.5-27.5 67.9-27.4h52.9c128.5 0 233.7-102.1 233.7-226.9 0-62.3-26.2-119-68.5-160.2-44.1-42.8-103.2-66.8-164.7-66.8h-228c-111.1 0-202.1-88.3-202.1-196.3 0-98.5-41.5-188-108.3-252.9-69.8-67.6-163.2-105.4-260.4-105.2H806.8c-263.4 0-479 209.3-479 465.2 0 127.9 53.9 244.2 140.7 328.5 90.7 87.9 212 136.9 338.3 136.6 25.3-.1 49.7 9.8 67.9 27.4 36.4 34.7 37.8 92.4 3.1 128.8-1 1-2 2.1-3.1 3.1-18.2 17.6-42.6 27.5-67.9 27.4H399.2c-217.4-.1-280.2 229.6-188.3 362.2z"/></defs><clipPath id="SVGID_2_"><use xlink:href="#SVGID_1_" style="overflow:visible"/></clipPath><g style="clip-path:url(#SVGID_2_)"><path d="m1196.4 202 1161.1 1156.3v329.3h-189.9L763.7 202zm1519.3 43.2 1161.1 1156.3v329.4h-189.9L2283 245.2zM795 485.6l1120.2 1190h-115.4L795 601v-84.1M309.4 396.7l1336.5 1420.7-223.5 24L261.3 601v-84.1M1843.1-76.9l1555.3 1711.6H3283L1843.1 94.7V-30.4" style="fill-rule:evenodd;clip-rule:evenodd;fill:#f0f0ee"/><path style="fill:#929192" d="M129.1 1627.5h3908.8V2315H129.1z"/></g><path class="st4" d="M3446.1 384.9h313.4c53.3 0 96.6 43.2 96.6 96.6v13.3c0 53.3-43.2 96.6-96.6 96.6h-313.4c-53.3 0-96.6-43.2-96.6-96.6v-13.3c0-53.3 43.3-96.6 96.6-96.6z"/><path class="st5" d="M1293.6 174.3h2010.6v1256.6H1293.6z"/><path d="M1654.7 486.4c48.1-22.7 105.6-2.1 128.3 46 2.2 4.7 4.1 9.7 5.5 14.7l177.7-13.8c-20.8-140.9-147.4-243.5-291.5-232.4-42.7 3.2-84 16.5-120.6 38.7l100.6 146.8zm136.8 99c-2.7 21.7-12.6 41.8-28.2 57l100.6 146.8c67-52.2 106-132.6 105.4-217.6l-177.8 13.8zm-60.5 77.9c-49.5 19.5-105.5-4.9-124.9-54.5-13.3-33.9-6.4-72.3 17.8-99.4l-101.1-147.5c-69.3 56.6-106.6 143.6-99.6 232.8 11.7 150.5 143.1 263.1 293.6 251.5 40.5-3.1 79.9-15.2 115.1-35.5L1731 663.3z" style="fill:#62d3bd"/><path class="st7" d="M1654.7 486.4c48.1-22.7 105.6-2.1 128.3 46 2.2 4.7 4.1 9.7 5.5 14.7l177.7-13.8c-20.8-140.9-147.4-243.5-291.5-232.4-42.7 3.2-84 16.5-120.6 38.7l100.6 146.8z"/><path class="st8" d="M1791.5 585.4c-2.7 21.7-12.6 41.8-28.2 57l100.6 146.8c67-52.2 106-132.6 105.4-217.6l-177.8 13.8z"/><path class="st9" d="M1731 663.3c-49.5 19.5-105.5-4.9-124.9-54.5-13.3-33.9-6.4-72.3 17.8-99.4l-101.1-147.5c-69.3 56.6-106.6 143.6-99.6 232.8 11.7 150.5 143.1 263.1 293.6 251.5 40.5-3.1 79.9-15.2 115.1-35.5L1731 663.3z"/><path class="st10" d="M2078 490.8h549.6v27.5H2078zm0-59.9h439.7v27.5H2078zm0-60h439.7v27.5H2078z"/><path class="st11" d="M3412.4 175.6c0 13.4-7.6 25.6-19.8 34.4s-29.1 14.3-47.6 14.3H1281.7c-37.1 0-67.4-21.9-67.4-48.7 0-13.4 7.6-25.6 19.8-34.4 12.2-8.8 29.1-14.3 47.6-14.3H3345c37.1 0 67.4 21.9 67.4 48.7zm-.6 1279.1c0 6.5-3.2 12.5-8.5 16.8-5.8 4.6-13 7.1-20.4 7H1292.5c-15.9 0-29-10.7-29-23.7 0-6.5 3.2-12.5 8.5-16.8 5.8-4.6 13-7.1 20.4-7h2090.4c16 0 29 10.6 29 23.7z"/><path class="st10" d="M2096.9 591.9H2613c11.3 0 20.5 9.2 20.5 20.5v679.5c0 11.3-9.2 20.5-20.5 20.5h-516.1c-11.3 0-20.5-9.2-20.5-20.5V612.4c0-11.3 9.2-20.5 20.5-20.5z"/><path class="st8" d="M2200.8 688.5h-37.1c-2 0-3.6-3.2-3.6-7.2s1.6-7.2 3.6-7.2h37.1c2 0 3.6 3.2 3.6 7.2 0 3.9-1.6 7.2-3.6 7.2zm229.9 0h-212.4c-2 0-3.6-3.2-3.6-7.2s1.6-7.2 3.6-7.2h212.4c2 0 3.6 3.2 3.6 7.2-.1 3.9-1.7 7.2-3.6 7.2z"/><path class="st7" d="M2286.1 718.1h-67.7c-2 0-3.6-3.2-3.6-7.2s1.6-7.2 3.6-7.2h67.7c2 0 3.6 3.2 3.6 7.2-.1 4-1.7 7.2-3.6 7.2z"/><path class="st12" d="M2397.4 718.1h-97.6c-2 0-3.6-3.2-3.6-7.2s1.6-7.2 3.6-7.2h97.6c2 0 3.6 3.2 3.6 7.2s-1.6 7.2-3.6 7.2zm33.3 144.5h-212.4c-2 0-3.6-3.2-3.6-7.2s1.6-7.2 3.6-7.2h212.4c2 0 3.6 3.2 3.6 7.2-.1 4-1.7 7.2-3.6 7.2z"/><path class="st8" d="M2200.8 892.2h-37.1c-2 0-3.6-3.2-3.6-7.2s1.6-7.2 3.6-7.2h37.1c2 0 3.6 3.2 3.6 7.2 0 4.1-1.6 7.2-3.6 7.2z"/><path class="st12" d="M2286.1 892.2h-67.7c-2 0-3.6-3.2-3.6-7.2s1.6-7.2 3.6-7.2h67.7c2 0 3.6 3.2 3.6 7.2-.1 4.1-1.7 7.2-3.6 7.2z"/><path class="st7" d="M2397.4 892.2h-97.6c-2 0-3.6-3.2-3.6-7.2s1.6-7.2 3.6-7.2h97.6c2 0 3.6 3.2 3.6 7.2 0 4.1-1.6 7.2-3.6 7.2zm85.9-144.4h-265c-2 0-3.6-3.2-3.6-7.2s1.6-7.2 3.6-7.2h265c2 0 3.6 3.2 3.6 7.2s-1.6 7.2-3.6 7.2z"/><path class="st8" d="M2362.9 763.1h68.1c.3 0 .6.3.6.6v13.2c0 .3-.3.6-.6.6h-68.1c-.3 0-.6-.3-.6-.6v-13.2c0-.3.2-.6.6-.6z"/><path class="st12" d="M2306.3 777.5h-88c-2 0-3.6-3.2-3.6-7.2s1.6-7.2 3.6-7.2h88c2 0 3.6 3.2 3.6 7.2s-1.6 7.2-3.6 7.2z"/><path class="st8" d="M2353.2 777.5h-34.9c-2 0-3.6-3.2-3.6-7.2s1.6-7.2 3.6-7.2h34.9c2 0 3.6 3.2 3.6 7.2s-1.6 7.2-3.6 7.2z"/><path class="st12" d="M2200.8 806.1h-37.1c-2 0-3.6-3.2-3.6-7.2s1.6-7.2 3.6-7.2h37.1c2 0 3.6 3.2 3.6 7.2s-1.6 7.2-3.6 7.2zm282.5 0h-265c-2 0-3.6-3.2-3.6-7.2s1.6-7.2 3.6-7.2h265c2 0 3.6 3.2 3.6 7.2s-1.6 7.2-3.6 7.2zm-282.5 113.6h-37.1c-2 0-3.6-3.2-3.6-7.2s1.6-7.2 3.6-7.2h37.1c2 0 3.6 3.2 3.6 7.2s-1.6 7.2-3.6 7.2zm162.1-14.3h94.5c.4 0 .7.3.7.7v13c0 .4-.3.7-.7.7h-94.5c-.4 0-.7-.3-.7-.7v-13c.1-.4.4-.7.7-.7zm-56.6 14.3h-88c-2 0-3.6-3.2-3.6-7.2s1.6-7.2 3.6-7.2h88c2 0 3.6 3.2 3.6 7.2s-1.6 7.2-3.6 7.2zm46.9 0h-34.9c-2 0-3.6-3.2-3.6-7.2s1.6-7.2 3.6-7.2h34.9c2 0 3.6 3.2 3.6 7.2s-1.6 7.2-3.6 7.2z"/><path class="st9" d="M2200.8 948.4h-37.1c-2 0-3.6-3.2-3.6-7.2s1.6-7.2 3.6-7.2h37.1c2 0 3.6 3.2 3.6 7.2s-1.6 7.2-3.6 7.2z"/><path class="st8" d="M2264.2 948.4h-45.9c-2 0-3.6-3.2-3.6-7.2s1.6-7.2 3.6-7.2h45.9c2 0 3.6 3.2 3.6 7.2s-1.6 7.2-3.6 7.2zm-100.5-112.6c-2 0-3.6-3.2-3.6-7.2s1.6-7.2 3.6-7.2h37.1c2 0 3.6 3.2 3.6 7.2s-1.6 7.2-3.6 7.2"/><path class="st12" d="M2363 821.5h106.9c.4 0 .7.3.7.7v13c0 .4-.3.7-.7.7H2363c-.4 0-.7-.3-.7-.7v-13c0-.4.3-.7.7-.7z"/><path class="st9" d="M2306.3 835.8h-88c-2 0-3.6-3.2-3.6-7.2s1.6-7.2 3.6-7.2h88c2 0 3.6 3.2 3.6 7.2s-1.6 7.2-3.6 7.2zm46.9 0h-34.9c-2 0-3.6-3.2-3.6-7.2s1.6-7.2 3.6-7.2h34.9c2 0 3.6 3.2 3.6 7.2s-1.6 7.2-3.6 7.2z"/><path class="st12" d="M2430.7 978.9h-212.4c-2 0-3.6-3.2-3.6-7.2s1.6-7.2 3.6-7.2h212.4c2 0 3.6 3.2 3.6 7.2-.1 4-1.7 7.2-3.6 7.2zm-144.6 29.7h-67.7c-2 0-3.6-3.2-3.6-7.2s1.6-7.2 3.6-7.2h67.7c2 0 3.6 3.2 3.6 7.2-.1 4-1.7 7.2-3.6 7.2zm111.3 0h-97.6c-2 0-3.6-3.2-3.6-7.2s1.6-7.2 3.6-7.2h97.6c2 0 3.6 3.2 3.6 7.2s-1.6 7.2-3.6 7.2zm33.3 144.5h-212.4c-2 0-3.6-3.2-3.6-7.2s1.6-7.2 3.6-7.2h212.4c2 0 3.6 3.2 3.6 7.2-.1 3.9-1.7 7.2-3.6 7.2z"/><path class="st7" d="M2200.8 1182.7h-37.1c-2 0-3.6-3.2-3.6-7.2s1.6-7.2 3.6-7.2h37.1c2 0 3.6 3.2 3.6 7.2s-1.6 7.2-3.6 7.2z"/><path class="st8" d="M2286.1 1182.7h-67.7c-2 0-3.6-3.2-3.6-7.2s1.6-7.2 3.6-7.2h67.7c2 0 3.6 3.2 3.6 7.2-.1 4-1.7 7.2-3.6 7.2z"/><path class="st12" d="M2397.4 1182.7h-97.6c-2 0-3.6-3.2-3.6-7.2s1.6-7.2 3.6-7.2h97.6c2 0 3.6 3.2 3.6 7.2s-1.6 7.2-3.6 7.2z"/><path class="st7" d="M2200.8 1038.2h-37.1c-2 0-3.6-3.2-3.6-7.2s1.6-7.2 3.6-7.2h37.1c2 0 3.6 3.2 3.6 7.2 0 4.1-1.6 7.2-3.6 7.2zm14.6-14.3h196.2c.4 0 .6.3.6.6v13.1c0 .4-.3.6-.6.6h-196.2c-.4 0-.6-.3-.6-.6v-13.1c-.1-.3.2-.6.6-.6z"/><path class="st12" d="M2200.8 1067.9h-37.1c-2 0-3.6-3.2-3.6-7.2s1.6-7.2 3.6-7.2h37.1c2 0 3.6 3.2 3.6 7.2s-1.6 7.2-3.6 7.2zm105.5 0h-88c-2 0-3.6-3.2-3.6-7.2s1.6-7.2 3.6-7.2h88c2 0 3.6 3.2 3.6 7.2s-1.6 7.2-3.6 7.2zm46.9 0h-34.9c-2 0-3.6-3.2-3.6-7.2s1.6-7.2 3.6-7.2h34.9c2 0 3.6 3.2 3.6 7.2s-1.6 7.2-3.6 7.2zm-152.4 28.7h-37.1c-2 0-3.6-3.2-3.6-7.2s1.6-7.2 3.6-7.2h37.1c2 0 3.6 3.2 3.6 7.2s-1.6 7.2-3.6 7.2zm14.6-14.4h247.2c.4 0 .7.3.7.7v12.9c0 .4-.3.7-.7.7h-247.2c-.4 0-.7-.3-.7-.7v-12.9c0-.3.4-.7.7-.7zm-14.6 128h-37.1c-2 0-3.6-3.2-3.6-7.2s1.6-7.2 3.6-7.2h37.1c2 0 3.6 3.2 3.6 7.2 0 3.9-1.6 7.2-3.6 7.2zm282.2 0h-117.2c-2 0-3.6-3.2-3.6-7.2s1.6-7.2 3.6-7.2H2483c2 0 3.6 3.2 3.6 7.2 0 3.9-1.6 7.2-3.6 7.2zm-176.7 0h-88c-2 0-3.6-3.2-3.6-7.2s1.6-7.2 3.6-7.2h88c2 0 3.6 3.2 3.6 7.2 0 3.9-1.6 7.2-3.6 7.2zm46.9 0h-34.9c-2 0-3.6-3.2-3.6-7.2s1.6-7.2 3.6-7.2h34.9c2 0 3.6 3.2 3.6 7.2 0 3.9-1.6 7.2-3.6 7.2z"/><path class="st9" d="M2215.3 1224.5h163.1c.3 0 .6.3.6.6v13.2c0 .3-.3.6-.6.6h-163.1c-.3 0-.6-.3-.6-.6v-13.2c0-.4.3-.6.6-.6z"/><path class="st7" d="M2363 1111.9h113.2c.4 0 .7.3.7.7v12.9c0 .4-.3.7-.7.7H2363c-.4 0-.7-.3-.7-.7v-12.9c0-.4.3-.7.7-.7z"/><path class="st9" d="M2306.3 1126.2h-88c-2 0-3.6-3.2-3.6-7.2s1.6-7.2 3.6-7.2h88c2 0 3.6 3.2 3.6 7.2 0 4.1-1.6 7.2-3.6 7.2zm46.9 0h-34.9c-2 0-3.6-3.2-3.6-7.2s1.6-7.2 3.6-7.2h34.9c2 0 3.6 3.2 3.6 7.2 0 4.1-1.6 7.2-3.6 7.2z"/><path class="st13" d="M1428.8 943.6H1963c14.4 0 26.2 11.7 26.2 26.2v368.4c0 14.4-11.7 26.2-26.2 26.2h-534.2c-14.4 0-26.2-11.7-26.2-26.2V969.7c.1-14.4 11.8-26.1 26.2-26.1z"/><path d="M1645.6 897.8h372.3c2.7 0 4.9 2.2 4.9 4.9v241.2c0 2.7-2.2 4.9-4.9 4.9h-372.3c-2.7 0-4.9-2.2-4.9-4.9V902.8c0-2.8 2.2-5 4.9-5z" style="fill:#d2e6ff"/><path class="st15" d="M1832.1 1021.4h-.8c-1.7 0-3.4-.4-4.9-1.3l-147.3-81.8c-4.8-2.7-6.6-8.8-3.9-13.7s8.8-6.6 13.6-3.9l142.8 79.3 142.8-79.3c4.8-2.7 11-.9 13.6 3.9 2.7 4.8.9 11-3.9 13.7l-147.3 81.8c-1.3.9-3 1.3-4.7 1.3z"/><g style="opacity:.62"><path d="M2703.3 835.7h53.9v129.5h-53.9zm66.5-54.8h53.9v184.3h-53.9zm66.4-51.9h53.9v236.2h-53.9zm66.5 43.3h53.9v192.9h-53.9zm66.5-23.1h53.9v216h-53.9zm66.4-49h53.9v265h-53.9zm66.5-46.1h53.9v311.2h-53.9zm66.5-46.2h53.9v357.3h-53.9z" style="fill:#aa9af4"/></g><path class="st13" d="M2681.4 994.1h586.9c3.9 0 7 3.2 7 7v.3c0 3.9-3.2 7-7 7h-586.9c-3.9 0-7-3.2-7-7v-.3c0-3.9 3.1-7 7-7z"/><path class="st13" d="M3252.4 518.1h.3c3.2 0 5.9 2.6 5.9 5.9v471.5c0 3.2-2.6 5.9-5.9 5.9h-.3c-3.2 0-5.9-2.6-5.9-5.9V524c0-3.3 2.6-5.9 5.9-5.9z"/><path class="st18" d="M2720.8 1046.9h527.3c9.7 0 17.6 7.9 17.6 17.6v.9c0 9.7-7.9 17.6-17.6 17.6h-527.3c-9.7 0-17.6-7.9-17.6-17.6v-.9c0-9.7 7.9-17.6 17.6-17.6zm161.1 57.8h366.3c9.7 0 17.6 7.9 17.6 17.6v.9c0 9.7-7.9 17.6-17.6 17.6h-366.3c-9.7 0-17.6-7.9-17.6-17.6v-.9c0-9.8 7.9-17.6 17.6-17.6zm-60.1 74.5h426.3c9.7 0 17.6 7.9 17.6 17.6v.9c0 9.7-7.9 17.6-17.6 17.6h-426.3c-9.7 0-17.6-7.9-17.6-17.6v-.9c0-9.8 7.9-17.6 17.6-17.6z"/><defs><path id="SVGID_3_" d="M0 830.5h1336.9v1402.8H0z"/></defs><clipPath id="SVGID_4_"><use xlink:href="#SVGID_3_" style="overflow:visible"/></clipPath><g style="clip-path:url(#SVGID_4_)"><path d="M0 1598.8s8.4-4.3 22.4-9.9c64.1-19.8 199.9-13.6 250 8 29.9 12.9 99.7 46.9 159.4 76.4-21.9 2.6-74.7 16.9-91.4-.4 0 0-36.1 87.5-21.5 125.2s176.8 54.1 145.1 62.9-156.1-18.4-156.1-18.4-11 90 23.2 107.6 213.4-8.8 196.3 8.8-181.1 35.8-200 16.3c0 0-3.7 108.1 56.1 119.4s223.2-80.5 209.2-55.3-165.3 98.1-211.6 70.4c0 0 41.5 103.1 79.2 103.1s131-132.6 149.9-113.1-81.7 114.4-137.8 125.7c0 0 22 59.1 93.9 41.5s59.7-133.2 81.7-123.2 1.2 137-71.9 137c0 0 119.5 28.9 147.5-37.7 7.9-18.7 11.7-34.1 13.3-46.6 10.9 52.6 17.1 116.1 20.2 179.8h-109c-164.2 56.4-157.4 169.9 14.2 221.9h329c171.6-52 178.3-165.5 14.1-221.8h-89c20.7-168.9 51.3-309.3 76.3-405.8 3.9 11.3 10.4 25.7 20 35.6 17.9 18.5 52.4-44.5 52.4-76s-37.1-1.2-37.1-18.9 5.4-8.8 53-8.8 64.6-100.6 64.6-100.6-71.9 8.8-71.9-5 57.3-6.3 93.9-16.3c36.6-10.1 57.3-91.8 57.3-91.8s-104.9 31.4-104.9 17.6 81.1-27 96.3-42.7 20.7-86.8 20.7-86.8-69.5 66.6-80.5 66.6 73.8-73.5 65.8-81.7c-7.9-8.2-11-42.9-11-42.9-15.2 15.6-40.2-4.9-56.1 11.5-15.9 16.3-44.5 141.4-56.1 153.4-11.6 11.9 32.3-99.9 12.2-120.7-20.1-20.7-74.6 31.8-85.3 42.9-10.7 11.1 25.6 132.5 11 147.6-14.6 15.1-11.6-106.8-23.3-118.8-11.7-12-42.6 18.9-51.7 54.7-9.1 35.8 70.4 97.1 47.6 120.7-22.9 23.6-43.9-66-64-86.7-14.9-15.3-45.7 14.7-60.8 41.3 3.5-108.5 9-205.1 17.1-274.1 16.3 45.3 100.4 99.6 159.6 37.4 12.6 10.3 28.2 14.8 47.6 7.6 70.3-26.1 76.8-44.1 62-51.3-14.8-7.1-152.2-86.8-135.4-95.4 16.8-8.6 140 91 163.5 79s59.6-61.3 55.4-63.3c-4.2-2-174.9-65.5-155.9-75.3s150.9 84 175.7 42.6c24.8-41.4 25.9-66.5 23.6-76.5s-149.9-21.2-144.9-32.2c5-10.9 143.9 11.7 154.7-12 10.8-23.7 13.5-58 1.5-63.8s-83.9 16.2-78.5 4.4c5.4-11.9 75.8-15.6 73.2-26.9-2.6-11.3-10.2-73.9-5.3-84.8 0 0-49.8-34.1-61.9-51-12.1-16.9-25.1-11-29.2-1.9-4.1 9.1-36.9 148.4-40.6 132.8-3.6-15.7 37.7-139.7 29.2-143.8s-52.1-38.5-65.6-18.3-18.3 204.7-33.6 206.2 21.7-214.2 21.7-214.2-51.2 3-69.6 26.4c-18.4 23.4.9 240-14.9 238.8-15.8-1.2-8.2-227.7-8.2-227.7s-63.7 30.4-67.6 61.9 40.2 173.4 26.2 180.6c-14 7.1-28.6-139.5-28.6-139.5s-55.4 25.5-58.6 68.5 50.6 96.7 44.3 110.4c-6.2 13.7-54.2-44.1-62.3-79-8.1-34.9-69 144.7-17.5 169.5 15.5 7.5 27.2 10.2 36 10.3-25.5 67.7-33.1 336-35.2 409-9.7-9.5-16.3-16.5-16.3-16.5-13.6 5.4-21.6 23-25.3 45.7-6.7-8.5-11.4-13.7-11.4-13.7s-5.5 18.9-13.7 44.4c-8.6-68.4-7.6-50.1-7.9-64.8 1.3-8.6 1.4-15.8-.3-20.9-7-435.7-5-408.1-7.1-410.5 1-30 10.6-294.3 46.2-365.5C864.7 942 889.1 854 889.1 854s-32.3 52.2-61 81.7-53.7 35.2-53.7 61.6 37.8 111.9 13.4 99.3c-24.4-12.6-18.3-64.1-26.8-64.1s-43.9 118.2-43.9 124.5c0 6.3 61 55.3 45.1 71.7-15.9 16.3-41.5-62.9-51.2-52.8-9.8 10.1-12.2 96.8-12.2 119.4 0 22.6 46.9 10.7 25.6 32.7-21.3 22-25.6 109.7-25.6 150.2-50.7-119.7-96.2-150.5-170.7-195.7 16.2 0 36.8-4.4 53.9-22 33.7-34.8 49.2-163.2-28.5-198.5 3.4-19 1-38.3-12.6-56-49.4-64.1-66.8-62.2-66.8-42.4s-11 210.2-24.7 196.1c-13.7-14.1 19.2-198.9 0-218.7s-74.1-34.9-74.1-29.2 15.5 224.4 0 208.4 9.2-207.4-34.8-214-64.9 4.7-72.2 12.2 42 175 31.1 175-47.5-163.7-71.3-163.7-53 14.1-53 30.2 46.6 83.9 34.8 83.9-43-75.4-51.2-66.9S102 1025 91 1025c0 0-8.2 71.7-17.4 93.3s.9 33 10.1 33 136.7-33.5 125.3-21.7-129.5 28.1-129.5 39.4c0 11.3-11 76.4 11 81.1s175.6-82 182.9-66-184.7 83-184.7 83 22.9 54.7 49.4 63.2 196.9-120.7 202.2-102.8c5.3 17.9-184 122.6-184 122.6s50.3 54.7 77.7 43.4 126.7-130.6 138.1-118.8c11.4 11.8-103.3 100.9-103.3 100.9s43 48.1 79.5 30.2 59.4-103.7 73.2-103.7-14.7 81.4-40.2 107.7c-25.5 26.3 146.3 3.6 146.3-65.3 0-29.1-4.8-45.3-10.2-54.4 30.5 18.8 63.4 36.4 92 67.1 74.2 76.7 121.8 228.1 152.5 403.3-10.6-7.5-18.8-6.8-18.8 2.7 0 16.3-38.4 186.7-57.3 167.2s53.7-174.7 28-201.1c-15.2-15.7-50.5-36.1-78.3-46.3v-.1c-12-12.4-48.4-25.3-37.2-61.1 11.2-35.8-47.8-67.9-47.8-67.9s-36.6 54.7-69.5 54.7 42.1-35.8 42.1-56.6-113.2-58.6-113.2-58.6 31.8 93.7 31.6 121.9c-13.5-9.8-28-14.3-40.3-21.2-10.8-30.9-15.7-91.9-33.4-98.9-18.4-7.2-45.1-25.8-57.4-12.7 36.2 95.1-3.6 76.6-21.9 69.8-8.8-23-30.4-100.5-35.9-100.5-6 0-16.9 7.3-34.2 12.4 12.9 25.6 41.9 86.6 25.7 91.5-15.1 4.5-55.6-55.6-76.1-87.8-2.2-.3-4.5-.6-6.8-1-15.5-2.8-26-4-34.1-3.3 12.2 18.2 29.5 47.6 22.6 60-6.1 11-34.7-14.8-56.7-37.3-5.9 6.4-12.9 14.4-22.3 24-43.6 44.6-70.7 88.5-70.7 88.5zm501.1-434.6c-4.5-4.7 26.9-36.2 43.9-74.4-.1 4.1.3 8.1.9 12.1 4.6 26.4-37 70.3-44.8 62.3zm507.8 274c5.6-2.8 14.9 39.9 35.7 70.6-3-1.5-6.2-2.7-9.5-3.5-21.9-4.9-35.8-62.2-26.2-67.1zM778 1754.8c-13.9-79.6-32-154.8-63.9-239.4 10.2 6.5 23.9 3.9 36.4-8.9 21.4-22.1 12.6-102.3 26.7-118.1-1.4 33.1-.7 183.2.8 366.4zm81.2 250.1c-.1 4.8-.1 9.6-.2 14.4-14.2 19.3-30.7 41.6-43.7 43.3-.8-8.9-1.5-17.8-2.3-26.6 8.4-10.6 21-24 32.4-40.2 6.6 8.2 10.4 8.4 13.8 9.1zm88.2-130.8c-9.2 9.5-39.7-14.1-64.7-36.7.3-11.1.6-22.2.8-33.2 20.9 24.4 77.4 56 63.9 69.9zm-68.1 502.1c-.5-83.3-.8-179.5-.2-278.7 11-35.5 12.6-75.3 10.4-95.1 33.6-9.3 75.2-34.4 91.2-44.7-25.6 97.6-57.8 242.7-79.2 418.4h-22.2zm-44.3 0c-2.8-66.9-6.7-138.7-11.7-211.4 14.2-5 24.1-11.1 34.6-24.6-.5 84-.5 164.7-.3 235.9l-22.6.1zm-36.1 0c-1.1-54-2.5-121.4-4.2-205.8 3.9-.2 7.8-.6 11.6-1.3 4.3 72.4 7.1 142.3 9 207.1h-16.4zm-60.6-219.6c13.6 7.4 28.5 11.9 43.8 13.4.8 74.9 1.6 145.3 2.4 206.2h-14c-4.4-77.7-14-156.6-32.2-219.6zm38.6-300.1c2.8 20.2 2.1 8 2.7 71.3-16.9 46.1-37 90.9-49.8 85.3-17.6-7.8 24.8-92.5 47.1-156.6zm-201.2-145.1c7.2-2.1 14.7-4.5 21.8-6.9 3.4 49.6 20 155.1-11.7 155.1-28.6.1-9.9-94.9-10.1-148.2zm-131-31.7c8.9 4.4 17.3 8.6 25.4 12.6 13.1 29.5 37.6 89.2 18.3 84.5-21.6-5.4-31.1-75.1-43.7-97.1z" style="fill:#8cc15d"/></g><path d="m627 1199 42.7-18.6 60.8 544.4-131 19-40.5-407.4c-11.4-86.7 29.2-118.3 68-137.4z" style="fill:#b23434"/><path class="st15" d="M980.1 1150.5c-9.3 1.2-188 14.2-284.3 22.1-44.6 3.7-79.1 43.7-76.7 121.1l50.1 449.7 351.6-106.9 75.6-295.6-116.3-190.4z"/><path style="fill-rule:evenodd;clip-rule:evenodd;fill:#d4dfff" d="m1021.7 1173.2 26.4 7.2 4.8 16.8h-16.8z"/><path class="st11" d="M478.4 1824.6H2327v451.9H478.4z"/><path class="st4" d="M478.4 1824.6H2053v451.9H478.4z"/><path d="M2466.4 1789.8c-.1 41.8-33.9 75.6-75.7 75.7H431.5c-41.8-.5-75.3-34.8-74.9-76.6.5-41.1 33.7-74.4 74.9-74.9h1959.2c29.7.1 56.6 17.5 68.9 44.5 4.5 9.8 6.8 20.5 6.8 31.3z" style="fill:#1a171a"/><path class="st10" d="M2459.7 1758.5c-3.5 6.4-7.9 12.2-13 17.4-14.2 14.2-33.4 22.2-53.5 22.2H433.9c-29.7-.1-56.6-17.5-68.9-44.5 3.5-6.4 7.9-12.2 13-17.4 14.2-14.2 33.4-22.2 53.5-22.2h1959.2c29.7.1 56.7 17.5 69 44.5z"/><path d="M2052.5 1798.2c-4.4 38.3-36.7 67.2-75.3 67.3H431.5c-41.8-.1-75.6-34-75.7-75.7 0-3.1.2-6.3.6-9.4 13.6 11.5 30.9 17.8 48.7 17.8h1647.4z" style="fill:#373438"/><path class="st5" d="M2053 1789.8c0 2.8-.2 5.6-.5 8.4H405.1c-17.8 0-35.1-6.3-48.7-17.8 4.9-37.8 37-66.2 75.2-66.3h1545.7c17.8 0 35.1 6.3 48.7 17.8 17 14.3 26.9 35.5 27 57.9z"/><path class="st25" d="M2928.5 1336.6s-31.2 127.4-7.2 214 221.2 685.1 221.2 685.1h242.8l-125-343.8.5-16.1c.4-14.4-4.2-28.5-13.1-39.9l-16.2-20.9-173.2-490.4c-.1 0-96.1-60.1-129.8 12z"/><path class="st25" d="m3221.8 2033.8 9.6 199.5h-307.7l12-274 74.5-521.7-6.9-80.7-3.4-39.5 221.9-28.8c1.4 1.7 53.2 66.3 74.5 173 14.1 70.3-74.5 543.3-74.5 543.3s9.6 7.2 0 28.9z"/><path d="m3221.8 2033.8 9.6 199.5h-47.2l-.9-170.7-24-33.7 24-19.2s67.3-339 76.9-480.8c9.5-139.8-37.1-237.6-38.4-240.4 1.4 1.7 53.2 66.3 74.5 173 14.1 70.3-74.5 543.3-74.5 543.3s9.6 7.3 0 29zM2844.1 597.5s-119.7-9.9-91.7-127 124.4-149 195.4-110.3 36.2 116.2 36.2 116.2 51.3-44.6 85-4.5 6.8 70.3 6.8 70.3 73.6-39.8 103.2 7.6c34.6 55.4-34 82.4-34 82.4s38.1 34.2 27.6 66.6-29.6 45.9-29.6 45.9 85.9.4 97.9 69.8-106 69.3-106 69.3L2984 910l-55-255.8-84.9-56.7z"/><path class="st18" d="m2999.2 718.6 32.7 127-120.5 83-35.5-178.5-60.2-10.7c-25-4.5-41.7-28.3-37.2-53.4.6-3.2 1.5-6.3 2.7-9.3l72.7-177.9s56.1 138.2 104.7 140 47.8-33.7 47.8-33.7 90.2 25.2 66.6 75.2c-23.5 49.9-73.8 38.3-73.8 38.3z"/><path d="M2837.1 596.8c-.3 1.5-.6 3-1.1 4.5-.2.6-.4 1.3-.6 1.9-.1.4-.3.7-.4 1.1-.1.1-.5 1.2-.2.5-1.2 2.7-2.6 5.2-4.3 7.6l-.7.9c-.4.6.3-.3-.2.3l-1.5 1.8c-1 1.1-2 2.1-3 3l-1.8 1.5-.3.2-.8.6c-1.3.9-2.6 1.7-3.9 2.5-1.4.8-2.1 2.5-1.6 4.1 1.8 6.7 5.5 12.8 10.7 17.4 1.4 1.4 3.7 1.4 5.1 0 1.4-1.4 1.4-3.7 0-5.1-1.1-1-2.2-2.1-3.2-3.3-.2-.3-.5-.5-.7-.8.4.5-.3-.4-.3-.4-.4-.6-.9-1.3-1.3-1.9-.8-1.3-1.5-2.6-2.1-3.9.3.6-.2-.4-.2-.5-.1-.3-.2-.7-.4-1-.3-.8-.5-1.6-.7-2.4l-1.7 4.1c11.5-6.5 19.7-17.8 22.2-30.8.5-1.9-.6-3.9-2.5-4.4-1.8-.5-4.1.5-4.5 2.5zm-3.1 100c15.7 7.1 34.6 3.6 47.4-7.7 3.5-3.1 6.5-6.8 8.7-10.9 1.1-1.7.6-3.9-1.1-5-1.7-1.1-3.9-.6-5 1.1-.1.1-.1.2-.2.3-.4.8-.9 1.6-1.4 2.4-.2.4-.5.7-.7 1.1l-.3.5c-.1.1-.7.9-.4.6s-.2.3-.3.3l-.4.4c-.3.4-.6.7-.9 1.1-.6.7-1.3 1.3-1.9 2s-1.4 1.2-2.1 1.8l-.4.4s-.8.6-.3.2-.3.2-.3.2l-.7.5c-1.5 1.1-3.1 2-4.7 2.9-.8.4-1.6.8-2.4 1.1 0 0-.9.4-.4.2l-.4.2c-.5.2-.9.3-1.4.5-1.7.6-3.5 1.1-5.3 1.5-.9.2-1.8.4-2.7.5-.2 0-.9.1-.1 0l-.6.1c-.5.1-1.1.1-1.6.1-1.8.1-3.7.1-5.5 0l-1.6-.1-.6-.1c-.9-.1.6.1-.2 0-1-.2-2.1-.4-3.1-.6s-2.1-.6-3.1-.9c-.5-.2-.9-.3-1.4-.5-.2-.1-.4-.2-.7-.3l.2.1-.5-.2c-1.7-.8-3.9-.6-4.9 1.3-.8 1.6-.5 4.1 1.3 4.9zm45.6 51.4 36.5 4.5c1.9.2 3.7-1.8 3.6-3.6-.1-2-1.6-3.5-3.6-3.6l-36.5-4.5c-1.9-.2-3.7 1.8-3.6 3.6 0 1.9 1.6 3.5 3.6 3.6zm173.1-80.6c-.9-7.4-4.3-14.2-9.8-19.3-5.4-5-12.1-8.3-19.3-9.5-7.6-1.3-15.3 0-22.1 3.7-6.7 3.8-12.2 9.3-16 16-4.4 7.6-6.5 16.3-6 25.1 0 2 1.6 3.6 3.6 3.6 1.3 0 2.4-.7 3.1-1.8.5-.8 1-1.6 1.5-2.3.3-.4-.3.4 0 0l.4-.5c.4-.4.7-.8 1.1-1.2.6-.7 1.3-1.3 2-1.9.2-.1 1-.8.6-.5.4-.3.8-.6 1.2-.8.8-.5 1.6-1 2.4-1.4l1.2-.6.6-.3c1-.4-.6.2.3-.1 1.7-.7 3.5-1.2 5.3-1.5.2 0 1.4-.2.6-.1l1.3-.1c1-.1 2-.1 2.9 0 .5 0 1 .1 1.4.1.1 0 .8.1.3 0s.2 0 .3.1c.9.2 1.9.4 2.8.6.9.2 1.7.6 2.6.9.1 0 .6.3 0 0l.6.3c.5.2 1 .5 1.4.7.8.4 1.5.8 2.2 1.3.4.2.7.5 1 .7.2.1.4.2.5.4-.6-.5.2.2.3.2.8.6 1.5 1.3 2.2 2.1.4.4.7.8 1.1 1.2.1.2.3.3.4.5s.4.6.1.2c.6.8 1.2 1.7 1.8 2.7.3.5.5.9.8 1.4l.3.6c.1.2.4 1 .1.3.7 1.7 2.4 3.2 4.4 2.5 1.7-.5 3.3-2.6 2.5-4.4-3.4-8.3-10.3-14.8-18.8-17.8-8.5-2.9-17.8-1.9-25.5 2.8-4.4 2.6-8 6.3-10.7 10.6l6.7 1.8c-.1-1.7-.1-3.5 0-5.2 0-.4.1-.8.1-1.2 0-.2.2-1.4.1-.6.1-.9.3-1.8.5-2.7.3-1.7.8-3.3 1.3-4.9.3-.8.6-1.6.9-2.3 0-.1.3-.7.1-.3s.1-.2.1-.3c.2-.4.4-.8.6-1.3.8-1.6 1.6-3.1 2.5-4.5.4-.7.9-1.3 1.4-2 .1-.2.8-1.1.4-.5.3-.4.6-.8 1-1.2 1.1-1.3 2.2-2.5 3.5-3.6.6-.5 1.2-1.1 1.8-1.6.4-.3-.4.3 0 0l.5-.4c.4-.3.7-.5 1.1-.8 1.4-.9 2.9-1.8 4.4-2.5.2-.1 1.2-.5.5-.2.4-.2.8-.3 1.1-.4.9-.3 1.7-.6 2.6-.8s1.5-.4 2.2-.5c.4-.1.8-.1 1.1-.2-.9.1.3 0 .6 0 1.6-.1 3.2-.1 4.8 0l1.1.1c.9.1-.5-.1.5.1s1.6.3 2.4.5c1.6.4 3.1.8 4.6 1.4.2.1 1.2.5.5.2l1 .5c.7.3 1.4.7 2.2 1.1s1.4.8 2.1 1.3l.9.6.5.3c.1.1.7.6.3.2l.2.2.6.4c.4.3.7.6 1.1.9l1.8 1.8c.3.3.6.7.9 1.1l.4.4c.4.5-.2-.3 0 0 .5.7 1 1.4 1.5 2.2s.9 1.5 1.3 2.3c.1.2.6 1.3.3.5.2.4.3.9.5 1.3.3.8.5 1.6.7 2.4.1.5.2.9.3 1.4 0 .2.1.4.1.6.1.8-.1-.7 0 .2.2 1.9 1.5 3.7 3.6 3.6 1.8-.1 3.8-1.6 3.6-3.6l.1-.3z"/><path class="st18" d="m2569.6 804.7-65.4-107.4s-14-11.7-9.3 9.3 32.7 67.7 32.7 67.7l-14.5-5.4c-2.7-1-5.7-.7-8.1.9-3.4 2.2-7.7 5.4-7.7 6.8v8.1c0 2.2-1.2 4.2-3.1 5.4l-4.6 2.8c-2.5 1.5-4 4.2-4 7.1v3c0 2.4-1.4 4.7-3.6 5.8l-1.3.7c-2.8 1.4-4.8 4.1-5.5 7.2l-.9 4.8c-.3 1.3-.3 2.7 0 4l2.9 14.3c.9 4.4 3.9 8.1 8.1 9.7l5 2 22.1 50.2c2.3 5.2 6.6 9.3 11.9 11.5l38.4 15.4 30.4-25.7-23.5-98.2z"/><path class="st18" d="m2656 951.9-51.4-67.8-42 44.4 51.3 112.1z"/><path class="st18" d="M2609.3 919.2v-25.6c0-1.6-.1-3.2-.2-4.8l-8.3-83.8c-.5-4.8-2.1-9.4-4.6-13.5l-31.6-51.4c-1.1-1.9-3.6-2.5-5.5-1.4-.1.1-.2.1-.3.2-5.3 4.1-12.3 16.4 6.2 51.8l2.3 25.7s-21 37.4-16.4 56.1 35 51.4 35 51.4l23.4-4.7z"/><path class="st26" d="M2903.6 902.8s-18.7 4.7-67.7 58.4-84.1 72.4-100.4 70.1-79.4-79.4-79.4-79.4L2579 1022s32.7 196.2 137.8 214.9c105.1 18.7 198.5-35 198.5-35l-11.7-299.1z"/><path class="st26" d="M2997.3 844.2c13-4.7 25.9-7.4 37.3-6 20.2 2.6 51.9 30.6 55.4 51 10.7.2 16.5 9.1 23.5 15.9 26 25.2 48.5 53.6 68 84.1 91.1 142.5 109.5 301 28 334-86.4 35-249.9 44.4-280.3 2.3-18.9-26.1-29.8-55.1-46.1-82.4-13.6-22.8-34.5-36.9-41.7-64.9-5.3-20.9-4-43.1-9.9-63.9-3.7-13.1-10.2-25.1-14.9-37.9-16.4-44.9-7.6-98 22.3-135.3 25.4-31.7 63-50.7 99.4-68.7 16-7.8 37.7-20.5 59-28.2z"/><path class="st18" d="m3106.8 1164.4-126.2 74.7 30.4 53.8 158.8-49.1z"/><path class="st26" d="M3281.9 1220.4c-41.2 35.5-89.3 52.9-120.7 61-11 3-22.2 5.2-33.5 6.7l-69.6-77.8-.2-.2-9.4-10.6-.1-.1v-.1s56.1-53.7 121.4-81.7l-149.5-210.2s58.4-32.7 100.4 0 229 254.7 161.2 313z"/><path d="m3172.1 1278.8-10.9 2.7c-11 3-22.2 5.2-33.5 6.7l-69.6-77.8c17.4 18.1 62.2 54.3 114 68.4zm-121.4-219.5 80 66.7c1.9 1.6 2.1 4.3.6 6.2l-.6.6-80 66.7 57-68.4c.8-1 .8-2.4 0-3.4l-57-68.4z"/><path class="st13" d="M2935.7 1403.9c-12.9 5.5-28.6 8.9-44.8 10.8-39.4 4.6-82.1.8-95.3-.6-1.2-.1-2.5-.4-3.6-.8-1.4-.4-2.7-1.1-3.9-1.9l-44.7-29c2.4-76.9 4.8-139.4 4.8-139.4l-93.8-170.7 69.7 40.9 109.8 16.7.8.1c24 74.5 67.3 125 67.3 125l33.7 148.9z"/><path class="st27" d="M2935.7 1403.9c-12.9 5.5-28.6 8.9-44.8 10.8l-98.9-1.5-5.3-143.9-38.5-26.4 38.5 12 101-5.6c-35.7-58.8-49.4-103-53.6-119.5l.8.1c24 74.5 67.3 125 67.3 125l33.5 149z"/><path class="st27" d="m2784.3 1259.7 2.4-2.4s-52.9-98.6-57.7-127.4c0 0 43.6 94.1 79.5 133.6l-24.2-3.8z"/><path class="st18" d="m3019.4 1288.1-94.9 44.4s-51.2-4.8-74.1-10.4c-4.8-1.2-8.3-2.4-10-3.6-9.3-7-7-14-7-14l-23.4-21-13.5-26.9-.6-1.1s-23.3-18.7-10.2-19.4 35.9 14.7 35.9 14.7h74.7l-30.4-51.1 42.1 13.7 67.7 23.4h18.7l25 51.3z"/><path class="st18" d="M2850.3 1322c-4.8-1.1-8.3-2.4-10-3.6-9.3-7-7-14-7-14l-23.4-21-13.5-26.9 38.2 22.5 9.6 4.8s-2.4 12 0 19.2c2.5 7 5.9 18.3 6.1 19z"/><path d="M2855.2 1135.4s90.6-39.7 161 5.1m-162-226.2s-80.8 94.8-57.3 159.6" style="fill:none;stroke:#000;stroke-width:4.11;stroke-miterlimit:10"/><path class="st29" d="M3143.5 332.7v123.1c0 18.9 15.3 34.2 34.1 34.2h46.5l-6.1 63.4 79.2-63.4h127c18.9 0 34.2-15.3 34.2-34.1V332.7c0-18.9-15.3-34.2-34.1-34.2h-246.6c-18.9 0-34.2 15.3-34.2 34.2z"/><path class="st18" d="M3157.9 332.7v123.1c0 18.9 15.3 34.2 34.1 34.2h46.5l-20.6 63.4 88.8-63.4H3429c18.9 0 34.2-15.3 34.2-34.1V332.7c0-18.9-15.3-34.2-34.1-34.2h-237c-18.9 0-34.2 15.3-34.2 34.2z"/><circle class="st13" cx="3237.7" cy="395.1" r="12.8"/><circle class="st13" cx="3308.3" cy="395.1" r="12.8"/><circle class="st13" cx="3379.8" cy="395.1" r="12.8"/><path class="st10" d="M270.6 2228.5h3656c23.3 0 42.2 18.9 42.2 42.2v2c0 23.3-18.9 42.2-42.2 42.2h-3656c-23.3 0-42.2-18.9-42.2-42.2v-2c0-23.3 18.9-42.2 42.2-42.2z"/><path class="st26" d="m1401.9 1360.7 14.9 7.2c3 1.5 6.6.7 8.8-1.9l123.8-118.2 64.9 48.1-135.4 195.8c-9.6 16.6-28.7 25.3-47.6 21.6l-67.1-13.1 37.7-139.5z"/><path d="M1364.2 1509.7s-99.6-6-197.1-43.2c-25.6-9.7-51-21.6-74.5-36.1-113-69.7 33.6-182.7 33.6-182.7l38.6-25.2s96.6 70.5 181.7 109.9c11.1 5.1 21.9 9.7 32.3 13.5 16.3 5.9 28 20.4 30.2 37.6 4.2 33.3 1.9 87.3-44.8 126.2z" style="fill-rule:evenodd;clip-rule:evenodd;fill:#e5be51"/><path class="st26" d="m1558.9 1278.9-9.6-31.2 17.9-69.4c.9-3.4 2.5-6.6 4.6-9.3 9.2-11.6 35-43.7 44.8-53.5 12-12 12 28.9-7.2 57.7 0 0 21.6 93.8-7.2 120.2-28.8 26.4-43.3-14.5-43.3-14.5zm-678.7 41.3-75.4-326.5L1010.6 872l89.7 157.8c20.1 35.4 7.7 80.4-27.7 100.6-.9.5-1.8 1-2.7 1.4l-64.9 33.4 40.6 106.6-165.4 48.4z"/><path d="M916.6 992.5s177.6-67.6 148.3-149.1c-29.4-81.5-284.5 9-311.6 108.8s89.9 227.7 89.9 227.7l78.5-67.3S819.6 1075 848 1030c28.4-45 78.1 4.4 78.1 4.4l-9.5-41.9zm126-28.2 32.7 21.3-1.8-4.4c-.2.7-.5 1.4-.8 2l.1-.2-.2.5c-.2.4-.3.7-.5 1.1-.6 1.2-1.2 2.4-1.9 3.6-.7 1.2-1.5 2.4-2.3 3.5-.2.3-.4.5-.6.8s-.1.2.1-.1l-.4.5c-.4.5-.8 1-1.3 1.5-1.9 2.1-3.9 4-6.1 5.8-.6.5.4-.3-.3.2l-.8.6c-.6.4-1.1.8-1.7 1.1-1.2.8-2.5 1.5-3.8 2.2-1.8 1.1-2.4 3.5-1.3 5.3 1.1 1.8 3.4 2.4 5.2 1.4 11.2-6 19.8-15.9 24-27.9.4-1.7-.3-3.5-1.8-4.4l-32.7-21.3c-1.9-1.1-4.2-.4-5.3 1.4-1 1.9-.4 4.3 1.5 5.5zm7.2 92.7c-6.9 2.9-14.1 5.2-21.5 6.8-1.8.4-3.7.7-5.5 1l-2.8.4-.6.1h-.2l-1.4.2c-3.8.4-7.6.7-11.3.8-4.3.1-8.5-.1-12.8-.4-2.6-.2-4.3 2.6-3.7 4.9 4.6 19.6 22.7 34 42.3 36.5 5.4.7 10.9.3 16.2-1 2.1-.6 3.3-2.7 2.7-4.8-.6-2-2.7-3.2-4.8-2.7-1.1.3-2.1.5-3.2.7-.3 0-.6.1-.9.1 1-.1.1 0-.1 0l-1.7.2c-2.1.1-4.3.1-6.4-.1-.3 0-.6 0-.9-.1-.3-.1-1-.3-.1 0-.5-.1-1-.2-1.4-.2-1.2-.2-2.3-.4-3.4-.7-2.1-.5-4.1-1.2-6.1-2-.9-.4.8.3-.2-.1l-.8-.4-1.3-.6c-1.1-.5-2.1-1.1-3.1-1.7-1-.6-1.8-1.1-2.6-1.7-.4-.3-.9-.6-1.3-.9l-.7-.5c.5.4.2.1-.1-.1-1.8-1.4-3.4-2.9-5-4.6-.7-.8-1.4-1.5-2-2.3l-.5-.6c-.6-.8.5.7-.1-.1l-1-1.4c-1.4-2-2.6-4.1-3.6-6.3-.1-.3-.2-.5-.3-.8.4 1-.1-.2-.2-.4-.2-.6-.4-1.1-.6-1.7-.4-1.2-.8-2.4-1-3.7l-3.7 4.9c15.4 1.3 31-.3 45.9-4.7 4.1-1.2 8.2-2.7 12.2-4.4 1.9-.8 3.4-2.6 2.7-4.8-.9-2-3.1-3.8-5.1-2.8z"/><path d="M869 1058.1c-.5-.4-1.1-.9-1.5-1.4-.2-.2-.5-.7-.7-.8.1 0 .6.8.2.2-.1-.1-.2-.3-.3-.5s-1-1.3-.9-1.6c0 0 .3 1 .2.3l-.2-.4c-.1-.3-.2-.7-.3-1-.1-.3-.1-.6-.2-.8-.2-.7.1.4 0 .4v-2.5c0-.1.1-1.2 0-.5s.1-.4.1-.6c.1-.7.3-1.3.5-2l.3-.9c.1-.3.1-.3.2-.4.2-.6-.1.2-.1.3.4-.6.7-1.3 1-1.9.3-.6.7-1.2 1.1-1.8l.6-.9c.3-.5-.2.1-.2.2 0-.1.3-.4.4-.5.9-1.1 2-2.2 3.1-3.2l.8-.7s.3-.3.4-.3c-.3.1-.6.4-.2.2.7-.5 1.3-.9 2-1.4.7-.4 1.2-.7 1.9-1l.9-.4-.2.1.7-.3c.6-.2 1.3-.4 1.9-.6.7-.1 1.5-.3 2.2-.4-.7.3-.7.1-.3 0h1.6c.8 0 1.5.1 2.2.1.6 0-1-.2-.2 0l.6.1 1.2.3c.9.2 1.8.5 2.7.8.4.1.8.3 1.2.4l.6.2c-.8-.3-.3-.1-.1 0 .9.4 1.7.8 2.6 1.3 1.5.9 3 1.8 4.4 2.9.1.1.6.5-.1 0l.5.4 1 .8c.7.6 1.4 1.2 2.1 1.9 1.3 1.3 2.6 2.6 3.8 4 .7.8 1.3 1.6 1.9 2.3-.5-.6 0 0 .1.1l.5.6 1 1.3c1.2 1.7 2.4 3.5 3.5 5.3 2.3 3.6 4.3 7.3 6.3 11l6.1-4.7c-9.7-11.4-27.4-13.5-40.5-7.1-3.6 1.8-6.9 4.3-9.5 7.5-1.3 1.6-1.7 4 0 5.5 1.4 1.3 4.1 1.7 5.5 0 1-1.2 2.1-2.3 3.3-3.3.2-.2.4-.3.5-.4.4-.4-.6.4-.1.1s.6-.4.9-.6c.7-.5 1.4-.9 2.1-1.3.7-.4 1.3-.7 2-1l.6-.3c-.1 0-.8.3-.2.1l1.2-.4c1.5-.5 3.1-.9 4.7-1.2.4-.1.7-.2 1.1-.2-.1 0-.9.1-.2 0l.6-.1c.8-.1 1.7-.1 2.5-.2 1.6 0 3.1 0 4.7.2.3 0 .5-.1-.2 0 .2 0 .4 0 .6.1l1.1.2 2.4.6c.8.2 1.4.4 2.1.7.2.1 1.3.5.8.3s0 0 .2.1l.6.3c1.6.8 3.1 1.7 4.5 2.7.7.5-.5-.4 0 0 .2.2.4.3.5.4.3.3.7.6 1 .9.7.6 1.3 1.3 1.9 2 1.4 1.4 3.6 1.5 5.1.3 1.5-1.2 2-3.3 1-5-7.6-14.1-16.8-29.5-32.5-35.6-6.9-3-14.8-2.6-21.3 1.1-6.2 3.4-11 8.8-13.7 15.3-2.8 6.9-1.4 15.1 4.6 19.9 1.6 1.2 4 1.7 5.5 0 1.3-1.4 1.7-4.1 0-5.5l-.3-.1z"/><path d="M1417.1 1714.1H762s-229.6 36-114.2-233.2c33.4-77.9 79-151.5 137.4-213.1 27.1-28.6 45.6-29.4 82.7-36.3 57.6-10.7 114.9-24.2 172.3-36.3 49-10.3 116.7 4.4 148.5 47.7 26.5 36 60.1 276.4 228.4 471.2z" style="fill-rule:evenodd;clip-rule:evenodd;fill:#fcd65b"/><path d="M793.5 1565.5s-6.3-29.4-78.4-27h-31.2s52.9-14.4 125 0c0 0 74.5-67.3 86.6-84.1 0 0 45.7 156.2 228.4 163.5l-110.6 43.3-180.3-60.1-39.5-35.6z"/><path class="st26" d="M761.4 1716.4s-17-94 66.8-122.6l218.6 57.2v63.3l-285.4 2.1z"/><path class="st26" d="m1021.4 1651.4 24.7-4.3c.5-.1.9-.2 1.4-.4l75.8-26.4c7.4-2.6 15.4-2.8 23-.7l30 8.6c.9.2 1.7.6 2.5 1.2l15.5 10.3c1.1.7 2.4 1.2 3.8 1.4l24.9 3.3c2.4.3 4.5 1.6 5.9 3.5l1.1 1.4c1.7 2.3 2.2 5.4 1.3 8.2l-2 5.8c-.4 1.3-1.2 2.5-2.2 3.5l-2 2c-1.7 1.7-2.6 3.9-2.6 6.3v6.4c0 2.6-1.2 5.1-3.2 6.8l-4.1 3.4c-3 2.5-4 6.6-2.6 10.1l.1.2c1 2.5.8 5.4-.6 7.8-1.6 2.7-4.5 4.4-7.7 4.4H1034c-4.1 0-7.7-2.8-8.6-6.8l-11.1-45.3c-1.2-4.8 1.8-9.6 6.6-10.7.1.1.3.1.5 0z"/><path d="M1631.6 1028.3h663.7c18.7 0 33.8 15.1 33.8 33.8V1495c0 18.7-15.1 33.8-33.8 33.8h-663.7c-18.7 0-33.8-15.1-33.8-33.8v-432.9c0-18.7 15.1-33.8 33.8-33.8z" style="fill:#3e3ed6"/><path d="M1624.5 1052.9v451.4c0 13.6 11 24.6 24.6 24.6h682.2c13.6 0 24.6-11 24.6-24.6v-451.4c0-13.6-11-24.6-24.5-24.6h-682.3c-13.6 0-24.6 11-24.6 24.6z" style="fill:#5b4ced"/><linearGradient id="SVGID_5_" gradientUnits="userSpaceOnUse" x1="14098.332" y1="742.882" x2="14044.202" y2="793.182" gradientTransform="rotate(180 8121 1110.535)"><stop offset="0" style="stop-color:#6663b2"/><stop offset="1" style="stop-color:#372bcd"/></linearGradient><path style="opacity:.6;fill:url(#SVGID_5_);enable-background:new" d="m2144.5 1385.4 43.7 143.4h-29.1z"/><linearGradient id="SVGID_6_" gradientUnits="userSpaceOnUse" x1="14476.721" y1="676.861" x2="14322.821" y2="819.871" gradientTransform="rotate(180 8121 1110.535)"><stop offset="0" style="stop-color:#6663b2"/><stop offset="1" style="stop-color:#372bcd"/></linearGradient><path style="opacity:.6;fill:url(#SVGID_6_);enable-background:new" d="M1865.1 1385.4h-80.2L1661 1528.8h272.1z"/><path d="m2125 1385.4 50.1 281.9c3.8 21.4-10.4 41.7-31.8 45.5-2.3.4-4.6.6-6.9.6h-218l-53.4-328h260z" style="fill:#4040c6"/><path class="st37" d="m2144.5 1385.4 50.1 281.9c3.8 21.3-10.4 41.7-31.8 45.5-2.3.4-4.6.6-6.9.6h-218l-53.5-328h260.1z"/><path class="st37" d="M1942.8 1674.6h-116.1c-4.8 0-8.7 8.7-8.7 19.4s3.9 19.4 8.7 19.4h116.1v-38.8z"/><linearGradient id="SVGID_7_" gradientUnits="userSpaceOnUse" x1="14250.093" y1="1278.19" x2="14252.362" y2="1033.28" gradientTransform="rotate(180 8121 1110.535)"><stop offset="0" style="stop-color:#6663b2"/><stop offset="1" style="stop-color:#372bcd"/></linearGradient><path d="m1638.7 1030.6 102.5 104.6H2283s42.6-75.4 60.5-103.7c-3.7-2.1-7.9-3.2-12.2-3.2h-682.2c-3.6 0-7.1.8-10.4 2.3z" style="opacity:.55;fill:url(#SVGID_7_);enable-background:new"/><path d="M2164.9 1203.2h-313c-4.8 0-8.7-3.9-8.7-8.7v-2c0-4.8 3.9-8.7 8.7-8.7h313c4.8 0 8.7 3.9 8.7 8.7v2c0 4.8-3.9 8.7-8.7 8.7zm0 41.3h-313c-4.8 0-8.7-3.9-8.7-8.7v-2c0-4.8 3.9-8.7 8.7-8.7h313c4.8 0 8.7 3.9 8.7 8.7v2c0 4.8-3.9 8.7-8.7 8.7zm0 41.3h-313c-4.8 0-8.7-3.9-8.7-8.7v-2c0-4.8 3.9-8.7 8.7-8.7h313c4.8 0 8.7 3.9 8.7 8.7v2c0 4.8-3.9 8.7-8.7 8.7zm0 38.9h-313c-4.8 0-8.7-3.9-8.7-8.7v-2c0-4.8 3.9-8.7 8.7-8.7h313c4.8 0 8.7 3.9 8.7 8.7v2c0 4.8-3.9 8.7-8.7 8.7z" style="fill:#6562f4"/><path class="st29" d="M812.5 668.8v123.1c0 18.9-15.3 34.2-34.1 34.2h-46.5l6.1 63.4-79.2-63.3h-127c-18.9 0-34.2-15.3-34.2-34.1V668.8c0-18.9 15.3-34.2 34.1-34.2h246.6c18.9 0 34.2 15.3 34.2 34.2z"/><path class="st18" d="M798.1 668.8v123.1c0 18.9-15.3 34.2-34.1 34.2h-46.5l20.6 63.4-88.8-63.3H527c-18.9 0-34.2-15.3-34.2-34.1V668.8c0-18.9 15.3-34.2 34.1-34.2h237c18.9 0 34.2 15.3 34.2 34.2z"/><circle class="st13" cx="718.2" cy="731.2" r="12.8"/><circle class="st13" cx="647.7" cy="731.2" r="12.8"/><circle class="st13" cx="576.1" cy="731.2" r="12.8"/><path class="st40" d="M891.9 1653.9v43.3c0 2.4-.4 4.7-1.3 6.9-2.8 7.4-10 12.3-17.9 12.3H490.4c-10.6 0-19.2-8.6-19.2-19.2v-43.3c0-10.6 8.6-19.2 19.2-19.2h382.3c7.9 0 15.1 4.9 17.9 12.3.9 2.2 1.3 4.6 1.3 6.9z"/><path class="st41" d="M891.9 1653.9v43.3c0 2.4-.4 4.7-1.3 6.9-1.4.2-2.7.3-4.1.3H491c-11 0-19.9-6.1-19.9-13.6v-30.6c0-7.5 8.9-13.6 19.9-13.6h395.4c1.4 0 2.8.1 4.1.3.9 2.3 1.4 4.7 1.4 7z"/><path class="st40" d="M490.4 1634.7h302.9c10.6 0 19.2 8.6 19.2 19.2v43.3c0 10.6-8.6 19.2-19.2 19.2H490.4c-10.6 0-19.2-8.6-19.2-19.2v-43.3c0-10.6 8.6-19.2 19.2-19.2z"/><path d="M490.4 1634.7h295.7c10.6 0 19.2 8.6 19.2 19.2v43.3c0 10.6-8.6 19.2-19.2 19.2H490.4c-10.6 0-19.2-8.6-19.2-19.2v-43.3c0-10.6 8.6-19.2 19.2-19.2z" style="fill:#f44545"/><path style="fill:#ff5f5f" d="M468.8 1661.2h76.9v31.2h-76.9z"/><path style="fill:#ea2a2a" d="M468.8 1668.4h76.9v24h-76.9z"/><path class="st45" d="M920.7 1572.2v43.3c0 2.4-.4 4.7-1.3 6.9-2.8 7.4-10 12.3-17.9 12.3H519.2c-10.6 0-19.2-8.6-19.2-19.2v-43.3c0-10.6 8.6-19.2 19.2-19.2h382.3c7.9 0 15.1 4.9 17.9 12.3.9 2.2 1.3 4.5 1.3 6.9z"/><path class="st41" d="M920.7 1572.2v43.3c0 2.4-.4 4.7-1.3 6.9-1.4.2-2.8.3-4.1.3H519.9c-11 0-19.8-6.1-19.8-13.6v-30.6c0-7.5 8.9-13.6 19.8-13.6h395.4c1.4 0 2.8.1 4.1.3.9 2.3 1.3 4.6 1.3 7z"/><path class="st45" d="M519.2 1553h302.9c10.6 0 19.2 8.6 19.2 19.2v43.3c0 10.6-8.6 19.2-19.2 19.2H519.2c-10.6 0-19.2-8.6-19.2-19.2v-43.3c0-10.6 8.6-19.2 19.2-19.2z"/><path d="M519.2 1553H815c10.6 0 19.2 8.6 19.2 19.2v43.3c0 10.6-8.6 19.2-19.2 19.2H519.2c-10.6 0-19.2-8.6-19.2-19.2v-43.3c0-10.6 8.6-19.2 19.2-19.2z" style="fill:#4baaf7"/><path class="st18" d="M519.2 1553H815c10.6 0 19.2 8.6 19.2 19.2v28.9c0 10.6-8.6 19.2-19.2 19.2H519.2c-10.6 0-19.2-8.6-19.2-19.2v-28.9c0-10.6 8.6-19.2 19.2-19.2z"/><path style="fill:#85c8ff" d="M497.6 1579.4h76.9v31.2h-76.9z"/><path style="fill:#4ca7f2" d="M497.6 1586.6h76.9v24h-76.9z"/><path class="st49" d="M853.4 1505.2v33.1c0 1.8-.5 3.6-1.3 5.3-2.7 5.5-9.7 9.4-17.9 9.4H461.5c-10.6 0-14.4-6.6-14.4-14.7v-33.1c0-8.1 3.8-14.7 14.4-14.7h372.7c8.2 0 15.2 3.9 17.9 9.4.8 1.6 1.3 3.4 1.3 5.3z"/><path class="st41" d="M853.4 1505.2v33.1c0 1.8-.5 3.6-1.3 5.3-1.4.1-2.8.2-4.1.2H462.2c-11 0-15-4.7-15-10.4v-23.3c0-5.7 4.1-10.4 15-10.4H848c1.4 0 2.8.1 4.1.2.8 1.6 1.3 3.4 1.3 5.3z"/><path class="st49" d="M783.7 1505.2v33.1c0 8.1-8.6 14.7-19.2 14.7h-303c-10.6 0-14.4-6.6-14.4-14.7v-33.1c0-8.1 3.8-14.7 14.4-14.7h302.9c10.7 0 19.3 6.6 19.3 14.7z"/><path d="M776.5 1505.2v33.1c0 8.1-8.6 14.7-19.2 14.7H461.5c-10.6 0-14.4-6.6-14.4-14.7v-33.1c0-8.1 3.8-14.7 14.4-14.7h295.7c10.7 0 19.3 6.6 19.3 14.7z" style="fill:#ff8d40"/><path d="M776.5 1505.2v1.9c0 8.1-8.6 14.7-19.2 14.7H461.5c-10.6 0-14.4-6.6-14.4-14.7v-1.9c0-8.1 3.8-14.7 14.4-14.7h295.7c10.7 0 19.3 6.6 19.3 14.7z" style="fill:#ff9b57"/><path d="M502.4 1510.7v23.9h-55.3c-2.6 0-4.8-2.1-4.8-4.8v-14.5c0-2.5 2.1-4.6 4.6-4.6h55.5z" style="fill:#ffa96e"/><path d="M502.4 1516.2v18.4h-55.1c-2.8 0-5-2.2-5-5v-13.4h60.1z" style="fill:#f47b2a"/><path class="st37" d="M1507.1 1674.1h168c11.3 0 20.4 9.1 20.4 20.4 0 11.3-9.1 20.4-20.4 20.4h-168c-11.3 0-20.4-9.1-20.4-20.4 0-11.3 9.1-20.4 20.4-20.4z"/><path class="st37" d="M1680 1704.9c29.8 9.4 43.8 41.3 49 69.6 3.5 19 4 38.3 6.1 57.5 1.7 17 5.2 33.7 10.3 50 10.4 31.7 28.3 61 54.1 82.5 23.9 19.9 52.6 33 82.6 40.7 30.6 7.9 62.5 10.7 94 10.4 36.6-.4 73.5-4.3 108.7-14.3 62.2-17.6 121.1-56.6 150.1-116 16.1-32.9 20.8-69.9 19.6-106.1-1.2-33.8-9.5-69.7-35.4-93.4-5.6-5.2-12-9.6-18.8-13-8.3-4.1-15.6 8.3-7.3 12.4 29.3 14.5 42.6 46.6 45.9 77.6 3.8 35.1 1.1 72.9-12.3 105.9-23.5 57.9-78.3 97.4-136.3 115.9-33.8 10.8-69.1 15.4-104.4 16.4-30.5.9-61.3-.9-91.1-7.5-28.9-6.4-57-17.4-80.7-35.5-25.1-19.2-43.2-46.2-53.6-75.9-5.4-15.6-9.1-31.8-10.9-48.3-2.1-18.3-2.9-36.7-5.5-54.9-4.3-30-16-60.7-41.6-78.8-5.8-4-12.2-7.1-18.9-9.2-8.7-2.7-12.5 11.2-3.6 14z"/><path style="fill:none;stroke:#fff;stroke-width:6;stroke-linecap:round;stroke-miterlimit:10" d="m3005 1516.9-59.4 442.3-12 274.1"/><path d="M3251.8 1318.4s54.6 85 54.4 143.2c-.1 58.2-90 464.1-67.8 799.6m19.2-425.3 137.6 399.8" style="stroke:#fff;stroke-width:6;fill:none;stroke-miterlimit:10"/></svg>