<svg xmlns="http://www.w3.org/2000/svg" viewBox="0 0 3786.48 2694.48"><defs><style>.a{isolation:isolate;}.b{opacity:0.8;}.c,.p{fill:#fff;}.d{fill:#c0bfbf;}.e{fill:#56872a;}.aa,.ab,.ac,.aj,.ak,.al,.aq,.ar,.au,.e,.f,.g,.h,.l,.m,.p,.w,.x,.z{fill-rule:evenodd;}.f{fill:#88bf58;}.an,.g{fill:#1a171a;}.h{fill:#9edc6f;}.i{fill:#9cc7ff;}.j{fill:#d7d7e6;}.k{fill:#4878ea;}.aj,.l{fill:#c9c9c9;mix-blend-mode:multiply;}.l{opacity:0.55;}.am,.m{fill:#5b5a5c;}.n{fill:#baa3d4;}.o{fill:#683ba4;}.q{fill:#0f48e8;}.r{fill:#322f33;}.s{fill:#9570ee;}.t{fill:#f9fbfc;}.u{fill:#cdd4ff;}.v{fill:#b83470;}.w{fill:#00000f;}.x{fill:#171e44;}.ac,.y{fill:#e94d90;}.z{fill:#d6436d;}.aa{fill:#f95d84;}.ab{fill:#c7c3d1;}.ad,.aq{fill:#fcd65b;}.ae{fill:#ffa79b;}.af{fill:#e8887e;}.ag{fill:#e59188;}.ah,.ar{fill:#687ccd;}.ai{fill:#211f22;}.aj{opacity:0.5;}.ak{fill:#7f75cc;}.al,.ap{fill:#aa9af4;}.ao{fill:#654eac;}.as{fill:#586fb7;}.at{fill:none;}.av{fill:#d8b248;}.aw{fill:#ffba94;}.ax{fill:#6d1111;}.ay{fill:#d44945;}.az{fill:#a33;}.ba{fill:#f37e3f;}</style></defs><g class="a"><g class="b"><path class="c" d="M738.24,1211.77c133.69-212.1,372.81-353.91,646.55-354,74.1,0,145.4,11.39,213.52,30,162.3-253,449.78-422.07,778.7-422.19,446.88-.17,819.74,311.57,902.45,724.52,13.35-.87,26.47-2.41,40.21-2.41,379.38-.15,687.21,300.43,687.35,670.66.14,370.69-307.46,671.41-686.84,671.55l-2406.76.91c-379.68.15-687.55-300.33-687.69-671C225.61,1548.34,443,1287,738.24,1211.77Z" transform="translate(-220.54 34.57)"/><path class="d" d="M4001.83,1858.76c.15,370.7-307.46,671.42-686.83,671.54l-2406.76.94c-379.69.12-687.55-300.36-687.7-671-.13-311.42,217.29-572.77,512.5-648,133.7-212.11,372.83-353.91,646.58-354,74.08,0,145.38,11.39,213.5,30C1730.91,673.37,1959,519.09,2226,477.31A945.73,945.73,0,0,1,2371.83,466c6.71,0,13.43.07,20.1.2,437.92,9,800.87,317.58,882.35,724.32,13.35-.86,26.46-2.43,40.19-2.43C3693.87,1188,4001.7,1488.53,4001.83,1858.76Z" transform="translate(-220.54 34.57)"/></g><path class="e" d="M3642.69,2537.23c91.14-49.72,214-136.53,313.49-277.92,141-200.34-238.82-15.39-523.07,206.29l163.53,66.92Z" transform="translate(-220.54 34.57)"/><path class="f" d="M3908,2094.1c-12.46,27.84-33.12,66.38-59,112.36-41,72.69-95,164-150.37,260.71q-16.14,28.13-32.28,56.74-9.22,16.31-18.35,32.68l-12.11,11.54H3430.45c5.82-31.73,12.26-63.72,19.27-95.71.4-1.76.77-3.49,1.18-5.25,1.35-6.15,2.74-12.32,4.15-18.47q1.95-8.61,4-17.19c23.86-101.45,53.45-201.57,87.46-291.6q6-15.87,12.18-31.32c26.91-67.27,56.3-128,87.63-178.21a518.84,518.84,0,0,1,42.32-58.91C3854.28,1673.3,4031.36,1818.71,3908,2094.1Z" transform="translate(-220.54 34.57)"/><path class="g" d="M3850.56,1882.69c-.49.78-72.61,110.37-151.79,270.87-27.35,55.35-55.5,116.79-81.87,181.9-17.22,42.54-33.69,86.68-48.6,131.71-3.52,10.61-7,21.28-10.3,32q-2.46,7.78-4.79,15.6-8,26.56-15.26,53.37h-12.8q7.7-29.18,16.47-58.1,2.51-8.31,5.1-16.61c2.74-8.77,5.57-17.54,8.43-26.25.89-2.72,1.81-5.46,2.71-8.2,12.69-38,26.42-75.34,40.76-111.63,32.25-81.57,67.61-157.76,101.1-224.16,74.74-148.27,140.08-247.58,140.57-248.3a5.9,5.9,0,0,1,8.65-1.47A7,7,0,0,1,3850.56,1882.69Z" transform="translate(-220.54 34.57)"/><path class="h" d="M3349.87,1847.64c4.83,97.59,42.66,315.87,74.75,544.64,60.73,73,144.55,122,235.54,140.85,43.31-246.92,58.83-516.33,24.07-708.34C3616.16,1449,3331.44,1476.11,3349.87,1847.64Z" transform="translate(-220.54 34.57)"/><path class="g" d="M3554.62,2497.51c37.76-401.5-50.22-831-50.58-832.8a7.48,7.48,0,0,0-8.31-6.12,6.9,6.9,0,0,0-5.38,8.41c.35,1.78,87.29,426.33,51,823.54Q3547.91,2494.14,3554.62,2497.51Z" transform="translate(-220.54 34.57)"/><rect class="i" x="2558.83" y="1525.34" width="712.21" height="1006.85" rx="39.41" transform="translate(5609.33 4092.11) rotate(180)"/><rect class="c" x="2598.19" y="1571.89" width="633.48" height="826.29" transform="translate(5609.33 4004.64) rotate(180)"/><rect class="j" x="2640.77" y="1631.31" width="551.34" height="109.99" transform="translate(5612.33 3407.18) rotate(180)"/><rect class="j" x="2965.17" y="1783.95" width="226.93" height="539.16" transform="translate(5936.74 4141.62) rotate(180)"/><rect class="j" x="2640.77" y="1783.95" width="282.26" height="62.44" transform="translate(5343.25 3664.91) rotate(180)"/><rect class="j" x="2640.77" y="1891.89" width="282.26" height="62.44" transform="translate(5343.25 3880.8) rotate(180)"/><rect class="j" x="2640.77" y="1999.84" width="282.26" height="62.44" transform="translate(5343.25 4096.68) rotate(180)"/><rect class="j" x="2640.77" y="2107.78" width="282.26" height="215.33" transform="translate(5343.25 4465.45) rotate(180)"/><path class="k" d="M2962.78,742.23,2715.73,593.37a13.67,13.67,0,0,0-20.22,8L2622.05,864a13.67,13.67,0,0,0,17.74,16.56l89.46-31.74c86.79,244.62-41.61,514.24-286.22,601s-514.24-41.6-601-286.22c-81.13-228.64,25.75-479.13,239.81-581.75a56.33,56.33,0,0,0,28.54-69.65l-13.41-37.78c-11.12-31.34-46.87-46.51-77-32.36-286.43,134.61-430,468.24-322,772.64,115,324,472.12,494.1,796.14,379.13s494.09-472.11,379.13-796.14l87-30.88A13.67,13.67,0,0,0,2962.78,742.23Z" transform="translate(-220.54 34.57)"/><path class="l" d="M590.93,1517.46H1724.26a37.26,37.26,0,0,1,37.26,37.26v697.13a72.8,72.8,0,0,1-72.8,72.8H626.47a72.8,72.8,0,0,1-72.8-72.8V1554.72A37.26,37.26,0,0,1,590.93,1517.46Z" transform="translate(-220.54 34.57)"/><path class="m" d="M1749.09,1492.63H615.76a37.26,37.26,0,0,0-37.26,37.26v67.95H1786.35v-67.95A37.26,37.26,0,0,0,1749.09,1492.63Z" transform="translate(-220.54 34.57)"/><path class="g" d="M1786.35,1597.84H578.5V2227a72.79,72.79,0,0,0,72.8,72.79H1713.55a72.8,72.8,0,0,0,72.8-72.79Z" transform="translate(-220.54 34.57)"/><rect class="n" x="699.01" y="1937.06" width="43.62" height="271.75"/><rect class="o" x="610.33" y="2017.87" width="43.27" height="190.94"/><rect class="n" x="521.3" y="1858.4" width="43.62" height="350.41"/><rect class="o" x="432.62" y="1718.59" width="43.27" height="490.22"/><rect class="o" x="996.5" y="1917.76" width="62.57" height="291.06"/><rect class="n" x="959.67" y="1813.35" width="19.67" height="395.46"/><path class="p" d="M836.68,1530.32a30,30,0,1,0-52,30,30,30,0,0,0,52-30Z" transform="translate(-220.54 34.57)"/><path class="p" d="M679.47,1530.32a30,30,0,1,0-52,30,30.18,30.18,0,0,0,41.11,10.89,29.78,29.78,0,0,0,10.88-40.92Z" transform="translate(-220.54 34.57)"/><path class="p" d="M758.08,1530.32a30,30,0,1,0-10.89,40.92,29.84,29.84,0,0,0,10.89-40.92Z" transform="translate(-220.54 34.57)"/><rect class="q" x="350.81" y="2514.32" width="3297.52" height="88.37" rx="30.3"/><rect class="r" x="725.92" y="1160.84" width="487.2" height="710.58" rx="10.49"/><rect class="k" x="809.44" y="1226.96" width="315.52" height="69.6" rx="9.84"/><path class="k" d="M1135.55,1648.84h-62.66a26.67,26.67,0,0,1-26.67-26.67h0a26.68,26.68,0,0,1,26.67-26.68h62.66a26.68,26.68,0,0,1,26.67,26.68h0A26.67,26.67,0,0,1,1135.55,1648.84Z" transform="translate(-220.54 34.57)"/><path class="s" d="M1316.51,1648.84h-62.66a26.67,26.67,0,0,1-26.67-26.67h0a26.68,26.68,0,0,1,26.67-26.68h62.66a26.68,26.68,0,0,1,26.67,26.68h0A26.67,26.67,0,0,1,1316.51,1648.84Z" transform="translate(-220.54 34.57)"/><rect class="t" x="802.48" y="1366.16" width="338.72" height="53.36" rx="7.22"/><rect class="t" x="802.48" y="1456.63" width="338.72" height="53.36" rx="7.22"/><rect class="u" x="875.56" y="1543.64" width="194.88" height="12.18" rx="6.09"/><path class="h" d="M1405.51,1970.26c-66.86-10.87-161.29-37.7-253.15-103.18-130.16-92.78,143.67-61.19,366.63,13.7l-86.16,76.6Z" transform="translate(-220.54 34.57)"/><path class="e" d="M1180.12,1792.79c44.07,42.08,159.29,126,271.05,215.38l122.52,48,24.1-75c-85.65-138.11-200-279.6-299.91-351.8C1122.7,1502.72,1025.47,1645.1,1180.12,1792.79Z" transform="translate(-220.54 34.57)"/><path class="g" d="M1574.88,2052.47C1434.16,1827,1168,1644.33,1167,1643.66a3.84,3.84,0,0,0-5.58,1.25,4.58,4.58,0,0,0,1.3,6c1,.66,262.9,180.45,403,402.13l8,3.13Z" transform="translate(-220.54 34.57)"/><path class="f" d="M1458.35,1505.65c21.12,60.16,52.05,201.36,89,347.5a271.7,271.7,0,0,1-107.6,143.13c-87-138.52-162.77-297.47-189.07-422C1199.22,1330.38,1377.94,1276.64,1458.35,1505.65Z" transform="translate(-220.54 34.57)"/><path class="g" d="M1493,1949.47c-121.74-233.28-174.4-514.47-174.63-515.64a4.89,4.89,0,0,1,3.51-5.75,4.51,4.51,0,0,1,5.32,3.76c.23,1.16,52.3,279.1,172.12,510.13Q1496.24,1945.78,1493,1949.47Z" transform="translate(-220.54 34.57)"/><path class="h" d="M1446.71,1507.65c.29,60.93,19.87,202.14,33.11,344.62l50.47,121.52,70.73-34.7c40-157.52,62.4-338.08,45.06-460.08C1615.66,1265,1445.68,1293.82,1446.71,1507.65Z" transform="translate(-220.54 34.57)"/><path class="g" d="M1533.79,1972.07c64.62-257.78,11.36-576.21,11.17-577.38a3.85,3.85,0,0,0-4.78-3.15,4.59,4.59,0,0,0-3.42,5.11c.19,1.16,52.59,314.5-9.76,569.22l3.29,7.92Z" transform="translate(-220.54 34.57)"/><rect class="v" x="1769.37" y="1085.23" width="387.37" height="220.64" rx="29.47"/><path class="w" d="M2400.87,1100.82H1966.34a39.11,39.11,0,0,0-39,39v213.93a39.11,39.11,0,0,0,39,39h434.53a39.11,39.11,0,0,0,39-39V1139.81A39.11,39.11,0,0,0,2400.87,1100.82Z" transform="translate(-220.54 34.57)"/><path class="w" d="M2682.18,2297.45h-176.8c-11.64,0-18.57,9.52-15.42,21.16l75.23,277.44c3.16,11.64,15.27,21.17,26.91,21.17h35.66a18.08,18.08,0,0,0,4.14-.46,26.78,26.78,0,0,0,4.94.46h45.34a27,27,0,0,0,26.92-26.92V2324.36A27,27,0,0,0,2682.18,2297.45Z" transform="translate(-220.54 34.57)"/><path class="w" d="M1719.07,2224h45.34l131.45,73.43c10.17,5.67,18.58,9.52,15.43,21.16l-75.24,277.44c-3.15,11.64-15.26,21.17-26.91,21.17h-35.66a18.06,18.06,0,0,1-4.13-.46,26.78,26.78,0,0,1-4.94.46h-45.34a27,27,0,0,1-26.91-26.92V2250.94A27,27,0,0,1,1719.07,2224Z" transform="translate(-220.54 34.57)"/><path class="x" d="M2739.65,2297.45H2562.84c-11.63,0-18.57,9.52-15.42,21.16l75.23,277.44c3.16,11.64,15.27,21.17,26.91,21.17h35.66a18.08,18.08,0,0,0,4.14-.46,26.8,26.8,0,0,0,4.95.46h45.34a27,27,0,0,0,26.9-26.92V2324.36A27,27,0,0,0,2739.65,2297.45Z" transform="translate(-220.54 34.57)"/><path class="x" d="M1776.53,2297.45h176.79c11.65,0,18.59,9.52,15.43,21.16l-75.24,277.44c-3.15,11.64-15.26,21.17-26.91,21.17h-35.66a18.06,18.06,0,0,1-4.13-.46,26.78,26.78,0,0,1-4.94.46h-45.34a27,27,0,0,1-26.91-26.92V2324.36A27,27,0,0,1,1776.53,2297.45Z" transform="translate(-220.54 34.57)"/><rect class="y" x="1843.86" y="1085.23" width="387.37" height="220.64" rx="29.47"/><path class="x" d="M2475.35,1100.82H2040.82a39.12,39.12,0,0,0-39,39v213.93a39.12,39.12,0,0,0,39,39h434.53a39.11,39.11,0,0,0,39-39V1139.81A39.11,39.11,0,0,0,2475.35,1100.82Z" transform="translate(-220.54 34.57)"/><path class="z" d="M2173,1154.31h0c-386.43,0-699.7,313.26-699.7,699.7s313.27,699.7,699.7,699.7c14,0,27.94-.45,41.75-1.27h43.39v-3.89c346.27-42,614.57-336.92,614.57-694.54s-268.3-652.54-614.57-694.54v-5.16Z" transform="translate(-220.54 34.57)"/><path class="aa" d="M2957.78,1854v1.31q0,27-2.14,53.45-.69,8.94-1.62,17.85c-19.32,186-112,350.76-248.53,464.66-121.42,101.35-277.51,162.43-447.41,162.43-385.37,0-699.7-314.33-699.7-699.7s314.33-699.7,699.7-699.7S2957.78,1468.61,2957.78,1854Z" transform="translate(-220.54 34.57)"/><path class="ab" d="M2258.09,2462.35c-335.07,0-608.35-273.28-608.35-608.34s273.28-608.35,608.35-608.35,608.34,273.28,608.34,608.35S2593.14,2462.35,2258.09,2462.35Z" transform="translate(-220.54 34.57)"/><circle class="c" cx="2037.55" cy="1888.58" r="557.09"/><path class="w" d="M2258.09,1422a16.35,16.35,0,0,1-16.34-16.33v-28.45a16.34,16.34,0,1,1,32.67,0v28.45a16.35,16.35,0,0,1-16.33,16.33Zm0,925.11a16.35,16.35,0,0,1-16.34-16.33v-28.45a16.34,16.34,0,0,1,32.67,0v28.45a16.35,16.35,0,0,1-16.33,16.33Zm-216-867.24a16.37,16.37,0,0,1-22.32-6l-14.22-24.65a16.33,16.33,0,0,1,28.29-16.33l14.23,24.65a16.37,16.37,0,0,1-6,22.3Zm462.56,801.17a16.38,16.38,0,0,1-22.33-6l-14.23-24.64a16.34,16.34,0,0,1,28.31-16.33l14.22,24.64a16.36,16.36,0,0,1-6,22.3ZM1884,1638a16.39,16.39,0,0,1-22.31,6L1837,1629.77a16.34,16.34,0,0,1,16.33-28.3L1878,1615.7a16.38,16.38,0,0,1,6,22.31Zm801.16,462.56a16.38,16.38,0,0,1-22.31,6l-24.64-14.23a16.33,16.33,0,0,1,16.33-28.29l24.64,14.22a16.37,16.37,0,0,1,6,22.32Zm-859-246.57a16.36,16.36,0,0,1-16.33,16.34H1781.3a16.33,16.33,0,0,1,0-32.66h28.46a16.35,16.35,0,0,1,16.33,16.32Zm925.11,0a16.35,16.35,0,0,1-16.34,16.34h-28.44a16.33,16.33,0,1,1,0-32.66h28.44A16.35,16.35,0,0,1,2751.2,1854ZM1884,2070a16.38,16.38,0,0,1-6,22.32l-24.65,14.23a16.34,16.34,0,0,1-16.33-28.3l24.65-14.22a16.37,16.37,0,0,1,22.31,6Zm801.16-462.56a16.38,16.38,0,0,1-6,22.33L2654.52,1644a16.34,16.34,0,0,1-16.34-28.3l24.65-14.23a16.37,16.37,0,0,1,22.3,6Zm-643.05,620.69a16.37,16.37,0,0,1,6,22.31l-14.23,24.64a16.33,16.33,0,1,1-28.29-16.33l14.22-24.64a16.37,16.37,0,0,1,22.31-6Zm468.54-778.86-14.22,24.64a16.34,16.34,0,0,1-28.3-16.33l14.23-24.64a16.33,16.33,0,0,1,28.29,16.33Z" transform="translate(-220.54 34.57)"/><path class="w" d="M2268.19,1873.3h0a19.35,19.35,0,0,1-19.3-19.29V1526a19.35,19.35,0,0,1,19.3-19.29h0a19.34,19.34,0,0,1,19.28,19.29v328A19.34,19.34,0,0,1,2268.19,1873.3Z" transform="translate(-220.54 34.57)"/><path class="ac" d="M2271.72,1840.37h0c7.5,7.5,7.5,19.77,7.56,27.27l-170,170c-15.08,7.49-27.36,7.49-34.85,0h0c-7.5-7.51-7.5-19.78,2.52-27.29l170-170C2252,1832.87,2264.23,1832.87,2271.72,1840.37Z" transform="translate(-220.54 34.57)"/><path d="M3129.1,1388.1s-77.95-22.6-43.71-96.39,102.36-82.06,144.23-46.89,8.4,81.8,8.4,81.8S3278,1304,3295,1335s-4.92,47.43-4.92,47.43,54.06-16.53,67.34,18.89c15.52,41.34-33.57,50-33.57,50s20.65,27.77,9.37,47.84-25.76,26.45-25.76,26.45,56.83,11.81,55.48,59.35-79.49,31.73-79.49,31.73l-103.53-2.94-2.14-176.77Z" transform="translate(-220.54 34.57)"/><path class="ad" d="M3215.56,1489.1l4.64,88.49-90.91,38.8.4-122.93-38.41-15.16a31.08,31.08,0,0,1-14.46-46.14l72-108.07s18.63,99.08,50.57,106.78,36.17-16,36.17-16,56.35,28.78,34.07,58.74S3215.56,1489.1,3215.56,1489.1Z" transform="translate(-220.54 34.57)"/><path d="M3124.32,1387.17a25.65,25.65,0,0,1-15.72,14.52,2.48,2.48,0,0,0-1.79,2.34,24.72,24.72,0,0,0,4.66,13,2.48,2.48,0,0,0,3.32.87,2.45,2.45,0,0,0,.87-3.32,20.27,20.27,0,0,1-4-10.58l-1.78,2.34a30.83,30.83,0,0,0,19.12-17.91,2.45,2.45,0,0,0-1.7-3,2.49,2.49,0,0,0-3,1.7Z" transform="translate(-220.54 34.57)"/><path d="M3109.48,1452.83c9.22,6.6,22.29,6.62,32,1a27.06,27.06,0,0,0,7.21-6,2.5,2.5,0,0,0,0-3.43,2.44,2.44,0,0,0-3.44,0c-6.26,7.47-16.8,10.28-26,7.74a22.64,22.64,0,0,1-7.32-3.53,2.46,2.46,0,0,0-3.33.87,2.49,2.49,0,0,0,.87,3.33Z" transform="translate(-220.54 34.57)"/><path d="M3132.21,1492.63l23.58,7.85a2.45,2.45,0,0,0,3-1.7,2.48,2.48,0,0,0-1.7-3l-23.58-7.85a2.46,2.46,0,0,0-3,1.7,2.48,2.48,0,0,0,1.7,3Z" transform="translate(-220.54 34.57)"/><path d="M3257.87,1462c.87-10.41-7-19.66-16.53-22.89-9.84-3.35-20.54.91-27.05,8.63a30.61,30.61,0,0,0-7.05,15.31,2.52,2.52,0,0,0,1.12,2.74,2.45,2.45,0,0,0,2.94-.38,15.86,15.86,0,0,1,27.49,7.77,2.43,2.43,0,1,0,4.69-1.29,21.23,21.23,0,0,0-9.81-13.78,20.52,20.52,0,0,0-17.31-1.67,21,21,0,0,0-8.5,5.54l4.07,2.36a25.88,25.88,0,0,1,14.33-19.79,18.45,18.45,0,0,1,11.72-1.34,20.64,20.64,0,0,1,10.68,6.38A16.44,16.44,0,0,1,3253,1462a2.45,2.45,0,0,0,2.43,2.43,2.48,2.48,0,0,0,2.43-2.43Z" transform="translate(-220.54 34.57)"/><path class="ad" d="M3143.89,1591l-22.72,17.67s-17.68,83.33,48,78.28,83.32-42.93,85.85-55.55-30.3-68.17-30.3-68.17l-19.32,12.24Z" transform="translate(-220.54 34.57)"/><path class="ad" d="M3475.18,1273.94c-2.07,4.11-4,7.17-5.5,8.63a195.48,195.48,0,0,1-18.79,15.53l-4,7.58-12.63,123.72-45.44-63.13,22.72-70.69s-12.62-68.18-5.05-70.7c6.54-2.17,16.82,20,19.54,26.21.41,1,.66,1.56.66,1.56s25.25,2.53,30.3,25.25C3457,1277.9,3468.06,1271.57,3475.18,1273.94Z" transform="translate(-220.54 34.57)"/><path class="ae" d="M3446.55,1383.59c-3.13,21.21-7.25,139.23-50.17,227.6-19.29,39.72-32.82,96-32.82,96v51.1c-30,20.27-53,7-53,7l-68.17-202s6.41-7.5,16.24-18.94c23.81-27.82,67.59-79,87.28-102.26l35.35-90.9s34,6,57.47,25.13A69,69,0,0,1,3446.55,1383.59Z" transform="translate(-220.54 34.57)"/><path class="ae" d="M3151.46,1793l-10.09,88.37s-121.2-2.52-164.12-40.39,60.59-199.47,75.74-217.15a37.26,37.26,0,0,1,11.16-8.68c15.41-8,34.29-6.47,34.29-6.47l47.42,164.83Z" transform="translate(-220.54 34.57)"/><path class="af" d="M3446.55,1383.59c-3.13,21.21-7.25,139.23-50.17,227.6-19.29,39.72-32.82,96-32.82,96v51.1c-30,20.27-53,7-53,7l-68.17-202s6.41-7.5,16.24-18.94c7.22,12.93,23.4,43.1,29.21,64.38,7.57,27.78,70.7,27.78,96-32.82,22.24-53.38,47-159.45,54.94-199.59A69,69,0,0,1,3446.55,1383.59Z" transform="translate(-220.54 34.57)"/><path class="ag" d="M3145.86,1773.49c-5.4-.08-12.7-1.44-22.24-4.44-75.8-23.94-121.12-19-121.12-19,15.15-10.1,85.84,0,85.84,0s20.2,5,10.1-37.87-45.45-88.38-45.45-88.38l11.16-8.68c15.41-8,34.29-6.47,34.29-6.47Z" transform="translate(-220.54 34.57)"/><path class="ad" d="M3665.56,2315.47c10.51,18.93,56.38,134.21,66.89,153.14-23.88,10.39-30.69,13.53-54.58,23.91-6.81-16.57-71.3-119.28-78.11-135.85C3619.94,2343.92,3645.37,2328.21,3665.56,2315.47Z" transform="translate(-220.54 34.57)"/><path class="ah" d="M3742.35,2458.51q20.16,31.6,40.34,63.21l-148.43,89.6c-3.24-7.48-6.57-18.47-4-30.28,4.8-21.83,25.5-26.6,36.18-50.67,3.63-8.19,7-20.69,4.87-38.76Z" transform="translate(-220.54 34.57)"/><path class="ah" d="M3773.47,2507.28l9.22,14.44-148.43,89.6c-2.53-5.82-5.09-13.79-4.88-22.61Z" transform="translate(-220.54 34.57)"/><path class="c" d="M3693,2519.17a48.29,48.29,0,0,0-22.53-1.39,71.39,71.39,0,0,0,1.2-8.05,55.06,55.06,0,0,1,23.34,1.88C3699.86,2513.07,3697.86,2520.62,3693,2519.17Z" transform="translate(-220.54 34.57)"/><path class="c" d="M3686.92,2532.33a39.07,39.07,0,0,0-20.29-2.34,61.73,61.73,0,0,0,2.91-8.25,45.75,45.75,0,0,1,19.4,3C3693.6,2526.6,3691.63,2534.17,3686.92,2532.33Z" transform="translate(-220.54 34.57)"/><path class="ad" d="M3377.19,2380.37c2.25,21.54-.77,145.58,1.48,167.11-26.05.19-33.54.41-59.59.6.23-17.92-18.81-137.69-18.57-155.61C3324.07,2388.66,3353.63,2384.18,3377.19,2380.37Z" transform="translate(-220.54 34.57)"/><path class="ah" d="M3391.73,2542.07q6.17,37,12.32,74l-171.68,24.21c0-8.16,1.2-19.58,8.23-29.42,13-18.2,33.88-14.47,53.15-32.42,6.56-6.11,14.58-16.28,19.68-33.74Z" transform="translate(-220.54 34.57)"/><path class="ah" d="M3401.23,2599.14l2.82,16.91-171.68,24.21c0-6.36.73-14.69,4.38-22.72Z" transform="translate(-220.54 34.57)"/><path class="c" d="M3322.57,2578.53a48.31,48.31,0,0,0-20.18-10.11,69.93,69.93,0,0,0,4.27-6.94,55.2,55.2,0,0,1,20.73,10.89C3331.25,2575.6,3326.44,2581.76,3322.57,2578.53Z" transform="translate(-220.54 34.57)"/><path class="c" d="M3311.8,2588.25a39.11,39.11,0,0,0-17.75-10.12,61,61,0,0,0,5.91-6.45,45.88,45.88,0,0,1,16.65,10.41C3320.19,2585.59,3315.4,2591.78,3311.8,2588.25Z" transform="translate(-220.54 34.57)"/><path d="M3707.89,2376.93a5.91,5.91,0,0,1-2.28,6.94l-19.93,13.35-45.48,28a8.38,8.38,0,0,1-2.49,1.13l-14.82,6.56a8.44,8.44,0,0,1-9.55-3.95c-37.29-65.31-213.41-371.89-230.57-366.63-17.6,5.4-4.24,374.47-1.89,436.45l.11,2.79a5.77,5.77,0,0,1-5.76,6H3260a5.93,5.93,0,0,1-5.84-4.9l-135.43-767.44a4.54,4.54,0,0,0-.12-.53c-1.38-5-23.07-84.58-20.6-121.39a5.88,5.88,0,0,1,4.92-5.36l8.4-1.42h0l16.18-2.75s1.13,46,18.87,74.33a5.91,5.91,0,0,0,6.82,2.49c14.78-4.74,64.75-21.88,95.35-46a6,6,0,0,0,1.55-7.55l-30.64-55.78a5.94,5.94,0,0,1,.86-6.92,56.21,56.21,0,0,1,24.39-14.9,5.86,5.86,0,0,1,7.14,3.51c11.27,28.56,71.13,174,139.21,219.62a4.25,4.25,0,0,1,.53.42c4.77,4.33,76.67,70.46,134.4,166C3581.79,2031.35,3693.36,2336.86,3707.89,2376.93Z" transform="translate(-220.54 34.57)"/><path d="M3680.16,2400.92l-40,24.26a8.38,8.38,0,0,1-2.49,1.13l-14.82,6.56a8.44,8.44,0,0,1-9.55-3.95c-37.29-65.31-213.41-371.89-230.57-366.63s-5.05,351.72-2.14,429.75a8.47,8.47,0,0,1-6.23,8.47l-24.7,6.72a8.31,8.31,0,0,1-2.22.3h-85.41a8.45,8.45,0,0,1-8.32-7l-135-765.25a6.91,6.91,0,0,0-.17-.76c-1.62-5.9-22.19-81.65-20.69-119.07a8.4,8.4,0,0,1,7-7.89l6.4-1.09h0s-5.73,85.77,70.24,115.92,173.16,84.46,286.15,230.27c94.54,122,187.76,362.9,215.67,438.3A8.44,8.44,0,0,1,3680.16,2400.92Z" transform="translate(-220.54 34.57)"/><path class="ai" d="M3151.46,1729.86l128.54-48s32.24,63.95-25,90.89C3169.14,1813.18,3151.46,1729.86,3151.46,1729.86Z" transform="translate(-220.54 34.57)"/><path class="ad" d="M3492.33,1212.26s-6.62,40.72-17.15,61.68c-2.07,4.11-4,7.17-5.5,8.63a195.48,195.48,0,0,1-18.79,15.53l-4,7.58-36.74-58.61,15.68,4.45s.08-.15.2-.43c2.57-5.15,27.41-54.83,39.66-57.18a.58.58,0,0,1,.69.69l-2.93,12.48c.64-1.11,10.39-18,16.77-19.91a1.63,1.63,0,0,1,2,1.61l-2.53,8.33s5.66-5.51,8.79-3.29-13.56,37.6-13.84,38.63C3474.65,1232.45,3486.24,1207.94,3492.33,1212.26Z" transform="translate(-220.54 34.57)"/><path class="aj" d="M2950.74,1858.07l4.9,50.7q2.07-26.48,2.14-53.45C2955.43,1856.21,2953.09,1857.14,2950.74,1858.07Zm-72.24,72.32c-.33.3-.66.58-1,.88l-1.34-.88-1,.88-1.36-.88-1,.88-1.33-.88c-.36.3-.66.58-1,.88l-1.36-.88-1,.88-1.33-.88c-.36.3-.66.58-1,.88l-1.33-.88-1,.88-1.34-.88c-.35.3-.65.58-1,.88l-1.33-.88-1,.88-1.34-.88c-.35.3-.65.58-1,.88l-1.34-.88c-.32.3-.65.58-1,.88l-1.36-.88-1,.88-1.34-.88c-.32.3-.65.58-1,.88l-1.36-.88-1,.88-1.34-.88-1,.88-1.37-.88c-.32.3-.65.58-1,.88l-1.34-.88c-.33.3-.66.58-1,.88l-1.37-.88c-.32.3-.65.58-1,.88l-1.34-.88c-.33.3-.66.58-1,.88l-1.37-.88-1,.88-1.34-.88a428,428,0,0,0-42.45,42,30.45,30.45,0,0,0-1.76,37.75l25.45,35.67a362.8,362.8,0,0,0-37.72,68.39l-21.54-1.08s0,.07,0,.1l-2.29-.1s0,.07,0,.1l-2.3-.1s0,.07,0,.1l-2.29-.1s0,.07-.05.1l-2.3-.1s0,.07,0,.1l-2.3-.1s0,.07,0,.1l-2.29-.1s0,.07,0,.1l-2.3-.1s0,.07,0,.1l-2.29-.1s0,.07,0,.1l-2.3-.1s0,.07-.05.1l-2.3-.1s0,.07,0,.1l-2.3-.1s0,.07-.05.1l-2.3-.1a.19.19,0,0,1,0,.1l-2.27-.1a.19.19,0,0,0-.05.1l-2.3-.1s0,.07-.05.1l-2.3-.1s0,.07,0,.1l-2.3-.1s0,.07-.05.1l-2.3-.1s0,.07,0,.1l-2.3-.1s0,.07-.05.1l-2.3-.1s0,.07,0,.1l-2.3-.1a426.75,426.75,0,0,0-15.77,57.55,30.45,30.45,0,0,0,17.35,33.58l39.85,18.15a363.72,363.72,0,0,0,1.85,80.64l-60,30.65a424.54,424.54,0,0,0,15.12,57.62c136.5-113.9,229.21-278.65,248.53-464.66a362.6,362.6,0,0,0-43.48,24.52Z" transform="translate(-220.54 34.57)"/><path class="ak" d="M2773.06,2285.34l-60,30.65a428.75,428.75,0,0,0,23.51,80.4l2.26-.22c0,.08.05.15.08.22l2.25-.22.09.22,2.25-.22c0,.08.05.15.08.22l2.25-.22.09.22,2.25-.22.09.22,2.25-.22c0,.08,0,.15.08.22l2.25-.22.09.22,2.25-.22c0,.08.06.15.08.22l2.26-.22a1.43,1.43,0,0,0,.08.22l2.25-.22.09.22,2.25-.22c0,.08.05.15.08.22l2.25-.22.09.22,2.25-.22.09.22,2.25-.22c0,.08.05.15.08.22l2.25-.22.09.22,2.25-.22c0,.08.05.15.08.22l2.26-.22a1.43,1.43,0,0,0,.08.22l2.25-.22.09.22,2.25-.22c0,.08,0,.15.08.22l2.25-.22.09.22,22.38-2.17a362.52,362.52,0,0,0,39.83,64.61l-36.6,56.51a426.66,426.66,0,0,0,60.56,57.88l1.24-.88,1.1.88,1.24-.88,1.1.88,1.23-.88,1.1.88,1.24-.88,1.1.88,1.24-.88,1.09.88,1.24-.88,1.1.88,1.24-.88,1.1.88,1.23-.88,1.1.88,1.24-.88,1.1.88,1.24-.88,1.1.88,1.23-.88,1.1.88,1.24-.88,1.1.88,1.23-.88,1.1.88,1.24-.88,1.1.88,1.24-.88,1.1.88,1.23-.88,1.1.88,1.24-.88,1.1.88,1.24-.88,1.1.88,1.23-.88,1.1.88,1.24-.88,1.1.88,32.66-23.32a362.52,362.52,0,0,0,46.17,22.92l-3.43,67.25a427.33,427.33,0,0,0,81.38,19.84l.15-.33c.73.1,1.46.23,2.19.33l.15-.33c.73.1,1.45.23,2.18.33l.16-.33c.72.1,1.45.23,2.18.33l.15-.33c.73.1,1.46.23,2.19.33l.15-.33c.73.1,1.45.23,2.18.33l.16-.33c.72.1,1.45.23,2.18.33l.15-.33c.73.1,1.45.23,2.18.33l.16-.33c.73.1,1.45.23,2.18.33l.15-.33c.73.1,1.46.23,2.19.33l.15-.33c.73.1,1.45.23,2.18.33l.16-.33c.72.1,1.45.23,2.18.33l.15-.33c.73.1,1.46.23,2.19.33l.15-.33c.73.1,1.45.23,2.18.33l.15-.33c.73.1,1.46.23,2.19.33l.15-.33c.73.1,1.45.23,2.18.33l.16-.33c.73.1,1.45.23,2.18.33l.15-.33c.73.1,1.46.23,2.19.33l.15-.33c.73.1,1.45.23,2.18.33l.16-.33c.72.1,1.45.23,2.18.33l.15-.33c.73.1,1.46.23,2.18.33L3147,2600h30.17c2,0,4,0,6,0l29,56.75,2.12-.43.22.43,2.11-.43.22.43,2.12-.43.22.43,2.12-.43.21.43,2.12-.43.22.43,2.12-.43.22.43,2.11-.43.22.43,2.12-.43.22.43,2.12-.43.22.43,2.11-.43.22.43,2.12-.43.22.43,2.12-.43.21.43,2.12-.43.22.43,2.12-.43.22.43,2.11-.43.22.43,2.12-.43.22.43,2.12-.43.21.43,2.12-.43.22.43,2.12-.43.22.43,2.12-.43.21.43a427.16,427.16,0,0,0,80.41-23.52l-6.49-67a364.25,364.25,0,0,0,46.68-26.07l32,20.75,1-.87,1.34.87c.34-.28.66-.58,1-.87l1.35.87c.33-.28.66-.58,1-.87l1.35.87,1-.87,1.34.87c.34-.28.66-.58,1-.87l1.35.87,1-.87,1.34.87c.34-.28.66-.58,1-.87l1.35.87,1-.87,1.35.87,1-.87,1.34.87c.34-.28.66-.58,1-.87l1.35.87c.33-.28.66-.58,1-.87l1.35.87,1-.87,1.34.87,1-.87,1.35.87,1-.87,1.34.87c.34-.28.66-.58,1-.87l1.35.87,1-.87,1.35.87c.33-.28.65-.58,1-.87l1.34.87c.34-.28.66-.58,1-.87l1.35.87,1-.87,1.34.87c.34-.28.66-.58,1-.87l1.35.87a427.32,427.32,0,0,0,57.88-60.57L3477,2445.54a363.9,363.9,0,0,0,37.73-68.42l21.53,1.1,0-.12,2.3.12s0-.08,0-.12l2.3.12a.56.56,0,0,1,0-.12l2.29.12a.56.56,0,0,0,0-.12l2.3.12s0-.08,0-.12l2.3.12a.56.56,0,0,1,0-.12l2.29.12a.56.56,0,0,0,0-.12l2.3.12a.56.56,0,0,1,0-.12l2.29.12a.56.56,0,0,0,0-.12l2.3.12s0-.08,0-.12l2.3.12a.56.56,0,0,1,0-.12l2.29.12a.56.56,0,0,0,0-.12l2.3.12s0-.08,0-.12l2.3.12a.56.56,0,0,1,0-.12l2.29.12a.56.56,0,0,0,0-.12l2.3.12a.56.56,0,0,1,0-.12l2.29.12a.56.56,0,0,0,0-.12l2.3.12s0-.08,0-.12l2.3.12a.56.56,0,0,1,0-.12l2.29.12a.56.56,0,0,0,0-.12l2.3.12a427.52,427.52,0,0,0,19.84-81.4l-61.28-27.89a363.79,363.79,0,0,0-1.84-80.65l60-30.63a426.28,426.28,0,0,0-23.51-80.42l-2.25.22c0-.07,0-.15-.08-.22l-2.25.22-.09-.22-2.25.22-.09-.22-2.25.22c0-.07-.05-.15-.08-.22l-2.25.22-.09-.22-2.25.22c0-.07-.05-.15-.08-.22l-2.26.22a2,2,0,0,0-.08-.22l-2.25.22-.09-.22-2.25.22c0-.07,0-.15-.08-.22l-2.25.22-.09-.22-2.25.22a2,2,0,0,1-.08-.22l-2.26.22c0-.07-.05-.15-.08-.22l-2.25.22-.09-.22-2.25.22c0-.07,0-.15-.08-.22l-2.25.22-.09-.22-2.25.22-.09-.22-2.25.22c0-.07-.05-.15-.08-.22l-2.25.22-.09-.22-2.25.22a2,2,0,0,1-.08-.22l-2.26.22a2,2,0,0,0-.08-.22l-22.39,2.17a362.13,362.13,0,0,0-39.83-64.59l36.61-56.53a427.78,427.78,0,0,0-60.56-57.88l-1.24.88-1.1-.88-1.24.88-1.1-.88-1.23.88-1.1-.88-1.24.88-1.1-.88-1.23.88-1.1-.88-1.24.88-1.1-.88-1.24.88-1.1-.88-1.23.88-1.1-.88-1.24.88-1.1-.88-1.24.88c-.36-.29-.72-.59-1.1-.88l-1.23.88-1.1-.88-1.24.88-1.1-.88-1.23.88-1.1-.88-1.24.88-1.1-.88-1.24.88-1.1-.88-1.23.88-1.1-.88-1.24.88-1.1-.88-1.24.88-1.09-.88-1.24.88-1.1-.88-1.24.88-1.1-.88-32.66,23.33a362.58,362.58,0,0,0-46.17-22.93l3.43-67.24a427.35,427.35,0,0,0-81.38-19.85l-.16.34c-.73-.11-1.45-.24-2.18-.34l-.15.34c-.73-.11-1.46-.24-2.19-.34l-.15.34c-.73-.11-1.45-.24-2.18-.34l-.16.34c-.72-.11-1.45-.24-2.18-.34l-.15.34c-.73-.11-1.46-.24-2.18-.34l-.16.34c-.73-.11-1.45-.24-2.18-.34l-.15.34c-.73-.11-1.46-.24-2.19-.34l-.15.34c-.73-.11-1.45-.24-2.18-.34l-.16.34c-.72-.11-1.45-.24-2.18-.34l-.15.34c-.73-.11-1.46-.24-2.19-.34l-.15.34c-.73-.11-1.45-.24-2.18-.34l-.16.34c-.72-.11-1.45-.24-2.18-.34l-.15.34c-.73-.11-1.45-.24-2.18-.34l-.16.34c-.73-.11-1.45-.24-2.18-.34l-.15.34c-.73-.11-1.46-.24-2.19-.34l-.15.34c-.73-.11-1.45-.24-2.18-.34l-.16.34c-.72-.11-1.45-.24-2.18-.34l-.15.34c-.73-.11-1.46-.24-2.19-.34l-.15.34c-.73-.11-1.45-.24-2.18-.34l-.15.34c-.73-.11-1.46-.24-2.19-.34l-27.25,59.88h-30.17c-2,0-4,0-6,0l-29-56.75c-.71.13-1.41.29-2.12.42l-.22-.42-2.11.42-.22-.42c-.71.13-1.41.29-2.12.42l-.22-.42c-.71.13-1.41.29-2.12.42l-.22-.42-2.11.42-.22-.42c-.71.13-1.41.29-2.12.42l-.22-.42c-.71.13-1.41.29-2.12.42l-.21-.42c-.71.13-1.41.29-2.12.42l-.22-.42c-.71.13-1.41.29-2.12.42l-.22-.42-2.11.42-.22-.42c-.71.13-1.41.29-2.12.42l-.22-.42c-.71.13-1.41.29-2.12.42l-.21-.42c-.71.13-1.42.29-2.12.42l-.22-.42c-.71.13-1.41.29-2.12.42l-.22-.42c-.7.13-1.41.29-2.12.42l-.21-.42c-.71.13-1.41.29-2.12.42l-.22-.42c-.71.13-1.41.29-2.12.42l-.22-.42-2.11.42-.22-.42c-.71.13-1.41.29-2.12.42l-.22-.42c-.71.13-1.41.29-2.12.42l-.21-.42a427.66,427.66,0,0,0-80.41,23.51l6.49,67a363.45,363.45,0,0,0-46.67,26.07l-32.05-20.76-1,.87-1.34-.87-1,.87-1.35-.87-1,.87-1.35-.87-1,.87-1.34-.87-1,.87-1.35-.87-1,.87-1.35-.87-1,.87-1.34-.87-1,.87-1.35-.87-1,.87-1.34-.87-1,.87-1.35-.87-1,.87-1.35-.87-1,.87-1.34-.87-1,.87-1.35-.87-1,.87-1.35-.87-1,.87-1.34-.87-1,.87-1.35-.87-1,.87-1.34-.87-1,.87-1.35-.87-1,.87-1.35-.87-1,.87-1.34-.87a427.27,427.27,0,0,0-57.88,60.57l39.13,54.81a363.55,363.55,0,0,0-37.74,68.41l-21.52-1.1a.76.76,0,0,1,0,.11l-2.29-.11a.36.36,0,0,0,0,.11l-2.3-.11a.76.76,0,0,1,0,.11l-2.3-.11,0,.11-2.3-.11a.36.36,0,0,0,0,.11l-2.3-.11a.76.76,0,0,1,0,.11l-2.29-.11a.36.36,0,0,0,0,.11l-2.3-.11s0,.07,0,.11l-2.3-.11a.76.76,0,0,1,0,.11l-2.29-.11a.36.36,0,0,0,0,.11l-2.3-.11a.76.76,0,0,1,0,.11l-2.29-.11a.36.36,0,0,0,0,.11l-2.3-.11s0,.07,0,.11l-2.3-.11a.76.76,0,0,1,0,.11l-2.29-.11a.36.36,0,0,0,0,.11l-2.3-.11s0,.07,0,.11l-2.3-.11a.76.76,0,0,1,0,.11l-2.29-.11a.36.36,0,0,0,0,.11l-2.3-.11a.76.76,0,0,1,0,.11l-2.29-.11a.36.36,0,0,0,0,.11l-2.3-.11a426.67,426.67,0,0,0-19.84,81.39l61.28,27.9A363.7,363.7,0,0,0,2773.06,2285.34Zm501,86.24a194.27,194.27,0,0,1-117.71,58.87,194.18,194.18,0,0,1-111.37-52.6c-77.83-74.39-80.64-198-6.26-275.8a194.16,194.16,0,0,1,117.7-58.87,194.18,194.18,0,0,1,111.37,52.6C3345.64,2170.16,3348.45,2293.73,3274.07,2371.58Z" transform="translate(-220.54 34.57)"/><path class="al" d="M3314.53,2095.78c77.83,74.38,80.65,197.95,6.27,275.8s-198,80.65-275.81,6.27-80.64-198-6.26-275.8S3236.69,2021.41,3314.53,2095.78Zm-432.05-67.68a363,363,0,0,0-38.73,70.75l-67.25-3.44a428.18,428.18,0,0,0-19.84,81.39l61.29,27.9a363.1,363.1,0,0,0,1.83,80.64l-60,30.65a428,428,0,0,0,23.52,80.4l67-6.49a362.88,362.88,0,0,0,41.9,68.93l-36.59,56.51a425.6,425.6,0,0,0,60.56,57.88l54.8-39.13a363.34,363.34,0,0,0,70.76,38.73l-3.44,67.25a427.51,427.51,0,0,0,81.38,19.84l27.9-61.28a363.08,363.08,0,0,0,80.64-1.84l30.65,60a427.16,427.16,0,0,0,80.41-23.52l-6.49-67a363.44,363.44,0,0,0,68.93-41.93l56.51,36.61a427.32,427.32,0,0,0,57.88-60.57L3477,2445.54a362.65,362.65,0,0,0,38.74-70.77l67.25,3.45a427.52,427.52,0,0,0,19.84-81.4l-61.28-27.89a363.79,363.79,0,0,0-1.84-80.65l60-30.63a426.28,426.28,0,0,0-23.51-80.42l-67,6.49a363.09,363.09,0,0,0-41.91-68.91l36.6-56.53a427.78,427.78,0,0,0-60.56-57.88l-54.81,39.14a362.78,362.78,0,0,0-70.75-38.74l3.43-67.24a427.35,427.35,0,0,0-81.38-19.85l-27.9,61.29a363.7,363.7,0,0,0-80.64,1.83l-30.65-59.95a427.56,427.56,0,0,0-80.4,23.51l6.49,67a363.49,363.49,0,0,0-68.93,41.92l-56.52-36.61a427.76,427.76,0,0,0-57.87,60.57Z" transform="translate(-220.54 34.57)"/><rect class="ai" x="864.73" y="2524.11" width="217.54" height="93.77"/><rect class="ai" x="518.79" y="1963.9" width="889.26" height="561.92" rx="44.72"/><rect class="am" x="549.47" y="1963.9" width="889.26" height="561.92" rx="44.72"/><rect class="c" x="583.61" y="1994.55" width="820.66" height="486.91"/><rect class="am" x="899.78" y="2525.92" width="217.54" height="91.96"/><rect class="am" x="589.83" y="2003.89" width="807.71" height="464.31"/><rect class="an" x="589.83" y="2003.89" width="807.71" height="38.69"/><rect class="an" x="589.83" y="2439.18" width="807.71" height="29.02"/><rect class="ai" x="669.95" y="2042.58" width="585.23" height="396.6"/><rect class="am" x="589.83" y="2042.58" width="80.12" height="396.6"/><rect class="c" x="611.75" y="2072.51" width="36.27" height="34.46"/><rect class="c" x="611.75" y="2133.72" width="36.27" height="34.46"/><rect class="c" x="611.75" y="2194.94" width="36.27" height="34.46"/><rect class="c" x="611.75" y="2256.15" width="36.27" height="34.46"/><rect class="ao" x="1267.27" y="2072.51" width="116.08" height="10.58"/><rect class="ap" x="1267.27" y="2083.09" width="116.08" height="84.64"/><rect class="ao" x="1267.27" y="2194.48" width="116.08" height="10.58"/><rect class="ap" x="1267.27" y="2205.06" width="116.08" height="84.64"/><rect class="ao" x="1267.27" y="2304.21" width="116.08" height="10.58"/><rect class="ap" x="1267.27" y="2314.79" width="116.08" height="84.64"/><rect class="c" x="1359.77" y="2016.34" width="14.51" height="13.78"/><rect class="c" x="1336.49" y="2016.34" width="14.51" height="13.78"/><rect class="c" x="1313.22" y="2016.34" width="14.51" height="13.78"/><polygon class="ao" points="1162.21 2359.91 1153.8 2359.91 1153.8 2354.31 1156.6 2354.31 1156.6 2351.5 1162.21 2351.5 1162.21 2359.91"/><path class="ao" d="M1362.83,2325.35h-11.5v-5.61h11.5Zm-23,0h-11.5v-5.61h11.5Zm-23,0h-11.51v-5.61h11.51Zm-23,0H1282.3v-5.61h11.51Zm-23,0h-11.51v-5.61h11.51Zm-23,0h-11.51v-5.61h11.51Zm-23,0h-11.51v-5.61h11.51Zm-23,0h-11.5v-5.61h11.5Zm-23,0h-11.51v-5.61h11.51Zm-23,0h-11.51v-5.61h11.51Zm-23,0h-11.51v-5.61h11.51Zm-23,0h-11.51v-5.61h11.51Zm-23,0h-11.5v-5.61h11.5Zm-23,0h-11.5v-5.61h11.5Z" transform="translate(-220.54 34.57)"/><polygon class="ao" points="820.17 2359.91 811.76 2359.91 811.76 2351.5 817.37 2351.5 817.37 2354.31 820.17 2354.31 820.17 2359.91"/><path class="ao" d="M1037.91,2305.8h-5.61v-11.14h5.61Zm0-22.28h-5.61v-11.13h5.61Zm0-22.27h-5.61v-11.14h5.61Zm0-22.27h-5.61v-11.14h5.61Zm0-22.28h-5.61v-11.14h5.61Zm0-22.27h-5.61v-11.14h5.61Zm0-22.28h-5.61V2161h5.61Zm0-22.27h-5.61v-11.14h5.61Zm0-22.28h-5.61v-11.13h5.61Zm0-22.27h-5.61v-11.14h5.61Zm0-22.28h-5.61v-11.13h5.61Z" transform="translate(-220.54 34.57)"/><polygon class="ao" points="817.37 2095.35 811.76 2095.35 811.76 2086.94 820.17 2086.94 820.17 2092.54 817.37 2092.54 817.37 2095.35"/><path class="ao" d="M1362.83,2058h-11.5v-5.6h11.5Zm-23,0h-11.5v-5.6h11.5Zm-23,0h-11.51v-5.6h11.51Zm-23,0H1282.3v-5.6h11.51Zm-23,0h-11.51v-5.6h11.51Zm-23,0h-11.51v-5.6h11.51Zm-23,0h-11.5v-5.6h11.5Zm-23,0h-11.51v-5.6h11.51Zm-23,0h-11.51v-5.6h11.51Zm-23,0h-11.51v-5.6h11.51Zm-23,0h-11.51v-5.6h11.51Zm-23,0h-11.51v-5.6h11.51Zm-23,0h-11.5v-5.6h11.5Zm-23,0h-11.5v-5.6h11.5Z" transform="translate(-220.54 34.57)"/><polygon class="ao" points="1162.21 2095.35 1156.6 2095.35 1156.6 2092.54 1153.8 2092.54 1153.8 2086.94 1162.21 2086.94 1162.21 2095.35"/><path class="ao" d="M1382.75,2305.8h-5.61v-11.14h5.61Zm0-22.28h-5.61v-11.13h5.61Zm0-22.27h-5.61v-11.14h5.61Zm0-22.28h-5.61v-11.13h5.61Zm0-22.27h-5.61v-11.14h5.61Zm0-22.27h-5.61v-11.14h5.61Zm0-22.28h-5.61V2161h5.61Zm0-22.27h-5.61v-11.14h5.61Zm0-22.28h-5.61v-11.13h5.61Zm0-22.27h-5.61v-11.14h5.61Zm0-22.28h-5.61v-11.13h5.61Z" transform="translate(-220.54 34.57)"/><rect class="ai" x="750.26" y="2617.88" width="504.76" height="52.99" rx="23.99"/><rect class="am" x="792.09" y="2617.88" width="462.93" height="52.99" rx="23.99"/><rect class="c" x="725.91" y="2230.56" width="124.62" height="20.01"/><rect class="c" x="887.51" y="2230.56" width="59.18" height="20.01"/><rect class="c" x="978.4" y="2230.56" width="208.15" height="20.01"/><rect class="c" x="725.91" y="2271.33" width="87.56" height="13.11"/><rect class="c" x="844.58" y="2271.33" width="87.56" height="13.11"/><rect class="c" x="725.91" y="2311.98" width="160.7" height="5.37"/><rect class="c" x="935.48" y="2311.98" width="160.7" height="5.37"/><rect class="c" x="968.3" y="2359.96" width="160.7" height="5.37"/><rect class="c" x="725.91" y="2352.88" width="224.81" height="19.84"/><rect class="c" x="725.91" y="2085.44" width="133.48" height="28.7"/><rect class="c" x="725.91" y="2122" width="181.36" height="9.02"/><path class="ad" d="M3219.64,1835.91s-7.58,10.09,0,37.87l2.52,17.67s-5,11.92,0,17.32,15.15-17.32,15.15-17.32l-2.52-30.3Z" transform="translate(-220.54 34.57)"/><path class="ad" d="M3169.14,1793l72.07,17a22.69,22.69,0,0,1,16.93,17l15.79,69.07a7.19,7.19,0,0,1-3.79,8l-35.35,17.67s-20.2-20.2-12.63-25.25l13.33-8.88a2.33,2.33,0,0,0,.72-3.11l-16.57-28.41-4.24-14.83a3.72,3.72,0,0,0-3.76-2.69l-65.78,3.45Z" transform="translate(-220.54 34.57)"/><path class="ae" d="M3194.39,1790.46s-.84.75-2.22,2.22c0,0,0,0-.05,0a110.15,110.15,0,0,0-28,60.88s-118.67,15.93-174.22-2.53c-16.33-5.42-21.76-14.66-21.26-25,1.21-24.75,36.41-55.8,36.41-55.8s42.92-25.25,101-7.58S3194.39,1790.46,3194.39,1790.46Z" transform="translate(-220.54 34.57)"/><path class="ag" d="M3192.12,1792.7a110.15,110.15,0,0,0-28,60.88s-118.67,15.93-174.22-2.53c-16.33-5.42-21.76-14.66-21.26-25h0a26.66,26.66,0,0,1,17.39-1.82c24.67,5.77,96.73,19.39,154.81-2.22C3178.66,1807.93,3182.87,1798.49,3192.12,1792.7Z" transform="translate(-220.54 34.57)"/><path class="ap" d="M3034.05,1362.71H2827.91a11.43,11.43,0,0,1-11.43-11.43v-81.82a11.43,11.43,0,0,1,11.43-11.43h177.66a11.43,11.43,0,0,1,11.43,11.43v72.83a6.85,6.85,0,0,0,2.46,5.26l15.41,12.91A1.27,1.27,0,0,1,3034.05,1362.71Z" transform="translate(-220.54 34.57)"/><circle class="c" cx="2734.98" cy="1345.42" r="6.98"/><circle class="c" cx="2696.41" cy="1345.42" r="6.98"/><circle class="c" cx="2657.28" cy="1345.42" r="6.98"/><path class="aq" d="M2246.51,940.75c-3.46.38-7.17.73-11.16,1a118.48,118.48,0,0,0-29.44,6c-72.27,24.75-93.47,112.94-93.47,112.94-8.87-6.16-25.83-9.24-40.68-10.81-15.1-1.59-28-1.59-28-1.59-78.37-6.54-66-164.82-62-202,.55-5,.93-7.78.93-7.78l259.38-60.35,25.93,126S2326.29,931.92,2246.51,940.75Z" transform="translate(-220.54 34.57)"/><path class="ae" d="M2109.76,634.25l63.37-196,147,.84-2.52,111.61a45.35,45.35,0,0,1-48.26,44.24L2224.58,592l-12.29,69Z" transform="translate(-220.54 34.57)"/><path d="M2232.49,472.83S2347.55,493.3,2357.8,441s-152.92-85.13-198.75-41.06-24.53,148.51-24.53,148.51l62.68-10.68s-42-52.11-12.8-66.85,39.82,27,39.82,27Z" transform="translate(-220.54 34.57)"/><path d="M2307.87,497.79l10.53,21.6.37-2.89a26.34,26.34,0,0,1-18.14,5.76,2.39,2.39,0,0,0,0,4.77,31.22,31.22,0,0,0,21.51-7.15,2.43,2.43,0,0,0,.38-2.9L2312,495.38a2.39,2.39,0,1,0-4.12,2.41Z" transform="translate(-220.54 34.57)"/><path d="M2282.34,548.92a72.77,72.77,0,0,1-32.36-13c-1.31-1-3.07.09-3.5,1.43-3.69,11.53,1,24.92,10.42,32.34a28,28,0,0,0,9.18,4.87c2.94.9,4.2-3.71,1.27-4.61-9.71-3-16.68-12.8-17.31-22.72a22.43,22.43,0,0,1,1-8.62l-3.5,1.43a75.59,75.59,0,0,0,33.49,13.52,2.47,2.47,0,0,0,2.94-1.67,2.41,2.41,0,0,0-1.67-2.93Z" transform="translate(-220.54 34.57)"/><path d="M2186.66,492.37a9.84,9.84,0,0,1-.38-1.2,4.51,4.51,0,0,1-.1-.53c.08.55,0-.12,0-.21,0-.34,0-.67,0-1,0,.52,0,.09,0-.05s.1-.46.17-.68.1-.31.16-.47c.13-.36-.26.49,0-.07.16-.3.31-.59.49-.88s.23-.34.35-.5c-.28.37,0,0,.08-.08.28-.31.57-.62.88-.91l.4-.36c.54-.46-.37.26.21-.16.3-.22.61-.42.92-.62s.66-.38,1-.55l.63-.3c.45-.21-.23.08.28-.12a17.52,17.52,0,0,1,2.37-.72c.42-.09.85-.18,1.28-.24-.11,0-.41.05.08,0,.31,0,.63-.06.94-.07a10.08,10.08,0,0,1,8.38,3.25c3,3.13,4.47,7.28,5.24,11.47,1,5.14.79,10.47.57,15.67l4.68-.64c-2-11.55-15.51-19.41-26.54-15.5a2.44,2.44,0,0,0-1.66,2.93,2.4,2.4,0,0,0,2.93,1.67c8.67-3.07,19.09,2.94,20.67,12.17a2.36,2.36,0,0,0,2.62,1.71,2.41,2.41,0,0,0,2.07-2.34c.45-10.29.44-22.23-7-30.29a15.07,15.07,0,0,0-11.49-4.89,18.5,18.5,0,0,0-11.38,4.06,10.42,10.42,0,0,0-3.53,11.74,2.46,2.46,0,0,0,2.94,1.67,2.42,2.42,0,0,0,1.67-2.94Z" transform="translate(-220.54 34.57)"/><path class="aq" d="M2117.56,621.82s-95.24,7.67-129.6,75.89-33.69,173.64-15.38,191.36,80,39.07,133.82,40.4c0,0,11.06-78.37,47.28-101.43l86.41,11.6L2344,835.16S2304.42,723,2276.92,686.28s-66.77-47.69-66.77-47.69Z" transform="translate(-220.54 34.57)"/><polygon class="ae" points="2261.94 1148.34 2244.4 1211.48 2178.75 1206.43 2194.87 1137.26 2261.94 1148.34"/><path class="k" d="M2392.67,1156.22,2369.78,1265l43.35,8.58,6.32-11.53,11.93,17.83,116.42,23.05s8.95-17.73,1-25.35S2518,1260,2518,1260l-44.39-47.11,3.16-40Z" transform="translate(-220.54 34.57)"/><path class="ar" d="M2507.86,1118.83h-96l-.63-.55L2273,1000.16l-29.74-15-40.12-20.31L2229,927.88l28.89-41.34s53.4-17.34,111.49-28.38c52.78-10,109.38-14.89,133.42,3.13C2553.31,899.17,2507.86,1118.83,2507.86,1118.83Z" transform="translate(-220.54 34.57)"/><polygon class="ae" points="2110.57 1294 2120.28 1397.07 2188.17 1382.98 2184.11 1284.53 2110.57 1294"/><path class="k" d="M2333.64,1341l-2.52,108.57,55.53-.24,1.79-10.49,17.51,12.4,111.93-4.8s2-19.75-8.06-24-35-13-35-13l-53.22-35.78-5.27-46.07Z" transform="translate(-220.54 34.57)"/><path class="as" d="M2263.45,919.49l145.94,32.7s15.15-32.82,20.2-22.72-10.1,27.77-10.1,27.77h17.67L2417,974.91v118.67h29.36a5.79,5.79,0,0,1,5.18,8.37l-11.49,23a25.52,25.52,0,0,1-22.83,14.1h-58.29L2255.37,914.32" transform="translate(-220.54 34.57)"/><path class="ar" d="M2417,1270.33l-98.47,15.15-85.84-212.09s-76.26-6.49-132.51-16.87a365.64,365.64,0,0,1-36.66-8.38s-17.68-88.37,106-133.82c0,0,25.63,5.32,59.49,13.56,24.06,5.85,52.27,13.18,78.4,21.1,38.35,11.62,72.21,24.55,81.78,36,11.34,13.61,18.08,72.49,22.09,133.27C2416.21,1192.89,2417,1270.33,2417,1270.33Z" transform="translate(-220.54 34.57)"/><path class="at" d="M2461.11,1094.7c.64-11,1.19-21.94,1.71-32.91L2425,1060c-.51,10.83-1.06,21.72-1.68,32.46Z" transform="translate(-220.54 34.57)"/><rect x="2441.16" y="1064.48" width="6.08" height="3.79" transform="translate(1038.2 3489.66) rotate(-87.18)"/><rect x="2440.62" y="1075.37" width="6.08" height="3.79" transform="translate(1019.42 3495.75) rotate(-87)"/><polygon class="au" points="2220.48 1125.6 2224.26 1125.82 2224.59 1119.75 2220.81 1119.54 2220.48 1125.6"/><path class="at" d="M2462.82,1061.79q.76-16.43,1.39-32.88l-37.85-1.41q-.6,16.26-1.37,32.51Z" transform="translate(-220.54 34.57)"/><rect x="2442.59" y="1031.78" width="6.08" height="3.79" transform="translate(1094.97 3470.83) rotate(-87.72)"/><rect x="2442.15" y="1042.67" width="6.08" height="3.79" transform="translate(1075.6 3477) rotate(-87.53)"/><rect x="2441.67" y="1053.52" width="6.08" height="3.79" transform="translate(1056.89 3483.3) rotate(-87.35)"/><path class="at" d="M2464.21,1028.91q.6-16.47,1-33l-37.86-.88q-.37,16.2-1,32.45Z" transform="translate(-220.54 34.57)"/><polygon class="au" points="2224.19 1038.52 2227.98 1038.62 2228.14 1032.54 2224.35 1032.45 2224.19 1038.52"/><polygon class="au" points="2223.87 1049.4 2227.65 1049.52 2227.84 1043.44 2224.05 1043.33 2223.87 1049.4"/><polygon class="au" points="2223.5 1060.25 2227.28 1060.38 2227.49 1054.31 2223.71 1054.18 2223.5 1060.25"/><path class="at" d="M2465.21,995.93c.26-11,.43-22,.43-33.17l-37.87,0c0,10.7-.17,21.48-.42,32.27Z" transform="translate(-220.54 34.57)"/><polygon class="au" points="2224.79 1005.82 2228.58 1005.85 2228.61 999.76 2224.82 999.76 2224.79 1005.82"/><polygon class="au" points="2224.67 1016.71 2228.45 1016.76 2228.53 1010.68 2224.75 1010.64 2224.67 1016.71"/><polygon class="au" points="2224.46 1027.56 2228.25 1027.64 2228.37 1021.56 2224.59 1021.49 2224.46 1027.56"/><path class="at" d="M2465.64,962.76c0-5.57-.06-11.15-.19-16.79s-.34-11.34-.75-17.24l-37.77,2.67c.34,5,.54,10.19.66,15.45s.17,10.59.18,15.93Z" transform="translate(-220.54 34.57)"/><path class="au" d="M2444.94,938.6l3.78-.16c-.08-2-.19-4.07-.3-6.11l-3.79.23Q2444.81,935.58,2444.94,938.6Z" transform="translate(-220.54 34.57)"/><polygon class="au" points="2224.7 984.03 2228.49 983.96 2228.35 977.86 2224.56 977.97 2224.7 984.03"/><polygon class="au" points="2224.82 994.87 2228.6 994.85 2228.56 988.76 2224.78 988.8 2224.82 994.87"/><path class="at" d="M2464.7,928.73l-.19-2.53-.05-.63-.1-1-.21-2.12c-.12-1.37-.36-3-.56-4.45s-.51-3-.77-4.49a21,21,0,0,0-.5-2.18l-.57-2.15-.72-2c-.13-.34-.23-.69-.37-1l-.45-.95a21.52,21.52,0,0,0-2.05-3.57l-2.56-3.22-2.54-2-1.25-1a7.42,7.42,0,0,0-.64-.46l-.7-.37c-.47-.23-.92-.5-1.41-.71l-1.48-.62a10.79,10.79,0,0,0-1.54-.55l-1.58-.48a63.62,63.62,0,0,0-13.78-1.7l-4,37.78.25,3Z" transform="translate(-220.54 34.57)"/><path class="au" d="M2436.41,911.34l2-3.5a51.84,51.84,0,0,0-6.74-.74l-.88,3.75A55.57,55.57,0,0,1,2436.41,911.34Z" transform="translate(-220.54 34.57)"/><path class="au" d="M2443,917.65l3.36-2.21a14.66,14.66,0,0,0-2.2-5.15,3.14,3.14,0,0,0-.77-.68l-2.68,3a2.37,2.37,0,0,1,.63.59,6.81,6.81,0,0,1,1,2.13C2442.59,916.1,2442.78,916.87,2443,917.65Z" transform="translate(-220.54 34.57)"/><path class="au" d="M2444.29,927.7l3.77-.31c-.18-2.13-.4-4.47-.74-6.71l-3.63,1.35C2443.94,923.9,2444.12,925.74,2444.29,927.7Z" transform="translate(-220.54 34.57)"/><path class="at" d="M2430.68,890.57l-2-.06-1.88,0h-2.28c-1.5,0-3,0-4.45.07-2.94.07-5.82.19-8.67.34-5.7.29-11.31.69-16.89,1.14l3.06,37.75c5.3-.44,10.57-.8,15.76-1.07,2.6-.13,5.17-.24,7.68-.3l3.74-.06h2Z" transform="translate(-220.54 34.57)"/><polygon class="au" points="2184.02 946.18 2183.77 942.4 2177.68 942.84 2177.98 946.62 2184.02 946.18"/><path class="au" d="M2415.4,911l-.16-3.79c-2,.09-4.07.19-6.1.31l.22,3.78C2411.37,911.19,2413.39,911.08,2415.4,911Z" transform="translate(-220.54 34.57)"/><path class="au" d="M2426.2,910.75V907c-2.06,0-4.1,0-6.15.07l.11,3.79C2422.18,910.78,2424.19,910.74,2426.2,910.75Z" transform="translate(-220.54 34.57)"/><path class="at" d="M2394.47,892c-11.14.91-22.15,2-33.12,3.23l4.16,37.65c10.72-1.19,21.42-2.27,32-3.13Z" transform="translate(-220.54 34.57)"/><polygon class="au" points="2151.48 949.08 2151.08 945.31 2145.03 945.96 2145.44 949.72 2151.48 949.08"/><polygon class="au" points="2162.3 947.99 2161.94 944.22 2155.89 944.82 2156.27 948.58 2162.3 947.99"/><polygon class="au" points="2173.11 947.01 2172.79 943.24 2166.72 943.77 2167.06 947.54 2173.11 947.01"/><path class="at" d="M2361.35,895.26q-16.45,1.83-32.8,3.92l4.77,37.57c10.74-1.36,21.48-2.66,32.19-3.84Z" transform="translate(-220.54 34.57)"/><polygon class="au" points="2118.99 952.81 2118.52 949.05 2112.49 949.8 2112.96 953.56 2118.99 952.81"/><polygon class="au" points="2129.8 951.5 2129.35 947.74 2123.32 948.47 2123.77 952.23 2129.8 951.5"/><polygon class="au" points="2140.58 950.26 2140.16 946.5 2134.11 947.18 2134.55 950.95 2140.58 950.26"/><path class="at" d="M2328.55,899.18q-16.35,2.07-32.65,4.34l5.19,37.51q16.11-2.22,32.23-4.28Z" transform="translate(-220.54 34.57)"/><rect x="2300.79" y="919.09" width="6.08" height="3.79" transform="translate(-323.46 352.73) rotate(-7.73)"/><rect x="2311.59" y="917.63" width="6.08" height="3.79" transform="translate(-320.96 345.36) rotate(-7.52)"/><polygon class="au" points="2108.11 954.18 2107.63 950.42 2101.6 951.2 2102.09 954.95 2108.11 954.18"/><path class="at" d="M2295.9,903.52c-10.89,1.51-21.69,3.05-32.64,4.7l5.69,37.44c10.62-1.6,21.42-3.14,32.14-4.63Z" transform="translate(-220.54 34.57)"/><polygon class="au" points="2054.16 961.59 2053.61 957.84 2047.59 958.73 2048.15 962.48 2054.16 961.59"/><polygon class="au" points="2064.94 960.03 2064.4 956.28 2058.38 957.14 2058.93 960.89 2064.94 960.03"/><rect x="2289.92" y="920.6" width="6.08" height="3.79" transform="translate(-325.87 359.69) rotate(-7.93)"/><path class="as" d="M2369.39,858.16c-19.51,36.66-37.52,67.77-62,90.82-17.22,16.31-37.67,28.64-64.11,36.14a223.09,223.09,0,0,1-43.48,7.47c-95.94,7.57-99.68,63.93-99.68,63.93a365.64,365.64,0,0,1-36.66-8.38s-17.68-88.37,106-133.82c0,0,25.63,5.32,59.49,13.56l28.89-41.34S2311.3,869.2,2369.39,858.16Z" transform="translate(-220.54 34.57)"/><path class="aq" d="M2063.48,1025.41s5.05-58.07,78.27-58.07,123.72-37.87,126.24-63.12H2129.13S2040.75,967.34,2063.48,1025.41Z" transform="translate(-220.54 34.57)"/><path class="at" d="M2076.49,1025.79c11.32,2.56,22.75,5.21,34.12,7.89l8.7-36.86c-11.5-2.71-22.95-5.37-34.54-8Z" transform="translate(-220.54 34.57)"/><rect x="2107.22" y="1011.18" width="3.79" height="6.54" transform="translate(420.81 2871.96) rotate(-76.85)"/><rect x="2095.8" y="1008.52" width="3.79" height="6.54" transform="translate(419.88 2863.05) rotate(-77.01)"/><polygon class="au" points="1862.99 1041.16 1862.15 1044.86 1868.52 1046.31 1869.37 1042.62 1862.99 1041.16"/><path class="at" d="M2110.61,1033.68q17.05,4,34.07,8.22l9.07-36.77q-17.22-4.25-34.44-8.31Z" transform="translate(-220.54 34.57)"/><rect x="2141.48" y="1019.38" width="3.79" height="6.54" transform="translate(421.9 2897.62) rotate(-76.31)"/><rect x="2130.08" y="1016.62" width="3.79" height="6.54" transform="translate(421.96 2889.38) rotate(-76.5)"/><rect x="2118.72" y="1013.89" width="3.79" height="6.54" transform="translate(421.46 2880.75) rotate(-76.67)"/><path class="at" d="M2144.68,1041.9q17,4.2,33.88,8.6l9.61-36.63q-17.22-4.51-34.42-8.74Z" transform="translate(-220.54 34.57)"/><polygon class="au" points="1954.31 1063.16 1953.37 1066.83 1959.69 1068.46 1960.65 1064.8 1954.31 1063.16"/><polygon class="au" points="1942.94 1060.26 1942.01 1063.93 1948.34 1065.54 1949.28 1061.87 1942.94 1060.26"/><polygon class="au" points="1931.59 1057.42 1930.68 1061.1 1937.02 1062.68 1937.94 1059.01 1931.59 1057.42"/><path class="at" d="M2178.56,1050.5c11.24,3,22.45,6,33.44,9.21l10.67-36.34c-11.55-3.39-23-6.49-34.5-9.5Z" transform="translate(-220.54 34.57)"/><polygon class="au" points="1988.37 1072.29 1987.35 1075.94 1993.62 1077.73 1994.67 1074.09 1988.37 1072.29"/><polygon class="au" points="1977.05 1069.16 1976.06 1072.82 1982.36 1074.55 1983.37 1070.9 1977.05 1069.16"/><polygon class="au" points="1965.75 1066.13 1964.79 1069.8 1971.1 1071.48 1972.08 1067.82 1965.75 1066.13"/><path class="at" d="M2212,1059.71c5.52,1.6,10.93,3.29,16.23,5l3.91,1.32,3.78,1.36c2.43.89,4.85,1.88,6.55,2.65l16.34-34.17c-3.64-1.67-6.67-2.86-9.75-4l-4.52-1.62-4.44-1.5q-8.79-2.87-17.43-5.39Z" transform="translate(-220.54 34.57)"/><path class="au" d="M2242.63,1048.27l-1.3,3.55c1,.36,2,.75,3,1.14s2,.76,3,1.2l1.5-3.48c-1-.47-2.05-.83-3.07-1.24S2243.67,1048.63,2242.63,1048.27Z" transform="translate(-220.54 34.57)"/><path class="au" d="M2231.48,1044.47l-1.16,3.6c2.07.65,4.12,1.34,6.17,2l1.22-3.58C2235.64,1045.82,2233.56,1045.12,2231.48,1044.47Z" transform="translate(-220.54 34.57)"/><path class="au" d="M2220.28,1041l-1.08,3.63c2.09.61,4.15,1.26,6.23,1.89l1.12-3.62C2224.46,1042.28,2222.37,1041.62,2220.28,1041Z" transform="translate(-220.54 34.57)"/><path class="at" d="M2242.47,1070.05l.1,0,.3.53c.84,1.55,1.76,3.49,2.66,5.48,1.81,4,3.59,8.44,5.3,12.91l35.36-13.55c-1.87-4.89-3.84-9.8-6.13-14.91-1.17-2.57-2.38-5.16-3.93-8l-.63-1.13c-.3-.53-.6-1.06-.94-1.59-.66-1.06-1.33-2.12-2.07-3.13a36.26,36.26,0,0,0-5-5.5l-2.11-1.47-1.05-.72-1.12-.64-2.24-1.27-1.12-.64c-.35-.2-.8-.45-1-.55Z" transform="translate(-220.54 34.57)"/><path class="au" d="M2266.37,1073.22l-3.5,1.46c.83,2,1.63,4,2.42,6l3.52-1.38Q2267.63,1076.26,2266.37,1073.22Z" transform="translate(-220.54 34.57)"/><path class="au" d="M2261.47,1062.45l-3.37,1.73q1.44,2.83,2.75,5.78l3.46-1.54C2263.42,1066.41,2262.48,1064.42,2261.47,1062.45Z" transform="translate(-220.54 34.57)"/><path class="au" d="M2253.74,1053.07l-2.08,3.17a16.77,16.77,0,0,1,1.83,1.18,10.92,10.92,0,0,1,2.28,2.65l3-2.3a14.33,14.33,0,0,0-2.81-3.25l-1.11-.75-.55-.38Z" transform="translate(-220.54 34.57)"/><path class="at" d="M2250.83,1089c4,10.5,7.76,21.43,11.4,32.41l35.95-11.9c-3.75-11.32-7.62-22.62-12-34.06Z" transform="translate(-220.54 34.57)"/><polygon class="au" points="2058.03 1140.94 2054.45 1142.15 2056.53 1148.34 2060.12 1147.14 2058.03 1140.94"/><polygon class="au" points="2054.18 1129.84 2050.61 1131.1 2052.77 1137.26 2056.35 1136.02 2054.18 1129.84"/><polygon class="au" points="2050.17 1118.83 2046.63 1120.16 2048.88 1126.27 2052.44 1124.98 2050.17 1118.83"/><path class="at" d="M2262.23,1121.42q5.46,16.49,10.61,33.21l36.17-11.19c-3.5-11.31-7.08-22.61-10.83-33.92Z" transform="translate(-220.54 34.57)"/><polygon class="au" points="2068.94 1174.47 2065.33 1175.61 2067.28 1181.85 2070.89 1180.72 2068.94 1174.47"/><polygon class="au" points="2065.39 1163.29 2061.79 1164.44 2063.77 1170.66 2067.38 1169.52 2065.39 1163.29"/><polygon class="au" points="2061.78 1152.15 2058.18 1153.34 2060.21 1159.55 2063.81 1158.38 2061.78 1152.15"/><path class="at" d="M2272.84,1154.63q5.16,16.71,10.13,33.51l36.31-10.76q-5-17-10.27-33.94Z" transform="translate(-220.54 34.57)"/><rect x="2297.03" y="1174.02" width="3.79" height="6.54" transform="matrix(0.96, -0.29, 0.29, 0.96, -461.57, 743.15)"/><polygon class="au" points="2075.88 1196.95 2072.25 1198.05 2074.14 1204.3 2077.77 1203.21 2075.88 1196.95"/><polygon class="au" points="2072.45 1185.76 2068.84 1186.88 2070.75 1193.12 2074.38 1192.02 2072.45 1185.76"/><path class="at" d="M2283,1188.14q5,16.8,9.81,33.67l36.4-10.43q-4.87-17-9.9-34Z" transform="translate(-220.54 34.57)"/><rect x="2306.93" y="1207.83" width="3.79" height="6.54" transform="matrix(0.96, -0.28, 0.28, 0.96, -465.96, 722.92)"/><rect x="2303.67" y="1196.57" width="3.79" height="6.54" transform="translate(-464.48 729.16) rotate(-16.28)"/><rect x="2300.38" y="1185.35" width="3.79" height="6.54" transform="translate(-463.01 735.83) rotate(-16.46)"/><path class="at" d="M2292.78,1221.81c3.21,11.22,6.41,22.52,9.5,33.71l36.51-10c-3.16-11.46-6.35-22.77-9.61-34.12Z" transform="translate(-220.54 34.57)"/><polygon class="au" points="2098.84 1275.91 2095.19 1276.93 2096.94 1283.22 2100.59 1282.21 2098.84 1275.91"/><rect x="2313.37" y="1230.43" width="3.79" height="6.54" transform="translate(-468.87 711.07) rotate(-15.79)"/><rect x="2310.19" y="1219.19" width="3.79" height="6.54" transform="translate(-467.47 717.07) rotate(-15.95)"/><path class="av" d="M2255.37,934.49a33.7,33.7,0,0,1-8.86,6.26c-10.28,5.15-24.44,7-40.6,7.07-60.32.1-148.42-25.52-165.16-3.2-22.72,30.29,27.78,72.54,27.78,72.54l3.23,32.79c-15.1-1.59-28-1.59-28-1.59-58.55-4.89-66.43-94.48-65-155a10,10,0,0,0,1.44.76c12.62,5,58.07,17.67,58.07,17.67L2048.38,861l141.54,53.28S2293.24,896.64,2255.37,934.49Z" transform="translate(-220.54 34.57)"/><path class="ae" d="M2053.38,911.79s-17.68-58.07,40.4-68.17L2215,899.17s42.93-35.35,78.27-2.53c0,0,15.15,20.2-10.1,30.3S2215,944.62,2215,944.62Z" transform="translate(-220.54 34.57)"/><polyline class="aw" points="2025.63 888.84 2017.84 922.7 1995.46 945.65 1994.43 933.74"/><polygon class="ax" points="2042.41 804.97 2007.23 968.78 2014.63 976.66 2249.45 921.11 2299.95 769.62 2292.37 762.04 2042.41 804.97"/><polygon class="ay" points="2299.95 769.62 2257.02 928.69 2073.64 964.77 2014.81 976.36 2019.71 955.1 2052.51 812.54 2208.49 785.48 2262.07 776.18 2299.95 769.62"/><polygon class="az" points="2262.07 776.18 2073.64 964.77 2014.81 976.36 2019.71 955.1 2208.49 785.48 2262.07 776.18"/><polygon class="az" points="2281.8 772.76 2101.85 959.22 2117.94 956.05 2299.95 769.62 2281.8 772.76"/><path class="ae" d="M2237.69,878.13l10.11-6.74s42.92-15.15,40.39-7.57-7.57,7.57-7.57,7.57,5.05,0,5.05,5.05-15.15,10.1-15.15,10.1,12-3.22,12.94,0c2.21,7.58-10.42,10.1-10.42,10.1s7.58-3.12,7.58,2.53c0,5.05-41.86,27.8-41.86,27.8s-3.59,17.65-23.79,17.65c-16.54,0,5.87-42.34,14.52-57.67A26,26,0,0,1,2237.69,878.13Z" transform="translate(-220.54 34.57)"/><path class="ba" d="M2011.38,592.62H1805.24a11.43,11.43,0,0,1-11.43-11.43V499.37a11.43,11.43,0,0,1,11.43-11.43H1982.9a11.43,11.43,0,0,1,11.43,11.43v72.82a6.87,6.87,0,0,0,2.46,5.27l15.41,12.91A1.27,1.27,0,0,1,2011.38,592.62Z" transform="translate(-220.54 34.57)"/><circle class="c" cx="1712.31" cy="575.32" r="6.98"/><circle class="c" cx="1673.74" cy="575.32" r="6.98"/><circle class="c" cx="1634.61" cy="575.32" r="6.98"/><path class="an" d="M2050.25-33.07a.75.75,0,0,0,0-1.5.75.75,0,0,0,0,1.5Z" transform="translate(-220.54 34.57)"/></g></svg>