<svg xmlns="http://www.w3.org/2000/svg" xmlns:xlink="http://www.w3.org/1999/xlink" viewBox="0 0 4120.35 2563.91"><defs><style>.a{isolation:isolate;}.b,.r{fill:#c0bfbf;}.ai,.b,.d,.i,.j,.k{fill-rule:evenodd;}.c{fill:#322f33;}.d{fill:#373438;}.e{fill:#555356;}.ai,.f{fill:#fff;}.g,.j{fill:#929192;}.h{fill:#f0f0ee;}.i{fill:#669939;}.k{fill:#9edc6f;}.l{fill:#cc273f;}.m{fill:#d44945;}.n{fill:#1a171a;}.o{fill:#211f22;}.p{fill:#8c887e;}.q{fill:#8dc1ff;opacity:0.55;}.aa,.ab,.ac,.q,.z{mix-blend-mode:multiply;}.s{fill:#76d9e4;}.t{fill:#f95d84;}.u{fill:#fcd65b;}.v{fill:#ccc;}.w{fill:#687ccd;}.x{fill:#ffa79b;}.y{fill:#eff5f9;}.aa,.ab,.ac,.z{opacity:0.5;}.z{fill:url(#a);}.aa{fill:url(#b);}.ab{fill:url(#c);}.ac{fill:url(#d);}.ad{fill:#fbbd9d;}.ae{fill:#606060;}.af{fill:#444;}.ag{fill:#303030;}.ah{fill:#7c7c7c;}.aj{fill:none;stroke:#000;stroke-miterlimit:10;stroke-width:4.43px;}</style><linearGradient id="a" x1="3401.99" y1="1960.45" x2="2921.04" y2="1970.65" gradientUnits="userSpaceOnUse"><stop offset="0" stop-color="#ffcf3d"/><stop offset="1" stop-color="#f15a24"/></linearGradient><linearGradient id="b" x1="2981.18" y1="1825.87" x2="3176.31" y2="1825.87" xlink:href="#a"/><linearGradient id="c" x1="3205.62" y1="1774.76" x2="3010.73" y2="1778.9" xlink:href="#a"/><linearGradient id="d" x1="2984.48" y1="1874.47" x2="2427.62" y2="1886.29" xlink:href="#a"/></defs><g class="a"><path class="b" d="M4273.88,1954a227.49,227.49,0,0,1-60.44,61.2c-38.14,26.15-86.66,42-145.53,42a219.51,219.51,0,0,0-130.33,42.8c-52.68,38.68-87.79,100.09-90.5,169.45-.12,2.89-.18,5.81-.18,8.73,0,110.87-45.37,211.66-118.42,284.73s-173.86,118.42-284.73,118.42H733c-288.07,0-523.75-235.68-523.75-523.75a522.05,522.05,0,0,1,153.85-369.91C458.05,1692.79,589,1633.86,733,1633.86H746.8c57.81,0,105.09-47.31,105.09-105.09A105.42,105.42,0,0,0,746.8,1423.65H689c-140.53,0-255.53-115-255.53-255.5,0-70.19,28.69-134,74.91-180.32s110-75.08,180.12-75.2H937.82c121.51,0,221-99.43,221-221,0-110.87,45.34-211.66,118.41-284.73S1451.08,288.47,1562,288.47H3622.3c288.07,0,523.76,235.68,523.76,523.75,0,144-58.93,275-153.86,369.91S3766.34,1336,3622.3,1336a105.11,105.11,0,0,0,0,210.21h445.61C4305.71,1546.19,4374.37,1804.72,4273.88,1954Z" transform="translate(-209.28 -288.47)"/><rect class="c" x="379.09" y="1707.74" width="3342.84" height="672.66"/><polygon class="d" points="934.76 1324.62 241.63 1666.8 3885.7 1666.8 3204.27 1324.62 934.76 1324.62"/><rect class="e" x="206.53" y="1666.8" width="3714.26" height="125.76" rx="35.1"/><rect class="e" x="64.83" y="2350.59" width="4055.52" height="100.62" rx="38.79"/><path class="f" d="M3461.32,329s279.07-23.63,233.89,348c0,0-143.52-131-510.29-131C3184.92,545.92,3224.79,369.79,3461.32,329Z" transform="translate(-209.28 -288.47)"/><path class="g" d="M3461.32,329s279.07-23.63,233.89,348c0,0-143.52-131-510.29-131C3184.92,545.92,3224.79,369.79,3461.32,329Z" transform="translate(-209.28 -288.47)"/><path class="h" d="M1550.41,649S1504,436.48,1919.08,372.61c11.32-1.74,22.94,1,31.46,7.31,35.16,25.92,152.23,90.66,418.45,62.9,329.56-34.37,823.9-150.36,1134.86-111.69,0,0-305.64-4.3-353.48,369.44Z" transform="translate(-209.28 -288.47)"/><path class="c" d="M1888.35,435c24.09,41.32,78,61,130.14,71.13,61.23,11.94,124.65,18.22,187.54,20.18a1251.3,1251.3,0,0,0,190-8.77c63.55-7.75,124.86-22.33,187.14-34.68a1112.39,1112.39,0,0,1,218.06-21.39c17.11,0,17.13-21.46,0-21.48a1130.73,1130.73,0,0,0-183.12,14.52c-60.36,9.82-119.05,25.25-179.38,35.19a1205.31,1205.31,0,0,1-369.73,3c-58.8-8.7-129.59-20.35-157.7-68.56-7.29-12.5-30.21-1.61-23,10.84Z" transform="translate(-209.28 -288.47)"/><path class="c" d="M1810.44,493.05c18,25.44,50.81,38.25,83.27,48.69a887.59,887.59,0,0,0,122.49,29.72c83.46,14.25,169.45,18,254.46,13.43a1454.63,1454.63,0,0,0,145.46-15.44c16.78-2.61,9.67-23.32-7.07-20.71-156.87,24.4-322.48,24.33-474.85-17.73-35.59-9.83-80.88-20.71-100.82-48.8-8.51-12-31.48-1.18-22.94,10.84Z" transform="translate(-209.28 -288.47)"/><path class="c" d="M2582.14,544a1846.59,1846.59,0,0,1,414-22.76c17.07,1,17-20.51,0-21.48a1878.68,1878.68,0,0,0-421.1,23.53c-16.73,2.85-9.65,23.56,7.06,20.71Z" transform="translate(-209.28 -288.47)"/><path class="d" d="M3524.4,1449c72.92-18.49,174.81-57.31,270.1-138.65,135-115.26-164.88-53.8-404.32,50.64l102.74,76.41Z" transform="translate(-209.28 -288.47)"/><path class="i" d="M3756.61,1236.05c-44.69,50.83-164.06,154.84-279.07,264.54l-130.91,65-33.93-80.64c81.4-161.1,194.28-328.73,297.79-418.27C3792.06,909.55,3913.42,1057.67,3756.61,1236.05Z" transform="translate(-209.28 -288.47)"/><path class="j" d="M3345,1561.58c133.88-263.07,410.73-491,411.74-491.8a4.27,4.27,0,0,1,6.29.84,5.09,5.09,0,0,1-.86,6.78c-1,.83-273.41,225.09-406.95,483.94l-8.54,4.23Z" transform="translate(-209.28 -288.47)"/><path class="k" d="M3417.61,719.63c-19.76,76.93-43,255.48-73.17,440.81,29.56,71.29,18.82,255.93,84.92,292.45,93.11-181.24,234-513,253.31-670.44C3720.37,474.29,3492.81,426.79,3417.61,719.63Z" transform="translate(-209.28 -288.47)"/><path class="j" d="M3422.24,1274.14c126-302.58,161.2-657.2,161.35-658.67a6.09,6.09,0,0,0-5-6.76,5.62,5.62,0,0,0-6.2,5.24c-.16,1.46-34.93,352-158.83,651.57Q3417.85,1269.9,3422.24,1274.14Z" transform="translate(-209.28 -288.47)"/><path class="i" d="M3360.75,954.57c16.42,65.65,60.5,340.75,85.39,497.72l-47.33,26.88-85.64-17.91c-86.27-158.55-160-346.71-174.85-482.76C3112.28,739.81,3303.13,724.16,3360.75,954.57Z" transform="translate(-209.28 -288.47)"/><path class="j" d="M3394.58,1478.28C3254.24,1218.61,3224.11,861.3,3224,860a4.29,4.29,0,0,1,4.28-4.71,5.09,5.09,0,0,1,5.08,4.57c.12,1.29,29.78,352.89,166.83,609.9l-1.37,9.42Z" transform="translate(-209.28 -288.47)"/><path class="l" d="M3686.89,1447.56v17.54c0,7.44-8.91,13.45-19.93,13.45H3172.12v-31c0-17.87,21.48-32.38,48-32.38h418.85C3665.41,1415.18,3686.89,1429.69,3686.89,1447.56Z" transform="translate(-209.28 -288.47)"/><path class="m" d="M3661.61,1478.55l-4.65,26.78-61.87,356.87H3592c-14.81,10.28-80.89,18-160.17,18-33.31,0-64.3-1.37-90.12-3.72-7.65-.71-14.84-1.48-21.51-2.32-31.84-4.1-51.7-9.92-51.7-16.37,0-1.51,1.12-3,3.14-4.4l-69.41-374.88Z" transform="translate(-209.28 -288.47)"/><path class="m" d="M3686.89,1447.56v17.54c0,7.44-8.91,13.45-19.93,13.45h-5.35l-4.65,26.78s-314.48,91.6-336.81,368.84v0c-31.84-4.1-51.7-9.92-51.7-16.37,0-1.51,1.12-3,3.14-4.4l-69.41-374.88h-30.06v-31c0-17.87,21.48-32.38,48-32.38h418.85C3665.41,1415.18,3686.89,1429.69,3686.89,1447.56Z" transform="translate(-209.28 -288.47)"/><path class="c" d="M869.76,638.09,835.42,1680.47a33.47,33.47,0,0,0,33.1,34.56l2383.61,24.46,19.26-1108.9-2356-36A44.94,44.94,0,0,0,869.76,638.09Z" transform="translate(-209.28 -288.47)"/><path class="g" d="M1051.23,729.81,943.6,727.23c-12.17-.29-21.79-10.11-21.48-21.94l1.34-51c.31-11.82,10.44-21.17,22.61-20.88L1053.7,636c12.18.3,21.8,10.12,21.48,21.94l-1.34,51C1073.53,720.75,1063.41,730.1,1051.23,729.81Z" transform="translate(-209.28 -288.47)"/><path class="n" d="M1054.05,721.75l-107.63-2.58c-12.18-.29-21.79-10.11-21.48-21.93l1.34-51a21.79,21.79,0,0,1,.28-2.17,20.81,20.81,0,0,0-3.1,10.22l-1.34,51c-.31,11.82,9.31,21.63,21.48,21.93l107.63,2.58a21.81,21.81,0,0,0,22.33-18.71A22.11,22.11,0,0,1,1054.05,721.75Z" transform="translate(-209.28 -288.47)"/><path class="g" d="M1226.37,734.43l-107.63-2.58c-12.18-.29-21.79-10.11-21.48-21.93l1.34-51c.31-11.82,10.43-21.17,22.61-20.88l107.63,2.58c12.17.29,21.79,10.11,21.48,21.93l-1.34,51C1248.67,725.38,1238.55,734.72,1226.37,734.43Z" transform="translate(-209.28 -288.47)"/><path class="n" d="M1229.19,726.38l-107.63-2.58c-12.18-.29-21.8-10.11-21.49-21.93l1.35-51a19.68,19.68,0,0,1,.28-2.18,20.74,20.74,0,0,0-3.1,10.23l-1.34,51c-.31,11.82,9.3,21.64,21.48,21.93l107.63,2.58a21.81,21.81,0,0,0,22.33-18.7A22.13,22.13,0,0,1,1229.19,726.38Z" transform="translate(-209.28 -288.47)"/><path class="g" d="M1411,737.41l-107.63-2.58c-12.17-.29-21.79-10.11-21.48-21.93l1.34-51c.31-11.82,10.44-21.17,22.61-20.88l107.63,2.58c12.18.29,21.8,10.11,21.48,21.93l-1.34,51C1433.25,728.36,1423.13,737.7,1411,737.41Z" transform="translate(-209.28 -288.47)"/><path class="n" d="M1413.77,729.36l-107.63-2.58c-12.18-.29-21.79-10.11-21.48-21.93l1.34-51c0-.75.19-1.45.28-2.18a20.88,20.88,0,0,0-3.1,10.23l-1.34,51c-.31,11.82,9.31,21.64,21.48,21.93L1411,737.41a21.79,21.79,0,0,0,22.33-18.7A22.13,22.13,0,0,1,1413.77,729.36Z" transform="translate(-209.28 -288.47)"/><path class="g" d="M1586.09,742l-107.63-2.58c-12.18-.29-21.79-10.11-21.48-21.93l1.34-51c.31-11.82,10.43-21.16,22.61-20.87l107.63,2.58c12.17.29,21.79,10.11,21.48,21.93l-1.34,51C1608.39,733,1598.27,742.33,1586.09,742Z" transform="translate(-209.28 -288.47)"/><path d="M1588.91,734l-107.63-2.58c-12.18-.29-21.8-10.11-21.49-21.93l1.35-51a17.4,17.4,0,0,1,.28-2.17,20.71,20.71,0,0,0-3.1,10.22l-1.34,51c-.31,11.82,9.3,21.64,21.48,21.93L1586.09,742a21.82,21.82,0,0,0,22.33-18.7A22.13,22.13,0,0,1,1588.91,734Z" transform="translate(-209.28 -288.47)"/><path class="g" d="M1768.92,737.44l-107.63-2.58c-12.18-.3-21.8-10.11-21.49-21.94l1.35-51c.31-11.82,10.43-21.17,22.6-20.88l107.64,2.58c12.17.3,21.79,10.12,21.48,21.94l-1.34,51C1791.22,728.38,1781.09,737.73,1768.92,737.44Z" transform="translate(-209.28 -288.47)"/><path class="o" d="M1771.73,729.38,1664.1,726.8c-12.17-.29-21.79-10.11-21.48-21.93l1.34-51a19.69,19.69,0,0,1,.29-2.18,20.67,20.67,0,0,0-3.1,10.23l-1.35,51c-.31,11.83,9.31,21.64,21.49,21.94l107.63,2.58a21.81,21.81,0,0,0,22.32-18.71A22.11,22.11,0,0,1,1771.73,729.38Z" transform="translate(-209.28 -288.47)"/><path class="g" d="M1944.05,742.06l-107.63-2.58c-12.17-.29-21.79-10.11-21.48-21.93l1.34-51c.31-11.83,10.44-21.17,22.61-20.88l107.63,2.58c12.18.29,21.8,10.11,21.48,21.93l-1.34,51C1966.35,733,1956.23,742.35,1944.05,742.06Z" transform="translate(-209.28 -288.47)"/><path class="o" d="M1946.87,734l-107.63-2.58c-12.18-.29-21.79-10.11-21.48-21.93l1.34-51c0-.74.19-1.44.28-2.17a20.85,20.85,0,0,0-3.1,10.23l-1.34,51c-.31,11.82,9.31,21.64,21.48,21.93l107.63,2.58a21.81,21.81,0,0,0,22.33-18.7A22.13,22.13,0,0,1,1946.87,734Z" transform="translate(-209.28 -288.47)"/><path class="g" d="M2131,748.9l-107.63-2.58c-12.18-.29-21.8-10.11-21.49-21.93l1.35-51c.31-11.82,10.43-21.16,22.6-20.87l107.64,2.58c12.17.29,21.79,10.11,21.48,21.93l-1.34,51C2153.28,739.84,2143.15,749.19,2131,748.9Z" transform="translate(-209.28 -288.47)"/><path d="M2133.79,740.85l-107.63-2.58c-12.17-.3-21.79-10.11-21.48-21.94l1.34-51a19.2,19.2,0,0,1,.29-2.17,20.6,20.6,0,0,0-3.1,10.22l-1.35,51c-.31,11.82,9.31,21.64,21.49,21.93L2131,748.9a21.81,21.81,0,0,0,22.32-18.71A22.11,22.11,0,0,1,2133.79,740.85Z" transform="translate(-209.28 -288.47)"/><path class="g" d="M2313.8,744.29l-107.63-2.58c-12.17-.29-21.79-10.11-21.48-21.93l1.34-51c.31-11.82,10.44-21.17,22.61-20.88l107.63,2.58c12.18.29,21.8,10.11,21.48,21.93l-1.34,51C2336.1,735.24,2326,744.59,2313.8,744.29Z" transform="translate(-209.28 -288.47)"/><path d="M2316.62,736.24,2209,733.66c-12.18-.29-21.79-10.11-21.48-21.93l1.34-51c0-.75.19-1.45.28-2.18a20.88,20.88,0,0,0-3.1,10.23l-1.34,51c-.31,11.82,9.31,21.64,21.48,21.93l107.63,2.58a21.79,21.79,0,0,0,22.33-18.7A22.13,22.13,0,0,1,2316.62,736.24Z" transform="translate(-209.28 -288.47)"/><path class="g" d="M2488.94,748.92l-107.63-2.58c-12.18-.29-21.79-10.11-21.48-21.93l1.34-51c.31-11.83,10.43-21.17,22.61-20.88l107.63,2.58c12.17.29,21.79,10.11,21.48,21.93l-1.34,51C2511.24,739.87,2501.12,749.21,2488.94,748.92Z" transform="translate(-209.28 -288.47)"/><path d="M2491.76,740.87l-107.63-2.58c-12.18-.29-21.8-10.11-21.49-21.93l1.35-51a19.81,19.81,0,0,1,.28-2.17,20.71,20.71,0,0,0-3.1,10.23l-1.34,51c-.31,11.82,9.3,21.64,21.48,21.93l107.63,2.58a21.82,21.82,0,0,0,22.33-18.7A22.13,22.13,0,0,1,2491.76,740.87Z" transform="translate(-209.28 -288.47)"/><path class="g" d="M2732.63,752.58,2625,750c-12.18-.29-21.79-10.11-21.48-21.93l1.34-51c.31-11.82,10.43-21.16,22.61-20.87l107.63,2.58c12.17.29,21.79,10.11,21.48,21.93l-1.34,51C2754.93,743.52,2744.81,752.87,2732.63,752.58Z" transform="translate(-209.28 -288.47)"/><path d="M2735.45,744.53,2627.82,742c-12.18-.29-21.8-10.11-21.49-21.93l1.35-51a17.4,17.4,0,0,1,.28-2.17,20.71,20.71,0,0,0-3.1,10.22l-1.34,51c-.31,11.82,9.3,21.64,21.48,21.93l107.63,2.58a21.82,21.82,0,0,0,22.33-18.7A22.13,22.13,0,0,1,2735.45,744.53Z" transform="translate(-209.28 -288.47)"/><path class="g" d="M2915.46,748l-107.63-2.58c-12.18-.3-21.8-10.11-21.49-21.94l1.35-51c.31-11.82,10.43-21.17,22.6-20.88l107.64,2.58c12.17.3,21.79,10.11,21.48,21.94l-1.34,51C2937.75,738.92,2927.63,748.27,2915.46,748Z" transform="translate(-209.28 -288.47)"/><path d="M2918.27,739.92l-107.63-2.58c-12.17-.29-21.79-10.11-21.48-21.93l1.34-51a19.2,19.2,0,0,1,.29-2.17,20.71,20.71,0,0,0-3.1,10.22l-1.35,51c-.31,11.83,9.31,21.64,21.49,21.94L2915.46,748a21.81,21.81,0,0,0,22.32-18.71A22.11,22.11,0,0,1,2918.27,739.92Z" transform="translate(-209.28 -288.47)"/><path class="g" d="M3090.59,752.6,2983,750c-12.17-.29-21.79-10.11-21.48-21.93l1.34-51c.31-11.82,10.44-21.17,22.61-20.88l107.63,2.58c12.18.29,21.8,10.11,21.48,21.93l-1.34,51C3112.89,743.55,3102.77,752.89,3090.59,752.6Z" transform="translate(-209.28 -288.47)"/><path d="M3093.41,744.55,2985.78,742c-12.18-.29-21.79-10.11-21.48-21.93l1.34-51c0-.74.19-1.44.28-2.17a20.85,20.85,0,0,0-3.1,10.23l-1.34,51c-.31,11.82,9.31,21.64,21.48,21.93l107.63,2.58a21.81,21.81,0,0,0,22.33-18.7A22.13,22.13,0,0,1,3093.41,744.55Z" transform="translate(-209.28 -288.47)"/><path class="g" d="M1042.14,923.07l-93.28-1.52c-19.93-.32-35.81-16.28-35.45-35.63l1.64-90.57c.35-19.35,16.8-34.77,36.73-34.45l93.28,1.52c19.93.32,35.8,16.27,35.45,35.63l-1.64,90.56C1078.51,908,1062.07,923.39,1042.14,923.07Z" transform="translate(-209.28 -288.47)"/><path class="o" d="M1045.89,912.33l-93.28-1.52c-19.93-.32-35.8-16.27-35.45-35.62l1.65-90.57a32.8,32.8,0,0,1,.62-5.08,33.93,33.93,0,0,0-4.38,15.81l-1.64,90.57c-.36,19.35,15.52,35.3,35.45,35.63l93.28,1.52c18.14.29,33.24-12.5,36.11-29.38A36.17,36.17,0,0,1,1045.89,912.33Z" transform="translate(-209.28 -288.47)"/><path class="g" d="M1228,920.43l-93.27-1.51c-19.94-.33-35.81-16.28-35.46-35.63l1.65-90.57c.35-19.35,16.79-34.78,36.72-34.45l93.28,1.52c19.93.32,35.81,16.27,35.45,35.62L1264.68,886C1264.33,905.33,1247.89,920.76,1228,920.43Z" transform="translate(-209.28 -288.47)"/><path class="n" d="M1231.71,909.7l-93.28-1.52c-19.93-.32-35.8-16.28-35.45-35.63l1.64-90.57a33.93,33.93,0,0,1,.62-5.07,33.89,33.89,0,0,0-4.37,15.81l-1.65,90.57c-.35,19.35,15.52,35.3,35.46,35.63l93.27,1.51c18.14.3,33.25-12.49,36.11-29.37A36.16,36.16,0,0,1,1231.71,909.7Z" transform="translate(-209.28 -288.47)"/><path class="g" d="M1412.83,920.5,1319.55,919c-19.93-.33-35.81-16.28-35.45-35.63l1.64-90.57c.35-19.35,16.79-34.78,36.73-34.45l93.28,1.52c19.93.32,35.8,16.27,35.45,35.62L1449.55,886C1449.2,905.39,1432.76,920.82,1412.83,920.5Z" transform="translate(-209.28 -288.47)"/><path class="o" d="M1416.58,909.76l-93.28-1.52c-19.93-.32-35.8-16.27-35.45-35.63L1289.5,782a32.67,32.67,0,0,1,.62-5.07,33.78,33.78,0,0,0-4.38,15.81l-1.64,90.57c-.36,19.35,15.52,35.3,35.45,35.63l93.28,1.52c18.14.29,33.24-12.5,36.11-29.38A36.17,36.17,0,0,1,1416.58,909.76Z" transform="translate(-209.28 -288.47)"/><path class="g" d="M1598.1,919.42l-93.28-1.52c-19.93-.33-35.8-16.28-35.45-35.63L1471,791.7c.35-19.35,16.8-34.78,36.73-34.45l93.28,1.52c19.93.32,35.8,16.27,35.45,35.62L1634.83,885C1634.48,904.32,1618,919.74,1598.1,919.42Z" transform="translate(-209.28 -288.47)"/><path class="o" d="M1601.86,908.68l-93.28-1.52c-19.93-.32-35.81-16.27-35.46-35.63l1.65-90.56a33.9,33.9,0,0,1,.62-5.08A34,34,0,0,0,1471,791.7l-1.64,90.57c-.35,19.35,15.52,35.3,35.45,35.63l93.28,1.52c18.14.29,33.24-12.5,36.11-29.38A36.17,36.17,0,0,1,1601.86,908.68Z" transform="translate(-209.28 -288.47)"/><path class="g" d="M1783.38,918.64l-93.28-1.52c-19.93-.32-35.8-16.27-35.45-35.63l1.64-90.57c.35-19.35,16.8-34.77,36.73-34.45L1786.3,758c19.93.32,35.8,16.27,35.45,35.63l-1.64,90.57C1819.76,903.54,1803.31,919,1783.38,918.64Z" transform="translate(-209.28 -288.47)"/><path class="o" d="M1787.14,907.9l-93.28-1.51c-19.93-.33-35.81-16.28-35.45-35.63l1.64-90.57a34.06,34.06,0,0,1,.62-5.08,34.05,34.05,0,0,0-4.38,15.81l-1.64,90.57c-.35,19.35,15.52,35.31,35.45,35.63l93.28,1.52c18.14.29,33.25-12.5,36.11-29.38A36.17,36.17,0,0,1,1787.14,907.9Z" transform="translate(-209.28 -288.47)"/><path class="g" d="M1967.3,921.37,1874,919.85c-19.93-.32-35.8-16.27-35.45-35.63l1.64-90.57c.36-19.35,16.8-34.77,36.73-34.45l93.28,1.52c19.93.32,35.81,16.27,35.45,35.63L2004,886.91C2003.68,906.27,1987.23,921.69,1967.3,921.37Z" transform="translate(-209.28 -288.47)"/><path class="o" d="M1971.06,910.63l-93.28-1.52c-19.93-.32-35.81-16.27-35.45-35.62l1.64-90.57a34.06,34.06,0,0,1,.62-5.08,34.05,34.05,0,0,0-4.38,15.81l-1.64,90.57c-.35,19.35,15.52,35.31,35.45,35.63l93.28,1.52c18.14.29,33.25-12.5,36.11-29.38A36.17,36.17,0,0,1,1971.06,910.63Z" transform="translate(-209.28 -288.47)"/><path class="g" d="M1414.12,1108.85l-93.28-1.51c-19.93-.33-35.8-16.28-35.45-35.63l1.64-90.57c.35-19.35,16.8-34.78,36.73-34.45L1417,948.2c19.93.33,35.8,16.28,35.45,35.63l-1.64,90.57C1450.49,1093.75,1434.05,1109.18,1414.12,1108.85Z" transform="translate(-209.28 -288.47)"/><path class="o" d="M1417.88,1098.12l-93.28-1.52c-19.93-.32-35.81-16.28-35.46-35.63l1.65-90.57a33.93,33.93,0,0,1,.62-5.07,34,34,0,0,0-4.38,15.81l-1.64,90.57c-.35,19.35,15.52,35.3,35.45,35.63l93.28,1.51c18.14.3,33.24-12.5,36.11-29.38A36.18,36.18,0,0,1,1417.88,1098.12Z" transform="translate(-209.28 -288.47)"/><path class="g" d="M1599.39,1107.77l-93.28-1.51c-19.93-.33-35.8-16.28-35.45-35.63l1.64-90.57c.36-19.35,16.8-34.78,36.73-34.45l93.28,1.51c19.93.33,35.81,16.28,35.45,35.63l-1.64,90.57C1635.77,1092.67,1619.32,1108.1,1599.39,1107.77Z" transform="translate(-209.28 -288.47)"/><path class="o" d="M1603.15,1097l-93.28-1.52c-19.93-.32-35.81-16.28-35.45-35.63l1.64-90.57a33.93,33.93,0,0,1,.62-5.07,34,34,0,0,0-4.38,15.81l-1.64,90.57c-.35,19.35,15.52,35.3,35.45,35.63l93.28,1.51c18.14.3,33.25-12.49,36.11-29.38A36.16,36.16,0,0,1,1603.15,1097Z" transform="translate(-209.28 -288.47)"/><path class="g" d="M1784.67,1107l-93.28-1.52c-19.93-.33-35.8-16.28-35.45-35.63l1.65-90.57c.35-19.35,16.79-34.78,36.72-34.45l93.28,1.52c19.93.32,35.81,16.27,35.46,35.63l-1.65,90.56C1821.05,1091.9,1804.61,1107.32,1784.67,1107Z" transform="translate(-209.28 -288.47)"/><path class="o" d="M1788.43,1096.26l-93.28-1.52c-19.93-.32-35.8-16.27-35.45-35.63l1.64-90.56a34.06,34.06,0,0,1,.62-5.08,33.89,33.89,0,0,0-4.37,15.81l-1.65,90.57c-.35,19.35,15.52,35.3,35.45,35.63l93.28,1.52c18.14.29,33.25-12.5,36.11-29.38A36.17,36.17,0,0,1,1788.43,1096.26Z" transform="translate(-209.28 -288.47)"/><path class="g" d="M1968.6,1109.73l-93.28-1.52c-19.94-.33-35.81-16.28-35.46-35.63l1.65-90.57c.35-19.35,16.79-34.78,36.72-34.45l93.28,1.52c19.93.32,35.81,16.27,35.46,35.62l-1.65,90.57C2005,1094.63,1988.53,1110.05,1968.6,1109.73Z" transform="translate(-209.28 -288.47)"/><path class="o" d="M1972.35,1099l-93.28-1.52c-19.93-.32-35.8-16.27-35.45-35.63l1.64-90.56a33.9,33.9,0,0,1,.62-5.08,33.89,33.89,0,0,0-4.37,15.81l-1.65,90.57c-.35,19.35,15.52,35.3,35.46,35.63l93.28,1.52c18.13.29,33.24-12.5,36.1-29.38A36.16,36.16,0,0,1,1972.35,1099Z" transform="translate(-209.28 -288.47)"/><path class="g" d="M1421.79,1286.61l-93.27-1.52c-19.94-.33-35.81-16.28-35.46-35.63l1.65-90.57c.35-19.35,16.79-34.78,36.72-34.45l93.28,1.52c19.93.32,35.81,16.27,35.46,35.62l-1.65,90.57C1458.17,1271.5,1441.73,1286.93,1421.79,1286.61Z" transform="translate(-209.28 -288.47)"/><path class="o" d="M1425.55,1275.87l-93.28-1.52c-19.93-.32-35.8-16.27-35.45-35.63l1.64-90.56a33.9,33.9,0,0,1,.62-5.08,33.89,33.89,0,0,0-4.37,15.81l-1.65,90.57c-.35,19.35,15.52,35.3,35.46,35.63l93.27,1.52c18.14.29,33.25-12.5,36.11-29.38A36.16,36.16,0,0,1,1425.55,1275.87Z" transform="translate(-209.28 -288.47)"/><path class="g" d="M1039.63,1458.83l-93.28-1.51c-19.93-.33-35.8-16.28-35.45-35.63l1.64-90.57c.35-19.35,16.8-34.78,36.73-34.45l93.28,1.51c19.93.33,35.8,16.28,35.45,35.63l-1.64,90.57C1076,1443.73,1059.56,1459.16,1039.63,1458.83Z" transform="translate(-209.28 -288.47)"/><path d="M1043.39,1448.1l-93.28-1.52c-19.93-.32-35.81-16.28-35.46-35.63l1.65-90.56a33.9,33.9,0,0,1,.62-5.08,34,34,0,0,0-4.38,15.81l-1.64,90.57c-.35,19.35,15.52,35.3,35.45,35.63l93.28,1.51c18.14.3,33.24-12.49,36.11-29.38A36.16,36.16,0,0,1,1043.39,1448.1Z" transform="translate(-209.28 -288.47)"/><path class="g" d="M1607.07,1285.53l-93.28-1.52c-19.93-.33-35.81-16.28-35.46-35.63l1.65-90.57c.35-19.35,16.79-34.77,36.73-34.45l93.28,1.52c19.93.32,35.8,16.27,35.45,35.62l-1.65,90.57C1643.44,1270.43,1627,1285.85,1607.07,1285.53Z" transform="translate(-209.28 -288.47)"/><path class="o" d="M1610.82,1274.79l-93.28-1.52c-19.93-.32-35.8-16.27-35.45-35.63l1.64-90.56a35.26,35.26,0,0,1,.62-5.08,33.89,33.89,0,0,0-4.37,15.81l-1.64,90.57c-.36,19.35,15.52,35.3,35.45,35.63l93.28,1.52c18.14.29,33.24-12.5,36.1-29.38A36.16,36.16,0,0,1,1610.82,1274.79Z" transform="translate(-209.28 -288.47)"/><path class="g" d="M1792.35,1284.75l-93.28-1.52c-19.93-.32-35.81-16.27-35.45-35.63l1.64-90.57c.35-19.35,16.8-34.77,36.73-34.45l93.28,1.52c19.93.32,35.8,16.27,35.45,35.63l-1.64,90.57C1828.72,1269.65,1812.28,1285.07,1792.35,1284.75Z" transform="translate(-209.28 -288.47)"/><path class="o" d="M1796.1,1274l-93.28-1.51c-19.93-.33-35.8-16.28-35.45-35.63l1.65-90.57a32.8,32.8,0,0,1,.62-5.08,33.93,33.93,0,0,0-4.38,15.81l-1.64,90.57c-.36,19.35,15.52,35.31,35.45,35.63l93.28,1.52c18.14.29,33.24-12.5,36.11-29.38A36.17,36.17,0,0,1,1796.1,1274Z" transform="translate(-209.28 -288.47)"/><path class="g" d="M1976.27,1287.48,1883,1286c-19.93-.32-35.81-16.27-35.45-35.63l1.64-90.57c.35-19.35,16.8-34.77,36.73-34.45l93.28,1.52c19.93.32,35.8,16.27,35.45,35.63L2013,1253C2012.64,1272.38,1996.2,1287.8,1976.27,1287.48Z" transform="translate(-209.28 -288.47)"/><path class="o" d="M1980,1276.74l-93.27-1.51c-19.94-.33-35.81-16.28-35.46-35.63l1.65-90.57a32.8,32.8,0,0,1,.62-5.08,33.93,33.93,0,0,0-4.38,15.81l-1.64,90.57c-.35,19.35,15.52,35.31,35.45,35.63l93.28,1.52c18.14.29,33.24-12.5,36.11-29.38A36.17,36.17,0,0,1,1980,1276.74Z" transform="translate(-209.28 -288.47)"/><path class="g" d="M2727.5,938.79l-93.28-1.52c-19.93-.32-35.81-16.27-35.46-35.63l1.65-90.56c.35-19.36,16.79-34.78,36.73-34.46l93.27,1.52c19.94.33,35.81,16.28,35.46,35.63l-1.65,90.57C2763.87,923.69,2747.43,939.11,2727.5,938.79Z" transform="translate(-209.28 -288.47)"/><path d="M2731.25,928.05,2638,926.54c-19.93-.33-35.8-16.28-35.45-35.63l1.64-90.57a35.29,35.29,0,0,1,.62-5.07,33.86,33.86,0,0,0-4.37,15.81l-1.65,90.56c-.35,19.36,15.53,35.31,35.46,35.63l93.28,1.52c18.13.3,33.24-12.5,36.1-29.38A36.16,36.16,0,0,1,2731.25,928.05Z" transform="translate(-209.28 -288.47)"/><path class="g" d="M2912.78,938l-93.28-1.51c-19.93-.33-35.81-16.28-35.45-35.63l1.64-90.57c.35-19.35,16.79-34.78,36.73-34.46l93.28,1.52c19.93.33,35.8,16.28,35.45,35.63l-1.65,90.57C2949.15,922.91,2932.71,938.34,2912.78,938Z" transform="translate(-209.28 -288.47)"/><path d="M2916.53,927.28l-93.28-1.52c-19.93-.33-35.8-16.28-35.45-35.63l1.65-90.57a32.67,32.67,0,0,1,.62-5.07,33.75,33.75,0,0,0-4.38,15.81l-1.64,90.57c-.36,19.35,15.52,35.3,35.45,35.63l93.28,1.51c18.14.3,33.24-12.5,36.1-29.38A36.17,36.17,0,0,1,2916.53,927.28Z" transform="translate(-209.28 -288.47)"/><path class="g" d="M3096.7,940.74l-93.28-1.52c-19.93-.32-35.81-16.27-35.45-35.62l1.64-90.57c.35-19.35,16.79-34.78,36.73-34.46l93.28,1.52c19.93.33,35.8,16.28,35.45,35.63l-1.65,90.57C3133.07,925.64,3116.63,941.07,3096.7,940.74Z" transform="translate(-209.28 -288.47)"/><path d="M3100.45,930l-93.27-1.52c-19.94-.33-35.81-16.28-35.46-35.63l1.65-90.57a32.67,32.67,0,0,1,.62-5.07,33.75,33.75,0,0,0-4.38,15.81L2968,903.6c-.36,19.35,15.52,35.3,35.45,35.62l93.28,1.52c18.14.3,33.24-12.5,36.1-29.38A36.17,36.17,0,0,1,3100.45,930Z" transform="translate(-209.28 -288.47)"/><path class="g" d="M2735.17,1116.54l-93.28-1.52c-19.93-.32-35.8-16.27-35.45-35.62l1.64-90.57c.35-19.35,16.8-34.78,36.73-34.46l93.28,1.52c19.93.33,35.8,16.28,35.45,35.63l-1.64,90.57C2771.55,1101.44,2755.1,1116.87,2735.17,1116.54Z" transform="translate(-209.28 -288.47)"/><path d="M2738.93,1105.81l-93.28-1.52c-19.93-.33-35.81-16.28-35.46-35.63l1.65-90.57a33.93,33.93,0,0,1,.62-5.07,34,34,0,0,0-4.38,15.81l-1.64,90.57c-.35,19.35,15.52,35.3,35.45,35.62l93.28,1.52c18.14.3,33.24-12.5,36.11-29.38A36.18,36.18,0,0,1,2738.93,1105.81Z" transform="translate(-209.28 -288.47)"/><path class="g" d="M2920.45,1115.76l-93.28-1.51c-19.93-.33-35.8-16.28-35.45-35.63l1.64-90.57c.36-19.35,16.8-34.78,36.73-34.45l93.28,1.51c19.93.33,35.8,16.28,35.45,35.63l-1.64,90.57C2956.83,1100.66,2940.38,1116.09,2920.45,1115.76Z" transform="translate(-209.28 -288.47)"/><path d="M2924.21,1105l-93.28-1.52c-19.93-.32-35.81-16.28-35.45-35.63l1.64-90.57a33.93,33.93,0,0,1,.62-5.07,34,34,0,0,0-4.38,15.81l-1.64,90.57c-.35,19.35,15.52,35.3,35.45,35.63l93.28,1.51c18.14.3,33.25-12.49,36.11-29.38A36.16,36.16,0,0,1,2924.21,1105Z" transform="translate(-209.28 -288.47)"/><path class="g" d="M3104.37,1118.49l-93.28-1.51c-19.93-.33-35.8-16.28-35.45-35.63l1.65-90.57c.35-19.35,16.79-34.78,36.72-34.45l93.28,1.52c19.93.32,35.81,16.27,35.45,35.62L3141.1,1084C3140.75,1103.39,3124.3,1118.82,3104.37,1118.49Z" transform="translate(-209.28 -288.47)"/><path d="M3108.13,1107.76l-93.28-1.52c-19.93-.32-35.81-16.28-35.45-35.63L2981,980a33.93,33.93,0,0,1,.62-5.07,34,34,0,0,0-4.38,15.81l-1.64,90.57c-.35,19.35,15.52,35.3,35.45,35.63l93.28,1.51c18.14.3,33.25-12.49,36.11-29.38A36.16,36.16,0,0,1,3108.13,1107.76Z" transform="translate(-209.28 -288.47)"/><path class="g" d="M2167.43,922l-93.26-2.15c-19.93-.46-35.69-16.52-35.2-35.87l2.29-90.55c.49-19.35,17-34.67,37-34.21l93.26,2.15c19.93.46,35.69,16.52,35.2,35.87l-2.29,90.55C2203.92,907.09,2187.36,922.41,2167.43,922Z" transform="translate(-209.28 -288.47)"/><path d="M2171.27,911.24,2078,909.09c-19.93-.46-35.69-16.52-35.2-35.87l2.3-90.55a33.78,33.78,0,0,1,.65-5.07,34,34,0,0,0-4.49,15.78L2039,883.93c-.49,19.35,15.27,35.41,35.2,35.87l93.26,2.15c18.14.42,33.34-12.28,36.32-29.14A36.19,36.19,0,0,1,2171.27,911.24Z" transform="translate(-209.28 -288.47)"/><path class="g" d="M2167.38,1110.31l-93.27-2.15c-19.93-.46-35.69-16.51-35.2-35.86l2.3-90.56c.49-19.35,17-34.66,37-34.2l93.26,2.14c19.93.46,35.69,16.52,35.2,35.87l-2.29,90.56C2203.86,1095.46,2187.31,1110.77,2167.38,1110.31Z" transform="translate(-209.28 -288.47)"/><path d="M2171.21,1099.6l-93.27-2.15c-19.93-.46-35.68-16.52-35.19-35.86L2045,971a32.7,32.7,0,0,1,.66-5.07,33.81,33.81,0,0,0-4.49,15.78l-2.3,90.56c-.49,19.34,15.27,35.4,35.2,35.86l93.27,2.15c18.13.42,33.33-12.27,36.31-29.14A36.18,36.18,0,0,1,2171.21,1099.6Z" transform="translate(-209.28 -288.47)"/><path class="g" d="M2352.66,1110.79l-93.27-2.15c-19.93-.46-35.69-16.52-35.2-35.87l2.3-90.55c.49-19.35,17-34.67,37-34.21l93.27,2.15c19.93.46,35.68,16.52,35.19,35.86l-2.29,90.56C2389.14,1095.93,2372.59,1111.24,2352.66,1110.79Z" transform="translate(-209.28 -288.47)"/><path d="M2356.49,1100.07l-93.27-2.14c-19.92-.46-35.68-16.52-35.19-35.87l2.29-90.56a32.42,32.42,0,0,1,.66-5.06,33.77,33.77,0,0,0-4.49,15.77l-2.29,90.56c-.5,19.35,15.26,35.41,35.19,35.87l93.27,2.14c18.13.42,33.33-12.27,36.31-29.13A36.15,36.15,0,0,1,2356.49,1100.07Z" transform="translate(-209.28 -288.47)"/><path class="g" d="M2173.78,1288.11l-93.27-2.15c-19.93-.45-35.69-16.51-35.19-35.86l2.29-90.56c.49-19.35,17-34.66,37-34.2l93.27,2.14c19.92.46,35.68,16.52,35.19,35.87l-2.29,90.56C2210.26,1273.26,2193.71,1288.57,2173.78,1288.11Z" transform="translate(-209.28 -288.47)"/><path d="M2177.61,1277.4l-93.27-2.15c-19.92-.46-35.68-16.51-35.19-35.86l2.29-90.56a32.7,32.7,0,0,1,.66-5.07,33.81,33.81,0,0,0-4.49,15.78l-2.29,90.56c-.5,19.35,15.26,35.4,35.19,35.86l93.27,2.15c18.13.42,33.33-12.27,36.31-29.13A36.19,36.19,0,0,1,2177.61,1277.4Z" transform="translate(-209.28 -288.47)"/><path class="g" d="M1235,1468.77l-93.28-1.51c-19.93-.33-35.8-16.28-35.45-35.63l1.65-90.57c.35-19.35,16.79-34.78,36.72-34.45l93.28,1.52c19.93.32,35.81,16.27,35.45,35.62l-1.64,90.57C1271.37,1453.67,1254.93,1469.1,1235,1468.77Z" transform="translate(-209.28 -288.47)"/><path d="M1238.75,1458l-93.28-1.52c-19.93-.32-35.81-16.28-35.45-35.63l1.64-90.57a33.93,33.93,0,0,1,.62-5.07,33.89,33.89,0,0,0-4.37,15.81l-1.65,90.57c-.35,19.35,15.52,35.3,35.45,35.63l93.28,1.51c18.14.3,33.25-12.49,36.11-29.38A36.16,36.16,0,0,1,1238.75,1458Z" transform="translate(-209.28 -288.47)"/><path class="g" d="M1420.26,1467.7l-93.27-1.52c-19.94-.33-35.81-16.28-35.46-35.63l1.65-90.57c.35-19.35,16.79-34.78,36.72-34.45l93.28,1.52c19.93.32,35.81,16.27,35.46,35.62l-1.65,90.57C1456.64,1452.59,1440.2,1468,1420.26,1467.7Z" transform="translate(-209.28 -288.47)"/><path d="M1424,1457l-93.28-1.52c-19.93-.32-35.8-16.27-35.45-35.63l1.64-90.57a33.93,33.93,0,0,1,.62-5.07,33.89,33.89,0,0,0-4.37,15.81l-1.65,90.57c-.35,19.35,15.52,35.3,35.46,35.63l93.28,1.52c18.13.29,33.24-12.5,36.1-29.38A36.16,36.16,0,0,1,1424,1457Z" transform="translate(-209.28 -288.47)"/><path class="g" d="M1378.21,1656.06l-77.44-2.6c-25.11-.85-44.75-21.3-43.86-45.68l2.33-63.67c.9-24.75,22.31-44.12,47.8-43.27l76.75,2.58c16.68.56,901.21,9.09,1112.19,11.12,24.65.24,44.16,20.11,43.36,44l-2,60.48c-.78,23.09-20.25,41.4-44,41.32C2286.21,1659.67,1395,1656.62,1378.21,1656.06Z" transform="translate(-209.28 -288.47)"/><path d="M2498.46,1645.51c-207.05-.71-1098.31-3.75-1115-4.32l-77.44-2.6c-25.11-.84-44.75-21.29-43.86-45.68l2.33-63.66a44.74,44.74,0,0,1,.73-5.21,43.52,43.52,0,0,0-5.93,20.08l-2.33,63.66c-.89,24.38,18.75,44.83,43.86,45.68l77.44,2.6c16.74.56,908,3.61,1115.05,4.31,22.13.08,40.31-15.83,43.4-36.62A44,44,0,0,1,2498.46,1645.51Z" transform="translate(-209.28 -288.47)"/><path class="g" d="M1605.55,1466.92l-93.28-1.52c-19.93-.32-35.81-16.28-35.46-35.63l1.65-90.57c.35-19.35,16.79-34.77,36.72-34.45l93.28,1.52c19.94.32,35.81,16.27,35.46,35.63l-1.65,90.56C1641.92,1451.82,1625.48,1467.24,1605.55,1466.92Z" transform="translate(-209.28 -288.47)"/><path d="M1609.3,1456.18l-93.28-1.52c-19.93-.32-35.8-16.27-35.45-35.62l1.64-90.57a35.43,35.43,0,0,1,.62-5.08,33.92,33.92,0,0,0-4.37,15.81l-1.65,90.57c-.35,19.35,15.53,35.31,35.46,35.63l93.28,1.52c18.13.29,33.24-12.5,36.1-29.38A36.16,36.16,0,0,1,1609.3,1456.18Z" transform="translate(-209.28 -288.47)"/><path class="g" d="M1789.47,1469.65l-93.28-1.52c-19.93-.32-35.81-16.28-35.46-35.63l1.65-90.57c.35-19.35,16.79-34.77,36.72-34.45l93.28,1.52c19.94.32,35.81,16.27,35.46,35.63l-1.65,90.56C1825.84,1454.55,1809.4,1470,1789.47,1469.65Z" transform="translate(-209.28 -288.47)"/><path d="M1793.22,1458.91l-93.28-1.52c-19.93-.32-35.8-16.27-35.45-35.63l1.64-90.56a35.43,35.43,0,0,1,.62-5.08,33.92,33.92,0,0,0-4.37,15.81l-1.64,90.57c-.36,19.35,15.52,35.31,35.45,35.63l93.28,1.52c18.14.29,33.24-12.5,36.1-29.38A36.16,36.16,0,0,1,1793.22,1458.91Z" transform="translate(-209.28 -288.47)"/><path class="g" d="M1987,1470.28l-93.27-2.15c-19.93-.46-35.69-16.51-35.2-35.86l2.3-90.56c.49-19.35,17-34.66,37-34.2l93.26,2.14c19.93.46,35.69,16.52,35.2,35.87l-2.29,90.56C2023.46,1455.43,2006.9,1470.74,1987,1470.28Z" transform="translate(-209.28 -288.47)"/><path d="M1990.81,1459.57l-93.27-2.15c-19.93-.46-35.68-16.51-35.19-35.86l2.29-90.56a34,34,0,0,1,.65-5.07,33.92,33.92,0,0,0-4.48,15.78l-2.3,90.56c-.49,19.35,15.27,35.4,35.2,35.86l93.27,2.15c18.13.42,33.33-12.27,36.31-29.13A36.2,36.2,0,0,1,1990.81,1459.57Z" transform="translate(-209.28 -288.47)"/><path class="g" d="M2172.26,1470.75l-93.27-2.14c-19.93-.46-35.69-16.52-35.2-35.87l2.3-90.56c.49-19.34,17-34.66,37-34.2l93.26,2.15c19.93.46,35.69,16.51,35.2,35.86l-2.29,90.56C2208.74,1455.9,2192.18,1471.21,2172.26,1470.75Z" transform="translate(-209.28 -288.47)"/><path d="M2176.09,1460l-93.27-2.14c-19.93-.46-35.68-16.52-35.19-35.87l2.29-90.56a32.7,32.7,0,0,1,.66-5.07,33.85,33.85,0,0,0-4.49,15.78l-2.3,90.56c-.49,19.35,15.27,35.41,35.2,35.87l93.27,2.14c18.13.42,33.33-12.27,36.31-29.13A36.15,36.15,0,0,1,2176.09,1460Z" transform="translate(-209.28 -288.47)"/><path class="g" d="M2911.58,1469.65l-93.28-1.52c-19.93-.33-35.8-16.28-35.45-35.63l1.64-90.57c.36-19.35,16.8-34.78,36.73-34.45l93.28,1.52c19.93.32,35.8,16.27,35.45,35.62l-1.64,90.57C2948,1454.54,2931.51,1470,2911.58,1469.65Z" transform="translate(-209.28 -288.47)"/><path d="M2915.34,1458.91l-93.28-1.52c-19.93-.32-35.81-16.27-35.45-35.63l1.64-90.56a33.9,33.9,0,0,1,.62-5.08,34,34,0,0,0-4.38,15.81l-1.64,90.57c-.35,19.35,15.52,35.3,35.45,35.63l93.28,1.52c18.14.29,33.25-12.5,36.11-29.38A36.17,36.17,0,0,1,2915.34,1458.91Z" transform="translate(-209.28 -288.47)"/><path class="g" d="M2724.78,1651.82l-93.28-1.52c-19.93-.33-35.8-16.28-35.45-35.63l1.64-90.57c.35-19.35,16.8-34.78,36.73-34.45l93.28,1.51c19.93.33,35.8,16.28,35.45,35.63l-1.64,90.57C2761.15,1636.71,2744.71,1652.14,2724.78,1651.82Z" transform="translate(-209.28 -288.47)"/><path d="M2728.54,1641.08l-93.28-1.52c-19.94-.32-35.81-16.27-35.46-35.63l1.65-90.57a32.67,32.67,0,0,1,.62-5.07,33.9,33.9,0,0,0-4.38,15.81l-1.64,90.57c-.35,19.35,15.52,35.3,35.45,35.63l93.28,1.51c18.14.3,33.24-12.49,36.11-29.37A36.17,36.17,0,0,1,2728.54,1641.08Z" transform="translate(-209.28 -288.47)"/><path class="g" d="M2922.29,1652.45,2829,1650.3c-19.93-.46-35.68-16.52-35.2-35.87l2.3-90.55c.49-19.35,17-34.67,37-34.21l93.27,2.15c19.93.46,35.68,16.52,35.19,35.87l-2.29,90.55C2958.77,1637.59,2942.22,1652.91,2922.29,1652.45Z" transform="translate(-209.28 -288.47)"/><path d="M2926.12,1641.74l-93.27-2.15c-19.92-.46-35.68-16.52-35.19-35.87l2.29-90.55a32.7,32.7,0,0,1,.66-5.07,33.93,33.93,0,0,0-4.49,15.78l-2.29,90.55c-.49,19.35,15.26,35.41,35.19,35.87l93.27,2.15c18.13.42,33.33-12.28,36.31-29.14A36.18,36.18,0,0,1,2926.12,1641.74Z" transform="translate(-209.28 -288.47)"/><path class="g" d="M3107.57,1652.92l-93.27-2.15c-19.93-.46-35.68-16.51-35.19-35.86l2.29-90.56c.49-19.35,17-34.66,37-34.2l93.27,2.14c19.93.46,35.69,16.52,35.19,35.87l-2.29,90.56C3144.05,1638.07,3127.5,1653.38,3107.57,1652.92Z" transform="translate(-209.28 -288.47)"/><path d="M3111.4,1642.21l-93.26-2.15c-19.93-.46-35.69-16.51-35.2-35.86l2.29-90.56a34,34,0,0,1,.66-5.07,33.93,33.93,0,0,0-4.49,15.78l-2.29,90.56c-.49,19.35,15.26,35.4,35.19,35.86l93.27,2.15c18.14.42,33.33-12.27,36.32-29.13A36.2,36.2,0,0,1,3111.4,1642.21Z" transform="translate(-209.28 -288.47)"/><path class="g" d="M1250.21,1075.78l1.1-90.58c.24-19.35-15.73-35.21-35.67-35.42l-250.16-6c-23.2-.66-42.57,17.06-43.27,39.58l-2.45,79c-.69,22.52,17.54,41.31,40.74,42l253.19,6.11C1233.63,1110.65,1250,1095.13,1250.21,1075.78Z" transform="translate(-209.28 -288.47)"/><path class="o" d="M1217.52,1100.08,964.12,1094c-23.22-.65-41.47-19.46-40.77-42l2.45-79.11a39.9,39.9,0,0,1,1-7.05c-2.55,5.05-7.1,10.7-7.29,16.69L917,1061.61c-.7,22.54,20.57,44.19,43.78,44.85l253.4,6.11c17.9.19,32.76-15.21,35.83-31.76A36.14,36.14,0,0,1,1217.52,1100.08Z" transform="translate(-209.28 -288.47)"/><path class="g" d="M1237.35,1249.74l1.1-90.58c.24-19.35-15.73-35.22-35.66-35.43l-244.41-4.62c-19.92-.57-36.56,14.66-37.16,34l-2.81,90.54c-.6,19.35,15.06,35.49,35,36l247.43,4.69C1220.77,1284.61,1237.12,1269.09,1237.35,1249.74Z" transform="translate(-209.28 -288.47)"/><path class="o" d="M1239.35,1253.25l1.11-91.67a32.75,32.75,0,0,0-.34-3.72l-1,81.1c-.24,19.59-16.79,35.29-37,35.08l-250.4-4.74c-17.95-.51-32.4-13.52-35-30.16l-.25,8c-.6,19.58,15.25,35.91,35.42,36.49l250.4,4.73C1222.57,1288.54,1239.11,1272.83,1239.35,1253.25Z" transform="translate(-209.28 -288.47)"/><path class="g" d="M2573.89,892.39l1.1-90.58c.23-19.35-15.74-35.21-35.67-35.43l-244.41-4.62c-19.92-.56-36.56,14.66-37.16,34l-2.81,90.54c-.6,19.35,15.07,35.49,35,36.06l247.44,4.68C2557.3,927.26,2573.65,911.74,2573.89,892.39Z" transform="translate(-209.28 -288.47)"/><path d="M2575.88,895.9l1.12-91.67a35.21,35.21,0,0,0-.34-3.72l-1,81.1c-.24,19.59-16.78,35.29-37,35.08L2288.31,912c-17.94-.51-32.4-13.52-35-30.16l-.24,8c-.61,19.58,15.24,35.91,35.41,36.49L2538.93,931C2559.1,931.19,2575.64,915.48,2575.88,895.9Z" transform="translate(-209.28 -288.47)"/><path class="g" d="M2561.6,1437.48l1.1-90.57c.23-19.36-15.73-35.22-35.67-35.43l-244.4-4.63c-19.93-.56-36.57,14.67-37.17,34l-2.81,90.54c-.6,19.35,15.07,35.49,35,36.06l247.43,4.68C2545,1472.35,2561.36,1456.83,2561.6,1437.48Z" transform="translate(-209.28 -288.47)"/><path d="M2563.6,1441l1.11-91.66a32.75,32.75,0,0,0-.34-3.72l-1,81.1c-.23,19.58-16.78,35.29-37,35.07L2276,1457.05c-17.94-.51-32.39-13.52-34.95-30.17l-.25,8c-.61,19.58,15.25,35.92,35.41,36.49l250.41,4.74C2546.81,1476.28,2563.36,1460.58,2563.6,1441Z" transform="translate(-209.28 -288.47)"/><path class="g" d="M1235.18,1619.75l1.1-90.58c.24-19.35-15.73-35.21-35.66-35.42l-244.41-4.63c-19.92-.56-36.56,14.66-37.16,34l-2.81,90.54c-.6,19.35,15.06,35.49,35,36.06l247.43,4.68C1218.6,1654.62,1235,1639.1,1235.18,1619.75Z" transform="translate(-209.28 -288.47)"/><path class="p" d="M1237.18,1623.26l1.11-91.66a32.54,32.54,0,0,0-.34-3.72l-1,81.1c-.24,19.58-16.79,35.29-37,35.07l-250.4-4.73c-18-.51-32.4-13.52-35-30.17l-.24,8c-.61,19.58,15.24,35.92,35.41,36.49l250.4,4.74C1220.4,1658.55,1236.94,1642.85,1237.18,1623.26Z" transform="translate(-209.28 -288.47)"/><path class="g" d="M2466.62,948.53l51.69-.06c26.87,0,48.41,21.55,47.53,47.63l-8.27,246.24c-.85,25.33-22.56,45.27-48.65,44.69L2292,1282.2c-26-.58-46.7-21.36-46.41-46.62l.51-43.69c.29-25.45,21.74-45.88,47.95-45.68l72.66.54c25.68.2,46.9-19.44,47.92-44.36l4.49-109.49C2420.14,968.14,2441.1,948.56,2466.62,948.53Z" transform="translate(-209.28 -288.47)"/><path d="M2414.64,1102.39a41.8,41.8,0,0,1-.76,5.27,44.53,44.53,0,0,0,6-20.33l4.49-109.5a43.25,43.25,0,0,1,.75-5.26,44.68,44.68,0,0,0-6,20.33Z" transform="translate(-209.28 -288.47)"/><path d="M2514.19,1272l-216.91-4.83c-26-.58-46.7-21.35-46.41-46.62l.51-43.69a44.78,44.78,0,0,1,.74-6.48,44.74,44.74,0,0,0-6,21.55l-.51,43.69c-.29,25.26,20.4,46,46.41,46.62l216.91,4.83c24.11.53,44.26-16.53,47.88-39.09A47.65,47.65,0,0,1,2514.19,1272Z" transform="translate(-209.28 -288.47)"/><path class="n" d="M3271.39,630.59l40.16,17.85a37.58,37.58,0,0,1,22.31,34.93l-16.32,1055.15-65.41,1Z" transform="translate(-209.28 -288.47)"/><path class="q" d="M2359.82,2038.62s-159.24-16.82-73.33,198c61.49,153.72,149.07,299.06,134.16,503.1H2308.06l-242.65-666.42,75.74-144.92,123,14.77,73.63,12.16Z" transform="translate(-209.28 -288.47)"/><path class="h" d="M2362.43,1974.56a516.58,516.58,0,0,1-81.31,23.83c-17.66,1.12-31.52,6.79-42.08,16.32-19.24,17.29-27.67,47.29-28.57,85.81-2.49,105.2,51.15,274,94.05,421.38,6.38,21.88,11.52,42.55,15.65,62.09,39.48,186.88-15.65,268.39-15.65,268.39L766.17,2636c55.83-45.1,81.19-88.26,88.71-131.61,23.37-133.74-122.75-269.15-65.31-467.94,10.44-36.17,25.3-64.81,43.29-87.59,113-143,349.19-54.34,389.55-137.6,36.88-76.07-120.58-68.55-166.09-155-12.25-23.22-16.37-53.25-6.46-93.55,46.8-190.1,254.44-140.39,254.44-140.39L2310.84,1639l175,37.7s14.62-2.93,23.4,137.45C2514.54,1899,2430.08,1948.62,2362.43,1974.56Z" transform="translate(-209.28 -288.47)"/><path class="r" d="M2362.43,1974.56a547,547,0,0,1-59,18.72c-13.81,3.53-22.35,5.11-22.35,5.11-17.4,1.09-31.08,6.61-41.58,15.88l-.5.44c-19.24,17.29-27.67,47.29-28.57,85.81-140.65-28.22-758.59-145.09-1377.61-151.7,97.41-123.3,286.4-74.37,362.53-111.92h0c12.17-6,21.44-14.22,27-25.68,6.56-13.54,7-24.42,3-33.63-18.54-42.73-131.64-50.28-169-121.41l481.13,95.76a1152.15,1152.15,0,0,0,732.44-95.55,415.51,415.51,0,0,1,41-17.4l175,37.7s14.62-2.93,23.4,137.45C2514.54,1899,2430.08,1948.62,2362.43,1974.56Z" transform="translate(-209.28 -288.47)"/><path class="h" d="M2304.52,2852.38,766.17,2636c55.83-45.1,81.19-88.26,88.71-131.61,439.77,172.47,1172.65,107.16,1465.29,79.64C2359.65,2770.87,2304.52,2852.38,2304.52,2852.38Z" transform="translate(-209.28 -288.47)"/><path class="g" d="M2303.47,1993.28c-13.81,3.53-22.35,5.11-22.35,5.11-17.4,1.09-40.94-8.77-40.94-8.77L1195.42,1836.9c12.17-6,21.44-14.22,27-25.68,6.56-13.54,7-24.42,3-33.63l1038.85,164Z" transform="translate(-209.28 -288.47)"/><path class="s" d="M1261.13,2186.73,1149.2,2175.9c-6-.58-10.43-4.63-10-9.06h0c.43-4.43,5.6-7.55,11.55-7l111.93,10.83c6,.58,10.43,4.63,10,9.06h0C1272.25,2184.18,1267.08,2187.3,1261.13,2186.73Z" transform="translate(-209.28 -288.47)"/><path class="s" d="M1957.41,2245.19l-641-54.59c-6-.51-10.49-4.51-10.11-8.94h0c.38-4.44,5.52-7.62,11.47-7.11l641,54.59c6,.51,10.49,4.51,10.11,9h0C1968.5,2242.52,1963.36,2245.7,1957.41,2245.19Z" transform="translate(-209.28 -288.47)"/><path class="t" d="M1519.51,2237.56,1315.24,2218c-6-.56-10.44-4.62-10-9.05h0c.43-4.42,5.6-7.55,11.55-7L1521,2221.53c6,.57,10.44,4.62,10,9h0C1530.63,2235,1525.46,2238.13,1519.51,2237.56Z" transform="translate(-209.28 -288.47)"/><path class="c" d="M1854.37,2269.83l-294.67-25.09c-6-.51-10.48-4.52-10.1-8.95h0c.38-4.43,5.51-7.61,11.47-7.11l294.66,25.1c6,.51,10.49,4.51,10.11,8.94h0C1865.46,2267.16,1860.32,2270.34,1854.37,2269.83Z" transform="translate(-209.28 -288.47)"/><path class="c" d="M2066.93,2519.2l-639.74-67.35c-6-.62-10.4-4.72-9.93-9.14h0c.46-4.43,5.67-7.5,11.61-6.88l639.75,67.35c5.94.62,10.39,4.72,9.92,9.14h0C2078.08,2516.75,2072.88,2519.82,2066.93,2519.2Z" transform="translate(-209.28 -288.47)"/><path class="s" d="M1368,2500.34l-111.84-11.79c-5.94-.63-10.39-4.72-9.92-9.15h0c.47-4.42,5.67-7.5,11.61-6.87l111.84,11.78c5.94.63,10.38,4.73,9.92,9.15h0C1379.18,2497.88,1374,2501,1368,2500.34Z" transform="translate(-209.28 -288.47)"/><path class="c" d="M1627.78,2506.45,1423.7,2485c-6-.62-10.39-4.71-9.93-9.14h0c.47-4.42,5.67-7.5,11.62-6.88l204.07,21.49c6,.62,10.39,4.72,9.93,9.14h0C1638.92,2504,1633.72,2507.07,1627.78,2506.45Z" transform="translate(-209.28 -288.47)"/><path class="t" d="M1963.42,2541.78l-294.11-31c-5.94-.63-10.38-4.72-9.92-9.14h0c.47-4.43,5.67-7.51,11.61-6.88l294.11,31c5.94.62,10.39,4.72,9.92,9.14h0C1974.57,2539.33,1969.36,2542.41,1963.42,2541.78Z" transform="translate(-209.28 -288.47)"/><path class="t" d="M2148.52,2334.7l-799.91-68.13c-6-.51-10.48-4.51-10.11-8.94h0c.38-4.44,5.52-7.62,11.48-7.11l799.91,68.13c6,.5,10.48,4.51,10.1,8.94h0C2159.62,2332,2154.48,2335.21,2148.52,2334.7Z" transform="translate(-209.28 -288.47)"/><rect class="s" x="1781.9" y="2328.61" width="209.82" height="16.11" rx="0.68" transform="translate(-16.11 -432.05) rotate(4.59)"/><path class="c" d="M1611.86,2320.06l-265.28-27.28c-5.94-.61-10.4-4.69-9.94-9.12h0c.45-4.43,5.65-7.52,11.59-6.91L1613.51,2304c5.94.61,10.39,4.69,9.94,9.12h0C1623,2317.58,1617.8,2320.67,1611.86,2320.06Z" transform="translate(-209.28 -288.47)"/><path class="s" d="M1753,2334.58l-105.19-10.82c-5.95-.61-10.41-4.69-9.95-9.12h0c.45-4.42,5.64-7.51,11.6-6.9l105.18,10.82c6,.61,10.41,4.69,10,9.12h0C1764.18,2332.1,1759,2335.19,1753,2334.58Z" transform="translate(-209.28 -288.47)"/><path class="c" d="M1352.12,2397.28l-111.84-11.79c-5.94-.62-10.39-4.72-9.92-9.14h0c.47-4.43,5.66-7.5,11.61-6.88l111.84,11.79c5.94.63,10.38,4.72,9.92,9.15h0C1363.26,2394.83,1358.06,2397.91,1352.12,2397.28Z" transform="translate(-209.28 -288.47)"/><path class="c" d="M2141.89,2406.93l-798.6-82.13c-6-.61-10.4-4.7-10-9.12h0c.46-4.43,5.65-7.52,11.6-6.91l798.6,82.13c5.94.61,10.39,4.7,9.94,9.12h0C2153,2404.45,2147.83,2407.54,2141.89,2406.93Z" transform="translate(-209.28 -288.47)"/><path class="c" d="M1364.8,2531,1253,2519.21c-6-.62-10.39-4.72-9.92-9.14h0c.46-4.43,5.66-7.51,11.61-6.88L1366.49,2515c6,.63,10.39,4.72,9.92,9.15h0C1376,2528.55,1370.75,2531.63,1364.8,2531Z" transform="translate(-209.28 -288.47)"/><rect class="c" x="1894.97" y="2568" width="290.28" height="16.11" rx="0.8" transform="translate(71.62 -487.89) rotate(6.01)"/><path class="c" d="M1685.68,2543.55l-265.21-27.92c-5.94-.63-10.39-4.72-9.93-9.14h0c.47-4.43,5.67-7.51,11.62-6.88l265.21,27.92c5.94.62,10.38,4.72,9.92,9.14h0C1696.82,2541.1,1691.62,2544.17,1685.68,2543.55Z" transform="translate(-209.28 -288.47)"/><path class="c" d="M1826.82,2558.41l-105.16-11.07c-6-.63-10.39-4.72-9.93-9.15h0c.47-4.42,5.67-7.5,11.62-6.88l105.16,11.07c6,.63,10.39,4.73,9.93,9.15h0C1838,2556,1832.77,2559,1826.82,2558.41Z" transform="translate(-209.28 -288.47)"/><path class="u" d="M1426.65,2564.49,1315.13,2550c-5.93-.77-10.27-5-9.69-9.38h0c.57-4.41,5.84-7.36,11.77-6.59l111.52,14.49c5.92.77,10.27,5,9.69,9.39h0C1437.85,2562.31,1432.58,2565.26,1426.65,2564.49Z" transform="translate(-209.28 -288.47)"/><path class="s" d="M1616.69,2564.78l-138.23-14.55c-5.94-.62-10.39-4.72-9.92-9.14h0c.46-4.43,5.67-7.5,11.61-6.88l138.23,14.55c5.95.63,10.39,4.72,9.93,9.15h0C1627.84,2562.33,1622.64,2565.41,1616.69,2564.78Z" transform="translate(-209.28 -288.47)"/><path class="s" d="M1280.62,2420.46c-5.94-.62-10.39-4.72-9.92-9.14h0c.47-4.43,5.66-7.5,11.61-6.88l111.84,11.79c5.94.63,10.38,4.72,9.92,9.15h0c-.47,4.42-5.67,7.5-11.61,6.87" transform="translate(-209.28 -288.47)"/><rect class="c" x="1881.84" y="2463.65" width="328" height="16.11" rx="0.86" transform="translate(60.73 -489.06) rotate(6.01)"/><path class="u" d="M1713.32,2444.8l-265.21-27.92c-5.95-.63-10.39-4.72-9.93-9.15h0c.47-4.42,5.67-7.5,11.62-6.87l265.2,27.91c6,.63,10.39,4.72,9.92,9.15h0C1724.46,2442.34,1719.26,2445.42,1713.32,2444.8Z" transform="translate(-209.28 -288.47)"/><path class="u" d="M1854.46,2459.65l-105.16-11.07c-6-.62-10.4-4.72-9.93-9.14h0c.47-4.42,5.66-7.5,11.61-6.88l105.17,11.07c5.95.63,10.39,4.72,9.92,9.15h0C1865.61,2457.2,1860.41,2460.28,1854.46,2459.65Z" transform="translate(-209.28 -288.47)"/><path class="c" d="M1704.71,2660.61l-636.92-90.24c-5.92-.84-10.21-5.1-9.59-9.5h0c.62-4.41,5.93-7.29,11.85-6.46L1707,2644.66c5.92.84,10.22,5.09,9.59,9.49h0C1715.94,2658.56,1710.63,2661.45,1704.71,2660.61Z" transform="translate(-209.28 -288.47)"/><path class="c" d="M1266.43,2641.75l-203-30.1c-5.92-.87-10.19-5.15-9.53-9.55h0c.65-4.4,6-7.26,11.89-6.38l203,30.09c5.91.88,10.18,5.15,9.52,9.55h0C1277.66,2639.76,1272.34,2642.62,1266.43,2641.75Z" transform="translate(-209.28 -288.47)"/><path class="c" d="M1332.59,1515.31l250.56,52.28L1983,1651l92.44,19.28c18.36,3.84,26.22-24.35,7.77-28.2l-250.56-52.28L1432.8,1506.4l-92.44-19.29c-18.36-3.83-26.22,24.35-7.77,28.2Z" transform="translate(-209.28 -288.47)"/><line class="s" x1="1130.12" y1="1285.86" x2="1998.73" y2="1461.33"/><path class="c" d="M1336.48,1584.9l23.28,4.7,63.33,12.8,93.25,18.83,114.19,23.07,124.59,25.17L1881.37,1695l117.72,23.78,99.45,20.09,71.24,14.39c11.29,2.28,22.56,4.68,33.88,6.85l1.43.29c5.8,1.17,11.85-1.67,13.5-7.66,1.48-5.41-1.83-12.32-7.66-13.49l-23.28-4.71-63.33-12.79-93.25-18.84-114.19-23.07-124.59-25.17L1666,1629.15l-117.72-23.78-99.46-20.1-71.23-14.39c-11.29-2.28-22.57-4.67-33.88-6.84l-1.44-.29c-5.8-1.17-11.84,1.67-13.49,7.66-1.48,5.41,1.83,12.31,7.66,13.49Z" transform="translate(-209.28 -288.47)"/><path class="v" d="M1112,1893.38a63.76,63.76,0,0,0-7.94-.1c-23.37,1.17-136.76,9.86-191.69,70-46.84,51.3-51.15,112.81-50.56,139.11a14.26,14.26,0,0,0,13.19,13.9l756.66,56.89a8.13,8.13,0,0,0,8.73-8.09c.17-37.12,11.78-181,179.85-211.81a3.72,3.72,0,0,0-.39-7.36Z" transform="translate(-209.28 -288.47)"/><path class="q" d="M2767.8,2039.28l-94.73,314V2429s37.89,48.72,27.07,97.43-78.49,142.41-78.49,142.41H2530.9l6.85-418.47V1963.5H2808.4Z" transform="translate(-209.28 -288.47)"/><path class="u" d="M2600.1,2342.34c-6.3,7.28-19.08,20.08-39.84,32.48a200.17,200.17,0,0,1-20.38,10.69,242.17,242.17,0,0,1-54.53,17.26l-11.24-36.05a3.65,3.65,0,0,1,1.44-4.11l110.78-75.81a3.68,3.68,0,0,1,5.71,2.49Z" transform="translate(-209.28 -288.47)"/><path class="w" d="M2675.89,2548.47c-5.17,24.74-27.58,42.22-37,48.66a3.69,3.69,0,0,1-5.2-1.11,3,3,0,0,1-.41-1,3.5,3.5,0,0,0-2.95-2.63,3.63,3.63,0,0,0-4.22,3l-.16.92-3.11,17.51a4.16,4.16,0,0,1-.3,1c-11.29,23.49-54.76,64.82-77.49,85.52a85.58,85.58,0,0,1-31.21,18L2480.45,2729a14.67,14.67,0,0,1-4.74.73l-28.23-.3a15,15,0,0,1-13.88-9.68l-4.82-12.78-6.31-16.73a26.05,26.05,0,0,1,4-25.28l38-47.44a43.77,43.77,0,0,0,8.45-17.43l1.81-7.85,6.12-26.39,4.08-17.62,6-26.23,5.33-23,1.41-6.09,2.38-10.34c.22-.95.43-1.92.6-2.9,0-.27.1-.51.13-.78a4.62,4.62,0,0,0,.11-.63c.16-.86.3-1.76.41-2.62,0-.08,0-.16,0-.25s0-.16,0-.24a70.38,70.38,0,0,0-2.68-29.61l-13.34-42.82a242.17,242.17,0,0,0,54.53-17.26,200.17,200.17,0,0,0,20.38-10.69c20.76-12.4,33.54-25.2,39.84-32.48l10.15,66.55a55.74,55.74,0,0,0,6.23,18.54,54.62,54.62,0,0,0,6.33,9.34,36.38,36.38,0,0,0,3.06,3.41l11.64,11.88,21.06,21.54a3.74,3.74,0,0,1,1,1.76l12.5,54.7,3.85,16.76A3.83,3.83,0,0,1,2675.89,2548.47Z" transform="translate(-209.28 -288.47)"/><path class="u" d="M2622.81,2436.77a122.69,122.69,0,0,1-9.17,18.27c-23.66,38.4-62.42,53.32-62.42,53.32-24.38-12.81-42.6-15.46-53.53-15.4l2.38-10.34c.22-1,.43-1.92.6-2.9a12.56,12.56,0,0,0,.24-1.41c.16-.94.32-1.89.43-2.87,0-.08,0-.16,0-.24a70.38,70.38,0,0,0-2.68-29.61l-13.34-42.82a242.17,242.17,0,0,0,54.53-17.26,200.17,200.17,0,0,0,20.38-10.69c20.76-12.4,33.54-25.2,39.84-32.48l3.5,23.08,6.65,43.47a55.74,55.74,0,0,0,6.23,18.54A54.62,54.62,0,0,0,2622.81,2436.77Z" transform="translate(-209.28 -288.47)"/><path d="M2751.44,1666.91s-280.11-4.94-371.9,54.37c-141.36,91.34-75.62,258,74.73,274.93,289.25,32.63,425.48-33.52,425.48-33.52s258.69-125,255.95-156.58l-250.19,34Z" transform="translate(-209.28 -288.47)"/><path class="x" d="M2640.52,1432l-67.42,28.27s-41.32,67.42,0,104.39,167.46,10.88,167.46,10.88l-78.29-60.9Z" transform="translate(-209.28 -288.47)"/><polygon class="y" points="2767.52 854.31 2806.23 860.49 2761.93 912.61 2725.73 922.12 2767.52 854.31"/><path d="M2804.35,918.82s-127.36-23.71-84.5-146.28,149.76-146.33,221.77-97,26.12,128.61,26.12,128.61,59.9-42.23,91.73,4.46-.39,76.11-.39,76.11S3142.36,850,3169,904.18c31.1,63.25-45.5,84.73-45.5,84.73s37.13,40.88,22.34,74.53-36.78,46-36.78,46,92.11,9.87,97.4,85.58-121.31,62.83-121.31,62.83l-164.89,11.52-31-280.45Z" transform="translate(-209.28 -288.47)"/><path class="u" d="M2957.45,1065.73l21.2,139.83-138.33,75.83-18.57-195.31L2758.36,1068a49.62,49.62,0,0,1-30.18-71l97.42-182.9s45.07,154.46,97,161.7,55-31,55-31,94,36.91,63.28,88S2957.45,1065.73,2957.45,1065.73Z" transform="translate(-209.28 -288.47)"/><path d="M2796.68,917.71a42.31,42.31,0,0,1-1.62,4.63c.36-.86-.19.42-.26.57l-.42.88c-.33.69-.69,1.37-1.06,2a44.4,44.4,0,0,1-2.6,4.15c-.25.36-.52.71-.77,1.06-.49.67.37-.45-.2.25s-1,1.27-1.58,1.88a44.12,44.12,0,0,1-3.33,3.37c-.56.52-1.14,1-1.73,1.5-.12.1-1.21,1-.49.41l-.92.69a44,44,0,0,1-8.37,4.74c-1.67.72-2,2.83-1.78,4.38a39.14,39.14,0,0,0,9.7,19.79,3.91,3.91,0,0,0,5.49,0,4,4,0,0,0,0-5.48c-.57-.63-1.13-1.28-1.65-1.94.45.57-.18-.26-.26-.38-.29-.39-.56-.79-.83-1.2a36.71,36.71,0,0,1-2.33-4.1l-.45-1c-.19-.42-.2-.45,0-.08l-.2-.5c-.29-.74-.55-1.48-.78-2.23a34.91,34.91,0,0,1-1.17-4.95l-1.78,4.38a48.62,48.62,0,0,0,26.91-30.8,3.91,3.91,0,0,0-2.71-4.77,4,4,0,0,0-4.77,2.71Z" transform="translate(-209.28 -288.47)"/><path d="M2783,1024.52c15.67,9.09,36.61,7.42,51.19-3.12a44.94,44.94,0,0,0,11-11.24,3.88,3.88,0,0,0-1.39-5.3,4,4,0,0,0-5.31,1.39q-.4.6-.84,1.2c-.1.13-.71.92-.1.14l-.36.46c-.67.83-1.37,1.63-2.11,2.4s-1.36,1.38-2.08,2c-.36.32-.72.64-1.09.95l-.56.47c-.16.13-1,.79-.24.2a46.31,46.31,0,0,1-5,3.26c-.85.48-1.71.93-2.59,1.34-.4.19-.79.38-1.19.55-.17.08-1.09.44-.15.07l-.81.33a48.41,48.41,0,0,1-5.85,1.85c-.95.23-1.91.43-2.87.6l-1.44.24c-.72.11.05,0,.16,0a11.12,11.12,0,0,1-1.16.13,45.33,45.33,0,0,1-5.83.22c-1,0-1.94-.09-2.9-.18a10.05,10.05,0,0,1-1.45-.16c1,.23.09,0-.12,0l-.86-.14a41.08,41.08,0,0,1-6.45-1.69c-.55-.19-1.09-.4-1.63-.61-.89-.35.53.26,0,0l-.92-.41c-1.07-.5-2.1-1-3.11-1.63a3.88,3.88,0,0,0-3.92,6.7Z" transform="translate(-209.28 -288.47)"/><path d="M2825.24,1084.28l38.68,8.79a3.89,3.89,0,1,0,2.07-7.49l-38.69-8.79a3.88,3.88,0,0,0-2.06,7.49Z" transform="translate(-209.28 -288.47)"/><path d="M3020.45,1016.46c-.19-16.34-13.42-29.93-28.74-33.87a37,37,0,0,0-24.2,2.08,45.07,45.07,0,0,0-18.56,15.61,49,49,0,0,0-8.84,26,3.92,3.92,0,0,0,2.85,3.74,4.1,4.1,0,0,0,4.38-1.79c.62-.83-.33.38.08-.11.18-.2.35-.42.52-.62s.57-.65.86-1a28.84,28.84,0,0,1,2.34-2.22l.5-.41c.79-.67-.41.28.11-.09s.78-.58,1.19-.85a29.83,29.83,0,0,1,2.77-1.66c.38-.2.77-.4,1.16-.58l.74-.34c.57-.28-.86.32.11,0s1.93-.71,2.91-1,1.88-.49,2.84-.66c.24-.05,1.67-.24.73-.14.53-.06,1.07-.12,1.6-.15a28.26,28.26,0,0,1,2.91-.06c.54,0,1.08.06,1.62.1l.64.07c1.07.12-.81-.15.25,0a31.64,31.64,0,0,1,5.8,1.63l-.05,0,.72.33c.43.2.85.41,1.27.64a28.76,28.76,0,0,1,2.72,1.63c.35.24.69.49,1,.74.84.59-.38-.33.1.07l.61.5c.77.65,1.51,1.34,2.21,2.06.41.41.8.84,1.19,1.28l.41.49c.07.08.73.92.18.2a27.28,27.28,0,0,1,1.87,2.76,30.46,30.46,0,0,1,1.54,2.94c.31.66,0,.08,0,0,.12.29.23.59.34.89.23.59.42,1.2.6,1.8a3.88,3.88,0,1,0,7.48-2.06,33.73,33.73,0,0,0-17.91-20.73,33.33,33.33,0,0,0-40.68,10.69l7.23,2c0-.93.1-1.86.2-2.79,0-.26.2-1.47,0-.51.08-.51.15-1,.25-1.53a43.4,43.4,0,0,1,1.29-5.29c.26-.85.55-1.68.86-2.51.14-.39.3-.77.45-1.16.37-.94-.23.49,0-.08.11-.24.21-.48.32-.71a46,46,0,0,1,2.62-5c.46-.75.94-1.49,1.44-2.21.27-.39.54-.77.82-1.14l.37-.5c-.4.54-.05.07.16-.19a41.88,41.88,0,0,1,3.52-3.89c.66-.65,1.34-1.27,2-1.87l.94-.79.48-.38c-.73.59.09-.05.19-.13a39.43,39.43,0,0,1,4.64-2.94q1.08-.57,2.19-1.08l.56-.25c-.8.36-.15.07.06,0,.47-.19,1-.37,1.43-.54a34.52,34.52,0,0,1,5.19-1.38l.6-.1s1-.14.36-.06.67-.06.81-.08c.92-.08,1.86-.11,2.79-.11.78,0,1.57,0,2.35.09l1.31.13c.62.06-1-.16,0,0l.73.12a34.17,34.17,0,0,1,5,1.25c.85.28,1.67.59,2.5.93-.81-.33.16.08.43.2.44.2.89.42,1.33.64a39.06,39.06,0,0,1,4.43,2.66l1.07.78c.15.11.55.47-.08-.07l.45.37c.69.56,1.35,1.14,2,1.75s1.38,1.37,2,2.09c.33.36.64.73,1,1.11l.36.45c-.6-.74,0,0,.1.14a31.13,31.13,0,0,1,3,4.92c.12.27.67,1.59.31.65.17.44.35.89.51,1.34.32.9.59,1.82.82,2.75.1.42.19.84.27,1.27,0,.24.09.47.13.71s.1,1,.05.35,0,.3,0,.35l.06.73c0,.54,0,1.07.06,1.61a3.88,3.88,0,1,0,7.76,0Z" transform="translate(-209.28 -288.47)"/><path class="x" d="M3278.69,1425.76c-12.88-43.74-28.48-90.12-44.44-122-56.65-113.31-147.89-139.19-226.18-160.93,0,0-14.16,51.73-87.55,74.8-72.8,18.72-124-36.35-124-36.35-88.86,48.71-223.87,279.42-223.87,279.42l133.3,279.41,426.65,10.25V1591.38c61.53-46.14,178.32-44.05,178.32-44.05A590.55,590.55,0,0,0,3278.69,1425.76Z" transform="translate(-209.28 -288.47)"/><path class="w" d="M3017.29,1902.22l-7.14,134.06a3.66,3.66,0,0,1-2.79,3.36l-36.62,9.14-43.52,10.86a70.78,70.78,0,0,0-26.69,13.12c-.13.11-.27.19-.38.3-.86.68-1.7,1.38-2.51,2.11s-1.87,1.68-2.77,2.55l-7.6,7.41-4.47,4.36L2865.94,2106l-19.24,18.78-12.94,12.67-19.35,19-5.77,5.63a43.71,43.71,0,0,0-10.5,16.26l-20.78,57.11a26,26,0,0,1-19.52,16.57l-17.56,3.32-13.4,2.52a15,15,0,0,1-15.51-6.82L2696.43,2227a14.75,14.75,0,0,1-1.84-4.44l-8.2-34a85.13,85.13,0,0,1-.81-36c5.84-30.18,18.56-88.81,32.75-110.65a3.24,3.24,0,0,1,.67-.76l13.35-11.77.7-.62a3.6,3.6,0,0,0,.35-5.14,3.48,3.48,0,0,0-3.79-1.17,3.49,3.49,0,0,1-1.05.17,3.68,3.68,0,0,1-3.66-3.85c.57-11.45,3.87-39.68,22.31-57a4.09,4.09,0,0,1,1.4-.84l16.32-5.44,53.24-17.76a3.67,3.67,0,0,1,2-.08l29.34,6.8,16.22,3.76a43.74,43.74,0,0,0,4.49.84c.86.13,1.73.24,2.6.32s2,.19,3,.25a58.5,58.5,0,0,0,24.74-4.33l62.14-26,49.5-20.68A3.67,3.67,0,0,1,3017.29,1902.22Z" transform="translate(-209.28 -288.47)"/><path class="u" d="M2970.74,2048.78l-43.52,10.86a70.78,70.78,0,0,0-26.69,13.12,73.56,73.56,0,0,0-5.66,5l-7.6,7.41c-5.63-9.36-17.35-23.54-41-37.73,0,0-7.41-40.86,13.1-81a118.39,118.39,0,0,1,10.83-17.32,53.8,53.8,0,0,0,11.26.54,56.36,56.36,0,0,0,19.08-4.3l40.6-17,21.54-9c-2.95,9.18-7.25,26.74-7,50.94a200.86,200.86,0,0,0,1.47,23A241.93,241.93,0,0,0,2970.74,2048.78Z" transform="translate(-209.28 -288.47)"/><path d="M3427.54,1868.24c-61.52,249.92-417.84,215.32-455,196.09-4.64-2.39-8.88-6.38-12.7-11.52-5.51-7.35-10.22-17.07-14.23-27.86-15.54-42-20.5-100.33-20.5-100.33,21.69-17.89,81.66-50,143.66-81.1-110.57-3.27-217.77-61.34-217.77-61.34s320.49-48.52,433-65.18c89-13.18,127,89.06,139,132.42l.05.16C3426.2,1861,3427.54,1868.24,3427.54,1868.24Z" transform="translate(-209.28 -288.47)"/><path class="z" d="M3427.54,1868.24c-61.52,249.92-417.84,215.32-455,196.09-4.64-2.39-8.88-6.38-12.7-11.52-5.51-7.35-10.22-17.07-14.23-27.86l-2.7-8.67s364.06,63,480.09-166.86l.05.16C3426.2,1861,3427.54,1868.24,3427.54,1868.24Z" transform="translate(-209.28 -288.47)"/><path class="aa" d="M3064.91,1843.52s83.2-32.33,111.4-35.85c0,0-168.49,32.63-195.13,27.88C2981.18,1835.55,3056.8,1846.62,3064.91,1843.52Z" transform="translate(-209.28 -288.47)"/><path class="x" d="M2892.8,1229.77l-7.32-8.4s-50.06-5.22-73.15-50.32c0,0-34.79,10.87-82.64,45.67S2573.1,1460.3,2573.1,1460.3l228.36-213.13Z" transform="translate(-209.28 -288.47)"/><path class="ab" d="M3215.75,1726.6s-71.2,82.07-159,99.27l-35.62-17.6-2.18-41.32,141.37-32.62Z" transform="translate(-209.28 -288.47)"/><path class="ac" d="M2507.86,1773.48s-17.4-13-58.72-13c0,0,23.92,10.87,37,47.84s76.75,166.5,144.16,199.12c0,0,332.13-144.75,382.15-164.32S2507.86,1773.48,2507.86,1773.48Z" transform="translate(-209.28 -288.47)"/><path class="ad" d="M3136.38,1588.62s17.4,52.19,15.23,78.29,43.49,63.07,93.51,28.27,26.1-145.71,26.1-145.71S3182.05,1553.82,3136.38,1588.62Z" transform="translate(-209.28 -288.47)"/><path class="ad" d="M3175.53,1619.06s-23.92-8.7-95.69,58.72c-51.61,48.48-96.45,83.8-96.45,83.8s3.44,25,42.33,27.12,219.4-93.52,219.4-93.52S3243,1632.11,3175.53,1619.06Z" transform="translate(-209.28 -288.47)"/><path d="M2413.32,1703.75s-101,37.9-111.9,140.32,155.77,529.42,155.77,529.42l169.63-38s17.42-149,4.45-311.29c-9.38-117.41-57.71-202.07-107.2-251.57Z" transform="translate(-209.28 -288.47)"/><path class="x" d="M3249.76,1516.58s-93.58,38-114.06,73.11-76,93.59-76,93.59,32.17,2.92,55.57,87.74c0,0,234-52.65,195.95-222.27Z" transform="translate(-209.28 -288.47)"/><path d="M2733,1238.74s5,55.56,22.55,99.43l11.7,114.06,15.24,74h-74.8l36.17-129.61S2733.8,1364.5,2733,1238.74Z" transform="translate(-209.28 -288.47)"/><path d="M3090.35,1230.94s-30.69,118.93,30.73,177.42l32.17,122.84s0-23.4,52.64-26.32c0,0-38,5.85-43.86,43.87,0,0,17.59-14.26,38-8.59l-45.18,28.91L3099,1643.8s42.56-98,7.47-223.74C3106.46,1420.06,3056.74,1344,3090.35,1230.94Z" transform="translate(-209.28 -288.47)"/><polygon class="ae" points="2874.01 1491.67 2781.39 1491.53 2783.57 1526.33 2874.01 1491.67"/><path class="ad" d="M2958.2,1745.2s30.44-26.09,76.11-8.7,41.4,37.65,24,44.18-78.37,14.54-78.37,14.54Z" transform="translate(-209.28 -288.47)"/><path class="af" d="M2431.26,1526.28h474.31l95.69,316.66H2538.1a29.48,29.48,0,0,1-28.11-20.6l-95.15-273.65A17.22,17.22,0,0,1,2431.26,1526.28Z" transform="translate(-209.28 -288.47)"/><polygon class="ag" points="2781.39 1524.15 2874.01 1491.67 2874.01 1523.07 2791.98 1554.47 2781.39 1524.15"/><path class="ah" d="M2990.38,1811.54H2505.63l3.66,10.59a30.94,30.94,0,0,0,29.24,20.81h462.73Z" transform="translate(-209.28 -288.47)"/><path class="ag" d="M2905.57,1526.28l7.93-.38a9.79,9.79,0,0,1,9.82,6.89l84.75,273.31-17.4,6.52Z" transform="translate(-209.28 -288.47)"/><path class="ai" d="M773.8,1095.5Zm-17.34-66a33.36,33.36,0,1,0,9.77,23.59,33.3,33.3,0,0,0-9.77-23.59Zm-7.21-33.06a58.4,58.4,0,0,1,13.08,5.57,59.12,59.12,0,0,1,11.47,8.65,2.06,2.06,0,0,0,2.44.29l15.5-8.95.08-.05a3.9,3.9,0,0,1,2.83-.33,3.85,3.85,0,0,1,2.33,1.79l.07.11L808,1022.38a3.87,3.87,0,0,1-1.41,5.25l-.11.06-15.37,8.88a2,2,0,0,0-1,2.25h0a57.35,57.35,0,0,1,1.29,7.05,58.88,58.88,0,0,1,0,14.37,57.19,57.19,0,0,1-1.29,7,2,2,0,0,0,1.08,2.33l15.37,8.87h0a3.87,3.87,0,0,1,1.41,5.25l-11,19h0a3.87,3.87,0,0,1-5.24,1.4l-.11-.06-15.4-8.89a2.05,2.05,0,0,0-2.43.3,59.93,59.93,0,0,1-11.47,8.65,59.27,59.27,0,0,1-13.16,5.59,2,2,0,0,0-1.49,2v17.87a3.86,3.86,0,0,1-3.84,3.84H721.9a3.84,3.84,0,0,1-3.83-3.84v-17.87a2.07,2.07,0,0,0-1.58-2,58.82,58.82,0,0,1-24.55-14.21,2.06,2.06,0,0,0-2.54-.24l-15.39,8.9a3.9,3.9,0,0,1-5.25-1.41l-.07-.11-10.91-18.9h0a3.85,3.85,0,0,1,1.4-5.24l15.48-8.94a2.05,2.05,0,0,0,1-2.26h0a59.67,59.67,0,0,1-1.29-7,60.24,60.24,0,0,1,0-14.37,59.3,59.3,0,0,1,1.29-7.05,2.05,2.05,0,0,0-1.08-2.33l-15.37-8.87a3.86,3.86,0,0,1-1.4-5.25l.06-.11,10.9-18.89h0A3.84,3.84,0,0,1,674,1002h0l15.5,8.95a2,2,0,0,0,2.49-.34,59.42,59.42,0,0,1,11.43-8.6,58.08,58.08,0,0,1,13.15-5.59,2.06,2.06,0,0,0,1.5-2V976.53a3.84,3.84,0,0,1,3.83-3.83h21.94a3.86,3.86,0,0,1,3.84,3.83v17.88A2,2,0,0,0,749.25,996.41Z" transform="translate(-209.28 -288.47)"/><path class="ai" d="M1428.22,597Zm-18.44-70.23a35.49,35.49,0,1,0,10.39,25.09,35.38,35.38,0,0,0-10.39-25.09Zm-7.67-35.17a62.42,62.42,0,0,1,13.91,5.92,63.09,63.09,0,0,1,12.2,9.2,2.2,2.2,0,0,0,2.6.31l16.49-9.52.08-.05a4.13,4.13,0,0,1,3-.35,4.06,4.06,0,0,1,2.48,1.9l.08.11,11.6,20.1a4.12,4.12,0,0,1-1.5,5.58l-.12.07-16.35,9.44a2.18,2.18,0,0,0-1,2.4h0a62.68,62.68,0,0,1,1.38,7.49,63,63,0,0,1-1.38,22.78,2.18,2.18,0,0,0,1.15,2.48l16.35,9.43h0a4.14,4.14,0,0,1,1.5,5.59l-11.67,20.21h0a4.1,4.1,0,0,1-5.57,1.49l-.13-.06-16.37-9.46a2.18,2.18,0,0,0-2.59.32,62.58,62.58,0,0,1-26.2,15.15,2.16,2.16,0,0,0-1.58,2.09v19a4.11,4.11,0,0,1-4.09,4.08H1373a4.08,4.08,0,0,1-4.08-4.08v-19a2.18,2.18,0,0,0-1.68-2.12A62.51,62.51,0,0,1,1341.15,597a2.16,2.16,0,0,0-2.7-.25l-16.38,9.46a4.12,4.12,0,0,1-5.58-1.5l-.07-.12-11.61-20.1h0a4.11,4.11,0,0,1,1.49-5.58l16.47-9.51a2.18,2.18,0,0,0,1-2.4h0a63.2,63.2,0,0,1-1.37-7.5,62.41,62.41,0,0,1,0-15.29,62.67,62.67,0,0,1,1.37-7.49,2.18,2.18,0,0,0-1.15-2.48l-16.35-9.44a4.11,4.11,0,0,1-1.49-5.58l.06-.12,11.6-20.09h0a4.1,4.1,0,0,1,5.58-1.5h0l16.5,9.52a2.16,2.16,0,0,0,2.64-.36,62.76,62.76,0,0,1,26.15-15.1,2.18,2.18,0,0,0,1.59-2.1v-19a4.08,4.08,0,0,1,4.08-4.07h23.33a4.11,4.11,0,0,1,4.09,4.07v19A2.18,2.18,0,0,0,1402.11,491.56Z" transform="translate(-209.28 -288.47)"/><path class="ai" d="M3819.57,452.71ZM3805.45,399a27.16,27.16,0,1,0,8,19.2,27,27,0,0,0-8-19.2Zm-5.86-26.91a47.9,47.9,0,0,1,20,11.57,1.67,1.67,0,0,0,2,.24l12.62-7.29.07,0a3.15,3.15,0,0,1,4.2,1.19l0,.09,8.88,15.37a3.12,3.12,0,0,1,.3,2.38,3.15,3.15,0,0,1-1.45,1.9l-.08,0-12.52,7.22a1.68,1.68,0,0,0-.78,1.84h0a48.08,48.08,0,0,1,0,23.17,1.67,1.67,0,0,0,.88,1.89l12.51,7.22h0a3.12,3.12,0,0,1,1.45,1.9,3.09,3.09,0,0,1-.3,2.37l-8.93,15.46h0a3.15,3.15,0,0,1-4.27,1.15l-.09-.05-12.53-7.23a1.66,1.66,0,0,0-2,.24,48.33,48.33,0,0,1-9.34,7,47.57,47.57,0,0,1-10.71,4.56,1.64,1.64,0,0,0-1.21,1.6v14.55a3.07,3.07,0,0,1-.92,2.2,3.11,3.11,0,0,1-2.21.92h-17.85a3.14,3.14,0,0,1-3.13-3.12V465.9a1.65,1.65,0,0,0-1.28-1.62,47.63,47.63,0,0,1-10.64-4.54,48.63,48.63,0,0,1-9.34-7,1.66,1.66,0,0,0-2.07-.19l-12.53,7.23a3.15,3.15,0,0,1-4.27-1.15l-.05-.08-8.88-15.38h0a3.11,3.11,0,0,1-.3-2.36,3.14,3.14,0,0,1,1.44-1.9l12.61-7.28a1.65,1.65,0,0,0,.78-1.84h0a48.1,48.1,0,0,1-1.06-5.74,48.08,48.08,0,0,1,1.06-17.43,1.68,1.68,0,0,0-.88-1.89l-12.52-7.22a3.17,3.17,0,0,1-1.44-1.9,3.14,3.14,0,0,1,.3-2.37l.05-.1,8.88-15.37h0a3.15,3.15,0,0,1,4.27-1.15h0l12.62,7.29a1.66,1.66,0,0,0,2-.28A47.92,47.92,0,0,1,3773,372a1.66,1.66,0,0,0,1.21-1.61V355.88a3.15,3.15,0,0,1,.92-2.2,3.11,3.11,0,0,1,2.21-.92h17.85a3.14,3.14,0,0,1,3.13,3.12v14.55A1.67,1.67,0,0,0,3799.59,372.06Z" transform="translate(-209.28 -288.47)"/><path class="ai" d="M3861.8,516.21Zm-18.9-24.88a15.28,15.28,0,1,0,8.26,8.27,15.25,15.25,0,0,0-8.26-8.27Zm-8.84-12.71a26.73,26.73,0,0,1,6.51.06,27.31,27.31,0,0,1,6.36,1.65,1,1,0,0,0,1.09-.3l5-6.5,0,0a1.77,1.77,0,0,1,2.43-.29l.05,0,7.92,6.07a1.79,1.79,0,0,1,.67,1.17,1.76,1.76,0,0,1-.34,1.3l0,.05-4.94,6.44a.93.93,0,0,0,0,1.12h0a24.91,24.91,0,0,1,1.78,2.75,26.19,26.19,0,0,1,1.45,3,28,28,0,0,1,1.07,3.12,26.53,26.53,0,0,1,.69,3.2.94.94,0,0,0,.86.8l8,1h0a1.75,1.75,0,0,1,1.17.67,1.79,1.79,0,0,1,.35,1.3l-1.31,10h0a1.72,1.72,0,0,1-.68,1.16,1.74,1.74,0,0,1-1.29.36h-.06l-8.07-1.06a.93.93,0,0,0-1,.55,27,27,0,0,1-7.92,10.34.94.94,0,0,0-.29,1.09l3.13,7.56a1.73,1.73,0,0,1,0,1.34,1.7,1.7,0,0,1-.95,1l-9.27,3.84a1.76,1.76,0,0,1-2.3-1l-3.13-7.55a.93.93,0,0,0-1-.57,27.13,27.13,0,0,1-12.87-1.71,1,1,0,0,0-1.12.34l-5,6.46a1.71,1.71,0,0,1-1.17.66,1.74,1.74,0,0,1-1.29-.34l0,0-7.92-6.08h0a1.76,1.76,0,0,1-.67-1.17,1.73,1.73,0,0,1,.34-1.29l5-6.5a.93.93,0,0,0,0-1.12h0a26,26,0,0,1-1.78-2.76,27.09,27.09,0,0,1-1.45-3,28.6,28.6,0,0,1-1.07-3.11,26.28,26.28,0,0,1-.69-3.21.93.93,0,0,0-.86-.79l-8.06-1.06a1.77,1.77,0,0,1-1.51-2v-.06l1.3-9.9h0a1.76,1.76,0,0,1,.68-1.16,1.69,1.69,0,0,1,1.29-.35h0l8.12,1.07a1,1,0,0,0,1-.58,26.69,26.69,0,0,1,3.32-5.64,27,27,0,0,1,4.58-4.67.92.92,0,0,0,.29-1.09l-3.13-7.56a1.73,1.73,0,0,1,0-1.34,1.75,1.75,0,0,1,.95-1l9.27-3.84a1.8,1.8,0,0,1,1.35,0,1.84,1.84,0,0,1,1,.95l3.13,7.56A.94.94,0,0,0,3834.06,478.62Z" transform="translate(-209.28 -288.47)"/><path class="ai" d="M693.3,1759.33a7.47,7.47,0,0,1,14.94,0v17.57H725.8a7.47,7.47,0,1,1,0,14.93H708.24v17.57a7.47,7.47,0,0,1-14.94,0v-17.57H675.73a7.47,7.47,0,1,1,0-14.93H693.3Z" transform="translate(-209.28 -288.47)"/><path class="ai" d="M3861.13,1681.47a7.47,7.47,0,0,1,14.94,0V1699h17.57a7.48,7.48,0,0,1,0,15h-17.57v17.56a7.47,7.47,0,0,1-14.94,0V1714h-17.57a7.48,7.48,0,0,1,0-15h17.57Z" transform="translate(-209.28 -288.47)"/><path class="ai" d="M377,1920.41a7.47,7.47,0,1,1,14.94,0V1938h17.57a7.48,7.48,0,0,1,0,15H392v17.56a7.47,7.47,0,1,1-14.94,0v-17.56H359.44a7.48,7.48,0,0,1,0-15H377Z" transform="translate(-209.28 -288.47)"/><path class="ai" d="M3345.58,2240.81a9.61,9.61,0,1,1,19.22,0v22.59h22.59a9.61,9.61,0,1,1,0,19.22H3364.8v22.59a9.61,9.61,0,0,1-19.22,0v-22.59H3323a9.61,9.61,0,1,1,0-19.22h22.59Z" transform="translate(-209.28 -288.47)"/><path class="ai" d="M3533.85,2367.86a9.61,9.61,0,1,1,19.21,0v22.59h22.6a9.61,9.61,0,0,1,0,19.22h-22.6v22.6a9.61,9.61,0,1,1-19.21,0v-22.6h-22.6a9.61,9.61,0,1,1,0-19.22h22.6Z" transform="translate(-209.28 -288.47)"/><path class="aj" d="M2805.11,1482.68s149.17-57.48,250.91-17.19" transform="translate(-209.28 -288.47)"/></g></svg>