<svg xmlns="http://www.w3.org/2000/svg" xmlns:xlink="http://www.w3.org/1999/xlink" viewBox="0 0 511 603"><defs><style>.a,.b,.d,.q{fill:none;}.b,.d,.q{stroke:#76d9e4;}.b,.d{stroke-miterlimit:10;}.b{stroke-dasharray:6 6;}.c{fill:#0f1d39;}.e{fill:#5ba5b6;}.f{fill:#ee5e82;}.g{fill:#fad45b;}.h{fill:#76d9e4;}.i{fill:#fff;}.j{fill:#9ecd6f;}.k{fill:#284660;}.l{fill:#345d75;}.m{fill:#1b314c;}.n{fill:#41748a;}.o{clip-path:url(#a);}.p{fill:url(#b);}.q{stroke-width:2px;}.r{fill:#a1cf6f;}</style><clipPath id="a"><rect class="a" x="134.78" y="422.05" width="343" height="126.51"/></clipPath><linearGradient id="b" x1="395.5" y1="4287.95" x2="395.5" y2="3516.56" gradientTransform="matrix(1, 0, 0, -1, 0, 4706)" gradientUnits="userSpaceOnUse"><stop offset="0" stop-color="#76d9e4" stop-opacity="0.63"/><stop offset="0.13" stop-color="#76d9e4" stop-opacity="0"/><stop offset="0.63" stop-color="#76d9e4" stop-opacity="0"/></linearGradient></defs><circle class="b" cx="127.28" cy="472.06" r="112"/><rect class="c" x="59.78" y="26.56" width="423" height="491" rx="18.5"/><rect class="d" x="44.28" y="40.56" width="420.5" height="491" rx="18.5"/><rect class="e" x="102.28" y="99.06" width="63" height="18" rx="9"/><rect class="f" x="172.78" y="99.56" width="31" height="18" rx="9"/><rect class="g" x="211.78" y="100.56" width="63" height="18" rx="9"/><rect class="h" x="280.78" y="100.56" width="44" height="18" rx="9"/><rect class="i" x="330.78" y="100.56" width="41" height="18" rx="9"/><rect class="h" x="102.28" y="129.06" width="63" height="18" rx="9"/><rect class="e" x="172.78" y="130.56" width="102" height="18" rx="9"/><rect class="j" x="280.78" y="130.56" width="25" height="18" rx="9"/><rect class="h" x="310.78" y="130.56" width="41" height="18" rx="9"/><rect class="k" x="18.78" y="176.56" width="409" height="201" rx="17.5"/><rect class="k" x="112.78" y="403.56" width="387" height="170" rx="17.5"/><rect class="l" x="18.78" y="212.56" width="409" height="21"/><rect class="l" x="18.78" y="254.56" width="409" height="21"/><rect class="l" x="18.78" y="296.56" width="409" height="21"/><rect class="l" x="18.78" y="338.56" width="409" height="21"/><rect class="m" x="46.78" y="219.06" width="60" height="7.71" rx="3.85"/><rect class="m" x="46.78" y="240.02" width="60" height="7.71" rx="3.85"/><rect class="m" x="46.78" y="260.99" width="60" height="7.71" rx="3.85"/><rect class="m" x="46.78" y="281.95" width="60" height="7.71" rx="3.85"/><rect class="m" x="46.78" y="302.92" width="60" height="7.71" rx="3.85"/><rect class="m" x="46.78" y="323.88" width="60" height="7.71" rx="3.85"/><rect class="m" x="46.78" y="344.85" width="60" height="7.71" rx="3.85"/><rect class="m" x="46.78" y="364.85" width="60" height="7.71" rx="3.85"/><rect class="m" x="122.78" y="219.06" width="60" height="7.71" rx="3.85"/><rect class="m" x="122.78" y="240.02" width="60" height="7.71" rx="3.85"/><rect class="m" x="122.78" y="260.99" width="60" height="7.71" rx="3.85"/><rect class="m" x="122.78" y="281.95" width="60" height="7.71" rx="3.85"/><rect class="m" x="122.78" y="302.92" width="60" height="7.71" rx="3.85"/><rect class="m" x="122.78" y="323.88" width="60" height="7.71" rx="3.85"/><rect class="m" x="122.78" y="344.85" width="60" height="7.71" rx="3.85"/><rect class="m" x="122.78" y="364.85" width="60" height="7.71" rx="3.85"/><rect class="m" x="198.78" y="219.06" width="60" height="7.71" rx="3.85"/><rect class="m" x="198.78" y="240.02" width="60" height="7.71" rx="3.85"/><rect class="m" x="198.78" y="260.99" width="60" height="7.71" rx="3.85"/><rect class="m" x="198.78" y="281.95" width="60" height="7.71" rx="3.85"/><rect class="m" x="198.78" y="302.92" width="60" height="7.71" rx="3.85"/><rect class="m" x="198.78" y="323.88" width="60" height="7.71" rx="3.85"/><rect class="m" x="198.78" y="344.85" width="60" height="7.71" rx="3.85"/><rect class="m" x="198.78" y="364.85" width="60" height="7.71" rx="3.85"/><rect class="m" x="274.78" y="219.06" width="60" height="7.71" rx="3.85"/><rect class="m" x="274.78" y="240.02" width="60" height="7.71" rx="3.85"/><rect class="m" x="274.78" y="260.99" width="60" height="7.71" rx="3.85"/><rect class="m" x="274.78" y="281.95" width="60" height="7.71" rx="3.85"/><rect class="m" x="274.78" y="302.92" width="60" height="7.71" rx="3.85"/><rect class="m" x="274.78" y="323.88" width="60" height="7.71" rx="3.85"/><rect class="m" x="274.78" y="344.85" width="60" height="7.71" rx="3.85"/><rect class="m" x="274.78" y="364.85" width="60" height="7.71" rx="3.85"/><rect class="m" x="350.78" y="219.06" width="60" height="7.71" rx="3.85"/><rect class="c" x="46.78" y="191.06" width="60" height="7.71" rx="3.85"/><rect class="c" x="122.78" y="191.06" width="60" height="7.71" rx="3.85"/><rect class="c" x="198.78" y="191.06" width="60" height="7.71" rx="3.85"/><rect class="c" x="274.78" y="191.06" width="60" height="7.71" rx="3.85"/><rect class="c" x="350.78" y="191.06" width="60" height="7.71" rx="3.85"/><rect class="m" x="350.78" y="240.02" width="60" height="7.71" rx="3.85"/><rect class="m" x="350.78" y="260.99" width="60" height="7.71" rx="3.85"/><rect class="m" x="350.78" y="281.95" width="60" height="7.71" rx="3.85"/><rect class="m" x="350.78" y="302.92" width="60" height="7.71" rx="3.85"/><rect class="m" x="350.78" y="323.88" width="60" height="7.71" rx="3.85"/><rect class="m" x="350.78" y="344.85" width="60" height="7.71" rx="3.85"/><rect class="m" x="350.78" y="364.85" width="60" height="7.71" rx="3.85"/><rect class="n" x="130.78" y="543.56" width="351" height="1"/><rect class="n" x="130.78" y="506.56" width="351" height="1"/><rect class="n" x="130.78" y="469.56" width="351" height="1"/><rect class="n" x="130.78" y="432.56" width="351" height="1"/><g class="o"><path class="p" d="M128.78,527l1.36,1.51L131.5,544l1.36-3,1.37-2.4,1.36-5,1.36,1.09,1.36-.1,1.36,2.65L141,535.6l1.37-1.2,1.36,6.71,1.36-2.76,1.36,6.17,1.36-3.73,1.36-3.28,1.36-1.83,1.36-1.44,1.36-4.06,1.36,2.75,1.36-2,1.36,1.52,1.36-2.71,1.37,2.32,1.36-3.44,1.36-2.47,1.36.89,1.36-.79,1.36-2.19,1.37-.57,1.36-1.57,1.36,3.29,1.36,1.75,1.36-2,1.36,1.73,1.36-3.33,1.36,1,1.36-2.15,1.36-1.92,1.37-1.07,1.36-1.73,1.36-1.87,1.36-.2,1.36-.84,1.36,2.33L190,513l1.36.51h1.36l1.37-.9,1.36-.62,1.36,1.2,1.36-.89,1.36-1,1.36-2.91,1.37-1,1.36-2.9,1.36-.65,1.36-1.89,1.36,1.07,1.36-2.78,1.36-4.3,1.36,10.38,1.36,2.38,1.36,7.9,1.36-5.55,1.36,5,1.36-.15,1.37-3.71,1.36-1.44,1.36,1.14,1.36,2.5,1.36,4.39,1.36,3.1,1.37-2.81,1.36,6.46,1.36-.72,1.36-4.41,1.36-4.61,1.36,1.54,1.36-2.13,1.36-1.82L239,516l1.36-5,1.36,4.08,1.36-4.92,1.36-2.55,1.37-2.59,1.36-4.7,1.36,1.94,1.36,1.85,1.36.37,1.36.17,1.37,4.46,1.36-1.16,1.36.55,1.36-1.59,1.36-1,1.36,5.38,1.36,1,1.36,9.75,1.36-2.8,1.36,2.9,1.37-3.09,1.36-4.91,1.36-6.33,1.36-5.66,1.36.07,1.36-3.71,1.36.44,1.36-2.22,1.36,2.92,1.37-4.12,1.36-3.78,1.36,1.65,1.36,3.66,1.36-1.26,1.36,2.06L288,496.1l1.36-4.86,1.36.47,1.36-.85,1.36,1.36,1.36-3.34,1.36-.65,1.36.08,1.36-2.67,1.36.64,1.36-.91,1.36,2.8,1.36.1,1.37.37,1.36,1.39,1.36-4.17,1.36-.49,1.36-1.74,1.36,2.58,1.37,1.12,1.36.51,1.36-.28,1.36-1.2,1.36-2.68,1.36.61,1.36-.45,1.36-1.6,1.36,4.3,1.36-2.15,1.36-1.86,1.36-4.69,1.36-1.82,1.37,2.17,1.36-.07,1.36-.86,1.36,1.13,1.36,2.32,1.36-2.49,1.37-4.42,1.36-.29,1.36,1.14,1.36-1.27,1.36.51,1.36,7.91,1.36-2.72,1.36,6.38,1.36-5.19,1.36-4.49,1.37-.26,1.36-3.65,1.36-1.29,1.36-2.36,1.36.22,1.36.14,1.36-.53,1.36-1.63,1.36.29,1.37-.07L367,468l1.36.59,1.36,2.53,1.36-.4,1.36-3.61,1.37,8,1.36,1.66,1.36-7.78,1.36,2.57,1.36,4.32,1.36,4L382,474l1.36,1.61,1.36-4.6,1.36-2,1.36-3.33,1.36-.45,1.36-2,1.37.43,1.36-1.15,1.36,4.88,1.36,1.69,1.36-2.62,1.36,2.6,1.37,1.67L401,468.9l1.36-5.29,1.36.16,1.36.89,1.36-1.35,1.36-3.61,1.36-4.85,1.36.21,1.36-.4,1.36-1.63,1.36-2.51,1.36-.12,1.37-1,1.36,1.19,1.36-3.72,1.36-1.18,1.36,1.73,1.36,2.56,1.37-3.28,1.36,3.2,1.36-3.78,1.36-.73,1.36.08,1.36.1,1.36-2.25,1.36,2.33,1.36-.75,1.36,2.17,1.37-.11,1.36-2.79,1.36-2.58,1.36,3.52,1.36,3.15,1.36,7.42,1.36-4.1,1.36-5.32,1.36.9,1.37,3,1.36.91,1.36-3.72,1.36.28,1.36-3.56,1.36.78,1.37-.69,1.36-.19,1.36-.63,1.36.31,1.36-.56,1.36,1.31,1.36-3.22,1.36.34,1.36-.07,1.36-.37,723.87-23v771.39H-404.65"/><path class="q" d="M128.78,527l1.36,1.51L131.5,544l1.36-3,1.37-2.4,1.36-5,1.36,1.09,1.36-.1,1.36,2.65L141,535.6l1.37-1.2,1.36,6.71,1.36-2.76,1.36,6.17,1.36-3.73,1.36-3.28,1.36-1.83,1.36-1.44,1.36-4.06,1.36,2.75,1.36-2,1.36,1.52,1.36-2.71,1.37,2.32,1.36-3.44,1.36-2.47,1.36.89,1.36-.79,1.36-2.19,1.37-.57,1.36-1.57,1.36,3.29,1.36,1.75,1.36-2,1.36,1.73,1.36-3.33,1.36,1,1.36-2.15,1.36-1.92,1.37-1.07,1.36-1.73,1.36-1.87,1.36-.2,1.36-.84,1.36,2.33L190,513l1.36.51h1.36l1.37-.9,1.36-.62,1.36,1.2,1.36-.89,1.36-1,1.36-2.91,1.37-1,1.36-2.9,1.36-.65,1.36-1.89,1.36,1.07,1.36-2.78,1.36-4.3,1.36,10.38,1.36,2.38,1.36,7.9,1.36-5.55,1.36,5,1.36-.15,1.37-3.71,1.36-1.44,1.36,1.14,1.36,2.5,1.36,4.39,1.36,3.1,1.37-2.81,1.36,6.46,1.36-.72,1.36-4.41,1.36-4.61,1.36,1.54,1.36-2.13,1.36-1.82L239,516l1.36-5,1.36,4.08,1.36-4.92,1.36-2.55,1.37-2.59,1.36-4.7,1.36,1.94,1.36,1.85,1.36.37,1.36.17,1.37,4.46,1.36-1.16,1.36.55,1.36-1.59,1.36-1,1.36,5.38,1.36,1,1.36,9.75,1.36-2.8,1.36,2.9,1.37-3.09,1.36-4.91,1.36-6.33,1.36-5.66,1.36.07,1.36-3.71,1.36.44,1.36-2.22,1.36,2.92,1.37-4.12,1.36-3.78,1.36,1.65,1.36,3.66,1.36-1.26,1.36,2.06L288,496.1l1.36-4.86,1.36.47,1.36-.85,1.36,1.36,1.36-3.34,1.36-.65,1.36.08,1.36-2.67,1.36.64,1.36-.91,1.36,2.8,1.36.1,1.37.37,1.36,1.39,1.36-4.17,1.36-.49,1.36-1.74,1.36,2.58,1.37,1.12,1.36.51,1.36-.28,1.36-1.2,1.36-2.68,1.36.61,1.36-.45,1.36-1.6,1.36,4.3,1.36-2.15,1.36-1.86,1.36-4.69,1.36-1.82,1.37,2.17,1.36-.07,1.36-.86,1.36,1.13,1.36,2.32,1.36-2.49,1.37-4.42,1.36-.29,1.36,1.14,1.36-1.27,1.36.51,1.36,7.91,1.36-2.72,1.36,6.38,1.36-5.19,1.36-4.49,1.37-.26,1.36-3.65,1.36-1.29,1.36-2.36,1.36.22,1.36.14,1.36-.53,1.36-1.63,1.36.29,1.37-.07L367,468l1.36.59,1.36,2.53,1.36-.4,1.36-3.61,1.37,8,1.36,1.66,1.36-7.78,1.36,2.57,1.36,4.32,1.36,4L382,474l1.36,1.61,1.36-4.6,1.36-2,1.36-3.33,1.36-.45,1.36-2,1.37.43,1.36-1.15,1.36,4.88,1.36,1.69,1.36-2.62,1.36,2.6,1.37,1.67L401,468.9l1.36-5.29,1.36.16,1.36.89,1.36-1.35,1.36-3.61,1.36-4.85,1.36.21,1.36-.4,1.36-1.63,1.36-2.51,1.36-.12,1.37-1,1.36,1.19,1.36-3.72,1.36-1.18,1.36,1.73,1.36,2.56,1.37-3.28,1.36,3.2,1.36-3.78,1.36-.73,1.36.08,1.36.1,1.36-2.25,1.36,2.33,1.36-.75,1.36,2.17,1.37-.11,1.36-2.79,1.36-2.58,1.36,3.52,1.36,3.15,1.36,7.42,1.36-4.1,1.36-5.32,1.36.9,1.37,3,1.36.91,1.36-3.72,1.36.28,1.36-3.56,1.36.78,1.37-.69,1.36-.19,1.36-.63,1.36.31,1.36-.56,1.36,1.31,1.36-3.22,1.36.34,1.36-.07,1.36-.37,723.87-23v771.39H-404.65"/></g><path class="r" d="M423.69,67.56l-1.54.83V92.5l1.54.83,18.09-12V79.61Zm.45,23V70.26L439.4,80.44Z"/></svg>