<svg width="24" height="20" viewBox="0 0 24 20" fill="none" xmlns="http://www.w3.org/2000/svg">
    <path d="M22.5733 0.206543H13.6467L13.04 0.466543L12 1.50654L10.96 0.466543L10.3533 0.206543H1.42667L0.646667 1.07321V17.2799L1.42667 18.1465H10.0067L11.3933 19.5332H12.6067L13.9933 18.1465H22.5733L23.3533 17.2799V1.07321L22.5733 0.206543ZM11.22 17.0199L10.8733 16.7599L10.3533 16.4999H2.29333V1.85321H10.0067L11.22 3.06654V17.0199ZM21.7933 16.4999H13.6467L13.04 16.7599L12.8667 16.9332V2.97988L13.9933 1.85321H21.7933V16.4999ZM8.79333 5.14654H3.85333V6.70654H8.79333V5.14654ZM8.79333 11.6465H3.85333V13.2065H8.79333V11.6465ZM3.85333 8.35321H8.79333V9.99988H3.85333V8.35321ZM20.1467 5.14654H15.2933V6.70654H20.1467V5.14654ZM15.2933 8.35321H20.1467V9.99988H15.2933V8.35321ZM15.2933 11.6465H20.1467V13.2065H15.2933V11.6465Z" fill="currentColor" />
</svg>