<svg width="30" height="25" viewBox="0 0 30 25" fill="none" xmlns="http://www.w3.org/2000/svg">
    <path d="M16.7333 16.9999L18 15.7332H28L29.2667 16.9999V23.2666L28 24.4666H18L16.7333 23.2666V16.9999ZM18 16.9999V23.2666H28V16.9999H18ZM26.7333 15.7332V13.2666C26.7333 12.1999 26.3556 11.311 25.6 10.5999C24.8889 9.84433 24.0222 9.46655 23 9.46655C21.9778 9.46655 21.0889 9.84433 20.3333 10.5999C19.6222 11.311 19.2667 12.1999 19.2667 13.2666V15.7332H20.5333V13.2666C20.5333 12.5554 20.7556 11.9554 21.2 11.4666C21.6889 10.9777 22.2889 10.7332 23 10.7332C23.7111 10.7332 24.2889 10.9777 24.7333 11.4666C25.2222 11.9554 25.4667 12.5554 25.4667 13.2666V15.7332H26.7333Z" fill="currentColor" />
    <path d="M3.85333 5.14679H8.79333V6.70679H3.85333V5.14679Z" fill="currentColor" />
    <path d="M3.85333 11.6468H8.79333V13.2068H3.85333V11.6468Z" fill="currentColor" />
    <path d="M8.79333 8.35345H3.85333V10.0001H8.79333V8.35345Z" fill="currentColor" />
    <path fill-rule="evenodd" clip-rule="evenodd" d="M13.6467 0.206787H22.5733L23.3533 1.07345V9.16009C23.0131 9.05336 22.6509 9 22.2667 9C22.1056 9 21.9478 9.00938 21.7933 9.02814V1.85345H13.9933L12.8667 2.98012V16.9335L13.04 16.7601L13.6467 16.5001H16.0332L16 16.5333V18.1468H13.9933L12.6067 19.5335H11.3933L10.0067 18.1468H1.42667L0.646667 17.2801V1.07345L1.42667 0.206787H10.3533L10.96 0.466787L12 1.50679L13.04 0.466787L13.6467 0.206787ZM10.8733 16.7601L11.22 17.0201V3.06679L10.0067 1.85345H2.29333V16.5001H10.3533L10.8733 16.7601Z" fill="currentColor" />
    <path d="M20.1467 9.66899C20.0068 9.7683 19.8709 9.87868 19.7388 10.0001H15.2933V8.35345H20.1467V9.66899Z" fill="currentColor" />
    <path d="M18.6915 11.6468C18.5861 12.0048 18.5333 12.3892 18.5333 12.8V13.2068H15.2933V11.6468H18.6915Z" fill="currentColor" />
    <path d="M15.2933 5.14679H20.1467V6.70679H15.2933V5.14679Z" fill="currentColor" />
</svg>