<svg width="145" height="185" viewBox="0 0 145 185" fill="none" xmlns="http://www.w3.org/2000/svg">
<g clip-path="url(#clip0)">
<path d="M113.189 52.3317C114.478 52.8342 115.734 53.3251 116.955 53.8033L116.772 54.2689C117.295 54.4735 117.81 54.6758 118.319 54.8757V56.5735H118.819V60.6505H118.319V64.7275H118.819V68.8045H118.319V72.8816H118.819V76.9586H118.319V81.0357H118.819V85.1127H118.319V89.1897H118.819V93.2668H118.319V97.3438H118.819V101.421H118.319V105.498H118.819V109.575H118.319V113.652H118.819V117.729H118.319V121.806H118.819V125.883H118.319V129.96H118.819V134.037H118.319V138.114H118.819V142.191H118.319V146.268H118.819V150.345H118.319V154.422H118.819V158.499H118.319V162.576H118.819V166.653H118.319V170.73H118.819V174.807H118.319V178.884H118.819V182.961H118.319V184.272L117.117 183.81L116.937 184.277L113.173 182.83L113.353 182.363L109.589 180.916L109.409 181.383L105.645 179.936L105.825 179.47L102.061 178.023L101.881 178.49L98.1171 177.043L98.2965 176.576L94.5325 175.129L94.3531 175.596L90.589 174.149L90.7684 173.682L87.0044 172.236L86.825 172.702L83.0609 171.256L83.2403 170.789L79.4762 169.342L79.2969 169.809L75.5328 168.362L75.7122 167.895L71.9481 166.449L71.7688 166.915L68.0047 165.469L68.1841 165.002L64.42 163.555L64.2407 164.022L60.4766 162.575L60.656 162.108L56.8919 160.662L56.7125 161.128L52.9485 159.681L53.1279 159.215L49.3638 157.768L49.1844 158.235L45.4204 156.788L45.5998 156.321L41.8357 154.874L41.6563 155.341L37.8923 153.894L38.0717 153.428L34.3076 151.981L34.1282 152.448L30.3642 151.001L30.5436 150.534L26.7795 149.087L26.6001 149.554L22.8361 148.107L23.0154 147.641L19.2514 146.194L19.072 146.66L15.3079 145.214L15.4873 144.747L13.9259 144.147V142.452H13.4259V138.375H13.9259V134.298H13.4259V130.221H13.9259V126.144H13.4259V122.067H13.9259V117.99H13.4259V113.913H13.9259V109.836H13.4259V105.759H13.9259V101.681H13.4259V97.6044H13.9259V93.5274H13.4259V89.4504H13.9259V85.3734H13.4259V81.2963H13.9259V77.2193H13.4259V73.1422H13.9259V69.0652H13.4259V64.9882H13.9259V60.9111H13.4259V56.8341H13.9259V52.7571H13.4259V48.68H13.9259V44.603H13.4259V40.526H13.9259V36.4489H13.4259V32.3719H13.9259V28.2949H13.4259V24.2179H13.9259V20.1408H13.4259V16.0638H13.9259V14.7561C14.3176 14.9083 14.7131 15.0618 15.1122 15.2167L15.2931 14.7505C16.5165 15.2252 17.7746 15.7124 19.0642 16.211L18.8839 16.6774C20.1077 17.1505 21.3599 17.6339 22.6379 18.1266L22.8178 17.6601C24.0487 18.1346 25.3037 18.6178 26.5802 19.1088L26.4007 19.5755C27.6369 20.051 28.8933 20.5338 30.1679 21.0232L30.3471 20.5564C31.5869 21.0324 32.8438 21.5146 34.116 22.0024L33.937 22.4692C35.1796 22.9456 36.4368 23.4273 37.7066 23.9136L37.8854 23.4467C39.1285 23.9227 40.3838 24.4031 41.6496 24.8874L41.4709 25.3544C42.7165 25.831 43.9722 26.3112 45.2365 26.7946L45.4151 26.3275C46.6628 26.8046 47.9189 27.2847 49.1817 27.7672L49.0033 28.2343L52.7707 29.6736L52.9491 29.2065C54.2005 29.6845 55.4569 30.1644 56.7169 30.6456L56.5385 31.1127L60.3065 32.5517L60.4849 32.0846C61.7394 32.5637 62.9959 33.0435 64.253 33.5237L64.0746 33.9908L67.8426 35.4301L68.021 34.963C69.2783 35.4433 70.5347 35.9234 71.7889 36.4027L71.6104 36.8697C72.869 37.3507 74.1253 37.831 75.3779 38.31L75.5564 37.8429C76.8165 38.3248 78.0727 38.8053 79.3236 39.2839L79.1449 39.7509C80.4063 40.2336 81.6622 40.7144 82.9113 41.1928L83.0902 40.7259C84.3529 41.2095 85.6087 41.6907 86.8558 42.1688L86.6768 42.6357C87.9409 43.1203 89.1961 43.6019 90.4408 44.0797L90.62 43.6129C91.8855 44.0988 93.1402 44.5808 94.3823 45.0583L94.2028 45.525C95.4716 46.0129 96.7273 46.4961 97.968 46.974L98.1477 46.5074C99.4197 46.9974 100.676 47.4818 101.915 47.96L101.735 48.4265C103.009 48.9184 104.264 49.4036 105.499 49.8815L105.679 49.4152C106.956 49.9092 108.21 50.3953 109.439 50.8727L109.258 51.3388C110.535 51.8348 111.786 52.3214 113.007 52.7975L113.189 52.3317Z" stroke="#76D9E4" stroke-dasharray="4 4"/>
<circle cx="72" cy="92" r="71" fill="#284660"/>
<path d="M117.346 116.112L117.34 116.106L117.334 116.1L95.8536 94.6191L95.8536 94.619L95.846 94.6117C91.3835 90.3351 85.0834 89.3281 79.8131 91.7974L60.75 72.7343L60.75 61.375V61.125L60.55 60.975L37.05 43.35L36.7031 43.0898L36.3964 43.3964L24.6464 55.1464L24.3398 55.4531L24.6 55.8L42.225 79.3L42.375 79.5H42.625H53.7993L72.8718 98.7524C70.5803 104.003 71.3874 110.305 75.6855 114.604L97.1645 136.266L97.1713 136.273L97.1784 136.28C100.124 139.029 104.645 139.029 107.591 136.28L107.597 136.274L107.604 136.268L117.334 126.537L117.34 126.531L117.346 126.525C120.096 123.579 120.096 119.058 117.346 116.112ZM102.857 94.7754L103.105 95.0231L103.422 94.875C106.225 93.5673 109.028 91.6989 111.459 89.2676C118.376 82.3502 120.811 72.6248 118.568 63.8288C118.104 61.7654 115.616 61.1521 114.085 62.4641L114.069 62.4777L114.054 62.4926L100.653 76.0753L88.7767 73.9795L86.8547 62.0985L100.26 48.6934C101.85 47.1035 100.914 44.6306 98.9211 44.1817C90.1265 41.9389 80.4027 44.3728 73.4855 51.2879C68.051 56.5368 65.625 63.6495 65.625 70.5547V70.7636L65.7736 70.9104L81.0119 85.9651L81.2118 86.1626L81.4846 86.0944C82.9149 85.7369 84.3429 85.5586 85.7695 85.5586C90.9601 85.5586 95.6067 87.5247 99.1855 91.1036L102.857 94.7754ZM67.1633 100.224L67.2245 99.9549L67.0293 99.7597L56.7481 89.4785L56.3957 89.1261L56.0421 89.4773L27.9523 117.384L27.9511 117.385C23.166 122.17 23.166 130.014 27.9511 134.799C32.7362 139.584 40.5802 139.584 45.3653 134.799L45.3667 134.797L67.9487 112.032L68.169 111.81L68.0657 111.515C66.8022 107.905 66.2717 104.147 67.1633 100.224ZM36.75 129.906C34.4558 129.906 32.8438 128.294 32.8438 126C32.8438 123.876 34.4694 122.094 36.75 122.094C38.8606 122.094 40.6563 123.889 40.6563 126C40.6563 128.281 38.8743 129.906 36.75 129.906Z" stroke="#68BFCD"/>
</g>
<defs>
<clipPath id="clip0">
<rect width="145" height="185" fill="white"/>
</clipPath>
</defs>
</svg>
