<svg width="756" height="710" viewBox="0 0 756 710" fill="none" xmlns="http://www.w3.org/2000/svg">
<g clip-path="url(#clip0)">
<rect x="56.5" y="25.5" width="623" height="558" rx="11.5" stroke="#65C6DA"/>
<circle cx="629" cy="594" r="92.5" transform="rotate(120 629 594)" stroke="#76D9E4" stroke-dasharray="4 4"/>
<g filter="url(#filter0_d)">
<rect x="73" y="54" width="621" height="540" rx="12" fill="#0F1D39"/>
</g>
<path d="M101.935 68.09L101.32 69.05L106.615 72.305L101.32 75.575L101.995 76.505L107.695 72.95V71.66L101.935 68.09ZM122.188 76.13C121.258 76.13 120.418 75.785 119.803 75.275L119.098 76.1C119.773 76.685 120.748 77.165 122.188 77.165C123.868 77.165 125.503 76.505 125.503 74.81C125.503 73.34 124.483 72.8 122.938 72.38C121.348 71.945 120.853 71.705 120.853 70.985C120.853 70.385 121.303 69.95 122.563 69.95C123.583 69.95 124.258 70.265 124.843 70.67L125.413 69.8C124.738 69.32 123.808 68.93 122.533 68.93C120.748 68.93 119.533 69.77 119.533 71.09C119.533 72.47 120.598 72.965 122.233 73.37C123.913 73.79 124.138 74.165 124.138 74.87C124.138 75.635 123.403 76.13 122.188 76.13ZM131.497 68.93C129.277 68.93 128.077 70.625 128.077 73.055C128.077 75.545 129.262 77.165 131.482 77.165C133.687 77.165 134.887 75.47 134.887 73.04C134.887 70.55 133.717 68.93 131.497 68.93ZM131.497 69.965C132.847 69.965 133.522 70.955 133.522 73.04C133.522 75.155 132.847 76.13 131.482 76.13C130.117 76.13 129.442 75.155 129.442 73.055C129.442 70.955 130.132 69.965 131.497 69.965ZM142.682 68.93C141.887 68.93 141.377 69.35 140.942 69.98C140.702 69.17 140.117 68.93 139.517 68.93C138.722 68.93 138.227 69.41 137.807 70.025L137.717 69.095H136.742V77H137.897V70.865C138.332 70.19 138.782 69.92 139.277 69.92C139.847 69.92 139.892 70.325 139.892 71.33V77H141.062V70.865C141.497 70.19 141.962 69.92 142.442 69.92C143.012 69.92 143.057 70.325 143.057 71.33V77H144.212V71.12C144.212 69.305 143.447 68.93 142.682 68.93ZM147.476 73.49H152.786C152.801 73.325 152.816 73.085 152.816 72.815C152.816 70.415 151.586 68.93 149.591 68.93C147.491 68.93 146.156 70.67 146.156 73.055C146.156 75.515 147.461 77.165 149.771 77.165C150.746 77.165 151.736 76.82 152.471 76.25L151.886 75.41C151.181 75.875 150.581 76.115 149.771 76.115C148.556 76.115 147.536 75.32 147.476 73.49ZM149.606 69.965C150.806 69.965 151.556 70.835 151.586 72.53H147.476C147.581 70.79 148.436 69.965 149.606 69.965ZM167.069 68.93C165.119 68.93 164.054 70.685 164.054 73.055C164.054 75.545 164.849 77.165 166.964 77.165C167.834 77.165 168.614 76.82 169.199 76.01V80.03L170.459 80.18V69.095H169.379L169.274 69.965C168.749 69.305 168.014 68.93 167.069 68.93ZM167.384 69.95C168.134 69.95 168.779 70.325 169.199 70.97V74.9C168.764 75.56 168.104 76.115 167.234 76.115C166.004 76.115 165.419 75.11 165.419 73.055C165.419 70.97 166.079 69.95 167.384 69.95ZM174.713 69.095H173.453V74.84C173.453 76.31 174.203 77.165 175.733 77.165C176.663 77.165 177.638 76.73 178.268 75.935L178.373 77H179.453V69.095H178.193V74.915C177.758 75.59 176.918 76.175 176.048 76.175C175.133 76.175 174.713 75.725 174.713 74.705V69.095ZM183.452 73.49H188.762C188.777 73.325 188.792 73.085 188.792 72.815C188.792 70.415 187.562 68.93 185.567 68.93C183.467 68.93 182.132 70.67 182.132 73.055C182.132 75.515 183.437 77.165 185.747 77.165C186.722 77.165 187.712 76.82 188.447 76.25L187.862 75.41C187.157 75.875 186.557 76.115 185.747 76.115C184.532 76.115 183.512 75.32 183.452 73.49ZM185.582 69.965C186.782 69.965 187.532 70.835 187.562 72.53H183.452C183.557 70.79 184.412 69.965 185.582 69.965ZM196.781 68.93C195.356 68.93 194.546 69.68 193.946 70.97L193.706 69.095H191.516V70.07H192.761V76.025H191.516V77H195.626V76.025H194.021V72.695C194.531 70.955 195.401 70.085 196.616 70.085H196.691V71.78H197.711L197.891 69.095C197.546 69.005 197.216 68.93 196.781 68.93ZM207.006 69.095H205.701L203.466 76.04L201.201 69.095H199.866L202.611 77H203.031C202.626 78.215 202.146 78.89 200.526 79.175L200.706 80.18C202.806 79.955 203.691 78.665 204.246 77.045L207.006 69.095ZM224.859 68.27C223.929 68.66 223.239 68.93 221.259 68.93C219.384 68.93 218.109 70.07 218.109 71.675C218.109 72.695 218.529 73.385 219.429 73.85C218.859 74.225 218.559 74.735 218.559 75.23C218.559 76.025 219.174 76.73 220.554 76.73H221.964C222.969 76.73 223.734 77.105 223.734 77.855C223.734 78.71 222.969 79.16 221.244 79.16C219.474 79.16 219.054 78.725 219.054 77.795H217.914C217.914 79.4 218.724 80.18 221.244 80.18C223.644 80.18 225.009 79.325 225.009 77.78C225.009 76.55 223.809 75.635 222.219 75.635H220.794C219.984 75.635 219.744 75.335 219.744 74.96C219.744 74.675 219.924 74.375 220.149 74.195C220.494 74.315 220.809 74.36 221.334 74.36C223.209 74.36 224.304 73.235 224.304 71.675C224.304 70.775 223.854 70.1 222.924 69.68C223.809 69.68 224.574 69.665 225.234 69.455L224.859 68.27ZM221.244 69.86C222.414 69.86 222.999 70.475 222.999 71.66C222.999 72.83 222.399 73.52 221.274 73.52C219.984 73.52 219.399 72.755 219.399 71.675C219.399 70.61 219.969 69.86 221.244 69.86ZM230.433 68.93C228.213 68.93 227.013 70.625 227.013 73.055C227.013 75.545 228.198 77.165 230.418 77.165C232.623 77.165 233.823 75.47 233.823 73.04C233.823 70.55 232.653 68.93 230.433 68.93ZM230.433 69.965C231.783 69.965 232.458 70.955 232.458 73.04C232.458 75.155 231.783 76.13 230.418 76.13C229.053 76.13 228.378 75.155 228.378 73.055C228.378 70.955 229.068 69.965 230.433 69.965ZM237.417 73.49H242.727C242.742 73.325 242.757 73.085 242.757 72.815C242.757 70.415 241.527 68.93 239.532 68.93C237.432 68.93 236.097 70.67 236.097 73.055C236.097 75.515 237.402 77.165 239.712 77.165C240.687 77.165 241.677 76.82 242.412 76.25L241.827 75.41C241.122 75.875 240.522 76.115 239.712 76.115C238.497 76.115 237.477 75.32 237.417 73.49ZM239.547 69.965C240.747 69.965 241.497 70.835 241.527 72.53H237.417C237.522 70.79 238.377 69.965 239.547 69.965ZM248.106 76.13C247.176 76.13 246.336 75.785 245.721 75.275L245.016 76.1C245.691 76.685 246.666 77.165 248.106 77.165C249.786 77.165 251.421 76.505 251.421 74.81C251.421 73.34 250.401 72.8 248.856 72.38C247.266 71.945 246.771 71.705 246.771 70.985C246.771 70.385 247.221 69.95 248.481 69.95C249.501 69.95 250.176 70.265 250.761 70.67L251.331 69.8C250.656 69.32 249.726 68.93 248.451 68.93C246.666 68.93 245.451 69.77 245.451 71.09C245.451 72.47 246.516 72.965 248.151 73.37C249.831 73.79 250.056 74.165 250.056 74.87C250.056 75.635 249.321 76.13 248.106 76.13ZM264.655 65.795L263.395 65.93V77H264.655V71.24C265.075 70.625 265.885 69.935 266.77 69.935C267.715 69.935 268.15 70.34 268.15 71.285V77H269.41V71.27C269.41 69.8 268.735 68.93 267.19 68.93C266.245 68.93 265.285 69.365 264.655 70.19V65.795ZM273.394 73.49H278.704C278.719 73.325 278.734 73.085 278.734 72.815C278.734 70.415 277.504 68.93 275.509 68.93C273.409 68.93 272.074 70.67 272.074 73.055C272.074 75.515 273.379 77.165 275.689 77.165C276.664 77.165 277.654 76.82 278.389 76.25L277.804 75.41C277.099 75.875 276.499 76.115 275.689 76.115C274.474 76.115 273.454 75.32 273.394 73.49ZM275.524 69.965C276.724 69.965 277.474 70.835 277.504 72.53H273.394C273.499 70.79 274.354 69.965 275.524 69.965ZM286.723 68.93C285.298 68.93 284.488 69.68 283.888 70.97L283.648 69.095H281.458V70.07H282.703V76.025H281.458V77H285.568V76.025H283.963V72.695C284.473 70.955 285.343 70.085 286.558 70.085H286.633V71.78H287.653L287.833 69.095C287.488 69.005 287.158 68.93 286.723 68.93ZM291.382 73.49H296.692C296.707 73.325 296.722 73.085 296.722 72.815C296.722 70.415 295.492 68.93 293.497 68.93C291.397 68.93 290.062 70.67 290.062 73.055C290.062 75.515 291.367 77.165 293.677 77.165C294.652 77.165 295.642 76.82 296.377 76.25L295.792 75.41C295.087 75.875 294.487 76.115 293.677 76.115C292.462 76.115 291.442 75.32 291.382 73.49ZM293.512 69.965C294.712 69.965 295.462 70.835 295.492 72.53H291.382C291.487 70.79 292.342 69.965 293.512 69.965ZM314.65 76.595L314.155 75.74C313.735 75.965 313.225 76.115 312.64 76.115C311.56 76.115 311.125 75.65 311.125 74.78V70.085H313.705L313.87 69.095H311.125V67.16L309.865 67.31V69.095H308.05V70.085H309.865V74.795C309.865 76.175 310.825 77.165 312.52 77.165C313.27 77.165 314.095 76.955 314.65 76.595ZM318.619 65.795L317.359 65.93V77H318.619V71.24C319.039 70.625 319.849 69.935 320.734 69.935C321.679 69.935 322.114 70.34 322.114 71.285V77H323.374V71.27C323.374 69.8 322.699 68.93 321.154 68.93C320.209 68.93 319.249 69.365 318.619 70.19V65.795ZM332.024 75.275V71.48C332.024 69.92 331.034 68.93 329.069 68.93C328.289 68.93 327.449 69.08 326.474 69.425L326.819 70.385C327.629 70.1 328.349 69.98 328.874 69.98C330.044 69.98 330.749 70.4 330.749 71.555V72.2H329.579C327.194 72.2 325.889 73.115 325.889 74.735C325.889 76.205 326.849 77.165 328.439 77.165C329.459 77.165 330.344 76.79 330.914 76.055C331.124 76.775 331.679 77.09 332.354 77.18L332.669 76.28C332.219 76.145 332.024 75.905 332.024 75.275ZM328.754 76.22C327.719 76.22 327.239 75.71 327.239 74.72C327.239 73.7 327.869 73.07 329.609 73.07H330.749V75.095C330.284 75.8 329.534 76.22 328.754 76.22ZM341.633 76.595L341.138 75.74C340.718 75.965 340.208 76.115 339.623 76.115C338.543 76.115 338.108 75.65 338.108 74.78V70.085H340.688L340.853 69.095H338.108V67.16L336.848 67.31V69.095H335.033V70.085H336.848V74.795C336.848 76.175 337.808 77.165 339.503 77.165C340.253 77.165 341.078 76.955 341.633 76.595ZM352.631 65.345L359.021 78.545L360.041 78.095L353.621 64.865L352.631 65.345ZM122.188 101.13C121.258 101.13 120.418 100.785 119.803 100.275L119.098 101.1C119.773 101.685 120.748 102.165 122.188 102.165C123.868 102.165 125.503 101.505 125.503 99.81C125.503 98.34 124.483 97.8 122.938 97.38C121.348 96.945 120.853 96.705 120.853 95.985C120.853 95.385 121.303 94.95 122.563 94.95C123.583 94.95 124.258 95.265 124.843 95.67L125.413 94.8C124.738 94.32 123.808 93.93 122.533 93.93C120.748 93.93 119.533 94.77 119.533 96.09C119.533 97.47 120.598 97.965 122.233 98.37C123.913 98.79 124.138 99.165 124.138 99.87C124.138 100.635 123.403 101.13 122.188 101.13ZM129.742 90.795L128.482 90.93V102H129.742V96.24C130.162 95.625 130.972 94.935 131.857 94.935C132.802 94.935 133.237 95.34 133.237 96.285V102H134.497V96.27C134.497 94.8 133.822 93.93 132.277 93.93C131.332 93.93 130.372 94.365 129.742 95.19V90.795ZM140.492 93.93C138.272 93.93 137.072 95.625 137.072 98.055C137.072 100.545 138.257 102.165 140.477 102.165C142.682 102.165 143.882 100.47 143.882 98.04C143.882 95.55 142.712 93.93 140.492 93.93ZM140.492 94.965C141.842 94.965 142.517 95.955 142.517 98.04C142.517 100.155 141.842 101.13 140.477 101.13C139.112 101.13 138.437 100.155 138.437 98.055C138.437 95.955 139.127 94.965 140.492 94.965ZM152.336 102L153.701 94.095H152.486L151.466 101.22L150.281 95.1H148.796L147.536 101.22L146.516 94.095H145.241L146.666 102H148.406L149.516 96.21L150.551 102H152.336ZM158.165 101.13C157.235 101.13 156.395 100.785 155.78 100.275L155.075 101.1C155.75 101.685 156.725 102.165 158.165 102.165C159.845 102.165 161.48 101.505 161.48 99.81C161.48 98.34 160.46 97.8 158.915 97.38C157.325 96.945 156.83 96.705 156.83 95.985C156.83 95.385 157.28 94.95 158.54 94.95C159.56 94.95 160.235 95.265 160.82 95.67L161.39 94.8C160.715 94.32 159.785 93.93 158.51 93.93C156.725 93.93 155.51 94.77 155.51 96.09C155.51 97.47 156.575 97.965 158.21 98.37C159.89 98.79 160.115 99.165 160.115 99.87C160.115 100.635 159.38 101.13 158.165 101.13ZM176.153 101.13C175.223 101.13 174.383 100.785 173.768 100.275L173.063 101.1C173.738 101.685 174.713 102.165 176.153 102.165C177.833 102.165 179.468 101.505 179.468 99.81C179.468 98.34 178.448 97.8 176.903 97.38C175.313 96.945 174.818 96.705 174.818 95.985C174.818 95.385 175.268 94.95 176.528 94.95C177.548 94.95 178.223 95.265 178.808 95.67L179.378 94.8C178.703 94.32 177.773 93.93 176.498 93.93C174.713 93.93 173.498 94.77 173.498 96.09C173.498 97.47 174.563 97.965 176.198 98.37C177.878 98.79 178.103 99.165 178.103 99.87C178.103 100.635 177.368 101.13 176.153 101.13ZM185.462 93.93C183.242 93.93 182.042 95.625 182.042 98.055C182.042 100.545 183.227 102.165 185.447 102.165C187.652 102.165 188.852 100.47 188.852 98.04C188.852 95.55 187.682 93.93 185.462 93.93ZM185.462 94.965C186.812 94.965 187.487 95.955 187.487 98.04C187.487 100.155 186.812 101.13 185.447 101.13C184.082 101.13 183.407 100.155 183.407 98.055C183.407 95.955 184.097 94.965 185.462 94.965ZM196.646 93.93C195.851 93.93 195.341 94.35 194.906 94.98C194.666 94.17 194.081 93.93 193.481 93.93C192.686 93.93 192.191 94.41 191.771 95.025L191.681 94.095H190.706V102H191.861V95.865C192.296 95.19 192.746 94.92 193.241 94.92C193.811 94.92 193.856 95.325 193.856 96.33V102H195.026V95.865C195.461 95.19 195.926 94.92 196.406 94.92C196.976 94.92 197.021 95.325 197.021 96.33V102H198.176V96.12C198.176 94.305 197.411 93.93 196.646 93.93ZM201.441 98.49H206.751C206.766 98.325 206.781 98.085 206.781 97.815C206.781 95.415 205.551 93.93 203.556 93.93C201.456 93.93 200.121 95.67 200.121 98.055C200.121 100.515 201.426 102.165 203.736 102.165C204.711 102.165 205.701 101.82 206.436 101.25L205.851 100.41C205.146 100.875 204.546 101.115 203.736 101.115C202.521 101.115 201.501 100.32 201.441 98.49ZM203.571 94.965C204.771 94.965 205.521 95.835 205.551 97.53H201.441C201.546 95.79 202.401 94.965 203.571 94.965ZM215.715 101.595L215.22 100.74C214.8 100.965 214.29 101.115 213.705 101.115C212.625 101.115 212.19 100.65 212.19 99.78V95.085H214.77L214.935 94.095H212.19V92.16L210.93 92.31V94.095H209.115V95.085H210.93V99.795C210.93 101.175 211.89 102.165 213.585 102.165C214.335 102.165 215.16 101.955 215.715 101.595ZM219.684 90.795L218.424 90.93V102H219.684V96.24C220.104 95.625 220.914 94.935 221.799 94.935C222.744 94.935 223.179 95.34 223.179 96.285V102H224.439V96.27C224.439 94.8 223.764 93.93 222.219 93.93C221.274 93.93 220.314 94.365 219.684 95.19V90.795ZM230.418 90.405C229.878 90.405 229.518 90.78 229.518 91.29C229.518 91.8 229.878 92.175 230.418 92.175C230.973 92.175 231.348 91.8 231.348 91.29C231.348 90.78 230.973 90.405 230.418 90.405ZM231.423 94.095H227.808V95.1H230.163V100.995H227.733V102H233.643V100.995H231.423V94.095ZM236.412 102H237.672V96.255C238.092 95.625 238.887 94.935 239.817 94.935C241.002 94.935 241.167 95.58 241.167 97.2V102H242.427V96.27C242.427 94.8 241.752 93.93 240.207 93.93C239.277 93.93 238.227 94.395 237.597 95.205L237.492 94.095H236.412V102ZM251.841 93.27C250.911 93.66 250.221 93.93 248.241 93.93C246.366 93.93 245.091 95.07 245.091 96.675C245.091 97.695 245.511 98.385 246.411 98.85C245.841 99.225 245.541 99.735 245.541 100.23C245.541 101.025 246.156 101.73 247.536 101.73H248.946C249.951 101.73 250.716 102.105 250.716 102.855C250.716 103.71 249.951 104.16 248.226 104.16C246.456 104.16 246.036 103.725 246.036 102.795H244.896C244.896 104.4 245.706 105.18 248.226 105.18C250.626 105.18 251.991 104.325 251.991 102.78C251.991 101.55 250.791 100.635 249.201 100.635H247.776C246.966 100.635 246.726 100.335 246.726 99.96C246.726 99.675 246.906 99.375 247.131 99.195C247.476 99.315 247.791 99.36 248.316 99.36C250.191 99.36 251.286 98.235 251.286 96.675C251.286 95.775 250.836 95.1 249.906 94.68C250.791 94.68 251.556 94.665 252.216 94.455L251.841 93.27ZM248.226 94.86C249.396 94.86 249.981 95.475 249.981 96.66C249.981 97.83 249.381 98.52 248.256 98.52C246.966 98.52 246.381 97.755 246.381 96.675C246.381 95.61 246.951 94.86 248.226 94.86ZM263.395 102H264.655V96.255C265.075 95.625 265.87 94.935 266.8 94.935C267.985 94.935 268.15 95.58 268.15 97.2V102H269.41V96.27C269.41 94.8 268.735 93.93 267.19 93.93C266.26 93.93 265.21 94.395 264.58 95.205L264.475 94.095H263.395V102ZM273.394 98.49H278.704C278.719 98.325 278.734 98.085 278.734 97.815C278.734 95.415 277.504 93.93 275.509 93.93C273.409 93.93 272.074 95.67 272.074 98.055C272.074 100.515 273.379 102.165 275.689 102.165C276.664 102.165 277.654 101.82 278.389 101.25L277.804 100.41C277.099 100.875 276.499 101.115 275.689 101.115C274.474 101.115 273.454 100.32 273.394 98.49ZM275.524 94.965C276.724 94.965 277.474 95.835 277.504 97.53H273.394C273.499 95.79 274.354 94.965 275.524 94.965ZM287.053 100.275V96.48C287.053 94.92 286.063 93.93 284.098 93.93C283.318 93.93 282.478 94.08 281.503 94.425L281.848 95.385C282.658 95.1 283.378 94.98 283.903 94.98C285.073 94.98 285.778 95.4 285.778 96.555V97.2H284.608C282.223 97.2 280.918 98.115 280.918 99.735C280.918 101.205 281.878 102.165 283.468 102.165C284.488 102.165 285.373 101.79 285.943 101.055C286.153 101.775 286.708 102.09 287.383 102.18L287.698 101.28C287.248 101.145 287.053 100.905 287.053 100.275ZM283.783 101.22C282.748 101.22 282.268 100.71 282.268 99.72C282.268 98.7 282.898 98.07 284.638 98.07H285.778V100.095C285.313 100.8 284.563 101.22 283.783 101.22ZM296.662 101.595L296.167 100.74C295.747 100.965 295.237 101.115 294.652 101.115C293.572 101.115 293.137 100.65 293.137 99.78V95.085H295.717L295.882 94.095H293.137V92.16L291.877 92.31V94.095H290.062V95.085H291.877V99.795C291.877 101.175 292.837 102.165 294.532 102.165C295.282 102.165 296.107 101.955 296.662 101.595Z" fill="#FCFCFA"/>
<path d="M94.935 312.09L94.32 313.05L99.615 316.305L94.32 319.575L94.995 320.505L100.695 316.95V315.66L94.935 312.09ZM116.028 312.93C115.083 312.93 114.243 313.395 113.673 314.205L113.568 313.095H112.488V324.18L113.748 324.03V320.265C114.288 320.865 114.978 321.165 115.848 321.165C117.903 321.165 118.893 319.44 118.893 317.04C118.893 314.565 118.128 312.93 116.028 312.93ZM115.728 313.95C116.973 313.95 117.528 314.985 117.528 317.04C117.528 319.14 116.868 320.115 115.563 320.115C114.813 320.115 114.168 319.74 113.748 319.125V315.21C114.183 314.58 114.858 313.95 115.728 313.95ZM126.822 312.93C125.397 312.93 124.587 313.68 123.987 314.97L123.747 313.095H121.557V314.07H122.802V320.025H121.557V321H125.667V320.025H124.062V316.695C124.572 314.955 125.442 314.085 126.657 314.085H126.732V315.78H127.752L127.932 313.095C127.587 313.005 127.257 312.93 126.822 312.93ZM133.477 309.405C132.937 309.405 132.577 309.78 132.577 310.29C132.577 310.8 132.937 311.175 133.477 311.175C134.032 311.175 134.407 310.8 134.407 310.29C134.407 309.78 134.032 309.405 133.477 309.405ZM134.482 313.095H130.867V314.1H133.222V319.995H130.792V321H136.702V319.995H134.482V313.095ZM139.471 321H140.731V315.255C141.151 314.625 141.946 313.935 142.876 313.935C144.061 313.935 144.226 314.58 144.226 316.2V321H145.486V315.27C145.486 313.8 144.811 312.93 143.266 312.93C142.336 312.93 141.286 313.395 140.656 314.205L140.551 313.095H139.471V321ZM154.75 320.595L154.255 319.74C153.835 319.965 153.325 320.115 152.74 320.115C151.66 320.115 151.225 319.65 151.225 318.78V314.085H153.805L153.97 313.095H151.225V311.16L149.965 311.31V313.095H148.15V314.085H149.965V318.795C149.965 320.175 150.925 321.165 152.62 321.165C153.37 321.165 154.195 320.955 154.75 320.595ZM159.154 315.75C159.154 312.6 160.189 311.01 162.349 309.09L161.704 308.4C159.259 310.395 157.834 312.33 157.834 315.75C157.834 319.17 159.259 321.105 161.704 323.1L162.349 322.41C160.219 320.505 159.154 318.885 159.154 315.75ZM172.738 320.595L172.243 319.74C171.823 319.965 171.313 320.115 170.728 320.115C169.648 320.115 169.213 319.65 169.213 318.78V314.085H171.793L171.958 313.095H169.213V311.16L167.953 311.31V313.095H166.138V314.085H167.953V318.795C167.953 320.175 168.913 321.165 170.608 321.165C171.358 321.165 172.183 320.955 172.738 320.595ZM176.707 309.795L175.447 309.93V321H176.707V315.24C177.127 314.625 177.937 313.935 178.822 313.935C179.767 313.935 180.202 314.34 180.202 315.285V321H181.462V315.27C181.462 313.8 180.787 312.93 179.242 312.93C178.297 312.93 177.337 313.365 176.707 314.19V309.795ZM187.441 309.405C186.901 309.405 186.541 309.78 186.541 310.29C186.541 310.8 186.901 311.175 187.441 311.175C187.996 311.175 188.371 310.8 188.371 310.29C188.371 309.78 187.996 309.405 187.441 309.405ZM188.446 313.095H184.831V314.1H187.186V319.995H184.756V321H190.666V319.995H188.446V313.095ZM193.436 321H194.696V315.255C195.116 314.625 195.911 313.935 196.841 313.935C198.026 313.935 198.191 314.58 198.191 316.2V321H199.451V315.27C199.451 313.8 198.776 312.93 197.231 312.93C196.301 312.93 195.251 313.395 194.621 314.205L194.516 313.095H193.436V321ZM208.865 312.27C207.935 312.66 207.245 312.93 205.265 312.93C203.39 312.93 202.115 314.07 202.115 315.675C202.115 316.695 202.535 317.385 203.435 317.85C202.865 318.225 202.565 318.735 202.565 319.23C202.565 320.025 203.18 320.73 204.56 320.73H205.97C206.975 320.73 207.74 321.105 207.74 321.855C207.74 322.71 206.975 323.16 205.25 323.16C203.48 323.16 203.06 322.725 203.06 321.795H201.92C201.92 323.4 202.73 324.18 205.25 324.18C207.65 324.18 209.015 323.325 209.015 321.78C209.015 320.55 207.815 319.635 206.225 319.635H204.8C203.99 319.635 203.75 319.335 203.75 318.96C203.75 318.675 203.93 318.375 204.155 318.195C204.5 318.315 204.815 318.36 205.34 318.36C207.215 318.36 208.31 317.235 208.31 315.675C208.31 314.775 207.86 314.1 206.93 313.68C207.815 313.68 208.58 313.665 209.24 313.455L208.865 312.27ZM205.25 313.86C206.42 313.86 207.005 314.475 207.005 315.66C207.005 316.83 206.405 317.52 205.28 317.52C203.99 317.52 203.405 316.755 203.405 315.675C203.405 314.61 203.975 313.86 205.25 313.86ZM213.089 319.845C213.089 320.595 213.659 321.165 214.409 321.165C215.174 321.165 215.729 320.595 215.729 319.845C215.729 319.11 215.174 318.525 214.409 318.525C213.659 318.525 213.089 319.11 213.089 319.845ZM223.118 320.13C222.188 320.13 221.348 319.785 220.733 319.275L220.028 320.1C220.703 320.685 221.678 321.165 223.118 321.165C224.798 321.165 226.433 320.505 226.433 318.81C226.433 317.34 225.413 316.8 223.868 316.38C222.278 315.945 221.783 315.705 221.783 314.985C221.783 314.385 222.233 313.95 223.493 313.95C224.513 313.95 225.188 314.265 225.773 314.67L226.343 313.8C225.668 313.32 224.738 312.93 223.463 312.93C221.678 312.93 220.463 313.77 220.463 315.09C220.463 316.47 221.528 316.965 223.163 317.37C224.843 317.79 225.068 318.165 225.068 318.87C225.068 319.635 224.333 320.13 223.118 320.13ZM232.412 309.405C231.872 309.405 231.512 309.78 231.512 310.29C231.512 310.8 231.872 311.175 232.412 311.175C232.967 311.175 233.342 310.8 233.342 310.29C233.342 309.78 232.967 309.405 232.412 309.405ZM233.417 313.095H229.802V314.1H232.157V319.995H229.727V321H235.637V319.995H233.417V313.095ZM239.981 319.92L244.331 314.085V313.095H238.781V314.205H242.816L238.436 320.04V321H244.226L244.376 319.92H239.981ZM248.405 317.49H253.715C253.73 317.325 253.745 317.085 253.745 316.815C253.745 314.415 252.515 312.93 250.52 312.93C248.42 312.93 247.085 314.67 247.085 317.055C247.085 319.515 248.39 321.165 250.7 321.165C251.675 321.165 252.665 320.82 253.4 320.25L252.815 319.41C252.11 319.875 251.51 320.115 250.7 320.115C249.485 320.115 248.465 319.32 248.405 317.49ZM250.535 313.965C251.735 313.965 252.485 314.835 252.515 316.53H248.405C248.51 314.79 249.365 313.965 250.535 313.965ZM258.09 315.75C258.09 312.6 259.125 311.01 261.285 309.09L260.64 308.4C258.195 310.395 256.77 312.33 256.77 315.75C256.77 319.17 258.195 321.105 260.64 323.1L261.285 322.41C259.155 320.505 258.09 318.885 258.09 315.75ZM269.694 315.75C269.694 318.885 268.629 320.505 266.499 322.41L267.144 323.1C269.589 321.105 271.014 319.17 271.014 315.75C271.014 312.33 269.589 310.395 267.144 308.4L266.499 309.09C268.659 311.01 269.694 312.6 269.694 315.75ZM278.688 315.75C278.688 318.885 277.623 320.505 275.493 322.41L276.138 323.1C278.583 321.105 280.008 319.17 280.008 315.75C280.008 312.33 278.583 310.395 276.138 308.4L275.493 309.09C277.653 311.01 278.688 312.6 278.688 315.75Z" fill="#FCFCFA"/>
<path d="M94.62 347.22H100.38V345.39H94.62V347.22ZM117.318 349.2V340.605H115.218L111.858 342.645L112.863 344.28L115.008 342.93V349.2H112.503V351H119.253V349.2H117.318ZM122.817 349.575C122.817 350.49 123.552 351.255 124.482 351.255C125.412 351.255 126.147 350.49 126.147 349.575C126.147 348.675 125.412 347.91 124.482 347.91C123.552 347.91 122.817 348.675 122.817 349.575ZM134.377 344.025C133.642 344.025 132.817 344.34 132.202 344.97C132.307 343.065 133.147 342.03 134.272 342.03C134.722 342.03 135.187 342.165 135.592 342.45L136.492 341.01C135.907 340.605 135.142 340.335 134.242 340.335C131.422 340.335 129.727 342.795 129.727 346.305C129.727 348.975 130.837 351.255 133.597 351.255C135.862 351.255 137.287 349.56 137.287 347.475C137.287 345.27 135.997 344.025 134.377 344.025ZM133.627 349.56C132.577 349.56 132.217 348.54 132.202 346.455C132.637 345.96 133.207 345.66 133.762 345.66C134.497 345.66 134.917 346.185 134.917 347.61C134.917 348.69 134.527 349.56 133.627 349.56ZM150.385 343.845V339.615L148.015 339.87V351H150.115L150.205 350.28C150.67 350.91 151.375 351.255 152.17 351.255C154.24 351.255 155.365 349.455 155.365 346.995C155.365 344.4 154.465 342.765 152.425 342.765C151.615 342.765 150.88 343.185 150.385 343.845ZM151.555 349.53C151.045 349.53 150.685 349.275 150.385 348.81V345.45C150.73 344.865 151.135 344.52 151.675 344.52C152.425 344.52 152.92 345.045 152.92 347.025C152.92 348.825 152.395 349.53 151.555 349.53ZM160.444 338.865C159.619 338.865 159.034 339.45 159.034 340.2C159.034 340.965 159.619 341.535 160.444 341.535C161.269 341.535 161.839 340.965 161.839 340.2C161.839 339.45 161.269 338.865 160.444 338.865ZM161.869 343.035H157.324V344.655H159.499V349.38H157.249V351H163.909V349.38H161.869V343.035ZM170.158 339.87H165.448V341.49H167.788V348.195C167.788 350.07 168.658 351.255 170.578 351.255C171.598 351.255 172.348 351.015 172.873 350.73L172.318 349.14C171.988 349.275 171.598 349.38 171.178 349.38C170.548 349.38 170.158 349.14 170.158 348.495V339.87ZM179.152 339.87H174.442V341.49H176.782V348.195C176.782 350.07 177.652 351.255 179.572 351.255C180.592 351.255 181.342 351.015 181.867 350.73L181.312 349.14C180.982 349.275 180.592 349.38 180.172 349.38C179.542 349.38 179.152 349.14 179.152 348.495V339.87ZM187.426 338.865C186.601 338.865 186.016 339.45 186.016 340.2C186.016 340.965 186.601 341.535 187.426 341.535C188.251 341.535 188.821 340.965 188.821 340.2C188.821 339.45 188.251 338.865 187.426 338.865ZM188.851 343.035H184.306V344.655H186.481V349.38H184.231V351H190.891V349.38H188.851V343.035ZM196.436 342.765C193.991 342.765 192.566 344.475 192.566 347.01C192.566 349.695 193.991 351.255 196.436 351.255C198.881 351.255 200.306 349.665 200.306 346.995C200.306 344.445 198.896 342.765 196.436 342.765ZM196.436 344.52C197.411 344.52 197.861 345.27 197.861 346.995C197.861 348.78 197.411 349.515 196.436 349.515C195.461 349.515 195.011 348.78 195.011 347.01C195.011 345.27 195.461 344.52 196.436 344.52ZM201.98 351H204.35V345.435C204.8 344.865 205.235 344.52 205.745 344.52C206.33 344.52 206.51 344.85 206.51 345.84V351H208.88V345.15C208.88 343.635 208.055 342.765 206.69 342.765C205.67 342.765 204.92 343.155 204.215 343.95L204.05 343.035H201.98V351ZM226.043 342.795C224.768 342.795 223.898 343.455 223.328 344.82L222.908 343.035H220.043V344.61H221.093V349.41H220.043V351H225.038V349.41H223.463V347.13C223.838 345.945 224.528 345.06 225.428 344.895V346.365H226.928L227.363 343.035C226.988 342.885 226.583 342.795 226.043 342.795ZM232.412 342.765C229.967 342.765 228.542 344.475 228.542 347.01C228.542 349.695 229.967 351.255 232.412 351.255C234.857 351.255 236.282 349.665 236.282 346.995C236.282 344.445 234.872 342.765 232.412 342.765ZM232.412 344.52C233.387 344.52 233.837 345.27 233.837 346.995C233.837 348.78 233.387 349.515 232.412 349.515C231.437 349.515 230.987 348.78 230.987 347.01C230.987 345.27 231.437 344.52 232.412 344.52ZM244.721 351L245.861 343.035H243.761L243.221 349.515L242.486 344.04H240.476L239.651 349.515L239.126 343.035H236.951L238.136 351H240.701L241.421 345.645L242.111 351H244.721ZM250.145 349.56C249.215 349.56 248.42 349.2 247.805 348.72L246.62 350.055C247.43 350.775 248.615 351.255 250.16 351.255C252.185 351.255 253.925 350.37 253.925 348.615C253.925 347.055 252.92 346.53 251.375 346.095C249.815 345.66 249.5 345.48 249.5 345.075C249.5 344.655 249.86 344.46 250.64 344.46C251.405 344.46 252.185 344.73 252.845 345.135L253.79 343.74C253.01 343.17 251.99 342.765 250.565 342.765C248.33 342.765 247.115 343.815 247.115 345.24C247.115 346.65 248.12 347.28 249.575 347.67C251.165 348.105 251.465 348.3 251.465 348.81C251.465 349.32 250.94 349.56 250.145 349.56Z" fill="#F0F0EE"/>
<g filter="url(#filter1_d)">
<rect x="93" y="435" width="585" height="227" rx="12" fill="#284660"/>
</g>
<circle cx="75" cy="40" r="5.5" stroke="#F05D84"/>
<circle cx="97" cy="40" r="5.5" stroke="#FCD65B"/>
<circle cx="119" cy="40" r="5.5" stroke="#A1CF6F"/>
<path d="M692.9 375.125L691.7 375.775V394.525L692.9 395.175L706.975 385.8V384.5L692.9 375.125ZM693.25 393.05V377.225L705.125 385.15L693.25 393.05Z" fill="#A1CF6F"/>
<path d="M94.935 383.09L94.32 384.05L99.615 387.305L94.32 390.575L94.995 391.505L100.695 387.95V386.66L94.935 383.09ZM118.773 391.595L118.278 390.74C117.858 390.965 117.348 391.115 116.763 391.115C115.683 391.115 115.248 390.65 115.248 389.78V385.085H117.828L117.993 384.095H115.248V382.16L113.988 382.31V384.095H112.173V385.085H113.988V389.795C113.988 391.175 114.948 392.165 116.643 392.165C117.393 392.165 118.218 391.955 118.773 391.595ZM122.742 380.795L121.482 380.93V392H122.742V386.24C123.162 385.625 123.972 384.935 124.857 384.935C125.802 384.935 126.237 385.34 126.237 386.285V392H127.497V386.27C127.497 384.8 126.822 383.93 125.277 383.93C124.332 383.93 123.372 384.365 122.742 385.19V380.795ZM133.477 380.405C132.937 380.405 132.577 380.78 132.577 381.29C132.577 381.8 132.937 382.175 133.477 382.175C134.032 382.175 134.407 381.8 134.407 381.29C134.407 380.78 134.032 380.405 133.477 380.405ZM134.482 384.095H130.867V385.1H133.222V390.995H130.792V392H136.702V390.995H134.482V384.095ZM139.471 392H140.731V386.255C141.151 385.625 141.946 384.935 142.876 384.935C144.061 384.935 144.226 385.58 144.226 387.2V392H145.486V386.27C145.486 384.8 144.811 383.93 143.266 383.93C142.336 383.93 141.286 384.395 140.656 385.205L140.551 384.095H139.471V392ZM154.9 383.27C153.97 383.66 153.28 383.93 151.3 383.93C149.425 383.93 148.15 385.07 148.15 386.675C148.15 387.695 148.57 388.385 149.47 388.85C148.9 389.225 148.6 389.735 148.6 390.23C148.6 391.025 149.215 391.73 150.595 391.73H152.005C153.01 391.73 153.775 392.105 153.775 392.855C153.775 393.71 153.01 394.16 151.285 394.16C149.515 394.16 149.095 393.725 149.095 392.795H147.955C147.955 394.4 148.765 395.18 151.285 395.18C153.685 395.18 155.05 394.325 155.05 392.78C155.05 391.55 153.85 390.635 152.26 390.635H150.835C150.025 390.635 149.785 390.335 149.785 389.96C149.785 389.675 149.965 389.375 150.19 389.195C150.535 389.315 150.85 389.36 151.375 389.36C153.25 389.36 154.345 388.235 154.345 386.675C154.345 385.775 153.895 385.1 152.965 384.68C153.85 384.68 154.615 384.665 155.275 384.455L154.9 383.27ZM151.285 384.86C152.455 384.86 153.04 385.475 153.04 386.66C153.04 387.83 152.44 388.52 151.315 388.52C150.025 388.52 149.44 387.755 149.44 386.675C149.44 385.61 150.01 384.86 151.285 384.86ZM159.124 390.845C159.124 391.595 159.694 392.165 160.444 392.165C161.209 392.165 161.764 391.595 161.764 390.845C161.764 390.11 161.209 389.525 160.444 389.525C159.694 389.525 159.124 390.11 159.124 390.845ZM169.993 383.93C169.048 383.93 168.208 384.395 167.638 385.205L167.533 384.095H166.453V395.18L167.713 395.03V391.265C168.253 391.865 168.943 392.165 169.813 392.165C171.868 392.165 172.858 390.44 172.858 388.04C172.858 385.565 172.093 383.93 169.993 383.93ZM169.693 384.95C170.938 384.95 171.493 385.985 171.493 388.04C171.493 390.14 170.833 391.115 169.528 391.115C168.778 391.115 168.133 390.74 167.713 390.125V386.21C168.148 385.58 168.823 384.95 169.693 384.95ZM178.537 380.915H174.847V381.92H177.277V389.99C177.277 391.355 178.222 392.165 179.617 392.165C180.427 392.165 181.072 391.985 181.492 391.76L181.162 390.845C180.727 391.01 180.307 391.115 179.842 391.115C179.077 391.115 178.537 390.83 178.537 390.05V380.915ZM187.456 383.93C185.236 383.93 184.036 385.625 184.036 388.055C184.036 390.545 185.221 392.165 187.441 392.165C189.646 392.165 190.846 390.47 190.846 388.04C190.846 385.55 189.676 383.93 187.456 383.93ZM187.456 384.965C188.806 384.965 189.481 385.955 189.481 388.04C189.481 390.155 188.806 391.13 187.441 391.13C186.076 391.13 185.401 390.155 185.401 388.055C185.401 385.955 186.091 384.965 187.456 384.965ZM199.721 391.595L199.226 390.74C198.806 390.965 198.296 391.115 197.711 391.115C196.631 391.115 196.196 390.65 196.196 389.78V385.085H198.776L198.941 384.095H196.196V382.16L194.936 382.31V384.095H193.121V385.085H194.936V389.795C194.936 391.175 195.896 392.165 197.591 392.165C198.341 392.165 199.166 391.955 199.721 391.595ZM204.125 386.75C204.125 383.6 205.16 382.01 207.32 380.09L206.675 379.4C204.23 381.395 202.805 383.33 202.805 386.75C202.805 390.17 204.23 392.105 206.675 394.1L207.32 393.41C205.19 391.505 204.125 389.885 204.125 386.75ZM217.094 390.275V386.48C217.094 384.92 216.104 383.93 214.139 383.93C213.359 383.93 212.519 384.08 211.544 384.425L211.889 385.385C212.699 385.1 213.419 384.98 213.944 384.98C215.114 384.98 215.819 385.4 215.819 386.555V387.2H214.649C212.264 387.2 210.959 388.115 210.959 389.735C210.959 391.205 211.919 392.165 213.509 392.165C214.529 392.165 215.414 391.79 215.984 391.055C216.194 391.775 216.749 392.09 217.424 392.18L217.739 391.28C217.289 391.145 217.094 390.905 217.094 390.275ZM213.824 391.22C212.789 391.22 212.309 390.71 212.309 389.72C212.309 388.7 212.939 388.07 214.679 388.07H215.819V390.095C215.354 390.8 214.604 391.22 213.824 391.22ZM223.508 380.915H219.818V381.92H222.248V389.99C222.248 391.355 223.193 392.165 224.588 392.165C225.398 392.165 226.043 391.985 226.463 391.76L226.133 390.845C225.698 391.01 225.278 391.115 224.813 391.115C224.048 391.115 223.508 390.83 223.508 390.05V380.915ZM232.502 380.915H228.812V381.92H231.242V389.99C231.242 391.355 232.187 392.165 233.582 392.165C234.392 392.165 235.037 391.985 235.457 391.76L235.127 390.845C234.692 391.01 234.272 391.115 233.807 391.115C233.042 391.115 232.502 390.83 232.502 390.05V380.915ZM253.685 391.595L253.19 390.74C252.77 390.965 252.26 391.115 251.675 391.115C250.595 391.115 250.16 390.65 250.16 389.78V385.085H252.74L252.905 384.095H250.16V382.16L248.9 382.31V384.095H247.085V385.085H248.9V389.795C248.9 391.175 249.86 392.165 251.555 392.165C252.305 392.165 253.13 391.955 253.685 391.595ZM257.655 380.795L256.395 380.93V392H257.655V386.24C258.075 385.625 258.885 384.935 259.77 384.935C260.715 384.935 261.15 385.34 261.15 386.285V392H262.41V386.27C262.41 384.8 261.735 383.93 260.19 383.93C259.245 383.93 258.285 384.365 257.655 385.19V380.795ZM266.394 388.49H271.704C271.719 388.325 271.734 388.085 271.734 387.815C271.734 385.415 270.504 383.93 268.509 383.93C266.409 383.93 265.074 385.67 265.074 388.055C265.074 390.515 266.379 392.165 268.689 392.165C269.664 392.165 270.654 391.82 271.389 391.25L270.804 390.41C270.099 390.875 269.499 391.115 268.689 391.115C267.474 391.115 266.454 390.32 266.394 388.49ZM268.524 384.965C269.724 384.965 270.474 385.835 270.504 387.53H266.394C266.499 385.79 267.354 384.965 268.524 384.965ZM288.717 383.93C287.292 383.93 286.482 384.68 285.882 385.97L285.642 384.095H283.452V385.07H284.697V391.025H283.452V392H287.562V391.025H285.957V387.695C286.467 385.955 287.337 385.085 288.552 385.085H288.627V386.78H289.647L289.827 384.095C289.482 384.005 289.152 383.93 288.717 383.93ZM295.386 383.93C293.166 383.93 291.966 385.625 291.966 388.055C291.966 390.545 293.151 392.165 295.371 392.165C297.576 392.165 298.776 390.47 298.776 388.04C298.776 385.55 297.606 383.93 295.386 383.93ZM295.386 384.965C296.736 384.965 297.411 385.955 297.411 388.04C297.411 390.155 296.736 391.13 295.371 391.13C294.006 391.13 293.331 390.155 293.331 388.055C293.331 385.955 294.021 384.965 295.386 384.965ZM307.23 392L308.595 384.095H307.38L306.36 391.22L305.175 385.1H303.69L302.43 391.22L301.41 384.095H300.135L301.56 392H303.3L304.41 386.21L305.445 392H307.23ZM313.059 391.13C312.129 391.13 311.289 390.785 310.674 390.275L309.969 391.1C310.644 391.685 311.619 392.165 313.059 392.165C314.739 392.165 316.374 391.505 316.374 389.81C316.374 388.34 315.354 387.8 313.809 387.38C312.219 386.945 311.724 386.705 311.724 385.985C311.724 385.385 312.174 384.95 313.434 384.95C314.454 384.95 315.129 385.265 315.714 385.67L316.284 384.8C315.609 384.32 314.679 383.93 313.404 383.93C311.619 383.93 310.404 384.77 310.404 386.09C310.404 387.47 311.469 387.965 313.104 388.37C314.784 388.79 315.009 389.165 315.009 389.87C315.009 390.635 314.274 391.13 313.059 391.13ZM323.659 386.75C323.659 389.885 322.594 391.505 320.464 393.41L321.109 394.1C323.554 392.105 324.979 390.17 324.979 386.75C324.979 383.33 323.554 381.395 321.109 379.4L320.464 380.09C322.624 382.01 323.659 383.6 323.659 386.75Z" fill="#FCFCFA"/>
<rect x="107.5" y="366.5" width="610" height="43" rx="3.5" stroke="#65C6DA"/>
<g filter="url(#filter2_d)">
<rect x="27" y="119" width="617" height="185" rx="12" fill="#1B314C"/>
</g>
<path d="M45.07 141.26C44.74 141.455 44.455 141.545 44.17 141.545C43.63 141.545 43.375 141.245 43.375 140.465V136.55H44.995L45.205 135.05H43.375V133.055L41.245 133.31V135.05H40.06V136.55H41.245V140.51C41.245 142.28 42.085 143.225 43.735 143.24C44.44 143.24 45.22 143.03 45.805 142.625L45.07 141.26ZM52.8232 140.795V137.585C52.8232 135.785 51.8782 134.81 49.6732 134.81C48.7732 134.81 47.7232 135.005 46.7332 135.395L47.2132 136.82C48.0232 136.55 48.7882 136.4 49.3132 136.4C50.3182 136.4 50.7382 136.715 50.7382 137.705V138.095H49.8232C47.4682 138.095 46.1632 139.04 46.1632 140.78C46.1632 142.22 47.1532 143.24 48.7432 143.24C49.6882 143.24 50.5582 142.91 51.1282 142.055C51.4582 142.835 52.0582 143.12 52.9582 143.21L53.4082 141.8C53.0182 141.665 52.8232 141.44 52.8232 140.795ZM49.3282 141.71C48.6682 141.71 48.3082 141.305 48.3082 140.6C48.3082 139.73 48.8782 139.31 50.0332 139.31H50.7382V140.825C50.4082 141.395 49.9432 141.71 49.3282 141.71ZM59.2114 134.81C58.3564 134.81 57.5764 135.23 57.0814 135.905V131.645L54.9514 131.885V143H56.8414L56.9614 142.22C57.4564 142.85 58.1614 143.24 59.0464 143.24C61.0114 143.24 62.1964 141.485 62.1964 139.025C62.1964 136.37 61.1314 134.81 59.2114 134.81ZM58.4614 141.665C57.8914 141.665 57.4114 141.35 57.0814 140.825V137.405C57.4414 136.805 57.9214 136.385 58.5514 136.385C59.3914 136.385 59.9764 136.955 59.9764 139.025C59.9764 140.96 59.3464 141.665 58.4614 141.665ZM65.8669 143.24C66.4069 143.24 66.8869 143.12 67.2319 142.97L66.7969 141.455C66.6769 141.515 66.5419 141.545 66.3769 141.545C66.0769 141.545 65.9419 141.365 65.9419 141.02V131.645L63.8119 131.885V141.08C63.8119 142.46 64.5769 143.24 65.8669 143.24ZM74.8989 138.845C74.8989 136.31 73.5639 134.81 71.3139 134.81C68.9889 134.81 67.6989 136.67 67.6989 139.07C67.6989 141.56 69.0339 143.24 71.5839 143.24C72.8289 143.24 73.8189 142.79 74.5989 142.16L73.7139 140.96C73.0239 141.44 72.4539 141.65 71.7789 141.65C70.7589 141.65 70.0389 141.2 69.8889 139.67H74.8539C74.8689 139.445 74.8989 139.115 74.8989 138.845ZM72.7839 138.335H69.8889C70.0089 136.82 70.5189 136.265 71.3589 136.265C72.3789 136.265 72.7839 137.045 72.7839 138.245V138.335Z" fill="#F0F0EE"/>
<path d="M107.07 141.26C106.74 141.455 106.455 141.545 106.17 141.545C105.63 141.545 105.375 141.245 105.375 140.465V136.55H106.995L107.205 135.05H105.375V133.055L103.245 133.31V135.05H102.06V136.55H103.245V140.51C103.245 142.28 104.085 143.225 105.735 143.24C106.44 143.24 107.22 143.03 107.805 142.625L107.07 141.26ZM114.823 140.795V137.585C114.823 135.785 113.878 134.81 111.673 134.81C110.773 134.81 109.723 135.005 108.733 135.395L109.213 136.82C110.023 136.55 110.788 136.4 111.313 136.4C112.318 136.4 112.738 136.715 112.738 137.705V138.095H111.823C109.468 138.095 108.163 139.04 108.163 140.78C108.163 142.22 109.153 143.24 110.743 143.24C111.688 143.24 112.558 142.91 113.128 142.055C113.458 142.835 114.058 143.12 114.958 143.21L115.408 141.8C115.018 141.665 114.823 141.44 114.823 140.795ZM111.328 141.71C110.668 141.71 110.308 141.305 110.308 140.6C110.308 139.73 110.878 139.31 112.033 139.31H112.738V140.825C112.408 141.395 111.943 141.71 111.328 141.71ZM121.211 134.81C120.356 134.81 119.576 135.23 119.081 135.905V131.645L116.951 131.885V143H118.841L118.961 142.22C119.456 142.85 120.161 143.24 121.046 143.24C123.011 143.24 124.196 141.485 124.196 139.025C124.196 136.37 123.131 134.81 121.211 134.81ZM120.461 141.665C119.891 141.665 119.411 141.35 119.081 140.825V137.405C119.441 136.805 119.921 136.385 120.551 136.385C121.391 136.385 121.976 136.955 121.976 139.025C121.976 140.96 121.346 141.665 120.461 141.665ZM127.867 143.24C128.407 143.24 128.887 143.12 129.232 142.97L128.797 141.455C128.677 141.515 128.542 141.545 128.377 141.545C128.077 141.545 127.942 141.365 127.942 141.02V131.645L125.812 131.885V141.08C125.812 142.46 126.577 143.24 127.867 143.24ZM136.899 138.845C136.899 136.31 135.564 134.81 133.314 134.81C130.989 134.81 129.699 136.67 129.699 139.07C129.699 141.56 131.034 143.24 133.584 143.24C134.829 143.24 135.819 142.79 136.599 142.16L135.714 140.96C135.024 141.44 134.454 141.65 133.779 141.65C132.759 141.65 132.039 141.2 131.889 139.67H136.854C136.869 139.445 136.899 139.115 136.899 138.845ZM134.784 138.335H131.889C132.009 136.82 132.519 136.265 133.359 136.265C134.379 136.265 134.784 137.045 134.784 138.245V138.335Z" fill="#F0F0EE"/>
<path d="M117.375 630.815C116.295 630.815 115.365 631.205 114.51 632L115.23 632.825C115.905 632.195 116.505 631.925 117.3 631.925C118.305 631.925 118.965 632.51 118.965 633.455C118.965 634.625 118.14 635.225 117.15 635.225H116.64L116.475 636.29H117.225C118.44 636.29 119.22 636.71 119.22 638.09C119.22 639.275 118.455 640.055 117.195 640.055C116.385 640.055 115.71 639.755 115.05 639.065L114.225 639.83C114.99 640.745 116.04 641.18 117.24 641.18C119.325 641.18 120.66 639.86 120.66 638.105C120.66 636.59 119.655 635.795 118.395 635.675C119.52 635.405 120.345 634.64 120.345 633.365C120.345 632.015 119.295 630.815 117.375 630.815ZM125.67 630.815C123.42 630.815 122.31 632.66 122.31 635.99C122.31 639.32 123.42 641.18 125.67 641.18C127.92 641.18 129.03 639.32 129.03 635.99C129.03 632.675 127.92 630.815 125.67 630.815ZM125.67 631.91C126.915 631.91 127.59 633.05 127.59 635.99C127.59 638.945 126.915 640.085 125.67 640.085C124.41 640.085 123.75 638.945 123.75 635.99C123.75 633.05 124.41 631.91 125.67 631.91ZM134.035 630.815C131.785 630.815 130.675 632.66 130.675 635.99C130.675 639.32 131.785 641.18 134.035 641.18C136.285 641.18 137.395 639.32 137.395 635.99C137.395 632.675 136.285 630.815 134.035 630.815ZM134.035 631.91C135.28 631.91 135.955 633.05 135.955 635.99C135.955 638.945 135.28 640.085 134.035 640.085C132.775 640.085 132.115 638.945 132.115 635.99C132.115 633.05 132.775 631.91 134.035 631.91Z" fill="#5BA5B6"/>
<path d="M117.375 567.815C116.295 567.815 115.365 568.205 114.51 569L115.23 569.825C115.905 569.195 116.505 568.925 117.3 568.925C118.305 568.925 118.965 569.51 118.965 570.455C118.965 571.625 118.14 572.225 117.15 572.225H116.64L116.475 573.29H117.225C118.44 573.29 119.22 573.71 119.22 575.09C119.22 576.275 118.455 577.055 117.195 577.055C116.385 577.055 115.71 576.755 115.05 576.065L114.225 576.83C114.99 577.745 116.04 578.18 117.24 578.18C119.325 578.18 120.66 576.86 120.66 575.105C120.66 573.59 119.655 572.795 118.395 572.675C119.52 572.405 120.345 571.64 120.345 570.365C120.345 569.015 119.295 567.815 117.375 567.815ZM127.98 567.965H122.55V573.02H123.63C124.11 572.795 124.515 572.675 125.055 572.675C126.09 572.675 126.885 573.215 126.885 574.76C126.885 576.23 126.09 577.055 124.83 577.055C123.96 577.055 123.315 576.74 122.715 576.095L121.875 576.905C122.655 577.7 123.57 578.18 124.845 578.18C126.93 578.18 128.325 576.785 128.325 574.79C128.325 572.795 127.17 571.61 125.475 571.61C124.935 571.61 124.395 571.73 123.87 572V569.045H127.785L127.98 567.965ZM133.185 567.815C130.935 567.815 129.825 569.66 129.825 572.99C129.825 576.32 130.935 578.18 133.185 578.18C135.435 578.18 136.545 576.32 136.545 572.99C136.545 569.675 135.435 567.815 133.185 567.815ZM133.185 568.91C134.43 568.91 135.105 570.05 135.105 572.99C135.105 575.945 134.43 577.085 133.185 577.085C131.925 577.085 131.265 575.945 131.265 572.99C131.265 570.05 131.925 568.91 133.185 568.91Z" fill="#5BA5B6"/>
<path d="M121.53 516.43H120.225V513.73H119.025L118.905 516.43H116.055L118.77 510.295L117.615 509.815L114.6 516.535V517.525H118.89V520H120.225V517.525H121.53V516.43ZM126.168 509.815C123.918 509.815 122.808 511.66 122.808 514.99C122.808 518.32 123.918 520.18 126.168 520.18C128.418 520.18 129.528 518.32 129.528 514.99C129.528 511.675 128.418 509.815 126.168 509.815ZM126.168 510.91C127.413 510.91 128.088 512.05 128.088 514.99C128.088 517.945 127.413 519.085 126.168 519.085C124.908 519.085 124.248 517.945 124.248 514.99C124.248 512.05 124.908 510.91 126.168 510.91ZM134.533 509.815C132.283 509.815 131.173 511.66 131.173 514.99C131.173 518.32 132.283 520.18 134.533 520.18C136.783 520.18 137.893 518.32 137.893 514.99C137.893 511.675 136.783 509.815 134.533 509.815ZM134.533 510.91C135.778 510.91 136.453 512.05 136.453 514.99C136.453 517.945 135.778 519.085 134.533 519.085C133.273 519.085 132.613 517.945 132.613 514.99C132.613 512.05 133.273 510.91 134.533 510.91Z" fill="#5BA5B6"/>
<path d="M121.53 465.43H120.225V462.73H119.025L118.905 465.43H116.055L118.77 459.295L117.615 458.815L114.6 465.535V466.525H118.89V469H120.225V466.525H121.53V465.43ZM128.478 458.965H123.048V464.02H124.128C124.608 463.795 125.013 463.675 125.553 463.675C126.588 463.675 127.383 464.215 127.383 465.76C127.383 467.23 126.588 468.055 125.328 468.055C124.458 468.055 123.813 467.74 123.213 467.095L122.373 467.905C123.153 468.7 124.068 469.18 125.343 469.18C127.428 469.18 128.823 467.785 128.823 465.79C128.823 463.795 127.668 462.61 125.973 462.61C125.433 462.61 124.893 462.73 124.368 463V460.045H128.283L128.478 458.965ZM133.683 458.815C131.433 458.815 130.323 460.66 130.323 463.99C130.323 467.32 131.433 469.18 133.683 469.18C135.933 469.18 137.043 467.32 137.043 463.99C137.043 460.675 135.933 458.815 133.683 458.815ZM133.683 459.91C134.928 459.91 135.603 461.05 135.603 463.99C135.603 466.945 134.928 468.085 133.683 468.085C132.423 468.085 131.763 466.945 131.763 463.99C131.763 461.05 132.423 459.91 133.683 459.91Z" fill="#5BA5B6"/>
<path d="M169.07 141.26C168.74 141.455 168.455 141.545 168.17 141.545C167.63 141.545 167.375 141.245 167.375 140.465V136.55H168.995L169.205 135.05H167.375V133.055L165.245 133.31V135.05H164.06V136.55H165.245V140.51C165.245 142.28 166.085 143.225 167.735 143.24C168.44 143.24 169.22 143.03 169.805 142.625L169.07 141.26ZM176.823 140.795V137.585C176.823 135.785 175.878 134.81 173.673 134.81C172.773 134.81 171.723 135.005 170.733 135.395L171.213 136.82C172.023 136.55 172.788 136.4 173.313 136.4C174.318 136.4 174.738 136.715 174.738 137.705V138.095H173.823C171.468 138.095 170.163 139.04 170.163 140.78C170.163 142.22 171.153 143.24 172.743 143.24C173.688 143.24 174.558 142.91 175.128 142.055C175.458 142.835 176.058 143.12 176.958 143.21L177.408 141.8C177.018 141.665 176.823 141.44 176.823 140.795ZM173.328 141.71C172.668 141.71 172.308 141.305 172.308 140.6C172.308 139.73 172.878 139.31 174.033 139.31H174.738V140.825C174.408 141.395 173.943 141.71 173.328 141.71ZM183.211 134.81C182.356 134.81 181.576 135.23 181.081 135.905V131.645L178.951 131.885V143H180.841L180.961 142.22C181.456 142.85 182.161 143.24 183.046 143.24C185.011 143.24 186.196 141.485 186.196 139.025C186.196 136.37 185.131 134.81 183.211 134.81ZM182.461 141.665C181.891 141.665 181.411 141.35 181.081 140.825V137.405C181.441 136.805 181.921 136.385 182.551 136.385C183.391 136.385 183.976 136.955 183.976 139.025C183.976 140.96 183.346 141.665 182.461 141.665ZM189.867 143.24C190.407 143.24 190.887 143.12 191.232 142.97L190.797 141.455C190.677 141.515 190.542 141.545 190.377 141.545C190.077 141.545 189.942 141.365 189.942 141.02V131.645L187.812 131.885V141.08C187.812 142.46 188.577 143.24 189.867 143.24ZM198.899 138.845C198.899 136.31 197.564 134.81 195.314 134.81C192.989 134.81 191.699 136.67 191.699 139.07C191.699 141.56 193.034 143.24 195.584 143.24C196.829 143.24 197.819 142.79 198.599 142.16L197.714 140.96C197.024 141.44 196.454 141.65 195.779 141.65C194.759 141.65 194.039 141.2 193.889 139.67H198.854C198.869 139.445 198.899 139.115 198.899 138.845ZM196.784 138.335H193.889C194.009 136.82 194.519 136.265 195.359 136.265C196.379 136.265 196.784 137.045 196.784 138.245V138.335Z" fill="#F0F0EE"/>
<path d="M231.07 141.26C230.74 141.455 230.455 141.545 230.17 141.545C229.63 141.545 229.375 141.245 229.375 140.465V136.55H230.995L231.205 135.05H229.375V133.055L227.245 133.31V135.05H226.06V136.55H227.245V140.51C227.245 142.28 228.085 143.225 229.735 143.24C230.44 143.24 231.22 143.03 231.805 142.625L231.07 141.26ZM238.823 140.795V137.585C238.823 135.785 237.878 134.81 235.673 134.81C234.773 134.81 233.723 135.005 232.733 135.395L233.213 136.82C234.023 136.55 234.788 136.4 235.313 136.4C236.318 136.4 236.738 136.715 236.738 137.705V138.095H235.823C233.468 138.095 232.163 139.04 232.163 140.78C232.163 142.22 233.153 143.24 234.743 143.24C235.688 143.24 236.558 142.91 237.128 142.055C237.458 142.835 238.058 143.12 238.958 143.21L239.408 141.8C239.018 141.665 238.823 141.44 238.823 140.795ZM235.328 141.71C234.668 141.71 234.308 141.305 234.308 140.6C234.308 139.73 234.878 139.31 236.033 139.31H236.738V140.825C236.408 141.395 235.943 141.71 235.328 141.71ZM245.211 134.81C244.356 134.81 243.576 135.23 243.081 135.905V131.645L240.951 131.885V143H242.841L242.961 142.22C243.456 142.85 244.161 143.24 245.046 143.24C247.011 143.24 248.196 141.485 248.196 139.025C248.196 136.37 247.131 134.81 245.211 134.81ZM244.461 141.665C243.891 141.665 243.411 141.35 243.081 140.825V137.405C243.441 136.805 243.921 136.385 244.551 136.385C245.391 136.385 245.976 136.955 245.976 139.025C245.976 140.96 245.346 141.665 244.461 141.665ZM251.867 143.24C252.407 143.24 252.887 143.12 253.232 142.97L252.797 141.455C252.677 141.515 252.542 141.545 252.377 141.545C252.077 141.545 251.942 141.365 251.942 141.02V131.645L249.812 131.885V141.08C249.812 142.46 250.577 143.24 251.867 143.24ZM260.899 138.845C260.899 136.31 259.564 134.81 257.314 134.81C254.989 134.81 253.699 136.67 253.699 139.07C253.699 141.56 255.034 143.24 257.584 143.24C258.829 143.24 259.819 142.79 260.599 142.16L259.714 140.96C259.024 141.44 258.454 141.65 257.779 141.65C256.759 141.65 256.039 141.2 255.889 139.67H260.854C260.869 139.445 260.899 139.115 260.899 138.845ZM258.784 138.335H255.889C256.009 136.82 256.519 136.265 257.359 136.265C258.379 136.265 258.784 137.045 258.784 138.245V138.335Z" fill="#F0F0EE"/>
<path d="M293.07 141.26C292.74 141.455 292.455 141.545 292.17 141.545C291.63 141.545 291.375 141.245 291.375 140.465V136.55H292.995L293.205 135.05H291.375V133.055L289.245 133.31V135.05H288.06V136.55H289.245V140.51C289.245 142.28 290.085 143.225 291.735 143.24C292.44 143.24 293.22 143.03 293.805 142.625L293.07 141.26ZM300.823 140.795V137.585C300.823 135.785 299.878 134.81 297.673 134.81C296.773 134.81 295.723 135.005 294.733 135.395L295.213 136.82C296.023 136.55 296.788 136.4 297.313 136.4C298.318 136.4 298.738 136.715 298.738 137.705V138.095H297.823C295.468 138.095 294.163 139.04 294.163 140.78C294.163 142.22 295.153 143.24 296.743 143.24C297.688 143.24 298.558 142.91 299.128 142.055C299.458 142.835 300.058 143.12 300.958 143.21L301.408 141.8C301.018 141.665 300.823 141.44 300.823 140.795ZM297.328 141.71C296.668 141.71 296.308 141.305 296.308 140.6C296.308 139.73 296.878 139.31 298.033 139.31H298.738V140.825C298.408 141.395 297.943 141.71 297.328 141.71ZM307.211 134.81C306.356 134.81 305.576 135.23 305.081 135.905V131.645L302.951 131.885V143H304.841L304.961 142.22C305.456 142.85 306.161 143.24 307.046 143.24C309.011 143.24 310.196 141.485 310.196 139.025C310.196 136.37 309.131 134.81 307.211 134.81ZM306.461 141.665C305.891 141.665 305.411 141.35 305.081 140.825V137.405C305.441 136.805 305.921 136.385 306.551 136.385C307.391 136.385 307.976 136.955 307.976 139.025C307.976 140.96 307.346 141.665 306.461 141.665ZM313.867 143.24C314.407 143.24 314.887 143.12 315.232 142.97L314.797 141.455C314.677 141.515 314.542 141.545 314.377 141.545C314.077 141.545 313.942 141.365 313.942 141.02V131.645L311.812 131.885V141.08C311.812 142.46 312.577 143.24 313.867 143.24ZM322.899 138.845C322.899 136.31 321.564 134.81 319.314 134.81C316.989 134.81 315.699 136.67 315.699 139.07C315.699 141.56 317.034 143.24 319.584 143.24C320.829 143.24 321.819 142.79 322.599 142.16L321.714 140.96C321.024 141.44 320.454 141.65 319.779 141.65C318.759 141.65 318.039 141.2 317.889 139.67H322.854C322.869 139.445 322.899 139.115 322.899 138.845ZM320.784 138.335H317.889C318.009 136.82 318.519 136.265 319.359 136.265C320.379 136.265 320.784 137.045 320.784 138.245V138.335Z" fill="#F0F0EE"/>
<path d="M355.07 141.26C354.74 141.455 354.455 141.545 354.17 141.545C353.63 141.545 353.375 141.245 353.375 140.465V136.55H354.995L355.205 135.05H353.375V133.055L351.245 133.31V135.05H350.06V136.55H351.245V140.51C351.245 142.28 352.085 143.225 353.735 143.24C354.44 143.24 355.22 143.03 355.805 142.625L355.07 141.26ZM362.823 140.795V137.585C362.823 135.785 361.878 134.81 359.673 134.81C358.773 134.81 357.723 135.005 356.733 135.395L357.213 136.82C358.023 136.55 358.788 136.4 359.313 136.4C360.318 136.4 360.738 136.715 360.738 137.705V138.095H359.823C357.468 138.095 356.163 139.04 356.163 140.78C356.163 142.22 357.153 143.24 358.743 143.24C359.688 143.24 360.558 142.91 361.128 142.055C361.458 142.835 362.058 143.12 362.958 143.21L363.408 141.8C363.018 141.665 362.823 141.44 362.823 140.795ZM359.328 141.71C358.668 141.71 358.308 141.305 358.308 140.6C358.308 139.73 358.878 139.31 360.033 139.31H360.738V140.825C360.408 141.395 359.943 141.71 359.328 141.71ZM369.211 134.81C368.356 134.81 367.576 135.23 367.081 135.905V131.645L364.951 131.885V143H366.841L366.961 142.22C367.456 142.85 368.161 143.24 369.046 143.24C371.011 143.24 372.196 141.485 372.196 139.025C372.196 136.37 371.131 134.81 369.211 134.81ZM368.461 141.665C367.891 141.665 367.411 141.35 367.081 140.825V137.405C367.441 136.805 367.921 136.385 368.551 136.385C369.391 136.385 369.976 136.955 369.976 139.025C369.976 140.96 369.346 141.665 368.461 141.665ZM375.867 143.24C376.407 143.24 376.887 143.12 377.232 142.97L376.797 141.455C376.677 141.515 376.542 141.545 376.377 141.545C376.077 141.545 375.942 141.365 375.942 141.02V131.645L373.812 131.885V141.08C373.812 142.46 374.577 143.24 375.867 143.24ZM384.899 138.845C384.899 136.31 383.564 134.81 381.314 134.81C378.989 134.81 377.699 136.67 377.699 139.07C377.699 141.56 379.034 143.24 381.584 143.24C382.829 143.24 383.819 142.79 384.599 142.16L383.714 140.96C383.024 141.44 382.454 141.65 381.779 141.65C380.759 141.65 380.039 141.2 379.889 139.67H384.854C384.869 139.445 384.899 139.115 384.899 138.845ZM382.784 138.335H379.889C380.009 136.82 380.519 136.265 381.359 136.265C382.379 136.265 382.784 137.045 382.784 138.245V138.335Z" fill="#F0F0EE"/>
<path d="M417.07 141.26C416.74 141.455 416.455 141.545 416.17 141.545C415.63 141.545 415.375 141.245 415.375 140.465V136.55H416.995L417.205 135.05H415.375V133.055L413.245 133.31V135.05H412.06V136.55H413.245V140.51C413.245 142.28 414.085 143.225 415.735 143.24C416.44 143.24 417.22 143.03 417.805 142.625L417.07 141.26ZM424.823 140.795V137.585C424.823 135.785 423.878 134.81 421.673 134.81C420.773 134.81 419.723 135.005 418.733 135.395L419.213 136.82C420.023 136.55 420.788 136.4 421.313 136.4C422.318 136.4 422.738 136.715 422.738 137.705V138.095H421.823C419.468 138.095 418.163 139.04 418.163 140.78C418.163 142.22 419.153 143.24 420.743 143.24C421.688 143.24 422.558 142.91 423.128 142.055C423.458 142.835 424.058 143.12 424.958 143.21L425.408 141.8C425.018 141.665 424.823 141.44 424.823 140.795ZM421.328 141.71C420.668 141.71 420.308 141.305 420.308 140.6C420.308 139.73 420.878 139.31 422.033 139.31H422.738V140.825C422.408 141.395 421.943 141.71 421.328 141.71ZM431.211 134.81C430.356 134.81 429.576 135.23 429.081 135.905V131.645L426.951 131.885V143H428.841L428.961 142.22C429.456 142.85 430.161 143.24 431.046 143.24C433.011 143.24 434.196 141.485 434.196 139.025C434.196 136.37 433.131 134.81 431.211 134.81ZM430.461 141.665C429.891 141.665 429.411 141.35 429.081 140.825V137.405C429.441 136.805 429.921 136.385 430.551 136.385C431.391 136.385 431.976 136.955 431.976 139.025C431.976 140.96 431.346 141.665 430.461 141.665ZM437.867 143.24C438.407 143.24 438.887 143.12 439.232 142.97L438.797 141.455C438.677 141.515 438.542 141.545 438.377 141.545C438.077 141.545 437.942 141.365 437.942 141.02V131.645L435.812 131.885V141.08C435.812 142.46 436.577 143.24 437.867 143.24ZM446.899 138.845C446.899 136.31 445.564 134.81 443.314 134.81C440.989 134.81 439.699 136.67 439.699 139.07C439.699 141.56 441.034 143.24 443.584 143.24C444.829 143.24 445.819 142.79 446.599 142.16L445.714 140.96C445.024 141.44 444.454 141.65 443.779 141.65C442.759 141.65 442.039 141.2 441.889 139.67H446.854C446.869 139.445 446.899 139.115 446.899 138.845ZM444.784 138.335H441.889C442.009 136.82 442.519 136.265 443.359 136.265C444.379 136.265 444.784 137.045 444.784 138.245V138.335Z" fill="#F0F0EE"/>
<path d="M479.07 141.26C478.74 141.455 478.455 141.545 478.17 141.545C477.63 141.545 477.375 141.245 477.375 140.465V136.55H478.995L479.205 135.05H477.375V133.055L475.245 133.31V135.05H474.06V136.55H475.245V140.51C475.245 142.28 476.085 143.225 477.735 143.24C478.44 143.24 479.22 143.03 479.805 142.625L479.07 141.26ZM486.823 140.795V137.585C486.823 135.785 485.878 134.81 483.673 134.81C482.773 134.81 481.723 135.005 480.733 135.395L481.213 136.82C482.023 136.55 482.788 136.4 483.313 136.4C484.318 136.4 484.738 136.715 484.738 137.705V138.095H483.823C481.468 138.095 480.163 139.04 480.163 140.78C480.163 142.22 481.153 143.24 482.743 143.24C483.688 143.24 484.558 142.91 485.128 142.055C485.458 142.835 486.058 143.12 486.958 143.21L487.408 141.8C487.018 141.665 486.823 141.44 486.823 140.795ZM483.328 141.71C482.668 141.71 482.308 141.305 482.308 140.6C482.308 139.73 482.878 139.31 484.033 139.31H484.738V140.825C484.408 141.395 483.943 141.71 483.328 141.71ZM493.211 134.81C492.356 134.81 491.576 135.23 491.081 135.905V131.645L488.951 131.885V143H490.841L490.961 142.22C491.456 142.85 492.161 143.24 493.046 143.24C495.011 143.24 496.196 141.485 496.196 139.025C496.196 136.37 495.131 134.81 493.211 134.81ZM492.461 141.665C491.891 141.665 491.411 141.35 491.081 140.825V137.405C491.441 136.805 491.921 136.385 492.551 136.385C493.391 136.385 493.976 136.955 493.976 139.025C493.976 140.96 493.346 141.665 492.461 141.665ZM499.867 143.24C500.407 143.24 500.887 143.12 501.232 142.97L500.797 141.455C500.677 141.515 500.542 141.545 500.377 141.545C500.077 141.545 499.942 141.365 499.942 141.02V131.645L497.812 131.885V141.08C497.812 142.46 498.577 143.24 499.867 143.24ZM508.899 138.845C508.899 136.31 507.564 134.81 505.314 134.81C502.989 134.81 501.699 136.67 501.699 139.07C501.699 141.56 503.034 143.24 505.584 143.24C506.829 143.24 507.819 142.79 508.599 142.16L507.714 140.96C507.024 141.44 506.454 141.65 505.779 141.65C504.759 141.65 504.039 141.2 503.889 139.67H508.854C508.869 139.445 508.899 139.115 508.899 138.845ZM506.784 138.335H503.889C504.009 136.82 504.519 136.265 505.359 136.265C506.379 136.265 506.784 137.045 506.784 138.245V138.335Z" fill="#F0F0EE"/>
<path d="M541.07 141.26C540.74 141.455 540.455 141.545 540.17 141.545C539.63 141.545 539.375 141.245 539.375 140.465V136.55H540.995L541.205 135.05H539.375V133.055L537.245 133.31V135.05H536.06V136.55H537.245V140.51C537.245 142.28 538.085 143.225 539.735 143.24C540.44 143.24 541.22 143.03 541.805 142.625L541.07 141.26ZM548.823 140.795V137.585C548.823 135.785 547.878 134.81 545.673 134.81C544.773 134.81 543.723 135.005 542.733 135.395L543.213 136.82C544.023 136.55 544.788 136.4 545.313 136.4C546.318 136.4 546.738 136.715 546.738 137.705V138.095H545.823C543.468 138.095 542.163 139.04 542.163 140.78C542.163 142.22 543.153 143.24 544.743 143.24C545.688 143.24 546.558 142.91 547.128 142.055C547.458 142.835 548.058 143.12 548.958 143.21L549.408 141.8C549.018 141.665 548.823 141.44 548.823 140.795ZM545.328 141.71C544.668 141.71 544.308 141.305 544.308 140.6C544.308 139.73 544.878 139.31 546.033 139.31H546.738V140.825C546.408 141.395 545.943 141.71 545.328 141.71ZM555.211 134.81C554.356 134.81 553.576 135.23 553.081 135.905V131.645L550.951 131.885V143H552.841L552.961 142.22C553.456 142.85 554.161 143.24 555.046 143.24C557.011 143.24 558.196 141.485 558.196 139.025C558.196 136.37 557.131 134.81 555.211 134.81ZM554.461 141.665C553.891 141.665 553.411 141.35 553.081 140.825V137.405C553.441 136.805 553.921 136.385 554.551 136.385C555.391 136.385 555.976 136.955 555.976 139.025C555.976 140.96 555.346 141.665 554.461 141.665ZM561.867 143.24C562.407 143.24 562.887 143.12 563.232 142.97L562.797 141.455C562.677 141.515 562.542 141.545 562.377 141.545C562.077 141.545 561.942 141.365 561.942 141.02V131.645L559.812 131.885V141.08C559.812 142.46 560.577 143.24 561.867 143.24ZM570.899 138.845C570.899 136.31 569.564 134.81 567.314 134.81C564.989 134.81 563.699 136.67 563.699 139.07C563.699 141.56 565.034 143.24 567.584 143.24C568.829 143.24 569.819 142.79 570.599 142.16L569.714 140.96C569.024 141.44 568.454 141.65 567.779 141.65C566.759 141.65 566.039 141.2 565.889 139.67H570.854C570.869 139.445 570.899 139.115 570.899 138.845ZM568.784 138.335H565.889C566.009 136.82 566.519 136.265 567.359 136.265C568.379 136.265 568.784 137.045 568.784 138.245V138.335Z" fill="#F0F0EE"/>
<path d="M603.07 141.26C602.74 141.455 602.455 141.545 602.17 141.545C601.63 141.545 601.375 141.245 601.375 140.465V136.55H602.995L603.205 135.05H601.375V133.055L599.245 133.31V135.05H598.06V136.55H599.245V140.51C599.245 142.28 600.085 143.225 601.735 143.24C602.44 143.24 603.22 143.03 603.805 142.625L603.07 141.26ZM610.823 140.795V137.585C610.823 135.785 609.878 134.81 607.673 134.81C606.773 134.81 605.723 135.005 604.733 135.395L605.213 136.82C606.023 136.55 606.788 136.4 607.313 136.4C608.318 136.4 608.738 136.715 608.738 137.705V138.095H607.823C605.468 138.095 604.163 139.04 604.163 140.78C604.163 142.22 605.153 143.24 606.743 143.24C607.688 143.24 608.558 142.91 609.128 142.055C609.458 142.835 610.058 143.12 610.958 143.21L611.408 141.8C611.018 141.665 610.823 141.44 610.823 140.795ZM607.328 141.71C606.668 141.71 606.308 141.305 606.308 140.6C606.308 139.73 606.878 139.31 608.033 139.31H608.738V140.825C608.408 141.395 607.943 141.71 607.328 141.71ZM617.211 134.81C616.356 134.81 615.576 135.23 615.081 135.905V131.645L612.951 131.885V143H614.841L614.961 142.22C615.456 142.85 616.161 143.24 617.046 143.24C619.011 143.24 620.196 141.485 620.196 139.025C620.196 136.37 619.131 134.81 617.211 134.81ZM616.461 141.665C615.891 141.665 615.411 141.35 615.081 140.825V137.405C615.441 136.805 615.921 136.385 616.551 136.385C617.391 136.385 617.976 136.955 617.976 139.025C617.976 140.96 617.346 141.665 616.461 141.665ZM623.867 143.24C624.407 143.24 624.887 143.12 625.232 142.97L624.797 141.455C624.677 141.515 624.542 141.545 624.377 141.545C624.077 141.545 623.942 141.365 623.942 141.02V131.645L621.812 131.885V141.08C621.812 142.46 622.577 143.24 623.867 143.24ZM632.899 138.845C632.899 136.31 631.564 134.81 629.314 134.81C626.989 134.81 625.699 136.67 625.699 139.07C625.699 141.56 627.034 143.24 629.584 143.24C630.829 143.24 631.819 142.79 632.599 142.16L631.714 140.96C631.024 141.44 630.454 141.65 629.779 141.65C628.759 141.65 628.039 141.2 627.889 139.67H632.854C632.869 139.445 632.899 139.115 632.899 138.845ZM630.784 138.335H627.889C628.009 136.82 628.519 136.265 629.359 136.265C630.379 136.265 630.784 137.045 630.784 138.245V138.335Z" fill="#F0F0EE"/>
<rect x="27" y="153" width="617" height="27" fill="#284660"/>
<rect x="27" y="207" width="617" height="26" fill="#284660"/>
<rect x="27" y="260" width="617" height="27" fill="#284660"/>
<g clip-path="url(#clip1)">
<path d="M158 599.359L160.022 601.57L162.045 624.244L164.068 619.811L166.098 616.303L168.121 609.016L170.143 610.617L172.166 610.471L174.188 614.34L176.211 611.903L178.241 610.144L180.264 619.958L182.286 615.93L184.309 624.944L186.331 619.495L188.354 614.69L190.385 612.027L192.407 609.918L194.43 603.973L196.452 608L198.475 605.045L200.497 607.267L202.52 603.308L204.55 606.692L206.573 601.661L208.595 598.051L210.618 599.359L212.641 598.209L214.663 595.005L216.694 594.159L218.716 591.869L220.739 596.686L222.761 599.247L224.784 596.359L226.806 598.886L228.837 594.024L230.859 595.445L232.882 592.287L234.904 589.489L236.927 587.921L238.95 585.394L240.98 582.664L243.003 582.36L245.025 581.13L247.048 584.548L249.07 578.829L251.093 579.573L253.115 579.562L255.146 578.242L257.168 577.34L259.191 579.088L261.213 577.791L263.236 576.313L265.259 572.061L267.289 570.583L269.312 566.33L271.334 565.394L273.357 562.619L275.379 564.187L277.402 560.126L279.432 553.831L281.455 569.015L283.477 572.501L285.5 584.041L287.523 575.93L289.545 583.206L291.568 582.991L293.598 577.566L295.621 575.456L297.643 577.126L299.666 580.792L301.688 587.199L303.711 591.734L305.741 587.628L307.764 597.081L309.786 596.02L311.809 589.568L313.831 582.834L315.854 585.078L317.884 581.965L319.907 579.314L321.93 583.262L323.952 575.964L325.975 581.92L327.997 574.734L330.02 571L332.05 567.221L334.073 560.34L336.095 563.172L338.118 565.89L340.141 566.42L342.163 566.68L344.194 573.189L346.216 571.497L348.239 572.298L350.261 569.985L352.284 568.541L354.306 576.415L356.337 577.859L358.359 592.117L360.382 588.023L362.404 592.264L364.427 587.752L366.45 580.566L368.48 571.305L370.503 563.036L372.525 563.138L374.548 557.712L376.57 558.355L378.593 555.106L380.615 559.37L382.646 553.346L384.668 547.83L386.691 550.233L388.713 555.591L390.736 553.741L392.759 556.764L394.789 554.136L396.812 547.029L398.834 547.717L400.857 546.477L402.879 548.462L404.902 543.577L406.932 542.63L408.955 542.754L410.977 538.851L413 539.787L415.023 538.456L417.045 542.551L419.068 542.698L421.098 543.228L423.121 545.258L425.143 539.167L427.166 538.456L429.188 535.907L431.211 539.674L433.241 541.31L435.264 542.066L437.286 541.66L439.309 539.9L441.331 535.986L443.354 536.866L445.384 536.211L447.407 533.876L449.43 540.159L451.452 537.023L453.475 534.294L455.497 527.446L457.52 524.784L459.55 527.954L461.573 527.852L463.595 526.589L465.618 528.236L467.641 531.631L469.663 527.999L471.694 521.535L473.716 521.107L475.739 522.776L477.761 520.915L479.784 521.659L481.806 533.233L483.837 529.251L485.859 538.58L487.882 530.988L489.904 524.423L491.927 524.051L493.95 518.704L495.98 516.82L498.003 513.368L500.025 513.695L502.048 513.898L504.07 513.12L506.093 510.74L508.115 511.169L510.146 511.056L512.168 513.109L514.191 513.966L516.213 517.666L518.236 517.08L520.259 511.812L522.289 523.464L524.312 525.89L526.334 514.519L528.357 518.264L530.379 524.581L532.402 530.402L534.432 521.851L536.455 524.209L538.477 517.486L540.5 514.519L542.523 509.646L544.545 508.991L546.568 506.092L548.598 506.713L550.621 505.043L552.643 512.173L554.666 514.643L556.688 510.808L558.711 514.62L560.741 517.057L562.764 514.372L564.786 506.623L566.809 506.871L568.831 508.168L570.854 506.194L572.885 500.915L574.907 493.819L576.93 494.124L578.952 493.537L580.975 491.157L582.997 487.491L585.02 487.31L587.05 485.81L589.073 487.547L591.095 482.099L593.118 480.384L595.141 482.911L597.163 486.656L599.194 481.851L601.216 486.532L603.239 481.016L605.261 479.944L607.284 480.057L609.306 480.204L611.337 476.921L613.359 480.328L615.382 479.222L617.404 482.403L619.427 482.245L621.45 478.151L623.48 474.383L625.502 479.538L627.525 484.141L629.548 494.992L631.57 488.991L633.593 481.219L635.615 482.527L637.646 486.938L639.668 488.269L641.691 482.821L643.713 483.238L645.736 478.027L647.759 479.166L649.789 478.151L651.812 477.88L653.834 476.955L655.857 477.406L657.879 476.594L659.902 478.512L661.932 473.796L663.955 474.304L665.977 474.191L668 473.65L1744.31 440V1568.05H-635.157" fill="url(#paint0_linear)"/>
<path d="M158 599.359L160.022 601.57L162.045 624.244L164.068 619.811L166.098 616.303L168.121 609.016L170.143 610.617L172.166 610.471L174.188 614.34L176.211 611.903L178.241 610.144L180.264 619.958L182.286 615.93L184.309 624.944L186.331 619.495L188.354 614.69L190.385 612.027L192.407 609.918L194.43 603.973L196.452 608L198.475 605.045L200.497 607.267L202.52 603.308L204.55 606.692L206.573 601.661L208.595 598.051L210.618 599.359L212.641 598.209L214.663 595.005L216.694 594.159L218.716 591.869L220.739 596.686L222.761 599.247L224.784 596.359L226.806 598.886L228.837 594.024L230.859 595.445L232.882 592.287L234.904 589.489L236.927 587.921L238.95 585.394L240.98 582.664L243.003 582.36L245.025 581.13L247.048 584.548L249.07 578.829L251.093 579.573L253.115 579.562L255.146 578.242L257.168 577.34L259.191 579.088L261.213 577.791L263.236 576.313L265.259 572.061L267.289 570.583L269.312 566.33L271.334 565.394L273.357 562.619L275.379 564.187L277.402 560.126L279.432 553.831L281.455 569.015L283.477 572.501L285.5 584.041L287.523 575.93L289.545 583.206L291.568 582.991L293.598 577.566L295.621 575.456L297.643 577.126L299.666 580.792L301.688 587.199L303.711 591.734L305.741 587.628L307.764 597.081L309.786 596.02L311.809 589.568L313.831 582.834L315.854 585.078L317.884 581.965L319.907 579.314L321.93 583.262L323.952 575.964L325.975 581.92L327.997 574.734L330.02 571L332.05 567.221L334.073 560.34L336.095 563.172L338.118 565.89L340.141 566.42L342.163 566.68L344.194 573.189L346.216 571.497L348.239 572.298L350.261 569.985L352.284 568.541L354.306 576.415L356.337 577.859L358.359 592.117L360.382 588.023L362.404 592.264L364.427 587.752L366.45 580.566L368.48 571.305L370.503 563.036L372.525 563.138L374.548 557.712L376.57 558.355L378.593 555.106L380.615 559.37L382.646 553.346L384.668 547.83L386.691 550.233L388.713 555.591L390.736 553.741L392.759 556.764L394.789 554.136L396.812 547.029L398.834 547.717L400.857 546.477L402.879 548.462L404.902 543.577L406.932 542.63L408.955 542.754L410.977 538.851L413 539.787L415.023 538.456L417.045 542.551L419.068 542.698L421.098 543.228L423.121 545.258L425.143 539.167L427.166 538.456L429.188 535.907L431.211 539.674L433.241 541.31L435.264 542.066L437.286 541.66L439.309 539.9L441.331 535.986L443.354 536.866L445.384 536.211L447.407 533.876L449.43 540.159L451.452 537.023L453.475 534.294L455.497 527.446L457.52 524.784L459.55 527.954L461.573 527.852L463.595 526.589L465.618 528.236L467.641 531.631L469.663 527.999L471.694 521.535L473.716 521.107L475.739 522.776L477.761 520.915L479.784 521.659L481.806 533.233L483.837 529.251L485.859 538.58L487.882 530.988L489.904 524.423L491.927 524.051L493.95 518.704L495.98 516.82L498.003 513.368L500.025 513.695L502.048 513.898L504.07 513.12L506.093 510.74L508.115 511.169L510.146 511.056L512.168 513.109L514.191 513.966L516.213 517.666L518.236 517.08L520.259 511.812L522.289 523.464L524.312 525.89L526.334 514.519L528.357 518.264L530.379 524.581L532.402 530.402L534.432 521.851L536.455 524.209L538.477 517.486L540.5 514.519L542.523 509.646L544.545 508.991L546.568 506.092L548.598 506.713L550.621 505.043L552.643 512.173L554.666 514.643L556.688 510.808L558.711 514.62L560.741 517.057L562.764 514.372L564.786 506.623L566.809 506.871L568.831 508.168L570.854 506.194L572.885 500.915L574.907 493.819L576.93 494.124L578.952 493.537L580.975 491.157L582.997 487.491L585.02 487.31L587.05 485.81L589.073 487.547L591.095 482.099L593.118 480.384L595.141 482.911L597.163 486.656L599.194 481.851L601.216 486.532L603.239 481.016L605.261 479.944L607.284 480.057L609.306 480.204L611.337 476.921L613.359 480.328L615.382 479.222L617.404 482.403L619.427 482.245L621.45 478.151L623.48 474.383L625.502 479.538L627.525 484.141L629.548 494.992L631.57 488.991L633.593 481.219L635.615 482.527L637.646 486.938L639.668 488.269L641.691 482.821L643.713 483.238L645.736 478.027L647.759 479.166L649.789 478.151L651.812 477.88L653.834 476.955L655.857 477.406L657.879 476.594L659.902 478.512L661.932 473.796L663.955 474.304L665.977 474.191L668 473.65L1744.31 440V1568.05H-635.157" stroke="#76D9E4" stroke-width="2"/>
<path d="M298.165 481.942C296.53 481.942 295.285 482.857 295.285 484.312V485.887H293.41V486.892H295.285V493.177H296.56V486.892H299.095L299.23 485.887H296.56V484.282C296.56 483.412 297.115 482.977 298.21 482.977C298.81 482.977 299.395 483.082 299.905 483.307L300.31 482.362C299.695 482.107 299.02 481.942 298.165 481.942ZM308.164 491.452V487.657C308.164 486.097 307.174 485.107 305.209 485.107C304.429 485.107 303.589 485.257 302.614 485.602L302.959 486.562C303.769 486.277 304.489 486.157 305.014 486.157C306.184 486.157 306.889 486.577 306.889 487.732V488.377H305.719C303.334 488.377 302.029 489.292 302.029 490.912C302.029 492.382 302.989 493.342 304.579 493.342C305.599 493.342 306.484 492.967 307.054 492.232C307.264 492.952 307.819 493.267 308.494 493.357L308.809 492.457C308.359 492.322 308.164 492.082 308.164 491.452ZM304.894 492.397C303.859 492.397 303.379 491.887 303.379 490.897C303.379 489.877 304.009 489.247 305.749 489.247H306.889V491.272C306.424 491.977 305.674 492.397 304.894 492.397ZM312.838 481.942L311.578 482.092V493.177H312.838V481.942ZM318.103 485.272H316.483L312.973 488.857L316.858 493.177H318.523L314.563 488.842L318.103 485.272ZM321.487 489.667H326.797C326.812 489.502 326.827 489.262 326.827 488.992C326.827 486.592 325.597 485.107 323.602 485.107C321.502 485.107 320.167 486.847 320.167 489.232C320.167 491.692 321.472 493.342 323.782 493.342C324.757 493.342 325.747 492.997 326.482 492.427L325.897 491.587C325.192 492.052 324.592 492.292 323.782 492.292C322.567 492.292 321.547 491.497 321.487 489.667ZM323.617 486.142C324.817 486.142 325.567 487.012 325.597 488.707H321.487C321.592 486.967 322.447 486.142 323.617 486.142ZM344.141 491.452V487.657C344.141 486.097 343.151 485.107 341.186 485.107C340.406 485.107 339.566 485.257 338.591 485.602L338.936 486.562C339.746 486.277 340.466 486.157 340.991 486.157C342.161 486.157 342.866 486.577 342.866 487.732V488.377H341.696C339.311 488.377 338.006 489.292 338.006 490.912C338.006 492.382 338.966 493.342 340.556 493.342C341.576 493.342 342.461 492.967 343.031 492.232C343.241 492.952 343.796 493.267 344.471 493.357L344.786 492.457C344.336 492.322 344.141 492.082 344.141 491.452ZM340.871 492.397C339.836 492.397 339.356 491.887 339.356 490.897C339.356 489.877 339.986 489.247 341.726 489.247H342.866V491.272C342.401 491.977 341.651 492.397 340.871 492.397ZM347.465 493.177H348.725V487.432C349.145 486.802 349.94 486.112 350.87 486.112C352.055 486.112 352.22 486.757 352.22 488.377V493.177H353.48V487.447C353.48 485.977 352.805 485.107 351.26 485.107C350.33 485.107 349.28 485.572 348.65 486.382L348.545 485.272H347.465V493.177ZM359.459 481.582C358.919 481.582 358.559 481.957 358.559 482.467C358.559 482.977 358.919 483.352 359.459 483.352C360.014 483.352 360.389 482.977 360.389 482.467C360.389 481.957 360.014 481.582 359.459 481.582ZM360.464 485.272H356.849V486.277H359.204V492.172H356.774V493.177H362.684V492.172H360.464V485.272ZM370.658 485.107C369.863 485.107 369.353 485.527 368.918 486.157C368.678 485.347 368.093 485.107 367.493 485.107C366.698 485.107 366.203 485.587 365.783 486.202L365.693 485.272H364.718V493.177H365.873V487.042C366.308 486.367 366.758 486.097 367.253 486.097C367.823 486.097 367.868 486.502 367.868 487.507V493.177H369.038V487.042C369.473 486.367 369.938 486.097 370.418 486.097C370.988 486.097 371.033 486.502 371.033 487.507V493.177H372.188V487.297C372.188 485.482 371.423 485.107 370.658 485.107ZM380.117 491.452V487.657C380.117 486.097 379.127 485.107 377.162 485.107C376.382 485.107 375.542 485.257 374.567 485.602L374.912 486.562C375.722 486.277 376.442 486.157 376.967 486.157C378.137 486.157 378.842 486.577 378.842 487.732V488.377H377.672C375.287 488.377 373.982 489.292 373.982 490.912C373.982 492.382 374.942 493.342 376.532 493.342C377.552 493.342 378.437 492.967 379.007 492.232C379.217 492.952 379.772 493.267 380.447 493.357L380.762 492.457C380.312 492.322 380.117 492.082 380.117 491.452ZM376.847 492.397C375.812 492.397 375.332 491.887 375.332 490.897C375.332 489.877 375.962 489.247 377.702 489.247H378.842V491.272C378.377 491.977 377.627 492.397 376.847 492.397ZM389.726 492.772L389.231 491.917C388.811 492.142 388.301 492.292 387.716 492.292C386.636 492.292 386.201 491.827 386.201 490.957V486.262H388.781L388.946 485.272H386.201V483.337L384.941 483.487V485.272H383.126V486.262H384.941V490.972C384.941 492.352 385.901 493.342 387.596 493.342C388.346 493.342 389.171 493.132 389.726 492.772ZM395.436 481.582C394.896 481.582 394.536 481.957 394.536 482.467C394.536 482.977 394.896 483.352 395.436 483.352C395.991 483.352 396.366 482.977 396.366 482.467C396.366 481.957 395.991 481.582 395.436 481.582ZM396.441 485.272H392.826V486.277H395.181V492.172H392.751V493.177H398.661V492.172H396.441V485.272ZM404.445 485.107C402.225 485.107 401.025 486.802 401.025 489.232C401.025 491.722 402.21 493.342 404.43 493.342C406.635 493.342 407.835 491.647 407.835 489.217C407.835 486.727 406.665 485.107 404.445 485.107ZM404.445 486.142C405.795 486.142 406.47 487.132 406.47 489.217C406.47 491.332 405.795 492.307 404.43 492.307C403.065 492.307 402.39 491.332 402.39 489.232C402.39 487.132 403.08 486.142 404.445 486.142ZM410.424 493.177H411.684V487.432C412.104 486.802 412.899 486.112 413.829 486.112C415.014 486.112 415.179 486.757 415.179 488.377V493.177H416.439V487.447C416.439 485.977 415.764 485.107 414.219 485.107C413.289 485.107 412.239 485.572 411.609 486.382L411.504 485.272H410.424V493.177ZM434.697 492.772L434.202 491.917C433.782 492.142 433.272 492.292 432.687 492.292C431.607 492.292 431.172 491.827 431.172 490.957V486.262H433.752L433.917 485.272H431.172V483.337L429.912 483.487V485.272H428.097V486.262H429.912V490.972C429.912 492.352 430.872 493.342 432.567 493.342C433.317 493.342 434.142 493.132 434.697 492.772ZM440.406 481.582C439.866 481.582 439.506 481.957 439.506 482.467C439.506 482.977 439.866 483.352 440.406 483.352C440.961 483.352 441.336 482.977 441.336 482.467C441.336 481.957 440.961 481.582 440.406 481.582ZM441.411 485.272H437.796V486.277H440.151V492.172H437.721V493.177H443.631V492.172H441.411V485.272ZM449.985 492.262C448.62 492.262 447.63 491.377 447.63 489.262C447.63 487.177 448.605 486.172 449.97 486.172C450.675 486.172 451.335 486.412 452.01 486.862L452.625 486.037C451.89 485.422 451.005 485.107 449.985 485.107C447.63 485.107 446.265 486.892 446.265 489.262C446.265 491.737 447.615 493.342 449.985 493.342C450.9 493.342 451.965 492.982 452.64 492.397L452.04 491.572C451.44 491.977 450.78 492.262 449.985 492.262ZM456.745 481.942L455.485 482.092V493.177H456.745V481.942ZM462.01 485.272H460.39L456.88 488.857L460.765 493.177H462.43L458.47 488.842L462.01 485.272ZM467.389 481.582C466.849 481.582 466.489 481.957 466.489 482.467C466.489 482.977 466.849 483.352 467.389 483.352C467.944 483.352 468.319 482.977 468.319 482.467C468.319 481.957 467.944 481.582 467.389 481.582ZM468.394 485.272H464.779V486.277H467.134V492.172H464.704V493.177H470.614V492.172H468.394V485.272ZM473.383 493.177H474.643V487.432C475.063 486.802 475.858 486.112 476.788 486.112C477.973 486.112 478.138 486.757 478.138 488.377V493.177H479.398V487.447C479.398 485.977 478.723 485.107 477.178 485.107C476.248 485.107 475.198 485.572 474.568 486.382L474.463 485.272H473.383V493.177ZM488.812 484.447C487.882 484.837 487.192 485.107 485.212 485.107C483.337 485.107 482.062 486.247 482.062 487.852C482.062 488.872 482.482 489.562 483.382 490.027C482.812 490.402 482.512 490.912 482.512 491.407C482.512 492.202 483.127 492.907 484.507 492.907H485.917C486.922 492.907 487.687 493.282 487.687 494.032C487.687 494.887 486.922 495.337 485.197 495.337C483.427 495.337 483.007 494.902 483.007 493.972H481.867C481.867 495.577 482.677 496.357 485.197 496.357C487.597 496.357 488.962 495.502 488.962 493.957C488.962 492.727 487.762 491.812 486.172 491.812H484.747C483.937 491.812 483.697 491.512 483.697 491.137C483.697 490.852 483.877 490.552 484.102 490.372C484.447 490.492 484.762 490.537 485.287 490.537C487.162 490.537 488.257 489.412 488.257 487.852C488.257 486.952 487.807 486.277 486.877 485.857C487.762 485.857 488.527 485.842 489.187 485.632L488.812 484.447ZM485.197 486.037C486.367 486.037 486.952 486.652 486.952 487.837C486.952 489.007 486.352 489.697 485.227 489.697C483.937 489.697 483.352 488.932 483.352 487.852C483.352 486.787 483.922 486.037 485.197 486.037Z" fill="#F0F0EE"/>
</g>
<line x1="668" y1="637.5" x2="149" y2="637.5" stroke="#4E8CA0"/>
<path d="M227.165 214.765C225.53 214.765 224.285 215.68 224.285 217.135V218.71H222.41V219.715H224.285V226H225.56V219.715H228.095L228.23 218.71H225.56V217.105C225.56 216.235 226.115 215.8 227.21 215.8C227.81 215.8 228.395 215.905 228.905 216.13L229.31 215.185C228.695 214.93 228.02 214.765 227.165 214.765ZM237.164 224.275V220.48C237.164 218.92 236.174 217.93 234.209 217.93C233.429 217.93 232.589 218.08 231.614 218.425L231.959 219.385C232.769 219.1 233.489 218.98 234.014 218.98C235.184 218.98 235.889 219.4 235.889 220.555V221.2H234.719C232.334 221.2 231.029 222.115 231.029 223.735C231.029 225.205 231.989 226.165 233.579 226.165C234.599 226.165 235.484 225.79 236.054 225.055C236.264 225.775 236.819 226.09 237.494 226.18L237.809 225.28C237.359 225.145 237.164 224.905 237.164 224.275ZM233.894 225.22C232.859 225.22 232.379 224.71 232.379 223.72C232.379 222.7 233.009 222.07 234.749 222.07H235.889V224.095C235.424 224.8 234.674 225.22 233.894 225.22ZM241.838 214.765L240.578 214.915V226H241.838V214.765ZM247.103 218.095H245.483L241.973 221.68L245.858 226H247.523L243.563 221.665L247.103 218.095ZM250.487 222.49H255.797C255.812 222.325 255.827 222.085 255.827 221.815C255.827 219.415 254.597 217.93 252.602 217.93C250.502 217.93 249.167 219.67 249.167 222.055C249.167 224.515 250.472 226.165 252.782 226.165C253.757 226.165 254.747 225.82 255.482 225.25L254.897 224.41C254.192 224.875 253.592 225.115 252.782 225.115C251.567 225.115 250.547 224.32 250.487 222.49ZM252.617 218.965C253.817 218.965 254.567 219.835 254.597 221.53H250.487C250.592 219.79 251.447 218.965 252.617 218.965ZM273.141 224.275V220.48C273.141 218.92 272.151 217.93 270.186 217.93C269.406 217.93 268.566 218.08 267.591 218.425L267.936 219.385C268.746 219.1 269.466 218.98 269.991 218.98C271.161 218.98 271.866 219.4 271.866 220.555V221.2H270.696C268.311 221.2 267.006 222.115 267.006 223.735C267.006 225.205 267.966 226.165 269.556 226.165C270.576 226.165 271.461 225.79 272.031 225.055C272.241 225.775 272.796 226.09 273.471 226.18L273.786 225.28C273.336 225.145 273.141 224.905 273.141 224.275ZM269.871 225.22C268.836 225.22 268.356 224.71 268.356 223.72C268.356 222.7 268.986 222.07 270.726 222.07H271.866V224.095C271.401 224.8 270.651 225.22 269.871 225.22ZM276.465 226H277.725V220.255C278.145 219.625 278.94 218.935 279.87 218.935C281.055 218.935 281.22 219.58 281.22 221.2V226H282.48V220.27C282.48 218.8 281.805 217.93 280.26 217.93C279.33 217.93 278.28 218.395 277.65 219.205L277.545 218.095H276.465V226ZM288.459 214.405C287.919 214.405 287.559 214.78 287.559 215.29C287.559 215.8 287.919 216.175 288.459 216.175C289.014 216.175 289.389 215.8 289.389 215.29C289.389 214.78 289.014 214.405 288.459 214.405ZM289.464 218.095H285.849V219.1H288.204V224.995H285.774V226H291.684V224.995H289.464V218.095ZM299.658 217.93C298.863 217.93 298.353 218.35 297.918 218.98C297.678 218.17 297.093 217.93 296.493 217.93C295.698 217.93 295.203 218.41 294.783 219.025L294.693 218.095H293.718V226H294.873V219.865C295.308 219.19 295.758 218.92 296.253 218.92C296.823 218.92 296.868 219.325 296.868 220.33V226H298.038V219.865C298.473 219.19 298.938 218.92 299.418 218.92C299.988 218.92 300.033 219.325 300.033 220.33V226H301.188V220.12C301.188 218.305 300.423 217.93 299.658 217.93ZM309.117 224.275V220.48C309.117 218.92 308.127 217.93 306.162 217.93C305.382 217.93 304.542 218.08 303.567 218.425L303.912 219.385C304.722 219.1 305.442 218.98 305.967 218.98C307.137 218.98 307.842 219.4 307.842 220.555V221.2H306.672C304.287 221.2 302.982 222.115 302.982 223.735C302.982 225.205 303.942 226.165 305.532 226.165C306.552 226.165 307.437 225.79 308.007 225.055C308.217 225.775 308.772 226.09 309.447 226.18L309.762 225.28C309.312 225.145 309.117 224.905 309.117 224.275ZM305.847 225.22C304.812 225.22 304.332 224.71 304.332 223.72C304.332 222.7 304.962 222.07 306.702 222.07H307.842V224.095C307.377 224.8 306.627 225.22 305.847 225.22ZM318.726 225.595L318.231 224.74C317.811 224.965 317.301 225.115 316.716 225.115C315.636 225.115 315.201 224.65 315.201 223.78V219.085H317.781L317.946 218.095H315.201V216.16L313.941 216.31V218.095H312.126V219.085H313.941V223.795C313.941 225.175 314.901 226.165 316.596 226.165C317.346 226.165 318.171 225.955 318.726 225.595ZM324.436 214.405C323.896 214.405 323.536 214.78 323.536 215.29C323.536 215.8 323.896 216.175 324.436 216.175C324.991 216.175 325.366 215.8 325.366 215.29C325.366 214.78 324.991 214.405 324.436 214.405ZM325.441 218.095H321.826V219.1H324.181V224.995H321.751V226H327.661V224.995H325.441V218.095ZM333.445 217.93C331.225 217.93 330.025 219.625 330.025 222.055C330.025 224.545 331.21 226.165 333.43 226.165C335.635 226.165 336.835 224.47 336.835 222.04C336.835 219.55 335.665 217.93 333.445 217.93ZM333.445 218.965C334.795 218.965 335.47 219.955 335.47 222.04C335.47 224.155 334.795 225.13 333.43 225.13C332.065 225.13 331.39 224.155 331.39 222.055C331.39 219.955 332.08 218.965 333.445 218.965ZM339.424 226H340.684V220.255C341.104 219.625 341.899 218.935 342.829 218.935C344.014 218.935 344.179 219.58 344.179 221.2V226H345.439V220.27C345.439 218.8 344.764 217.93 343.219 217.93C342.289 217.93 341.239 218.395 340.609 219.205L340.504 218.095H339.424V226ZM363.697 225.595L363.202 224.74C362.782 224.965 362.272 225.115 361.687 225.115C360.607 225.115 360.172 224.65 360.172 223.78V219.085H362.752L362.917 218.095H360.172V216.16L358.912 216.31V218.095H357.097V219.085H358.912V223.795C358.912 225.175 359.872 226.165 361.567 226.165C362.317 226.165 363.142 225.955 363.697 225.595ZM369.406 214.405C368.866 214.405 368.506 214.78 368.506 215.29C368.506 215.8 368.866 216.175 369.406 216.175C369.961 216.175 370.336 215.8 370.336 215.29C370.336 214.78 369.961 214.405 369.406 214.405ZM370.411 218.095H366.796V219.1H369.151V224.995H366.721V226H372.631V224.995H370.411V218.095ZM378.985 225.085C377.62 225.085 376.63 224.2 376.63 222.085C376.63 220 377.605 218.995 378.97 218.995C379.675 218.995 380.335 219.235 381.01 219.685L381.625 218.86C380.89 218.245 380.005 217.93 378.985 217.93C376.63 217.93 375.265 219.715 375.265 222.085C375.265 224.56 376.615 226.165 378.985 226.165C379.9 226.165 380.965 225.805 381.64 225.22L381.04 224.395C380.44 224.8 379.78 225.085 378.985 225.085ZM385.745 214.765L384.485 214.915V226H385.745V214.765ZM391.01 218.095H389.39L385.88 221.68L389.765 226H391.43L387.47 221.665L391.01 218.095ZM396.389 214.405C395.849 214.405 395.489 214.78 395.489 215.29C395.489 215.8 395.849 216.175 396.389 216.175C396.944 216.175 397.319 215.8 397.319 215.29C397.319 214.78 396.944 214.405 396.389 214.405ZM397.394 218.095H393.779V219.1H396.134V224.995H393.704V226H399.614V224.995H397.394V218.095ZM402.383 226H403.643V220.255C404.063 219.625 404.858 218.935 405.788 218.935C406.973 218.935 407.138 219.58 407.138 221.2V226H408.398V220.27C408.398 218.8 407.723 217.93 406.178 217.93C405.248 217.93 404.198 218.395 403.568 219.205L403.463 218.095H402.383V226ZM417.812 217.27C416.882 217.66 416.192 217.93 414.212 217.93C412.337 217.93 411.062 219.07 411.062 220.675C411.062 221.695 411.482 222.385 412.382 222.85C411.812 223.225 411.512 223.735 411.512 224.23C411.512 225.025 412.127 225.73 413.507 225.73H414.917C415.922 225.73 416.687 226.105 416.687 226.855C416.687 227.71 415.922 228.16 414.197 228.16C412.427 228.16 412.007 227.725 412.007 226.795H410.867C410.867 228.4 411.677 229.18 414.197 229.18C416.597 229.18 417.962 228.325 417.962 226.78C417.962 225.55 416.762 224.635 415.172 224.635H413.747C412.937 224.635 412.697 224.335 412.697 223.96C412.697 223.675 412.877 223.375 413.102 223.195C413.447 223.315 413.762 223.36 414.287 223.36C416.162 223.36 417.257 222.235 417.257 220.675C417.257 219.775 416.807 219.1 415.877 218.68C416.762 218.68 417.527 218.665 418.187 218.455L417.812 217.27ZM414.197 218.86C415.367 218.86 415.952 219.475 415.952 220.66C415.952 221.83 415.352 222.52 414.227 222.52C412.937 222.52 412.352 221.755 412.352 220.675C412.352 219.61 412.922 218.86 414.197 218.86Z" fill="#F0F0EE"/>
<rect x="703" y="122" width="4" height="47" fill="#345D75"/>
<rect x="703" y="66" width="4" height="47" fill="#345D75"/>
<rect x="703" y="178" width="4" height="47" fill="#345D75"/>
<rect x="703" y="66" width="4" height="47" fill="#76D9E4"/>
<rect x="703" y="122" width="4" height="12" fill="#76D9E4"/>
</g>
<defs>
<filter id="filter0_d" x="49" y="34" width="669" height="588" filterUnits="userSpaceOnUse" color-interpolation-filters="sRGB">
<feFlood flood-opacity="0" result="BackgroundImageFix"/>
<feColorMatrix in="SourceAlpha" type="matrix" values="0 0 0 0 0 0 0 0 0 0 0 0 0 0 0 0 0 0 127 0"/>
<feOffset dy="4"/>
<feGaussianBlur stdDeviation="12"/>
<feColorMatrix type="matrix" values="0 0 0 0 0 0 0 0 0 0 0 0 0 0 0 0 0 0 0.25 0"/>
<feBlend mode="normal" in2="BackgroundImageFix" result="effect1_dropShadow"/>
<feBlend mode="normal" in="SourceGraphic" in2="effect1_dropShadow" result="shape"/>
</filter>
<filter id="filter1_d" x="81" y="427" width="609" height="251" filterUnits="userSpaceOnUse" color-interpolation-filters="sRGB">
<feFlood flood-opacity="0" result="BackgroundImageFix"/>
<feColorMatrix in="SourceAlpha" type="matrix" values="0 0 0 0 0 0 0 0 0 0 0 0 0 0 0 0 0 0 127 0"/>
<feOffset dy="4"/>
<feGaussianBlur stdDeviation="6"/>
<feColorMatrix type="matrix" values="0 0 0 0 0 0 0 0 0 0 0 0 0 0 0 0 0 0 0.25 0"/>
<feBlend mode="normal" in2="BackgroundImageFix" result="effect1_dropShadow"/>
<feBlend mode="normal" in="SourceGraphic" in2="effect1_dropShadow" result="shape"/>
</filter>
<filter id="filter2_d" x="15" y="111" width="641" height="209" filterUnits="userSpaceOnUse" color-interpolation-filters="sRGB">
<feFlood flood-opacity="0" result="BackgroundImageFix"/>
<feColorMatrix in="SourceAlpha" type="matrix" values="0 0 0 0 0 0 0 0 0 0 0 0 0 0 0 0 0 0 127 0"/>
<feOffset dy="4"/>
<feGaussianBlur stdDeviation="6"/>
<feColorMatrix type="matrix" values="0 0 0 0 0 0 0 0 0 0 0 0 0 0 0 0 0 0 0.25 0"/>
<feBlend mode="normal" in2="BackgroundImageFix" result="effect1_dropShadow"/>
<feBlend mode="normal" in="SourceGraphic" in2="effect1_dropShadow" result="shape"/>
</filter>
<linearGradient id="paint0_linear" x1="-635.157" y1="440" x2="-635.157" y2="1568.05" gradientUnits="userSpaceOnUse">
<stop stop-color="#76D9E4" stop-opacity="0.63"/>
<stop offset="0.13" stop-color="#76D9E4" stop-opacity="0"/>
<stop offset="0.625" stop-color="#76D9E4" stop-opacity="0"/>
</linearGradient>
<clipPath id="clip0">
<rect width="756" height="710" fill="white"/>
</clipPath>
<clipPath id="clip1">
<rect width="510" height="185" fill="white" transform="translate(158 440)"/>
</clipPath>
</defs>
</svg>
