<svg width="144" height="185" viewBox="0 0 144 185" fill="none" xmlns="http://www.w3.org/2000/svg">
<g clip-path="url(#clip0)">
<path d="M112.408 52.3317C113.688 52.8342 114.936 53.3251 116.148 53.8034L115.965 54.2685C116.483 54.473 116.995 54.6751 117.5 54.8749V56.5735H118V60.6505H117.5V64.7275H118V68.8045H117.5V72.8816H118V76.9586H117.5V81.0357H118V85.1127H117.5V89.1897H118V93.2668H117.5V97.3438H118V101.421H117.5V105.498H118V109.575H117.5V113.652H118V117.729H117.5V121.806H118V125.883H117.5V129.96H118V134.037H117.5V138.114H118V142.191H117.5V146.268H118V150.345H117.5V154.422H118V158.499H117.5V162.576H118V166.653H117.5V170.73H118V174.807H117.5V178.884H118V182.961H117.5V184.27L116.311 183.81L116.131 184.277L112.393 182.83L112.573 182.364L108.835 180.917L108.655 181.383L104.917 179.936L105.097 179.47L101.359 178.023L101.179 178.49L97.4405 177.043L97.621 176.576L93.8829 175.13L93.7024 175.596L89.9643 174.149L90.1448 173.683L86.4067 172.236L86.2262 172.702L82.4881 171.256L82.6686 170.789L78.9305 169.343L78.75 169.809L75.0119 168.362L75.1924 167.896L71.4543 166.449L71.2738 166.915L67.5357 165.469L67.7162 165.002L63.9781 163.555L63.7976 164.022L60.0595 162.575L60.24 162.109L56.5019 160.662L56.3214 161.128L52.5833 159.681L52.7638 159.215L49.0257 157.768L48.8452 158.235L45.1071 156.788L45.2876 156.322L41.5495 154.875L41.369 155.341L37.631 153.894L37.8114 153.428L34.0733 151.981L33.8929 152.448L30.1548 151.001L30.3352 150.535L26.5971 149.088L26.4167 149.554L22.6786 148.107L22.859 147.641L19.1209 146.194L18.9405 146.66L15.2024 145.214L15.3829 144.747L13.8333 144.148V142.452H13.3333V138.375H13.8333V134.298H13.3333V130.221H13.8333V126.144H13.3333V122.067H13.8333V117.99H13.3333V113.913H13.8333V109.836H13.3333V105.759H13.8333V101.681H13.3333V97.6044H13.8333V93.5274H13.3333V89.4504H13.8333V85.3734H13.3333V81.2963H13.8333V77.2193H13.3333V73.1422H13.8333V69.0652H13.3333V64.9882H13.8333V60.9111H13.3333V56.8341H13.8333V52.7571H13.3333V48.68H13.8333V44.603H13.3333V40.526H13.8333V36.4489H13.3333V32.3719H13.8333V28.2949H13.3333V24.2179H13.8333V20.1408H13.3333V16.0638H13.8333V14.7579C14.2204 14.9093 14.6112 15.0621 15.0056 15.2162L15.1876 14.7505C16.4025 15.2252 17.6519 15.7124 18.9326 16.211L18.7513 16.6769C19.9666 17.1501 21.2102 17.6334 22.4794 18.1261L22.6603 17.66C23.8828 18.1346 25.129 18.6178 26.3968 19.1088L26.2162 19.575C27.4438 20.0505 28.6916 20.5333 29.9574 21.0227L30.1377 20.5564C31.3689 21.0324 32.6172 21.5146 33.8806 22.0023L33.7006 22.4688C34.9346 22.9452 36.1831 23.4269 37.4442 23.9131L37.6241 23.4466C38.8586 23.9227 40.1052 24.4031 41.3623 24.8874L41.1825 25.354C42.4195 25.8305 43.6666 26.3108 44.9222 26.7941L45.1019 26.3275C46.341 26.8046 47.5885 27.2847 48.8426 27.7672L48.663 28.2339L52.4045 29.6732L52.584 29.2065C53.8268 29.6846 55.0746 30.1644 56.3258 30.6456L56.1464 31.1123L59.8884 32.5513L60.0679 32.0847C61.3137 32.5637 62.5616 33.0436 63.81 33.5237L63.6305 33.9904L67.3726 35.4297L67.5521 34.9631C68.8007 35.4434 70.0485 35.9235 71.294 36.4028L71.1144 36.8694C72.3644 37.3504 73.612 37.8307 74.856 38.3096L75.0356 37.843C76.287 38.3249 77.5345 38.8054 78.7768 39.2841L78.5971 39.7506C79.8497 40.2333 81.0971 40.7141 82.3375 41.1925L82.5174 40.726C83.7715 41.2096 85.0186 41.6908 86.2571 42.1689L86.077 42.6354C87.3324 43.12 88.579 43.6016 89.8151 44.0794L89.9954 43.6131C91.2522 44.0989 92.4982 44.5809 93.7317 45.0585L93.5512 45.5248C94.8112 46.0126 96.0582 46.4958 97.2904 46.9737L97.4712 46.5076C98.7344 46.9975 99.982 47.482 101.212 47.9601L101.031 48.4262C102.296 48.918 103.543 49.4033 104.769 49.8812L104.951 49.4153C106.218 49.9093 107.464 50.3954 108.684 50.8728L108.502 51.3385C109.771 51.8345 111.013 52.321 112.226 52.7972L112.408 52.3317Z" stroke="#76D9E4" stroke-dasharray="4 4"/>
<rect x="8" y="26" width="124" height="124" fill="#284660"/>
<path d="M56.2973 118.617L56.4402 118.874H56.7344H83.4004H83.7094L83.8476 118.597C84.5459 117.201 85.0216 115.81 85.4788 114.238L109.687 109.254L109.687 109.254L109.698 109.252C113.041 108.48 115.431 105.364 114.638 101.925C113.867 98.5851 110.755 96.1965 107.32 96.9843L83.1385 101.726C80.1705 97.6733 75.548 94.8113 70.1875 94.8113C61.2578 94.8113 54.3125 102.007 54.3125 110.686C54.3125 113.652 55.0538 116.378 56.2973 118.617ZM70.1875 33.3113C31.4727 33.3113 0.5 64.5265 0.5 102.999C0.5 115.813 3.88308 127.907 9.9303 138.073C11.2428 140.679 14.0865 141.936 16.8555 141.936H123.279C126.048 141.936 128.892 140.679 130.205 138.073C136.249 127.913 139.875 115.819 139.875 102.999C139.875 64.5254 108.661 33.3113 70.1875 33.3113ZM127.344 102.999C127.344 112.419 125.015 121.374 120.815 129.405H19.3196C15.1292 121.382 13.0313 112.428 13.0313 102.999C13.0313 71.5626 38.5138 45.8425 70.1875 45.8425C101.622 45.8425 127.344 71.564 127.344 102.999Z" stroke="#68BFCD"/>
</g>
<defs>
<clipPath id="clip0">
<rect width="144" height="185" fill="white"/>
</clipPath>
</defs>
</svg>
