<svg width="144" height="185" viewBox="0 0 144 185" fill="none" xmlns="http://www.w3.org/2000/svg">
<g clip-path="url(#clip0)">
<path d="M112.408 52.3317C113.688 52.8342 114.936 53.3251 116.148 53.8034L115.965 54.2685C116.483 54.473 116.995 54.6751 117.5 54.8749V56.5735H118V60.6505H117.5V64.7275H118V68.8045H117.5V72.8816H118V76.9586H117.5V81.0357H118V85.1127H117.5V89.1897H118V93.2668H117.5V97.3438H118V101.421H117.5V105.498H118V109.575H117.5V113.652H118V117.729H117.5V121.806H118V125.883H117.5V129.96H118V134.037H117.5V138.114H118V142.191H117.5V146.268H118V150.345H117.5V154.422H118V158.499H117.5V162.576H118V166.653H117.5V170.73H118V174.807H117.5V178.884H118V182.961H117.5V184.27L116.311 183.81L116.131 184.277L112.393 182.83L112.573 182.364L108.835 180.917L108.655 181.383L104.917 179.936L105.097 179.47L101.359 178.023L101.179 178.49L97.4405 177.043L97.621 176.576L93.8829 175.13L93.7024 175.596L89.9643 174.149L90.1448 173.683L86.4067 172.236L86.2262 172.702L82.4881 171.256L82.6686 170.789L78.9305 169.343L78.75 169.809L75.0119 168.362L75.1924 167.896L71.4543 166.449L71.2738 166.915L67.5357 165.469L67.7162 165.002L63.9781 163.555L63.7976 164.022L60.0595 162.575L60.24 162.109L56.5019 160.662L56.3214 161.128L52.5833 159.681L52.7638 159.215L49.0257 157.768L48.8452 158.235L45.1072 156.788L45.2876 156.322L41.5495 154.875L41.3691 155.341L37.631 153.894L37.8114 153.428L34.0733 151.981L33.8929 152.448L30.1548 151.001L30.3352 150.535L26.5971 149.088L26.4167 149.554L22.6786 148.107L22.8591 147.641L19.121 146.194L18.9405 146.66L15.2024 145.214L15.3829 144.747L13.8333 144.148V142.452H13.3333V138.375H13.8333V134.298H13.3333V130.221H13.8333V126.144H13.3333V122.067H13.8333V117.99H13.3333V113.913H13.8333V109.836H13.3333V105.759H13.8333V101.681H13.3333V97.6044H13.8333V93.5274H13.3333V89.4504H13.8333V85.3734H13.3333V81.2963H13.8333V77.2193H13.3333V73.1422H13.8333V69.0652H13.3333V64.9882H13.8333V60.9111H13.3333V56.8341H13.8333V52.7571H13.3333V48.68H13.8333V44.603H13.3333V40.526H13.8333V36.4489H13.3333V32.3719H13.8333V28.2949H13.3333V24.2179H13.8333V20.1408H13.3333V16.0638H13.8333V14.7579C14.2204 14.9093 14.6112 15.0621 15.0056 15.2162L15.1876 14.7505C16.4025 15.2252 17.6519 15.7124 18.9327 16.211L18.7513 16.6769C19.9666 17.1501 21.2102 17.6334 22.4794 18.1261L22.6603 17.66C23.8828 18.1346 25.129 18.6178 26.3968 19.1088L26.2162 19.575C27.4438 20.0505 28.6916 20.5333 29.9574 21.0227L30.1377 20.5564C31.3689 21.0324 32.6172 21.5146 33.8806 22.0023L33.7006 22.4688C34.9346 22.9452 36.1831 23.4269 37.4442 23.9131L37.6241 23.4466C38.8586 23.9227 40.1052 24.4031 41.3623 24.8874L41.1825 25.354C42.4196 25.8305 43.6667 26.3108 44.9222 26.7941L45.1019 26.3275C46.341 26.8046 47.5885 27.2847 48.8426 27.7672L48.663 28.2339L52.4045 29.6732L52.584 29.2065C53.8268 29.6846 55.0746 30.1644 56.3258 30.6456L56.1464 31.1123L59.8884 32.5513L60.0679 32.0847C61.3137 32.5637 62.5616 33.0436 63.81 33.5237L63.6305 33.9904L67.3726 35.4297L67.5521 34.9631C68.8007 35.4434 70.0485 35.9235 71.294 36.4028L71.1144 36.8694C72.3644 37.3504 73.612 37.8307 74.856 38.3096L75.0356 37.843C76.287 38.3249 77.5345 38.8054 78.7769 39.2841L78.5971 39.7506C79.8497 40.2333 81.0971 40.7141 82.3375 41.1925L82.5174 40.726C83.7715 41.2096 85.0186 41.6908 86.2571 42.1689L86.077 42.6354C87.3324 43.12 88.579 43.6016 89.8152 44.0794L89.9954 43.6131C91.2522 44.0989 92.4982 44.5809 93.7317 45.0585L93.5512 45.5248C94.8112 46.0126 96.0582 46.4958 97.2904 46.9737L97.4712 46.5076C98.7344 46.9975 99.982 47.482 101.212 47.9601L101.031 48.4262C102.296 48.918 103.543 49.4033 104.769 49.8812L104.951 49.4153C106.218 49.9093 107.464 50.3954 108.684 50.8728L108.502 51.3385C109.771 51.8345 111.013 52.321 112.226 52.7972L112.408 52.3317Z" stroke="#76D9E4" stroke-dasharray="4 4"/>
<path d="M104.667 40.5097V170.975L0 130.465V0C28.1457 11.021 76.8142 29.4887 104.667 40.5097Z" fill="#284660"/>
<path d="M43.1089 77.7187L70.0651 77.7187L70.0635 77.7203L70.0606 77.7233L70.0576 77.7262L70.0547 77.7291L70.0517 77.7321L70.0488 77.735L70.0459 77.738L70.0429 77.7409L70.04 77.7439L70.037 77.7468L70.0341 77.7498L70.0311 77.7527L70.0281 77.7557L70.0252 77.7586L70.0222 77.7616L70.0193 77.7645L70.0163 77.7675L70.0134 77.7705L70.0104 77.7734L70.0074 77.7764L70.0045 77.7794L70.0015 77.7823L69.9985 77.7853L69.9955 77.7883L69.9926 77.7912L69.9896 77.7942L69.9866 77.7972L69.9836 77.8002L69.9807 77.8032L69.9777 77.8061L69.9747 77.8091L69.9717 77.8121L69.9687 77.8151L69.9657 77.8181L69.9628 77.8211L69.9598 77.824L69.9568 77.827L69.9538 77.83L69.9508 77.833L69.9478 77.836L69.9448 77.839L69.9418 77.842L69.9388 77.845L69.9358 77.848L69.9328 77.851L69.9298 77.854L69.9268 77.857L69.9238 77.86L69.9208 77.863L69.9178 77.866L69.9148 77.869L69.9118 77.872L69.9088 77.8751L69.9057 77.8781L69.9027 77.8811L69.8997 77.8841L69.8967 77.8871L69.8937 77.8901L69.8907 77.8931L69.8876 77.8962L69.8846 77.8992L69.8816 77.9022L69.8786 77.9052L69.8756 77.9082L69.8725 77.9113L69.8695 77.9143L69.8665 77.9173L69.8635 77.9203L69.8604 77.9234L69.8574 77.9264L69.8544 77.9294L69.8514 77.9325L69.8483 77.9355L69.8453 77.9385L69.8423 77.9416L69.8392 77.9446L69.8362 77.9476L69.8332 77.9507L69.8301 77.9537L69.8271 77.9567L69.824 77.9598L69.821 77.9628L69.818 77.9658L69.8149 77.9689L69.8119 77.9719L69.8088 77.975L69.8058 77.978L69.8028 77.9811L69.7997 77.9841L69.7967 77.9871L69.7936 77.9902L69.7906 77.9932L69.7875 77.9963L69.7845 77.9993L69.7814 78.0024L69.7784 78.0054L69.7753 78.0085L69.7723 78.0115L69.7692 78.0146L69.7662 78.0176L69.7631 78.0207L69.7601 78.0237L69.757 78.0268L69.754 78.0298L69.7509 78.0329L69.7479 78.0359L69.7448 78.039L69.7418 78.0421L69.7387 78.0451L69.7356 78.0482L69.7326 78.0512L69.7295 78.0543L69.7265 78.0573L69.7234 78.0604L69.7203 78.0635L69.7173 78.0665L69.7142 78.0696L69.7112 78.0726L69.7081 78.0757L69.705 78.0788L69.702 78.0818L69.6989 78.0849L69.6959 78.088L69.6928 78.091L69.6897 78.0941L69.6867 78.0971L69.6836 78.1002L69.6805 78.1033L69.6775 78.1063L69.6744 78.1094L69.6713 78.1125L69.6683 78.1155L69.6652 78.1186L69.6622 78.1217L69.6591 78.1247L69.656 78.1278L69.653 78.1309L69.6499 78.1339L69.6468 78.137L69.6438 78.1401L69.6407 78.1431L69.6376 78.1462L69.6346 78.1493L69.6315 78.1523L69.6284 78.1554L69.6254 78.1585L69.6223 78.1615L69.6192 78.1646L69.6162 78.1677L69.6131 78.1707L69.61 78.1738L69.6099 78.1737L69.6008 78.1832C59.9235 88.3836 56.9787 101.663 56.1477 109.85C48.5285 113.125 43.03 120.556 43.03 129.562C43.03 141.354 52.6757 151 64.4675 151C76.5169 151 86.1667 141.358 86.1667 129.562C86.1667 119.538 79.1594 111.076 69.9938 108.767C70.827 102.568 73.1989 94.0473 79.4842 87.5106L79.4878 87.5067C83.5047 83.2388 88.76 80.4305 95.0396 78.8567C98.1012 86.6834 105.766 92.375 114.979 92.375C126.771 92.375 136.417 82.7293 136.417 70.9375C136.417 58.8799 126.767 49.5 114.979 49.5C105.472 49.5 97.2544 55.4942 94.4594 64.1562L43.1123 64.1562C40.3184 55.4975 32.1068 49.5 22.8542 49.5C10.8007 49.5 1.4167 58.884 1.4167 70.9375C1.4167 82.7252 10.7966 92.375 22.8542 92.375C32.1113 92.375 40.3143 86.12 43.1089 77.7187ZM122.854 70.9375C122.854 75.1106 119.152 78.8125 114.979 78.8125C110.554 78.8125 107.104 75.1208 107.104 70.9375C107.104 66.5027 110.544 63.0625 114.979 63.0625C119.162 63.0625 122.854 66.5128 122.854 70.9375ZM14.9792 70.9375C14.9792 66.5027 18.4194 63.0625 22.8542 63.0625C27.0375 63.0625 30.7292 66.5128 30.7292 70.9375C30.7292 75.1106 27.0273 78.8125 22.8542 78.8125C18.4295 78.8125 14.9792 75.1208 14.9792 70.9375ZM56.8542 129.562C56.8542 125.128 60.2944 121.687 64.7292 121.687C68.9125 121.687 72.6042 125.138 72.6042 129.562C72.6042 133.736 68.9023 137.437 64.7292 137.437C60.3045 137.437 56.8542 133.746 56.8542 129.562Z" stroke="#68BFCD"/>
</g>
<defs>
<clipPath id="clip0">
<rect width="144" height="185" fill="white"/>
</clipPath>
</defs>
</svg>
