<svg width="163" height="47" viewBox="0 0 163 47" fill="none" xmlns="http://www.w3.org/2000/svg">
<path d="M0 42.2454V37.479L6.95509 30.5577C10.7804 26.751 13.9102 23.5561 13.9102 23.4579C13.9102 23.3597 10.7804 20.1575 6.95509 16.3419L0 9.40436V4.70217C0 2.11597 0.0572546 9.64561e-05 0.127229 0.000224253C0.370409 0.000684322 23.5794 23.2587 23.5794 23.5019C23.5794 23.7487 0.848997 46.5401 0.296868 46.8469C0.0172455 47.0023 0 46.7351 0 42.2454ZM29.3471 42.3019V37.6039L36.3022 30.6438C40.1275 26.8158 43.2573 23.5851 43.2573 23.4643C43.2573 23.3436 40.1275 20.1263 36.3022 16.3147L29.3471 9.38464V4.69232C29.3471 2.11154 29.4045 0 29.4748 0C29.7237 0 52.9265 23.2514 52.9265 23.5009C52.9265 23.7498 29.7222 47 29.4739 47C29.4041 47 29.3471 44.8859 29.3471 42.3019ZM14.5887 42.2287V37.6264L21.5438 30.6873C25.3691 26.8708 28.4989 23.6365 28.4989 23.5C28.4989 23.3635 25.3691 20.1292 21.5438 16.3127L14.5887 9.37361V4.78132C14.5887 2.25555 14.6506 0.150905 14.7262 0.104317C14.8019 0.0577347 20.1643 5.3027 26.6427 11.7598L38.4217 23.5L26.7177 35.1655C20.2805 41.5815 14.9181 46.8309 14.8012 46.8309C14.6362 46.8309 14.5887 45.8031 14.5887 42.2287Z" fill="white"/>
<path d="M75.8323 31.0038L74.1861 27.1925H66.7658L65.1196 31.0038H60.9156L68.5639 13.361H72.388L80.0363 31.0038H75.8323ZM70.4886 18.6109L68.26 23.7346H72.6919L70.4886 18.6109Z" fill="white"/>
<path d="M96.4254 19.2167C96.4254 22.0436 95.3026 23.8693 93.0571 24.6938L97.5397 31.0038H92.6772L88.7518 25.3752H86.0166V31.0038H82.0659V13.361H88.7771C91.5291 13.361 93.4876 13.8237 94.6526 14.7492C95.8345 15.6746 96.4254 17.1638 96.4254 19.2167ZM88.9037 21.9678C90.2544 21.9678 91.1746 21.7491 91.6642 21.3116C92.1538 20.8741 92.3986 20.1842 92.3986 19.2419C92.3986 18.2828 92.1454 17.6265 91.6389 17.2732C91.1324 16.9198 90.246 16.7431 88.9797 16.7431H86.0166V21.9678H88.9037Z" fill="white"/>
<path d="M114.826 19.2167C114.826 22.0436 113.703 23.8693 111.458 24.6938L115.94 31.0038H111.078L107.152 25.3752H104.417V31.0038H100.466V13.361H107.178C109.93 13.361 111.888 13.8237 113.053 14.7492C114.235 15.6746 114.826 17.1638 114.826 19.2167ZM107.304 21.9678C108.655 21.9678 109.575 21.7491 110.065 21.3116C110.554 20.8741 110.799 20.1842 110.799 19.2419C110.799 18.2828 110.546 17.6265 110.039 17.2732C109.533 16.9198 108.646 16.7431 107.38 16.7431H104.417V21.9678H107.304Z" fill="white"/>
<path d="M132.218 22.0941C132.218 20.5124 131.712 19.1662 130.699 18.0557C129.686 16.9451 128.436 16.3898 126.95 16.3898C125.482 16.3898 124.241 16.9451 123.228 18.0557C122.215 19.1662 121.708 20.5124 121.708 22.0941C121.708 23.659 122.215 24.9967 123.228 26.1072C124.241 27.201 125.482 27.7479 126.95 27.7479C128.436 27.7479 129.686 27.201 130.699 26.1072C131.712 24.9967 132.218 23.659 132.218 22.0941ZM133.56 28.5808C131.771 30.3139 129.567 31.1805 126.95 31.1805C124.333 31.1805 122.13 30.3139 120.34 28.5808C118.551 26.8308 117.656 24.6601 117.656 22.0688C117.656 19.4775 118.551 17.3153 120.34 15.5821C122.13 13.8321 124.333 12.9572 126.95 12.9572C129.567 12.9572 131.771 13.8321 133.56 15.5821C135.35 17.3153 136.245 19.4775 136.245 22.0688C136.245 24.6601 135.35 26.8308 133.56 28.5808Z" fill="white"/>
<path d="M144.816 23.5075L147.957 13.361H152.085L155.2 23.5075L158.72 13.361H163L156.821 31.0038H153.883L150.008 18.7371L146.159 31.0038H143.221L137.041 13.361H141.321L144.816 23.5075Z" fill="white"/>
</svg>
