<svg width="81" height="91" viewBox="0 0 81 91" fill="none" xmlns="http://www.w3.org/2000/svg">
<path d="M40.5 72.455C25.6121 72.455 13.5 60.363 13.5 45.4999C13.5 30.6368 25.6121 18.5448 40.5 18.5448C50.1067 18.5448 59.0662 23.7059 63.8817 32.0139L52.1968 38.7643C49.7867 34.6058 45.3044 32.0224 40.5 32.0224C33.0559 32.0224 27 38.0682 27 45.4999C27 52.9313 33.0559 58.9775 40.5 58.9775C45.3049 58.9775 49.7872 56.394 52.1976 52.2347L63.8825 58.9849C59.067 67.2937 50.1072 72.455 40.5 72.455Z" fill="white"/>
<path d="M67.5 44.0024H64.4998V41.0074H61.5002V44.0024H58.5V46.9973H61.5002V49.9925H64.4998V46.9973H67.5V44.0024Z" fill="white"/>
<path d="M78.75 44.0024H75.7498V41.0074H72.7502V44.0024H69.75V46.9973H72.7502V49.9925H75.7498V46.9973H78.75V44.0024Z" fill="white"/>
</svg>
