<svg width="205" height="58" viewBox="0 0 205 58" fill="none" xmlns="http://www.w3.org/2000/svg">
<path d="M14.5693 40.3479C12.7287 40.3479 11.0555 38.8349 11.0555 36.9856C11.0555 35.1363 12.5614 33.6233 14.5693 33.6233C16.5773 33.6233 18.0832 35.1363 18.0832 36.9856C18.0832 38.8349 16.4099 40.3479 14.5693 40.3479ZM57.7398 22.0233C57.4052 19.3334 55.7319 17.1479 53.5567 15.4668L52.72 14.7943L52.0507 15.6349C50.7121 17.1479 50.2101 19.8378 50.3774 21.8552C50.5448 23.3682 51.0467 24.8812 51.8834 26.0581C51.2141 26.3943 50.3774 26.7305 49.7081 27.0668C48.2022 27.5711 46.6962 27.7392 45.1903 27.7392H1.85244L1.68511 28.7479C1.35046 31.9421 1.85244 35.3044 3.19106 38.3305L3.86037 39.5073V39.6755C7.87623 46.4001 15.0713 49.4262 22.9357 49.4262C37.9952 49.4262 50.3774 42.8697 56.2339 28.7479C60.0824 28.916 63.931 27.9073 65.7716 24.2088L66.2736 23.3682L65.4369 22.8639C63.2617 21.5189 60.2498 21.3508 57.7398 22.0233V22.0233ZM36.1546 19.3334H29.6288V25.8899H36.1546V19.3334ZM36.1546 11.0957H29.6288V17.6523H36.1546V11.0957ZM36.1546 2.68994H29.6288V9.24646H36.1546V2.68994V2.68994ZM44.1863 19.3334H37.6605V25.8899H44.1863V19.3334ZM19.9238 19.3334H13.398V25.8899H19.9238V19.3334V19.3334ZM28.1229 19.3334H21.5971V25.8899H28.1229V19.3334ZM11.8921 19.3334H5.36632V25.8899H11.8921V19.3334V19.3334ZM28.1229 11.0957H21.5971V17.6523H28.1229V11.0957ZM19.9238 11.0957H13.398V17.6523H19.9238V11.0957V11.0957Z" fill="white"/>
<path d="M170.519 36.313C173.363 33.7913 176.208 31.4376 179.052 28.9159C180.056 28.0753 181.06 27.2347 182.064 26.226C181.228 25.2173 180.056 24.5449 178.885 24.0405C176.71 23.2 174.534 23.5362 172.359 24.713C169.682 26.226 168.511 28.7478 168.678 31.7739C168.678 32.9507 169.013 34.1275 169.682 35.1362C170.184 35.6405 170.351 35.9768 170.519 36.313V36.313ZM173.865 38.6666C175.204 39.171 176.877 39.171 178.383 38.8347C179.052 38.4985 181.06 37.6579 181.73 37.826H182.064C182.566 37.9942 182.901 38.3304 183.068 38.8347C183.57 39.8434 183.403 40.8521 182.399 41.3565L182.064 41.5246C178.383 43.7101 174.534 43.3739 170.853 41.3565C169.18 40.3478 167.841 39.0029 166.837 37.3217L166.67 36.9855C164.328 32.9507 164.662 28.5797 167.339 24.713C168.176 23.3681 169.515 22.3594 170.853 21.5188L171.355 21.1826C174.869 19.1652 178.55 19.3333 182.064 21.0144C183.905 22.0231 185.578 23.3681 186.582 25.2173L186.749 25.5536C187.586 26.8985 186.582 28.0753 185.411 28.9159L181.897 31.942C178.885 34.2956 176.375 36.4811 173.865 38.6666V38.6666ZM201.14 20.1739H201.474C202.646 20.1739 203.482 21.0144 203.482 22.1913C203.482 23.8724 201.976 24.2086 200.638 24.2086C198.964 24.2086 197.291 25.2173 196.12 26.3942C194.614 27.9072 193.945 29.7565 193.945 31.7739V41.1884C193.945 42.1971 193.275 43.2058 192.104 43.2058H191.769C190.598 43.2058 189.929 42.3652 189.929 41.1884V31.2695C189.929 27.4029 191.769 24.3768 194.781 22.1913C196.956 20.8463 198.964 20.1739 201.14 20.1739V20.1739ZM153.284 26.7304L157.802 22.1913C158.304 21.855 159.81 20.0057 160.479 20.0057H161.148C161.985 20.1739 162.654 20.6782 162.654 21.6869V22.0231C162.654 22.6956 161.818 23.3681 161.483 23.8724C160.646 24.8811 159.642 25.7217 158.806 26.7304L154.121 31.4376L160.144 37.4898L161.818 39.171L162.487 39.8434C162.654 40.1797 162.822 40.3478 162.822 40.684V41.1884C162.654 42.0289 161.985 42.7014 161.148 42.7014H160.814C160.144 42.7014 159.475 42.0289 158.973 41.5246C158.136 40.684 157.132 39.8434 156.296 38.8347L153.284 35.9768V40.684C153.284 41.6927 152.615 42.7014 151.443 42.7014H151.109C149.937 42.7014 149.268 41.8608 149.268 40.684V14.7942C149.268 13.7855 149.937 12.9449 151.109 12.9449H151.443C152.615 12.9449 153.284 13.7855 153.284 14.7942V26.7304V26.7304ZM140.902 24.2086C140.4 23.8724 139.228 23.8724 138.559 23.8724C135.38 23.7043 133.037 25.5536 131.699 28.4115C131.197 29.4202 131.029 30.4289 131.029 31.6058C131.029 34.9681 132.703 37.3217 135.715 38.6666C136.718 39.171 138.224 39.3391 139.396 39.3391C140.4 39.3391 141.906 38.6666 142.742 38.3304H143.579C144.416 38.4985 145.085 39.0029 145.085 40.0116V40.3478C145.085 42.7014 140.734 43.2058 139.228 43.3739C133.539 43.7101 129.189 40.5159 127.515 35.1362C127.181 34.1275 127.181 33.2869 127.181 32.2782V31.4376C127.181 27.2347 129.189 23.8724 132.87 21.855C134.543 20.8463 136.384 20.342 138.392 20.342H139.228C141.236 20.342 143.244 20.8463 144.918 22.0231L145.085 22.1913L145.252 22.3594C145.42 22.6956 145.587 23.0318 145.587 23.3681V23.7043C145.587 24.713 144.918 25.2173 143.914 25.3855H143.746C142.575 25.0492 141.236 24.3768 140.902 24.2086V24.2086ZM105.763 31.4376C105.763 34.2956 107.269 36.4811 109.611 37.9942C110.783 38.6666 112.121 39.0029 113.46 39.0029C116.305 39.0029 118.48 37.4898 119.986 35.1362C120.655 33.9594 120.99 32.6144 120.99 31.2695C120.99 28.5797 119.651 26.3942 117.476 24.8811C116.305 24.0405 114.799 23.7043 113.46 23.7043C110.281 23.7043 107.938 25.3855 106.6 28.2434C105.763 29.4202 105.763 30.4289 105.763 31.4376V31.4376ZM112.791 20.0057H113.293C117.81 20.0057 121.157 22.1913 123.332 26.0579C124.169 27.571 124.671 29.2521 124.671 31.1014V31.942C124.671 36.1449 122.663 39.5072 118.982 41.5246C117.308 42.5333 115.468 43.0376 113.46 43.0376H112.623C108.44 43.0376 105.094 41.0203 103.086 37.3217C102.082 35.6405 101.58 33.7913 101.58 31.7739V30.9333C101.58 26.7304 103.588 23.3681 107.269 21.3507C109.109 20.5101 110.783 20.0057 112.791 20.0057V20.0057ZM80.3291 31.4376C80.3291 34.4637 81.835 36.8174 84.5123 38.1623C85.5162 38.6666 86.6875 39.0029 88.0262 39.0029C91.038 39.0029 93.2133 37.6579 94.7193 35.1362C95.3886 33.9594 95.7232 32.6144 95.7232 31.2695C95.7232 28.5797 94.5519 26.5623 92.3767 25.0492C91.0381 24.2086 89.6994 23.7043 88.0262 23.7043C84.8469 23.7043 82.5043 25.3855 81.1657 28.2434C80.6637 29.4202 80.3291 30.4289 80.3291 31.4376V31.4376ZM95.7232 22.8637V14.626C95.7232 13.6173 96.3925 12.6086 97.5638 12.6086H97.8985C99.0698 12.6086 99.7391 13.4492 99.7391 14.626V31.942C99.7391 36.1449 97.7312 39.5072 94.0499 41.5246C92.3767 42.5333 90.5361 43.0376 88.5281 43.0376H87.6915C83.5083 43.0376 80.1618 41.0203 78.1538 37.3217C77.1499 35.6405 76.6479 33.7913 76.6479 31.7739V30.9333C76.6479 26.7304 78.6558 23.3681 82.337 21.3507C84.0103 20.342 85.8509 19.8376 87.8588 19.8376H88.6955C91.2054 20.0057 93.7153 21.0144 95.7232 22.8637V22.8637Z" fill="white"/>
</svg>
