<svg width="65" height="65" viewBox="0 0 65 65" fill="none" xmlns="http://www.w3.org/2000/svg">
<path d="M35.2946 44.4401H45.1965V49.5266H35.2946V44.4401ZM47.2266 44.4401H57.1285V49.516H47.2266V44.4401ZM35.2946 37.0672H45.1965V42.397H35.2946V37.0672ZM47.2266 37.0672H57.1285V42.397H47.2266V37.0672ZM35.2946 29.7049H45.1965V35.0347H35.2946V29.7049ZM47.2266 29.7049H57.1285V35.0347H47.2266V29.7049ZM35.2946 22.3427H45.1965V27.6724H35.2946V22.3427ZM47.2266 22.3427H57.1285V27.6724H47.2266V22.3427ZM35.2946 14.9804H45.1965V20.3101H35.2946V14.9804ZM47.2266 14.9804H57.1285V20.3101H47.2266V14.9804ZM34.9497 8.896V10.9164H61.4476V53.8313H34.9497V55.8623H61.2783C62.499 55.8623 63.4891 54.8722 63.4891 53.6515V11.1068C63.4891 9.88612 62.499 8.896 61.2783 8.896H34.9497Z" fill="white"/>
<path d="M36.8432 3.06763L1.51265 9.35096V55.3652L36.822 61.7438L36.8432 3.06763ZM25.5459 22.0022L20.4896 32.4004L25.6834 42.862L20.9867 42.587L17.898 34.9285L14.8727 42.2379L10.7367 42.0052L15.592 32.4004L10.98 22.6898L15.4544 22.4782L18.0566 29.5549L21.1877 22.2032L25.5459 22.0022Z" fill="white"/>
</svg>
