<svg width="143" height="61" viewBox="0 0 143 61" fill="none" xmlns="http://www.w3.org/2000/svg">
<path d="M17.991 50.8965C19.0123 52.2489 20.3395 53.3427 21.8649 54.089C23.5147 54.9024 25.3351 55.3136 27.176 55.2889C28.6644 55.3277 30.1461 55.0762 31.5375 54.5484C32.6503 54.1132 33.6437 53.4219 34.4365 52.531C35.1804 51.6631 35.7235 50.643 36.0273 49.543C36.3585 48.354 36.5225 47.1252 36.5146 45.8914V41.6012H36.4123C35.4475 43.1233 34.0559 44.3307 32.4094 45.0743C30.8394 45.7546 29.1445 46.1025 27.4323 46.0958C25.7545 46.1083 24.0903 45.7961 22.5322 45.1765C21.0569 44.5935 19.7071 43.7353 18.5553 42.6482C17.4124 41.556 16.5045 40.2439 15.8869 38.7916C15.2297 37.2584 14.8978 35.6066 14.912 33.9398C14.8978 32.2778 15.2118 30.6292 15.8359 29.0876C16.4259 27.6291 17.2876 26.2948 18.3756 25.155C19.4635 24.0246 20.7736 23.1292 22.2242 22.5246C23.7764 21.8822 25.4437 21.5607 27.1247 21.5798C27.8901 21.5842 28.6538 21.6524 29.4077 21.7838C30.2368 21.9279 31.0462 22.168 31.8194 22.499C33.6552 23.291 35.242 24.5616 36.4123 26.1768H36.5146V22.1925H39.9016V45.8914C39.89 47.2839 39.7265 48.671 39.4139 50.0283C39.087 51.4958 38.4387 52.8735 37.5155 54.0631C36.465 55.3754 35.1206 56.4251 33.5899 57.1281C31.9134 57.9449 29.724 58.3532 27.0216 58.3532C24.8265 58.3905 22.6459 57.9912 20.6077 57.1789C18.6577 56.3474 16.9085 55.1111 15.477 53.5529L17.991 50.8965ZM18.6066 33.8379C18.5981 35.0552 18.8337 36.2618 19.2995 37.3873C19.7437 38.4673 20.3875 39.4548 21.1976 40.2984C22.0031 41.1345 22.9609 41.8106 24.02 42.2906C25.1233 42.7897 26.323 43.0425 27.5349 43.031C29.935 43.0397 32.2477 42.1354 34.0002 40.5031C34.8609 39.6947 35.535 38.71 35.976 37.6169C36.4512 36.4153 36.6697 35.1283 36.6176 33.8379C36.6262 32.6275 36.4176 31.4253 36.0016 30.2879C35.6064 29.2068 34.9954 28.2166 34.2055 27.3768C33.3936 26.5254 32.416 25.8477 31.3322 25.3849C30.1321 24.8772 28.8387 24.6249 27.5349 24.6441C26.323 24.6331 25.1234 24.8859 24.02 25.3849C22.9612 25.8654 22.0035 26.5412 21.1976 27.3768C20.3878 28.2206 19.7438 29.208 19.2992 30.2879C18.8336 31.4136 18.5981 32.6205 18.6066 33.8379V33.8379ZM53.7039 46.0958H50.0097V9.93429H61.1958C64.8903 9.93429 67.8065 10.7345 69.9445 12.3348C72.0822 13.9357 73.1513 16.3533 73.1518 19.5876C73.2168 21.9352 72.361 24.2158 70.7657 25.9462C69.1748 27.666 66.8742 28.6619 63.8642 28.934L74.332 46.0954H69.8161L59.862 29.2919H53.7043L53.7039 46.0958ZM53.7039 25.921H60.2722C61.6835 25.9506 63.0918 25.7785 64.4541 25.4101C65.4504 25.145 66.3837 24.685 67.1994 24.0569C67.8575 23.5298 68.3696 22.8442 68.6873 22.0651C68.9994 21.2764 69.1563 20.4353 69.1492 19.5876C69.153 18.757 68.9961 17.9334 68.6873 17.1618C68.3659 16.3775 67.8548 15.6844 67.1994 15.1441C66.3915 14.5036 65.4555 14.0422 64.4541 13.7906C63.0887 13.4407 61.6818 13.2775 60.2722 13.3056H53.7039V25.921ZM80.6939 9.93429H91.2647C94.9589 9.93429 97.875 10.7346 100.013 12.3352C102.151 13.936 103.22 16.3536 103.22 19.5879C103.22 22.8232 102.151 25.2492 100.013 26.8658C97.875 28.4835 94.9589 29.2922 91.2647 29.2919H84.3888V46.0958H80.6939V9.93429ZM84.3892 25.9214H90.3415C91.7528 25.9509 93.1611 25.7788 94.5234 25.4105C95.5196 25.1452 96.4529 24.6852 97.2687 24.0573C97.9267 23.5301 98.4388 22.8445 98.7565 22.0655C99.0689 21.2768 99.2257 20.4356 99.2185 19.5879C99.2224 18.7573 99.0656 17.9338 98.7565 17.1622C98.4351 16.3779 97.9241 15.6848 97.2687 15.1445C96.4607 14.5041 95.5248 14.0426 94.5234 13.7909C93.158 13.4411 91.7511 13.2779 90.3415 13.3059H84.3888L84.3892 25.9214ZM140.318 40.3754C139.668 41.3341 138.902 42.209 138.036 42.9803C137.098 43.8186 136.054 44.5311 134.931 45.0995C133.732 45.709 132.467 46.1804 131.16 46.5045C129.758 46.8508 128.319 47.0223 126.875 47.015C124.299 47.039 121.743 46.553 119.358 45.5852C117.106 44.6795 115.062 43.3305 113.347 41.619C111.631 39.9076 110.281 37.8689 109.377 35.6254C108.4 33.2075 107.911 30.6212 107.941 28.015C107.912 25.4088 108.4 22.8226 109.377 20.4047C110.281 18.1612 111.631 16.1227 113.346 14.4113C115.062 12.6999 117.106 11.3511 119.358 10.4456C121.743 9.47753 124.299 8.99137 126.875 9.01537C129.197 9.02776 131.495 9.47826 133.648 10.343C135.945 11.2578 137.949 12.7761 139.446 14.7357L136.214 17.1363C135.78 16.4924 135.262 15.9084 134.674 15.3996C133.995 14.8012 133.246 14.2868 132.443 13.8676C131.585 13.4177 130.681 13.0582 129.748 12.795C128.814 12.526 127.847 12.3884 126.875 12.3863C124.719 12.3511 122.582 12.787 120.615 13.6632C118.829 14.4694 117.231 15.6343 115.92 17.0848C114.622 18.5395 113.62 20.2308 112.969 22.0651C111.601 25.9149 111.601 30.1152 112.969 33.965C113.62 35.7992 114.622 37.4904 115.92 38.9449C117.231 40.3959 118.829 41.561 120.615 42.3669C122.582 43.2437 124.719 43.6797 126.875 43.6441C127.83 43.6445 128.783 43.559 129.723 43.3887C130.679 43.2137 131.609 42.9221 132.494 42.5205C133.426 42.0949 134.29 41.5355 135.059 40.86C135.923 40.0919 136.675 39.2066 137.291 38.2303L140.318 40.3754Z" fill="white"/>
<g opacity="0.6">
<path opacity="0.6" d="M12.3323 21.7737L2.76453 12.3205L12.2617 2.79675L21.8295 12.2499L12.3323 21.7737Z" fill="white"/>
<g opacity="0.6">
<path opacity="0.6" d="M2.93215 2.79675L2.76355 4.28264V2.79675H2.93215ZM3.15529 2.79675L2.76355 6.24608V4.28264L2.93215 2.79675H3.15529V2.79675ZM3.37807 2.79675L2.76355 8.20916V6.24608L3.15529 2.79675H3.37807V2.79675ZM3.60085 2.79675L2.76355 10.1726V8.20916L3.37807 2.79675H3.60085Z" fill="white"/>
<path opacity="0.6" d="M3.82363 2.79675L2.76355 12.136V10.1726L3.60085 2.79675H3.82363Z" fill="white"/>
<path opacity="0.6" d="M4.04676 2.79675L2.76355 14.0995V12.136L3.82363 2.79675H4.04676ZM4.26954 2.79675L2.76355 16.0626V14.0995L4.04676 2.79675H4.26954V2.79675Z" fill="white"/>
<path opacity="0.6" d="M4.49233 2.79675L2.76355 18.026V16.0626L4.26954 2.79675H4.49233V2.79675Z" fill="white"/>
<path opacity="0.6" d="M4.71511 2.79675L2.76355 19.9894V18.026L4.49233 2.79675H4.71511V2.79675Z" fill="white"/>
<path opacity="0.6" d="M4.93824 2.79675L2.78529 21.762L2.76355 21.7595V19.9894L4.7151 2.79675H4.93824V2.79675Z" fill="white"/>
<path opacity="0.6" d="M5.16101 2.79675L3.00663 21.7737H2.88865L2.78528 21.762L4.93823 2.79675H5.16101V2.79675Z" fill="white"/>
<path opacity="0.6" d="M5.38381 2.79675L3.22979 21.7737H3.00665L5.16103 2.79675H5.38381Z" fill="white"/>
<path opacity="0.6" d="M5.60695 2.79675L3.45258 21.7737H3.2298L5.38382 2.79675H5.60695Z" fill="white"/>
<path opacity="0.6" d="M5.82973 2.79675L3.67536 21.7737H3.45258L5.60695 2.79675H5.82973Z" fill="white"/>
<path opacity="0.6" d="M6.05251 2.79675L3.89849 21.7737H3.67535L5.82973 2.79675H6.05251V2.79675Z" fill="white"/>
<path opacity="0.6" d="M6.2753 2.79675L4.12128 21.7737H3.8985L6.05252 2.79675H6.2753Z" fill="white"/>
<path opacity="0.6" d="M6.49843 2.79675L4.34406 21.7737H4.12128L6.2753 2.79675H6.49843V2.79675Z" fill="white"/>
<path opacity="0.6" d="M6.72121 2.79675L4.56684 21.7737H4.34406L6.49843 2.79675H6.72121V2.79675Z" fill="white"/>
<path opacity="0.6" d="M6.94399 2.79675L4.78997 21.7737H4.56683L6.72121 2.79675H6.94399V2.79675Z" fill="white"/>
<path opacity="0.6" d="M7.16678 2.79675L5.01276 21.7737H4.78998L6.944 2.79675H7.16678V2.79675Z" fill="white"/>
<path opacity="0.6" d="M7.38991 2.79675L5.23554 21.7737H5.01276L7.16678 2.79675H7.38991V2.79675Z" fill="white"/>
<path opacity="0.6" d="M7.61269 2.79675L5.45831 21.7737H5.23553L7.38991 2.79675H7.61269V2.79675Z" fill="white"/>
<path opacity="0.6" d="M7.83547 2.79675L5.68145 21.7737H5.45831L7.61269 2.79675H7.83547V2.79675Z" fill="white"/>
<path opacity="0.6" d="M8.05826 2.79675L5.90424 21.7737H5.68146L7.83548 2.79675H8.05826V2.79675Z" fill="white"/>
<path opacity="0.6" d="M8.28139 2.79675L6.12702 21.7737H5.90424L8.05825 2.79675H8.28139V2.79675Z" fill="white"/>
<path opacity="0.6" d="M8.50417 2.79675L6.34979 21.7737H6.12701L8.28139 2.79675H8.50417V2.79675ZM8.72695 2.79675L6.57293 21.7737H6.34979L8.50417 2.79675H8.72695V2.79675Z" fill="white"/>
<path opacity="0.6" d="M8.94974 2.79675L6.79572 21.7737H6.57294L8.72695 2.79675H8.94974V2.79675Z" fill="white"/>
<path opacity="0.6" d="M9.17281 2.79675L7.01843 21.7737H6.79565L8.94967 2.79675H9.17281V2.79675Z" fill="white"/>
<path opacity="0.6" d="M9.39565 2.79675L7.24127 21.7737H7.01849L9.17287 2.79675H9.39565V2.79675Z" fill="white"/>
<path opacity="0.6" d="M9.61843 2.79675L7.46441 21.7737H7.24127L9.39565 2.79675H9.61843V2.79675Z" fill="white"/>
<path opacity="0.6" d="M9.84121 2.79675L7.6872 21.7737H7.46442L9.61843 2.79675H9.84121V2.79675Z" fill="white"/>
<path opacity="0.6" d="M10.0643 2.79675L7.90998 21.7737H7.68719L9.84121 2.79675H10.0643V2.79675Z" fill="white"/>
<path opacity="0.6" d="M10.2871 2.79675L8.13275 21.7737H7.90997L10.0643 2.79675H10.2871V2.79675Z" fill="white"/>
<path opacity="0.6" d="M10.5099 2.79675L8.35589 21.7737H8.13275L10.2871 2.79675H10.5099Z" fill="white"/>
<path opacity="0.6" d="M10.7331 2.79675L8.57868 21.7737H8.3559L10.5099 2.79675H10.7331V2.79675Z" fill="white"/>
<path opacity="0.6" d="M10.9558 2.79675L8.80145 21.7737H8.57867L10.733 2.79675H10.9558V2.79675Z" fill="white"/>
<path opacity="0.6" d="M11.1786 2.79675L9.02423 21.7737H8.80145L10.9558 2.79675H11.1786V2.79675Z" fill="white"/>
<path opacity="0.6" d="M11.4014 2.79675L9.24737 21.7737H9.02423L11.1786 2.79675H11.4014V2.79675Z" fill="white"/>
<path opacity="0.6" d="M11.6245 2.79675L9.47016 21.7737H9.24738L11.4014 2.79675H11.6245V2.79675Z" fill="white"/>
<path opacity="0.6" d="M11.8472 2.79675L9.69287 21.7737H9.47009L11.6245 2.79675H11.8472V2.79675Z" fill="white"/>
<path opacity="0.6" d="M12.07 2.79675L9.91601 21.7737H9.69287L11.8472 2.79675H12.07V2.79675Z" fill="white"/>
<path opacity="0.6" d="M12.2928 2.79675L10.1388 21.7737H9.91602L12.07 2.79675H12.2928V2.79675Z" fill="white"/>
<path opacity="0.6" d="M12.5159 2.79675L10.3616 21.7737H10.1388L12.2928 2.79675H12.5159V2.79675Z" fill="white"/>
<path opacity="0.6" d="M12.7387 2.79675L10.5844 21.7737H10.3616L12.5159 2.79675H12.7387V2.79675Z" fill="white"/>
<path opacity="0.6" d="M12.9615 2.79675L10.8075 21.7737H10.5844L12.7387 2.79675H12.9615V2.79675Z" fill="white"/>
<path opacity="0.6" d="M13.1843 2.79675L11.0303 21.7737H10.8075L12.9615 2.79675H13.1843V2.79675Z" fill="white"/>
<path opacity="0.6" d="M13.4074 2.79675L11.2531 21.7737H11.0303L13.1843 2.79675H13.4074V2.79675Z" fill="white"/>
<path opacity="0.6" d="M13.6302 2.79675L11.4758 21.7737H11.2531L13.4074 2.79675H13.6302V2.79675Z" fill="white"/>
<path opacity="0.6" d="M13.853 2.79675L11.699 21.7737H11.4758L13.6302 2.79675H13.853V2.79675Z" fill="white"/>
<path opacity="0.6" d="M14.0758 2.79675L11.9218 21.7737H11.699L13.853 2.79675H14.0758V2.79675Z" fill="white"/>
<path opacity="0.6" d="M14.299 2.79675L12.1446 21.7737H11.9218L14.0758 2.79675H14.299V2.79675Z" fill="white"/>
<path opacity="0.6" d="M14.5217 2.79675L12.3674 21.7737H12.1446L14.299 2.79675H14.5217V2.79675Z" fill="white"/>
<path opacity="0.6" d="M14.7445 2.79675L12.5905 21.7737H12.3674L14.5217 2.79675H14.7445Z" fill="white"/>
<path opacity="0.6" d="M14.9672 2.79675L12.8132 21.7737H12.5905L14.7445 2.79675H14.9672V2.79675Z" fill="white"/>
<path opacity="0.6" d="M15.1904 2.79675L13.036 21.7737H12.8132L14.9673 2.79675H15.1904Z" fill="white"/>
<path opacity="0.6" d="M15.4132 2.79675L13.2588 21.7737H13.036L15.1904 2.79675H15.4132V2.79675Z" fill="white"/>
<path opacity="0.6" d="M15.6359 2.79675L13.4819 21.7737H13.2588L15.4132 2.79675H15.6359V2.79675Z" fill="white"/>
<path opacity="0.6" d="M15.8587 2.79675L13.7047 21.7737H13.4819L15.636 2.79675H15.8587V2.79675Z" fill="white"/>
<path opacity="0.6" d="M16.0819 2.79675L13.9275 21.7737H13.7047L15.8587 2.79675H16.0819V2.79675Z" fill="white"/>
<path opacity="0.6" d="M16.3046 2.79675L14.1503 21.7737H13.9275L16.0819 2.79675H16.3046V2.79675Z" fill="white"/>
<path opacity="0.6" d="M16.5274 2.79675L14.3734 21.7737H14.1503L16.3046 2.79675H16.5274V2.79675Z" fill="white"/>
<path opacity="0.6" d="M16.7506 2.79675L14.5962 21.7737H14.3734L16.5274 2.79675H16.7506V2.79675Z" fill="white"/>
<path opacity="0.6" d="M16.9734 2.79675L14.819 21.7737H14.5963L16.7506 2.79675H16.9734V2.79675Z" fill="white"/>
<path opacity="0.6" d="M17.1962 2.79675L15.0418 21.7737H14.819L16.9734 2.79675H17.1962V2.79675Z" fill="white"/>
<path opacity="0.6" d="M17.419 2.79675L15.2649 21.7737H15.0418L17.1962 2.79675H17.419V2.79675Z" fill="white"/>
<path opacity="0.6" d="M17.642 2.79675L15.4877 21.7737H15.2649L17.4189 2.79675H17.642V2.79675Z" fill="white"/>
<path opacity="0.6" d="M17.8648 2.79675L15.7105 21.7737H15.4877L17.642 2.79675H17.8648V2.79675Z" fill="white"/>
<path opacity="0.6" d="M18.0876 2.79675L15.9336 21.7737H15.7104L17.8648 2.79675H18.0876V2.79675Z" fill="white"/>
<path opacity="0.6" d="M21.7041 2.79675L21.8289 2.81059V21.7737H15.9336L18.0876 2.79675H21.7041V2.79675Z" fill="white"/>
</g>
</g>
<g opacity="0.6">
<path opacity="0.6" d="M38.3679 17.7389L32.7556 12.1945L38.3262 6.60828L43.9385 12.153L38.3679 17.7389Z" fill="white"/>
<g opacity="0.6">
<path opacity="0.6" d="M43.938 9.85865L43.7858 6.6073H43.938V9.85865Z" fill="white"/>
<path opacity="0.6" d="M43.938 13.275L43.6261 6.6073H43.7858L43.938 9.85865V13.275Z" fill="white"/>
<path opacity="0.6" d="M43.938 16.6913L43.466 6.6073H43.6261L43.938 13.275V16.6913V16.6913ZM43.8271 17.7387L43.3063 6.6073H43.466L43.938 16.6913V17.7387H43.8271V17.7387Z" fill="white"/>
<path opacity="0.6" d="M43.6671 17.7387L43.1463 6.6073H43.3064L43.8271 17.7387H43.6671ZM43.5074 17.7387L42.9866 6.6073H43.1463L43.6671 17.7387H43.5074ZM43.3473 17.7387L42.8266 6.6073H42.9866L43.5074 17.7387H43.3473ZM43.1877 17.7387L42.6669 6.6073H42.8266L43.3473 17.7387H43.1877ZM43.028 17.7387L42.5068 6.6073H42.6669L43.1877 17.7387H43.028ZM42.8679 17.7387L42.3471 6.6073H42.5068L43.028 17.7387H42.8679ZM42.7082 17.7387L42.1871 6.6073H42.3471L42.8679 17.7387H42.7082ZM42.5482 17.7387L42.0274 6.6073H42.1871L42.7082 17.7387H42.5482ZM42.3885 17.7387L41.8674 6.6073H42.0274L42.5482 17.7387H42.3885ZM42.2285 17.7387L41.7077 6.6073H41.8674L42.3885 17.7387H42.2285ZM42.0688 17.7387L41.5476 6.6073H41.7077L42.2285 17.7387H42.0688ZM41.9087 17.7387L41.3879 6.6073H41.5476L42.0688 17.7387H41.9087ZM41.749 17.7387L41.2279 6.6073H41.3879L41.9087 17.7387H41.749ZM41.589 17.7387L41.0682 6.6073H41.2279L41.749 17.7387H41.589ZM41.4293 17.7387L40.9085 6.6073H41.0682L41.589 17.7387H41.4293ZM41.2692 17.7387L40.7485 6.6073H40.9085L41.4293 17.7387H41.2692ZM41.1096 17.7387L40.5888 6.6073H40.7485L41.2692 17.7387H41.1096ZM40.9495 17.7387L40.4287 6.6073H40.5888L41.1096 17.7387H40.9495ZM40.7898 17.7387L40.2691 6.6073H40.4287L40.9495 17.7387H40.7898ZM40.6298 17.7387L40.109 6.6073H40.2691L40.7898 17.7387H40.6298ZM40.4701 17.7387L39.9493 6.6073H40.109L40.6298 17.7387H40.4701ZM40.31 17.7387L39.7893 6.6073H39.9493L40.4701 17.7387H40.31ZM40.1504 17.7387L39.6296 6.6073H39.7893L40.31 17.7387H40.1504ZM39.9907 17.7387L39.4695 6.6073H39.6296L40.1504 17.7387H39.9907ZM39.8306 17.7387L39.3099 6.6073H39.4695L39.9907 17.7387H39.8306ZM39.6709 17.7387L39.1498 6.6073H39.3099L39.8306 17.7387H39.6709ZM39.5109 17.7387L38.9901 6.6073H39.1498L39.6709 17.7387H39.5109ZM39.3512 17.7387L38.8301 6.6073H38.9901L39.5109 17.7387H39.3512ZM39.1912 17.7387L38.6704 6.6073H38.8301L39.3512 17.7387H39.1912ZM39.0315 17.7387L38.5103 6.6073H38.6704L39.1912 17.7387H39.0315ZM38.8714 17.7387L38.3507 6.6073H38.5103L39.0315 17.7387H38.8714ZM38.7117 17.7387L38.1906 6.6073H38.3507L38.8714 17.7387H38.7117ZM38.5517 17.7387L38.0309 6.6073H38.1906L38.7117 17.7387H38.5517ZM38.392 17.7387L37.8712 6.6073H38.0309L38.5517 17.7387H38.392ZM38.232 17.7387L37.7112 6.6073H37.8712L38.392 17.7387H38.232ZM38.0723 17.7387L37.5515 6.6073H37.7112L38.232 17.7387H38.0723ZM37.9122 17.7387L37.3914 6.6073H37.5515L38.0723 17.7387H37.9122V17.7387ZM37.7525 17.7387L37.2318 6.6073H37.3914L37.9122 17.7387H37.7525ZM37.5925 17.7387L37.0717 6.6073H37.2318L37.7525 17.7387H37.5925ZM37.4328 17.7387L36.912 6.6073H37.0717L37.5925 17.7387H37.4328ZM37.2728 17.7387L36.752 6.6073H36.912L37.4328 17.7387H37.2728ZM37.1131 17.7387L36.5923 6.6073H36.752L37.2728 17.7387H37.1131ZM36.953 17.7387L36.4322 6.6073H36.5923L37.1131 17.7387H36.953ZM36.7933 17.7387L36.2726 6.6073H36.4322L36.953 17.7387H36.7933ZM36.6336 17.7387L36.1125 6.6073H36.2726L36.7933 17.7387H36.6336ZM36.4736 17.7387L35.9528 6.6073H36.1125L36.6336 17.7387H36.4736ZM36.3139 17.7387L35.7928 6.6073H35.9528L36.4736 17.7387H36.3139ZM36.1539 17.7387L35.6331 6.6073H35.7928L36.3139 17.7387H36.1539ZM35.9942 17.7387L35.473 6.6073H35.6331L36.1539 17.7387H35.9942ZM35.8341 17.7387L35.3134 6.6073H35.473L35.9942 17.7387H35.8341V17.7387ZM35.6744 17.7387L35.1533 6.6073H35.3134L35.8341 17.7387H35.6744ZM35.5144 17.7387L34.9936 6.6073H35.1533L35.6744 17.7387H35.5144ZM35.3547 17.7387L34.8336 6.6073H34.9936L35.5144 17.7387H35.3547ZM35.1947 17.7387L34.6739 6.6073H34.8336L35.3547 17.7387H35.1947ZM35.035 17.7387L34.5142 6.6073H34.6739L35.1947 17.7387H35.035ZM34.8749 17.7387L34.3542 6.6073H34.5142L35.035 17.7387H34.8749ZM34.7152 17.7387L34.1945 6.6073H34.3542L34.8749 17.7387H34.7152ZM34.5552 17.7387L34.0344 6.6073H34.1945L34.7152 17.7387H34.5552ZM34.3955 17.7387L33.8747 6.6073H34.0344L34.5552 17.7387H34.3955ZM34.2355 17.7387L33.7147 6.6073H33.8747L34.3955 17.7387H34.2355ZM34.0758 17.7387L33.555 6.6073H33.7147L34.2355 17.7387H34.0758ZM33.9157 17.7387L33.395 6.6073H33.555L34.0758 17.7387H33.9157ZM33.756 17.7387L33.2353 6.6073H33.395L33.9157 17.7387H33.756V17.7387ZM33.5963 17.7387L33.0752 6.6073H33.2353L33.756 17.7387H33.5963ZM33.4363 17.7387L32.9155 6.6073H33.0752L33.5963 17.7387H33.4363ZM33.2766 17.7387L32.7555 6.6073H32.9155L33.4363 17.7387H33.2766ZM33.1166 17.7387L32.7551 10.0101V6.6073H32.7555L33.2766 17.7387H33.1166V17.7387ZM32.9569 17.7387L32.7551 13.4265V10.0101L33.1166 17.7387H32.9569V17.7387ZM32.7968 17.7387L32.7551 16.8428V13.4265L32.9569 17.7387H32.7968ZM32.7551 16.8428L32.7968 17.7387H32.7551V16.8428Z" fill="white"/>
</g>
</g>
<path d="M12.6799 6.54812L6.92865 12.3157L12.7227 18.0403L17.6246 18.0222L12.4843 12.9469L37.8666 12.8532L35.642 15.0824L38.0929 15.0735L40.9688 12.1897L38.0716 9.32759L35.6206 9.33646L37.862 11.5497L12.4796 11.6433L17.5815 6.53003L12.6799 6.54812V6.54812Z" fill="white"/>
</svg>
