<svg width="55" height="74" viewBox="0 0 55 74" fill="none" xmlns="http://www.w3.org/2000/svg">
<path d="M17.7362 57.2052C17.7362 57.2052 14.9006 58.8467 19.7542 59.4022C25.6342 60.07 28.6394 59.9742 35.1192 58.7534C35.1192 58.7534 36.8228 59.8167 39.202 60.7378C24.676 66.9352 6.3268 60.3788 17.7362 57.2052Z" fill="white"/>
<path d="M15.9612 49.1178C15.9612 49.1178 12.7808 51.4614 17.638 51.9615C23.9192 52.6066 28.8796 52.6593 37.463 51.014C37.463 51.014 38.6502 52.2122 40.517 52.8674C22.9542 57.9798 3.3924 53.2705 15.9612 49.1178Z" fill="white"/>
<path d="M30.925 35.3991C34.5042 39.5012 29.9846 43.1927 29.9846 43.1927C29.9846 43.1927 39.0728 38.5223 34.899 32.6738C31.0008 27.2198 28.0114 24.5099 44.1948 15.1665C44.1948 15.1665 18.7922 21.4822 30.925 35.3991Z" fill="white"/>
<path d="M50.1368 63.187C50.1368 63.187 52.2352 64.9082 47.8258 66.2398C39.4412 68.7683 12.9282 69.5318 5.56301 66.3405C2.91541 65.1939 7.8804 63.6027 9.4422 63.2688C11.071 62.9172 12.0018 62.9827 12.0018 62.9827C9.0574 60.9179 -7.02959 67.0371 3.83041 68.7896C33.4472 73.5709 57.819 66.6366 50.1368 63.187Z" fill="white"/>
<path d="M19.0998 40.7385C19.0998 40.7385 5.61359 43.9272 14.324 45.0851C18.0018 45.5753 25.3334 45.4644 32.1626 44.8948C37.7438 44.4261 43.348 43.4296 43.348 43.4296C43.348 43.4296 41.38 44.2686 39.9562 45.2364C26.2612 48.822 -0.195004 47.1539 7.4214 43.4864C13.8626 40.3869 19.0998 40.7385 19.0998 40.7385Z" fill="white"/>
<path d="M43.2924 54.2001C57.214 46.9986 50.7772 40.078 46.2844 41.0104C45.1832 41.2386 44.6922 41.4363 44.6922 41.4363C44.6922 41.4363 45.101 40.7987 45.8818 40.5228C54.77 37.4121 61.6056 49.6973 43.0126 54.563C43.0126 54.5632 43.228 54.3715 43.2924 54.2001Z" fill="white"/>
<path d="M34.899 0.0794678C34.899 0.0794678 42.609 7.75722 27.5864 19.5634C15.5398 29.034 24.8394 34.4339 27.5814 40.6035C20.5496 34.2878 15.3892 28.728 18.8512 23.5535C23.9326 15.9578 38.0098 12.2751 34.899 0.0794678Z" fill="white"/>
<path d="M20.4678 73.7145C33.8308 74.5661 54.3512 73.2421 54.8372 66.9476C54.8372 66.9476 53.903 69.3338 43.7934 71.2288C32.3878 73.3655 18.3206 73.116 9.9772 71.7466C9.9774 71.7464 11.6852 73.1539 20.4678 73.7145Z" fill="white"/>
</svg>
