<svg width="54" height="54" viewBox="0 0 54 54" fill="none" xmlns="http://www.w3.org/2000/svg">
<path fill-rule="evenodd" clip-rule="evenodd" d="M0 0H54V54H0V0ZM41.28 45.2691C38.7771 45.2691 37.362 43.9636 36.2743 42.1876L32.1506 44.5834C33.6403 47.5268 36.6849 49.7725 41.3974 49.7725C46.2171 49.7725 49.806 47.2696 49.806 42.7011C49.806 38.4634 47.3717 36.5785 43.0603 34.7296L41.7917 34.1862C39.6146 33.2434 38.6717 32.6271 38.6717 31.1048C38.6717 29.8731 39.6137 28.9302 41.1 28.9302C42.5571 28.9302 43.4957 29.5448 44.3657 31.1048L48.3171 28.5676C46.6457 25.6276 44.3263 24.5048 41.1 24.5048C36.5683 24.5048 33.6686 27.4019 33.6686 31.2076C33.6686 35.3391 36.1011 37.2934 39.7629 38.8534L41.0314 39.3976C43.3457 40.4099 44.7257 41.0262 44.7257 42.7662C44.7257 44.2182 43.3826 45.2691 41.28 45.2691ZM21.6146 45.2374C19.8711 45.2374 19.146 44.0416 18.3489 42.6274L14.2183 45.1281C15.4149 47.6605 17.7677 49.7631 21.8306 49.7631C26.3271 49.7631 29.4077 47.3716 29.4077 42.1174V24.7945H24.3334V42.0488C24.3334 44.5851 23.2817 45.2374 21.6146 45.2374Z" fill="white"/>
</svg>
