<svg width="69" height="80" viewBox="0 0 69 80" fill="none" xmlns="http://www.w3.org/2000/svg">
<path d="M3.56943 42.0949C3.56943 44.5388 3.37473 45.3348 2.87406 45.9214C2.31684 46.4252 1.59344 46.7039 0.843594 46.7035L1.0383 48.1C2.20081 48.1158 3.32882 47.7034 4.20917 46.9409C4.68284 46.3608 5.03533 45.6909 5.24559 44.9711C5.45586 44.2513 5.5196 43.4963 5.43301 42.7512V33.5061H3.56943V42.039V42.0949Z" fill="white"/>
<path d="M17.4675 40.9932C17.4675 42.0406 17.4675 42.9763 17.551 43.7863H15.896L15.7848 42.1244C15.4386 42.7125 14.9435 43.1979 14.35 43.5315C13.7564 43.8651 13.0854 44.035 12.4053 44.0237C10.792 44.0237 8.87281 43.1439 8.87281 39.5548V33.5916H10.7364V39.1777C10.7364 41.1189 11.3344 42.4177 13.0172 42.4177C13.3634 42.4215 13.7069 42.3557 14.0275 42.2244C14.348 42.0931 14.6393 41.8988 14.8841 41.653C15.1289 41.4071 15.3224 41.1147 15.4532 40.7927C15.5839 40.4708 15.6494 40.1259 15.6457 39.7782V33.5217H17.5093V40.9374L17.4675 40.9932Z" fill="white"/>
<path d="M21 36.914C21 35.6153 21 34.5539 20.9165 33.5903H22.5854L22.6689 35.3359C23.0407 34.7053 23.576 34.1877 24.2176 33.8385C24.8593 33.4892 25.5834 33.3214 26.3126 33.3529C28.7881 33.3529 30.6517 35.4337 30.6517 38.534C30.6517 42.193 28.4126 44.0085 25.9927 44.0085C25.3733 44.0362 24.7573 43.903 24.2043 43.6217C23.6512 43.3403 23.1798 42.9204 22.8357 42.4025V47.9886H21V36.9559V36.914ZM22.8357 39.6373C22.8408 39.8907 22.8687 40.1431 22.9192 40.3914C23.077 41.0115 23.4362 41.5611 23.9399 41.9531C24.4437 42.3452 25.0633 42.5574 25.7007 42.5561C27.6616 42.5561 28.8159 40.9501 28.8159 38.6178C28.8159 36.5789 27.7311 34.8332 25.7702 34.8332C24.9942 34.897 24.268 35.2429 23.7278 35.8059C23.1875 36.3689 22.8704 37.1105 22.8357 37.8916V39.6373Z" fill="white"/>
<path d="M33.9721 33.5807L36.2111 39.5998C36.4476 40.2701 36.6979 41.0801 36.8648 41.6806C37.0595 41.0661 37.2681 40.2841 37.5184 39.5579L39.5489 33.5807H41.5098L38.7284 40.8427C37.3376 44.334 36.4893 46.1356 35.2098 47.2249C34.5654 47.816 33.7797 48.2297 32.929 48.4259L32.4701 46.8618C33.0649 46.6655 33.6171 46.3575 34.0972 45.954C34.7757 45.3988 35.3141 44.6907 35.6688 43.8872C35.7447 43.748 35.7964 43.5969 35.8217 43.4403C35.8059 43.2717 35.7637 43.1068 35.6966 42.9515L31.9138 33.5527H33.9442L33.9721 33.5807Z" fill="white"/>
<path d="M46.4571 30.6511V33.5839H49.1273V34.9804H46.4571V40.4828C46.4571 41.7397 46.8187 42.4659 47.8479 42.4659C48.2134 42.4719 48.5781 42.4296 48.9326 42.3402L49.0161 43.7367C48.4844 43.9217 47.9234 44.0069 47.3611 43.9881C46.9887 44.0115 46.6157 43.9538 46.2676 43.8188C45.9195 43.6838 45.6046 43.4747 45.3445 43.2061C44.7781 42.4452 44.5196 41.4971 44.6214 40.5526V34.9664H43.0359V33.5699H44.6492V31.0841L46.4571 30.6511Z" fill="white"/>
<path d="M52.5602 39.0103C52.5224 39.484 52.5875 39.9602 52.751 40.4061C52.9145 40.8519 53.1724 41.2569 53.507 41.5928C53.8416 41.9288 54.2448 42.1878 54.6888 42.352C55.1329 42.5161 55.6071 42.5815 56.0787 42.5436C57.0327 42.565 57.9805 42.3842 58.8602 42.0129L59.1801 43.4095C58.1006 43.856 56.9398 44.0701 55.7728 44.0379C55.0924 44.0847 54.41 43.9831 53.7725 43.7402C53.1349 43.4973 52.5571 43.1187 52.0789 42.6306C51.6007 42.1424 51.2333 41.5561 51.0019 40.9119C50.7705 40.2678 50.6806 39.581 50.7383 38.8986C50.7383 35.8262 52.5602 33.3962 55.5364 33.3962C58.8741 33.3962 59.7085 36.329 59.7085 38.2004C59.7264 38.4887 59.7264 38.7779 59.7085 39.0662H52.5185L52.5602 39.0103ZM58.0119 37.6138C58.0655 37.2404 58.0389 36.8598 57.9337 36.4977C57.8285 36.1356 57.6472 35.8002 57.4021 35.5144C57.157 35.2285 56.8537 34.9988 56.5126 34.8405C56.1716 34.6823 55.8008 34.5994 55.4251 34.5973C54.661 34.6528 53.9451 34.9929 53.4177 35.5509C52.8903 36.1089 52.5894 36.8446 52.5741 37.6138H58.0119Z" fill="white"/>
<path d="M62.5362 36.7565C62.5362 35.5555 62.5362 34.522 62.4527 33.5724H64.1216V35.5694H64.205C64.3802 34.9531 64.7421 34.4067 65.2406 34.0063C65.739 33.6059 66.3492 33.3713 66.9865 33.335C67.1619 33.3118 67.3396 33.3118 67.515 33.335V35.0807C67.3024 35.0559 67.0878 35.0559 66.8752 35.0807C66.2439 35.1052 65.6431 35.3597 65.185 35.7966C64.7269 36.2335 64.4428 36.8229 64.3858 37.4548C64.3338 37.7405 64.3059 38.0302 64.3024 38.3206V43.7532H62.4666V36.7705L62.5362 36.7565Z" fill="white"/>
<path d="M61.7195 5.53035C61.7766 6.46857 61.5543 7.40261 61.0809 8.21349C60.6075 9.02439 59.9044 9.67542 59.0613 10.0837C58.2181 10.4919 57.273 10.6389 56.3464 10.5059C55.4198 10.3728 54.5536 9.96582 53.8581 9.33669C53.1627 8.70758 52.6694 7.8848 52.4413 6.97319C52.2131 6.06159 52.2603 5.1024 52.577 4.21785C52.8936 3.3333 53.4652 2.56341 54.2191 2.00626C54.973 1.4491 55.875 1.12991 56.8102 1.08934C57.4233 1.05546 58.0371 1.14363 58.6161 1.34878C59.1952 1.55393 59.7282 1.87201 60.1845 2.28472C60.6407 2.69744 61.0112 3.19666 61.2746 3.75366C61.538 4.31067 61.6892 4.91448 61.7195 5.53035Z" fill="white"/>
<path d="M34.2196 60.2234C21.7031 60.2234 10.7024 55.7125 5.01428 49.051C7.22128 55.0438 11.2036 60.2138 16.4251 63.8652C21.6466 67.5166 27.8569 69.4739 34.2196 69.4739C40.5825 69.4739 46.7926 67.5166 52.0143 63.8652C57.2357 60.2138 61.218 55.0438 63.4251 49.051C57.7509 55.7125 46.7919 60.2234 34.2196 60.2234Z" fill="white"/>
<path d="M34.2196 16.9054C46.7362 16.9054 57.737 21.4162 63.4251 28.0777C61.218 22.0849 57.2357 16.9149 52.0143 13.2636C46.7926 9.6122 40.5825 7.65479 34.2196 7.65479C27.8569 7.65479 21.6466 9.6122 16.4251 13.2636C11.2036 16.9149 7.22128 22.0849 5.01428 28.0777C10.7024 21.4022 21.6475 16.9054 34.2196 16.9054Z" fill="white"/>
<path d="M16.9891 73.1869C17.0625 74.3686 16.7839 75.5456 16.1888 76.5677C15.5937 77.5899 14.7091 78.4111 13.6476 78.9266C12.5861 79.4421 11.3958 79.6286 10.2284 79.4623C9.06094 79.2961 7.96922 78.7846 7.09231 77.9931C6.21539 77.2016 5.59298 76.1658 5.30437 75.0178C5.01576 73.8697 5.07402 72.6614 5.47173 71.5468C5.86944 70.4321 6.58859 69.4616 7.53755 68.7588C8.48653 68.0561 9.62235 67.6529 10.8003 67.6007C11.572 67.5593 12.3442 67.6709 13.0729 67.9292C13.8016 68.1876 14.4725 68.5875 15.0472 69.1063C15.6219 69.6251 16.0892 70.2524 16.4224 70.9526C16.7556 71.6528 16.9482 72.412 16.9891 73.1869Z" fill="white"/>
<path d="M6.4368 15.3873C5.76236 15.406 5.09747 15.224 4.52574 14.8643C3.95402 14.5045 3.50098 13.9831 3.22361 13.3655C2.94623 12.7478 2.85691 12.0617 2.96686 11.3932C3.07681 10.7247 3.38114 10.1039 3.84156 9.60862C4.30199 9.11339 4.89796 8.76592 5.55452 8.6099C6.21107 8.45389 6.89891 8.4963 7.53155 8.73181C8.16417 8.96731 8.71332 9.3854 9.10994 9.93348C9.50657 10.4816 9.73297 11.1352 9.76065 11.8121C9.787 12.7275 9.45274 13.6163 8.83043 14.2857C8.20812 14.955 7.34799 15.3509 6.4368 15.3873Z" fill="white"/>
</svg>
