<svg width="160" height="80" viewBox="0 0 160 80" fill="none" xmlns="http://www.w3.org/2000/svg">
<path d="M19.8538 11.5031C19.1004 10.7329 18.0543 10.2586 16.8891 10.2586C15.7265 10.2586 14.689 10.7329 13.945 11.5031H13.9255C13.1745 12.2673 12.7083 13.3341 12.7083 14.5129C12.7083 15.6987 13.1745 16.7588 13.9255 17.5155L13.945 17.5365C14.689 18.3 15.7265 18.7676 16.8891 18.7676C18.0543 18.7676 19.1004 18.3 19.8538 17.5365L19.8623 17.5155C20.6168 16.7588 21.0768 15.6987 21.0768 14.5129C21.0768 13.3341 20.6168 12.2673 19.8623 11.5031H19.8538V11.5031ZM16.8891 69.7414C18.0543 69.7414 19.1004 69.2583 19.8538 68.5024L19.8623 68.4805C20.6168 67.7259 21.0768 66.659 21.0768 65.4866C21.0768 64.3012 20.6168 63.2391 19.8623 62.4709H19.8538C19.1004 61.6935 18.0543 61.2236 16.8891 61.2236C15.7265 61.2236 14.689 61.6935 13.945 62.4709H13.9255C13.1745 63.2391 12.7083 64.3012 12.7083 65.4866C12.7083 66.659 13.1745 67.7259 13.9255 68.4805L13.945 68.5024C14.689 69.2583 15.7265 69.7414 16.8891 69.7414ZM39.6676 56.851C40.7031 56.5739 41.6408 55.8977 42.213 54.8748L42.2902 54.7253C42.7992 53.7568 42.8926 52.6367 42.6203 51.6433C42.3459 50.582 41.6739 49.6405 40.6708 49.0551L40.6119 49.0147C39.6344 48.4682 38.5218 48.3492 37.4995 48.6328C36.4597 48.8969 35.5251 49.6016 34.9561 50.6157C34.3796 51.6235 34.2593 52.7819 34.5348 53.8484C34.82 54.8978 35.4865 55.8453 36.4834 56.4375H36.4897C37.4886 57.0224 38.6184 57.1268 39.6675 56.851H39.6676ZM21.1774 35.6401C20.0799 34.5265 18.5653 33.8285 16.8891 33.8285C15.2151 33.8285 13.7049 34.5265 12.6097 35.6401C11.5173 36.7526 10.8443 38.287 10.8443 39.9928C10.8443 41.6986 11.5173 43.2397 12.6097 44.3653C13.7049 45.4722 15.2151 46.1639 16.8891 46.1639C18.5653 46.1639 20.0799 45.4722 21.1774 44.3653C22.2717 43.2397 22.9448 41.6986 22.9448 39.9928C22.9448 38.287 22.2717 36.7526 21.1774 35.6401ZM18.7659 28.3894C21.1987 28.7972 23.3841 29.983 25.054 31.6952H25.0669C25.3326 31.9645 25.591 32.2611 25.8311 32.5578L30.0056 30.1008C29.444 28.3752 29.4182 26.5711 29.8692 24.8784C30.4643 22.6134 31.9079 20.5848 34.0718 19.3141L34.1427 19.2682C36.2831 18.0359 38.7159 17.7796 40.912 18.3848C43.1359 18.9913 45.1422 20.467 46.3909 22.6657V22.6721C47.6341 24.8589 47.886 27.3686 47.2932 29.6273C46.7015 31.8926 45.2525 33.9343 43.0907 35.1984L42.5205 35.5406H42.4627C40.4627 36.5094 38.2646 36.661 36.2453 36.12C34.5874 35.6727 33.0666 34.7303 31.8756 33.3942L27.7077 35.844C28.1867 37.1342 28.4513 38.5238 28.4513 39.9928C28.4513 41.4543 28.1867 42.8645 27.7077 44.1611L31.8756 46.6045C33.0666 45.2474 34.5874 44.326 36.2453 43.8779C38.4703 43.2592 40.9354 43.5221 43.0907 44.8004L43.229 44.8658V44.8722C45.3105 46.1572 46.7081 48.139 47.2932 50.3779C47.886 52.6238 47.6341 55.1342 46.3909 57.3254L46.3157 57.4781L46.307 57.465C45.0587 59.5777 43.0906 61.0086 40.9182 61.6138C38.69 62.2115 36.2238 61.9561 34.0717 60.6965V60.6791C31.9079 59.4063 30.4642 57.3734 29.8692 55.1124C29.4182 53.4276 29.4439 51.6235 30.0055 49.8979L25.831 47.4473C25.591 47.744 25.3325 48.0275 25.0668 48.2968L25.054 48.31C23.384 50.0157 21.1987 51.2015 18.7659 51.5962V56.5041C20.4999 56.8729 22.0519 57.7553 23.2683 58.9931L23.2748 59.0061C24.9051 60.6573 25.9146 62.9575 25.9146 65.4866C25.9146 68.0074 24.9051 70.2946 23.2748 71.9544L23.2683 71.9802C21.6263 73.6391 19.3747 74.6667 16.889 74.6667C14.4165 74.6667 12.1584 73.6391 10.5207 71.9802H10.5141V71.9544C8.88191 70.2946 7.87016 68.0074 7.87016 65.4866C7.87016 62.9575 8.88191 60.6573 10.5141 59.0061V58.9931H10.5207C11.7359 57.7553 13.291 56.8729 15.019 56.5041V51.5962C12.5859 51.2015 10.4049 50.0157 8.73724 48.31L8.72012 48.2968C6.63773 46.1703 5.33331 43.2397 5.33331 39.9928C5.33331 36.7526 6.63773 33.8217 8.72012 31.6952H8.73724C10.4049 29.983 12.5859 28.7972 15.019 28.3894V23.5022C13.291 23.1206 11.736 22.2382 10.5207 21.0068H10.5142V20.9936C8.88197 19.3272 7.87022 17.0423 7.87022 14.5129C7.87022 11.9968 8.88197 9.69197 10.5142 8.03237L10.5207 8.02567C12.1584 6.36011 14.4166 5.33337 16.8891 5.33337C19.3748 5.33337 21.6263 6.36011 23.2683 8.02567V8.03237H23.2749C24.9052 9.69197 25.9147 11.9968 25.9147 14.5129C25.9147 17.0423 24.9052 19.3272 23.2749 20.9936L23.2683 21.0068C22.0519 22.2382 20.5 23.1206 18.7659 23.5022V28.3894V28.3894ZM42.213 25.1294L42.1778 25.0759C41.6022 24.0891 40.6836 23.4304 39.6676 23.1465C38.6184 22.8632 37.4886 22.9819 36.4834 23.5688H36.4897C35.4865 24.1479 34.8157 25.0957 34.5348 26.1567C34.2592 27.2104 34.3796 28.3752 34.9561 29.3897L34.9752 29.4159C35.5531 30.4169 36.4725 31.0887 37.4995 31.3592C38.5303 31.6558 39.6804 31.5305 40.6707 30.9436L40.7245 30.9174C41.6997 30.3253 42.3493 29.3897 42.6203 28.3621C42.8969 27.302 42.7863 26.1436 42.2129 25.1294" fill="white"/>
<path d="M60.7344 26.5648H65.3922V41.0335L72.1091 33.4731H77.6939L69.5849 42.232L77.7276 53.3348H72.3945L65.3922 43.4175V53.3348H60.7344V26.5648" fill="white"/>
<path d="M83.1046 43.4896C83.1046 45.9533 84.846 49.535 89.0413 49.535C91.6373 49.535 93.3457 48.1585 94.2317 46.3547C94.6956 45.479 94.9093 44.543 94.981 43.569C95.0132 42.6267 94.8383 41.6463 94.4447 40.7761C93.6281 38.8998 91.8158 37.2729 89.0069 37.2729C85.2403 37.2729 83.1046 40.3811 83.1046 43.4568V43.4896V43.4896ZM99.6014 53.3348H94.9415V50.4774C93.7013 52.7884 91.1046 53.9476 88.366 53.9476C82.1081 53.9476 78.4475 48.9885 78.4475 43.3849C78.4475 37.1278 82.8909 32.86 88.366 32.86C91.9212 32.86 94.0891 34.7772 94.9415 36.3708V33.4731H99.6014V53.3348Z" fill="white"/>
<path d="M104.875 37.1278H102.461V33.4731H104.875V32.3539C104.875 26.4525 109.285 26.0967 112.629 26.0575V29.7058C111.453 29.7058 109.535 29.7058 109.535 32.4979V33.4731H112.629V37.1278H109.535V53.3348H104.875V37.1278" fill="white"/>
<path d="M115.796 26.5648H120.452V41.0335L127.171 33.4731H132.755L124.646 42.232L132.788 53.3348H127.454L120.452 43.4175V53.3348H115.796V26.5648Z" fill="white"/>
<path d="M138.166 43.4896C138.166 45.9533 139.907 49.535 144.103 49.535C146.695 49.535 148.403 48.1585 149.291 46.3547C149.756 45.479 149.971 44.543 150.041 43.569C150.073 42.6267 149.898 41.6463 149.504 40.7761C148.689 38.8998 146.876 37.2729 144.068 37.2729C140.301 37.2729 138.166 40.3811 138.166 43.4568V43.4896V43.4896ZM154.661 53.3348H150.003V50.4774C148.759 52.7884 146.165 53.9476 143.427 53.9476C137.169 53.9476 133.512 48.9885 133.512 43.3849C133.512 37.1278 137.954 32.86 143.427 32.86C146.98 32.86 149.151 34.7772 150.003 36.3708V33.4731H154.661V53.3348Z" fill="white"/>
</svg>
