<svg width="161" height="43" viewBox="0 0 161 43" fill="none" xmlns="http://www.w3.org/2000/svg">
<path d="M27.4648 26.6858C27.4648 26.6858 39.2293 18.0428 34.4648 12.4528C28.9408 5.96844 13.4562 19.7198 11.7645 16.9248C10.0727 14.1298 25.5055 7.43044 27.18 6.31244C27.3613 6.19204 27.4131 5.95984 27.3613 5.69324L29.1479 5.48684L28.0345 4.92784L28.3193 3.81844L27.0246 4.82464C26.5413 3.95604 25.7127 3.01864 25.238 2.69184C23.5548 1.58244 20.4735 1.84904 15.9938 4.08504C11.5142 6.32104 1.12205 13.2956 6.43894 21.113C11.2034 28.0876 24.8927 16.0992 27.18 18.0342C29.1393 19.7112 14.0172 30.0398 14.0172 30.0398C14.0172 30.0398 20.4389 30.0398 20.4648 30.0398C19.3514 32.8348 14.0172 40.936 14.0172 40.936L33.4204 26.9696C31.3835 26.6686 27.4648 26.6858 27.4648 26.6858ZM22.1911 3.52604C22.8816 3.47444 23.4772 4.00764 23.529 4.68704C23.5807 5.37504 23.0456 5.96844 22.3637 6.02004C21.6732 6.07164 21.0777 5.53844 21.0259 4.85904C20.9741 4.17964 21.5006 3.57764 22.1911 3.52604Z" fill="white"/>
<path d="M59.1677 32.3705C57.5709 29.5411 55.836 26.7461 53.9803 23.9941C52.1159 21.2335 50.1393 18.6277 48.0333 16.1853V32.3791H42.5179V7.65405H47.0666C47.852 8.43665 48.7238 9.39985 49.6819 10.5437C50.6399 11.6875 51.6067 12.9001 52.5993 14.1987C53.5919 15.4973 54.5758 16.8389 55.5512 18.2321C56.5265 19.6253 57.4501 20.9583 58.3045 22.2483V7.65405H63.8545V32.3705H59.1677Z" fill="white"/>
<path d="M85.3033 31.734C84.397 31.992 83.2232 32.2414 81.799 32.465C80.3748 32.6886 78.8644 32.8004 77.2848 32.8004C75.688 32.8004 74.3588 32.5854 73.2972 32.1554C72.2355 31.7254 71.3897 31.1234 70.7768 30.358C70.1554 29.584 69.7152 28.6638 69.4562 27.5974C69.1973 26.531 69.0592 25.3528 69.0592 24.0628V13.6138H74.3934V23.4264C74.3934 25.1378 74.6178 26.3762 75.0752 27.133C75.5241 27.8984 76.3786 28.2768 77.6128 28.2768C77.9926 28.2768 78.3983 28.2596 78.8298 28.2252C79.2614 28.1908 79.6412 28.1478 79.9778 28.0962V13.6138H85.312V31.734H85.3033Z" fill="white"/>
<path d="M100.658 22.4202C100.658 20.7088 100.434 19.4962 99.9939 18.7824C99.5537 18.0686 98.7941 17.716 97.7238 17.716C97.3872 17.716 97.042 17.7332 96.6881 17.7676C96.3342 17.802 95.9803 17.845 95.6523 17.8966V32.379H90.3182V14.2502C90.767 14.1298 91.3021 14.0094 91.915 13.8718C92.5278 13.7428 93.1665 13.6224 93.8484 13.5192C94.5303 13.416 95.2294 13.33 95.9458 13.2698C96.6622 13.2096 97.3613 13.1838 98.0604 13.1838C99.4242 13.1838 100.52 13.3558 101.375 13.6998C102.221 14.0438 102.92 14.4566 103.472 14.9296C104.232 14.3792 105.112 13.9578 106.105 13.6482C107.097 13.3386 108.004 13.1838 108.841 13.1838C110.343 13.1838 111.577 13.3902 112.544 13.8116C113.51 14.2244 114.279 14.8178 114.857 15.5746C115.427 16.34 115.824 17.243 116.039 18.2836C116.255 19.3328 116.359 20.4938 116.359 21.7752V32.3704H111.025V22.4202C111.025 20.7088 110.8 19.4962 110.36 18.7824C109.92 18.0686 109.16 17.716 108.09 17.716C107.805 17.716 107.4 17.7848 106.89 17.931C106.372 18.0772 105.949 18.2492 105.621 18.4642C105.785 19.0146 105.898 19.5908 105.941 20.1928C105.993 20.8034 106.01 21.4484 106.01 22.1364V32.3704H100.676V22.4202H100.658Z" fill="white"/>
<path d="M138.679 22.9878C138.679 24.4842 138.455 25.843 138.015 27.0556C137.575 28.2682 136.936 29.3002 136.099 30.1602C135.261 31.0202 134.234 31.6738 133.017 32.1382C131.8 32.6026 130.419 32.8348 128.866 32.8348C128.218 32.8348 127.545 32.809 126.846 32.7488C126.138 32.6886 125.448 32.6112 124.766 32.5166C124.084 32.422 123.436 32.3102 122.815 32.1812C122.194 32.0522 121.641 31.9146 121.166 31.7684V5.54701L126.501 4.68701V14.0352C127.096 13.7772 127.718 13.5708 128.365 13.4246C129.012 13.2784 129.703 13.2096 130.445 13.2096C131.783 13.2096 132.965 13.4418 133.993 13.9062C135.02 14.3706 135.874 15.0328 136.573 15.8842C137.264 16.7442 137.79 17.7676 138.144 18.9716C138.498 20.1842 138.679 21.5172 138.679 22.9878ZM133.233 22.8502C133.233 19.4274 131.964 17.716 129.435 17.716C128.883 17.716 128.339 17.7848 127.804 17.931C127.269 18.0772 126.829 18.2492 126.501 18.4642V28.1306C126.76 28.1822 127.096 28.2166 127.502 28.2596C127.908 28.294 128.348 28.3112 128.822 28.3112C130.281 28.3112 131.377 27.8124 132.12 26.8148C132.871 25.8086 133.233 24.4928 133.233 22.8502Z" fill="white"/>
<path d="M149.564 13.115C151.134 13.115 152.455 13.2956 153.499 13.6482C154.552 14.0008 155.39 14.5168 156.02 15.179C156.65 15.8412 157.099 16.6496 157.366 17.6042C157.625 18.5588 157.763 19.6166 157.763 20.7776V31.8372C156.995 32.0006 155.933 32.1984 154.578 32.422C153.215 32.6456 151.575 32.7574 149.641 32.7574C148.424 32.7574 147.319 32.6542 146.327 32.4392C145.334 32.2242 144.48 31.8716 143.763 31.39C143.047 30.8998 142.494 30.2634 142.115 29.4808C141.735 28.6982 141.545 27.735 141.545 26.5912C141.545 25.499 141.769 24.5702 142.21 23.8048C142.65 23.048 143.245 22.4374 143.979 21.9816C144.721 21.5344 145.567 21.199 146.517 21.0012C147.475 20.8034 148.459 20.7002 149.486 20.7002C150.176 20.7002 150.789 20.726 151.333 20.7862C151.868 20.8464 152.308 20.9238 152.636 21.0184V20.5196C152.636 19.6166 152.36 18.8942 151.816 18.3438C151.264 17.7934 150.314 17.5268 148.951 17.5268C148.044 17.5268 147.147 17.5956 146.266 17.7246C145.386 17.8536 144.618 18.0428 143.979 18.275L143.297 13.9922C143.608 13.8976 143.996 13.7944 144.462 13.6912C144.929 13.588 145.438 13.4934 145.982 13.4074C146.534 13.3214 147.112 13.2526 147.716 13.1924C148.329 13.1408 148.942 13.115 149.564 13.115ZM149.986 28.6638C150.513 28.6638 151.014 28.6552 151.488 28.6294C151.963 28.6036 152.351 28.5692 152.636 28.5262V24.4928C152.421 24.4412 152.101 24.3982 151.67 24.3466C151.238 24.295 150.85 24.2778 150.487 24.2778C149.986 24.2778 149.512 24.3036 149.072 24.3638C148.631 24.424 148.243 24.5358 147.906 24.6992C147.57 24.8626 147.311 25.0948 147.121 25.3786C146.931 25.6624 146.836 26.0236 146.836 26.445C146.836 27.2792 147.112 27.8554 147.673 28.1736C148.243 28.5004 149.011 28.6638 149.986 28.6638Z" fill="white"/>
</svg>
