<svg width="167" height="75" viewBox="0 0 167 75" fill="none" xmlns="http://www.w3.org/2000/svg">
<path d="M69.2259 28.8692C69.3553 28.8854 69.4815 28.9204 69.6007 28.9731C69.7173 29.0284 69.8249 29.1008 69.92 29.1879C70.0428 29.3051 70.158 29.4301 70.2647 29.5621L79.8679 41.6802C79.8286 41.2945 79.8031 40.9158 79.7846 40.5532C79.7661 40.1906 79.7568 39.8442 79.7568 39.5208V28.83H83.891V49.0107H81.448C81.1351 49.0197 80.8238 48.963 80.5342 48.8444C80.2473 48.7031 79.9995 48.4937 79.8124 48.2347L70.2785 36.2251C70.3086 36.5738 70.3294 36.918 70.3479 37.2552C70.3665 37.5924 70.378 37.9088 70.378 38.2044V49.0223H66.2415V28.83H68.71C68.8826 28.8319 69.055 28.845 69.2259 28.8692V28.8692Z" fill="white"/>
<path d="M90.6879 34.6431V43.7565C90.6879 44.4678 90.8499 45.0175 91.1738 45.4055C91.3522 45.6045 91.5737 45.7603 91.8214 45.8611C92.0691 45.9619 92.3366 46.0052 92.6035 45.9875C93.0616 45.9905 93.5146 45.8911 93.9291 45.6965C94.3675 45.4845 94.7721 45.209 95.1298 44.8789V34.6431H99.4305V49.0061H96.7677C96.5354 49.0253 96.3036 48.9642 96.1111 48.833C95.9186 48.7018 95.7771 48.5085 95.7105 48.2855L95.4491 47.4541C95.1784 47.7158 94.891 47.9596 94.5884 48.1839C94.2912 48.3997 93.9726 48.5847 93.6376 48.7359C93.2847 48.8946 92.9165 49.0168 92.5387 49.1008C92.12 49.1917 91.6925 49.2358 91.264 49.2324C90.5487 49.2455 89.8389 49.1061 89.1819 48.8236C88.5916 48.5625 88.0675 48.1727 87.648 47.6827C87.2215 47.1735 86.9007 46.5847 86.7042 45.9506C86.4847 45.2417 86.377 44.503 86.3849 43.7611V34.6431H90.6879Z" fill="white"/>
<path d="M102.204 49.0107V34.6431H104.87C105.107 34.6345 105.341 34.6973 105.543 34.8232C105.729 34.9533 105.864 35.1445 105.924 35.3636L106.156 36.1396C106.389 35.8924 106.639 35.661 106.903 35.4468C107.163 35.2381 107.445 35.057 107.743 34.9064C108.398 34.5742 109.125 34.4054 109.86 34.4144C110.635 34.3843 111.397 34.6216 112.018 35.0865C112.603 35.5574 113.05 36.1763 113.314 36.8787C113.542 36.4535 113.84 36.0694 114.195 35.7424C114.531 35.4364 114.91 35.1805 115.319 34.9826C115.725 34.7877 116.153 34.6434 116.594 34.553C117.036 34.4613 117.485 34.4149 117.936 34.4144C118.683 34.4016 119.425 34.5261 120.127 34.7816C120.737 35.0077 121.286 35.3731 121.73 35.8486C122.176 36.3449 122.509 36.9308 122.709 37.5669C122.942 38.3143 123.054 39.0939 123.042 39.8765V49.0038H118.739V39.8834C118.739 38.3961 118.101 37.6532 116.826 37.6547C116.557 37.6461 116.29 37.6927 116.04 37.7917C115.791 37.8906 115.564 38.0397 115.375 38.2298C114.991 38.6101 114.799 39.1613 114.799 39.8834V49.0107H110.503V39.8834C110.503 39.0612 110.341 38.4838 110.017 38.1513C109.693 37.8187 109.217 37.6547 108.587 37.6547C108.204 37.6538 107.826 37.7432 107.484 37.9157C107.124 38.1017 106.795 38.3399 106.505 38.6224V49.0153L102.204 49.0107Z" fill="white"/>
<path d="M130.232 42.2646V49.0108H125.543V28.8301H132.673C133.915 28.8025 135.155 28.9716 136.344 29.3312C137.272 29.6149 138.131 30.0866 138.868 30.7169C139.517 31.2874 140.019 32.005 140.333 32.8094C140.649 33.6403 140.806 34.5233 140.795 35.4122C140.807 36.3581 140.642 37.2978 140.31 38.1837C139.994 39.0121 139.485 39.7533 138.824 40.3454C138.089 40.9859 137.226 41.4644 136.293 41.7496C135.122 42.1123 133.899 42.2861 132.673 42.2646H130.232ZM130.232 38.7334H132.673C133.894 38.7334 134.773 38.4447 135.31 37.8604C135.847 37.276 136.115 36.4746 136.115 35.4238C136.121 34.9945 136.05 34.5676 135.907 34.1628C135.774 33.7932 135.558 33.459 135.275 33.1858C134.969 32.9004 134.605 32.6852 134.207 32.5553C133.711 32.3957 133.193 32.3177 132.673 32.3244H130.232V38.7334Z" fill="white"/>
<path d="M149.128 52.7383C149.031 52.9838 148.871 53.2 148.666 53.3665C148.397 53.5219 148.087 53.592 147.777 53.5674H144.55L147.326 47.752L141.584 34.6431H145.385C145.663 34.6289 145.938 34.7104 146.163 34.874C146.339 35.0098 146.474 35.1923 146.551 35.4006L148.909 41.5925C149.127 42.1504 149.307 42.7221 149.45 43.3038C149.543 43.0082 149.644 42.7172 149.755 42.4331C149.866 42.1491 149.973 41.8558 150.075 41.5601L152.212 35.396C152.293 35.1737 152.447 34.9855 152.65 34.8625C152.854 34.7238 153.096 34.6491 153.344 34.6477H156.814L149.128 52.7383Z" fill="white"/>
<path d="M30.6257 22.264L22.0358 17.9359L12.6061 22.6335L21.4297 27.0563L30.6257 22.264Z" fill="white"/>
<path d="M34.5655 24.2479L43.5719 28.7885L34.2278 33.4722L25.3903 29.0425L34.5655 24.2479Z" fill="white"/>
<path d="M46.5956 18.0006L55.8494 22.6335L47.5718 26.7815L38.547 22.2363L46.5956 18.0006Z" fill="white"/>
<path d="M42.6118 16.0051L34.281 11.8341L26.0404 15.9405L34.6257 20.2616L42.6118 16.0051Z" fill="white"/>
<path d="M36.0993 51.8168V63.1659L46.1907 58.138L46.1814 46.7843L36.0993 51.8168Z" fill="white"/>
<path d="M46.1768 42.8211L46.1653 31.5875L36.0993 36.5831V47.8213L46.1768 42.8211Z" fill="white"/>
<path d="M58.2925 40.7172V52.1101L49.684 56.3966L49.6771 45.0568L58.2925 40.7172Z" fill="white"/>
<path d="M58.2925 36.7333V25.569L49.6678 29.8485L49.6748 41.1052L58.2925 36.7333Z" fill="white"/>
<path d="M32.5366 36.583L25.7396 33.1695V47.9137C25.7396 47.9137 17.425 30.2549 16.657 28.6683C16.5575 28.4627 16.1503 28.2387 16.0462 28.1832C14.5471 27.4026 10.1793 25.1947 10.1793 25.1947V51.2532L16.222 54.4866V40.8603C16.222 40.8603 24.4464 56.6391 24.532 56.8123C24.6176 56.9855 25.4389 58.6461 26.3226 59.2304C27.4956 60.0087 32.532 63.0319 32.532 63.0319L32.5366 36.583Z" fill="white"/>
</svg>
