<svg width="162" height="66" viewBox="0 0 162 66" fill="none" xmlns="http://www.w3.org/2000/svg">
<path d="M57.5568 39.6966C55.5244 39.6966 53.4545 38.8497 52.1583 37.1897V46.1569H48.0877V24.02H51.7684L51.9089 26.4551C53.1715 24.584 55.4136 23.5956 57.5528 23.5956C61.6551 23.5956 64.6769 27.0569 64.6769 31.6461C64.6769 36.2352 61.6591 39.6985 57.5568 39.6966ZM56.2962 26.6344C53.9116 26.6344 51.9841 28.5056 51.9841 31.6481C51.9841 34.7905 53.9116 36.6657 56.2962 36.6657C58.6808 36.6657 60.6083 34.7945 60.6083 31.652C60.6083 28.5096 58.6808 26.6344 56.2962 26.6344V26.6344Z" fill="white"/>
<path d="M80.0194 39.2761L79.8789 36.841C78.6164 38.7122 76.3723 39.7005 74.2331 39.6986C70.1308 39.6986 67.109 36.2392 67.109 31.6501C67.109 27.0609 70.1249 23.5996 74.2331 23.6016C76.3723 23.6016 78.6164 24.5979 79.8789 26.4611L80.0194 24.026H83.7081V39.2761H80.0194ZM75.4976 26.6364C73.113 26.6364 71.1856 28.5076 71.1836 31.6501C71.1816 34.7925 73.111 36.6657 75.4956 36.6657C77.8802 36.6657 79.8097 34.7945 79.8097 31.652C79.8097 28.5096 77.8822 26.6364 75.4976 26.6364Z" fill="white"/>
<path d="M97.9306 39.2781V30.841C97.9306 27.8759 96.9154 26.8875 95.0572 26.8875C93.1278 26.8875 91.0242 28.651 91.0242 30.7693V39.2781H86.9556V24.026H90.6739L90.8501 26.8516C91.8672 24.9087 94.1449 23.6035 96.4603 23.6035C100.491 23.6035 102.001 26.4292 102.001 30.2053V39.2801L97.9306 39.2781Z" fill="white"/>
<path d="M116.908 39.2819L116.768 36.8449C115.505 38.716 113.261 39.7044 111.124 39.7044C107.022 39.7044 104 36.2431 104 31.6539C104 27.0647 107.016 23.6054 111.124 23.6054C113.156 23.6054 115.224 24.4543 116.523 26.1122V18.0996H120.591V39.2819H116.908ZM112.387 26.6423C110.012 26.6423 108.075 28.5134 108.075 31.6539C108.075 34.7944 110.002 36.6655 112.387 36.6655C114.771 36.6655 116.699 34.7964 116.699 31.6539C116.699 28.5114 114.777 26.6423 112.387 26.6423Z" fill="white"/>
<path d="M135.872 39.284L135.732 36.8489C134.469 38.72 132.225 39.7064 130.086 39.7064C125.984 39.7064 122.962 36.2471 122.962 31.6559C122.962 27.0647 125.978 23.6074 130.086 23.6074C132.225 23.6074 134.469 24.6038 135.732 26.4689L135.872 24.0319H139.553V39.282L135.872 39.284ZM131.351 26.6443C128.976 26.6443 127.038 28.5154 127.037 31.6579C127.035 34.8004 128.966 36.6656 131.349 36.6656C133.731 36.6656 135.663 34.7944 135.663 31.6519C135.663 28.5095 133.735 26.6443 131.351 26.6443V26.6443Z" fill="white"/>
<path d="M148.563 39.7801C146.424 39.7623 144.328 39.1641 142.498 38.0485L143.165 35.2248C144.392 35.9661 146.25 36.9206 148.494 36.9206C150.107 36.9206 151.229 36.4264 151.229 35.1551C151.229 34.0611 150.071 33.6725 148.003 33.1783C144.287 32.3653 142.955 30.3886 142.955 28.2345C142.955 25.8333 144.813 23.5756 148.915 23.5756C151.405 23.5756 153.58 24.6696 154.061 24.9525L153.394 27.6367C152.069 26.8337 150.558 26.3953 149.012 26.3653C147.366 26.3653 146.559 26.9293 146.559 27.8479C146.559 28.8701 147.611 29.3305 149.222 29.719C153.22 30.5659 154.832 32.4371 154.832 34.4856C154.84 37.7675 152.456 39.7801 148.563 39.7801Z" fill="white"/>
<path d="M19.5853 13.634H14.8181V23.6015H19.5853V13.634Z" fill="white"/>
<path d="M19.5853 34.109H14.8181V44.0765H19.5853V34.109Z" fill="white"/>
<path d="M19.5853 26.5107H14.8181V31.2135H19.5853V26.5107Z" fill="white"/>
<path d="M11.9289 21.83H7.16169V54.9625H11.9289V21.83Z" fill="white"/>
<path d="M27.0854 42.3329H22.3182V52.3003H27.0854V42.3329Z" fill="white"/>
<path d="M27.0854 21.8418H22.3182V31.8092H27.0854V21.8418Z" fill="white"/>
<path d="M27.0854 34.7188H22.3182V39.4215H27.0854V34.7188Z" fill="white"/>
<path d="M34.5836 11.0376H29.8163V44.1701H34.5836V11.0376Z" fill="white"/>
</svg>
