<svg width="189" height="39" viewBox="0 0 189 39" fill="none" xmlns="http://www.w3.org/2000/svg">
<g clip-path="url(#clip0)">
<path d="M22.4309 36.8814C20.4853 34.7822 20.4274 34.6915 20.7773 34.2943C21.3316 33.6651 44.9776 11.777 45.3108 11.5764C45.6045 11.4049 48.5029 12.8202 49.1368 13.4445C49.3796 13.6838 47.496 15.7203 37.2192 26.3242C30.5058 33.2535 24.881 38.955 24.7303 38.9871C24.5743 39.022 23.5393 38.0715 22.4309 36.875V36.8814ZM126.928 36.6645C126.743 36.477 126.67 35.3092 126.67 32.5182C126.67 30.3812 126.615 28.6326 126.547 28.6326C126.479 28.6326 125.938 29.0621 125.345 29.5867C123.931 30.8378 122.694 31.2463 120.62 31.1459C116.002 30.9219 113.242 26.884 113.242 20.3527C113.242 16.2722 114.195 13.4467 116.228 11.5015C118.354 9.46724 121.349 8.92878 123.836 10.1341C124.529 10.4697 125.373 11.0425 125.713 11.4076C126.052 11.7726 126.401 12.0712 126.488 12.0712C126.576 12.0712 126.676 11.6174 126.712 11.0625L126.776 10.0538L132.132 9.93492L132.078 23.3683L132.024 36.8016L129.606 36.861C127.903 36.9028 127.111 36.8431 126.929 36.6592L126.928 36.6645ZM124.403 25.9516C127.377 24.4148 127.648 17.2688 124.814 15.0781C123.782 14.2824 122.003 14.1842 121.007 14.8689C119.541 15.876 118.692 17.8757 118.692 20.3217C118.692 24.7898 121.429 27.4877 124.402 25.951L124.403 25.9516ZM17.1282 31.3032C16.0793 30.2367 15.416 29.399 15.4826 29.2248C15.6022 28.9097 29.1934 17.7977 29.4473 17.8057C29.7606 17.8176 32.9592 20.2757 32.9592 20.5044C32.9592 20.7452 19.2959 33.0871 19.0262 33.0871C18.9467 33.0871 18.0915 32.283 17.1251 31.3008L17.1282 31.3032ZM164.551 31.0687C162.757 30.6745 161.357 29.8546 159.974 28.3877C158.032 26.3286 157.149 23.8241 157.154 20.3927C157.162 15.7031 159.147 12.0229 162.6 10.3057C163.886 9.66537 164.1 9.6258 166.279 9.6258C168.351 9.6258 168.718 9.68527 169.797 10.1965C173.083 11.7541 175.115 15.8475 174.952 20.5805L174.89 22.3636L168.914 22.4201C165.628 22.4511 162.857 22.559 162.757 22.6599C162.464 22.9559 163.438 24.9638 164.204 25.6443C165.878 27.1305 168.254 27.0366 170.516 25.3947L171.475 24.6989L172.305 25.6546C172.761 26.1801 173.385 26.9338 173.692 27.3294L174.25 28.0487L173.31 28.8993C171.653 30.3999 168.952 31.4142 166.727 31.3701C166.252 31.3608 165.273 31.2235 164.551 31.065L164.551 31.0687ZM169.389 18.5984C169.71 18.3568 169.714 18.23 169.44 17.1852C168.696 14.3565 166.151 13.1713 164.266 14.7754C163.523 15.4083 163.138 16.1163 162.8 17.4733C162.592 18.3079 162.599 18.5149 162.842 18.6698C163.313 18.9719 168.976 18.9101 169.389 18.5984ZM82.7442 30.8842C79.9505 29.8329 78.412 26.7009 79.0206 23.3057C79.4447 20.94 80.4908 19.5228 82.4824 18.6168C83.9003 17.9714 87.255 17.8104 88.9427 18.3067C89.5816 18.4945 90.1503 18.6482 90.2066 18.6482C90.48 18.6482 90.5447 17.8758 90.3375 17.0858C90.0779 16.0964 89.5004 15.3725 88.5697 14.871C87.6271 14.363 85.2729 14.4381 83.4384 15.0345C82.5751 15.3152 81.8626 15.4431 81.7682 15.3344C81.5351 15.0663 80.4876 11.9648 80.4876 11.5427C80.4876 10.7355 84.1327 9.71071 87.0891 9.68583C90.5787 9.65694 92.8495 10.5332 94.2349 12.4423C95.6719 14.4236 95.7076 14.6852 95.7076 23.2114V30.855L93.3113 30.9153C91.9934 30.9485 90.831 30.8908 90.7279 30.787C90.6253 30.6832 90.502 30.2847 90.4541 29.9011C90.4062 29.5178 90.32 29.1568 90.2627 29.0988C90.2053 29.0407 89.8233 29.2909 89.4137 29.6546C88.133 30.7917 87.4657 31.0348 85.421 31.1094C84.165 31.1553 83.2676 31.079 82.7439 30.882L82.7442 30.8842ZM88.9681 26.66C90.0575 26.0284 90.5645 25.0213 90.5645 23.4894C90.5645 21.9736 90.3016 21.7914 87.9405 21.6686C86.4377 21.5903 86.1838 21.6342 85.5292 22.0853C84.5255 22.7769 84.2335 23.4238 84.3272 24.7495C84.4486 26.4724 85.1889 27.1063 87.1003 27.1248C87.8166 27.1312 88.4095 26.9841 88.9681 26.6605V26.66ZM140.352 30.9058C139.193 30.5308 137.672 28.9767 137.127 27.6101C136.65 26.4176 136.643 26.266 136.642 18.2212L136.642 10.0441L141.974 9.92537L142.037 16.9911C142.093 23.276 142.141 24.1331 142.472 24.7454C143.568 26.774 146.438 26.758 147.517 24.7182C147.961 23.878 147.981 23.5819 148.046 16.8853L148.114 9.92545L153.437 10.0441L153.491 20.2113C153.531 27.6711 153.481 30.4589 153.303 30.6755C153.115 30.9044 152.507 30.9582 150.624 30.9121L148.188 30.8526L148.122 29.8968C148.086 29.3714 147.978 28.86 147.881 28.7613C147.785 28.6623 147.295 28.9869 146.793 29.4827C145.476 30.7827 144.516 31.1646 142.625 31.1446C141.759 31.1352 140.736 31.0258 140.352 30.9015L140.352 30.9058ZM182.675 30.9735C181.433 30.5744 180.647 29.8821 180.058 28.6696L179.47 27.4595L179.333 14.6119H178.535C177.379 14.6119 177.24 14.3188 177.31 12.0328C177.369 10.0916 177.382 10.0459 177.895 9.98812C179.449 9.81214 179.365 9.96533 179.365 7.32553C179.365 5.74547 179.45 4.84349 179.616 4.67577C179.974 4.31442 184.526 4.32381 184.758 4.68639C184.851 4.83236 184.975 6.05059 185.033 7.39312L185.138 9.83503L189.035 9.95733L188.976 12.2315L188.916 14.5057L185.032 14.6279V20.0341C185.032 26.8422 184.894 26.6031 188.497 26.0374C188.889 25.9757 188.92 26.1074 188.977 28.05L189.037 30.1284L188.032 30.5923C186.936 31.0986 183.768 31.3227 182.674 30.9713L182.675 30.9735ZM58.3409 30.7041C58.2843 30.5545 58.2626 24.3654 58.2925 16.9498L58.3469 3.4683L64.0153 3.48086C69.329 3.49264 69.7686 3.52328 71.0484 3.97061C74.7808 5.27543 76.82 8.04876 77.081 12.1718C77.3475 16.384 75.4576 19.8402 72.0355 21.4002C70.251 22.2131 68.8855 22.4699 66.3401 22.4699C64.7968 22.4699 64.1049 22.551 63.9407 22.7511C63.7964 22.927 63.6885 24.4981 63.6526 26.9448L63.5952 30.8569L61.0197 30.9165C59.0758 30.9615 58.4188 30.9093 58.341 30.7042L58.3409 30.7041ZM69.0524 16.9739C70.6021 16.2507 71.4741 14.8008 71.4574 12.976C71.4307 10.0357 69.9903 8.75176 66.4579 8.51984C63.5705 8.33062 63.699 8.13032 63.699 12.7994C63.699 14.946 63.7564 16.8535 63.8265 17.0381C64.0229 17.5559 67.9072 17.5073 69.0521 16.9726L69.0524 16.9739ZM100.251 30.672C100.08 30.4632 100.028 27.5456 100.068 20.2158L100.122 10.0485L102.73 9.9886C104.674 9.9439 105.381 9.99783 105.508 10.2009C105.602 10.3507 105.681 10.9748 105.682 11.5876C105.685 12.679 105.96 13.0738 106.195 12.3254C106.36 11.8007 107.737 10.4027 108.464 10.0223C108.796 9.84873 109.535 9.65068 110.105 9.58231L111.144 9.45793V15.4251L110.252 15.5753C108.768 15.8253 107.814 16.317 107.041 17.23C105.84 18.6488 105.686 19.5524 105.686 25.1761C105.686 28.1925 105.601 30.3022 105.469 30.5518C105.273 30.9208 105.009 30.9625 102.87 30.9625C101.115 30.9625 100.426 30.8863 100.251 30.6728L100.251 30.672ZM12.1779 26.1758C11.3567 25.2481 10.8409 24.4986 10.952 24.3943C11.5248 23.8535 17.4345 19.7087 17.6297 19.7111C17.9474 19.7151 20.7995 22.1883 20.7995 22.4603C20.7995 22.7943 14.3995 27.7767 13.9703 27.7767C13.7636 27.7767 12.9571 27.0562 12.1779 26.1758ZM8.1051 21.9484C6.92921 20.7455 6.78877 20.5208 7.05536 20.2704C7.43805 19.9108 26.2251 7.64756 26.606 7.50311C26.9066 7.39277 29.5084 8.98608 29.5084 9.28058C29.5084 9.49099 10.2514 23.1312 9.78325 23.2516C9.59711 23.2999 8.893 22.7523 8.1051 21.946V21.9484ZM20.6337 20.0112C19.8581 19.3601 19.2277 18.7152 19.2325 18.578C19.2372 18.4408 19.9225 17.8449 20.7543 17.2531C21.5866 16.6618 25.3166 13.963 29.0459 11.2555C32.7727 8.54793 35.9759 6.33231 36.1631 6.33231C36.6647 6.33231 39.2044 7.81688 39.1227 8.06324C39.0049 8.4205 22.7062 21.1916 22.365 21.1916C22.1881 21.1932 21.4089 20.6616 20.6329 20.0104L20.6337 20.0112ZM4.32034 18.0989C3.39438 17.1087 3.26029 16.8695 3.50229 16.6464C3.71208 16.4531 15.3485 9.50126 16.7529 8.72929C16.9854 8.60169 19.4522 10.4016 19.3737 10.6408C19.2717 10.9504 6.14687 19.2834 5.75808 19.2834C5.57273 19.2835 4.92257 18.7504 4.3132 18.0989H4.32034ZM32.4561 18.1781C31.6047 17.5601 30.8748 16.9544 30.8343 16.8324C30.777 16.6581 38.4967 10.1695 40.2446 8.92003C40.5851 8.67713 40.8529 8.75801 42.3132 9.54484C43.2359 10.042 43.9889 10.5495 43.9873 10.6731C43.9831 10.989 34.7912 19.1632 34.3628 19.2435C34.1661 19.2776 33.3083 18.7999 32.4561 18.1818V18.1781ZM1.18621 14.7403L0.0666504 13.5936L0.563592 13.2679C0.836936 13.0888 6.38514 10.0283 12.8938 6.46616L24.7242 -0.00976562L25.8556 0.551403C26.4779 0.860033 26.9871 1.21713 26.9871 1.34488C26.9871 1.51974 2.65989 15.8856 2.36631 15.8856C2.33402 15.8856 1.80375 15.3696 1.18803 14.7389L1.18621 14.7403ZM19.38 8.95936C18.8316 8.54303 18.3835 8.09189 18.3843 7.95707C18.3849 7.82226 20.6028 6.39145 23.3124 4.77688L28.2389 1.84226L29.5037 2.52411C30.1994 2.89919 30.7684 3.27844 30.7684 3.36671C30.7684 3.61844 21.1042 9.72948 20.7234 9.72226C20.534 9.71905 19.9302 9.37519 19.3816 8.95879L19.38 8.95936ZM29.2506 7.68985C28.5867 7.27489 28.0453 6.82398 28.0477 6.68676C28.0517 6.45533 31.4072 4.18226 31.9578 4.03781C32.2109 3.97152 34.4691 5.17652 34.6516 5.47503C34.7066 5.56507 34.5885 5.78559 34.3892 5.9651C33.7074 6.57899 30.9083 8.45597 30.683 8.45035C30.5592 8.44722 29.9148 8.10513 29.2508 7.69017L29.2506 7.68985Z" fill="white"/>
</g>
<defs>
<clipPath id="clip0">
<rect width="189" height="39" fill="white"/>
</clipPath>
</defs>
</svg>
