<svg width="60" height="60" viewBox="0 0 60 60" fill="none" xmlns="http://www.w3.org/2000/svg">
<path d="M29.7837 0C14.552 1.09244e-06 15.5032 6.63997 15.5032 6.63997L15.5201 13.5189H30.0554V15.5843H9.74678C9.74678 15.5843 0 14.4731 0 29.9225C-1.08675e-06 45.3719 8.50721 44.8241 8.50721 44.8241H13.5844V37.655C13.5844 37.655 13.3107 29.1032 21.9557 29.1032C30.6008 29.1032 36.3721 29.1032 36.3721 29.1032C36.3721 29.1032 44.4718 29.2348 44.4718 21.2343C44.4718 13.2337 44.4718 8.00552 44.4718 8.00552C44.4718 8.00552 45.7016 0 29.7837 0ZM21.7689 4.62579C23.2151 4.62579 24.3839 5.80075 24.3839 7.25447C24.3839 8.70819 23.2151 9.88315 21.7689 9.88315C20.3228 9.88315 19.1539 8.70819 19.1539 7.25447C19.1539 5.80075 20.3228 4.62579 21.7689 4.62579Z" fill="white"/>
<path d="M30.2163 60C45.448 60 44.4968 53.36 44.4968 53.36L44.4799 46.481H29.9446V44.4156H50.2532C50.2532 44.4156 60 45.5268 60 30.0774C60 14.628 51.4928 15.1759 51.4928 15.1759H46.4156V22.345C46.4156 22.345 46.6893 30.8967 38.0443 30.8967C29.3992 30.8967 23.6279 30.8967 23.6279 30.8967C23.6279 30.8967 15.5282 30.7651 15.5282 38.7657C15.5282 46.7663 15.5282 51.9944 15.5282 51.9944C15.5282 51.9944 14.2984 60 30.2163 60ZM38.2311 55.3742C36.7849 55.3742 35.6161 54.1992 35.6161 52.7455C35.6161 51.2918 36.7849 50.1168 38.2311 50.1168C39.6772 50.1168 40.846 51.2918 40.846 52.7455C40.8461 54.1992 39.6772 55.3742 38.2311 55.3742Z" fill="white"/>
</svg>
