<svg width="171" height="42" viewBox="0 0 171 42" fill="none" xmlns="http://www.w3.org/2000/svg">
<g clip-path="url(#clip0)">
<path d="M22.1109 9.82317L19.7982 12.1141C23.5826 15.8628 23.5826 21.9025 19.7982 25.5818C16.0137 29.3306 9.91662 29.3306 6.20227 25.5818C2.41785 21.8331 2.41785 15.7934 6.20227 12.1141L12.1943 6.17854L13.0353 5.34548V0.867798L3.99469 9.82317C-1.05121 14.8215 -1.05121 22.8744 3.99469 27.8728C9.04059 32.8711 17.1701 32.8711 22.1109 27.8728C27.1568 22.8397 27.1568 14.8215 22.1109 9.82317Z" fill="white"/>
<path d="M19.2726 7.60166C19.2726 8.52184 18.5195 9.26778 17.5906 9.26778C16.6617 9.26778 15.9086 8.52184 15.9086 7.60166C15.9086 6.68148 16.6617 5.93555 17.5906 5.93555C18.5195 5.93555 19.2726 6.68148 19.2726 7.60166Z" fill="white"/>
<path d="M45.4832 21.2777H41.5936V31.1703H38.6502V3.0199H45.7986C53.2623 3.0199 56.8365 6.66453 56.8365 11.767C56.9416 18.0496 52.5264 21.2777 45.4832 21.2777ZM45.7986 5.83147C45.4832 5.83147 41.6988 5.83147 41.6988 5.83147V18.7786L45.6934 18.6744C51.0547 18.5703 53.9982 16.4877 53.9982 12.1141C53.9982 8.01824 51.0547 5.83147 45.7986 5.83147Z" fill="white"/>
<path d="M70.0119 31.0662L68.3299 35.5439C66.4377 40.5422 64.4404 42.0001 61.602 42.0001C60.0252 42.0001 58.8688 41.5836 57.6074 41.0629L58.4483 38.4596C59.3945 38.9803 60.4457 39.3968 61.602 39.3968C63.1789 39.3968 64.3352 38.5637 65.9121 34.6067L67.2787 30.9621L59.1842 10.6216H62.2328L68.7504 27.6298L75.1629 10.6216H78.1063L70.0119 31.0662Z" fill="white"/>
<path d="M87.7076 5.83146V31.2744H84.7641V5.83146H74.7775V3.12402H97.6242V5.83146C97.5891 5.83146 87.7076 5.83146 87.7076 5.83146Z" fill="white"/>
<path d="M105.929 31.7951C100.147 31.7951 95.9422 27.5257 95.9422 20.9654C95.9422 14.405 100.357 10.0315 106.244 10.0315C112.131 10.0315 116.231 14.3009 116.231 20.8612C116.126 27.4216 111.711 31.7951 105.929 31.7951ZM106.034 12.6348C101.619 12.6348 98.7805 16.0712 98.7805 20.9654C98.7805 25.9637 101.724 29.4001 106.139 29.4001C110.554 29.4001 113.393 25.9637 113.393 21.0695C113.393 15.967 110.449 12.6348 106.034 12.6348Z" fill="white"/>
<path d="M123.274 31.2745H120.436V10.6216L123.274 9.99683V14.3704C124.641 11.7671 126.638 9.99683 129.371 9.99683C130.738 9.99683 131.999 10.4134 133.051 10.934L132.315 13.5373C131.369 13.0167 130.317 12.6001 129.161 12.6001C126.953 12.6001 124.956 14.2662 123.274 17.9109V31.2745Z" fill="white"/>
<path d="M144.124 31.7951C137.816 31.7951 133.927 27.3174 133.927 20.9654C133.927 14.5092 138.237 10.0315 144.124 10.0315C146.647 10.0315 148.854 10.6563 150.641 11.8017L149.905 14.3009C148.328 13.2596 146.331 12.6348 144.124 12.6348C139.603 12.6348 136.87 15.967 136.87 20.8612C136.87 25.8596 139.814 29.1918 144.229 29.1918C146.331 29.1918 148.434 28.567 150.01 27.5257L150.641 30.129C148.749 31.1703 146.541 31.7951 144.124 31.7951Z" fill="white"/>
<path d="M168.022 31.2745V17.9108C168.022 14.2662 166.55 12.7042 163.606 12.7042C161.189 12.7042 158.876 13.9538 157.194 15.6199V31.2745H154.356V0.937293L157.194 0.3125V13.3637C159.401 11.177 162.135 10.1356 164.447 10.1356C168.442 10.1356 170.965 12.7389 170.965 17.2166V31.3092H168.022V31.2745Z" fill="white"/>
</g>
<defs>
<clipPath id="clip0">
<rect width="171" height="42" fill="white"/>
</clipPath>
</defs>
</svg>
