<svg width="211" height="39" viewBox="0 0 211 39" fill="none" xmlns="http://www.w3.org/2000/svg">
<g clip-path="url(#clip0)">
<path d="M34.8604 9.53418L18.1921 0V39.0909L24.8511 35.2174V24.2179L29.8803 27.1334L29.8539 19.6136L24.8511 16.7511V12.3816L34.8831 18.1861L34.8604 9.53418Z" fill="white"/>
<path d="M0.0226887 9.53418L16.6947 0V39.0909L10.0357 35.2174V12.3816L0 18.1861L0.0226887 9.53418Z" fill="white"/>
<path d="M65.1113 12.1204H57.6507V32.7184H53.529V12.1204H46.1364V8.76562H65.1113V12.1204Z" fill="white"/>
<path d="M70.0611 33.0478C67.5401 33.0478 65.4894 32.2489 63.9088 30.651C62.3282 29.0532 61.5366 26.929 61.5341 24.2785V23.7863C61.5055 22.1403 61.8575 20.5101 62.5626 19.023C63.1947 17.6825 64.1939 16.5493 65.444 15.7553C66.6896 14.9739 68.1338 14.569 69.6035 14.5891C72.0236 14.5891 73.8941 15.3615 75.2151 16.9064C76.536 18.4512 77.1952 20.6398 77.1927 23.472V25.085H65.5764C65.6235 26.3879 66.1454 27.6284 67.0435 28.5723C67.4691 28.9954 67.9762 29.3275 68.5339 29.5481C69.0917 29.7688 69.6885 29.8735 70.2879 29.8559C71.1584 29.874 72.0203 29.6814 72.8004 29.2944C73.5805 28.9074 74.2558 28.3376 74.7689 27.6333L76.9205 29.6893C76.2085 30.7539 75.2255 31.6088 74.0731 32.1656C72.8224 32.7678 71.4487 33.0699 70.0611 33.0478V33.0478ZM69.5846 17.7962C69.087 17.7779 68.5915 17.8703 68.1338 18.0667C67.6761 18.2631 67.2676 18.5587 66.9376 18.9321C66.2012 19.8503 65.7526 20.9662 65.6482 22.1392H73.2563V21.8628C73.1681 20.5249 72.8126 19.5152 72.19 18.8337C71.8569 18.4817 71.4514 18.2066 71.0014 18.0275C70.5515 17.8483 70.0681 17.7694 69.5846 17.7962V17.7962Z" fill="white"/>
<path d="M83.9916 14.9183L84.105 16.9744C84.725 16.203 85.5151 15.5862 86.4133 15.1723C87.3115 14.7584 88.2934 14.5587 89.2817 14.5889C92.9849 14.5889 94.868 16.7106 94.9311 20.9539V32.7182H90.9417V21.1848C90.9417 20.0565 90.6972 19.221 90.2081 18.6782C89.7203 18.133 88.9263 17.8604 87.8183 17.8604C87.0713 17.8353 86.3332 18.0291 85.6944 18.4178C85.0557 18.8065 84.5441 19.3734 84.2222 20.0489V32.7182H80.2291V14.9221L83.9916 14.9183Z" fill="white"/>
<path d="M107.886 27.8793C107.899 27.554 107.825 27.2313 107.67 26.9448C107.516 26.6583 107.287 26.4187 107.009 26.2511C106.097 25.764 105.11 25.4313 104.09 25.2667C102.916 25.0409 101.774 24.6761 100.686 24.18C98.6923 23.2132 97.6953 21.8147 97.6953 19.9846C97.6915 19.2349 97.8654 18.4949 98.2026 17.8255C98.5398 17.1561 99.0307 16.5764 99.6352 16.1338C100.928 15.1039 102.567 14.589 104.551 14.589C106.676 14.589 108.393 15.1153 109.701 16.1679C110.329 16.647 110.834 17.2679 111.175 17.98C111.517 18.6921 111.686 19.475 111.667 20.2648H107.689C107.697 19.9021 107.625 19.5421 107.477 19.2108C107.329 18.8795 107.11 18.5851 106.835 18.3489C106.201 17.8187 105.391 17.5482 104.566 17.5916C103.805 17.5583 103.053 17.7707 102.422 18.1974C102.16 18.379 101.948 18.6228 101.803 18.907C101.658 19.1912 101.587 19.5068 101.594 19.8256C101.583 20.1097 101.647 20.3918 101.78 20.6431C101.912 20.8945 102.109 21.1062 102.35 21.2569C102.864 21.5976 103.908 21.9422 105.474 22.2868C106.752 22.5335 107.991 22.9486 109.16 23.5211C109.959 23.9155 110.643 24.5071 111.149 25.2402C111.597 25.9713 111.822 26.8175 111.796 27.6748C111.81 28.4364 111.636 29.1897 111.29 29.868C110.943 30.5462 110.435 31.1286 109.811 31.5635C108.485 32.558 106.748 33.0553 104.6 33.0553C103.261 33.0789 101.933 32.8088 100.709 32.2639C99.6472 31.7934 98.7325 31.0436 98.0621 30.0943C97.4437 29.2239 97.1107 28.1826 97.1092 27.1144H100.985C100.99 27.5347 101.089 27.9486 101.274 28.3259C101.459 28.7031 101.726 29.0343 102.055 29.2954C102.816 29.8355 103.737 30.1024 104.668 30.0527C105.719 30.0527 106.518 29.852 107.066 29.4506C107.323 29.2784 107.533 29.0443 107.676 28.7697C107.819 28.4952 107.892 28.189 107.886 27.8793Z" fill="white"/>
<path d="M113.868 23.6536C113.843 22.0233 114.196 20.4095 114.9 18.9395C115.536 17.604 116.547 16.483 117.808 15.7135C119.112 14.9452 120.603 14.5522 122.115 14.5776C124.513 14.5776 126.459 15.35 127.954 16.8949C129.449 18.4397 130.257 20.4907 130.378 23.0478V23.9868C130.406 25.6124 130.06 27.2227 129.368 28.6933C128.741 30.0233 127.736 31.1388 126.479 31.9004C125.162 32.6743 123.657 33.0675 122.13 33.0363C119.625 33.0363 117.618 32.1995 116.11 30.5259C114.603 28.8523 113.847 26.6234 113.842 23.8391L113.868 23.6536ZM117.857 23.9982C117.857 25.8308 118.236 27.2646 118.992 28.2995C119.346 28.8016 119.821 29.207 120.371 29.4788C120.922 29.7505 121.532 29.8801 122.146 29.8557C122.76 29.8802 123.372 29.7482 123.922 29.4721C124.472 29.196 124.943 28.7847 125.292 28.2768C126.048 27.2242 126.426 25.6831 126.426 23.6536C126.426 21.8563 126.04 20.4301 125.269 19.375C124.917 18.8708 124.445 18.4624 123.895 18.1868C123.346 17.9111 122.737 17.7768 122.123 17.796C121.517 17.7775 120.916 17.91 120.374 18.1817C119.833 18.4533 119.367 18.8556 119.018 19.3522C118.255 20.3859 117.876 21.9384 117.876 23.9982H117.857Z" fill="white"/>
<path d="M142.406 18.5685C141.867 18.4811 141.322 18.438 140.776 18.4398C138.951 18.4398 137.72 19.1415 137.082 20.545V32.7183H133.089V14.9222H136.9L136.999 16.9101C137.962 15.3652 139.298 14.5928 141.007 14.5928C141.489 14.5771 141.969 14.6556 142.421 14.8238L142.406 18.5685Z" fill="white"/>
<path d="M159.093 22.5671H149.47V32.7184H145.31V8.76562H160.504V12.1204H149.47V19.2426H159.093V22.5671Z" fill="white"/>
<path d="M166.981 32.7183H162.992V8.71252H166.981V32.7183Z" fill="white"/>
<path d="M169.908 23.6538C169.882 22.023 170.237 20.4087 170.944 18.9397C171.578 17.603 172.589 16.4814 173.852 15.7137C175.154 14.945 176.644 14.5518 178.155 14.5777C180.553 14.5777 182.499 15.3502 183.994 16.895C185.488 18.4399 186.296 20.4908 186.417 23.0479V23.987C186.446 25.613 186.099 27.2237 185.404 28.6935C184.777 30.0235 183.772 31.139 182.515 31.9006C181.199 32.6739 179.696 33.0671 178.17 33.0365C175.649 33.0365 173.641 32.1997 172.147 30.5261C170.652 28.8525 169.895 26.6236 169.878 23.8393L169.908 23.6538ZM173.901 23.9983C173.901 25.8309 174.279 27.2647 175.036 28.2997C175.391 28.8021 175.865 29.2076 176.417 29.4794C176.968 29.7512 177.579 29.8806 178.193 29.8559C178.808 29.8796 179.419 29.7473 179.969 29.4713C180.519 29.1952 180.99 28.7844 181.339 28.277C182.095 27.2243 182.473 25.6833 182.473 23.6538C182.473 21.8565 182.088 20.4303 181.316 19.3751C180.964 18.871 180.492 18.4626 179.943 18.1869C179.394 17.9112 178.784 17.777 178.17 17.7962C177.565 17.7777 176.964 17.9102 176.422 18.1818C175.88 18.4535 175.414 18.8557 175.066 19.3524C174.283 20.3861 173.901 21.9385 173.901 23.9983V23.9983Z" fill="white"/>
<path d="M204.47 27.2055L207.294 14.9186H211.189L206.341 32.7147H203.055L199.244 20.4922L195.5 32.7147H192.214L187.351 14.9186H191.235L194.109 27.0729L197.754 14.9186H200.76L204.47 27.2055Z" fill="white"/>
</g>
<defs>
<clipPath id="clip0">
<rect width="211" height="39" fill="white"/>
</clipPath>
</defs>
</svg>
