<svg version="1.1" xmlns="http://www.w3.org/2000/svg" viewBox="0 0 465.7183488232722 291.0964050292969" width="931.4366976465444" height="582.1928100585938">
  <!-- svg-source:excalidraw -->
  
  <defs>
    <style class="style-fonts">
      @font-face {
        font-family: "Virgil";
        src: url("https://excalidraw.com/Virgil.woff2");
      }
      @font-face {
        font-family: "Cascadia";
        src: url("https://excalidraw.com/Cascadia.woff2");
      }
    </style>
  </defs>
  <g stroke-linecap="round" transform="translate(10 10) rotate(0 138.45546079069925 135.24997201935275)"><path d="M141.93 -0.54 C156.21 -2.22, 171.96 3.86, 186.08 8.93 C200.19 14, 215.01 20.71, 226.62 29.87 C238.23 39.02, 247.88 51.33, 255.74 63.85 C263.6 76.38, 270.39 90.74, 273.76 105.01 C277.13 119.27, 277.54 134.99, 275.95 149.44 C274.37 163.89, 270.62 178.55, 264.24 191.73 C257.85 204.9, 248.07 217.96, 237.65 228.49 C227.23 239.03, 214.89 248.3, 201.7 254.94 C188.52 261.57, 173.49 266.09, 158.53 268.3 C143.56 270.51, 126.79 270.94, 111.91 268.19 C97.04 265.45, 82.17 259.19, 69.28 251.81 C56.4 244.43, 44.43 234.6, 34.62 223.92 C24.81 213.24, 16.07 201.29, 10.43 187.75 C4.79 174.21, 1.6 157.5, 0.78 142.66 C-0.03 127.83, 1.72 112.8, 5.53 98.75 C9.34 84.7, 15.27 70.39, 23.63 58.36 C31.99 46.33, 43.69 35.18, 55.68 26.6 C67.67 18.02, 79.78 11.3, 95.6 6.89 C111.42 2.48, 140.12 0.62, 150.6 0.14 C161.09 -0.35, 158.85 1.58, 158.53 3.99 M184.81 6.79 C198.88 9.62, 212.25 19.88, 223.87 29.35 C235.5 38.82, 246.57 51.22, 254.56 63.61 C262.55 76.01, 268.29 89.4, 271.81 103.72 C275.33 118.04, 276.71 134.69, 275.68 149.52 C274.65 164.36, 271.73 179.54, 265.62 192.73 C259.51 205.92, 249.43 218.38, 239.02 228.66 C228.61 238.95, 216.59 247.79, 203.16 254.46 C189.72 261.13, 173.45 266.2, 158.4 268.69 C143.36 271.17, 127.37 271.93, 112.88 269.39 C98.39 266.85, 84.39 260.63, 71.47 253.44 C58.55 246.25, 45.27 237.02, 35.36 226.23 C25.46 215.44, 17.94 202.45, 12.05 188.71 C6.15 174.96, 1.19 158.38, -0.01 143.74 C-1.2 129.11, 0.79 115.08, 4.88 100.9 C8.97 86.71, 15.92 70.95, 24.52 58.61 C33.12 46.28, 44.68 35.57, 56.48 26.9 C68.29 18.22, 81.32 11.03, 95.34 6.55 C109.36 2.06, 125.62 -0.38, 140.59 -0.02 C155.56 0.34, 177.63 7, 185.18 8.69 C192.73 10.38, 186.66 8, 185.88 10.13" stroke="#fff" stroke-width="1" fill="none"></path></g><g stroke-linecap="round" transform="translate(178.80742724187382 10.59646099059131) rotate(0 138.4554607906992 135.24997201935278)"><path d="M87.28 10.53 C99.81 3.36, 116.81 1.07, 131.79 0.33 C146.78 -0.4, 162.87 2.09, 177.19 6.12 C191.51 10.15, 205.52 16.24, 217.71 24.49 C229.9 32.74, 241.56 43.88, 250.31 55.61 C259.06 67.34, 265.71 80.85, 270.2 94.88 C274.69 108.91, 277.74 124.96, 277.25 139.79 C276.76 154.62, 272.79 170.22, 267.25 183.85 C261.72 197.48, 253.51 210.47, 244.04 221.58 C234.56 232.69, 223.09 242.75, 210.38 250.48 C197.67 258.22, 182.33 264.86, 167.78 267.98 C153.24 271.09, 138.05 270.91, 123.09 269.18 C108.13 267.46, 91.59 264.04, 78.02 257.62 C64.44 251.2, 52.33 240.95, 41.65 230.67 C30.98 220.39, 20.85 208.98, 13.98 195.93 C7.12 182.87, 2.51 166.95, 0.48 152.34 C-1.56 137.73, -1.24 122.59, 1.79 108.28 C4.83 93.97, 10.98 79.19, 18.68 66.49 C26.38 53.78, 34.1 42.35, 48 32.05 C61.9 21.75, 90.57 9.27, 102.09 4.68 C113.61 0.08, 116.67 2.34, 117.12 4.48 M110.75 1.14 C124.23 -3.86, 142.05 -1.31, 156.92 1.11 C171.79 3.53, 186.28 9.01, 199.96 15.68 C213.64 22.36, 228.21 30.95, 239.01 41.16 C249.81 51.37, 258.66 63.57, 264.74 76.96 C270.82 90.35, 273.98 107.04, 275.48 121.49 C276.98 135.93, 277.15 149.58, 273.74 163.63 C270.33 177.67, 262.64 192.96, 255.03 205.74 C247.41 218.52, 239.18 231.12, 228.04 240.3 C216.9 249.49, 202.29 255.66, 188.19 260.87 C174.08 266.08, 158.69 270.9, 143.4 271.57 C128.1 272.24, 111.07 269.68, 96.4 264.88 C81.73 260.09, 67.25 251.56, 55.37 242.79 C43.5 234.03, 33.39 223.89, 25.15 212.28 C16.9 200.66, 10.17 187.15, 5.89 173.1 C1.61 159.06, -1.44 142.65, -0.52 128.01 C0.41 113.36, 5.75 98.64, 11.45 85.26 C17.14 71.87, 23.78 58.87, 33.62 47.71 C43.47 36.55, 57.24 26.05, 70.49 18.3 C83.74 10.54, 106.23 3.34, 113.11 1.19 C119.99 -0.97, 111.31 2.95, 111.77 5.37" stroke="#fff" stroke-width="1" fill="none"></path></g><g transform="translate(121.8363037109375 128.72634887695312) rotate(0 21.96666717529297 12)"><text x="0" y="0" font-family="Virgil, Segoe UI Emoji" font-size="20px" fill="#fff" text-anchor="start" style="white-space: pre;" direction="ltr" dominant-baseline="text-before-edge">Left</text></g><g transform="translate(297.758544921875 129.66030883789062) rotate(0 24.566667556762695 12)"><text x="0" y="0" font-family="Virgil, Segoe UI Emoji" font-size="20px" fill="#fff" text-anchor="start" style="white-space: pre;" direction="ltr" dominant-baseline="text-before-edge">Right</text></g><g stroke-linecap="round"><g transform="translate(234.34463500976562 38.363739013671875) rotate(0 -2.0020688995315936 106.3731519741915)" fill-rule="evenodd"><path d="M-22.1 17.89 C-22.1 17.89, -22.1 17.89, -22.1 17.89 M-22.1 17.89 C-22.1 17.89, -22.1 17.89, -22.1 17.89 M-36.81 38.91 C-27.32 31.1, -15.67 17.13, -3.13 2.06 M-37.26 40.95 C-24.64 27.57, -13.84 15.73, -3.68 2.61 M-35.69 43.86 C-25.01 33.94, -18.73 24.3, 2.53 1.14 M-35.25 45.48 C-25.45 33.65, -15.3 23.41, 2.1 1.19 M-40.42 56.2 C-26.65 41.13, -15.87 25.98, 5.96 2.86 M-41.42 57.24 C-29.71 44.3, -18.35 31.55, 4.49 5.39 M-54.52 75.56 C-38.44 63.73, -25.46 47.29, 9.49 6.37 M-52.75 76.88 C-36.6 57.96, -21.24 40.72, 8.07 7.95 M-52.63 85.03 C-39.02 67.57, -23.27 52.28, 9.13 11.52 M-54.7 86.24 C-38.76 66.43, -22.62 48.99, 10.52 10.83 M-53.44 94.07 C-34.43 69.33, -15.55 43.9, 13.65 14.94 M-56.07 92.84 C-37.44 69.69, -17.76 47.6, 14.68 13.79 M-51.94 95.85 C-37.78 77.68, -22.03 59.22, 16.23 17.05 M-52.37 95.65 C-37.56 77.39, -19.59 57.54, 16.12 16.98 M-54.1 99.86 C-28.52 76.79, -4.75 50.43, 20.1 19.15 M-52.45 101.33 C-35.87 80.75, -17.84 60.93, 19.78 18.52 M-52.7 108.98 C-30.83 85.46, -8.14 61.21, 20.31 21.25 M-55.45 109.75 C-34.49 86.89, -16 63.5, 21.7 21.88 M-52.32 115.2 C-24.9 84.89, 2.54 50.24, 25.37 27.1 M-53.77 115.29 C-22.68 80.49, 8.42 45.66, 23.67 25.45 M-54.83 122.08 C-38.19 100.44, -20.09 82, 28.27 28.01 M-53.55 119.83 C-35.91 100.64, -17 78, 26.11 27.85 M-54.41 125.75 C-27.16 99.64, -5.57 72.56, 28.16 32.4 M-53.82 127.25 C-20.68 91.99, 10.24 54.29, 28.87 32.1 M-53.31 132.92 C-24.01 102.13, -1.03 73.53, 32.74 34.42 M-53.23 132.02 C-32.85 108.5, -14.35 85.79, 31.45 35.65 M-52.7 136.04 C-20.56 98.76, 14.27 64.66, 33.93 37.2 M-50.93 137.82 C-33.6 116.41, -15.47 93.08, 33.73 38.25 M-51.73 142.51 C-23.39 113.77, 2.3 83.57, 37.53 42.17 M-50.66 141.39 C-31.31 118.55, -10.75 93.53, 35.56 42.78 M-50.45 144.85 C-21.82 117.01, 5.11 86.57, 38.96 44.42 M-47.74 146.08 C-21.92 115.43, 4.44 84.15, 39.46 45.13 M-48.17 150.16 C-16.83 111.72, 16.23 76.26, 40.24 50.7 M-46.43 150 C-14.98 113.69, 17.94 75.91, 39.6 49.75 M-43.75 155.26 C-18.21 121.38, 10.47 92.61, 43.69 52.53 M-44.23 154.57 C-12.12 115.62, 20.76 77.59, 42.46 53.25 M-44.59 158.7 C-11.22 121.69, 16.39 86.44, 43.62 57.73 M-43.95 159.15 C-21.43 133.94, 0.03 107.52, 44.45 57.53 M-41.57 162.87 C-15.17 130.13, 16.11 96.24, 46.67 61.01 M-42.66 162.6 C-9.42 125.49, 24.73 85.22, 45.29 62.82 M-38.12 165.5 C-8.86 134.21, 22.04 98.83, 45.52 65.27 M-39.79 167.39 C-18.55 142.34, 2.34 117.03, 47.62 66.57 M-38.43 171.8 C-2.1 130.47, 28.21 93.8, 50.56 68.89 M-37.35 169.18 C-18.32 146.22, 1.56 123.62, 49.7 71.28 M-35.81 173.2 C-11.03 147.85, 12.59 117.72, 50.95 75.85 M-35.36 174.21 C-14.98 150.51, 4.03 127.55, 50.35 76.09 M-33.68 179.22 C-1.84 137.71, 32.61 102.43, 51.58 81.48 M-32.86 176.58 C-0.38 139.1, 32.11 100.4, 50.98 81.1 M-29.86 181.24 C-2.5 145.67, 26.84 113.11, 50.76 85.81 M-31.2 180.63 C-11.91 157.94, 8.35 137.17, 51.22 86.26 M-28.23 182.83 C0.6 147.82, 31.04 111.86, 50.64 90.36 M-29.78 184.78 C-1.36 152.49, 25.52 123.76, 50.25 92.68 M-27.69 187.82 C-11.26 167.71, 4.72 150.99, 52.17 97.97 M-26 188.13 C0.41 156.21, 27.52 125.04, 51.78 97.98 M-24.5 189.61 C-1.5 164.86, 21.3 135.88, 52.17 103.13 M-23.66 191.27 C-4.08 166.35, 16.89 141.72, 52.1 103.17 M-20.57 194.45 C4.47 163.26, 28.54 135.14, 52.95 108.73 M-22.26 194.17 C-3.37 173.33, 15.48 151.15, 53.64 108.92 M-17.13 198.04 C8.57 163.71, 34.63 133.28, 50.1 113.96 M-18.73 196.25 C-4.74 179.63, 10.21 162.82, 51.73 115.99 M-17.66 199.87 C4.28 178.7, 20.35 156.5, 50.69 122.27 M-17.34 201.22 C3.72 177.88, 22.32 154.37, 50.79 122.72 M-13.6 203.19 C10.15 176.65, 30.29 152.82, 49.77 128.52 M-13.5 202.68 C8.74 177.64, 29.77 153.48, 51.78 128.74 M-9.29 203.65 C6.07 186.9, 21.72 166.76, 50.68 137.75 M-9.7 205.21 C2.77 192.36, 14.64 177.83, 50.47 135.23 M-5.62 207.6 C7.45 192.65, 20.77 175.51, 50.66 141.75 M-7.18 208.22 C13.92 185.35, 35.72 160.34, 50.07 142.03 M-5.67 212.88 C12.82 194.68, 26.48 175.07, 49.43 151.41 M-4.63 211.31 C15.04 189.29, 35.13 166.46, 47.7 151.55 M-1.73 214.39 C17.15 192.34, 31.05 172.92, 42.58 163.72 M-1.24 213.31 C9.46 200.69, 20.3 189.7, 40.81 164.27 M-7.17 209.45 C-7.17 209.45, -7.17 209.45, -7.17 209.45 M-7.17 209.45 C-7.17 209.45, -7.17 209.45, -7.17 209.45 M1.43 211.87 C-1.69 205.61, -6.7 202.34, -19.17 193.87 M2.28 210.76 C-3.63 206.73, -9.35 203.09, -17.27 194.96 M3.56 206.96 C-4.91 200.65, -16.15 192.18, -32.66 174.31 M4.86 208.01 C-5.51 198.99, -15.42 192, -34.4 175.21 M8.56 205.3 C-9.27 191.71, -25.18 176.08, -38.93 167.52 M7.22 206.57 C-7.69 192.93, -21.26 181.66, -39.02 166.19 M11.01 202.72 C-8.79 186.94, -22.24 173.76, -40.4 158.57 M9.18 203.2 C-2.32 192.29, -14.74 182.96, -39.91 159.33 M11.5 199 C-8.53 183.84, -27.59 166.77, -44.74 149.6 M12.11 200.98 C-7.14 181.65, -29.17 164.07, -43.94 151.33 M16.83 197.16 C-6.91 174.58, -31.48 155.93, -46.19 141.05 M16.13 197.14 C-9.54 175.88, -33.94 154.45, -47.25 142.86 M18.72 194.13 C-5.38 170.16, -30.04 148.92, -47.86 137.72 M18.7 193.27 C-3.3 176.99, -23.74 158.93, -48.72 135.18 M22.98 193.36 C-4.74 171.97, -27.13 150.76, -52.17 127.53 M20.83 192.48 C5.29 179.76, -9.34 166.34, -54.33 126.46 M24.19 187.51 C3.78 168.68, -19.7 149.91, -55.23 119.93 M23.71 189.6 C0.49 168.68, -22.41 148.67, -54.66 120.66 M25.9 185.75 C2.94 163.13, -22.86 144.68, -53.54 113.46 M25.9 184.99 C-4.3 158.04, -36.88 129.9, -55.58 114.67 M27.33 184.37 C-3.94 152.92, -37.64 123.44, -55.28 106.95 M29.92 182.72 C2.04 159.31, -23.43 136.17, -56.54 108.04 M31.76 178.81 C0.01 154.47, -30.68 123.27, -55.55 103.43 M31.73 179.13 C6.35 158.42, -18.32 136.75, -55.92 104.39 M35.52 176.28 C-3.49 143.87, -35.62 115.73, -56.28 98.92 M33.59 176.94 C11.49 156.39, -11.68 134.6, -55.89 98.75 M33.91 173.06 C5.8 147.1, -26.34 118.99, -55.97 91.66 M34.99 173.14 C11.82 151.34, -11.51 130.93, -56.25 92.33 M37.38 170.48 C20.56 153.57, 0.45 135.82, -54.26 88.68 M38.78 168.46 C14.04 147.78, -12.71 125.2, -53.98 89.61 M40.97 164.32 C9.43 136.16, -25.1 110.51, -51.07 84.02 M39.6 165.28 C14.66 144.55, -9.73 123.03, -52.43 86.08 M42.49 161.97 C12.62 137.36, -13.01 114.18, -53.3 81.78 M42.03 162.39 C21.65 144.08, 0.75 125.85, -51.07 79.85 M43.23 159.19 C10.78 129.73, -23.06 101.79, -50.46 76.9 M44.25 158.24 C9.87 129.61, -22.01 101.26, -51.12 75.93 M45.64 153.39 C23.69 135.43, 3.55 117.14, -50.22 71.08 M45.67 153.74 C9.93 123.61, -27.12 93.4, -50.14 72.71 M47.24 148.93 C10.24 117.52, -28.18 84.78, -49.23 66.21 M45.88 150.12 C15.87 125.62, -11.51 99.6, -48.88 66.9 M48.86 145.1 C28.24 128.53, 4.19 109.85, -45.91 62.18 M48.79 146.42 C15.81 118.47, -16.47 89.62, -47.14 63.88 M48.01 141.48 C22.28 119.47, -6.09 93.9, -44.78 60.99 M49 141.38 C29.33 124.91, 9.47 106.59, -44.06 61.35 M49.13 139.17 C24.77 118.9, 0.79 94.45, -42.52 56.02 M50 138.23 C18.64 109.04, -13.9 82.27, -43.28 55.11 M51.48 132.85 C31.72 115.67, 9.9 99.24, -40.02 51.31 M51.06 133.26 C19.87 106.48, -9.51 79.29, -40.98 51.87 M49.89 126.7 C32.31 113.91, 15.54 97.33, -39.23 48.92 M49.9 127.25 C21.03 101.3, -8.8 74.29, -39.74 49.18 M52.87 124.38 C25 98.33, -2.55 74.3, -38.42 44.89 M51.83 124.03 C18.51 94.69, -16.9 65.27, -37.93 44.89 M54.09 116.44 C15.66 89.06, -16.72 59.43, -37.27 39.89 M53.15 117.37 C27.16 96.79, 2.61 73.2, -35.7 42.32 M52.57 111.48 C33.25 98.63, 17.04 81.77, -35.19 36.52 M52.33 112.73 C30.63 94.5, 9.26 76.07, -33.45 37.13 M50.6 106.24 C25.71 84.17, -0.61 60.31, -31.63 34.65 M51.89 106.82 C27.08 85.92, 0.34 62, -33.06 33.15 M52.45 103.55 C20.98 72.91, -11.04 47.18, -27.61 29.34 M52.08 102.11 C24.02 78.74, -1.79 56.23, -29.56 31.86 M51.79 95.62 C27.23 76.92, 1.43 53.73, -29.09 27.58 M52.29 95.66 C27.84 73.35, 1.84 53.43, -27.45 27.65 M51.37 91.39 C22.4 66.39, -3.18 42.55, -23.97 26.19 M49.65 89 C24.71 66.33, -2.89 44.03, -25.78 25.25 M51.74 84.45 C30.79 69.43, 12.79 50.81, -24.46 21.82 M49.77 83.55 C25.5 62.95, 0.36 40.59, -23.5 20.27 M50.39 80.44 C28.84 60.56, 5.81 41.46, -20.11 16.95 M48.85 78.59 C25.28 58.36, 2.21 36.69, -20.58 16.71 M51.25 73.61 C31.03 57.47, 10.38 38.34, -19.59 13.81 M49.07 73.34 C31.71 57.98, 14.86 41.48, -18.81 15.45 M45.54 64.26 C31.29 51.45, 14.13 37.77, -13.6 11.81 M46.5 64.9 C28.03 50.09, 11.76 34.27, -14.68 11.17 M43.06 55.84 C23.48 41.07, 6.83 25.32, -11.59 9.39 M42.32 56.92 C28.09 43.44, 11.54 30.71, -11.21 8.75 M39.8 47.76 C25.16 35.5, 9.03 20.48, -10.11 8.08 M39.43 48.95 C27.76 37.4, 15.13 27.94, -8.3 6.87 M36.93 41.31 C22.86 31.66, 11.68 17.38, -6.12 6.43 M37.33 41.87 C22.19 26.63, 5.2 13.46, -5.04 4.46 M29.14 29.16 C15.77 17.24, 3.68 7.73, -0.81 0.05 M29.51 29.86 C20.63 20.94, 10.49 13.6, -1.63 2.26" stroke="#a1cf6f" stroke-width="0.5" fill="none"></path><path d="M1.02 0.45 C-2.72 3.6, -16.6 10.77, -23.33 17.96 C-30.05 25.15, -34.39 33.68, -39.33 43.59 C-44.27 53.5, -50.02 66.6, -52.95 77.42 C-55.88 88.25, -57.2 97.36, -56.91 108.52 C-56.61 119.68, -54.83 133, -51.17 144.39 C-47.51 155.77, -40.29 167.8, -34.95 176.84 C-29.62 185.87, -24.56 192.67, -19.17 198.61 C-13.79 204.54, -7.03 210.81, -2.65 212.43 C1.73 214.05, 2.2 212.77, 7.12 208.34 C12.04 203.91, 21.26 193.31, 26.86 185.84 C32.46 178.36, 36.9 171.14, 40.71 163.49 C44.53 155.84, 47.72 149.05, 49.76 139.94 C51.8 130.84, 53.08 119.6, 52.93 108.86 C52.78 98.12, 51.53 86.13, 48.84 75.48 C46.15 64.82, 41.44 53.97, 36.79 44.93 C32.13 35.88, 25.68 27.45, 20.9 21.22 C16.12 14.98, 11.41 10.98, 8.12 7.54 C4.83 4.1, 2.41 1.64, 1.15 0.57 M0.1 -0.36 C-3.22 3.09, -15.06 11.95, -21.24 19.51 C-27.43 27.07, -31.74 35.19, -36.99 45.03 C-42.24 54.86, -49.68 67.91, -52.73 78.52 C-55.79 89.12, -55.73 97.31, -55.33 108.67 C-54.92 120.02, -53.78 135.51, -50.3 146.63 C-46.81 157.75, -39.41 166.73, -34.41 175.39 C-29.41 184.06, -25.37 192.64, -20.3 198.65 C-15.22 204.65, -8.11 209.77, -3.96 211.41 C0.19 213.04, -0.49 213.05, 4.6 208.45 C9.69 203.84, 20.78 191.38, 26.58 183.77 C32.39 176.16, 35.44 170.14, 39.42 162.77 C43.41 155.4, 48.29 148.47, 50.5 139.54 C52.71 130.61, 52.88 119.87, 52.68 109.19 C52.48 98.5, 52.33 86.45, 49.3 75.44 C46.26 64.44, 38.88 52.16, 34.48 43.14 C30.07 34.13, 26.95 27.32, 22.86 21.38 C18.78 15.43, 13.7 10.84, 9.96 7.46 C6.21 4.09, 1.79 2.38, 0.37 1.13" stroke="#fff" stroke-width="1" fill="none"></path></g></g><mask></mask></svg>