<svg version="1.1" xmlns="http://www.w3.org/2000/svg" viewBox="0 0 465.7183488232722 291.0964050292969" width="931.4366976465444" height="582.1928100585938">
  <!-- svg-source:excalidraw -->
  
  <defs>
    <style class="style-fonts">
      @font-face {
        font-family: "Virgil";
        src: url("https://excalidraw.com/Virgil.woff2");
      }
      @font-face {
        font-family: "Cascadia";
        src: url("https://excalidraw.com/Cascadia.woff2");
      }
    </style>
  </defs>
  <g stroke-linecap="round" transform="translate(10 10) rotate(0 138.45546079069925 135.24997201935275)"><path d="M23.33 58.71 C23.33 58.71, 23.33 58.71, 23.33 58.71 M23.33 58.71 C23.33 58.71, 23.33 58.71, 23.33 58.71 M17.39 72.11 C26.37 57.72, 40.26 48.61, 57.25 28.73 M18.15 71.55 C26.91 60.78, 37.02 50.47, 55.78 27.48 M12.26 84.23 C32.04 62.73, 51.74 37.46, 66.47 24.05 M11.41 83.55 C29.39 65.28, 44.37 45.63, 65.75 23.2 M7.54 96.42 C31.92 70.53, 53.29 44.58, 76.64 16.96 M6.17 95.28 C27.47 73.03, 46.57 50.3, 74.24 17.28 M9.02 102.19 C30.87 72.73, 55.95 47.59, 81.98 12.19 M6.93 100.61 C33.28 72.16, 58.48 43.11, 84.83 13.05 M5.86 107.28 C40.53 71.11, 72.82 28.92, 92.94 8.22 M7.13 108.8 C26.52 83.09, 48.32 59.81, 92.8 7.48 M8.12 113.11 C33.03 85.56, 56.6 54.8, 96.97 6.8 M7.31 113.97 C36.91 80.33, 67.46 44.62, 99.33 9.69 M4.99 121.85 C37.01 87.46, 65.31 52.64, 102.9 6.99 M4.84 121.12 C27.86 93.72, 52.73 67.75, 104.47 8.99 M6.01 127.32 C31.21 96.11, 60.94 66.04, 110.51 7.01 M5.66 128.99 C40.04 88.96, 74.7 47.83, 110.25 7.63 M3.72 137.67 C30.21 107.43, 54.77 77.06, 118.4 4.6 M4.5 135.71 C39.5 95.68, 74.87 55.5, 117.05 5.17 M1.06 145.08 C31.19 109.99, 64.05 72.31, 122.67 3.19 M2.73 144.5 C34.5 106.9, 67.43 71.9, 123.83 5.64 M5.18 148.2 C37.89 105.14, 76.98 62.98, 126.87 3.16 M3.82 149.01 C34.24 115.33, 63.04 80.66, 128.6 4.69 M4.97 153.1 C51.46 101.29, 97.87 46.92, 133.96 2.44 M5.29 154.32 C38.52 113.99, 72.01 75.23, 135.94 3.26 M4.95 159.1 C41.05 118.31, 76.85 74.81, 143.62 0.43 M6.04 157.85 C33.24 123.62, 62.56 90.8, 142.88 -0.48 M5.71 163.8 C52.74 111.56, 98.49 59.46, 146.67 2.16 M6.03 163.58 C57.49 106.6, 106.1 49.44, 148.22 1.5 M9.16 166.56 C53.49 115.01, 98.07 61.87, 152.32 0.69 M7.93 167.8 C40.11 131.44, 71.71 95.59, 152.3 2.03 M7.6 173.05 C37.58 137.02, 70.23 102.3, 157.5 2.72 M8.71 173.24 C65.37 110.23, 119.74 45.96, 156.88 3.82 M9.12 177.76 C56.65 127.23, 98.23 74.8, 160.98 4.71 M9.02 177.32 C51.29 130.42, 94.45 80.81, 160.07 4.25 M9.28 182.79 C58.01 129.37, 103.34 74.53, 165.04 5.87 M11.19 182.27 C50.99 134.96, 90.56 88.13, 166.3 5.47 M12.15 187.94 C73.45 116.2, 136.01 43.41, 168.76 5.7 M10.93 187.83 C70.02 122.25, 128.85 54.28, 169.97 5.23 M13.5 191.09 C48.9 151.51, 83.57 109.64, 173.13 5.91 M12.86 191.54 C71.72 127.03, 127.93 61.31, 173.62 6.4 M17.35 196.84 C65.58 135.1, 117.88 79.12, 177.86 8.1 M16.64 195.03 C66.88 137.56, 116.8 78.68, 178.44 7.93 M18.73 197.34 C82.16 124.5, 143.68 52.95, 183.14 9.53 M18.48 199.44 C65.53 145.2, 111.23 91.89, 182.29 9.69 M19.33 200.48 C69.23 145.89, 120.65 89.5, 185.81 11.08 M21.38 201.72 C67.45 147.87, 114.29 92.9, 187.86 10.55 M23.53 205.05 C81.27 137.12, 143.82 66.28, 189.53 11.23 M23.53 205.74 C72.44 149.3, 121.27 93.6, 191.25 12.9 M26.53 210.31 C75.61 151.48, 125.4 94.9, 193.16 14.84 M25.51 208.19 C79.15 148.78, 132.29 87.16, 195.17 13.63 M26.84 210.99 C83.28 147.05, 137.73 85.28, 199.59 15.8 M26.93 212.87 C84.71 148.01, 140.09 83.96, 197.95 16.59 M29.72 216.95 C97.31 136.88, 166.83 60.77, 203.02 16.98 M29.67 215.87 C95.5 139.21, 161.18 64.38, 202.13 17.11 M33.32 219.52 C99.6 140.43, 167.94 64.39, 206.01 20.3 M32.34 219.94 C88.15 153.55, 145.23 88.57, 205.5 20.14 M35.39 224.5 C99.74 146.95, 165.06 69.31, 209.3 21.75 M33.49 223.53 C87.19 158.29, 143.17 95.47, 209 20.83 M35.99 224.36 C82.82 169.89, 131.74 114.63, 212.89 23.83 M37.82 226.3 C96.68 156.36, 155.79 87.38, 212.54 24.1 M39.03 229.39 C74.84 186.22, 110.62 145.9, 215.5 24.23 M40.07 227.94 C93.4 166.84, 147.21 105.74, 216.57 25.42 M44.24 232.13 C82.51 183.51, 123.98 137.52, 218.75 28.17 M42.6 230.33 C80.43 190.71, 116.71 149.14, 221.06 27.06 M47.59 233.06 C99.19 173.83, 150.25 114.58, 223.47 27.78 M45.99 234.08 C113.65 156.88, 180.06 79.44, 223.88 28.41 M50.16 235.63 C110.24 169.1, 167.52 103.39, 227.62 30.02 M48.85 236.73 C99.52 179.49, 148.87 124.05, 227.72 31.16 M52.87 239.71 C93.12 189.23, 136.6 141.56, 231.33 33.72 M51.7 239.52 C108.65 172.09, 166.61 105.42, 231.45 33.58 M56.61 242.23 C123.71 163.26, 189.38 87.18, 232.99 37.26 M55.89 240.09 C109.34 178.2, 163.59 117.33, 233.69 37.28 M57.52 243 C116.94 178.3, 174.04 114.32, 234.99 39.82 M58.5 243.85 C126.86 166.07, 194.87 87.28, 235.8 40.76 M62.93 244.7 C131.19 167.42, 198.55 87.92, 237.8 41.93 M62.45 246.65 C122.73 178.38, 181.84 111.41, 238.77 43.74 M64.64 249.38 C131.1 170.69, 198.3 93.28, 240.6 45.93 M65.1 249.3 C124.74 179.31, 185.31 108.93, 241.1 46.06 M67.31 252.71 C123.55 186.97, 177.43 123.11, 243.8 50.42 M68.23 251.81 C106.45 205.08, 146.07 160.08, 244.09 49.19 M70.65 253.2 C133.66 183.77, 193.98 113.64, 246.34 51.34 M70.81 253.92 C114.2 203.01, 157.16 152.17, 246.45 52.53 M76.49 255.15 C129.55 192.92, 184.38 131.97, 248.22 55.33 M74.94 254.9 C132.95 190.39, 190.94 124.4, 247.98 54.98 M78.85 257.93 C127.35 197.46, 179.76 139.19, 251.08 58.12 M78.77 256.19 C128.49 200.48, 177.6 145.03, 252.22 58.51 M82.66 259.25 C133.41 202.42, 181.98 145.59, 254.19 62.32 M82.91 258.33 C117.4 220.36, 151.08 179.85, 254.07 61.43 M86.22 258.46 C123.51 221.92, 155.07 182.23, 258.45 63.96 M86.81 260.36 C139.52 201.45, 189.66 144.35, 256.93 63.95 M92.27 261.57 C149.14 196.01, 205.71 128.61, 258.29 68.59 M90.68 261.39 C139.48 204.1, 190.77 147.65, 257.98 69.14 M94.12 261.3 C130.39 224.76, 162.79 187.2, 260.59 72.34 M95.74 262.44 C142.4 209.14, 188.88 155.09, 260.96 71.86 M99.73 264.65 C152.41 203.94, 205.17 143.8, 261.78 76.51 M99.66 263.35 C146.6 210.47, 191.22 159.26, 262.62 77.52 M101.57 266.26 C151.71 208.71, 202.64 150.03, 264.81 81.04 M103.3 266.08 C149.13 212.14, 196.21 157.81, 263.55 80.78 M106.79 267.3 C152.31 213.23, 198.23 160.16, 263.84 84.16 M107.12 267.53 C155.3 209.94, 203.48 155.1, 265.75 85.71 M110.02 267.68 C159.67 211.82, 208.85 157.5, 266.75 90.47 M111.46 268.86 C161.32 211.7, 211.92 154.02, 267.46 89.06 M113.98 269.75 C148.03 229.4, 184.76 188.45, 269.83 94.02 M114.49 270.94 C167.7 211.68, 218.93 150.01, 268.88 94.03 M119.19 271.95 C158.53 222.79, 198.66 179.44, 270.31 96.38 M119.8 270.45 C153.61 232.24, 187.12 192.31, 270.3 96.67 M124.17 270.25 C174.08 213.81, 226.1 154.12, 271.6 102.41 M125.36 269.77 C159.79 228.94, 197.6 186.95, 273.61 100.77 M131.99 272.62 C158.48 237.85, 189.6 202.8, 272.75 105.01 M129.52 270.24 C185.83 206.85, 241.59 140.68, 273.61 106.17 M135.72 269.29 C186.85 211.45, 234.88 154.45, 274.77 112.99 M135.98 269.73 C175.27 224.42, 214.65 179.89, 274.38 111.73 M142.03 269.66 C172.59 234.77, 203.71 196.34, 273.81 117.68 M140.52 271.03 C181.06 226.16, 218.22 182.69, 274.41 116.31 M148.14 269.88 C177.33 233.21, 210.44 194.84, 275.85 120.89 M146.68 270.16 C177.99 238.24, 206.4 203.31, 275.41 121.9 M150.78 269.04 C183.27 235.42, 213.82 200.18, 275.1 130.11 M152.42 270.21 C190.57 225.51, 229.94 182.22, 275.64 127.5 M158.47 270.19 C195.57 228.99, 228.63 189.18, 277.69 133.78 M158.57 267.25 C187.9 236.98, 216.93 202.78, 276.27 134.76 M164.97 265.41 C205.41 219.02, 247.19 174.41, 276.96 139.53 M166.79 265.7 C201.83 224.37, 238.35 184.42, 274.76 140.87 M171.23 265.28 C210.23 217.89, 249.15 174.39, 277.28 146.96 M173.84 263.86 C214.81 218.28, 256.33 169.69, 276.33 146.08 M178.76 263.09 C214.78 222.13, 247.95 186.14, 278.1 149.07 M180.5 261.17 C213.63 225.26, 245.18 186.97, 276.48 151.16 M187 258.81 C218.71 224.34, 245.53 192.19, 276.61 158.97 M187.44 260.03 C220.77 222.75, 251.48 185.8, 275.22 159.05 M195.18 257.48 C224.67 223.11, 254.38 188.57, 273.55 167.54 M194.64 257.27 C224.86 222.17, 255.96 187.49, 271.44 168.5 M200.42 256.93 C216.79 237.07, 231.54 222.69, 270.7 176.09 M202.04 255.77 C223.21 231.48, 245 206.53, 269.83 177.68 M215.47 245.15 C229.37 232.23, 241.9 215.85, 269.46 186.87 M216.76 244.85 C232.71 224.64, 248.87 207.27, 268.11 186.7 M233.85 232.15 C246.81 215.81, 259.99 203.1, 268.16 194.22 M232.78 234.03 C240.46 224.73, 248.66 215.6, 265.79 193.66 M34.6 223.9 C34.6 223.9, 34.6 223.9, 34.6 223.9 M34.6 223.9 C34.6 223.9, 34.6 223.9, 34.6 223.9 M70.44 248.43 C56.92 239.41, 47.48 228.24, 27.12 209.68 M71.27 248.75 C53.3 234.45, 36.69 219.36, 26.51 210.08 M82.05 255.45 C57.77 232.13, 30.8 209.27, 19.83 199.66 M81.41 253.92 C58.02 233.25, 33.54 211.24, 18.58 199.4 M94.73 256.98 C64.04 234.68, 34.41 209.32, 9.6 186.88 M93.22 259.67 C74.31 241.32, 53.27 224.82, 10.44 188.24 M105.67 263.75 C84.54 248.57, 64.6 231.57, 11.13 180.79 M103.87 263.89 C68.1 231.54, 30.11 199.67, 10.37 181.06 M111.8 266.41 C70.96 230.62, 32.22 193.63, 7.83 174.83 M112.56 265.45 C70.62 229.53, 29.23 192.58, 8.47 173.06 M121.62 265.93 C90.69 242.03, 59.33 214.05, 7.54 165.77 M119.91 265.53 C93.59 243.55, 68.57 221.81, 6.86 167.5 M127.78 267.86 C97.15 239.76, 66.81 212.83, 5.29 160.29 M127.02 265.88 C98.36 242.91, 71.71 220.37, 5.97 161.25 M132.1 266.83 C90.96 230.36, 49.39 196.24, 4.86 154.59 M132.05 266.22 C84.5 226.34, 39.07 185.75, 2.66 154.32 M138.92 265.45 C109.54 239.67, 81.7 214.71, 2.34 148.03 M138.11 267.21 C111.19 241.36, 83.36 217.14, 3.33 148.57 M143.88 266.08 C101.39 229.29, 60.9 196.57, 0.95 140.94 M145.55 267.13 C115.67 240.84, 86.62 214.34, 1.2 141.36 M151.48 266.49 C104.65 228.32, 60.85 188.69, 0.87 138.19 M150.07 265.5 C117.08 237.73, 85.37 207.7, 1.72 136.22 M157.18 267.59 C106.08 221.28, 50.54 173.41, 2.07 131.14 M158.2 267.76 C120.78 235.64, 83.89 202.96, 1.97 132.48 M161.88 265.02 C106.26 214.61, 46.7 164.39, 2.82 125.99 M162.87 266.78 C119.82 230.36, 75.13 191.09, 2.6 127.33 M166.98 265.76 C124.67 227.46, 79.33 186.91, 2.73 120.97 M167.26 265.32 C119.83 224.89, 72.98 185.13, 3.32 122.02 M172.6 262.3 C116.7 212.94, 61.2 162.9, 4 118.48 M171.89 263.63 C116.53 215.27, 60.6 166.07, 4.29 117.77 M177.95 261.82 C127.45 220.93, 78.53 176.05, 4.71 113.21 M176.47 263.23 C139.61 227.66, 100.61 195.25, 4.94 112.66 M181.62 261.5 C144.27 231, 105.02 195.48, 4.26 109.74 M180.63 261.51 C127.97 215.11, 77.47 170.83, 5.53 108.17 M185.29 260.55 C118.07 199.29, 46.9 135.77, 6.4 104.16 M185.55 260.9 C137.12 217.16, 87.36 174.04, 5.58 102.7 M190.38 259.68 C133.59 210.96, 76.56 160.92, 4.69 98.06 M189.46 258.26 C143.94 218.71, 97.71 178.44, 5.78 97.8 M195.26 256.08 C141.23 212.4, 87.87 163.86, 7.25 95.06 M194.42 257.38 C135.29 206.65, 76.8 154.24, 8.05 94.88 M198.61 256.08 C134.31 197.04, 70.5 139.92, 10.67 90.81 M198.47 255.11 C127.44 192.32, 56.33 131.03, 9.1 90.88 M201.7 252.5 C162.86 218.71, 122.95 185.21, 10.01 87.46 M202.5 252.5 C127.56 190.58, 54.89 125.62, 10.73 86.16 M207.02 251.62 C134.63 188.87, 62 122.95, 11.13 81.69 M206.1 250.49 C150.62 203.04, 94.1 154.59, 12.15 83.04 M208.2 248.77 C152.28 197.62, 91.56 146.36, 15.71 78.37 M210.02 249.21 C141.14 188.77, 72.91 128.78, 15.09 80.02 M212.78 246.6 C155.98 197.52, 101.92 148.29, 15.8 76.69 M211.89 246.74 C160.22 201.43, 106.73 155.24, 16.24 74.95 M217.46 245.08 C167.06 199.34, 116.46 153.86, 17.48 70.36 M216.61 244.44 C164.72 197.38, 113.18 151.65, 16.84 71.4 M220.51 242.94 C168.38 197.11, 115.96 150.19, 19.22 69.09 M220.12 241.86 C175.63 201.25, 131.69 164.05, 19.9 67.46 M222.72 240.57 C170.18 194.22, 121.67 150.03, 22.77 64.12 M222.96 238.91 C142.6 170.84, 64.07 103.02, 20.89 64.28 M226.84 238.18 C155.95 176.12, 86.82 114.13, 24.6 59.27 M226.86 237.09 C158.36 179.57, 90 120.49, 22.46 59.68 M229.17 235.57 C181.44 192.69, 134.04 149.54, 24.05 55.63 M229.13 233.77 C151.8 167.36, 73.93 100.35, 25.67 56.7 M231.64 233.41 C176.24 182.27, 119.79 134.54, 28.19 52.13 M233.56 231.29 C190.69 194.1, 147.45 156.91, 28.25 53.76 M235.72 229.29 C186.67 188.58, 138.3 145.68, 31.01 51.73 M236.17 229.04 C171.62 171.85, 105.66 115.6, 30.89 50.93 M238.71 227.84 C195.54 186.16, 149.19 149.13, 32.49 48.07 M239.12 227.35 C165.9 162.43, 92.22 98.44, 33.9 48.2 M242 223.43 C193.52 182.72, 143.86 139.66, 35.54 45.63 M241.34 223.41 C193.74 182.73, 144.61 139.47, 36.25 45.41 M243.27 221.69 C187.8 172.02, 130.36 122.37, 38.53 41.98 M243.74 220.26 C190.32 172.95, 135.46 125.18, 40.2 42.3 M246.25 217.27 C180.16 161.42, 116.59 104.19, 41.88 39.53 M246.08 216.29 C198.82 173.96, 152.38 132.06, 42.64 39.44 M248.34 214.01 C171.76 147.32, 99.41 84.07, 44.22 36.82 M249.02 214.39 C176.66 150.77, 105.84 88.4, 44.99 36.4 M252.03 210.77 C189.98 155.21, 125.58 102.47, 48.96 34.04 M251.12 210.15 C178.24 147.42, 107.46 85.63, 47.68 34.24 M254.65 207.97 C186.4 150.44, 118.28 93.81, 50.55 30.86 M253.16 207.73 C208.92 169.89, 164.23 131.68, 50.12 30.88 M256.74 202.78 C186.88 147.65, 119.5 87.22, 54.12 28.57 M255.06 204.86 C200.85 155.29, 142.93 105.18, 53.51 27.93 M257.44 201.79 C210.34 160.46, 166.34 121.57, 54.69 24.01 M258.1 200.78 C182.64 134.68, 108.87 70.28, 55.38 25.45 M261 197.64 C202.56 148.31, 145.94 98.29, 60.88 22.36 M259.91 197.15 C204.72 150.46, 151.29 103.32, 59.56 23.62 M262.17 194.68 C213.31 150.39, 165.07 105.71, 63.07 20.34 M262.42 193.88 C200.21 141.08, 137.83 87.55, 64.48 22.49 M265.37 191.83 C201.1 137.62, 140.07 82.15, 68.22 20.31 M265.41 190.02 C222.84 153.16, 181.28 116.31, 68.36 20.24 M265.85 187.69 C225.59 152.41, 182.79 115.73, 70.69 18.6 M265.42 185.72 C215.04 141.71, 165.16 96.98, 71.37 18.19 M266.62 183.47 C195.1 117.7, 125.61 55.07, 75.87 15.65 M267.68 182.78 C199.2 120.45, 128.25 59.37, 75.82 16.58 M266.83 176.59 C221.99 138.39, 174.11 96.47, 78.59 15.3 M268.4 178.19 C223.68 140.82, 181.2 101.79, 80.24 14.54 M270.85 174.82 C221.48 131.12, 173.18 89.09, 83.69 11.83 M269.84 174.06 C229.06 137.3, 186.85 102.62, 84.14 11.69 M271.57 168.83 C213.7 120.09, 157.34 69.89, 87.3 11.88 M270.75 169.9 C210.45 117.14, 150.31 64.59, 88.49 9.71 M272.37 165.42 C208.36 108.36, 141.82 50.08, 91.37 8.91 M271.52 165.43 C229.99 129.41, 189.17 93.01, 91.02 8.11 M273.75 159.88 C221.8 116.94, 170.74 72.29, 94.62 5.38 M272.73 160.91 C225.14 119.27, 177.65 77.6, 96.65 7.42 M275.13 156.37 C219.06 106.84, 162.8 58.5, 102.05 4.27 M274.9 156.79 C221.37 110.34, 167.69 64.33, 100.66 5.49 M274.16 152.54 C226.02 111.41, 174.99 67.34, 106.8 3.45 M275 151.62 C227.71 112.67, 180.62 71.5, 105.5 4.5 M278.25 149.42 C211.25 90.11, 146.76 34.68, 112.98 3.06 M277.37 147.8 C228.13 107.8, 180.57 64.65, 112.03 4.95 M274.83 141.19 C220.36 94.92, 166.79 48.95, 115.9 1.98 M276.64 143.1 C216.07 92.12, 158.68 41.2, 116.25 2.73 M275.89 136.95 C233.74 101.47, 194.24 63.76, 119.9 3.31 M275.81 137.45 C228.59 96.97, 181.83 57.34, 120.71 1.53 M274.9 131.13 C234.13 95.65, 190.52 58.39, 126.83 1.43 M277.06 131.37 C237.72 99.24, 199.61 65.58, 125.92 2.88 M275.68 126.34 C245.74 99.07, 212.87 71.03, 133.19 -0.67 M275.56 126.83 C219.45 76.18, 164.06 27.69, 131.99 1.51 M276.98 120.85 C232.83 83.41, 189.2 45.65, 134.81 -1.72 M275.12 119.8 C238.17 88.35, 201.53 54.9, 137.5 -0.54 M274.87 113.06 C222.97 69.3, 169.24 21.63, 140.71 0.67 M274.36 115.68 C237.77 82.12, 201.69 51.42, 141.41 0.2 M273.9 111.2 C250.53 88.33, 222.71 64.12, 150.97 2.53 M274.45 108.92 C246.67 85.62, 218.03 61.05, 150.53 1.81 M273.18 105.58 C238.41 72.11, 200 36.16, 159.52 3.27 M274.7 104.33 C251.16 83.06, 227.35 61.58, 158.93 2.7 M270.94 96.43 C238.42 68.03, 209.88 39.47, 166.25 3.25 M271.6 94.88 C234.37 63.47, 197.51 31.27, 167.49 4.23 M266.38 88.01 C246.91 69.66, 228.4 53.35, 175.04 4.9 M268.31 86.73 C239.26 61.78, 211.87 38.9, 174.52 5.7 M261.68 79.2 C236.84 54.11, 210.4 31.53, 183.6 8.33 M263.11 77.85 C232.6 53.15, 203.87 26.28, 183.09 8.97 M261.1 71.74 C242.62 57.58, 227.43 44.38, 188.74 7.79 M260.05 69.14 C244.8 56.96, 227.8 42.4, 186.87 6.89 M257.76 63.92 C236.78 44.83, 213.71 25.16, 204.06 17.04 M256.29 62.23 C245.76 51.52, 232.56 42.58, 203.33 15.63 M240.64 41.89 C230.19 35.23, 224.59 25.32, 217.77 22.97 M238.6 41.6 C232.57 36.73, 226.94 31.15, 218.06 22.29" stroke="#a1cf6f" stroke-width="0.5" fill="none"></path><path d="M141.93 -0.54 C156.21 -2.22, 171.96 3.86, 186.08 8.93 C200.19 14, 215.01 20.71, 226.62 29.87 C238.23 39.02, 247.88 51.33, 255.74 63.85 C263.6 76.38, 270.39 90.74, 273.76 105.01 C277.13 119.27, 277.54 134.99, 275.95 149.44 C274.37 163.89, 270.62 178.55, 264.24 191.73 C257.85 204.9, 248.07 217.96, 237.65 228.49 C227.23 239.03, 214.89 248.3, 201.7 254.94 C188.52 261.57, 173.49 266.09, 158.53 268.3 C143.56 270.51, 126.79 270.94, 111.91 268.19 C97.04 265.45, 82.17 259.19, 69.28 251.81 C56.4 244.43, 44.43 234.6, 34.62 223.92 C24.81 213.24, 16.07 201.29, 10.43 187.75 C4.79 174.21, 1.6 157.5, 0.78 142.66 C-0.03 127.83, 1.72 112.8, 5.53 98.75 C9.34 84.7, 15.27 70.39, 23.63 58.36 C31.99 46.33, 43.69 35.18, 55.68 26.6 C67.67 18.02, 79.78 11.3, 95.6 6.89 C111.42 2.48, 140.12 0.62, 150.6 0.14 C161.09 -0.35, 158.85 1.58, 158.53 3.99 M184.81 6.79 C198.88 9.62, 212.25 19.88, 223.87 29.35 C235.5 38.82, 246.57 51.22, 254.56 63.61 C262.55 76.01, 268.29 89.4, 271.81 103.72 C275.33 118.04, 276.71 134.69, 275.68 149.52 C274.65 164.36, 271.73 179.54, 265.62 192.73 C259.51 205.92, 249.43 218.38, 239.02 228.66 C228.61 238.95, 216.59 247.79, 203.16 254.46 C189.72 261.13, 173.45 266.2, 158.4 268.69 C143.36 271.17, 127.37 271.93, 112.88 269.39 C98.39 266.85, 84.39 260.63, 71.47 253.44 C58.55 246.25, 45.27 237.02, 35.36 226.23 C25.46 215.44, 17.94 202.45, 12.05 188.71 C6.15 174.96, 1.19 158.38, -0.01 143.74 C-1.2 129.11, 0.79 115.08, 4.88 100.9 C8.97 86.71, 15.92 70.95, 24.52 58.61 C33.12 46.28, 44.68 35.57, 56.48 26.9 C68.29 18.22, 81.32 11.03, 95.34 6.55 C109.36 2.06, 125.62 -0.38, 140.59 -0.02 C155.56 0.34, 177.63 7, 185.18 8.69 C192.73 10.38, 186.66 8, 185.88 10.13" stroke="#fff" stroke-width="1" fill="none"></path></g><g stroke-linecap="round" transform="translate(178.80742724187382 10.59646099059131) rotate(0 138.4554607906992 135.24997201935278)"><path d="M87.28 10.53 C99.81 3.36, 116.81 1.07, 131.79 0.33 C146.78 -0.4, 162.87 2.09, 177.19 6.12 C191.51 10.15, 205.52 16.24, 217.71 24.49 C229.9 32.74, 241.56 43.88, 250.31 55.61 C259.06 67.34, 265.71 80.85, 270.2 94.88 C274.69 108.91, 277.74 124.96, 277.25 139.79 C276.76 154.62, 272.79 170.22, 267.25 183.85 C261.72 197.48, 253.51 210.47, 244.04 221.58 C234.56 232.69, 223.09 242.75, 210.38 250.48 C197.67 258.22, 182.33 264.86, 167.78 267.98 C153.24 271.09, 138.05 270.91, 123.09 269.18 C108.13 267.46, 91.59 264.04, 78.02 257.62 C64.44 251.2, 52.33 240.95, 41.65 230.67 C30.98 220.39, 20.85 208.98, 13.98 195.93 C7.12 182.87, 2.51 166.95, 0.48 152.34 C-1.56 137.73, -1.24 122.59, 1.79 108.28 C4.83 93.97, 10.98 79.19, 18.68 66.49 C26.38 53.78, 34.1 42.35, 48 32.05 C61.9 21.75, 90.57 9.27, 102.09 4.68 C113.61 0.08, 116.67 2.34, 117.12 4.48 M110.75 1.14 C124.23 -3.86, 142.05 -1.31, 156.92 1.11 C171.79 3.53, 186.28 9.01, 199.96 15.68 C213.64 22.36, 228.21 30.95, 239.01 41.16 C249.81 51.37, 258.66 63.57, 264.74 76.96 C270.82 90.35, 273.98 107.04, 275.48 121.49 C276.98 135.93, 277.15 149.58, 273.74 163.63 C270.33 177.67, 262.64 192.96, 255.03 205.74 C247.41 218.52, 239.18 231.12, 228.04 240.3 C216.9 249.49, 202.29 255.66, 188.19 260.87 C174.08 266.08, 158.69 270.9, 143.4 271.57 C128.1 272.24, 111.07 269.68, 96.4 264.88 C81.73 260.09, 67.25 251.56, 55.37 242.79 C43.5 234.03, 33.39 223.89, 25.15 212.28 C16.9 200.66, 10.17 187.15, 5.89 173.1 C1.61 159.06, -1.44 142.65, -0.52 128.01 C0.41 113.36, 5.75 98.64, 11.45 85.26 C17.14 71.87, 23.78 58.87, 33.62 47.71 C43.47 36.55, 57.24 26.05, 70.49 18.3 C83.74 10.54, 106.23 3.34, 113.11 1.19 C119.99 -0.97, 111.31 2.95, 111.77 5.37" stroke="#fff" stroke-width="1" fill="none"></path></g><g transform="translate(121.8363037109375 128.72634887695312) rotate(0 21.96666717529297 12)"><text x="0" y="0" font-family="Virgil, Segoe UI Emoji" font-size="20px" fill="#fff" text-anchor="start" style="white-space: pre;" direction="ltr" dominant-baseline="text-before-edge">Left</text></g><g transform="translate(297.758544921875 129.66030883789062) rotate(0 24.566667556762695 12)"><text x="0" y="0" font-family="Virgil, Segoe UI Emoji" font-size="20px" fill="#fff" text-anchor="start" style="white-space: pre;" direction="ltr" dominant-baseline="text-before-edge">Right</text></g></svg>