<svg xmlns="http://www.w3.org/2000/svg" viewBox="0 0 350 170"><defs><style>.a{fill:none;stroke:#231f20;stroke-linecap:round;stroke-linejoin:round;stroke-width:2px;stroke-dasharray:4 6;}.b{fill:#010101;}</style></defs><path class="a" d="M302.16,131.54A60.75,60.75,0,1,0,363,192.29,60.86,60.86,0,0,0,302.16,131.54Z"/><path class="a" d="M181.23,18.14A23.82,23.82,0,1,0,157.4,41.93,23.84,23.84,0,0,0,181.23,18.14Z"/><path class="a" d="M348.59,93.72a11.91,11.91,0,1,0-11.91,11.9A11.91,11.91,0,0,0,348.59,93.72Z"/><path class="a" d="M282.77,104.79a7.74,7.74,0,1,0-7.73,7.73A7.73,7.73,0,0,0,282.77,104.79Z"/><rect class="a" x="62.38" y="137.06" width="55.23" height="55.23" transform="translate(254.67 74.67) rotate(90)"/><rect class="a" x="7.15" y="81.83" width="55.23" height="55.23" transform="translate(144.21 74.67) rotate(90)"/><path class="b" d="M281.9,19.84A79.74,79.74,0,0,0,245.5,5.31L233.78,21.67A111,111,0,0,1,257,31.89l-59.32,81.48c-4.86,6.67-3.91,15.52,1.84,19.72,6,4.25,14.75,2.27,19.36-4.45L278,46.88c21.37,19.14,33.29,43.23,32.93,63.9A79.72,79.72,0,0,0,281.9,19.84Z"/></svg>