<?xml version="1.0" encoding="utf-8"?>
<!-- Generator: Adobe Illustrator 26.1.0, SVG Export Plug-In . SVG Version: 6.00 Build 0)  -->
<svg version="1.1" id="Layer_1" xmlns="http://www.w3.org/2000/svg" xmlns:xlink="http://www.w3.org/1999/xlink" x="0px" y="0px"
	 viewBox="0 0 350 170" style="enable-background:new 0 0 350 170;" xml:space="preserve">
<style type="text/css">
	.st0{fill:none;stroke:#231F20;stroke-width:2;stroke-linecap:round;stroke-linejoin:round;stroke-dasharray:4,6;}
</style>
<path class="st0" d="M76.6-80.6c-33.6,0-60.8,27.2-60.8,60.8C15.8,13.7,43,40.9,76.6,40.9c33.6,0,60.8-27.2,60.8-60.8
	C137.3-53.4,110.1-80.6,76.6-80.6z"/>
<path class="st0" d="M360.5,160.9c0-13.2-10.6-23.8-23.8-23.8c-13.2,0-23.8,10.6-23.8,23.8c0,13.2,10.6,23.8,23.8,23.8c0,0,0,0,0,0
	C349.8,184.7,360.5,174.1,360.5,160.9z"/>
<path class="st0" d="M153,98.8c0-13.2-10.6-23.8-23.8-23.8c-13.2,0-23.8,10.6-23.8,23.8s10.6,23.8,23.8,23.8c0,0,0,0,0,0
	C142.3,122.6,153,112,153,98.8z"/>
<rect x="68.7" y="132.5" class="st0" width="42.7" height="42.7"/>
<rect x="24" y="87.8" class="st0" width="42.7" height="42.7"/>
<path d="M373.1,123.2L373.1,123.2l0.4-0.8c-18-9.9-37.7-16.1-49.7-19.3c4.2-6.4,7.3-14.4,10.1-23.4c4.1-13,2.4-24.9-3-35.3
	c2.8-4,7.7-13.4,6.6-27.6c0,0-8.1-5.7-32.6,1.6c-7.3-4.5-15.4-8.1-23.9-10.7c-9.3-2.9-19.1-4.7-28.6-5C236.1-18.3,226-18.2,226-18.2
	c-10.7,13.2-10.5,25.5-10.3,28.6c-9.5,5.4-16.9,13.8-20.6,25.8c-2.8,9-4.3,17.4-4,25.3c-11.9-4.2-30.9-10-50.6-12.1l-0.1,0.9
	c19.8,2.1,38.9,8,50.7,12.2c0.1,1.6,0.3,3.2,0.5,4.8c-11.9-3.3-32.6-8.1-53.6-8.7l0,0.9c21.2,0.6,42,5.5,53.8,8.8
	c2.9,15.4,14.2,28.2,38.1,38.6c-4.3,1.3-9.1,4.1-12.7,10.5c-5.5,0.8-22.4,1.6-26.6-16.9c0,0-2.2-10.9-11.7-14.7c0,0-9.4-3.1-2.5,5.7
	c0,0,5.4,5,6.2,17.5c0,0-0.3,20.9,29.1,23.4l-6.2,19.7c0,0-2.8,6.8-9.9,7.1c0,0-4.6,1.4-1,4.2c0,0,17.3,7,21.8-7.5l6.7-21.5
	c0,0,2-8.7,7.1-10.4l-11.1,35.3c0,0-2.9,8.3-8.3,10.2c0,0-4.5,4.3,2.3,4.9c0,0,12.8,2.1,17.8-12l11.5-35.7l2.9,0.9l-10.9,35.8
	c-3.9,14.4,7.8,20,7.8,20c5.9,3.5,4.7-2.7,4.7-2.7c-3.4-4.6-1-13.1-1-13.1l11-35c3.2,4.6,0,12.3,0,12.3l-6.7,21.5
	c-4.6,14.5,13.6,18.6,13.6,18.6c4.5-0.2,1.6-4,1.6-4c-5.7-4.3-4.1-11.5-4.1-11.5l8.8-28.2c3.4-11,0.6-18.3-2.9-22.8
	c27.2,5.7,42.5,1.1,52.5-10.3c11.5,3.9,31.8,11.9,50,23.7l0.5-0.8c-18-11.8-38.2-19.7-49.8-23.7c1-1.2,1.9-2.4,2.8-3.7
	C335.3,107.1,355.1,113.3,373.1,123.2z M182.5,89.4L182.5,89.4C182.5,89.4,182.5,89.4,182.5,89.4c-0.2,0.7-1.3,1-2.3,0.7
	c-1-0.3-1.7-1.2-1.5-1.9c0.2-0.7,1.3-1,2.3-0.7C182,87.9,182.7,88.7,182.5,89.4C182.5,89.4,182.5,89.4,182.5,89.4z M183,92.8
	c0.2-0.7,1.3-1,2.3-0.7c1,0.3,1.7,1.2,1.5,1.9c0,0,0,0,0,0l0,0c0,0,0,0,0,0c-0.2,0.7-1.3,1-2.3,0.7C183.4,94.4,182.7,93.5,183,92.8z
	 M185,97.6c0.2-0.7,1.3-1,2.3-0.7c1,0.3,1.7,1.2,1.5,1.9c0,0,0,0,0,0l0,0c0,0,0,0,0,0c-0.2,0.7-1.3,1-2.3,0.7
	C185.4,99.1,184.7,98.3,185,97.6z M186.5,102.8c0.2-0.7,1.3-1,2.3-0.7c1,0.3,1.7,1.2,1.5,1.9c0,0,0,0,0,0l0,0c0,0,0,0,0,0
	c-0.2,0.7-1.3,1-2.3,0.7C186.9,104.4,186.3,103.6,186.5,102.8z M189.9,109.8c-1-0.3-1.7-1.2-1.5-1.9c0.2-0.7,1.3-1,2.3-0.7
	c1,0.3,1.7,1.2,1.5,1.9c0,0,0,0,0,0l0,0c0,0,0,0,0,0C192,109.8,191,110.1,189.9,109.8z M195.5,114L195.5,114
	C195.5,114,195.5,114,195.5,114c-0.2,0.7-1.3,1-2.3,0.7c-1-0.3-1.7-1.2-1.5-1.9c0.2-0.7,1.3-1,2.3-0.7
	C195,112.4,195.7,113.2,195.5,114C195.5,114,195.5,114,195.5,114z M200.9,118.2L200.9,118.2C200.9,118.2,200.9,118.2,200.9,118.2
	c-0.2,0.7-1.3,1-2.3,0.7c-1-0.3-1.7-1.2-1.5-1.9c0.2-0.7,1.3-1,2.3-0.7C200.4,116.6,201.1,117.5,200.9,118.2
	C200.9,118.2,200.9,118.2,200.9,118.2z M206.9,120.1L206.9,120.1C206.9,120.1,206.9,120.1,206.9,120.1c-0.2,0.7-1.3,1-2.3,0.7
	c-1-0.3-1.7-1.2-1.5-1.9c0.2-0.7,1.3-1,2.3-0.7C206.5,118.5,207.2,119.4,206.9,120.1C206.9,120.1,206.9,120.1,206.9,120.1z
	 M213.4,121L213.4,121C213.4,121,213.4,121,213.4,121c-0.2,0.7-1.3,1-2.3,0.7c-1-0.3-1.7-1.2-1.5-1.9c0.2-0.7,1.3-1,2.3-0.7
	C213,119.4,213.6,120.3,213.4,121C213.4,121,213.4,121,213.4,121z M311.7,91.9c-9.8,31.3-33.4,24.8-62.2,15.8
	c-28.8-9-50.7-20.7-42-48.5c2.1-6.7,7.3-11.8,14.5-15.2c12-5.6,26.5,3.9,44.4,9.5c17.9,5.6,35.1,6,41.8,17.4l0,0
	C312.4,77.9,313.8,85.2,311.7,91.9z"/>
<path d="M235.8,52.7c-6-1.9-13,3.6-15.7,12.2c-2.7,8.6,0,17.1,5.9,19c6,1.9,13-3.6,15.7-12.2C244.5,63.1,241.8,54.6,235.8,52.7z
	 M238.2,70.8c-1.8,5.7-6.5,9.4-10.5,8.1c-4-1.2-5.8-6.9-4-12.7c1.8-5.7,6.5-9.4,10.5-8.1C238.3,59.4,240,65,238.2,70.8L238.2,70.8z"
	/>
<path d="M293.9,70.9c-6-1.9-13,3.6-15.7,12.2c-2.7,8.6,0,17.1,5.9,19s13-3.6,15.7-12.2C302.6,81.3,299.9,72.8,293.9,70.9z M296.4,89
	c-1.8,5.7-6.5,9.4-10.5,8.1c-4-1.2-5.8-6.9-4-12.7c1.8-5.7,6.5-9.4,10.5-8.1C296.4,77.6,298.2,83.3,296.4,89L296.4,89z"/>
<path id="nose" d="M254.9,91c-1.5-0.5-3.1,0.4-3.6,1.9c-0.5,1.5,0.4,3.1,1.9,3.6c1.5,0.5,3.1-0.4,3.6-1.9
	C257.2,93.1,256.4,91.5,254.9,91"/>
<path id="mouth" d="M246.4,95.9c0-0.5,0.4-0.9,0.9-0.9c0.5,0,0.9,0.4,0.9,0.9c0.1,2.2,1.5,4.1,3.6,4.7c2.1,0.7,4.4-0.1,5.7-1.8
	c0.3-0.4,0.9-0.5,1.3-0.2s0.5,0.9,0.2,1.3c-1.8,2.4-4.9,3.4-7.7,2.5S246.6,98.9,246.4,95.9L246.4,95.9z"/>
<circle cx="227.2" cy="71.4" r="6.5"/>
<circle cx="285" cy="88.9" r="6.5"/>
</svg>
