<?xml version="1.0" encoding="utf-8"?>
<!-- Generator: Adobe Illustrator 26.1.0, SVG Export Plug-In . SVG Version: 6.00 Build 0)  -->
<svg version="1.1" id="Layer_1" xmlns="http://www.w3.org/2000/svg" xmlns:xlink="http://www.w3.org/1999/xlink" x="0px" y="0px"
	 viewBox="0 0 350 170" style="enable-background:new 0 0 350 170;" xml:space="preserve">
<style type="text/css">
	.st0{fill:none;stroke:#231F20;stroke-width:2;stroke-linecap:round;stroke-linejoin:round;stroke-dasharray:4,6;}
	.st1{fill:#231F20;}
</style>
<path class="st0" d="M76.6-80.6c-33.6,0-60.8,27.2-60.8,60.8C15.8,13.7,43,40.9,76.6,40.9c33.6,0,60.8-27.2,60.8-60.8
	C137.3-53.4,110.1-80.6,76.6-80.6z"/>
<path class="st0" d="M360.5,160.9c0-13.2-10.6-23.8-23.8-23.8c-13.2,0-23.8,10.6-23.8,23.8c0,13.2,10.6,23.8,23.8,23.8c0,0,0,0,0,0
	C349.8,184.7,360.5,174.1,360.5,160.9z"/>
<path class="st0" d="M147.7,92.4c0-13.2-10.6-23.8-23.8-23.8c-13.2,0-23.8,10.6-23.8,23.8s10.6,23.8,23.8,23.8c0,0,0,0,0,0
	C137,116.2,147.7,105.6,147.7,92.4z"/>
<path class="st0" d="M288.8,145.7c0-9.8-7.9-17.7-17.7-17.7s-17.7,7.9-17.7,17.7c0,9.8,7.9,17.7,17.7,17.7c0,0,0,0,0,0
	C280.9,163.4,288.8,155.5,288.8,145.7z"/>
<rect x="68.7" y="132.5" class="st0" width="42.7" height="42.7"/>
<rect x="24" y="87.8" class="st0" width="42.7" height="42.7"/>
<g>
	<path class="st1" d="M340.9,86.5l-14.5-70.9c-0.2-0.9-0.4-1.7-0.7-2.5l-44.9,47.3L340.9,86.5z"/>
	<path class="st1" d="M223.8,67.3l2.2,0.9c2.1,0.9,4.3,1.6,6.6,2.1c11.2,2.3,24.3-0.3,33.7-6.9c1.9-1.3,3.7-2.8,5.2-4.5l1.6-1.7
		l47.8-50.4c-3.3-2.5-7.6-3.7-12-2.8l-139,28.4c-4.4,0.9-7.9,3.6-9.9,7.2L223.8,67.3z"/>
	<path class="st1" d="M217.9,73.2l-59.8-26c0,0.8,0.1,1.7,0.3,2.6l14.5,70.9L217.9,73.2z"/>
	<path class="st1" d="M275,66.4c-6.3,5.7-14.6,9.7-23.4,11.4c-8.7,1.8-17.9,1.4-26-1.4l-49.2,51.9c3.4,3.9,8.7,5.9,14.1,4.8
		l139-28.4c5.4-1.1,9.5-5,11.1-9.9L275,66.4z"/>
</g>
</svg>
