<?xml version="1.0" encoding="utf-8"?>
<!-- Generator: Adobe Illustrator 26.1.0, SVG Export Plug-In . SVG Version: 6.00 Build 0)  -->
<svg version="1.1" id="Layer_1" xmlns="http://www.w3.org/2000/svg" xmlns:xlink="http://www.w3.org/1999/xlink" x="0px" y="0px"
	 viewBox="0 0 1068 500" style="enable-background:new 0 0 1068 500;" xml:space="preserve">
<style type="text/css">
	.st0{fill:#0F1D39;}
	.st1{fill:none;stroke:#345D75;stroke-width:2;stroke-miterlimit:10;stroke-dasharray:4,6;}
	.st2{fill:#FFFFFF;}
	.st3{fill:#FAD45B;}
	.st4{fill:#9ECD6F;}
	.st5{fill:#EE5E82;}
	.st6{fill:#65C4D8;}
	.st7{fill:none;stroke:#345D75;stroke-width:2;stroke-miterlimit:10;}
</style>
<path class="st0" d="M1048,500H20c-11,0-20-9-20-20V20C0,9,9,0,20,0h1028c11,0,20,9,20,20v460C1068,491,1059,500,1048,500z"/>
<path class="st1" d="M852.2,239.5c-86,0.1-155.6,70-155.5,156s70,155.6,156,155.5c85.9-0.1,155.5-69.8,155.5-155.8
	C1008,309.2,938.2,239.5,852.2,239.5z"/>
<path class="st1" d="M189.1,95c0-33.7-27.3-61.1-61-61.1S67,61.2,67,94.9S94.3,156,128,156c0,0,0,0,0.1,0
	C161.7,156,189.1,128.7,189.1,95z"/>
<path class="st1" d="M1050.2,186.5c0-16.9-13.6-30.5-30.5-30.6c-16.9,0-30.5,13.6-30.6,30.5c0,16.9,13.6,30.5,30.5,30.6l0,0
	C1036.5,217,1050.2,203.3,1050.2,186.5z"/>
<path class="st1" d="M213.5,219.2c0-11-8.9-19.9-19.8-19.9c-11,0-19.9,8.9-19.9,19.8s8.9,19.9,19.8,19.9c0,0,0,0,0.1,0
	C204.6,239,213.5,230.1,213.5,219.2L213.5,219.2z"/>
<rect x="153.4" y="418.6" class="st1" width="141.6" height="141.6"/>
<rect x="11.8" y="277" class="st1" width="141.6" height="141.6"/>
<g id="Layer_1_00000093889708291069204270000005402509344429065897_">
	<g>
		<path class="st2" d="M498.6,113.7c0.3,0,0.6,0.1,0.9,0.3c0.3,0.1,0.6,0.3,0.8,0.5c0.3,0.3,0.6,0.6,0.9,0.9l23.8,30.1
			c-0.1-1-0.2-1.9-0.2-2.8s-0.1-1.8-0.1-2.6v-26.6H535v50.2h-6.1c-0.8,0-1.5-0.1-2.3-0.4c-0.7-0.4-1.3-0.9-1.8-1.5L501.2,132
			c0.1,0.9,0.1,1.7,0.2,2.6c0,0.8,0.1,1.6,0.1,2.4v26.9h-10.3v-50.2h6.1C497.7,113.6,498.1,113.6,498.6,113.7z"/>
	</g>
	<g>
		<path class="st2" d="M551.9,128.1v22.7c0,1.8,0.4,3.1,1.2,4.1c0.9,1,2.2,1.5,3.6,1.4c1.1,0,2.3-0.2,3.3-0.7c1.1-0.5,2.1-1.2,3-2
			v-25.5h10.7v35.7H567c-1.2,0.1-2.3-0.6-2.6-1.8l-0.6-2.1c-0.7,0.7-1.4,1.3-2.1,1.8c-0.7,0.5-1.5,1-2.4,1.4s-1.8,0.7-2.7,0.9
			c-1,0.2-2.1,0.3-3.2,0.3c-1.8,0-3.5-0.3-5.2-1c-1.5-0.6-2.8-1.6-3.8-2.8c-1.1-1.3-1.9-2.7-2.3-4.3c-0.5-1.8-0.8-3.6-0.8-5.4v-22.7
			L551.9,128.1L551.9,128.1z"/>
	</g>
	<g>
		<path class="st2" d="M580.5,163.8v-35.7h6.6c0.6,0,1.2,0.1,1.7,0.4c0.5,0.3,0.8,0.8,0.9,1.3l0.6,1.9c0.6-0.6,1.2-1.2,1.9-1.7
			c0.6-0.5,1.3-1,2.1-1.3c1.6-0.8,3.4-1.2,5.3-1.2c1.9-0.1,3.8,0.5,5.4,1.7c1.5,1.2,2.6,2.7,3.2,4.5c0.6-1.1,1.3-2,2.2-2.8
			c0.8-0.8,1.8-1.4,2.8-1.9s2.1-0.8,3.2-1.1c1.1-0.2,2.2-0.3,3.3-0.3c1.9,0,3.7,0.3,5.4,0.9c1.5,0.6,2.9,1.5,4,2.7s1.9,2.7,2.4,4.3
			c0.6,1.9,0.9,3.8,0.8,5.7v22.7h-10.7v-22.7c0-3.7-1.6-5.5-4.8-5.5c-1.3,0-2.7,0.5-3.6,1.4c-1,0.9-1.4,2.3-1.4,4.1v22.7h-10.7
			v-22.7c0-2-0.4-3.5-1.2-4.3s-2-1.2-3.6-1.2c-1,0-1.9,0.2-2.7,0.6c-0.9,0.5-1.7,1.1-2.4,1.8V164L580.5,163.8z"/>
	</g>
	<g>
		<path class="st2" d="M650,147v16.8h-11.6v-50.2h17.7c3.1-0.1,6.2,0.4,9.1,1.2c2.3,0.7,4.4,1.9,6.3,3.4c1.6,1.4,2.9,3.2,3.6,5.2
			c0.8,2.1,1.2,4.3,1.1,6.5c0,2.4-0.4,4.7-1.2,6.9c-0.8,2.1-2,3.9-3.7,5.4c-1.8,1.6-4,2.8-6.3,3.5c-2.9,0.9-5.9,1.3-9,1.3L650,147
			L650,147z M650,138.2h6.1c3,0,5.2-0.7,6.5-2.2s2-3.4,2-6.1c0-1.1-0.2-2.1-0.5-3.1c-0.3-0.9-0.9-1.8-1.6-2.4
			c-0.8-0.7-1.7-1.2-2.7-1.6c-1.2-0.4-2.5-0.6-3.8-0.6h-6V138.2z"/>
	</g>
	<g>
		<path class="st2" d="M697,173.1c-0.2,0.6-0.6,1.1-1.1,1.6c-0.7,0.4-1.4,0.6-2.2,0.5h-8l6.9-14.5l-14.3-32.6h9.4
			c0.7,0,1.4,0.2,1.9,0.6c0.4,0.3,0.8,0.8,1,1.3l5.9,15.4c0.5,1.4,1,2.8,1.3,4.3c0.2-0.7,0.5-1.5,0.8-2.2s0.5-1.4,0.8-2.2l5.3-15.3
			c0.2-0.6,0.6-1,1.1-1.3s1.1-0.5,1.7-0.5h8.6L697,173.1z"/>
	</g>
	<g>
		<polygon class="st2" points="402.7,97.3 381.4,86.5 358,98.2 379.9,109.2 		"/>
	</g>
	<g>
		<polygon class="st2" points="412.5,102.2 434.9,113.5 411.7,125.1 389.7,114.1 		"/>
	</g>
	<g>
		<polygon class="st2" points="442.4,86.7 465.4,98.2 444.8,108.5 422.4,97.2 		"/>
	</g>
	<g>
		<polygon class="st2" points="432.5,81.7 411.8,71.3 391.3,81.5 412.7,92.3 		"/>
	</g>
	<g>
		<polygon class="st2" points="416.3,170.8 416.3,199 441.4,186.5 441.3,158.3 		"/>
	</g>
	<g>
		<polygon class="st2" points="441.3,148.4 441.3,120.5 416.3,132.9 416.3,160.8 		"/>
	</g>
	<g>
		<polygon class="st2" points="471.4,143.2 471.4,171.5 450,182.2 450,154 		"/>
	</g>
	<g>
		<polygon class="st2" points="471.4,133.3 471.4,105.5 450,116.1 450,144.1 		"/>
	</g>
	<g>
		<path class="st2" d="M407.5,132.9l-16.9-8.5v36.7c0,0-20.6-43.9-22.6-47.9c-0.2-0.5-1.3-1.1-1.5-1.2c-3.7-1.9-14.6-7.4-14.6-7.4
			v64.8l15,8v-33.9c0,0,20.4,39.2,20.6,39.7s2.3,4.6,4.4,6c2.9,1.9,15.4,9.5,15.4,9.5L407.5,132.9z"/>
	</g>
</g>
<g>
	<g>
		<g>
			<path class="st2" d="M424,334.6c3.9,2,7,4.9,9.1,8.6s3.2,8.1,3.2,13.1s-1.1,9.3-3.2,13s-5.2,6.5-9.1,8.4c-3.9,2-8.5,2.9-13.7,2.9
				h-16v-49.1h16C415.5,331.6,420.1,332.6,424,334.6z M423.5,369.5c3.1-3.1,4.6-7.5,4.6-13.1c0-5.7-1.5-10.1-4.6-13.3
				c-3.1-3.2-7.5-4.8-13.2-4.8h-8v35.9h8C416,374.1,420.4,372.6,423.5,369.5z"/>
		</g>
		<g>
			<path class="st2" d="M480.1,364.2h-29.7c0.2,3.1,1.4,5.6,3.5,7.5s4.6,2.8,7.6,2.8c4.3,0,7.4-1.8,9.2-5.4h8.7
				c-1.2,3.6-3.3,6.5-6.4,8.8s-6.9,3.4-11.5,3.4c-3.7,0-7-0.8-10-2.5c-2.9-1.7-5.2-4-6.9-7.1c-1.7-3-2.5-6.6-2.5-10.6
				s0.8-7.5,2.4-10.6c1.6-3,3.9-5.4,6.8-7s6.3-2.5,10.1-2.5c3.7,0,6.9,0.8,9.8,2.4s5.1,3.8,6.7,6.7c1.6,2.9,2.4,6.2,2.4,10
				C480.4,361.7,480.3,363.1,480.1,364.2z M472,357.7c0-3-1.1-5.3-3.2-7.1c-2.1-1.8-4.6-2.7-7.7-2.7c-2.8,0-5.2,0.9-7.1,2.6
				c-2,1.8-3.2,4.2-3.5,7.2H472z"/>
		</g>
		<g>
			<path class="st2" d="M524.3,364.2h-29.7c0.2,3.1,1.4,5.6,3.5,7.5s4.6,2.8,7.6,2.8c4.3,0,7.4-1.8,9.2-5.4h8.7
				c-1.2,3.6-3.3,6.5-6.4,8.8c-3.1,2.3-6.9,3.4-11.5,3.4c-3.7,0-7-0.8-10-2.5c-2.9-1.7-5.2-4-6.9-7.1c-1.7-3-2.5-6.6-2.5-10.6
				s0.8-7.5,2.4-10.6c1.6-3,3.9-5.4,6.8-7s6.3-2.5,10.1-2.5c3.7,0,6.9,0.8,9.8,2.4s5.1,3.8,6.7,6.7c1.6,2.9,2.4,6.2,2.4,10
				C524.6,361.7,524.5,363.1,524.3,364.2z M516.2,357.7c0-3-1.1-5.3-3.2-7.1c-2.1-1.8-4.6-2.7-7.7-2.7c-2.8,0-5.2,0.9-7.1,2.6
				c-2,1.8-3.2,4.2-3.5,7.2H516.2z"/>
		</g>
		<g>
			<path class="st2" d="M545.5,343c2.4-1.2,5-1.8,8-1.8c3.4,0,6.5,0.8,9.3,2.5s5,4,6.6,7s2.4,6.5,2.4,10.4s-0.8,7.4-2.4,10.5
				c-1.6,3.1-3.8,5.5-6.6,7.2s-5.9,2.6-9.3,2.6c-3,0-5.6-0.6-7.9-1.8c-2.3-1.2-4.2-2.7-5.6-4.5v24.1h-8v-57.4h8v5.7
				C541.3,345.7,543.1,344.2,545.5,343z M561.9,354.1c-1.1-2-2.6-3.4-4.4-4.4c-1.8-1-3.8-1.5-5.8-1.5s-3.9,0.5-5.8,1.6
				c-1.8,1-3.3,2.5-4.4,4.5c-1.1,2-1.7,4.3-1.7,7s0.6,5,1.7,7c1.1,2,2.6,3.5,4.4,4.6c1.8,1,3.7,1.6,5.8,1.6s4-0.5,5.8-1.6
				s3.3-2.6,4.4-4.6c1.1-2,1.7-4.4,1.7-7.1C563.6,358.4,563,356.1,561.9,354.1z"/>
		</g>
		<g>
			<path class="st2" d="M607.2,343.1c2.3,1.3,4.2,3.2,5.5,5.6c1.3,2.5,2,5.5,2,9v22.9h-8v-21.7c0-3.5-0.9-6.2-2.6-8
				c-1.7-1.9-4.1-2.8-7.1-2.8s-5.4,0.9-7.2,2.8s-2.6,4.5-2.6,8v21.7h-8v-52.2h8v17.9c1.4-1.6,3.1-2.9,5.2-3.8
				c2.1-0.9,4.4-1.3,6.9-1.3C602.2,341.2,604.9,341.8,607.2,343.1z"/>
		</g>
		<g>
			<path class="st2" d="M623.9,350.7c1.6-3,3.8-5.4,6.6-7c2.8-1.7,5.9-2.5,9.3-2.5c3.1,0,5.7,0.6,8,1.8c2.3,1.2,4.1,2.7,5.5,4.5
				v-5.6h8.1v38.9h-8.1V375c-1.4,1.8-3.2,3.4-5.6,4.6c-2.4,1.2-5,1.8-8,1.8c-3.3,0-6.4-0.9-9.2-2.6s-5-4.1-6.6-7.2
				s-2.4-6.6-2.4-10.5C621.4,357.2,622.2,353.7,623.9,350.7z M651.6,354.2c-1.1-2-2.6-3.5-4.3-4.5c-1.8-1-3.7-1.6-5.8-1.6
				s-4,0.5-5.8,1.5s-3.2,2.5-4.3,4.4c-1.1,2-1.7,4.3-1.7,7s0.6,5,1.7,7.1c1.1,2,2.6,3.6,4.4,4.6c1.8,1.1,3.7,1.6,5.8,1.6
				s4-0.5,5.8-1.6c1.8-1,3.2-2.6,4.3-4.6s1.7-4.3,1.7-7C653.3,358.5,652.7,356.2,651.6,354.2z"/>
		</g>
		<g>
			<path class="st2" d="M687.6,373.5l11-31.7h8.5l-14.8,38.9h-9.6L668,341.8h8.6L687.6,373.5z"/>
		</g>
		<g>
			<path class="st2" d="M748.4,364.2h-29.7c0.2,3.1,1.4,5.6,3.5,7.5s4.6,2.8,7.6,2.8c4.3,0,7.4-1.8,9.2-5.4h8.7
				c-1.2,3.6-3.3,6.5-6.4,8.8c-3.1,2.3-6.9,3.4-11.5,3.4c-3.7,0-7-0.8-10-2.5c-2.9-1.7-5.2-4-6.9-7.1c-1.7-3-2.5-6.6-2.5-10.6
				s0.8-7.5,2.4-10.6c1.6-3,3.9-5.4,6.8-7c2.9-1.6,6.3-2.5,10.1-2.5c3.7,0,6.9,0.8,9.8,2.4c2.9,1.6,5.1,3.8,6.7,6.7
				c1.6,2.9,2.4,6.2,2.4,10C748.7,361.7,748.6,363.1,748.4,364.2z M740.3,357.7c0-3-1.1-5.3-3.2-7.1c-2.1-1.8-4.6-2.7-7.7-2.7
				c-2.8,0-5.2,0.9-7.1,2.6c-2,1.8-3.2,4.2-3.5,7.2H740.3z"/>
		</g>
		<g>
			<path class="st2" d="M784.3,343.1c2.4,1.3,4.3,3.2,5.7,5.6c1.4,2.5,2,5.5,2,9v22.9h-8v-21.7c0-3.5-0.9-6.2-2.6-8
				c-1.7-1.9-4.1-2.8-7.1-2.8s-5.4,0.9-7.2,2.8s-2.6,4.5-2.6,8v21.7h-8v-38.9h8v4.4c1.3-1.6,3-2.8,5-3.7c2-0.9,4.2-1.3,6.5-1.3
				C779.1,341.2,781.8,341.8,784.3,343.1z"/>
		</g>
	</g>
	<rect x="276" y="370.7" class="st3" width="27.6" height="27.6"/>
	<rect x="303.6" y="315.6" class="st2" width="27.6" height="27.6"/>
	<rect x="303.6" y="370.7" class="st4" width="27.6" height="27.6"/>
	<rect x="331.2" y="343.1" class="st5" width="27.6" height="27.6"/>
	<rect x="276" y="315.6" class="st6" width="27.6" height="55.2"/>
</g>
<g>
	<path class="st2" d="M543.2,217v23.8H567v18.4h-23.8V283h-18.4v-23.8H501v-18.4h23.8V217H543.2 M544.2,216h-1h-18.4h-1v1v22.8H501
		h-1v1v18.4v1h1h22.8V283v1h1h18.4h1v-1v-22.8H567h1v-1v-18.4v-1h-1h-22.8V217V216L544.2,216z"/>
</g>
<polygon class="st7" points="923.3,30.2 923.3,16.5 912.7,16.5 912.7,30.2 899,30.2 899,40.8 912.7,40.8 912.7,54.5 923.3,54.5 
	923.3,40.8 937,40.8 937,30.2 "/>
<polygon class="st7" points="942.3,100.2 942.3,86.5 931.7,86.5 931.7,100.2 918,100.2 918,110.8 931.7,110.8 931.7,124.5 
	942.3,124.5 942.3,110.8 956,110.8 956,100.2 "/>
<polygon class="st7" points="1003.6,52.4 1003.6,33.5 988.9,33.5 988.9,52.4 970,52.4 970,67.1 988.9,67.1 988.9,86 1003.6,86 
	1003.6,67.1 1022.5,67.1 1022.5,52.4 "/>
</svg>
