<?xml version="1.0" encoding="utf-8"?>
<!-- Generator: Adobe Illustrator 26.1.0, SVG Export Plug-In . SVG Version: 6.00 Build 0)  -->
<svg version="1.1" id="Layer_1" xmlns="http://www.w3.org/2000/svg" xmlns:xlink="http://www.w3.org/1999/xlink" x="0px" y="0px"
	 viewBox="0 0 1068 500" style="enable-background:new 0 0 1068 500;" xml:space="preserve">
<style type="text/css">
	.st0{fill:#0F1D39;}
	.st1{fill:none;stroke:#345D75;stroke-width:2;stroke-miterlimit:10;stroke-dasharray:4,6;}
	.st2{fill:#FFFFFF;}
	.st3{fill:#FAD45B;}
	.st4{fill:#9ECD6F;}
	.st5{fill:#EE5E82;}
	.st6{fill:#65C4D8;}
	.st7{fill:none;stroke:#345D75;stroke-width:2;stroke-miterlimit:10;}
</style>
<path class="st0" d="M1048,500H20c-11,0-20-9-20-20V20C0,9,9,0,20,0h1028c11,0,20,9,20,20v460C1068,491,1059,500,1048,500z"/>
<path class="st1" d="M808.9-21.9c-86,0.1-155.6,70-155.5,156s70,155.6,156,155.5c85.9-0.1,155.5-69.8,155.5-155.8
	C964.7,47.8,894.9-21.9,808.9-21.9z"/>
<path class="st1" d="M143.7,74.4c0-33.7-27.3-61.1-61-61.1s-61.1,27.3-61.1,61s27.3,61.1,61,61.1c0,0,0,0,0.1,0
	C116.2,135.4,143.7,108.1,143.7,74.4z"/>
<path class="st1" d="M1050.2,186.5c0-16.9-13.6-30.5-30.5-30.6c-16.9,0-30.5,13.6-30.6,30.5c0,16.9,13.6,30.5,30.5,30.6l0,0
	C1036.5,217,1050.2,203.3,1050.2,186.5z"/>
<path class="st1" d="M198,438.5c0-11-8.9-19.9-19.8-19.9c-11,0-19.9,8.9-19.9,19.8c0,10.9,8.9,19.9,19.8,19.9c0,0,0,0,0.1,0
	C189.1,458.3,198,449.4,198,438.5L198,438.5z"/>
<rect x="56.4" y="174" class="st1" width="141.6" height="141.6"/>
<rect x="-85.2" y="315.6" class="st1" width="141.6" height="141.6"/>
<g>
	<g>
		<g>
			<path class="st2" d="M424,334.6c3.9,2,7,4.9,9.1,8.6s3.2,8.1,3.2,13.1s-1.1,9.3-3.2,13s-5.2,6.5-9.1,8.4c-3.9,2-8.5,2.9-13.7,2.9
				h-16v-49.1h16C415.5,331.6,420.1,332.6,424,334.6z M423.5,369.5c3.1-3.1,4.6-7.5,4.6-13.1c0-5.7-1.5-10.1-4.6-13.3
				c-3.1-3.2-7.5-4.8-13.2-4.8h-8v35.9h8C416,374.1,420.4,372.6,423.5,369.5z"/>
		</g>
		<g>
			<path class="st2" d="M480.1,364.2h-29.7c0.2,3.1,1.4,5.6,3.5,7.5s4.6,2.8,7.6,2.8c4.3,0,7.4-1.8,9.2-5.4h8.7
				c-1.2,3.6-3.3,6.5-6.4,8.8s-6.9,3.4-11.5,3.4c-3.7,0-7-0.8-10-2.5c-2.9-1.7-5.2-4-6.9-7.1c-1.7-3-2.5-6.6-2.5-10.6
				s0.8-7.5,2.4-10.6c1.6-3,3.9-5.4,6.8-7s6.3-2.5,10.1-2.5c3.7,0,6.9,0.8,9.8,2.4s5.1,3.8,6.7,6.7c1.6,2.9,2.4,6.2,2.4,10
				C480.4,361.7,480.3,363.1,480.1,364.2z M472,357.7c0-3-1.1-5.3-3.2-7.1c-2.1-1.8-4.6-2.7-7.7-2.7c-2.8,0-5.2,0.9-7.1,2.6
				c-2,1.8-3.2,4.2-3.5,7.2H472z"/>
		</g>
		<g>
			<path class="st2" d="M524.3,364.2h-29.7c0.2,3.1,1.4,5.6,3.5,7.5s4.6,2.8,7.6,2.8c4.3,0,7.4-1.8,9.2-5.4h8.7
				c-1.2,3.6-3.3,6.5-6.4,8.8c-3.1,2.3-6.9,3.4-11.5,3.4c-3.7,0-7-0.8-10-2.5c-2.9-1.7-5.2-4-6.9-7.1c-1.7-3-2.5-6.6-2.5-10.6
				s0.8-7.5,2.4-10.6c1.6-3,3.9-5.4,6.8-7s6.3-2.5,10.1-2.5c3.7,0,6.9,0.8,9.8,2.4s5.1,3.8,6.7,6.7c1.6,2.9,2.4,6.2,2.4,10
				C524.6,361.7,524.5,363.1,524.3,364.2z M516.2,357.7c0-3-1.1-5.3-3.2-7.1c-2.1-1.8-4.6-2.7-7.7-2.7c-2.8,0-5.2,0.9-7.1,2.6
				c-2,1.8-3.2,4.2-3.5,7.2H516.2z"/>
		</g>
		<g>
			<path class="st2" d="M545.5,343c2.4-1.2,5-1.8,8-1.8c3.4,0,6.5,0.8,9.3,2.5s5,4,6.6,7s2.4,6.5,2.4,10.4s-0.8,7.4-2.4,10.5
				c-1.6,3.1-3.8,5.5-6.6,7.2s-5.9,2.6-9.3,2.6c-3,0-5.6-0.6-7.9-1.8c-2.3-1.2-4.2-2.7-5.6-4.5v24.1h-8v-57.4h8v5.7
				C541.3,345.7,543.1,344.2,545.5,343z M561.9,354.1c-1.1-2-2.6-3.4-4.4-4.4c-1.8-1-3.8-1.5-5.8-1.5s-3.9,0.5-5.8,1.6
				c-1.8,1-3.3,2.5-4.4,4.5c-1.1,2-1.7,4.3-1.7,7s0.6,5,1.7,7c1.1,2,2.6,3.5,4.4,4.6c1.8,1,3.7,1.6,5.8,1.6s4-0.5,5.8-1.6
				s3.3-2.6,4.4-4.6c1.1-2,1.7-4.4,1.7-7.1C563.6,358.4,563,356.1,561.9,354.1z"/>
		</g>
		<g>
			<path class="st2" d="M607.2,343.1c2.3,1.3,4.2,3.2,5.5,5.6c1.3,2.5,2,5.5,2,9v22.9h-8v-21.7c0-3.5-0.9-6.2-2.6-8
				c-1.7-1.9-4.1-2.8-7.1-2.8s-5.4,0.9-7.2,2.8s-2.6,4.5-2.6,8v21.7h-8v-52.2h8v17.9c1.4-1.6,3.1-2.9,5.2-3.8
				c2.1-0.9,4.4-1.3,6.9-1.3C602.2,341.2,604.9,341.8,607.2,343.1z"/>
		</g>
		<g>
			<path class="st2" d="M623.9,350.7c1.6-3,3.8-5.4,6.6-7c2.8-1.7,5.9-2.5,9.3-2.5c3.1,0,5.7,0.6,8,1.8c2.3,1.2,4.1,2.7,5.5,4.5
				v-5.6h8.1v38.9h-8.1V375c-1.4,1.8-3.2,3.4-5.6,4.6c-2.4,1.2-5,1.8-8,1.8c-3.3,0-6.4-0.9-9.2-2.6s-5-4.1-6.6-7.2
				s-2.4-6.6-2.4-10.5C621.4,357.2,622.2,353.7,623.9,350.7z M651.6,354.2c-1.1-2-2.6-3.5-4.3-4.5c-1.8-1-3.7-1.6-5.8-1.6
				s-4,0.5-5.8,1.5s-3.2,2.5-4.3,4.4c-1.1,2-1.7,4.3-1.7,7s0.6,5,1.7,7.1c1.1,2,2.6,3.6,4.4,4.6c1.8,1.1,3.7,1.6,5.8,1.6
				s4-0.5,5.8-1.6c1.8-1,3.2-2.6,4.3-4.6s1.7-4.3,1.7-7C653.3,358.5,652.7,356.2,651.6,354.2z"/>
		</g>
		<g>
			<path class="st2" d="M687.6,373.5l11-31.7h8.5l-14.8,38.9h-9.6L668,341.8h8.6L687.6,373.5z"/>
		</g>
		<g>
			<path class="st2" d="M748.4,364.2h-29.7c0.2,3.1,1.4,5.6,3.5,7.5s4.6,2.8,7.6,2.8c4.3,0,7.4-1.8,9.2-5.4h8.7
				c-1.2,3.6-3.3,6.5-6.4,8.8c-3.1,2.3-6.9,3.4-11.5,3.4c-3.7,0-7-0.8-10-2.5c-2.9-1.7-5.2-4-6.9-7.1c-1.7-3-2.5-6.6-2.5-10.6
				s0.8-7.5,2.4-10.6c1.6-3,3.9-5.4,6.8-7c2.9-1.6,6.3-2.5,10.1-2.5c3.7,0,6.9,0.8,9.8,2.4c2.9,1.6,5.1,3.8,6.7,6.7
				c1.6,2.9,2.4,6.2,2.4,10C748.7,361.7,748.6,363.1,748.4,364.2z M740.3,357.7c0-3-1.1-5.3-3.2-7.1c-2.1-1.8-4.6-2.7-7.7-2.7
				c-2.8,0-5.2,0.9-7.1,2.6c-2,1.8-3.2,4.2-3.5,7.2H740.3z"/>
		</g>
		<g>
			<path class="st2" d="M784.3,343.1c2.4,1.3,4.3,3.2,5.7,5.6c1.4,2.5,2,5.5,2,9v22.9h-8v-21.7c0-3.5-0.9-6.2-2.6-8
				c-1.7-1.9-4.1-2.8-7.1-2.8s-5.4,0.9-7.2,2.8s-2.6,4.5-2.6,8v21.7h-8v-38.9h8v4.4c1.3-1.6,3-2.8,5-3.7c2-0.9,4.2-1.3,6.5-1.3
				C779.1,341.2,781.8,341.8,784.3,343.1z"/>
		</g>
	</g>
	<rect x="276" y="370.7" class="st3" width="27.6" height="27.6"/>
	<rect x="303.6" y="315.6" class="st2" width="27.6" height="27.6"/>
	<rect x="303.6" y="370.7" class="st4" width="27.6" height="27.6"/>
	<rect x="331.2" y="343.1" class="st5" width="27.6" height="27.6"/>
	<rect x="276" y="315.6" class="st6" width="27.6" height="55.2"/>
</g>
<g>
	<path class="st2" d="M543.2,217v23.8H567v18.4h-23.8V283h-18.4v-23.8H501v-18.4h23.8V217H543.2 M544.2,216h-1h-18.4h-1v1v22.8H501
		h-1v1v18.4v1h1h22.8V283v1h1h18.4h1v-1v-22.8H567h1v-1v-18.4v-1h-1h-22.8V217V216L544.2,216z"/>
</g>
<polygon class="st7" points="994.4,420.2 994.4,406.5 983.8,406.5 983.8,420.2 970.1,420.2 970.1,430.8 983.8,430.8 983.8,444.5 
	994.4,444.5 994.4,430.8 1008.1,430.8 1008.1,420.2 "/>
<polygon class="st7" points="975.8,337.9 975.8,324.2 965.2,324.2 965.2,337.9 951.5,337.9 951.5,348.5 965.2,348.5 965.2,362.2 
	975.8,362.2 975.8,348.5 989.5,348.5 989.5,337.9 "/>
<polygon class="st7" points="932.6,391.9 932.6,373 917.9,373 917.9,391.9 899,391.9 899,406.6 917.9,406.6 917.9,425.5 
	932.6,425.5 932.6,406.6 951.5,406.6 951.5,391.9 "/>
<g>
	<path class="st2" d="M469.7,157.1c-5.6,0-11.2-2.3-14.8-6.9v24.6h-11.2v-60.7h10.1l0.4,6.7c3.5-5.1,9.6-7.8,15.5-7.8
		c11.2,0,19.5,9.5,19.5,22.1C489.3,147.6,481,157.1,469.7,157.1z M466.3,121.2c-6.5,0-11.8,5.1-11.8,13.7c0,8.6,5.3,13.8,11.8,13.8
		c6.5,0,11.8-5.1,11.8-13.7C478.1,126.4,472.8,121.2,466.3,121.2L466.3,121.2z"/>
	<path class="st2" d="M531.3,155.9l-0.4-6.7c-3.5,5.1-9.6,7.8-15.5,7.8c-11.2,0-19.5-9.5-19.5-22.1c0-12.6,8.3-22.1,19.5-22.1
		c5.9,0,12,2.7,15.5,7.8l0.4-6.7h10.1v41.8H531.3z M518.9,121.3c-6.5,0-11.8,5.1-11.8,13.7c0,8.6,5.3,13.8,11.8,13.8
		s11.8-5.1,11.8-13.7C530.7,126.4,525.5,121.3,518.9,121.3z"/>
	<path class="st2" d="M580.4,155.9v-23.1c0-8.1-2.8-10.8-7.9-10.8c-5.3,0-11.1,4.8-11.1,10.6v23.3h-11.2v-41.8h10.2l0.5,7.7
		c2.8-5.3,9-8.9,15.4-8.9c11.1,0,15.2,7.7,15.2,18.1v24.9L580.4,155.9z"/>
	<path class="st2" d="M632.5,155.9l-0.4-6.7c-3.5,5.1-9.6,7.8-15.5,7.8c-11.2,0-19.5-9.5-19.5-22.1c0-12.6,8.3-22.1,19.5-22.1
		c5.6,0,11.2,2.3,14.8,6.9v-22h11.2v58.1H632.5z M620.1,121.3c-6.5,0-11.8,5.1-11.8,13.7c0,8.6,5.3,13.7,11.8,13.7
		c6.5,0,11.8-5.1,11.8-13.7C631.9,126.4,626.6,121.3,620.1,121.3z"/>
	<path class="st2" d="M684.4,155.9l-0.4-6.7c-3.5,5.1-9.6,7.8-15.5,7.8c-11.2,0-19.5-9.5-19.5-22.1s8.3-22.1,19.5-22.1
		c5.9,0,12,2.7,15.5,7.8l0.4-6.7h10.1v41.8L684.4,155.9z M672,121.3c-6.5,0-11.8,5.1-11.8,13.7c0,8.6,5.3,13.7,11.8,13.7
		c6.5,0,11.8-5.1,11.8-13.7C683.9,126.4,678.6,121.3,672,121.3L672,121.3z"/>
	<path class="st2" d="M719.2,157.3c-5.9,0-11.6-1.7-16.6-4.7l1.8-7.7c3.4,2,8.5,4.6,14.6,4.6c4.4,0,7.5-1.4,7.5-4.8
		c0-3-3.2-4.1-8.8-5.4c-10.2-2.2-13.8-7.6-13.8-13.6c0-6.6,5.1-12.8,16.3-12.8c6.8,0,12.8,3,14.1,3.8l-1.8,7.4
		c-3.6-2.2-7.8-3.4-12-3.5c-4.5,0-6.7,1.5-6.7,4.1c0,2.8,2.9,4.1,7.3,5.1c11,2.3,15.4,7.5,15.4,13.1
		C736.4,151.8,729.9,157.3,719.2,157.3z"/>
	<path class="st2" d="M365.6,85.6h-13.1v27.3h13.1V85.6z"/>
	<path class="st2" d="M365.6,141.7h-13.1v27.3h13.1V141.7z"/>
	<path class="st2" d="M365.6,120.9h-13.1v12.9h13.1V120.9z"/>
	<path class="st2" d="M344.6,108.1h-13.1v90.8h13.1V108.1z"/>
	<path class="st2" d="M386.2,164.3h-13.1v27.3h13.1V164.3z"/>
	<path class="st2" d="M386.2,108.1h-13.1v27.3h13.1V108.1z"/>
	<path class="st2" d="M386.2,143.4h-13.1v12.9h13.1V143.4z"/>
	<path class="st2" d="M406.8,78.5h-13.1v90.8h13.1V78.5z"/>
</g>
</svg>
