<svg xmlns="http://www.w3.org/2000/svg" viewBox="0 0 350 170"><defs><style>.a{fill:#231f20;}.b,.c{fill:none;stroke:#231f20;stroke-linecap:round;stroke-linejoin:round;stroke-width:2px;}.c{stroke-dasharray:4 6;}</style></defs><path class="a" d="M228.42,52.83A149.93,149.93,0,0,0,214.1,74.89L183,66C203.81,47.24,222.1,50.75,228.42,52.83Z"/><rect class="a" x="230.51" y="86.28" width="13.85" height="49.83" rx="2.03" transform="translate(-9.12 200.34) rotate(-44.97)"/><path class="a" d="M283.84,165.48,275,134.56a149.63,149.63,0,0,0,22-14.29C299.07,126.85,302.14,145.08,283.84,165.48Z"/><path class="a" d="M339.13,9.39c-12.39-1-80.63-3.09-118.47,68L271.18,128c40.45-21.57,56.74-52.84,63.28-75.41A123.73,123.73,0,0,0,339.13,9.39Zm-22.69,51.3h0a20.21,20.21,0,1,1,0-28.58A20.06,20.06,0,0,1,316.44,60.69Z"/><path class="b" d="M157.41,194.79l69.28-69.28"/><path class="c" d="M76.55-80.63A60.86,60.86,0,0,0,15.72-19.88,60.86,60.86,0,0,0,76.55,40.87a60.86,60.86,0,0,0,60.83-60.75A60.86,60.86,0,0,0,76.55-80.63Z"/><path class="c" d="M360.5,160.93a23.82,23.82,0,1,0-23.82,23.79A23.83,23.83,0,0,0,360.5,160.93Z"/><path class="c" d="M175,101.72a23.82,23.82,0,1,0-23.82,23.79A23.84,23.84,0,0,0,175,101.72Z"/><path class="b" d="M163.53,161.4l29.91-29.92"/><path class="b" d="M203.35,177.41l29.92-29.92"/><rect class="c" x="68.67" y="132.48" width="42.67" height="42.67" transform="translate(243.81 63.81) rotate(90)"/><rect class="c" x="24.01" y="87.82" width="42.67" height="42.67" transform="translate(154.5 63.81) rotate(90)"/></svg>