<?xml version="1.0" encoding="utf-8"?>
<!-- Generator: Adobe Illustrator 26.1.0, SVG Export Plug-In . SVG Version: 6.00 Build 0)  -->
<svg version="1.1" id="Layer_1" xmlns="http://www.w3.org/2000/svg" xmlns:xlink="http://www.w3.org/1999/xlink" x="0px" y="0px"
	 viewBox="0 0 350 170" style="enable-background:new 0 0 350 170;" xml:space="preserve">
<style type="text/css">
	.st0{fill:none;stroke:#231F20;stroke-width:2;stroke-linecap:round;stroke-linejoin:round;stroke-dasharray:4,6;}
</style>
<path class="st0" d="M302.2,131.5c-33.6,0-60.7,27.3-60.7,60.8c0,33.6,27.3,60.7,60.8,60.7c33.5,0,60.7-27.2,60.7-60.7
	C362.9,158.7,335.7,131.6,302.2,131.5z"/>
<path class="st0" d="M122.5,25.6c0-13.2-10.6-23.8-23.8-23.8c-13.2,0-23.8,10.6-23.8,23.8c0,13.2,10.6,23.8,23.8,23.8c0,0,0,0,0,0
	C111.9,49.4,122.5,38.8,122.5,25.6z"/>
<path class="st0" d="M171.3,142.1c0-6.6-5.3-11.9-11.9-11.9s-11.9,5.3-11.9,11.9c0,6.6,5.3,11.9,11.9,11.9c0,0,0,0,0,0
	C166,154,171.3,148.6,171.3,142.1z"/>
<path class="st0" d="M103.3,97.1c0-4.3-3.5-7.7-7.7-7.7c-4.3,0-7.7,3.5-7.7,7.7s3.5,7.7,7.7,7.7c0,0,0,0,0,0
	C99.8,104.9,103.3,101.4,103.3,97.1C103.3,97.1,103.3,97.1,103.3,97.1z"/>
<rect x="62.4" y="137.1" class="st0" width="55.2" height="55.2"/>
<rect x="7.2" y="81.8" class="st0" width="55.2" height="55.2"/>
<g>
	<g>
		<path d="M200.8,81.8c0,7.1-5.8,12.9-12.9,12.9c-7.1,0-12.9-5.8-12.9-12.9c0-7.1,5.8-12.9,12.9-12.9h12.9V81.8z"/>
		<path d="M207.3,81.8c0-7.1,5.8-12.9,12.9-12.9c7.1,0,12.9,5.8,12.9,12.9v32.3c0,7.1-5.8,12.9-12.9,12.9s-12.9-5.8-12.9-12.9
			C207.3,114.1,207.3,81.8,207.3,81.8z"/>
	</g>
	<g>
		<path d="M220.2,30c-7.1,0-12.9-5.8-12.9-12.9s5.8-12.9,12.9-12.9c7.1,0,12.9,5.8,12.9,12.9V30H220.2z"/>
		<path d="M220.2,36.5c7.1,0,12.9,5.8,12.9,12.9s-5.8,12.9-12.9,12.9h-32.3c-7.1,0-12.9-5.8-12.9-12.9s5.8-12.9,12.9-12.9
			C187.9,36.5,220.2,36.5,220.2,36.5z"/>
	</g>
	<g>
		<path d="M272,49.4c0-7.1,5.8-12.9,12.9-12.9c7.1,0,12.9,5.8,12.9,12.9s-5.8,12.9-12.9,12.9H272V49.4z"/>
		<path d="M265.5,49.4c0,7.1-5.8,12.9-12.9,12.9s-12.9-5.8-12.9-12.9V17.1c0-7.1,5.8-12.9,12.9-12.9c7.1,0,12.9,5.8,12.9,12.9V49.4z
			"/>
	</g>
	<g>
		<path d="M252.6,101.2c7.1,0,12.9,5.8,12.9,12.9c0,7.1-5.8,12.9-12.9,12.9c-7.1,0-12.9-5.8-12.9-12.9v-12.9H252.6z"/>
		<path d="M252.6,94.7c-7.1,0-12.9-5.8-12.9-12.9c0-7.1,5.8-12.9,12.9-12.9h32.3c7.1,0,12.9,5.8,12.9,12.9c0,7.1-5.8,12.9-12.9,12.9
			H252.6z"/>
	</g>
</g>
</svg>
