<?xml version="1.0" encoding="UTF-8"?><svg xmlns="http://www.w3.org/2000/svg" xmlns:xlink="http://www.w3.org/1999/xlink" viewBox="0 0 1068 500"><defs><style>.d{fill:#24405a;}.e,.f{stroke:#76d9e4;stroke-linejoin:round;stroke-width:2px;}.e,.f,.g{fill:none;}.f{stroke-linecap:round;}.h{clip-path:url(#b);}.i{fill:#0f1d39;}.j{fill:#0d1b37;}.k{fill:#76d9e4;}.l{fill:#467e92;}</style><clipPath id="b"><path class="g" d="M1048,500H20c-11,0-20-9-20-20V20C0,9,9,0,20,0H1048c11,0,20,9,20,20V480c0,11-9,20-20,20Z"/></clipPath></defs><g id="a"><path class="i" d="M1048,500H20c-11,0-20-9-20-20V20C0,9,9,0,20,0H1048c11,0,20,9,20,20V480c0,11-9,20-20,20Z"/><g class="h"><g><path class="j" d="M135.05,260.22c-2.94-3.93-6.26-7.15-10.17-10.12-2.96-2.25-6.66,.35-7.73,3.14-.61,1.6-1,3.24-1.24,4.91-18.86,11.24-37.58,22.57-57.17,32.55-1.05,.53-1.75,1.25-2.17,2.04-8.76-5.21-17.41-10.58-26.07-15.97-10.9-6.78-21.98-13.99-34.04-18.47-.43-.16-.65,.41-.41,.7,8.32,10.02,19.43,17.78,30.24,24.96,11.03,7.33,22.45,14.13,33.89,20.79,1.8,1.05,3.67,.53,5.18-.67,4.76-3.78,10.25-6.85,15.57-9.76,5.59-3.06,11.18-6.06,16.91-8.86,3.18-1.55,6.36-3.12,9.53-4.69-.3,2.11-.26,4.13,.38,6.34,.85,2.93,2.15,5.77,3.79,8.34,3.43,5.36,8.66,9.21,14.48,11.61,3.24,1.34,4.69-3.97,1.45-5.28-9.54-3.85-14.76-12.78-18.24-21.94l23.77-11.86c2.53-1.26,3.79-5.43,2.04-7.77Z"/><path class="j" d="M207.36,112.72c-1.24,.23-2.14,1.38-2.5,2.5-.86,2.67-1.02,5.95-2.38,8.17-1.27,2.06-3.8,3.37-6.35,3.76-3.45,.52-6.67-.47-9.93-1.43-2.32-.68-7.31-2.8-8.58,.54-1.76,4.65,6.17,9.34,9.45,10.75,5.33,2.29,11.42,3.02,16.97,.99,5.53-2.03,10.34-6.62,11.71-12.51,1.24-5.35-1.49-14.05-8.39-12.77Z"/><path class="j" d="M157.54,86.33c-.09-.15-.18-.3-.28-.44-.13-2.14-2.16-3.67-3.52-5.18-1.51-1.68-2.99-3.77-4.96-4.93-.69-.41-1.7,.2-1.59,1-.02,.05-.04,.11-.04,.16-.05,.62,0,1.24,.14,1.86-.95,.63-1.69,1.67-1.86,2.93-.25,1.91-.66,3.92-.74,5.87-3.04-1.59-6-3.32-9.04-4.92-3.21-1.69-6.16-3.83-9.37-5.49-2.94-1.51-6.48-3.65-9.76-4.18-.7-.11-1.34,.55-.95,1.24,1.07,1.9,2.93,3.41,4.46,4.94,1.53,1.52,3.06,3,4.77,4.33,3.58,2.79,6.87,5.91,10.42,8.73,3.18,2.53,7.69,6.2,11.97,6.01,2.27-.1,3.97-1.45,5.3-3.16,1.32-1.7,2.88-3.15,4.55-4.52,.71-.59,1.02-1.32,1.07-2.07,.37-.74,.11-1.63-.55-2.16Z"/><path class="j" d="M576.89,488c-3.14-2.79-9.51-1.34-9.52,3.4-.48-.18-1-.23-1.49-.07-1.39,.27-2.74,1.5-3.9,2.23-1.77,1.11-3.56,2.21-5.35,3.29-3.44,2.07-6.94,4.04-10.41,6.05-3.47,2.01-6.96,4-10.4,6.05-2.87,1.72-6.98,3.39-8.83,6.27-.31,.49,.11,1,.61,1.06,3.35,.36,7.27-1.94,10.28-3.22,3.62-1.54,7.18-3.32,10.67-5.14,3.4-1.77,6.72-3.73,10.02-5.68,.99-.58,1.97-1.18,2.95-1.77-2.63,2.06-5.46,3.9-8.27,5.7-3.31,2.13-6.74,4.04-10.28,5.78-3.72,1.83-7.9,2.99-10.96,5.86-.27,.26-.48,.57-.62,.92-.03,0-.05,.01-.08,.01-5.38,.8-10.53-1.04-15.37-3.54-.09-.86-.64-1.65-1.54-1.87-.72-.18-1.42-.2-2.1-.13-1.38-.8-2.74-1.61-4.06-2.38-5.38-3.14-10.7-6.57-16.25-9.47-.16-1.02-.99-1.86-2.18-1.89-.49-.01-.96,.03-1.4,.11-1.06-.49-2.13-.96-3.21-1.4-1.16-.47-1.71,1.12-1.09,1.88,.29,.35,.58,.69,.87,1.03-.51,.32-1.02,.67-1.55,1.03-1.87,1.24-3.91,2.53-5.37,4.24-.67,.79-.21,1.89,.82,1.98,2.36,.2,4.84-.54,7.04-1.36,1.21-.45,2.37-.89,3.38-1.52,1.44,1.3,2.93,2.54,4.45,3.76-.28,.23-.55,.45-.8,.64-1.78,1.37-3.93,2.44-5.3,4.24-.43,.57-.14,1.69,.52,1.97,2.86,1.22,7.96-.07,10.87-2.69,1.8,1.39,3.61,2.77,5.47,4.07-1.79,1.36-3.6,3.01-3.64,5.32,0,.32,.19,.7,.49,.85,2.59,1.23,5.4-.3,7.75-1.46,.5-.25,1.02-.5,1.54-.78,3.91,2.26,8.06,4.25,12.4,5.52,5.31,1.55,10.49,3.1,16.09,2.17,10.12-1.69,19.54-8.76,27.6-14.73,4.36-3.23,9.73-6.59,12.43-11.45,2.73-4.93,2.04-11.05-2.25-14.87Z"/><path class="j" d="M550.44,463.97c-.24-.73-1.11-1.44-1.93-1.1-1.29,.54-2.28,1.48-3.25,2.48-1.11,1.14-2.31,2.23-2.87,3.75-.73,1.97,1.44,3.67,3.24,3.24,1.76-.43,3.11-2.11,3.99-3.62,.78-1.34,1.32-3.24,.82-4.74Z"/><path class="j" d="M562.65,470.17c-.14-.68-.86-.93-1.47-.83-1.1,.18-1.91,.8-2.8,1.46-.86,.63-1.78,1.31-2.6,1.99-1.39,1.17-3.87,3.74-1.66,5.39,2.03,1.51,4.84-.59,6.14-2.15,1.36-1.64,2.85-3.62,2.39-5.85Z"/><path class="j" d="M574.14,477.45c-1.6,.45-3.06,1.49-4.4,2.46-1.56,1.14-3.44,2.32-3.39,4.48,.03,1.15,.93,2.03,2.07,2.07,2.14,.07,3.33-1.79,4.47-3.31,1-1.34,2.07-2.79,2.55-4.41,.23-.77-.53-1.51-1.29-1.29Z"/><path class="j" d="M72.71,425.11c-.57,.7-1.16,1.38-1.74,2.07-2.43,2.31-5.7,3.22-8.78,4.71-2.99,1.45-5.76,2.83-9.14,3.06-2.06,.14-4.1-.09-6.16-.17-1.82-.08-3.57,0-5.32-.6-3.12-1.08-4.52-4.07-6.5-6.38-.45-.52-1.38-.61-1.95-.25-.11,.07-.22,.14-.32,.22-.13-.16-.34-.23-.56-.1-4.02,2.2-5.89,7.54-3.95,11.68,2.21,4.71,7.59,7.55,12.2,9.38,4.93,1.95,10.62,2.31,15.84,1.65,4.13-.52,13-1.76,13.33-7.01,.05-.8-.39-1.6-1.01-2.11,1.52-1.73,2.72-3.79,3.42-5.94,.66-2.01,1.24-3.98,2.26-5.8l1.43-2.07-.04-.03c.9-1.86-1.52-4.11-2.99-2.32Z"/><path class="j" d="M219.63,464.03c-1.33-12.34-9.55-25.25-21.83-28.99-4.48-1.36-6.18,4.55-2.95,7,2.96,2.24,5.24,5.4,6.86,8.72,1.65,3.37,2.05,7.1,3.81,10.41,.21,.39,.48,.68,.78,.9-.01,.05-.02,.1-.03,.15-1.17,5.02-2.6,8.24-5.66,13.11-.31,.49-.64,.97-.96,1.46-.03,.05-.48,.68-.5,.72-.65,.83-1.36,1.61-2.07,2.37-.8,.85-1.64,1.67-2.5,2.46-.54,.49-1.1,.97-1.66,1.43-.12,.1-.2,.17-.26,.21l-.57,.41c-9.44,6.57-19.51,9.89-30.69,12.78-11.94,3.08-24.11,4.89-36.44,5.2-6.25,.16-12.64,.13-18.82-.91-2.93-.49-5.73-1.3-8.56-2.22-1.33-.44-2.61-.96-3.93-1.44-1.53-.56-3.31-.58-4.7-1.47-.18-.11-.32,.13-.21,.27,.9,1.16,1.14,2.44,1.93,3.59,.7,1.01,1.93,1.85,2.89,2.6,2.38,1.86,4.99,3.13,7.78,4.26,5.86,2.38,12.02,3.54,18.26,4.37,14.15,1.89,28.51,2.09,42.68,.23,14.49-1.9,28.94-5.65,40.65-14.8,9.95-7.78,18.12-19.72,16.71-32.83Z"/><path class="j" d="M355.17,502.22c-2.23-1.26-4.72-1.11-7.13-1.81-1.97-.57-3.73-1.68-5.72-2.15-1.46-.35-2.85,.68-2.89,2.2-.04,1.91,.7,3.82,1.92,5.51-1.18,1.03-2.06,2.38-2.37,3.98-.82,4.22-1.51,8.45-2.15,12.7-.13,.86-.49,2.09-.72,3.26l-1.65,.45c-7.98,2.19-16.22,3.98-24.05,6.64-3.99,1.36-8.01,2.97-11.86,4.69-1.68,.75-3.34,1.66-5.07,2.3-1.93,.72-2.94,.4-4.71-.51-3.5-1.79-6.92-3.72-10.43-5.49-3.92-1.97-8.09-3.37-12.02-5.34-.22-.11-.48,.18-.28,.36,3.64,3.18,6.81,6.83,10.48,9.96,3.38,2.88,6.76,6.34,10.61,8.58,4.09,2.37,8.37,2.06,12.91,1.76,4.93-.32,10.09-.82,14.94-1.76,9.38-1.81,18.89-4.02,28.13-6.44,5.86-1.53,8.41-5.57,9.54-11.2,.9-4.51,1.77-9.01,2.52-13.54,.51-1.07,.78-2.26,.67-3.54l-.05-.6c-.04-.5-.12-.98-.22-1.45,2.72-2.05,2.87-6.7-.41-8.55Z"/><path class="j" d="M331.43,444.62c-1.32-2.36-4.65-3.19-6.73-1.51,1.4-1.91,2.48-4.13,2.99-6.31,.88-3.77-.18-7.88-1.28-11.46-.55-1.79-3.51-1.56-3.39,.46,.17,2.85-.22,6.09-1.23,9.07-1.11,2.59-2.72,4.98-4.41,6.71-.79,.8-1.64,1.46-2.53,2.01-2.07,.93-4.44,1.13-6.7,1.06-2.7-.09-6.1-1.55-8.12,.8-.53,.61-.71,1.27-.6,1.96-2.01-.12-3.61,1.55-4.11,3.41-.68,2.48,.95,4.73,2.78,6.21,4.56,3.67,11.3,4.73,16.95,3.7,5.22-.96,11.61-4.23,15.01-8.39,1.68-2.05,2.78-5.21,1.38-7.71Zm-9.29,3.8c-1.05,.74-2.14,1.43-3.26,2.06-2.4,1.36-4.95,2.22-7.71,2.45-2.63,.21-5.11-.22-7.59-1.11-.65-.23-2.47-.64-2.68-1.45-.03-.11,.1-.33,.22-.58,1.73,1.05,4.39,1.18,6.65,1.11,4.94,.67,10.49-1.68,14.14-4.77,.57-.48,1.13-1.03,1.65-1.62-.55,1.03-.63,2.07-.37,2.99-.38,.32-.85,.77-1.06,.92Z"/><path class="j" d="M409.12,403.53c1.12-4.51-7.82-6.05-7.57-.45,.41,9.19,1.09,18.35,1.27,27.55,.09,4.39,.56,8.78,.61,13.17,.05,4.82-5.86,4.3-9.1,5.58-.41,.16-.51,.68-.12,.94,3.33,2.2,8.13,2.27,11.49,.05,4.2-2.78,3.95-8.08,4.26-12.56,.78-11.27,.29-23.02-.83-34.27Z"/><path class="j" d="M513.32,422.06c-3.23-2.64-8.74,.71-6.18,4.77,.01,.02,.02,.03,.03,.05-8.5,2.92-16.19,8.35-24.27,12.76-4.41,2.4-9.1,4.58-13.12,7.6-.68,.51-1.78,1.11-2.59,1.76-.46-.8-1.07-1.58-1.75-1.88-.37-.16-.69-.08-.94,.25-1.43,1.94-3.2,4.06-2.61,6.65,.79,3.44,4.32,4.43,7.4,4.05,3.73-.45,7.23-1.11,10.8-2.27,3.89-1.27,7.65-2.92,11.41-4.54,6.89-2.97,14.47-5.54,20.02-10.76,3.1-2.92,4.32-5.87,4.76-9.89,.35-3.16-.43-6.44-2.97-8.53Z"/><g><path class="j" d="M361.63,367.22c-.02,.08-.04,.17-.07,.3,.13-.52,.12-.48,.07-.3Z"/><path class="j" d="M366.55,344.54c-.72-3.15-1.64-7.03-3.44-9.73-2.19-3.3-6.4-2.35-7.81,1.02-1.02,2.45-1.09,5.61-1.31,8.24-.25,2.96,.01,5.79,.24,8.75,.05,.66-.07,1.63,.08,2.33-.03,.02-.05,.03-.08,.05-.42,.26-.92,.76-1.29,1.07-1.88,1.62-3.46,3.49-4.75,5.61-.96,1.57-1.88,3.18-2.91,4.71-.23,.34-.47,.73-.72,1.08-.08,.07-1.49,1.31-1.51,1.33-3.71,1.93-7.73,3.45-11.29,5.65-3.82,2.37-7.38,5.13-11.21,7.49-.11,.07-.63,.29-.74,.35-.26,.08-.52,.16-.79,.24-1.12,.3-1.75,.29-2.91,.28-2.95,0-5.74-.29-8.68,.1-5.02,.66-9.86,1.4-14.8,2.65-3.91,.99-8.2,2.18-12.2,1.02-2.22-.64-4.12-2.09-6.22-3.04-2.38-1.08-4.75-2.13-7.21-3-4.25-1.5-10.44-2.83-13.58,1.32-.67,.88,.05,2.27,1.02,2.51,2.21,.55,4.35,.42,6.45,1.44,2.33,1.12,3.95,2.89,5.66,4.78,3.6,3.97,8.02,7.04,13.38,8.08,5.39,1.04,10.71,.06,15.98-1.16,2.46-.57,4.93-1.26,7.44-1.58,2.47-.31,4.26,.42,6.66,1.04,5.95,1.53,11.95,2.36,17.87,.25,4.93-1.75,8.78-4.99,13.29-7.49,.29-.16,2.46-1.19,2.07-1.05,.86-.35,1.73-.68,2.59-1.02,2.58-1.04,5.22-2.06,7.51-3.66,2.9-2.03,5.02-4.43,6.39-7.69,1.19-2.82,1.39-5.63,1.73-8.65,.01-.12,.09-.44,.14-.62,.09-.46-.06-.19,.18-.56,.3-.46,1.33-1.16,2.03-1.86,2.58-2.56,4.01-5.84,3.97-9.5-.03-3.48-.5-7.39-1.26-10.77Z"/></g><path class="j" d="M364.52,332.44c-.78-3.67-2.79-7.28-5.22-10.13-.02-.32-.07-.64-.16-.97-1.29-4.38-6.86-5.94-10.84-4.64-1.28,.42-2.03,2.24-.86,3.25,.81,.69,1.18,1.3,1.77,2.17,.24,.35,.45,.72,.64,1.1,.05,.15,.28,.73,.33,.83,.29,.69,.7,1.29,1.28,1.78,1.51,1.29,3.77,1.88,5.57,.72,.06-.04,.12-.09,.18-.13,.15,1.2,.38,2.4,.67,3.64,.46,1.95,1.18,3.56,.85,5.58-.19,1.17,.3,2.1,1.43,2.52,3.63,1.35,4.93-3.03,4.36-5.71Z"/><path class="j" d="M311.95,337.49c-7.28-.72-14.6-.77-21.88-.05-3.62,.36-7.14,1.15-10.66,2.07-2.23,.58-6.72,1.17-6.66,4.31v.22c.04,1.66,1.08,2.78,2.56,3.35,2.78,1.07,5.52,.44,8.4,.21,3.18-.25,6.37-.5,9.56-.7,6.23-.38,12.47-.18,18.68,.49,2.66,.29,4.95-2.48,4.95-4.95,0-2.9-2.28-4.69-4.95-4.95Z"/><path class="j" d="M260.31,225.11c-6.36-12.8-23.89-3.58-32.7,.83-8.35,4.18-24.04,14.56-16.88,25.72,3.07,4.78,8.39,6.53,12.75,9.74,2.03,1.5,4.8,4,4.85,6.75,.06,3.26-4.43,5.12-6.73,6.57-12.17,7.65-24.42,15.13-36.96,22.15-7.01,3.93-14.16,7.63-21.48,10.96-3.26,1.48-6.63,3.01-10.16,3.77-1.69,.37-3.39,.49-5.11,.26-1.54-.21-3.07-.03-4.57-.54-.51-.17-1,.47-.71,.92,1.29,1.97,2.48,3.53,4.85,4.05,2.81,.62,5.72,.38,8.52-.17,6.11-1.2,12.02-4.37,17.61-7,13.01-6.12,25.41-13.35,37.61-20.93,5.92-3.68,12.1-7.19,17.75-11.26,4.67-3.36,6.62-8.57,3.62-13.82-2.84-4.96-7.94-7.2-12.51-10.18-1.99-1.3-4.33-2.96-5.21-5.28-1.26-3.33,1.53-6.51,3.71-8.72,4.89-4.96,11.36-8,17.68-10.71,5.2-2.24,15.44-7.49,19.04-.18,1.65,3.35,6.68,.41,5.02-2.93Z"/><path class="j" d="M338.57,235.52c-1.88-5.2-6.19-8.72-11.29-10.46-5.12-1.75-10.64,4.96-7.34,9.54,1.01,1.4,2.01,2.76,3.1,4.11,.11,.14,.2,.24,.27,.32-1.26,.85-2.6,1.61-3.89,2.4-6.11,3.71-12.12,7.63-18.51,10.85-5.69,2.87-12.03,2.11-17.83-.02-3.02-1.11-5.87-2.68-8.62-4.33-2.59-1.54-5.26-3.41-8.29-3.76-.48-.06-.84,.52-.71,.94,1.09,3.79,4.71,6.87,7.57,9.42,3.12,2.78,6.5,5.38,10.24,7.28,8.52,4.33,18.18,5.13,27.1,1.42,4.48-1.86,8.93-3.99,13.18-6.34,3.84-2.12,8.31-4.45,11.48-7.53,3.69-3.59,5.36-8.9,3.57-13.84Z"/><path class="j" d="M300.98,150.94c-1.19-3.91-4.77-6.71-8.61-7.75-4.94-1.33-9.92,.29-14.52,2.06-4.46,1.72-2.56,8.96,2,7.25,.37-.14,.75-.28,1.13-.43-.03,1.67,.97,3.56,1.71,4.93,.82,1.52,1.63,3.14,2.71,4.51-.32,.18-4.08,2.35-5.66,3.23-.09-1.67-.99-3.35-2.5-4.46-2.03-1.49-3.8-3.24-5.55-5.05-.27-.28-.56-.51-.84-.71,.17-.49,.37-.97,.62-1.45,1.13-2.17-1.11-4.28-3.25-3.25-1.4,.68-13.94,5.87-11.84,8.19-.18,0-.35,.02-.53,.04-.72,.1-1.19,.93-1.21,1.59-.08,2.8,2.69,5.77,5.27,8.17-.1,.25-.15,.55-.1,.88,.24,1.65,.63,3.36,1.37,4.89-.39,.15-.78,.31-1.18,.45-3.03-2.83-7.23-4.48-11-6.03-.19-.08-.36-.09-.51-.05-.45-2.12-.86-4.27-2.19-5.75-.3-.33-.91-.52-1.33-.35-6.25,2.48-3.49,13.04-.49,16.91,5.51,7.12,15.3,5.94,22.85,3.2,8.32-3.02,15.86-7.67,22.94-12.91,5.6-4.15,13.14-10.12,10.71-18.13Zm-15.22-.41c.01,.05,.02,.11,.04,.16,.03,.09,.06,.18,.09,.27-.19-.13-.38-.24-.58-.34,.15-.04,.3-.07,.45-.1Z"/><path class="j" d="M481.75,218.85c-2.21-1.52-5.27-3.1-8.03-3.1-3.57,0-5.2,3.87-3.43,6.69,.31,.49,.65,.95,.98,1.42-.8,.49-1.58,1.03-2.25,1.42-1.78,1.03-18.63,10.7-25.23,14.59-3.54,2.09-6.94,4.42-10.39,6.65-3.16,2.05-6.4,4.75-9.92,6.16-1.91,.77-3.99,.65-6.01,.24,.08-1.2-.34-2.44-1.48-3.5-3.81-3.54-7.25-7.43-10.64-11.36-1.11-1.29-6.46-7.95-8.48-5.16-2.03,2.8,.81,8.14,2.56,11.06-2.11-.27-4.4,.99-4.48,3.81-.06,2.2,.77,4.03,1.78,5.94,.23,.43,.34,1.15,.53,1.11-.39,.4-1.19,.77-1.54,1-4.29,2.86-8.78,5.72-13.36,8.08-4.28,2.21-7.7,1.73-11.76-.57-4.27-2.42-8.17-6.48-12.97-7.71-.75-.19-1.76,.39-1.66,1.26,.65,5.87,6.24,11.13,10.52,14.82,2.6,2.25,5.45,3.95,8.89,4.52,3.91,.64,7.67-.51,11.18-2.18,3.09-1.46,5.74-3.61,8.46-5.66,2.65-2,5.65-3.86,8.03-6.19,1.21-1.18,2.16-2.62,2.66-4.19,3.45,2.5,7.47,4.23,11.65,5.16,7.63,1.7,13.69-1.53,20.36-4.79,13.62-6.63,26.89-13.92,40.1-21.35,2.91-1.63,5.85-3.41,7.44-6.45,2.3-4.38,.31-9.08-3.52-11.72Z"/><path class="j" d="M446.6,112.89c-2.89-.4-5.29,1.59-4.65,4.65,.29,1.37,.79,2.63,1.51,3.83,.54,.91,.65,.63-.18,1.46-2.01,2-4.59,3.26-7.28,4.12-2.99,.96-6.01,1.32-9.14,1.3-3.13-.02-6.12-.86-9.23-1-.69-.03-.91,.81-.52,1.26,2.87,3.39,7.91,4.87,12.19,5.46,4.55,.63,9.24,.36,13.65-.94,4.4-1.29,9.06-3.74,10.43-8.48,1.41-4.9-1.45-10.93-6.78-11.67Z"/><path class="j" d="M576.98,381.84c-.1-4.72-1.85-9.97-6.95-11.25-.67-.17-1.34-.13-1.95,.06-.67-.39-1.41-.7-2.22-.89-.32-.07-.6,.33-.33,.57,.39,.36,.74,.74,1.05,1.15-1.61,1.38-2.22,3.87-.29,5.53,.94,.81,1.46,1.8,1.75,2.89,.14,1.06,.21,2.14,.26,3.2,.04,.85,.07,1.71,.05,2.57-1.06,2.23-3.05,3.71-5.96,4.55-.75,.22-1.13,.74-1.2,1.32-1.07,.19-2.13,.31-3.14,.37-1.49,.09-3.01,.09-4.5-.08-1.31-.15-2.69-.62-4.02-.52l.02,.02c-.93-.04-1.85,.26-2.53,1.01l-.03,.04c-1.94,2.16-1.03,5.19,1.62,6.15,.48,.17,.98,.32,1.48,.45,1.5,2.07,4.12,3.33,6.85,3.6,5.55,.55,11.49-2.35,15.48-6.09,4.04-3.78,4.68-9.42,4.56-14.66Z"/><path class="j" d="M691.07,401.74c-3.57-4.72-8.11-6.8-13.58-8.56-4.96-1.59-6.14,7.21-.94,6.94,3.93-.21,7.7,3.23,9.7,6.34,2.57,4.01,3.2,8.95,2.51,13.61-1.27,8.58-6.65,16.09-13.26,21.48-15.14,12.35-36.55,13.3-55.18,11.93-6.09-.45-12.16-.87-18.13-2.27-2.74-.64-5.45-1.42-8.13-2.27-3.04-.96-6.07-1.56-9.2-2.18-.2-.04-.29,.2-.13,.31,9.61,7.02,21.58,11.79,33.47,13.09,11.8,1.29,24.07,1.35,35.73-1.09,19.8-4.13,40.16-18.27,41.87-40.05,.48-6.09-1.02-12.39-4.73-17.29Z"/><path class="j" d="M656.17,372.41c-8.39,4.54-18.12,9.84-28.01,15.26,1.99,3.31,1.03,7.84,.61,11.44-.68,5.76-1.55,11.48-1.98,17.26,.38,.12,.76,.23,1.15,.33,2.29,.56,1.25,4.26-.97,3.51-.68-.23-1.33-.5-1.97-.79-.41,.03-.83-.12-1.16-.52-.03-.04-.06-.07-.1-.11-2.67-1.42-5.1-3.24-7.8-4.66-3.19-1.68-6.94-2.75-9.76-5.06-2.93-1.27-5.73-2.74-8.08-4.9-6.61,3.64-12.66,7-17.7,9.8l59.72,35.83,76.42-43.72-60.37-33.68Z"/><path class="j" d="M865.35,195.09c-11.36,3.06-21.88,8.57-32.26,13.97-10.99,5.72-21.63,11.97-32.09,18.6-21.67,13.73-43.79,26.8-66.17,39.33-6.18,3.46-12.58,6.82-18.47,10.76-3.12,2.09-6.13,4.33-9.17,6.53-2.96,2.15-5.54,4.43-8.29,6.83-1.45,1.27,.12,3.4,1.77,3.03,3.13-.69,6.11-1.25,9.15-2.29,2.11-.72,4.22-1.4,6.32-2.14,4.66,1.1,9.8,1.05,14.32,.68,6.66-.55,13.06-2.21,19.15-4.96,9.29-4.18,16.82-11.47,21.57-20.38,6.91-2.15,13.78-4.42,20.55-6.93,15.15-5.63,29.9-14.09,41.7-25.19,6.59-6.2,12.14-13.48,16.12-21.62,.34-.7,.46-1.42,.42-2.13,5.42-3.06,11.11-5.61,17.24-7.41,4.28-1.26,2.49-7.86-1.85-6.7Z"/><path class="j" d="M763.42,209.39c-1.84-2.66-6.63-1.94-6.49,1.76,.25,6.39-1.22,12.88-1.85,19.24-.3,3.11-.76,6.16-1.28,9.24-.48,2.83-1.81,6.11-1.47,8.97,.07,.58,.62,1,1.19,.68,2.56-1.45,4.27-4.89,5.69-7.37,1.69-2.96,2.94-6.21,4.04-9.43,.92-2.7,1.36-5.4,1.51-8.1,0,0,.02,0,.03,.01,.69,.28,1.52-.08,2.03-.54,3.97-3.58-1.15-11.22-3.39-14.46Z"/><path class="j" d="M915.33,328.93c.07-.54,.03-1.08-.11-1.57-.44-1.47-1.33-2.56-2.45-3.35-.16-.2-.34-.4-.52-.58-.01-2.29-.86-4.75-3.16-5.64-1.77-.68-3.73-.07-5.59,.8-.57-.19-1.18-.28-1.83-.24-2.6,.17-4.31,2.77-3.87,5.11-2.57-.74-4.74-2.37-6.92-3.9-3.07-2.16-6.23-4.24-9.46-6.17-2.64-1.58-6.15-3.67-9.3-3.76-.35-.01-.57,.33-.49,.65,.87,3.78,4.53,7.34,7.12,10.08,3.09,3.25,6.18,6.48,9.56,9.44,3.48,3.04,7.05,5.26,11.74,5.7,4.17,.39,8.43-.64,11.8-3.09,1.52,.09,2.99-.32,3.69-1.73,.31-.62,.2-1.29-.19-1.74Z"/><path class="j" d="M921.09,145.2c-2.68-.5-5.82,2.4-3.92,5.1,.62,.88,1.28,1.81,1.87,2.77-.16,.18-.31,.39-.45,.63-.56,.96-1.1,1.92-1.64,2.89-1.97,2.27-5.19,3.48-8,3.92-1.07,.17-1.8,.77-2.23,1.57-.29-.11-1.13-.45-1.27-.5,.59-.93,.82-2.15,.66-3.18-.16-1.04-.26-1.84,.14-2.57,.02,0,.03-.01,.05-.02,2.25-.88,3.62-2.34,4.94-4.34,.62-.94,.72-1.9,.48-2.75,2.06-.77,3.05-3.91,.59-5.37-2.05-1.22-4.22-1.91-6.57-2.29-2.26-.37-5-1.03-6.88,.69-1.49,1.36-1.67,3.66-3.01,5.21-1.44,1.67-3.6,2.73-5.62,3.52-1.29,.5-2.31,1.39-2.77,2.56-1.76-1.19-3.58-2.97-2.57-5.21,1-2.22,3.74-3.9,5.59-5.36,1.46-1.15-.18-3.12-1.65-2.84-3.83,.75-7.62,2.6-9.47,6.22-1.83,3.58-.73,7.54,1.92,10.37,2.97,3.17,7.36,5.02,11.17,6.92,4.72,2.35,9.53,4.64,14.47,6.5,7.68,2.89,20.98,4.82,24.96-4.81,3.25-7.86-2.57-18.07-10.79-19.61Z"/><path class="j" d="M627.71,55.91c-.26,.81-.24,.95,.04,.41-.13,.35-.29,.68-.46,1.01-.42,.8-.44,.74-.7,.98-.58,.54-1.5,1.02-2.85,1.16-3.6,.37-6.68-2.44-10.43-1.34-1.64,.48-3.03,2.11-2.95,3.88,.35,7.8,11.36,11.03,17.77,9.99,7.27-1.18,12.64-6.97,13.23-14.24,.63-7.78-12.03-9.49-13.65-1.85Z"/><path class="j" d="M576.48,79.08c-.29-10.63-1.4-21.29-2.12-31.9-.13-1.84-1.22-3.59-3.1-4.07-1.27-.33-2.1-.07-3.25,.43-1.25,.54-2.18,2.32-2.09,3.64,0,0,2.31,32.46,2.42,33.58,.05,.53-.21,1.71,.12,1.43-.83,.83-2.96,1.14-3.98,1.47-1.64,.54-3.26,1.03-4.67,2.04-.61,.43-.87,1.35-.25,1.92,2.89,2.66,7.62,2.49,11.19,1.48,4.94-1.4,5.86-5.38,5.74-10.03Z"/><path class="j" d="M613.53,178.13c-.17-.04-.33-.06-.49-.07,3.55-4.09,6.37-8.75,7.81-14.13,2.36-8.82,1.46-17.71,.47-26.61-.02-1.35-.08-2.71-.21-4.06-.07-.7-.18-1.29-.37-1.97l-.24-.77c0-.27-.04-.48-.14-.63,.1-.06,.18-.15,.22-.27,.24-.86-.63-1.43-1.4-1.02-.1,.05-.2,.13-.28,.22-1.28-3.84-3.12-8.29-6.65-10.29-1.13-.64-3.08,.14-2.88,1.65,.45,3.41,2.39,6.37,3.42,9.63,1.13,3.56,1.68,7.19,1.68,10.92,.01,7.12-2.04,13.89-6.07,19.77-4.31,6.29-11.45,11.24-17.96,15.03-6.54,3.8-13.95,6.22-21.56,6.24-4.33,0-8.37-.29-12.55-1.51-3.99-1.17-7.56-3.18-11.46-4.58-.27-.1-.61,.22-.5,.5,1.66,4.01,5,7.21,8.86,9.68-2.26-.11-4.17,1.31-5.35,3.36-1.85,3.21-1.21,7.01,.9,9.92,4.21,5.82,13.07,9.85,19.94,11.27,15.82,3.28,32.94-.17,45.62-10.37,3.86-3.1,7.68-7.25,7.47-12.55-.17-4.35-4.05-8.42-8.26-9.34Zm-58.18,9.93c.13-.28,.15-.61,.07-.93,1.17,.64,2.37,1.22,3.57,1.73,.47,.5,.98,.97,1.52,1.41-1.73-.71-3.34-1.77-5.16-2.22Z"/><path class="j" d="M983.9,302.8c-.24-4.97-.31-10.03-.98-14.95-.64-4.7-1.25-9.42-2.08-14.09-.61-3.42-1.29-9.48-4.07-11.85-.4-.34-1.03-.43-1.43,0-.21,.23-.39,.48-.57,.75-.07-5.53-.16-11.06-.3-16.59-.1-4.1-.48-8.16-.86-12.24-.36-3.86-.44-8.13-2.38-11.58-.32-.56-1.27-.62-1.57,0-1.63,3.37-1.6,7.34-1.78,11.02-.2,4.08-.47,8.15-.48,12.24-.02,8.34-.72,41.35-1.06,49.5-.31,7.68-1.24,15.56-1.12,23.28-2.19,.25-4.55,.08-6.5,.29-.82,.09-1.78,.56-1.94,1.48-.86,4.88,4.31,6.73,8.21,7.18,4.86,.56,9.26-.46,13.08-3.53,.07-.06,.13-.12,.2-.18,2.87-.32,5.55-2.39,5.73-6.2,.24-4.87,.11-9.65-.13-14.52Z"/><path class="j" d="M1015.88,361.77c3.33-1.91,6.13-5.59,8.01-8.54,2.33-3.66-2.09-6.73-5.35-5.35-1.72,.73-3.44,2.18-5.18,3.12-.41-.33-.81-.66-1.22-.98-1.45-1.12-3-2.17-4.6-3.07-2.73-1.53-5.91-2.87-8.99-3.45h-.03c-1.46-1.3-3.33-1.35-5.05-.2,0-2.15-.53-4.4-.92-6.41-.31-1.62-1.32-2.97-3.13-2.71-2.35,.33-2.95,3.51-4.62,4.92-1.67,1.41-3.01,3.39-4.95,4.41-2.37,1.24-5.09,1.39-7.48,2.55-1.06,.52-1.72,1.73-1.81,2.96-.45-.3-.92-.57-1.44-.77-.45-.18-1.13,.02-1.45,.38-2.72,3.14-.44,8.49,1.87,11.19,1.51,1.76,3.47,3.04,5.63,3.9,2.49,3.14,5.67,5.76,9.23,7.8,4.09,2.35,8.49,4.07,13.11,5.01,3.25,.67,7.22,1.7,10.68,1.14,1.32,1.17,2.92,2.12,4.81,2.73,3.92,1.27,8.35-3.84,5.69-7.4-1.6-2.15-3.51-4.23-3.74-7-.11-1.32,.02-2.61,.47-3.77,.14-.15,.29-.3,.45-.44Z"/><path class="j" d="M1156.41,302.91c-2.71-3.71-5.88-6.17-10.22-7.73-2.38-.86-6.25,.51-7.29,2.97-.2,.47-.56,1.04-.65,1.53l2.68,4.77c-2.76,1.7-5.48,3.46-8.15,5.3-2.48,1.7-4.87,3.5-7.24,5.35-1.28,1-2.66,2.33-4.04,3.4-.45-.25-.91-.5-1.36-.76-1.18-.67-2.34-1.37-3.49-2.09-2-1.26-3.96-2.58-5.89-3.95-.88-.63-2.99-2.56-5.13-3.86-1.94-3.94-8.07-3.88-11.76-5.11-2.03-.68-3.34-2.06-4.67-3.69-1.73-2.12-3.53-4.18-5.29-6.28-.02-.02-.04-.04-.06-.06-.19-.83-.44-1.66-.77-2.48-1.27-3.1-3.48-8.47-6.91-9.71-.23-.08-.57,.05-.68,.28-1.32,2.73-.24,6.19-1.4,9.1-1.15,2.87-2.71,5.65-4.31,8.29-3.39,5.59-9.09,7.5-14.32,10.88-4.6,2.97-3.58,10.07,1.34,11.49,.38,.81,.95,1.53,1.66,2.09h.02c-.66,4.44,1.61,9.21,3.17,13.3,1.89,4.96,4.33,9.73,6.85,14.38,1.65,3.05,3.77,6.5,5.17,10,.18,1.07,.37,2.15,.54,3.23,.1,.65,.41,1.22,.84,1.7,.49,3.59-.38,7.06-3.89,10.05-3.18,2.7,1.04,8.26,4.5,5.84,2.67-1.87,5.44-3.06,8.66-3.61,1.38-.23,2.81-2.03,2.63-3.45-.23-1.82-.39-3.73-.75-5.56,.35-1.73,.27-3.7,.02-5.57,.24-3.19-.28-6.58-.51-9.51-.19-2.39-.49-4.75-.84-7.13-.1-.68-.14-1.61-.26-2.54,.38-4.39,.7-8.78,.88-13.18,.02-.53-.12-1.13-.37-1.69,.82-.73,1.71-1.38,2.65-1.96,.84,.37,1.82,.47,2.9,.15,4.72-1.41,10.02-2.15,14.95-1.5h.07c.51,2.08,1.2,4.07,1.73,6.15,.06,.25,.12,.51,.17,.78-1.1-1.55-3.79-1.54-4.48,.71-1.22,4.01-1.42,8.51-1.95,12.68-.86,3.71-1.35,7.49-1.9,11.32-.07,.29-.14,.59-.23,.88-.97,3.53-2.55,6.75-4.78,9.65-1.91,2.48-4.53,4.41-6.83,6.49-.55,.5-.23,1.4,.42,1.6,1.37,.42,2.69,.5,3.94,.33,.61,.73,1.58,1.14,2.79,.82,2.53-.51,5.41-.47,7.72-1.6,.61-.11,1.21-.22,1.82-.33,1.2-.22,2.47-.43,3.69-.77-1.25,.62-2.49,1.25-3.71,1.87-7.35,3.73-14.39,8.08-21.02,12.97-6.71,4.95-12.69,10.73-19.17,15.95-6.15,4.96-12.73,8.44-20.5,10.11-4.05,.87-8.38,1.1-12.52,.96-2.29-.08-4.56-.4-6.83-.72-1.6-.23-3.16-.81-4.68-.08-.16,.08-.23,.29-.19,.46,.72,2.87,5.4,4.47,7.84,5.42,3.72,1.45,7.61,2.41,11.61,2.64,.74,.04,1.48,.06,2.22,.06,6.32,3.24,14.78,1.97,21.17-.41,3.55-1.32,7-3.05,10.34-5.02-.27,.34-.51,.74-.69,1.21-1.56,4.08-2.32,8.26-2.63,12.49-.1,.36-2.4,9.63-3.37,13.92-.97,4.3-1.57,8.71-2.33,13.06-.69,3.97-1.84,8.15-1.72,12.21-.15,.95-.33,1.9-.49,2.85-.11,.67-.18,1.29-.2,1.89-2.79,2.14-6.09,3.67-9.34,4.55-8.65,2.34-18.07,1.33-26.91,.77-.2-.01-.27,.28-.1,.38,8.5,4.89,17.82,8.65,27.84,8.07,8.93-.51,17.67-3.96,23.2-11.19,6.07-7.92,6.02-17.64,4.45-27.06,.16,.16,.35,.3,.58,.41,7.08,3.41,12.39,9.5,14.63,17.07,2.26,7.63-.16,16.86-6.11,22.07-6.23,5.46-14.68,8.79-22.49,11.22-8.87,2.76-18.31,5.18-27.52,6.4-5.59,.74-10.83,.29-16.3-1.04-5.28-1.29-10.6-2.99-16.06-2.6-.02,0-.04,.03-.02,.05,.94,.77,1.94,1.46,2.97,2.08,2.75,3.76,8.31,5.86,12.4,7.54,5.25,2.16,11.09,2.99,16.71,3.53,11.9,1.13,24.11-.59,35.68-3.37,5.92-1.42,11.72-3.17,17.43-5.26,5.02-1.84,10.15-3.76,14.6-6.78,4.63-3.14,8.5-7.08,10.67-12.29,2.61-6.27,1.21-13.52-1.69-19.43-2.9-5.9-9.1-9.75-14.15-13.72-4.02-3.16-8.37-7.89-13.87-7.42-1.57-.96-3.22-1.82-4.97-2.55-1.37-.57-2.53,.4-2.94,1.62-.08-.39-.15-.78-.23-1.16,.09-1.1,.18-2.2,.24-3.3,.27-4.75,.61-9.5,.63-14.26,0-4.04,.87-9.41-2.7-12.28-1-.81-2.13-1.09-3.14-.91,4.58-2.86,8.95-6.11,13.08-9.3,8.37-6.47,17.09-12.83,24.74-20.16,3.74-3.58,7.33-7.31,11.35-10.57,2.15-1.74,4.33-3.44,6.53-5.11,2.19-1.67,4.75-3.2,6.55-5.29,1.63-1.88-.38-4.3-2.57-3.33-2.1,.94-3.99,2.52-5.86,3.92-.36-.08-.74-.11-1.15-.06-3.8,.54-7.56,1.73-11.22,3.21,.43-.41,.77-.9,1-1.46,1.95-.37,3.57-1.85,3.39-4.46l-1.33-19.7c-.36-5.34-.44-10.83-1.02-16.18,1.46,1,3.06,1.73,4.92,1.7,3.34-.06,5.62-2.08,8.24-3.88,2.45-1.68,4.93-3.31,7.4-4.97,5.08-3.41,10.29-6.66,15.57-9.77,2.81-1.66,4.43-6.06,2.34-8.93Zm-82.25,29.86l-.39-.83c.17,.07,.33,.13,.5,.19-.04,.21-.08,.43-.11,.64Zm12.02-24.86c.07-.38,.13-.76,.18-1.14,.22,.32,.45,.64,.69,.95-.29,.06-.58,.12-.88,.2Zm21.14,59.59c.24-1.06,.41-2.13,.52-3.17l.53,2.88c-.35,.09-.71,.18-1.06,.29Zm.74-30.26c.02-.57,.04-1.14,.04-1.7,.17,.7,.4,1.37,.78,1.95l.08,1.19c-.26-.51-.55-.99-.9-1.43Zm3.2,35.36c.22-.18,.43-.37,.62-.57,.03-.03,.05-.07,.08-.1,.24,.02,.49,.03,.73,.02-.48,.22-.96,.43-1.43,.66Z"/><path class="j" d="M1044.42,258.93c-1.14-4.02-2.42-7.99-3.8-11.93-1.69-4.82-9.06-2.92-7.74,2.13,1.01,3.87,1.87,7.78,2.59,11.72,.33,1.79,.63,3.59,.9,5.39,.23,1.53,.24,3.28,.79,4.76-.36,.4-.71,.8-.98,1.18-.84,1.21-1.56,2.44-2.13,3.8-1.07,2.56-2.14,5.41-2.08,8.22,.01,.53,.73,.91,1.12,.46,2.18-2.52,4.01-5.28,6.27-7.76,1.97-2.16,5.58-4.16,6.5-7.03,1-3.13-.59-7.9-1.45-10.93Z"/><path class="j" d="M763.99,495.66c-1.39-1.35-3.93-2.34-5.62-.99-.94,.75-1.28,2.63-.87,4.03-1.46-.14-2.92-.29-4.38-.42-2.78-.25-6.36-.68-8.99,.35-1.7,.66-1.92,2.61-.48,3.69,2.1,1.57,5.47,2.17,8.03,2.65,2.78,.52,5.91,1.44,8.74,1.42,5.57-.05,7.21-7.2,3.57-10.72Z"/><path class="j" d="M733.25,159.18c-.83-.35-2.18,.04-2.75,.73-1.28,1.57-1.38,2.82-1.41,4.82-.02,1.26,.21,2.51-.76,3.03-.57,.31-2.09-.15-2.74-.2-1.1-.08-2.17-.1-3.27-.09-2.3,.04-4.2,.3-6.44,.81-1.47,.34-1.63,2.4-.41,3.13,3.05,1.81,6.17,2.98,9.64,3.78,3.14,.73,6.17,1.12,8.84-1.04,4.38-3.55,5.13-12.54-.71-14.97Z"/><path class="j" d="M758.68,119.76c-2.48-3.5-4.95-7.01-7.48-10.48-2.09-2.88-5.78-4.4-9.11-2.39-6.31,3.81-14.82,4.06-22.06,5.09,.83-.14,1.64-.28,2.44-.39,5.49-.77,12.33-.73,14.06-7.07,1.67-6.13,1.57-13.21,1.71-19.52,.08-3.32,.06-6.63-.06-9.95-.11-3.24,.41-6.8-2.72-8.68-1.25-.75-2.62-.38-3.67,.47-2.41,1.95-1.6,4.92-1.5,7.66,.11,2.95,.15,5.89,.11,8.84-.07,5.53-.45,11.04-1.01,16.54-.06,.58,.07,3.66-.3,3.98,.06-.54-.22-.59-.84-.16l-2.14,.48c-2.5,.56-4.99,1.15-7.48,1.79-5.08,1.3-10.68,2-14.8,5.43-.43,.36-.15,1.03,.31,1.18,2.66,.85,5.55,.86,8.46,.57-2.13,.35-7.58,1.3-8.18,1.41-.07-.04-.18-.15-.44-.48-.78-.99-1.22-2.31-1.92-3.37-1.34-2.03-3.24-3.91-5.51-4.82,.26-.79-.29-1.9-1.23-1.78-1.58,.21-3.06,.96-4.44,1.83-.45,.21-.86,.48-1.22,.8-.24,.17-.49,.34-.72,.5-1.57,1.09-2.92,2.13-4.12,3.49-3.32,2.25-2.45,5.38-.9,8.49,2.02,4.03,4.04,8.05,6.12,12.04,1.03,1.97,2.13,3.62,4.15,4.68,2.43,1.28,4.87,.85,7.41,.3,8.12-1.77,16.25-3.57,24.51-4.57,8.84-1.07,17.76-1.56,26.66-1.64,4.82-.04,8.98-5.91,5.89-10.27Z"/><path class="j" d="M1012.74,159.47c-.19-3.5-3.04-6.09-5.9-7.73-1.78-1.02-6.39-3.21-7.75-.47-1.33,2.68,3.2,4.48,4.66,5.8,3.42,3.11-1.87,3.79-4.25,3.95-4.09,.26-8.12,.62-12.19-.04-1.4-.23-2.27,1.22-1.36,2.33,4.48,5.43,14.77,7.19,21.09,4.52,3.41-1.44,5.9-4.54,5.69-8.35Z"/><path class="j" d="M1041.23,168.37c-2.74-3.13-9.2-6.19-12.77-2.94-.56,.51-.75,1.62-.29,2.26,1.6,2.24,5.48,2.44,6.71,4.77,.99,1.87-2.39,3.17-3.92,3.74-2.61,.98-5.41,1.23-8.18,1.09-3.21-.15-6.53-1.18-9.73-.97-.49,.03-.88,.56-.59,1.03,2.45,3.91,7.86,6.22,12.24,6.95,5.03,.84,10.24-.24,14.33-3.33,4.16-3.14,5.96-8.3,2.19-12.61Z"/><path class="j" d="M1071.14,183.38c-1.31-2.22-3.57-3.34-5.95-4.07-2.62-.8-5.15-1.72-7.74-2.59-2.15-.72-4.59,2.13-3.13,4.07,1.77,2.35,3.96,3.73,6.5,4.83-.35,.77-.77,1.5-1.35,2.16-1.2,1.37-2.81,1.96-4.14,3.15-.75,.67-.92,1.48-.73,2.23-1.36,.14-2.74,.16-4.07,.06-3.02-.21-6.77-2.24-9.72-1.38-.21,.06-.33,.28-.28,.49,.95,3.93,7.57,6.16,11.04,6.95,5.04,1.14,10.61,.22,14.88-2.74,4.15-2.87,7.61-8.19,4.68-13.16Zm-7.09,5.29c-.04,.07-.1,.14-.15,.21,.16-.57,.28-1.16,.34-1.75,.29,.32,.27,.76-.19,1.54Z"/><path class="j" d="M865.83,480.87c2.29-3.14-1.82-7.22-5.39-5.52-4.79,2.28-9.31,5.74-13.66,8.78-2.07,1.45-4.18,2.87-6.21,4.37-1.03,.76-2.13,1.98-3.29,2.51-1.02,.46-1.43,.29-2.55-.02-4.63-1.27-9.25-2.8-13.62-4.79-4.45-2.03-8.54-4.74-12.96-6.81-.36-.17-.9,.21-.61,.61,3.09,4.21,7.46,7.39,11.74,10.29,4.58,3.1,9.57,6.17,14.87,7.89,4.6,1.49,8.88-1.33,12.72-3.95l6.96-2.21c2.6-.82,5.12-1.87,7.64-2.91,2.27-.94,4.65-1.66,6-3.82,1.14-1.84,.05-3.71-1.64-4.42Z"/><path class="j" d="M890.19,464.27c-.89-2.07-2.61-4.75-5.29-4.02-2.54,.7-3.69,4.48-3,6.73-.38,.84-.74,1.7-1.01,2.59-.85,2.75-.84,5.35-.39,8.16,.52,3.24,4.75,3.62,6.8,1.79,4.15-3.7,5.04-10.27,2.89-15.26Z"/><path class="j" d="M861.7,431.32c-.04-.25-.09-.51-.16-.77-.43-1.54-2.78-2.46-3.9-1.03-.58,.74-1.19,1.56-2.01,2.01-.69-.13-1.38-.29-2.04-.51-1.46-.48-2.76-1.26-4-2.15-2.88-2.08-4.52-3.04-8.02-1.53-3.01,1.3-5.75,3.15-8.77,4.41-3.59,1.5-7.46,1.26-11.05-.12-.25-.1-.52,.25-.36,.46,2.3,3.12,5.85,4.79,9.75,4.5,.95-.07,1.86-.24,2.74-.47,0,.3,.11,.6,.42,.77,2.49,1.39,5.37,2.09,8.23,2.08,1.69,0,3.23-.49,4.87-.76,1.97-.33,2.99,.37,4.81,.82,1.92,.48,4.01,.09,5.73-.88,2.1-.31,3.92-1.39,4.74-3.75,.44-1.27-.1-2.38-1.01-3.07Z"/><path class="j" d="M916.46,483.98c-1.5-1.23-4.01-1.9-5.79-1.07-1.68-.14-3.52,.93-3.38,2.93v.03c-.4,3.11-.66,6.22-1.03,9.33-.14,1.16-.37,2.33-.6,3.51-1.16,.9-2.38,1.71-3.59,2.54-1.01,.61-1.87,1.1-2.35,1.4-.32,.2-.64,.39-.96,.59,.54-2.14,.05-4.38-1.35-5.86-.2-.64-.37-1.28-.51-1.96-.42-1.99-2.39-3.29-4.35-3.38,1.29-.75,2.65-1.46,4.03-2.17,3.5-1.8,.42-7.03-3.08-5.27-5.86,2.94-12.88,7.03-14.4,13.99-.14,.66-.03,1.35,.26,1.94-.16,.12-.32,.25-.46,.41-2.35,2.58-4.19,5.26-4.77,8.77-.54,3.24,.2,7.44-4.18,8-3.91,.5-6.94-2.92-8.68-5.98-.49-.87-.96-1.77-1.24-2.74-.36-1.25-.67-1.7,.5-2.36,1.2-.68,3.47,.07,4.93-.15,2.03-.3,1.42-3.35-.47-3.42v-.03c-2.33,.05-4.55-1.28-6.82-.15-1.82,.9-2.56,2.89-2.54,4.83h0c-3.7,4.29,1.07,12.21,4.27,15.65,6.33,6.82,16.57,1.26,23.5-1.68,8.4-3.57,16.35-7.95,23.93-13.03h0c1.27,.58,2.76,.5,3.8-.8,.85-1.08,1.51-2.27,2.02-3.54,1.19-1.12,2.23-2.37,2.98-3.83,.44-.86,.77-1.77,.97-2.69,.41-.79,.77-1.59,1.05-2.38,1.33-3.74,1.71-8.63-1.66-11.41Z"/><path class="j" d="M1076.1,95.52c0,6.14-2.21,10.41-5.75,12.32l-15.04,8.07c2.59-1.44,4.45-4.17,5.23-7.98,.26-1.3,.41-2.72,.41-4.27,0-11.99-8.42-26.57-18.8-32.57-.7-.4-1.37-.74-2.04-1.04-1.46-14.2-11.32-30.21-23.27-37.11-2.44-1.4-4.78-2.33-6.99-2.81-3.42-.75-6.51-.42-9.07,.87l14.93-8.01c4.21-2.27,9.96-1.84,16.29,1.81,11.96,6.9,21.81,22.92,23.27,37.11,.67,.3,1.35,.65,2.04,1.05,10.38,5.99,18.8,20.57,18.8,32.56Z"/><path class="d" d="M1057.65,181.64c4.2,2.42,4.2,6.35,0,8.77-4.19,2.42-10.98,2.42-15.18,0-4.19-2.42-4.19-6.35,0-8.77,.52-.3,1.08-.56,1.67-.79v.59c0,.88,.58,1.75,1.73,2.42,2.31,1.33,6.06,1.33,8.37,0,1.16-.67,1.73-1.54,1.73-2.42v-.59c.59,.22,1.14,.49,1.67,.79Z"/><path class="j" d="M1074.03,364.7c2.69,5.71,.12,12-7.61,16.55-.2,.12-.4,.23-.6,.34h0c-13.54,1.12-27.3,1.07-40.82-.14-.12-.07-.23-.13-.34-.2-7.73-4.55-10.3-10.84-7.61-16.55l5.43-12.68c-.44,1.06-.67,2.14-.67,3.23,0,3.52,2.31,7.01,6.95,9.69,9.27,5.36,24.29,5.36,33.55,0,4.48-2.59,6.81-5.94,6.95-9.35,.06-1.22-.17-2.44-.68-3.62l5.45,12.74Z"/><path class="k" d="M1055.99,180.86v.59c0,.88-.58,1.75-1.73,2.42-2.31,1.33-6.06,1.33-8.37,0-1.16-.67-1.73-1.54-1.73-2.42v-30.36c0,.88,.58,1.75,1.73,2.42,2.31,1.34,6.06,1.34,8.37,0,1.12-.65,1.69-1.48,1.73-2.33v29.68Z"/><path class="k" d="M1068.58,351.95c.51,1.19,.74,2.41,.68,3.62-.13,3.42-2.46,6.77-6.95,9.35-9.26,5.36-24.28,5.36-33.55,0-4.64-2.68-6.95-6.17-6.95-9.69,0-1.08,.22-2.17,.67-3.23,.01-.02,.02-.04,.03-.07l23.04-53.83,23.03,53.83Z"/><path class="d" d="M1029.85,166.77c4.2,2.42,4.2,6.35,0,8.76-4.19,2.42-10.98,2.42-15.18,0-4.19-2.42-4.19-6.35,0-8.76,.52-.3,1.08-.57,1.67-.79v.59c0,.88,.58,1.75,1.73,2.42,2.32,1.33,6.06,1.33,8.37,0,1.16-.67,1.73-1.54,1.73-2.42v-.59c.59,.22,1.15,.49,1.67,.79Z"/><path class="k" d="M1028.19,165.98v.59c0,.88-.58,1.75-1.73,2.42-2.31,1.33-6.05,1.33-8.37,0-1.15-.67-1.73-1.54-1.73-2.42v-30.36c0,.88,.58,1.75,1.73,2.42,2.32,1.34,6.06,1.34,8.37,0,1.12-.65,1.7-1.48,1.73-2.33v29.68Z"/><polygon class="d" points="1041.59 307.36 1025.3 345.42 1015.01 351.36 1015.01 320.67 1041.59 305.33 1041.59 307.36"/><path class="d" d="M1002.06,151.89c4.2,2.42,4.2,6.35,0,8.76-4.19,2.42-10.98,2.42-15.18,0-4.19-2.42-4.19-6.34,0-8.76,.52-.3,1.08-.57,1.67-.79v.59c0,.88,.58,1.75,1.73,2.42,2.31,1.33,6.06,1.33,8.37,0,1.16-.67,1.73-1.54,1.73-2.42v-.59c.59,.22,1.15,.49,1.67,.79Z"/><path class="k" d="M1000.39,151.1v.59c0,.88-.57,1.75-1.73,2.42-2.31,1.33-6.05,1.33-8.37,0-1.16-.67-1.73-1.54-1.73-2.42v-30.36c0,.88,.57,1.75,1.73,2.42,2.31,1.34,6.06,1.34,8.37,0,1.12-.65,1.7-1.48,1.73-2.33v29.68Z"/><path class="j" d="M1015.01,320.67v30.69l-21.59-12.46c-.44-3.55-2.3-6.65-4.99-8.72v-24.86l26.58,15.35Z"/><path class="j" d="M906.13,97.31l-4.69,15.03c.72,12.49-.27,20.9-3.79,31.72-.19,.59-.5,1.08-.89,1.49-1.18,1.2-3.1,1.54-4.67,.61-.7-.41-1.23-1.03-1.54-1.74-.24-.53-.35-1.12-.32-1.72l3.47-74.39h0c0,.17,0,.31,0,.42l10.9,5.95c1.74,.3,4.48,3.15,12.39,3.15,2.45,0,4.04-.41,5.37-.98l.34,11.29-4.35,7.79,3.24,3.05-1.07,14.52c2.23,9.66,.1,23.49-3.01,38.6-.06,.28-.11,.57-.17,.85-.38,1.74-2.15,2.79-3.85,2.28-.95-.28-1.69-1-2-1.91-.09-.25-.15-.52-.16-.8-1.3-21.09-2.4-36.88-5.2-55.21Z"/><path class="d" d="M904.31,20.19c-.33-.06-.66-.15-1-.27-.03-.06-.03-.12-.09-.15-1.11-.55-1.77-1.55-1.77-3.13,0-.25,.01-.49,.01-.74,.55,.14,1.17,.24,1.79,.24,4.11,0,4.22-4.75,9.42-4.75,2.73,0,6.01,1.31,6.01,3.94,0,1.37-.68,3.46-1.32,4.71-.26,.51-.54,1.13-.59,1.68-.04,.47-.09,.93-.13,1.39-.08,.87-.15,1.74-.2,2.61-3.98-2.51-2.02-5.67-7.22-5.67-1.17,0-2.31,.26-3.55,.26-.44,0-.89-.03-1.36-.12Z"/><path class="d" d="M867.91,509.47c-.19-14.07-.48-26.48-1.05-38.31-.7-14.57-1.76-28.23-3.26-42.98,3.4,3.22,7.6,5.64,12.62,6.04,11.15,.89,17.88-4.84,21.17-8.86,.57,1.44,1.04,2.8,1.16,4.33,.33,4.03-1.18,10.41-.5,14.11,.67,3.69,9.4,19.64,10.07,27.7,.55,6.51-1.84,18.83-2.67,23.34,0,.03-.02,.08-.03,.11-.26,1.04-1.2,1.8-2.32,1.82-1.14,0-2.12-.85-2.37-1.96-.22-.96-.44-1.9-.66-2.84h0c-4.3-18.2-8.34-31.21-14.11-45.36-2.99,8.16-6.59,17.66-5.98,30.06,.65,12.89-3.75,25.35-7.9,34.6,0,.02-.02,.03-.02,.05-.4,.88-1.33,1.39-2.28,1.25-.53-.08-.99-.34-1.32-.72-.33-.38-.53-.87-.54-1.4,0-.32,0-.65-.01-.97Z"/><path class="d" d="M898.37,284.94l18.65-10.77c-8.76,13.31-11.13,27.71-7.11,41.61l-11.54,6.66v-37.5Z"/><polygon class="j" points="898.37 284.94 898.37 322.44 865.89 303.69 865.89 266.19 898.37 284.94"/><path class="k" d="M804.04,140.23v86.9l-12.26,7.15-.27-.47v-86.34c1.85-2.41,3.93-4.52,6.27-6.25,2.34-.98,4.42-1.27,6.27-1h0Z"/><polygon class="j" points="800.94 343 776.84 356.75 776.76 356.61 756.49 344.9 780.19 331.22 800.94 343"/><polygon class="d" points="757.4 61.88 757.4 98.1 737.17 110.24 737.17 66.46 757.4 54.31 757.4 61.88"/><polygon class="j" points="739.92 32.57 757.4 54.31 737.17 66.46 704.33 25.6 724.57 13.46 739.92 32.57"/><path class="j" d="M716.54,85.49c.58,1.2,.93,2.47,.93,3.64,0,2.77-1.94,3.89-4.34,2.51-1.01-.59-1.95-1.53-2.69-2.63l6.09-3.52Z"/><path class="j" d="M716.54,85.49l-6.09,3.52c-1-1.5-1.65-3.29-1.65-4.88,0-2.77,1.94-3.89,4.34-2.51,1.38,.8,2.61,2.26,3.41,3.87Z"/><path class="j" d="M703.32,53.69c1.54,2.64,2.49,5.62,2.49,8.31,0,5.34-3.74,7.5-8.37,4.83-2.33-1.35-4.44-3.66-5.95-6.31l11.83-6.83Z"/><path class="j" d="M703.32,53.69l-11.83,6.83c-1.49-2.61-2.41-5.53-2.41-8.18,0-5.34,3.75-7.5,8.37-4.83,2.29,1.32,4.37,3.59,5.87,6.18Z"/><path class="j" d="M698.01,288.95v91.93l-71.53,41.3v-144.7l71.53-41.3v52.77Zm-13.78,68.94v-20.39l-43.97,25.38v20.39l43.97-25.38Zm0-31.36v-20.39l-43.97,25.38v20.39l43.97-25.38Zm-3.97-51.92c1.91-1.11,3.46-3.79,3.46-5.99s-1.55-3.1-3.46-2c-1.91,1.11-3.46,3.79-3.46,5.99s1.55,3.1,3.46,2Zm0,18.47c1.91-1.11,3.46-3.79,3.46-5.99s-1.55-3.1-3.46-2c-1.91,1.11-3.46,3.79-3.46,5.99s1.55,3.1,3.46,2Zm-13.98,3.46v-17.24c0-2.21-1-3.53-2.44-3.53-.49,0-1.03,.16-1.6,.48-2.23,1.28-4.03,4.74-4.03,7.7v17.24c0,2.97,1.81,4.34,4.03,3.05,2.23-1.28,4.03-4.74,4.03-7.7Zm-22.05-1.13c1.91-1.1,3.46-3.78,3.46-5.99s-1.55-3.1-3.46-2c-1.91,1.1-3.46,3.78-3.46,5.99s1.55,3.1,3.46,1.99Zm0,18.47c1.91-1.1,3.46-3.78,3.46-5.99s-1.55-3.1-3.46-2c-1.91,1.1-3.46,3.78-3.46,5.99s1.55,3.1,3.46,2Z"/><polygon class="d" points="684.23 337.49 684.23 357.88 640.26 383.27 640.26 362.88 684.23 337.49"/><polygon class="k" points="684.23 306.13 684.23 326.52 640.26 351.91 640.26 331.52 684.23 306.13"/><path class="d" d="M647.69,307.89c0,2.21-1.55,4.89-3.46,5.99-1.91,1.11-3.46,.21-3.46-2s1.55-4.89,3.46-5.99c1.91-1.11,3.46-.21,3.46,2Z"/><path class="d" d="M642.93,412.68c6.41,4.59,5.93,11.32-1.45,15.59-7.9,4.56-20.71,4.56-28.61,0-7.11-4.11-7.82-10.51-2.13-15.08l15.74,8.99,16.45-9.5Z"/><path class="j" d="M603.27,160.11l-24.62-13.77v-25.07c12.53,7.23,22.9,23.93,24.62,38.84Z"/><path class="d" d="M578.65,121.27v25.07l-24.43,12.41c2.16-14.56,12.28-30.47,24.43-37.49Z"/><path class="d" d="M572.72,100.4c1.68,.97,2.54,2.24,2.55,3.52-5.3,.3-10.35,1.51-15.01,3.49,0,0,0,0,0,0-3.23-1.97-3.18-5.08,.16-7.01,3.4-1.96,8.9-1.96,12.3,0Z"/><path class="l" d="M571.2,10.05v3.13c0,2.36-.42,4.4-1.27,6.13-.84,1.74-2.08,3.07-3.7,4.01-1.6,.93-2.83,1.03-3.69,.29-.85-.73-1.28-2.23-1.31-4.51v-3.14c0-2.37,.43-4.43,1.28-6.15,.85-1.72,2.08-3.05,3.69-3.98,1.61-.93,2.84-1.03,3.69-.3,.85,.73,1.28,2.23,1.31,4.5Zm-2.92,5.43v-4.05c0-1.41-.17-2.35-.5-2.79-.33-.45-.85-.48-1.57-.07-.68,.4-1.2,1-1.52,1.8-.33,.8-.5,1.86-.52,3.18v4.14c0,1.39,.16,2.33,.49,2.81,.33,.49,.85,.52,1.58,.11,.71-.42,1.23-1.04,1.55-1.87,.32-.83,.48-1.92,.5-3.26Z"/><path class="j" d="M527.55,266.53c0,2.52-1.77,5.59-3.96,6.85-2.18,1.26-3.95,.24-3.95-2.28s1.77-5.59,3.95-6.85c2.18-1.26,3.96-.24,3.96,2.28Z"/><path class="j" d="M524.5,254.82c-.3,.15-.6,.31-.91,.48-1.78,1.01-3.46,2.45-4.96,4.14l-3-1.76c-.72-.42-1.71-.36-2.81,.27-2.18,1.26-3.96,4.33-3.96,6.85,0,.1,0,.19,.01,.27l-7.74,3.55c.29-7.33,5.41-16,11.69-19.62,6.18-3.57,11.25-.95,11.68,5.82Z"/><path class="d" d="M515.63,257.68l3,1.76c-.53,.59-1.04,1.22-1.52,1.86l-8.23,3.77c-.01-.09-.01-.18-.01-.27,0-2.52,1.77-5.58,3.96-6.85,1.09-.63,2.09-.69,2.81-.27Z"/><path class="d" d="M508.88,265.07l8.23-3.77c-1.76,2.36-3.18,5.07-4.09,7.8l-3-1.76c-.66-.38-1.08-1.17-1.14-2.28Z"/><path class="j" d="M510.02,267.35l3,1.76c-.39,1.17-.69,2.36-.88,3.52l-6.92,4.55c-2.51-1.03-4.1-3.79-4.1-7.9,0-.22,0-.43,.02-.65l7.74-3.55c.06,1.11,.48,1.9,1.14,2.28Z"/><path class="j" d="M498.05,385.02l3.67,16.49-4.23,2.44c-2.09,1.21-3.51,.63-3.64-1.48-.13-2.12-1.55-2.69-3.65-1.48l-10.17,5.87-12.66,43.47-9.38-42.19,40.06-23.13Z"/><path class="j" d="M469.64,128.3v97.4l-51.16,29.49v-97.69l51.16-29.19Zm-10.54,84.6v-17.86c0-1.68-.76-2.68-1.84-2.68-.38,0-.78,.12-1.22,.37-1.69,.98-3.06,3.59-3.06,5.84v17.86c0,2.25,1.37,3.29,3.06,2.31,1.69-.98,3.06-3.59,3.06-5.84Zm-11.98,7.18v-17.86c0-1.68-.76-2.68-1.85-2.68-.37,0-.78,.12-1.21,.36-1.69,.97-3.06,3.59-3.06,5.84v17.86c0,2.26,1.37,3.29,3.06,2.31,1.69-.97,3.06-3.59,3.06-5.84Zm-11.98,7.18v-17.86c0-1.68-.76-2.68-1.84-2.68-.38,0-.78,.12-1.22,.37-1.68,.98-3.05,3.59-3.05,5.84v17.86c0,2.25,1.37,3.29,3.05,2.31,1.69-.98,3.06-3.59,3.06-5.84Z"/><path class="j" d="M459.1,195.04v17.86c0,2.25-1.37,4.86-3.06,5.84-1.69,.98-3.06-.06-3.06-2.31v-17.86c0-2.26,1.37-4.86,3.06-5.84,.43-.25,.84-.37,1.22-.37,1.08,0,1.84,1,1.84,2.68Z"/><path class="j" d="M464.43,302.98c0,6.22-4.37,13.78-9.75,16.89-5.39,3.11-9.75,.59-9.75-5.63s4.37-13.78,9.75-16.89c5.39-3.11,9.75-.59,9.75,5.63Z"/><path class="j" d="M447.12,202.21v17.86c0,2.26-1.37,4.87-3.06,5.84-1.69,.98-3.06-.06-3.06-2.31v-17.86c0-2.25,1.37-4.87,3.06-5.84,.43-.25,.84-.36,1.21-.36,1.09,0,1.85,1,1.85,2.68Z"/><path class="j" d="M462.89,274.97c-2.59,.51-5.35,1.58-8.21,3.23-3.87,2.23-7.54,5.31-10.84,8.95-1.61-.42-3.59-.07-5.73,1.16-5.39,3.11-9.75,10.67-9.75,16.89,0,2.59,.75,4.53,2.02,5.7-1.31,4.37-2.03,8.75-2.03,12.91,0,3.61,.54,6.77,1.55,9.4-10.52,2.09-18.12-4.95-18.12-18.44,0-16.79,11.79-37.21,26.33-45.61,11.41-6.59,21.13-3.82,24.78,5.8Z"/><path class="k" d="M443.37,114.02c1.78,3.78,.11,8-5.04,10.97-3.82,2.21-8.83,3.31-13.84,3.31s-10.02-1.11-13.84-3.31c-5.15-2.97-6.83-7.19-5.04-10.97l3.61-8.45h0c-.28,.65-.43,1.31-.46,1.97,.1,2.26,1.63,4.48,4.6,6.2,6.15,3.55,16.1,3.55,22.24,0,2.97-1.72,4.52-3.94,4.61-6.2-.03-.66-.18-1.32-.46-1.97h0l3.61,8.45Z"/><path class="j" d="M435.14,209.4v17.86c0,2.25-1.37,4.86-3.06,5.84-1.68,.98-3.05-.06-3.05-2.31v-17.86c0-2.26,1.37-4.87,3.05-5.84,.43-.25,.84-.37,1.22-.37,1.08,0,1.84,1,1.84,2.68Z"/><path class="d" d="M438.11,288.31c2.14-1.23,4.12-1.58,5.73-1.16-6.05,6.66-10.89,15.18-13.46,23.75-1.27-1.17-2.02-3.11-2.02-5.7,0-6.22,4.37-13.78,9.75-16.89Z"/><path class="d" d="M406.44,463.82c3.4,1.96,3.4,5.15,0,7.1-3.39,1.96-8.9,1.96-12.3,0-3.39-1.96-3.39-5.14,0-7.1,3.4-1.96,8.9-1.96,12.3,0Z"/><polygon class="l" points="403.05 373.75 403.05 389.36 399.91 387.54 399.91 376.01 396.83 375.27 396.83 372.52 402.76 373.58 403.05 373.75"/><path class="j" d="M388.67,42.9c6.63,3.83,12,13.14,12,20.79s-5.37,10.76-12,6.93c-1.26-.73-2.47-1.65-3.61-2.73,.32-1.38,.49-2.91,.49-4.59,0-6.58-2.6-13.96-6.67-20.21,2.17-2.28,5.75-2.53,9.8-.19Z"/><path class="j" d="M396.2,185.87c.75,1.18,1.22,2.49,1.22,3.64,0,2.29-1.86,3.07-4.15,1.75l-13.3-7.68c-2.29-1.32-4.15-4.25-4.15-6.55s1.86-3.07,4.15-1.75l13.3,7.68c1.14,.66,2.19,1.73,2.93,2.91Z"/><path class="d" d="M393.74,165.29c1.7,.98,3.08,3.37,3.08,5.34s-1.38,2.76-3.08,1.78c-1.7-.98-3.08-3.37-3.08-5.34s1.38-2.76,3.08-1.78Z"/><polygon class="j" points="395.91 242.16 395.91 254.62 375.82 266.22 375.82 243.02 395.91 231.42 395.91 242.16"/><polygon class="k" points="395.91 231.42 375.82 243.02 355.73 231.42 375.82 219.82 395.91 231.42"/><polygon class="j" points="358.41 333.96 358.41 355.49 352.8 356.85 352.8 348.19 345.75 343.6 348.6 336.34 358.41 333.96"/><polygon class="j" points="352.8 356.85 352.8 369.73 345.75 376.56 345.75 355.02 352.8 348.19 352.8 356.85"/><polygon class="d" points="341.85 444.26 341.85 508.84 330.82 532.61 330.82 468.04 341.85 444.26"/><polygon class="d" points="347.2 312.62 347.2 324.77 347.19 324.77 346.77 324.72 341.69 317.87 347.2 312.62"/><polygon class="j" points="345.75 365.13 345.75 376.56 335.4 375.16 326.72 379.54 326.72 364.64 325.68 358.53 335.4 353.63 345.75 355.02 345.75 365.13"/><path class="j" d="M322.71,206.65v34.78l-30.12,17.39v-34.78l30.12-17.39Zm-14.61,31.02c2.46-1.42,4.46-4.88,4.46-7.72s-1.99-3.99-4.46-2.57c-2.46,1.42-4.45,4.87-4.45,7.71s1.99,4,4.45,2.58Z"/><path class="d" d="M303.08,315.09c17.37,2.28,28.25,12.25,24.3,22.28-.35,.89-.8,1.74-1.35,2.56-.98,1.48-2.26,2.84-3.79,4.08-4.43-3.61-11.1-6.33-19.16-7.39-13.1-1.72-26.15,1.44-33.46,7.38-1.55-1.26-2.82-2.63-3.79-4.07-2.22-3.33-2.82-7.06-1.35-10.81,3.95-10.03,21.23-16.31,38.6-14.03Z"/><polygon class="j" points="326.72 379.54 326.72 386.18 314.06 389.31 314.06 367.77 326.72 364.64 326.72 379.54"/><path class="d" d="M312.56,229.95c0,2.84-1.99,6.3-4.46,7.72-2.46,1.42-4.45,.27-4.45-2.58s1.99-6.29,4.45-7.71c2.46-1.42,4.46-.27,4.46,2.57Z"/><polygon class="j" points="314.06 367.77 314.06 389.31 307.11 384.66 294.26 385.33 288.87 390.63 288.87 369.1 294.26 363.8 307.11 363.13 314.06 367.77"/><path class="k" d="M289.63,474.41v64.57l-30.15-17.41v-64.57l30.15,17.41Zm-12.59,11.24c0-2.04-1.44-4.53-3.2-5.55-1.77-1.02-3.21-.2-3.21,1.85s1.44,4.53,3.21,5.55c1.77,1.02,3.2,.2,3.2-1.85Zm0,14.13c0-2.05-1.44-4.53-3.2-5.55-1.77-1.02-3.21-.19-3.21,1.85s1.44,4.53,3.21,5.55c1.77,1.03,3.2,.2,3.2-1.85Zm0,14.13c0-2.04-1.44-4.53-3.2-5.55-1.77-1.02-3.21-.2-3.21,1.85s1.44,4.53,3.21,5.55c1.77,1.02,3.2,.19,3.2-1.85Z"/><polygon class="j" points="288.87 369.1 288.87 390.63 275.44 388.87 275.44 367.33 288.87 369.1"/><path class="j" d="M259.26,120.46c-1.39,.29-2.86,.53-4.42,.75-3.36,.45-6.28-.27-8.48-1.58-2.83-1.66-4.49-4.26-4.43-6.56,0,0-.66-9.1,3.49-24.9,.19,.12,.39,.22,.59,.3l1.06,3.92c.26,.94,.99,1.68,1.93,1.95l3.61,1.02c.88,.25,1.62-.66,1.22-1.48-.88-1.75-1.8-4.09-1.2-5.3,.63-1.26,1.74-1.59,2.51-1.65,.46-.04,.81-.43,.79-.9-.02-.45-.39-.8-.84-.81l-4.57-.11c-.04-.65-.28-1.29-.71-1.83-.68-.85-1.31-1.68-1.91-2.5,1.17-2.78,2.61-5.45,4.37-7.91h0c.3,.36,.66,.7,1.07,1.01,1.35,1.03,5.28,1.04,7.1,1.04,5.43,0,7.78-1.32,8.84-3.25l9.08,31.19c.74,2.64,.1,5.48-1.71,7.55-.43,.5-.87,.98-1.31,1.43-3.53,3.69-7.24,6-11.91,7.51-1.31,.43-2.7,.79-4.19,1.1Z"/><polygon class="j" points="275.44 367.33 275.44 388.87 274.55 382.75 263.47 378.93 253.72 381.39 253.72 359.85 263.47 357.4 274.55 361.22 275.44 367.33"/><path class="d" d="M266.03,28.66c0,.66-.02,1.94-.02,1.96l-.25,.11c-.44-1.07-1.17-1.94-2.24-1.94s-1.89,.71-2.58,1.49c-.97,1.11-2.17,2-3.53,2.6-.52,.24-.87,.63-1.05,1.08l-.67,5.96s-.53,2.11-.54,2.13l-.59,.26-.12-.27c-4.68-1.33-9.99-5.69-12.09-10.27,0,0,4.07-5.21,9.12-8.84,1.57-1.13,4.19-1.76,6.08-1.76,3.6,0,8.48,2.03,8.48,7.49Z"/><polygon class="j" points="253.72 359.85 253.72 381.39 244.65 375.4 244.65 353.87 253.72 359.85"/><polygon class="j" points="245.08 341.78 250.16 348.62 244.65 353.87 244.65 363.25 234.69 361.99 233.44 354.06 233.44 332.53 234.69 340.45 245.08 341.78"/><polygon class="d" points="246.1 322.89 243.25 330.15 239.06 331.17 239.05 331.15 239.05 318.29 246.1 322.89"/><path class="k" d="M206.57,116.94c1.39,2.95,.08,6.23-3.93,8.55-2.98,1.72-6.88,2.58-10.78,2.58s-7.8-.86-10.78-2.58c-4.01-2.31-5.32-5.6-3.93-8.55l2.82-6.58h0c-.24,.56-.36,1.13-.36,1.7,0,1.82,1.19,3.62,3.59,5,4.79,2.77,12.55,2.77,17.33,0,2.32-1.34,3.52-3.07,3.59-4.83,.03-.63-.09-1.26-.35-1.87l2.82,6.58Z"/><path class="j" d="M162.54,428.96l13.84,65.06c-12.63,5.62-27.79,8.43-42.96,8.43-1.59,0-3.18-.03-4.77-.1l1.54-67.74c1.08,.04,2.15,.07,3.23,.07,10.28,0,20.56-1.91,29.12-5.72Z"/><polygon class="j" points="155.08 170.63 134.81 182.33 118.55 172.95 118.55 164.35 131.37 156.94 155.08 170.63"/><path class="j" d="M152.26,51.93l-7.84,35.27-10.59-36.35-8.5-4.9c-1.76-1.02-2.94-.53-3.05,1.23-.11,1.77-1.3,2.25-3.05,1.24l-3.53-2.04,3.06-13.79,33.5,19.34Z"/><path class="k" d="M121.09,360.39l-12.7,70.2c-3.1-1.11-6.04-2.44-8.73-3.99-7.68-4.43-12.19-9.99-13.54-15.76-.81-3.41-.5-6.88,.9-10.24l23.53-54.97c-1.85,4.44,.24,9.32,6.25,12.79,1.32,.76,2.77,1.42,4.3,1.96Z"/><path class="j" d="M94.34,218.6c1.02-1.75,1.65-3.73,1.65-5.52,0-3.56-2.5-5-5.58-3.22s-5.58,6.1-5.58,9.67,2.5,5,5.58,3.22c1.54-.88,2.92-2.41,3.93-4.15Zm17.02,46.63l-50.24,28.67V149.2l57.43-32.77v144.7l-7.2,4.11Z"/><path class="j" d="M73.55,341.23l16.14,9.32c-6.02-3.41-14.3-2.88-23.45,2.4-18.4,10.62-33.32,36.47-33.32,57.71,0,10.6,3.71,18.06,9.71,21.55l-16.21-9.35c-6.03-3.48-9.76-10.95-9.76-21.57,0-21.25,14.92-47.09,33.32-57.72,9.2-5.31,17.53-5.81,23.56-2.33Z"/><polygon class="k" points="47.34 234.59 47.34 254.99 3.37 229.6 3.37 209.21 47.34 234.59"/><path class="d" d="M43.37,159.14c1.91,1.11,3.46,3.79,3.46,5.99s-1.55,3.1-3.46,2c-1.91-1.11-3.46-3.79-3.46-5.99s1.55-3.1,3.46-2Z"/><path class="j" d="M29.39,155.68v17.24c0,2.97-1.81,4.34-4.03,3.05-2.23-1.28-4.03-4.74-4.03-7.71v-17.24c0-2.22,1-3.53,2.44-3.53,.49,0,1.03,.16,1.6,.48,2.23,1.29,4.03,4.74,4.03,7.71Z"/><polygon class="d" points="541.98 486.62 526.52 495.54 511.05 486.62 526.52 477.69 541.98 486.62"/><path class="k" d="M834.23,393.99c-3.46-1.19-6.82-1.36-10.44-1.24-.8,.03-1.37,.47-1.66,1.05-.02,.01-.05,.02-.07,.03-.88,.44-.69,1.61,0,2.1-.64-.45,.67,1.01,.82,1.2,.44,.56,.92,1.09,1.38,1.62,.77,.88,1.48,1.99,2.7,2.24,2.44,.51,5.85-2.5,7.7-3.77,1.28-.88,1.06-2.72-.42-3.23Z"/><path class="f" d="M888.43,439.24c-.67,2.36-1.54,4.79-2.47,7.35-2.98,8.17-6.59,17.66-5.98,30.06,.65,12.89-3.75,25.35-7.9,34.6,0,.02-.02,.03-.02,.05-.4,.88-1.33,1.39-2.28,1.25-.53-.08-.99-.34-1.32-.72-.33-.38-.53-.87-.54-1.4,0-.32,0-.65-.01-.97-.19-14.07-.48-26.48-1.05-38.31-.7-14.57-1.76-28.24-3.26-42.98-.21-2.03-.42-4.07-.64-6.14"/><path class="f" d="M900.07,491.95c.22,.94,.44,1.88,.66,2.84,.26,1.12,1.23,1.97,2.37,1.96,1.12-.02,2.06-.77,2.32-1.82,.01-.03,.02-.08,.03-.11,.83-4.5,3.22-16.82,2.67-23.34-.67-8.06-9.4-24.01-10.07-27.7-.68-3.69,.83-10.07,.5-14.11-.12-1.53-.6-2.89-1.16-4.33-.93-2.35-2.12-4.92-2.54-8.76-.67-6.22,1.51-13.44,3.2-19.48,1.67-6.05,4.02-12.43-.5-18.64-2.4-3.28-7.8-3.05-12.36-2.1"/><path class="f" d="M885.96,446.59c5.76,14.16,9.8,27.17,14.11,45.36"/><path class="f" d="M844.95,424.18c-5.14-5.62-9.88-12.56-9.88-12.56l-4.61-3.45,3.45-7.13,17.49,13.8"/><path class="f" d="M868.15,399.52s-2.95,14.38-5.53,22.31c0,0-.01,.06-.03,.16-.27,1.24-2.22,9.19-7.95,9.19-2.51,0-6.19-3.19-9.67-7"/><path class="f" d="M874.16,379.74c-.4,.14-.82,.28-1.27,.44-4.49,1.59-10.87,4.38-13.6,7.91-.92,1.19-1.83,3.41-2.71,6.17-1.89,5.94-3.64,14.41-5,20.61-.58,2.62-1.09,4.84-1.51,6.29"/><path class="f" d="M897.39,425.36c-3.29,4.02-10.02,9.75-21.17,8.86-5.03-.39-9.22-2.82-12.62-6.04"/><path class="f" d="M872.89,380.18c.28,.26,.58,.51,.9,.71,1.19,.77,2.71,1.16,4.46,1.16,4.14,0,6.45-2.95,6.94-5.68,.01-.04,.02-.09,.03-.14-1.96-1.33-3.47-5.2-4.19-7.32"/><path class="f" d="M873.79,380.9c.14-.39,.26-.77,.37-1.16h.01c.15-.5,.29-1.01,.41-1.5,.45-1.83,.75-3.62,.85-5.55h-.02c-.03-1.08-.43-1.81-1.63-2-2.7-.44-5-2.44-5-5.89s2.03-6.99,4.93-8.33"/><path class="e" d="M873.71,356.47c-1.96-1.61-4.37-3.02-4.37-5.4s3-4.26,5.89-5.53c1.37,7.86,10.47,6.82,10.47,16.19,0,1.63-.59,3.2-1.52,4.49-.73,1.03-2.03,1.63-3.29,1.77-.2,.02-.4,.03-.6,.03-2.76,0-4.88-2.37-4.88-4.42,0-.48,.17-1.18,.27-1.37,.29-.56,.52-1.15,.52-1.78,0-1.68-1.14-2.88-2.5-3.99Z"/><path class="f" d="M905.45,494.95c.01,.54,.13,1.09,.13,1.64,0,1.22-1.56,3.89-3.56,3.89-3.52,0-7.86-6.96-7.86-8.95,0-.13,0-.25,.03-.38-.05-.05-.11-.1-.16-.16,.06-.05,.12-.1,.17-.16,1.96,.12,3.93,.57,5.84,1.12h0"/><polyline class="f" points="805.21 415.75 805.21 475.42 832.34 491.09 866.86 471.16"/><line class="f" x1="832.34" y1="431.46" x2="832.34" y2="491.09"/><path class="f" d="M844.96,424.18h0l-12.61,7.29-.9,.52c-4.01,2.31-9.52,1.75-12.32-1.26l-13.91-14.97h0l-13.24-14.25c-2.79-3.01-1.82-7.33,2.19-9.64l53.33-30.79c4.01-2.32,9.52-1.75,12.32,1.26l14.79,15.91"/><path class="f" d="M833.48,410.43c-5.86,3.22-13.78,2.35-17.83-2.01-4.11-4.42-2.67-10.77,3.22-14.17,5.89-3.4,14-2.57,18.11,1.86,2.4,2.58,2.91,5.81,1.75,8.73"/><polyline class="f" points="818.87 394.25 826.31 402.26 836.98 396.11"/><line class="f" x1="840.38" y1="388.37" x2="855.44" y2="379.68"/><line class="f" x1="844.99" y1="393.33" x2="860.04" y2="384.64"/><line class="f" x1="849.6" y1="398.3" x2="856.58" y2="394.26"/><path class="f" d="M647.69,289.42c0,2.21-1.55,4.89-3.46,5.99-1.91,1.11-3.46,.21-3.46-1.99s1.55-4.89,3.46-5.99c1.91-1.11,3.46-.21,3.46,2Z"/><path class="f" d="M647.69,307.89c0,2.21-1.55,4.89-3.46,5.99-1.91,1.11-3.46,.21-3.46-2s1.55-4.89,3.46-5.99c1.91-1.11,3.46-.21,3.46,2Z"/><path class="f" d="M683.72,268.61c0,2.21-1.55,4.89-3.46,5.99-1.91,1.1-3.46,.21-3.46-2s1.55-4.89,3.46-5.99c1.91-1.1,3.46-.21,3.46,2Z"/><path class="f" d="M683.72,287.09c0,2.21-1.55,4.89-3.46,5.99-1.91,1.1-3.46,.21-3.46-2s1.55-4.89,3.46-5.99c1.91-1.11,3.46-.21,3.46,2Z"/><path class="f" d="M662.25,304.24c-2.23,1.29-4.03-.08-4.03-3.05v-17.24c0-2.97,1.81-6.42,4.03-7.7,.57-.33,1.11-.48,1.6-.48,1.43,0,2.44,1.32,2.44,3.53v17.24c0,2.97-1.81,6.42-4.03,7.7Z"/><polygon class="f" points="684.23 326.52 640.26 351.91 640.26 331.52 684.23 306.13 684.23 326.52"/><polygon class="f" points="684.23 357.88 640.26 383.27 640.26 362.88 684.23 337.49 684.23 357.88"/><line class="f" x1="654.71" y1="396.02" x2="669.78" y2="387.33"/><polygon class="f" points="698.01 288.95 698.01 380.88 626.48 422.18 626.48 277.48 698.01 236.18 698.01 288.95"/><polyline class="f" points="569.04 369.69 569.04 244.71 640.58 203.41 698.01 236.18"/><line class="f" x1="569.04" y1="244.71" x2="626.48" y2="277.48"/><line class="f" x1="575.26" y1="392.95" x2="626.48" y2="422.18"/><path class="f" d="M575.26,392.95c1.48-2.51,2.33-5.44,2.33-8.56,0-6.3-3.44-11.79-8.55-14.7-2.47-1.41-5.32-2.22-8.37-2.22-9.34,0-16.92,7.57-16.92,16.92s7.57,16.92,16.92,16.92c6.22,0,11.64-3.36,14.59-8.35Z"/><polyline class="f" points="118.55 261.12 118.55 116.42 47.02 75.13"/><path class="f" d="M39.92,161.14c0,2.21,1.55,4.89,3.46,5.99,1.91,1.1,3.46,.21,3.46-2s-1.55-4.89-3.46-5.99c-1.91-1.1-3.46-.21-3.46,2Z"/><path class="f" d="M39.92,179.61c0,2.21,1.55,4.89,3.46,5.99,1.91,1.1,3.46,.21,3.46-2s-1.55-4.89-3.46-5.99c-1.91-1.1-3.46-.21-3.46,2Z"/><path class="f" d="M3.88,140.33c0,2.21,1.55,4.89,3.46,5.99,1.91,1.11,3.46,.21,3.46-2s-1.55-4.89-3.46-5.99c-1.91-1.1-3.46-.21-3.46,2Z"/><path class="f" d="M3.88,158.8c0,2.21,1.55,4.89,3.46,5.99,1.91,1.1,3.46,.21,3.46-2s-1.55-4.89-3.46-5.99c-1.91-1.1-3.46-.21-3.46,2Z"/><path class="f" d="M25.36,175.97c2.23,1.28,4.03-.08,4.03-3.05v-17.24c0-2.97-1.81-6.42-4.03-7.71-.57-.33-1.11-.48-1.6-.48-1.43,0-2.44,1.32-2.44,3.53v17.24c0,2.97,1.81,6.42,4.03,7.71Z"/><polygon class="f" points="3.37 198.24 47.34 223.63 47.34 203.24 3.37 177.85 3.37 198.24"/><polygon class="f" points="3.37 229.6 47.34 254.99 47.34 234.59 3.37 209.21 3.37 229.6"/><line class="f" x1="32.89" y1="267.74" x2="17.83" y2="259.04"/><polygon class="f" points="-10.41 224.29 -10.41 252.6 61.12 293.9 61.12 149.2 -10.41 107.9 -10.41 224.29"/><line class="f" x1="47.02" y1="75.13" x2="-10.41" y2="107.9"/><line class="f" x1="118.55" y1="116.42" x2="61.12" y2="149.2"/><line class="f" x1="118.55" y1="261.12" x2="61.12" y2="293.9"/><line class="f" x1="87.01" y1="250.74" x2="87.01" y2="240.95"/><line class="f" x1="92.66" y1="247.92" x2="92.66" y2="238.13"/><path class="f" d="M156.27,345.54c1.91,4.47-.16,9.39-6.21,12.88-4.6,2.65-10.62,3.98-16.64,3.98-4.29,0-8.57-.67-12.34-2.01-1.53-.55-2.98-1.2-4.3-1.96-6-3.47-8.09-8.34-6.25-12.79"/><path class="f" d="M179.81,400.55c3.83,9.04-.38,18.99-12.62,26.05-1.48,.85-3.03,1.64-4.65,2.36-8.55,3.82-18.84,5.72-29.12,5.72-1.08,0-2.15-.02-3.23-.07-7.6-.3-15.1-1.63-21.8-4.02-3.1-1.11-6.04-2.44-8.73-3.99-7.68-4.43-12.19-9.99-13.54-15.76-.8-3.41-.44-6.86,.9-10.24,.02-.04,.04-.09,.06-.13"/><path class="f" d="M140.5,308.69l-7.07-16.53-67.99,158.88c-6.42,13.62-.38,28.8,18.16,39.5,12.55,7.24,28.65,11.19,45.07,11.82,1.59,.06,3.18,.1,4.77,.1,15.17,0,30.33-2.81,42.96-8.43,2.38-1.06,4.69-2.23,6.87-3.49,18.53-10.69,24.58-25.87,18.16-39.5l-60.91-142.34h0Z"/><line class="f" x1="162.54" y1="428.96" x2="176.39" y2="494.02"/><polyline class="f" points="121.09 360.39 108.39 430.59 108.39 430.6"/><polygon class="f" points="352.8 348.19 345.75 343.6 348.6 336.34 358.41 333.96 357.16 326.04 347.2 324.77 347.19 324.77 346.77 324.72 341.69 317.87 347.2 312.62 338.13 306.63 328.38 309.09 317.3 305.28 316.41 299.16 302.98 297.4 297.59 302.69 284.74 303.36 277.79 298.72 265.13 301.85 266.17 307.96 256.45 312.87 246.1 311.47 239.05 318.29 246.1 322.89 243.25 330.15 239.06 331.17 233.44 332.53 234.69 340.45 245.08 341.78 250.16 348.62 244.65 353.87 253.72 359.85 263.47 357.4 274.55 361.22 275.44 367.33 288.87 369.1 294.26 363.8 307.11 363.13 314.06 367.77 326.72 364.64 325.68 358.53 335.4 353.63 345.75 355.02 352.8 348.19"/><path class="f" d="M269.61,344c-1.55-1.26-2.82-2.63-3.79-4.07-2.22-3.33-2.82-7.06-1.35-10.81,3.95-10.03,21.23-16.31,38.6-14.03,17.37,2.28,28.25,12.25,24.3,22.28-.35,.89-.8,1.74-1.35,2.56-.98,1.48-2.26,2.84-3.79,4.08-7.33,5.94-20.36,9.11-33.46,7.4-8.07-1.06-14.73-3.79-19.17-7.4Z"/><path class="f" d="M269.61,344.01h0c7.32-5.95,20.37-9.11,33.46-7.39,8.06,1.06,14.73,3.78,19.16,7.39h0"/><polyline class="f" points="233.44 332.53 233.44 354.06 234.69 361.99 244.65 363.25"/><line class="f" x1="239.05" y1="318.29" x2="239.05" y2="331.15"/><line class="f" x1="253.72" y1="359.85" x2="253.72" y2="381.39"/><line class="f" x1="275.44" y1="367.33" x2="275.44" y2="388.87"/><line class="f" x1="288.87" y1="369.1" x2="288.87" y2="390.63"/><line class="f" x1="314.06" y1="367.77" x2="314.06" y2="389.31"/><polyline class="f" points="326.72 364.64 326.72 386.18 314.06 389.31 307.11 384.66 294.26 385.33 288.87 390.63 275.44 388.87 274.55 382.75 263.47 378.93 253.72 381.39 244.65 375.4 244.65 353.87"/><polyline class="f" points="358.41 333.96 358.41 355.49 352.8 356.85"/><line class="f" x1="345.75" y1="355.02" x2="345.75" y2="376.56"/><polyline class="f" points="352.8 348.19 352.8 369.73 345.75 376.56 335.4 375.16 326.72 379.54"/><line class="f" x1="347.2" y1="312.62" x2="347.2" y2="324.77"/><path class="f" d="M89.8,350.62c5.86,3.38,9.55,10.53,9.75,20.69"/><path class="f" d="M42.63,432.21c-6-3.49-9.71-10.95-9.71-21.55,0-21.25,14.92-47.09,33.32-57.71,9.15-5.28,17.43-5.81,23.45-2.4"/><path class="f" d="M86.11,410.85c-2.24,3.22-4.7,6.23-7.32,8.98-3.87,4.05-8.1,7.51-12.55,10.08-9.2,5.31-17.53,5.82-23.57,2.33"/><path class="f" d="M70.09,398.52c0-1.41-.3-2.35-.9-2.81-.61-.45-1.67-.6-3.18-.44-1.51,.16-2.92,.25-4.2,.25-1.28,.01-2.39-.2-3.32-.63-.93-.43-1.64-1.13-2.13-2.12-.5-.98-.75-2.38-.75-4.18,0-3.02,.89-6.01,2.65-8.99,1.76-2.97,4.11-5.47,7.05-7.49v-5.66l3.69-2.13v5.76c2.83-1.15,5.06-1.09,6.67,.18,1.62,1.27,2.42,3.61,2.42,7l-7.84,4.53c0-1.86-.31-3.11-.93-3.75-.62-.64-1.5-.63-2.65,.03-1.02,.59-1.81,1.42-2.38,2.49-.56,1.07-.85,2.26-.85,3.56s.33,2.18,.98,2.59c.65,.4,1.69,.54,3.13,.42,1.44-.12,2.8-.17,4.07-.15,1.28,.02,2.38,.25,3.31,.67,.93,.43,1.65,1.13,2.18,2.12,.53,.99,.79,2.38,.79,4.18,0,3.06-.84,6.03-2.52,8.93-1.68,2.9-3.96,5.34-6.86,7.33v5.39l-3.69,2.13v-5.41c-3.37,1.54-5.96,1.69-7.76,.48-1.8-1.22-2.7-3.68-2.7-7.38l7.82-4.51c0,2.04,.39,3.36,1.17,3.97s1.89,.5,3.33-.33c1.05-.61,1.88-1.45,2.49-2.52,.6-1.07,.9-2.24,.9-3.51Z"/><path class="f" d="M89.8,350.62l-16.26-9.39c-6.03-3.48-14.36-2.98-23.56,2.33-18.4,10.63-33.32,36.47-33.32,57.72,0,10.63,3.73,18.09,9.76,21.57l16.26,9.38"/><line class="f" x1="130.2" y1="434.61" x2="128.66" y2="502.36"/><polyline class="f" points="327.14 435.77 341.85 444.26 330.82 468.04 289.63 474.41 259.48 457 270.52 433.23 291.78 429.94"/><polyline class="f" points="341.85 444.26 341.85 508.84 330.82 532.61 289.63 538.98 259.48 521.57 259.48 457"/><line class="f" x1="330.82" y1="468.04" x2="330.82" y2="532.61"/><line class="f" x1="289.63" y1="474.41" x2="289.63" y2="538.98"/><path class="f" d="M291.78,429.94c1.54-8.34,8.84-14.66,17.62-14.66,9.9,0,17.92,8.02,17.92,17.92,0,.88-.06,1.73-.19,2.57-1.26,8.68-8.71,15.36-17.74,15.36-9.9,0-17.92-8.02-17.92-17.93,0-1.12,.1-2.2,.3-3.26Z"/><path class="f" d="M277.05,485.65c0,2.05-1.44,2.87-3.2,1.85-1.77-1.02-3.21-3.51-3.21-5.55s1.44-2.87,3.21-1.85c1.77,1.02,3.2,3.51,3.2,5.55Z"/><path class="f" d="M273.84,494.23c-1.77-1.02-3.21-.19-3.21,1.85s1.44,4.53,3.21,5.55c1.77,1.03,3.2,.2,3.2-1.85s-1.44-4.53-3.2-5.55Z"/><polygon class="f" points="483.84 486.62 526.52 461.97 569.2 486.62 526.52 511.25 483.84 486.62"/><polygon class="f" points="511.05 486.62 526.52 477.69 541.98 486.62 526.52 495.54 511.05 486.62"/><polyline class="f" points="569.2 495.28 526.52 519.92 483.84 495.28"/><line class="f" x1="569.2" y1="495.28" x2="569.2" y2="486.62"/><line class="f" x1="483.84" y1="495.28" x2="483.84" y2="486.62"/><line class="f" x1="563.61" y1="498.51" x2="574.52" y2="504.81"/><line class="f" x1="539.01" y1="469.19" x2="549.92" y2="462.89"/><line class="f" x1="550.22" y1="475.26" x2="561.13" y2="468.96"/><line class="f" x1="563.61" y1="483.39" x2="574.52" y2="477.09"/><line class="f" x1="489.42" y1="498.51" x2="478.51" y2="504.81"/><line class="f" x1="514.02" y1="469.19" x2="503.11" y2="462.89"/><line class="f" x1="501.13" y1="475.99" x2="490.21" y2="469.68"/><line class="f" x1="489.42" y1="483.39" x2="478.51" y2="477.09"/><polyline class="f" points="292.59 258.81 292.59 224.03 322.71 206.65 322.71 241.42 292.59 258.81 262.48 241.42 262.48 206.65 292.59 224.03"/><polyline class="f" points="262.48 206.65 292.59 189.26 322.71 206.65"/><path class="f" d="M312.56,229.95c0,2.84-1.99,6.3-4.46,7.72-2.46,1.42-4.45,.27-4.45-2.58s1.99-6.29,4.45-7.71c2.46-1.42,4.46-.27,4.46,2.57Z"/><path class="f" d="M262.48,224.21l-7.46-4.3c-5.73-3.3-12.79-3.31-18.53-.02l-22.53,12.89c-6.21,3.55-6.27,12.47-.12,16.12l13,7.7c6.16,3.65,6.08,12.59-.14,16.13l-63.74,36.3c-6.82,3.88-15.18,3.86-21.98-.07l-.47-.27h0"/><path class="f" d="M129.16,302.13l-10.75-6.21c-4.37-2.52-7.06-7.19-7.06-12.23v-44.42c0-6.9-3.73-13.26-9.75-16.62l-10.69-5.98"/><polygon class="f" points="163.65 249.62 159.3 261.19 179.34 258.67 163.65 249.62"/><polygon class="f" points="756.93 489.32 761.28 500.89 741.24 498.37 756.93 489.32"/><polygon class="f" points="729.19 157.2 733.54 168.77 713.5 166.25 729.19 157.2"/><path class="f" d="M95.99,213.08c0,1.78-.63,3.76-1.65,5.52-1.01,1.74-2.4,3.27-3.93,4.15-3.08,1.78-5.58,.34-5.58-3.22s2.5-7.89,5.58-9.67,5.58-.34,5.58,3.22Z"/><path class="f" d="M507.43,427.21l10.16-34.86-20.1,11.6c-2.09,1.21-3.51,.63-3.64-1.48-.13-2.12-1.55-2.69-3.65-1.48l-10.17,5.87-12.66,43.47"/><polyline class="f" points="501.72 401.51 498.05 385.02 457.99 408.15 467.37 450.34 507.43 427.21"/><path class="f" d="M110.92,67.86l-8.49-29.14,16.8,9.7c1.75,1.01,2.93,.53,3.05-1.24,.11-1.77,1.29-2.25,3.05-1.23l8.5,4.9,10.59,36.35"/><polyline class="f" points="115.7 46.38 118.77 32.59 152.26 51.93 144.42 87.2 110.92 67.86"/><path class="f" d="M406.44,470.92c-3.39,1.96-8.9,1.96-12.3,0-3.39-1.96-3.39-5.14,0-7.1,3.4-1.96,8.9-1.96,12.3,0,3.4,1.96,3.4,5.15,0,7.1Z"/><path class="f" d="M408.98,401.83c-.05,1.25-.9,2.48-2.55,3.43-3.39,1.96-8.9,1.96-12.3,0-1.7-.98-2.55-2.26-2.55-3.55s.85-2.57,2.55-3.55c3.4-1.96,8.9-1.96,12.3,0,1.7,.98,2.55,2.26,2.55,3.55"/><path class="f" d="M408.98,401.71v45.47c0,1.28-.85,2.57-2.55,3.55-3.39,1.96-8.9,1.96-12.3,0-1.69-.98-2.55-2.27-2.55-3.55v-45.47"/><path class="f" d="M560.26,107.41c-3.23-1.97-3.18-5.08,.16-7.01,3.4-1.96,8.9-1.96,12.3,0,1.68,.97,2.54,2.24,2.55,3.52"/><path class="f" d="M575.27,38.41c-.05,1.25-.9,2.48-2.55,3.43-3.39,1.96-8.9,1.96-12.3,0-1.7-.98-2.55-2.26-2.55-3.55s.85-2.57,2.55-3.55c3.4-1.96,8.9-1.96,12.3,0,1.7,.98,2.55,2.26,2.55,3.55"/><path class="f" d="M575.27,38.28v45.47c0,1.28-.85,2.57-2.55,3.55-3.39,1.96-8.9,1.96-12.3,0-1.69-.98-2.55-2.27-2.55-3.55V38.28"/><path class="f" d="M671.54,396.16c22.16,13.72,21.65,35.23-1.51,48.6-23.67,13.67-62.06,13.67-85.74,0-22.84-13.19-23.64-34.28-2.41-48.02"/><path class="f" d="M642.93,412.68c6.41,4.59,5.93,11.32-1.45,15.59-7.9,4.56-20.71,4.56-28.61,0-7.11-4.11-7.82-10.51-2.13-15.08"/><polyline class="f" points="754.03 421.3 742.99 440.42 732.93 434.61 724.17 449.79 713.13 443.42 702.1 462.54 690.73 455.98 681.32 472.28"/><circle class="f" cx="622.75" cy="53.31" r="10.33" transform="translate(428.45 647.37) rotate(-76.78)"/><line class="f" x1="32.59" y1="36.67" x2="12.24" y2="36.67"/><line class="f" x1="22.42" y1="30.8" x2="22.42" y2="42.55"/><line class="f" x1="964.83" y1="435.29" x2="944.48" y2="435.29"/><line class="f" x1="954.65" y1="429.41" x2="954.65" y2="441.16"/><path class="f" d="M179.95,110.36l-2.82,6.58c-1.39,2.95-.08,6.23,3.93,8.55,2.98,1.72,6.88,2.58,10.78,2.58s7.8-.86,10.78-2.58c4.01-2.31,5.32-5.6,3.93-8.55l-14.72-34.39-11.9,27.81Z"/><path class="f" d="M203.76,110.36c.26,.61,.38,1.25,.35,1.87-.07,1.76-1.27,3.5-3.59,4.83-4.78,2.77-12.54,2.77-17.33,0-2.4-1.39-3.59-3.19-3.59-5,0-.57,.12-1.14,.36-1.7"/><path class="f" d="M409.21,105.57l-3.61,8.45c-1.78,3.78-.1,8,5.04,10.97,3.82,2.21,8.83,3.31,13.84,3.31s10.02-1.11,13.84-3.31c5.15-2.97,6.83-7.19,5.04-10.97l-3.61-8.45"/><path class="f" d="M439.75,105.57c.28,.65,.43,1.31,.46,1.97-.09,2.26-1.63,4.48-4.61,6.2-6.14,3.55-16.09,3.55-22.24,0-2.97-1.72-4.51-3.94-4.6-6.2,.03-.66,.18-1.32,.46-1.97,.67-1.55,2.04-3.01,4.14-4.23,1.72-.99,3.73-1.71,5.87-2.14,5.54-1.13,11.95-.42,16.37,2.14,2.1,1.21,3.48,2.68,4.15,4.23Z"/><line class="f" x1="427.72" y1="44.26" x2="427.72" y2="34.66"/><line class="f" x1="438.18" y1="50.3" x2="438.18" y2="13.9"/><line class="f" x1="448.63" y1="56.33" x2="448.63" y2="32.12"/><line class="f" x1="459.09" y1="62.37" x2="459.09" y2="53.58"/><line class="f" x1="469.54" y1="68.4" x2="469.54" y2="57.59"/><line class="f" x1="480" y1="74.44" x2="480" y2="42.1"/><line class="f" x1="490.45" y1="80.47" x2="490.45" y2="56.26"/><line class="f" x1="500.9" y1="86.5" x2="500.9" y2="74.47"/><line class="f" x1="511.36" y1="92.54" x2="511.36" y2="84.57"/><line class="f" x1="521.81" y1="98.58" x2="521.81" y2="82.48"/><line class="f" x1="560.61" y1="321.69" x2="560.61" y2="310.87"/><line class="f" x1="550.16" y1="327.73" x2="550.16" y2="295.4"/><line class="f" x1="539.7" y1="333.76" x2="539.7" y2="309.55"/><line class="f" x1="529.25" y1="339.79" x2="529.25" y2="327.76"/><line class="f" x1="518.8" y1="345.83" x2="518.8" y2="337.85"/><line class="f" x1="508.34" y1="351.86" x2="508.34" y2="335.77"/><path class="f" d="M393.74,165.29c-1.7-.98-3.08-.19-3.08,1.78s1.38,4.35,3.08,5.34c1.7,.98,3.08,.19,3.08-1.78s-1.38-4.35-3.08-5.34Z"/><path class="f" d="M379.5,157.07c-1.71-.98-3.08-.19-3.08,1.78s1.37,4.35,3.08,5.34c1.7,.98,3.08,.19,3.08-1.78s-1.38-4.35-3.08-5.34Z"/><path class="f" d="M375.82,177.03c0,2.29,1.86,5.22,4.15,6.55l13.3,7.68c2.29,1.32,4.15,.54,4.15-1.75,0-1.15-.47-2.45-1.22-3.64-.75-1.18-1.79-2.25-2.93-2.91l-13.3-7.68c-2.29-1.32-4.15-.54-4.15,1.75Z"/><polyline class="f" points="354.76 120.71 405.92 91.51 419.23 99.2"/><line class="f" x1="418.48" y1="255.19" x2="395.91" y2="242.16"/><polyline class="f" points="366.52 225.19 354.76 218.4 354.76 120.71"/><line class="f" x1="354.76" y1="120.71" x2="418.48" y2="157.49"/><line class="f" x1="418.48" y1="157.49" x2="418.48" y2="255.19"/><polyline class="f" points="442.87 112.84 469.64 128.3 469.64 225.7 418.48 255.19"/><line class="f" x1="469.64" y1="128.3" x2="418.48" y2="157.49"/><path class="f" d="M432.08,233.1c-1.68,.98-3.05-.06-3.05-2.31v-17.86c0-2.26,1.37-4.87,3.05-5.84,.43-.25,.84-.37,1.22-.37,1.08,0,1.84,1,1.84,2.68v17.86c0,2.25-1.37,4.86-3.06,5.84Z"/><path class="f" d="M444.06,225.91c-1.69,.98-3.06-.06-3.06-2.31v-17.86c0-2.25,1.37-4.87,3.06-5.84,.43-.25,.84-.36,1.21-.36,1.09,0,1.85,1,1.85,2.68v17.86c0,2.26-1.37,4.87-3.06,5.84Z"/><path class="f" d="M456.04,218.74c-1.69,.98-3.06-.06-3.06-2.31v-17.86c0-2.26,1.37-4.86,3.06-5.84,.43-.25,.84-.37,1.22-.37,1.08,0,1.84,1,1.84,2.68v17.86c0,2.25-1.37,4.86-3.06,5.84Z"/><polygon class="f" points="375.82 266.22 355.73 254.62 355.73 231.42 375.82 243.02 395.91 231.42 395.91 254.62 375.82 266.22"/><polyline class="f" points="355.73 231.42 375.82 219.82 395.91 231.42"/><line class="f" x1="375.82" y1="243.02" x2="375.82" y2="266.22"/><path class="f" d="M481.01,293.08c0,.11,0,.21,0,.32,0,16.79-11.79,37.21-26.33,45.61-11.41,6.59-21.12,3.82-24.78-5.8-1-2.63-1.55-5.78-1.55-9.4,0-4.16,.72-8.55,2.03-12.91,2.57-8.57,7.41-17.09,13.46-23.75,3.3-3.64,6.97-6.72,10.84-8.95,2.87-1.66,5.63-2.72,8.21-3.23,5.93-1.17,10.93,.54,14.17,4.69,2.46,3.15,3.77,7.7,3.94,13.43Z"/><path class="f" d="M524.5,254.82c6.04-2.96,10.8,.13,10.8,7.24,0,7.46-5.24,16.54-11.7,20.27-6.18,3.57-11.28,.96-11.68-5.81-.02-.31-.03-.62-.03-.95,0-.96,.09-1.95,.25-2.95,.19-1.16,.49-2.35,.88-3.52,.92-2.74,2.33-5.45,4.09-7.8,.48-.65,.99-1.27,1.52-1.86,1.51-1.69,3.18-3.12,4.96-4.14,.31-.18,.61-.34,.91-.48Z"/><path class="f" d="M527.55,266.53c0,2.52-1.77,5.59-3.96,6.85-2.18,1.26-3.95,.24-3.95-2.28s1.77-5.59,3.95-6.85c2.18-1.26,3.96-.24,3.96,2.28Z"/><path class="f" d="M511.92,276.51h0c-2.55,1.25-4.87,1.41-6.7,.66-2.51-1.03-4.1-3.79-4.1-7.9,0-.22,0-.43,.02-.65,.33-7.33,5.41-16,11.69-19.62,6.18-3.57,11.25-.95,11.68,5.82"/><path class="f" d="M464.43,302.98c0,6.22-4.37,13.78-9.75,16.89-5.39,3.11-9.75,.59-9.75-5.63s4.37-13.78,9.75-16.89c5.39-3.11,9.75-.59,9.75,5.63Z"/><path class="f" d="M429.9,333.21c-10.52,2.09-18.12-4.95-18.12-18.44,0-16.79,11.79-37.21,26.33-45.61,11.41-6.59,21.13-3.82,24.78,5.8"/><path class="f" d="M430.38,310.9c-1.27-1.17-2.02-3.11-2.02-5.7,0-6.22,4.37-13.78,9.75-16.89,2.14-1.23,4.12-1.58,5.73-1.16"/><line class="f" x1="477.06" y1="279.66" x2="517.11" y2="261.3"/><line class="f" x1="481.01" y1="293.08" x2="512.14" y2="272.63"/><path class="f" d="M513.02,269.11l-3-1.76c-.66-.38-1.08-1.17-1.14-2.28-.01-.09-.01-.18-.01-.27,0-2.52,1.77-5.58,3.96-6.85,1.09-.63,2.09-.69,2.81-.27l3,1.76"/><path class="f" d="M560.26,107.41c-16.1,6.84-27.4,22.81-27.4,41.41,0,24.83,20.13,44.97,44.97,44.97s44.97-20.13,44.97-44.97-20.14-44.97-44.97-44.97c-.86,0-1.71,.02-2.55,.07-5.3,.31-10.35,1.51-15.01,3.49,0,0,0,0,0,0Z"/><path class="f" d="M578.65,121.27c-12.15,7.01-22.27,22.93-24.43,37.49,.28,.17,.57,.35,.86,.52,13.26,7.58,34.37,7.92,48.18,.84-1.72-14.91-12.08-31.61-24.62-38.84Z"/><line class="f" x1="578.65" y1="121.27" x2="578.65" y2="146.34"/><polyline class="f" points="603.27 160.11 578.65 146.34 554.22 158.76"/><polygon class="f" points="737.17 110.24 704.33 113.17 671.49 72.32 671.49 28.54 704.33 25.6 737.17 66.46 737.17 110.24"/><path class="f" d="M703.32,53.69c1.53,2.64,2.49,5.62,2.49,8.31,0,5.34-3.74,7.5-8.37,4.83-2.33-1.35-4.44-3.66-5.95-6.31-1.49-2.61-2.41-5.53-2.41-8.18,0-5.34,3.75-7.5,8.37-4.83,2.29,1.32,4.37,3.59,5.87,6.18Z"/><path class="f" d="M716.54,85.49c.59,1.19,.93,2.47,.93,3.64,0,2.77-1.94,3.89-4.34,2.51-1.01-.59-1.95-1.53-2.69-2.63-1.01-1.5-1.65-3.29-1.65-4.88,0-2.77,1.94-3.89,4.34-2.51,1.38,.8,2.61,2.25,3.41,3.87Z"/><polyline class="f" points="671.49 28.54 691.73 16.4 724.57 13.46 757.4 54.31 757.4 98.1 737.17 110.24"/><line class="f" x1="704.33" y1="25.6" x2="724.57" y2="13.46"/><line class="f" x1="737.17" y1="66.46" x2="757.4" y2="54.31"/><line class="f" x1="651.34" y1="83.71" x2="703.32" y2="53.69"/><line class="f" x1="739.92" y1="32.57" x2="752.84" y2="25.1"/><polyline class="f" points="663.73 83.42 651.34 83.71 651.84 76.55"/><line class="f" x1="780.58" y1="48.5" x2="757.4" y2="61.88"/><line class="f" x1="716.54" y1="85.49" x2="700.26" y2="94.9"/><polyline class="f" points="780.07 55.66 780.58 48.5 768.18 48.79"/><line class="f" x1="683.15" y1="152.93" x2="683.15" y2="227.7"/><line class="f" x1="698.01" y1="288.95" x2="873.01" y2="186.92"/><polyline class="f" points="677.2 163.81 683.15 152.93 689.09 156.94"/><polyline class="f" points="866.56 183.78 873.01 186.92 866.56 197.51"/><path class="f" d="M698.01,286.04c26.44-26.42,20.64-65.2,45.73-82.31,14.44-6.82,18.65,5.35,24.66,16.12"/><path class="f" d="M737.37,266c.15-.09,.3-.18,.45-.27,16.28-9.93,24.85-27.01,30.58-45.89,4.28-14.11,7.07-29.1,10.56-42.45,3.1-11.84,6.76-22.4,12.53-29.92,1.85-2.41,3.93-4.52,6.27-6.25,2.34-.98,4.42-1.27,6.27-1,5.77,.85,9.44,7.18,12.54,15.45,7.59,20.21,11.81,51.99,35.29,43.57,.04-.02,.08-.03,.12-.04"/><line class="f" x1="778.97" y1="241.77" x2="778.97" y2="177.39"/><line class="f" x1="791.5" y1="233.81" x2="791.5" y2="147.47"/><line class="f" x1="804.04" y1="227.15" x2="804.04" y2="140.23"/><line class="f" x1="816.58" y1="219.84" x2="816.58" y2="155.68"/><line class="f" x1="774.3" y1="279.36" x2="826.33" y2="309.41"/><polygon class="f" points="778.25 277.09 765.85 274.49 770.36 281.64 778.25 277.09"/><line class="f" x1="811.11" y1="258.12" x2="833.98" y2="271.32"/><polygon class="f" points="815.05 255.84 802.65 253.24 807.16 260.39 815.05 255.84"/><path class="f" d="M254.43,42.04c-4.68-1.33-9.99-5.69-12.09-10.27,0,0,4.07-5.21,9.12-8.84,1.57-1.13,4.19-1.76,6.08-1.76,3.6,0,8.48,2.03,8.48,7.49,0,.66-.02,1.94-.02,1.96"/><path class="e" d="M261.57,39.56c0,.15,.03,.29,.07,.43l.33,2.04c.15,.94-.38,1.85-1.26,2.19-1.36,.53-3.39,.97-4.89-.2-.58-.46-.84-1.24-.67-1.96,0-.02,.01-.05,.02-.07l.52-2.06,.67-5.96c.18-.45,.53-.85,1.05-1.08,1.36-.6,2.56-1.5,3.53-2.6,.68-.78,1.53-1.49,2.58-1.49s1.8,.88,2.24,1.94c.39,.92,.57,1.98,.57,2.73,0,2.32-2.4,4.61-4.53,4.81-.13,.32-.23,.75-.23,1.14,0,.05,0,.1,0,.15Z"/><path class="f" d="M252.27,72.88c-1.76,2.46-3.19,5.13-4.37,7.91"/><path class="f" d="M245.42,88.17c-4.15,15.81-3.49,24.9-3.49,24.9-.06,2.29,1.61,4.89,4.43,6.56,2.21,1.3,5.12,2.03,8.48,1.58,1.56-.21,3.03-.46,4.42-.75,1.49-.31,2.88-.67,4.19-1.1,4.66-1.51,8.37-3.83,11.91-7.51,.44-.45,.88-.93,1.31-1.43,1.8-2.07,2.45-4.91,1.71-7.55l-9.08-31.19"/><path class="f" d="M246.36,119.63c-2.08,13.39-1.64,24.07,.8,40.44,.08,.58,.29,1.12,.59,1.58,.96,1.5,2.86,2.27,4.67,1.66,1.09-.36,1.94-1.17,2.4-2.17,.21-.47,.34-.99,.35-1.53,.5-15.86,1.14-24.41,4.09-39.15h0"/><path class="f" d="M263.45,119.36c.01,8.67,3.51,19.36,7.93,32.52,.06,.17,.12,.34,.17,.52,.61,1.86,2.79,2.67,4.49,1.7,1.07-.61,1.68-1.81,1.55-3.04-.04-.39-.08-.77-.12-1.15-1.66-15.68-2.73-24.62-2.12-38.06"/><path class="f" d="M247.75,161.65l-.27,1.69c-.25,1.55,.43,3.11,1.72,4.01l8.95,6.13c.57,.39,1.31,.45,1.94,.16,1.07-.5,1.45-1.82,.82-2.82l-6.1-9.67"/><path class="f" d="M271.38,151.87h0l-.27,1.73c-.25,1.56,.42,3.12,1.72,4.01l8.95,6.13c.57,.39,1.31,.45,1.94,.16,1.07-.5,1.46-1.82,.83-2.82l-7.04-11.17h-.03"/><path class="f" d="M249.62,47.51c.51,.65,.95,1.55,1.18,2.72,.12,.62,.18,1.23,.18,1.82,0,2.6-1.13,4.95-3.09,7.11l-5.63,7.6c-.79,1.07-.95,2.49-.39,3.7,1.64,3.59,3.52,6.88,6.03,10.32,.6,.82,1.23,1.66,1.91,2.5,.43,.54,.67,1.18,.71,1.83,.05,.83-.19,1.67-.74,2.34-.94,1.15-2.47,1.49-3.78,1.01-.21-.08-.4-.17-.59-.3-.18-.12-.36-.25-.52-.41-4.98-4.81-8.58-8.96-12.09-14.68-1.36-2.22-1.36-5.03,.02-7.25,6.84-11.02,12.19-19.2,16.6-21.22l5.73-2.56"/><path class="f" d="M261.57,39.56c4.07-.48,8.04,2.34,8.62,6.67,.37,2.78,.26,3.56,1.43,5.89,1.68,3.38,.8,7.09-.58,10.58-1.15,2.9-.35,6.46-1.76,8.98-1.07,1.92-3.41,3.25-8.84,3.25-1.82,0-5.76-.02-7.1-1.04-.4-.31-.77-.65-1.07-1.02-.06-.06-.11-.12-.16-.19-2.32-5.01-4.02-8.7-5.09-12.34"/><path class="f" d="M246.01,88.47l1.06,3.92c.26,.94,.99,1.68,1.93,1.95l3.61,1.02c.88,.25,1.62-.66,1.22-1.48-.88-1.75-1.8-4.09-1.2-5.3,.63-1.26,1.74-1.59,2.51-1.65,.46-.04,.81-.43,.79-.9-.02-.45-.39-.8-.84-.81l-4.57-.11"/><polyline class="f" points="118.55 164.35 131.37 156.94 184.62 187.69 164.35 199.39 118.55 172.95"/><line class="f" x1="134.81" y1="182.33" x2="155.08" y2="170.63"/><line class="f" x1="143.39" y1="187.29" x2="143.39" y2="177.37"/><line class="f" x1="153.02" y1="192.84" x2="153.02" y2="171.82"/><line class="f" x1="162.63" y1="198.4" x2="162.63" y2="175"/><line class="f" x1="172.25" y1="194.83" x2="172.25" y2="180.55"/><polygon class="f" points="776.84 356.75 800.94 343 780.19 331.22 726.95 361.96 747.21 373.66 776.84 356.75"/><line class="f" x1="776.76" y1="356.61" x2="756.49" y2="344.9"/><line class="f" x1="768.17" y1="361.56" x2="768.17" y2="351.65"/><line class="f" x1="758.55" y1="367.11" x2="758.55" y2="346.09"/><line class="f" x1="748.93" y1="372.67" x2="748.93" y2="349.27"/><line class="f" x1="739.31" y1="369.1" x2="739.31" y2="354.82"/><path class="f" d="M1055.99,180.86c.59,.22,1.14,.49,1.67,.79,4.2,2.42,4.2,6.35,0,8.77-4.19,2.42-10.98,2.42-15.18,0-4.19-2.42-4.19-6.35,0-8.77,.52-.3,1.08-.56,1.67-.79"/><path class="f" d="M1055.99,151.18c-.04,.85-.62,1.69-1.73,2.33-2.31,1.34-6.06,1.34-8.37,0-1.16-.67-1.73-1.54-1.73-2.42s.58-1.75,1.73-2.41c2.31-1.34,6.06-1.34,8.37,0,1.16,.66,1.73,1.54,1.73,2.41"/><path class="f" d="M1055.99,151.1v30.36c0,.88-.58,1.75-1.73,2.42-2.31,1.33-6.06,1.33-8.37,0-1.16-.67-1.73-1.54-1.73-2.42v-30.36"/><path class="f" d="M1028.19,165.98c.59,.22,1.15,.49,1.67,.79,4.2,2.42,4.2,6.35,0,8.76-4.19,2.42-10.98,2.42-15.18,0-4.19-2.42-4.19-6.35,0-8.76,.52-.3,1.08-.57,1.67-.79"/><path class="f" d="M1028.19,136.3c-.03,.85-.62,1.69-1.73,2.33-2.31,1.34-6.05,1.34-8.37,0-1.16-.67-1.73-1.54-1.73-2.42s.58-1.75,1.73-2.41c2.32-1.34,6.06-1.34,8.37,0,1.16,.66,1.73,1.54,1.73,2.41"/><path class="f" d="M1028.19,136.22v30.36c0,.88-.58,1.75-1.73,2.42-2.31,1.33-6.05,1.33-8.37,0-1.15-.67-1.73-1.54-1.73-2.42v-30.36"/><path class="f" d="M1000.39,151.1c.59,.22,1.15,.49,1.67,.79,4.2,2.42,4.2,6.35,0,8.76-4.19,2.42-10.98,2.42-15.18,0-4.19-2.42-4.19-6.34,0-8.76,.52-.3,1.08-.57,1.67-.79"/><path class="f" d="M1000.39,121.42c-.03,.85-.61,1.69-1.73,2.33-2.31,1.34-6.05,1.34-8.37,0-1.16-.67-1.73-1.54-1.73-2.42s.57-1.75,1.73-2.41c2.31-1.34,6.06-1.34,8.37,0,1.17,.66,1.74,1.54,1.73,2.41"/><path class="f" d="M1000.39,121.34v30.36c0,.88-.57,1.75-1.73,2.42-2.31,1.33-6.05,1.33-8.37,0-1.16-.67-1.73-1.54-1.73-2.42v-30.36"/><path class="f" d="M1000.77,31l-.24,.13c-4.42,2.37-7.17,7.7-7.17,15.35,0,.85,.03,1.71,.1,2.58,0,.07,.02,.13,.02,.2-.01,0-.02,0-.03-.01-8.49-4.38-15.22-.16-15.22,9.77s7.2,22.76,16.1,27.9l47.82,27.59c5.07,2.93,9.67,3.27,13.05,1.45l.11-.06"/><path class="f" d="M1000.77,31c2.55-1.29,5.64-1.62,9.07-.87,2.21,.47,4.54,1.4,6.99,2.81,11.95,6.9,21.82,22.92,23.27,37.11,.67,.3,1.35,.65,2.04,1.04,10.38,6,18.8,20.58,18.8,32.57,0,1.55-.15,2.97-.41,4.27-.78,3.82-2.64,6.55-5.23,7.98l15.04-8.07c3.55-1.9,5.75-6.17,5.75-12.32,0-11.99-8.42-26.57-18.8-32.56-.69-.4-1.37-.75-2.04-1.05-1.46-14.19-11.32-30.21-23.27-37.11-6.33-3.65-12.07-4.08-16.29-1.81l-14.93,8.01Z"/><path class="f" d="M834.11,90.67l.95-1.34c4.09-6.18,8.26-12.02,12.51-17.52l-13.46-3.32c.3,7.12,.29,14.52,0,22.17Z"/><path class="f" d="M813.34,80.48l.95,.24c4.09,1.46,8.26,2.48,12.51,3.08l-13.47,18.86c.3-7.47,.3-14.86,0-22.18Z"/><path class="f" d="M792.58,114.64l.96-1.34c4.09-6.18,8.25-12.02,12.51-17.52l-13.47-3.32c.3,7.13,.3,14.52,0,22.18Z"/><path class="f" d="M993.42,338.9c.07,.54,.11,1.08,.11,1.64,0,7.22-5.86,13.07-13.08,13.07s-13.08-5.85-13.08-13.07,5.86-13.08,13.08-13.08c3,0,5.77,1.02,7.98,2.72,2.69,2.07,4.54,5.18,4.99,8.72Z"/><path class="f" d="M1034.61,301.3c-.7-2.27-1.08-4.67-1.08-7.17,0-2.23,.3-4.39,.86-6.44,1.93-7.05,6.97-12.82,13.53-15.76,3.03-1.36,6.38-2.11,9.91-2.11,13.42,0,24.3,10.88,24.3,24.31s-10.88,24.3-24.3,24.3c-1.27,0-2.51-.1-3.73-.29"/><path class="f" d="M1047.93,271.93l-12.73-29.74-14.71,34.39c-1.39,2.95-.08,6.23,3.93,8.55,2.77,1.6,6.35,2.46,9.98,2.57"/><path class="f" d="M1022.48,352.02l-5.43,12.68c-2.69,5.71-.12,12,7.61,16.55,.11,.07,.22,.13,.34,.2"/><path class="f" d="M1065.82,381.58c.2-.11,.4-.22,.6-.34,7.73-4.55,10.3-10.84,7.61-16.55l-28.49-66.57-23.04,53.83"/><path class="f" d="M1068.58,351.95c.51,1.19,.74,2.41,.68,3.62-.13,3.42-2.46,6.77-6.95,9.35-9.26,5.36-24.28,5.36-33.55,0-4.64-2.68-6.95-6.17-6.95-9.69,0-1.08,.22-2.17,.67-3.23,.01-.02,.02-.04,.03-.07"/><polyline class="f" points="1025.3 345.42 1015.01 351.36 993.42 338.9"/><polyline class="f" points="988.43 330.18 988.43 305.33 1015.01 320.67 1041.59 305.33 1041.59 307.36"/><polyline class="f" points="988.43 305.33 1015.01 289.98 1041.59 305.33"/><line class="f" x1="1015.01" y1="320.67" x2="1015.01" y2="351.36"/><polyline class="f" points="865.89 266.19 898.37 247.44 925.85 263.31"/><polyline class="f" points="917.02 274.17 898.37 284.94 865.89 266.19 865.89 303.69 898.37 322.44 909.9 315.78"/><line class="f" x1="898.37" y1="284.94" x2="898.37" y2="322.44"/><path class="f" d="M1080.07,470.19c0,5-3.3,10-9.91,13.81-6.6,3.82-15.26,5.72-23.91,5.72s-17.32-1.9-23.92-5.72c-6.76-3.9-10.05-9.04-9.9-14.16"/><path class="f" d="M932.95,348.32s79.88,66.77,80.3,67.08c1.1,.83,2.31,1.63,3.63,2.38,16.22,9.36,42.51,9.36,58.72,0,1.31-.76,2.52-1.56,3.62-2.38,.42-.32,.82-.63,1.21-.96l79.33-66.32"/><line class="f" x1="1013.26" y1="415.41" x2="1012.43" y2="470.19"/><path class="f" d="M973.71,234.61c53.29-18.99,124.08-15.16,170.29,11.52,8.56,4.94,15.76,10.36,21.6,16.12,6.22,6.13,10.9,12.64,14.06,19.34,.38,.8,.73,1.6,1.05,2.4,8.85,21.63,2.02,44.89-20.6,63.87-.11,.09-.22,.18-.33,.27-4.64,3.78-9.88,7.46-15.78,10.87-11.44,6.6-24.37,11.8-38.17,15.61-6.41,1.77-13.01,3.23-19.72,4.39-6.66,1.15-13.44,2.01-20.28,2.58-13.54,1.11-27.3,1.06-40.82-.15-28-2.5-54.93-9.98-76.51-22.43-5.81-3.35-10.95-6.97-15.54-10.68-.19-.15-.38-.31-.56-.47-11.68-9.84-19.22-20.77-22.49-32.08-4.02-13.9-1.65-28.3,7.11-41.61,2.45-3.72,5.39-7.34,8.84-10.86,6.02-6.15,13.57-11.94,22.65-17.18,1.79-1.03,3.62-2.04,5.49-3"/><path class="f" d="M973.71,217.36c-.06,1.42-1.03,2.81-2.89,3.89-3.85,2.23-10.09,2.23-13.94,0-1.93-1.12-2.89-2.56-2.89-4.03s.96-2.91,2.89-4.02c3.85-2.23,10.09-2.23,13.94,0,1.93,1.11,2.89,2.56,2.89,4.02"/><path class="f" d="M973.71,217.22v96.45c0,1.45-.96,2.91-2.89,4.02-3.85,2.22-10.09,2.22-13.94,0-1.92-1.11-2.89-2.57-2.89-4.02v-96.45"/><path class="f" d="M902.92,79.09c1.28,6.48,2.33,12.47,3.2,18.22,2.79,18.33,3.9,34.12,5.2,55.21,.02,.28,.08,.55,.16,.8,.31,.91,1.05,1.63,2,1.91,1.7,.51,3.47-.53,3.85-2.28,.06-.29,.12-.57,.17-.85,3.11-15.12,5.24-28.95,3.01-38.6l1.07-14.52"/><path class="f" d="M922.35,76.84c-1.33,.57-2.92,.98-5.37,.98-7.91,0-10.66-2.84-12.39-3.15l-10.9-5.95"/><path class="f" d="M893.69,68.31l-3.47,74.39c-.03,.6,.09,1.18,.32,1.72,.31,.71,.85,1.34,1.54,1.74,1.57,.93,3.49,.59,4.67-.61,.39-.4,.71-.9,.89-1.49,3.52-10.82,4.52-19.23,3.79-31.72l4.69-15.03"/><path class="f" d="M911.49,153.32c-3.71,3.09-5.6,3.86-5.6,6.01,0,.35,.06,.75,.18,1.18,.63,.17,1.3,.26,2.01,.26,4.28,0,9.57-3.04,9.57-7.43,0-.4-.04-.82-.14-1.24"/><path class="f" d="M890.55,144.42s-10.05,7.28-3.21,7.28c3.85,0,8.52-2.46,9.42-6.15"/><path class="f" d="M921.55,50.37l1.14,37.77-4.35,7.79,4.12,3.89s2.52-.46,5.27-3.43c.21-1.29,.57-4.35,.95-8.38,.73-7.55,1.58-18.48,1.88-27.46,.22-6.65,.13-12.22-.54-14.53-1.41-4.85-5.82-8-10.38-10.45-1.03-.55-2.05-1.07-3.06-1.57"/><path class="f" d="M905.63,29.38c-2.24-.4-4.42-.15-6.97,1.07-1.45,.69-4.55,2.61-5.96,5.03-2.14,3.67-3.06,7.76-3.42,11.97-.07,.79-.12,1.58-.15,2.38l-1.32,31.69,4.63,5.04"/><path class="f" d="M904.32,20.13s0,.04-.01,.06c-.44,2.54-.45,6.84,1.32,9.2,.12,.16,.25,.31,.39,.45,.55,.55,1.23,.96,2.08,1.11,.17,.03,.34,.05,.5,.07"/><path class="f" d="M908.6,31.01c.29,2.36,1.64,4.56,4.19,4.56,1.27,0,2.63-.56,3.78-1.57,.13-.1,.25-.22,.37-.34-.6-1.3-.62-3.01-.62-4.45v-.3c0-1.07,.04-2.13,.11-3.19,.05-.87,.13-1.74,.2-2.61,.04-.46,.09-.93,.13-1.39,.05-.55,.33-1.17,.59-1.68,.64-1.25,1.32-3.34,1.32-4.71,0-2.63-3.29-3.94-6.01-3.94-5.2,0-5.31,4.75-9.42,4.75-.62,0-1.24-.1-1.79-.24,0,.25-.01,.49-.01,.74,0,1.58,.67,2.58,1.77,3.13,.06,.03,.06,.09,.09,.15,.34,.12,.68,.21,1,.27,.47,.09,.92,.12,1.36,.12,1.23,0,2.37-.26,3.55-.26,5.2,0,3.24,3.16,7.22,5.67"/><path class="f" d="M893.69,68.94v-.21c0-.1,0-.24,0-.42,.05-2.41,.14-11.31,1.02-18.67,.53-4.43,1.33-8.3,2.54-9.87"/><path class="f" d="M921.88,61.1c.58,.05,1.23,.07,2,.07h.91c2.06,0,4.01-.15,5.77-.62"/><path class="f" d="M890.37,47.55c1.13,.95,2.58,1.67,4.35,2.08"/><polyline class="f" points="328.32 17.39 329.07 76.53 380.74 105.88"/><polyline class="f" points="335.14 29.19 328.32 17.39 321.5 21.32"/><path class="f" d="M378.87,43.09c4.07,6.25,6.67,13.63,6.67,20.21,0,1.68-.17,3.21-.49,4.59-1.91,8.28-9.2,11.05-17.9,6.03-10.16-5.86-18.39-20.12-18.39-31.85s8.23-16.48,18.39-10.62c4.45,2.58,8.54,6.76,11.72,11.64Z"/><path class="f" d="M378.87,43.09c2.17-2.28,5.75-2.53,9.8-.19,6.63,3.83,12,13.14,12,20.79s-5.37,10.76-12,6.93c-1.26-.73-2.47-1.65-3.61-2.73-4.86-4.58-8.39-11.86-8.39-18.06,0-2.99,.81-5.28,2.21-6.74Z"/><path class="f" d="M1079.75,448.93c2.9,1.16,5.65,2.49,8.23,3.98,23.5,13.57,23.5,35.57,0,49.14-23.5,13.57-61.61,13.57-85.12,0-23.51-13.57-23.51-35.57,0-49.14,3.07-1.78,6.39-3.32,9.9-4.63"/></g></g></g><g id="c"/></svg>