<?xml version="1.0" encoding="utf-8"?>
<!-- Generator: Adobe Illustrator 26.2.1, SVG Export Plug-In . SVG Version: 6.00 Build 0)  -->
<svg version="1.1" id="Layer_1" xmlns="http://www.w3.org/2000/svg" xmlns:xlink="http://www.w3.org/1999/xlink" x="0px" y="0px"
	 viewBox="0 0 1068 500" style="enable-background:new 0 0 1068 500;" xml:space="preserve">
<style type="text/css">
	.st0{fill:#0F1D39;}
	.st1{fill:none;stroke:#345D75;stroke-width:2;stroke-miterlimit:10;stroke-dasharray:4,6;}
	.st2{fill:#FFFFFF;}
	.st3{fill:#FAD45B;}
	.st4{fill:#9ECD6F;}
	.st5{fill:#EE5E82;}
	.st6{fill:#65C4D8;}
	.st7{fill:none;stroke:#345D75;stroke-width:2;stroke-miterlimit:10;}
	.st8{clip-path:url(#SVGID_00000152980046483247286720000016845670258273036979_);}
</style>
<path class="st0" d="M1048,500H20c-11,0-20-9-20-20V20C0,9,9,0,20,0h1028c11,0,20,9,20,20v460C1068,491,1059,500,1048,500z"/>
<path class="st1" d="M852.2,239.5c-86,0.1-155.6,70-155.5,156s70,155.6,156,155.5c85.9-0.1,155.5-69.8,155.5-155.8
	C1008,309.2,938.2,239.5,852.2,239.5z"/>
<path class="st1" d="M189.1,95c0-33.7-27.3-61.1-61-61.1S67,61.2,67,94.9S94.3,156,128,156c0,0,0,0,0.1,0
	C161.7,156,189.1,128.7,189.1,95z"/>
<path class="st1" d="M1050.2,186.5c0-16.9-13.6-30.5-30.5-30.6c-16.9,0-30.5,13.6-30.6,30.5c0,16.9,13.6,30.5,30.5,30.6l0,0
	C1036.5,217,1050.2,203.3,1050.2,186.5z"/>
<path class="st1" d="M213.5,219.2c0-11-8.9-19.9-19.8-19.9c-11,0-19.9,8.9-19.9,19.8s8.9,19.9,19.8,19.9c0,0,0,0,0.1,0
	C204.6,239,213.5,230.1,213.5,219.2L213.5,219.2z"/>
<rect x="153.4" y="418.6" class="st1" width="141.6" height="141.6"/>
<rect x="11.8" y="277" class="st1" width="141.6" height="141.6"/>
<g>
	<g>
		<g>
			<path class="st2" d="M424,334.6c3.9,2,7,4.9,9.1,8.6s3.2,8.1,3.2,13.1s-1.1,9.3-3.2,13s-5.2,6.5-9.1,8.4c-3.9,2-8.5,2.9-13.7,2.9
				h-16v-49.1h16C415.5,331.6,420.1,332.6,424,334.6z M423.5,369.5c3.1-3.1,4.6-7.5,4.6-13.1c0-5.7-1.5-10.1-4.6-13.3
				c-3.1-3.2-7.5-4.8-13.2-4.8h-8v35.9h8C416,374.1,420.4,372.6,423.5,369.5z"/>
		</g>
		<g>
			<path class="st2" d="M480.1,364.2h-29.7c0.2,3.1,1.4,5.6,3.5,7.5s4.6,2.8,7.6,2.8c4.3,0,7.4-1.8,9.2-5.4h8.7
				c-1.2,3.6-3.3,6.5-6.4,8.8s-6.9,3.4-11.5,3.4c-3.7,0-7-0.8-10-2.5c-2.9-1.7-5.2-4-6.9-7.1c-1.7-3-2.5-6.6-2.5-10.6
				s0.8-7.5,2.4-10.6c1.6-3,3.9-5.4,6.8-7s6.3-2.5,10.1-2.5c3.7,0,6.9,0.8,9.8,2.4s5.1,3.8,6.7,6.7c1.6,2.9,2.4,6.2,2.4,10
				C480.4,361.7,480.3,363.1,480.1,364.2z M472,357.7c0-3-1.1-5.3-3.2-7.1c-2.1-1.8-4.6-2.7-7.7-2.7c-2.8,0-5.2,0.9-7.1,2.6
				c-2,1.8-3.2,4.2-3.5,7.2H472z"/>
		</g>
		<g>
			<path class="st2" d="M524.3,364.2h-29.7c0.2,3.1,1.4,5.6,3.5,7.5s4.6,2.8,7.6,2.8c4.3,0,7.4-1.8,9.2-5.4h8.7
				c-1.2,3.6-3.3,6.5-6.4,8.8c-3.1,2.3-6.9,3.4-11.5,3.4c-3.7,0-7-0.8-10-2.5c-2.9-1.7-5.2-4-6.9-7.1c-1.7-3-2.5-6.6-2.5-10.6
				s0.8-7.5,2.4-10.6c1.6-3,3.9-5.4,6.8-7s6.3-2.5,10.1-2.5c3.7,0,6.9,0.8,9.8,2.4s5.1,3.8,6.7,6.7c1.6,2.9,2.4,6.2,2.4,10
				C524.6,361.7,524.5,363.1,524.3,364.2z M516.2,357.7c0-3-1.1-5.3-3.2-7.1c-2.1-1.8-4.6-2.7-7.7-2.7c-2.8,0-5.2,0.9-7.1,2.6
				c-2,1.8-3.2,4.2-3.5,7.2H516.2z"/>
		</g>
		<g>
			<path class="st2" d="M545.5,343c2.4-1.2,5-1.8,8-1.8c3.4,0,6.5,0.8,9.3,2.5s5,4,6.6,7s2.4,6.5,2.4,10.4s-0.8,7.4-2.4,10.5
				c-1.6,3.1-3.8,5.5-6.6,7.2s-5.9,2.6-9.3,2.6c-3,0-5.6-0.6-7.9-1.8c-2.3-1.2-4.2-2.7-5.6-4.5v24.1h-8v-57.4h8v5.7
				C541.3,345.7,543.1,344.2,545.5,343z M561.9,354.1c-1.1-2-2.6-3.4-4.4-4.4c-1.8-1-3.8-1.5-5.8-1.5s-3.9,0.5-5.8,1.6
				c-1.8,1-3.3,2.5-4.4,4.5c-1.1,2-1.7,4.3-1.7,7s0.6,5,1.7,7c1.1,2,2.6,3.5,4.4,4.6c1.8,1,3.7,1.6,5.8,1.6s4-0.5,5.8-1.6
				s3.3-2.6,4.4-4.6c1.1-2,1.7-4.4,1.7-7.1C563.6,358.4,563,356.1,561.9,354.1z"/>
		</g>
		<g>
			<path class="st2" d="M607.2,343.1c2.3,1.3,4.2,3.2,5.5,5.6c1.3,2.5,2,5.5,2,9v22.9h-8v-21.7c0-3.5-0.9-6.2-2.6-8
				c-1.7-1.9-4.1-2.8-7.1-2.8s-5.4,0.9-7.2,2.8s-2.6,4.5-2.6,8v21.7h-8v-52.2h8v17.9c1.4-1.6,3.1-2.9,5.2-3.8
				c2.1-0.9,4.4-1.3,6.9-1.3C602.2,341.2,604.9,341.8,607.2,343.1z"/>
		</g>
		<g>
			<path class="st2" d="M623.9,350.7c1.6-3,3.8-5.4,6.6-7c2.8-1.7,5.9-2.5,9.3-2.5c3.1,0,5.7,0.6,8,1.8c2.3,1.2,4.1,2.7,5.5,4.5
				v-5.6h8.1v38.9h-8.1V375c-1.4,1.8-3.2,3.4-5.6,4.6c-2.4,1.2-5,1.8-8,1.8c-3.3,0-6.4-0.9-9.2-2.6s-5-4.1-6.6-7.2
				s-2.4-6.6-2.4-10.5C621.4,357.2,622.2,353.7,623.9,350.7z M651.6,354.2c-1.1-2-2.6-3.5-4.3-4.5c-1.8-1-3.7-1.6-5.8-1.6
				s-4,0.5-5.8,1.5s-3.2,2.5-4.3,4.4c-1.1,2-1.7,4.3-1.7,7s0.6,5,1.7,7.1c1.1,2,2.6,3.6,4.4,4.6c1.8,1.1,3.7,1.6,5.8,1.6
				s4-0.5,5.8-1.6c1.8-1,3.2-2.6,4.3-4.6s1.7-4.3,1.7-7C653.3,358.5,652.7,356.2,651.6,354.2z"/>
		</g>
		<g>
			<path class="st2" d="M687.6,373.5l11-31.7h8.5l-14.8,38.9h-9.6L668,341.8h8.6L687.6,373.5z"/>
		</g>
		<g>
			<path class="st2" d="M748.4,364.2h-29.7c0.2,3.1,1.4,5.6,3.5,7.5s4.6,2.8,7.6,2.8c4.3,0,7.4-1.8,9.2-5.4h8.7
				c-1.2,3.6-3.3,6.5-6.4,8.8c-3.1,2.3-6.9,3.4-11.5,3.4c-3.7,0-7-0.8-10-2.5c-2.9-1.7-5.2-4-6.9-7.1c-1.7-3-2.5-6.6-2.5-10.6
				s0.8-7.5,2.4-10.6c1.6-3,3.9-5.4,6.8-7c2.9-1.6,6.3-2.5,10.1-2.5c3.7,0,6.9,0.8,9.8,2.4c2.9,1.6,5.1,3.8,6.7,6.7
				c1.6,2.9,2.4,6.2,2.4,10C748.7,361.7,748.6,363.1,748.4,364.2z M740.3,357.7c0-3-1.1-5.3-3.2-7.1c-2.1-1.8-4.6-2.7-7.7-2.7
				c-2.8,0-5.2,0.9-7.1,2.6c-2,1.8-3.2,4.2-3.5,7.2H740.3z"/>
		</g>
		<g>
			<path class="st2" d="M784.3,343.1c2.4,1.3,4.3,3.2,5.7,5.6c1.4,2.5,2,5.5,2,9v22.9h-8v-21.7c0-3.5-0.9-6.2-2.6-8
				c-1.7-1.9-4.1-2.8-7.1-2.8s-5.4,0.9-7.2,2.8s-2.6,4.5-2.6,8v21.7h-8v-38.9h8v4.4c1.3-1.6,3-2.8,5-3.7c2-0.9,4.2-1.3,6.5-1.3
				C779.1,341.2,781.8,341.8,784.3,343.1z"/>
		</g>
	</g>
	<rect x="276" y="370.7" class="st3" width="27.6" height="27.6"/>
	<rect x="303.6" y="315.6" class="st2" width="27.6" height="27.6"/>
	<rect x="303.6" y="370.7" class="st4" width="27.6" height="27.6"/>
	<rect x="331.2" y="343.1" class="st5" width="27.6" height="27.6"/>
	<rect x="276" y="315.6" class="st6" width="27.6" height="55.2"/>
</g>
<g>
	<path class="st2" d="M543.2,217v23.8H567v18.4h-23.8V283h-18.4v-23.8H501v-18.4h23.8V217H543.2 M544.2,216h-1h-18.4h-1v1v22.8H501
		h-1v1v18.4v1h1h22.8V283v1h1h18.4h1v-1v-22.8H567h1v-1v-18.4v-1h-1h-22.8V217V216L544.2,216z"/>
</g>
<polygon class="st7" points="923.3,30.2 923.3,16.5 912.7,16.5 912.7,30.2 899,30.2 899,40.8 912.7,40.8 912.7,54.5 923.3,54.5 
	923.3,40.8 937,40.8 937,30.2 "/>
<polygon class="st7" points="942.3,100.2 942.3,86.5 931.7,86.5 931.7,100.2 918,100.2 918,110.8 931.7,110.8 931.7,124.5 
	942.3,124.5 942.3,110.8 956,110.8 956,100.2 "/>
<polygon class="st7" points="1003.6,52.4 1003.6,33.5 988.9,33.5 988.9,52.4 970,52.4 970,67.1 988.9,67.1 988.9,86 1003.6,86 
	1003.6,67.1 1022.5,67.1 1022.5,52.4 "/>
<g>
	<defs>
		<rect id="SVGID_1_" x="280" y="64.2" width="507.9" height="93.9"/>
	</defs>
	<clipPath id="SVGID_00000177475602925489802450000011399030550566165648_">
		<use xlink:href="#SVGID_1_"  style="overflow:visible;"/>
	</clipPath>
	<g style="clip-path:url(#SVGID_00000177475602925489802450000011399030550566165648_);">
		<path class="st2" d="M364,87.1l-40.1-23v94.1l16-9.3v-26.5l12.1,7l-0.1-18.1l-12-6.9V94l24.1,14L364,87.1z"/>
		<path class="st2" d="M280.1,87.1l40.1-23v94.1l-16-9.3V94L280,108L280.1,87.1z"/>
		<path class="st2" d="M436.8,93.4h-18v49.6h-9.9V93.4h-17.8v-8.1h45.7V93.4z"/>
		<path class="st2" d="M448.7,143.7c-6.1,0-11-1.9-14.8-5.8c-3.8-3.8-5.7-9-5.7-15.3v-1.2c-0.1-4,0.8-7.9,2.5-11.5
			c1.5-3.2,3.9-6,6.9-7.9c3-1.9,6.5-2.9,10-2.8c5.8,0,10.3,1.9,13.5,5.6c3.2,3.7,4.8,9,4.8,15.8v3.9h-28c0.1,3.1,1.4,6.1,3.5,8.4
			c1,1,2.2,1.8,3.6,2.3c1.3,0.5,2.8,0.8,4.2,0.7c2.1,0,4.2-0.4,6-1.4s3.5-2.3,4.7-4l5.2,4.9c-1.7,2.6-4.1,4.6-6.9,6
			C455.3,143.1,452,143.8,448.7,143.7L448.7,143.7z M447.5,107c-1.2,0-2.4,0.2-3.5,0.7c-1.1,0.5-2.1,1.2-2.9,2.1
			c-1.8,2.2-2.9,4.9-3.1,7.7h18.3v-0.7c-0.2-3.2-1.1-5.7-2.6-7.3c-0.8-0.8-1.8-1.5-2.9-1.9C449.9,107.2,448.7,107,447.5,107
			L447.5,107z"/>
		<path class="st2" d="M482.2,100.1l0.3,4.9c1.5-1.9,3.4-3.3,5.6-4.3c2.2-1,4.5-1.5,6.9-1.4c8.9,0,13.4,5.1,13.6,15.3v28.3H499
			v-27.8c0-2.7-0.6-4.7-1.8-6c-1.2-1.3-3.1-2-5.8-2c-1.8-0.1-3.6,0.4-5.1,1.3c-1.5,0.9-2.8,2.3-3.5,3.9v30.5h-9.6v-42.8L482.2,100.1
			z"/>
		<path class="st2" d="M539.7,131.3c0-0.8-0.1-1.6-0.5-2.2c-0.4-0.7-0.9-1.3-1.6-1.7c-2.2-1.2-4.6-2-7-2.4c-2.8-0.5-5.6-1.4-8.2-2.6
			c-4.8-2.3-7.2-5.7-7.2-10.1c0-1.8,0.4-3.6,1.2-5.2c0.8-1.6,2-3,3.4-4.1c3.1-2.5,7.1-3.7,11.8-3.7c5.1,0,9.2,1.3,12.4,3.8
			c1.5,1.2,2.7,2.6,3.5,4.4c0.8,1.7,1.2,3.6,1.2,5.5h-9.6c0-0.9-0.2-1.7-0.5-2.5c-0.4-0.8-0.9-1.5-1.5-2.1c-1.5-1.3-3.5-1.9-5.5-1.8
			c-1.8-0.1-3.6,0.4-5.2,1.5c-0.6,0.4-1.1,1-1.5,1.7s-0.5,1.4-0.5,2.2c0,0.7,0.1,1.4,0.4,2c0.3,0.6,0.8,1.1,1.4,1.5
			c1.2,0.8,3.8,1.6,7.5,2.5c3.1,0.6,6.1,1.6,8.9,3c1.9,0.9,3.6,2.4,4.8,4.1c1.1,1.8,1.6,3.8,1.6,5.9c0,1.8-0.4,3.6-1.2,5.3
			c-0.8,1.6-2.1,3-3.6,4.1c-3.2,2.4-7.4,3.6-12.5,3.6c-3.2,0.1-6.4-0.6-9.4-1.9c-2.6-1.1-4.8-2.9-6.4-5.2c-1.5-2.1-2.3-4.6-2.3-7.2
			h9.3c0,1,0.3,2,0.7,2.9c0.4,0.9,1.1,1.7,1.9,2.3c1.8,1.3,4,1.9,6.3,1.8c2.5,0,4.5-0.5,5.8-1.4c0.6-0.4,1.1-1,1.5-1.6
			C539.6,132.8,539.8,132,539.7,131.3z"/>
		<path class="st2" d="M554.1,121.1c-0.1-3.9,0.8-7.8,2.5-11.3c1.5-3.2,4-5.9,7-7.8c3.1-1.8,6.7-2.8,10.4-2.7
			c5.8,0,10.5,1.9,14.1,5.6c3.6,3.7,5.5,8.7,5.8,14.8v2.3c0.1,3.9-0.8,7.8-2.4,11.3c-1.5,3.2-3.9,5.9-7,7.7
			c-3.2,1.9-6.8,2.8-10.5,2.7c-6,0-10.9-2-14.5-6c-3.6-4-5.4-9.4-5.5-16.1L554.1,121.1z M563.7,122c0,4.4,0.9,7.9,2.7,10.4
			c0.9,1.2,2,2.2,3.3,2.8c1.3,0.7,2.8,1,4.3,0.9c1.5,0.1,3-0.3,4.3-0.9c1.3-0.7,2.5-1.7,3.3-2.9c1.8-2.5,2.7-6.2,2.7-11.1
			c0-4.3-0.9-7.8-2.8-10.3c-0.8-1.2-2-2.2-3.3-2.9c-1.3-0.7-2.8-1-4.3-0.9c-1.5,0-2.9,0.3-4.2,0.9c-1.3,0.7-2.4,1.6-3.3,2.8
			C564.7,113.3,563.8,117,563.7,122L563.7,122z"/>
		<path class="st2" d="M622.8,108.9c-1.3-0.2-2.6-0.3-3.9-0.3c-4.4,0-7.4,1.7-8.9,5.1v29.3h-9.6v-42.8h9.2l0.2,4.8
			c2.3-3.7,5.5-5.6,9.6-5.6c1.2,0,2.3,0.2,3.4,0.6L622.8,108.9z"/>
		<path class="st2" d="M663,118.5h-23.2v24.4h-10V85.3h36.6v8.1h-26.6v17.1H663V118.5z"/>
		<path class="st2" d="M682,142.9h-9.6V85.2h9.6V142.9z"/>
		<path class="st2" d="M689,121.1c-0.1-3.9,0.8-7.8,2.5-11.3c1.5-3.2,4-5.9,7-7.8c3.1-1.9,6.7-2.8,10.4-2.7c5.8,0,10.5,1.9,14.1,5.6
			c3.6,3.7,5.5,8.7,5.8,14.8v2.3c0.1,3.9-0.8,7.8-2.4,11.3c-1.5,3.2-3.9,5.9-7,7.7c-3.2,1.9-6.8,2.8-10.5,2.7c-6.1,0-10.9-2-14.5-6
			c-3.6-4-5.4-9.4-5.5-16.1L689,121.1z M698.7,122c0,4.4,0.9,7.9,2.7,10.4c0.9,1.2,2,2.2,3.3,2.8c1.3,0.7,2.8,1,4.3,0.9
			c1.5,0.1,3-0.3,4.3-0.9c1.3-0.7,2.5-1.7,3.3-2.9c1.8-2.5,2.7-6.2,2.7-11.1c0-4.3-0.9-7.8-2.8-10.3c-0.8-1.2-2-2.2-3.3-2.9
			c-1.3-0.7-2.8-1-4.3-0.9c-1.5,0-2.9,0.3-4.2,0.9c-1.3,0.7-2.4,1.6-3.3,2.8C699.6,113.3,698.7,117,698.7,122L698.7,122z"/>
		<path class="st2" d="M772.2,129.7l6.8-29.6h9.4l-11.7,42.8h-7.9l-9.2-29.4l-9,29.4h-7.9L731,100.1h9.3l6.9,29.3l8.8-29.3h7.2
			L772.2,129.7z"/>
	</g>
</g>
</svg>
