<svg xmlns="http://www.w3.org/2000/svg" viewBox="0 0 64 64"><defs><style>.a{fill:#d85577;}.b{fill:none;stroke:#fff;stroke-linecap:round;stroke-miterlimit:10;stroke-width:2px;}</style></defs><circle class="a" cx="39.78" cy="40.36" r="21.31"/><path class="b" d="M47.54,55.37c-6.69,0-16.46-5.48-24.87-14C10.8,29.44,5.6,15.94,10.83,10.67a7.64,7.64,0,0,1,5.63-2c6.69,0,16.46,5.48,24.87,14,11.87,12,17.07,25.46,11.84,30.73A7.64,7.64,0,0,1,47.54,55.37Z"/><path class="b" d="M16,55.2h0a7,7,0,0,1-5.18-1.87c-5-5,.4-18.34,12.27-30.3C31.67,14.39,41.45,8.8,48,8.8h0a7,7,0,0,1,5.18,1.87c5,5-.4,18.34-12.27,30.3h0C32.33,49.61,22.55,55.2,16,55.2Z"/><path class="b" d="M31.29,37.72a5.58,5.58,0,0,1-4-1.65,5.69,5.69,0,0,1,0-8,5.59,5.59,0,0,1,7.93,0,5.69,5.69,0,0,1,0,8A5.58,5.58,0,0,1,31.29,37.72Z"/></svg>