<svg xmlns="http://www.w3.org/2000/svg" viewBox="0 0 512 512"><defs><style>.a{fill:#ebb51f;}.b{fill:none;stroke:#fff;stroke-linecap:round;stroke-miterlimit:10;stroke-width:3px;}</style></defs><circle class="a" cx="198" cy="319.02" r="110.37"/><path class="b" d="M402.32,234.07h16.85a11,11,0,0,1,11.05,11v28.61a11,11,0,0,1-11.05,11H402.32"/><path class="b" d="M312.85,192.76h56.86a19.15,19.15,0,0,1,19.23,19v95.11a19.15,19.15,0,0,1-19.23,19H264.47"/><path class="b" d="M200.67,325.91H137.36a19.15,19.15,0,0,1-19.23-19V211.78a19.15,19.15,0,0,1,19.23-19H249"/><polyline class="b" points="218.97 336.22 293.78 262.48 214.47 262.48 302.43 175.78"/></svg>