<svg width="1056" height="929" viewBox="0 0 1056 929" fill="none" xmlns="http://www.w3.org/2000/svg">
<path d="M186.153 923.383L184.766 927.129L184.297 926.956L183.725 928.5H182.073V929H178.071V928.5H174.069V929H170.068V928.5H166.066V929H162.065V928.5H158.063V929H154.061V928.5H150.06V929H146.058V928.5H142.057V929H138.055V928.5H134.053V929H130.052V928.5H126.05V929H122.049V928.5H118.047V929H114.046V928.5H110.044V929H106.042V928.5H102.041V929H98.0391V928.5H94.0375V929H90.0359V928.5H86.0343V929H82.0327V928.5H78.0312V929H74.0296V928.5H70.028V929H66.0264V928.5H62.0248V929H58.0232V928.5H54.0216V929H50.02V928.5H46.0184V929H42.0168V928.5H38.0152V929H34.0136V928.5H30.012V929H26.0104V928.5H22.0088V929H18.0072V928.5H14.0056V929H10.004V928.5H6.00235V929H2.00074V928.5H0.71829L1.1623 927.301L0.693391 927.127L2.08019 923.381L2.5491 923.555L3.9359 919.809L3.46699 919.635L4.85379 915.889L5.3227 916.063L6.7095 912.317L6.24059 912.143L7.62739 908.397L8.0963 908.571L9.4831 904.825L9.01419 904.651L10.401 900.905L10.8699 901.079L12.2567 897.333L11.7878 897.159L13.1746 893.413L13.6435 893.587L15.0303 889.841L14.5614 889.667L15.9482 885.921L16.4171 886.095L17.8039 882.349L17.335 882.175L18.7218 878.429L19.1907 878.603L20.5775 874.857L20.1086 874.683L21.4954 870.938L21.9643 871.111L23.3511 867.365L22.8822 867.192L24.269 863.446L24.7379 863.619L26.1247 859.873L25.6558 859.7L27.0426 855.954L27.5115 856.127L28.8983 852.381L28.4294 852.208L29.8162 848.462L30.2851 848.635L31.6719 844.889L31.203 844.716L32.5898 840.97L33.0587 841.143L34.4455 837.397L33.9766 837.224L35.3634 833.478L35.8323 833.651L37.2191 829.905L36.7502 829.732L38.137 825.986L38.6059 826.159L39.9927 822.414L39.5238 822.24L40.9106 818.494L41.3795 818.668L42.7663 814.922L42.2974 814.748L43.6842 811.002L44.1531 811.176L45.5399 807.43L45.071 807.256L46.4578 803.51L46.9267 803.684L48.3135 799.938L47.8446 799.764L49.2314 796.018L49.7003 796.192L51.0871 792.446L50.6182 792.272L52.005 788.526L52.4739 788.7L53.8607 784.954L53.3918 784.78L54.7786 781.034L55.2475 781.208L56.6343 777.462L56.1654 777.288L57.5522 773.542L58.0211 773.716L59.4079 769.97L58.939 769.796L60.3258 766.05L60.7947 766.224L62.1815 762.478L61.7126 762.304L63.0994 758.558L63.5683 758.732L64.9551 754.986L64.4862 754.812L65.873 751.067L66.3419 751.24L67.7287 747.494L67.2598 747.321L68.6466 743.575L69.1155 743.748L70.5023 740.002L70.0334 739.829L71.4202 736.083L71.8891 736.256L73.2759 732.51L72.807 732.337L74.1938 728.591L74.6627 728.764L76.0495 725.018L75.5806 724.845L76.9674 721.099L77.4363 721.272L78.8231 717.526L78.3542 717.353L79.741 713.607L80.2099 713.781L81.5967 710.035L81.1278 709.861L82.5146 706.115L82.9835 706.289L84.3703 702.543L83.9014 702.369L85.2882 698.623L85.7571 698.797L87.1439 695.051L86.675 694.877L88.0618 691.131L88.5307 691.305L89.9175 687.559L89.4486 687.385L90.8354 683.639L91.3043 683.813L92.6911 680.067L92.2222 679.893L93.609 676.147L94.0779 676.321L95.4647 672.575L94.9958 672.401L96.3826 668.655L96.8515 668.829L98.2383 665.083L97.7694 664.909L99.1562 661.163L99.6252 661.337L101.012 657.591L100.543 657.417L101.93 653.671L102.399 653.845L103.786 650.099L103.317 649.925L104.703 646.179L105.172 646.353L106.559 642.607L106.09 642.433L107.477 638.687L107.946 638.861L109.333 635.115L108.864 634.941L110.251 631.195L110.72 631.369L112.106 627.623L111.637 627.449L113.024 623.703L113.493 623.877L114.88 620.131L114.411 619.957L115.798 616.211L116.267 616.385L117.654 612.639L117.185 612.466L118.572 608.72L119.04 608.893L120.427 605.147L119.958 604.974L121.345 601.228L121.814 601.401L123.201 597.655L122.732 597.482L124.119 593.736L124.588 593.909L125.974 590.163L125.506 589.99L126.892 586.244L127.361 586.417L128.748 582.671L128.279 582.498L129.666 578.752L130.135 578.925L131.522 575.179L131.053 575.006L132.44 571.26L132.908 571.433L134.295 567.687L133.826 567.514L135.213 563.768L135.682 563.941L137.069 560.195L136.6 560.022L137.987 556.276L138.456 556.449L139.843 552.703L139.374 552.53L140.76 548.784L141.229 548.957L142.616 545.211L142.147 545.038L143.534 541.292L144.003 541.465L145.39 537.72L144.921 537.546L146.308 533.8L146.777 533.974L148.163 530.228L147.694 530.054L149.081 526.308L149.55 526.482L150.937 522.736L150.468 522.562L151.855 518.816L152.324 518.99L153.711 515.244L153.242 515.07L154.628 511.324L155.097 511.498L156.484 507.752L156.015 507.578L157.402 503.832L157.871 504.006L159.258 500.26L158.789 500.086L160.176 496.34L160.645 496.514L162.031 492.768L161.562 492.594L162.949 488.848L163.418 489.022L164.805 485.276L164.336 485.102L165.723 481.356L166.192 481.53L167.579 477.784L167.11 477.61L168.497 473.864L168.965 474.038L170.352 470.292L169.883 470.118L171.27 466.372L171.739 466.546L173.126 462.8L172.657 462.626L174.044 458.88L174.513 459.054L175.899 455.308L175.431 455.134L176.817 451.388L177.286 451.562L178.673 447.816L178.204 447.642L179.591 443.896L180.06 444.07L181.447 440.324L180.978 440.15L182.365 436.404L182.833 436.578L184.22 432.832L183.751 432.658L185.138 428.912L185.607 429.086L186.994 425.34L186.525 425.167L187.912 421.421L188.381 421.594L189.768 417.848L189.299 417.675L190.685 413.929L191.154 414.102L192.541 410.356L192.072 410.183L193.459 406.437L193.928 406.61L195.315 402.864L194.846 402.691L196.233 398.945L196.702 399.118L198.088 395.372L197.619 395.199L199.006 391.453L199.475 391.626L200.862 387.88L200.393 387.707L201.78 383.961L202.249 384.134L203.636 380.388L203.167 380.215L204.553 376.469L205.022 376.642L206.409 372.896L205.94 372.723L207.327 368.977L207.796 369.15L209.183 365.404L208.714 365.231L210.101 361.485L210.57 361.658L211.956 357.912L211.488 357.739L212.874 353.993L213.343 354.166L214.73 350.421L214.261 350.247L215.648 346.501L216.117 346.674L217.504 342.929L217.035 342.755L218.422 339.009L218.89 339.183L220.277 335.437L219.808 335.263L221.195 331.517L221.664 331.691L223.051 327.945L222.582 327.771L223.969 324.025L224.438 324.199L225.824 320.453L225.356 320.279L226.742 316.533L227.211 316.707L228.598 312.961L228.129 312.787L229.516 309.041L229.985 309.215L231.372 305.469L230.903 305.295L232.29 301.549L232.758 301.723L234.145 297.977L233.676 297.803L235.063 294.057L235.532 294.231L236.919 290.485L236.45 290.311L237.837 286.565L238.306 286.739L239.693 282.993L239.224 282.819L240.61 279.073L241.079 279.247L242.466 275.501L241.997 275.327L243.384 271.581L243.853 271.755L245.24 268.009L244.771 267.835L246.158 264.089L246.627 264.263L248.013 260.517L247.544 260.343L248.931 256.597L249.4 256.771L250.787 253.025L250.318 252.851L251.705 249.105L252.174 249.279L253.561 245.533L253.092 245.359L254.478 241.613L254.947 241.787L256.334 238.041L255.865 237.867L257.252 234.122L257.721 234.295L259.108 230.549L258.639 230.376L260.026 226.63L260.495 226.803L261.881 223.057L261.412 222.884L262.799 219.138L263.268 219.311L264.655 215.565L264.186 215.392L265.573 211.646L266.042 211.819L267.429 208.073L266.96 207.9L268.347 204.154L268.815 204.327L270.202 200.581L269.733 200.408L271.12 196.662L271.589 196.835L272.976 193.089L272.507 192.916L273.894 189.17L274.363 189.343L275.749 185.597L275.281 185.424L276.667 181.678L277.136 181.851L278.523 178.105L278.054 177.932L279.441 174.186L279.91 174.359L281.297 170.613L280.828 170.44L282.215 166.694L282.683 166.867L284.07 163.121L283.601 162.948L284.988 159.202L285.457 159.376L286.844 155.629L286.375 155.456L287.762 151.71L288.231 151.884L289.617 148.138L289.149 147.964L290.535 144.218L291.004 144.392L292.391 140.646L291.922 140.472L293.309 136.726L293.778 136.9L295.165 133.154L294.696 132.98L296.083 129.234L296.552 129.408L297.938 125.662L297.469 125.488L298.856 121.742L299.325 121.916L300.712 118.17L300.243 117.996L301.63 114.25L302.099 114.424L303.486 110.678L303.017 110.504L304.403 106.758L304.872 106.932L306.259 103.186L305.79 103.012L307.177 99.2662L307.646 99.4398L309.033 95.6938L308.564 95.5203L309.951 91.7742L310.42 91.9478L311.806 88.2019L311.337 88.0283L312.724 84.2823L313.193 84.4559L314.58 80.7099L314.111 80.5363L315.498 76.7903L315.967 76.9639L317.354 73.2179L316.885 73.0444L318.272 69.2984L318.74 69.472L320.127 65.726L319.658 65.5524L321.045 61.8064L321.514 61.98L322.901 58.234L322.432 58.0604L323.819 54.3144L324.288 54.488L325.674 50.7421L325.206 50.5685L326.592 46.8225L327.061 46.9961L328.448 43.2501L327.979 43.0765L329.366 39.3305L329.835 39.5041L331.222 35.7581L330.753 35.5845L332.14 31.8386L332.608 32.0122L333.995 28.2662L333.526 28.0926L334.913 24.3466L335.382 24.5202L336.769 20.7742L336.3 20.6006L337.687 16.8546L338.156 17.0282L339.543 13.2823L339.074 13.1087L340.46 9.36269L340.929 9.53629L342.316 5.79032L341.847 5.61673L343.234 1.87071L343.703 2.0443L344.275 0.5H345.927V0H349.929V0.5H353.931V0H357.932V0.5H361.934V0H365.935V0.5H369.937V0H373.939V0.5H377.94V0H381.942V0.5H385.943V0H389.945V0.5H393.947V0H397.948V0.5H401.95V0H405.951V0.5H409.953V0H413.954V0.5H417.956V0H421.958V0.5H425.959V0H429.961V0.5H433.962V0H437.964V0.5H441.966V0H445.967V0.5H449.969V0H453.97V0.5H457.972V0H461.974V0.5H465.975V0H469.977V0.5H473.978V0H477.98V0.5H481.982V0H485.983V0.5H489.985V0H493.986V0.5H497.988V0H501.99V0.5H505.991V0H509.993V0.5H513.994V0H517.996V0.5H521.998V0H525.999V0.5H527.282L526.838 1.69939L527.307 1.87298L525.92 5.61894L525.451 5.44536L524.064 9.19133L524.533 9.36492L523.146 13.1109L522.677 12.9373L521.291 16.6833L521.759 16.8568L520.373 20.6028L519.904 20.4292L518.517 24.1752L518.986 24.3488L517.599 28.0947L517.13 27.9212L515.743 31.6671L516.212 31.8407L514.825 35.5867L514.357 35.4131L512.97 39.1591L513.439 39.3327L512.052 43.0786L511.583 42.905L510.196 46.651L510.665 46.8246L509.278 50.5706L508.809 50.397L507.423 54.1429L507.891 54.3165L506.505 58.0625L506.036 57.8889L504.649 61.6349L505.118 61.8085L503.731 65.5544L503.262 65.3808L501.875 69.1268L502.344 69.3004L500.957 73.0464L500.488 72.8728L499.102 76.6187L499.571 76.7923L498.184 80.5383L497.715 80.3647L496.328 84.1107L496.797 84.2842L495.41 88.0302L494.941 87.8566L493.555 91.6026L494.023 91.7762L492.637 95.5221L492.168 95.3486L490.781 99.0945L491.25 99.2681L489.863 103.014L489.394 102.84L488.007 106.586L488.476 106.76L487.089 110.506L486.621 110.332L485.234 114.078L485.703 114.252L484.316 117.998L483.847 117.824L482.46 121.57L482.929 121.744L481.542 125.49L481.073 125.316L479.686 129.062L480.155 129.236L478.769 132.982L478.3 132.808L476.913 136.554L477.382 136.728L475.995 140.474L475.526 140.3L474.139 144.046L474.608 144.22L473.221 147.966L472.753 147.792L471.366 151.538L471.835 151.712L470.448 155.458L469.979 155.284L468.592 159.03L469.061 159.204L467.674 162.95L467.205 162.776L465.818 166.522L466.287 166.696L464.901 170.441L464.432 170.268L463.045 174.014L463.514 174.187L462.127 177.933L461.658 177.76L460.271 181.506L460.74 181.679L459.353 185.425L458.884 185.252L457.498 188.998L457.967 189.171L456.58 192.917L456.111 192.744L454.724 196.49L455.193 196.663L453.806 200.409L453.337 200.236L451.951 203.982L452.419 204.155L451.033 207.901L450.564 207.728L449.177 211.474L449.646 211.647L448.259 215.393L447.79 215.219L446.403 218.965L446.872 219.139L445.485 222.885L445.016 222.711L443.63 226.457L444.099 226.631L442.712 230.377L442.243 230.203L440.856 233.949L441.325 234.123L439.938 237.869L439.469 237.695L438.082 241.441L438.551 241.615L437.165 245.361L436.696 245.187L435.309 248.933L435.778 249.107L434.391 252.853L433.922 252.679L432.535 256.425L433.004 256.599L431.617 260.345L431.148 260.171L429.762 263.917L430.231 264.091L428.844 267.837L428.375 267.663L426.988 271.409L427.457 271.583L426.07 275.329L425.601 275.155L424.214 278.901L424.683 279.075L423.297 282.821L422.828 282.647L421.441 286.393L421.91 286.567L420.523 290.313L420.054 290.139L418.667 293.885L419.136 294.059L417.749 297.805L417.28 297.631L415.894 301.377L416.362 301.551L414.976 305.297L414.507 305.123L413.12 308.869L413.589 309.042L412.202 312.788L411.733 312.615L410.346 316.361L410.815 316.534L409.428 320.28L408.96 320.107L407.573 323.853L408.042 324.026L406.655 327.772L406.186 327.599L404.799 331.345L405.268 331.518L403.881 335.264L403.412 335.091L402.026 338.837L402.494 339.01L401.108 342.756L400.639 342.583L399.252 346.329L399.721 346.502L398.334 350.248L397.865 350.075L396.478 353.821L396.947 353.994L395.56 357.74L395.092 357.567L393.705 361.313L394.174 361.486L392.787 365.232L392.318 365.059L390.931 368.805L391.4 368.978L390.013 372.724L389.544 372.551L388.158 376.297L388.626 376.47L387.24 380.216L386.771 380.043L385.384 383.788L385.853 383.962L384.466 387.708L383.997 387.534L382.61 391.28L383.079 391.454L381.692 395.2L381.223 395.026L379.837 398.772L380.306 398.946L378.919 402.692L378.45 402.518L377.063 406.264L377.532 406.438L376.145 410.184L375.676 410.01L374.289 413.756L374.758 413.93L373.372 417.676L372.903 417.502L371.516 421.248L371.985 421.422L370.598 425.168L370.129 424.994L368.742 428.74L369.211 428.914L367.824 432.66L367.355 432.486L365.969 436.232L366.438 436.406L365.051 440.152L364.582 439.978L363.195 443.724L363.664 443.898L362.277 447.644L361.808 447.47L360.421 451.216L360.89 451.39L359.503 455.136L359.035 454.962L357.648 458.708L358.117 458.882L356.73 462.628L356.261 462.454L354.874 466.2L355.343 466.374L353.956 470.12L353.487 469.946L352.101 473.692L352.569 473.866L351.183 477.612L350.714 477.438L349.327 481.184L349.796 481.358L348.409 485.104L347.94 484.93L346.553 488.676L347.022 488.85L345.635 492.596L345.167 492.422L343.78 496.168L344.249 496.341L342.862 500.087L342.393 499.914L341.006 503.66L341.475 503.833L340.088 507.579L339.619 507.406L338.233 511.152L338.701 511.325L337.315 515.071L336.846 514.898L335.459 518.644L335.928 518.817L334.541 522.563L334.072 522.39L332.685 526.136L333.154 526.309L331.767 530.055L331.298 529.882L329.912 533.628L330.381 533.801L328.994 537.547L328.525 537.374L327.138 541.12L327.607 541.293L326.22 545.039L325.751 544.866L324.364 548.612L324.833 548.785L323.447 552.531L322.978 552.358L321.591 556.104L322.06 556.277L320.673 560.023L320.204 559.85L318.817 563.596L319.286 563.769L317.899 567.515L317.43 567.341L316.044 571.088L316.513 571.261L315.126 575.007L314.657 574.833L313.27 578.579L313.739 578.753L312.352 582.499L311.883 582.326L310.496 586.071L310.965 586.245L309.578 589.991L309.11 589.817L307.723 593.563L308.192 593.737L306.805 597.483L306.336 597.309L304.949 601.055L305.418 601.229L304.031 604.975L303.562 604.801L302.176 608.547L302.644 608.721L301.258 612.467L300.789 612.293L299.402 616.039L299.871 616.213L298.484 619.959L298.015 619.785L296.628 623.531L297.097 623.705L295.71 627.451L295.242 627.277L293.855 631.023L294.324 631.197L292.937 634.943L292.468 634.769L291.081 638.515L291.55 638.689L290.163 642.435L289.694 642.261L288.307 646.007L288.776 646.181L287.39 649.927L286.921 649.753L285.534 653.499L286.003 653.673L284.616 657.419L284.147 657.245L282.76 660.991L283.229 661.165L281.842 664.911L281.373 664.737L279.987 668.483L280.456 668.657L279.069 672.403L278.6 672.229L277.213 675.975L277.682 676.149L276.295 679.895L275.826 679.721L274.439 683.467L274.908 683.641L273.522 687.386L273.053 687.213L271.666 690.959L272.135 691.132L270.748 694.878L270.279 694.705L268.892 698.451L269.361 698.624L267.974 702.37L267.505 702.197L266.119 705.943L266.587 706.116L265.201 709.862L264.732 709.689L263.345 713.435L263.814 713.608L262.427 717.354L261.958 717.181L260.571 720.927L261.04 721.1L259.653 724.846L259.185 724.673L257.798 728.419L258.267 728.592L256.88 732.338L256.411 732.165L255.024 735.911L255.493 736.084L254.106 739.83L253.637 739.657L252.251 743.403L252.719 743.576L251.333 747.322L250.864 747.149L249.477 750.895L249.946 751.068L248.559 754.814L248.09 754.641L246.703 758.387L247.172 758.56L245.785 762.306L245.317 762.133L243.93 765.878L244.399 766.052L243.012 769.798L242.543 769.624L241.156 773.37L241.625 773.544L240.238 777.29L239.769 777.116L238.383 780.862L238.851 781.036L237.465 784.782L236.996 784.608L235.609 788.354L236.078 788.528L234.691 792.274L234.222 792.1L232.835 795.846L233.304 796.02L231.917 799.766L231.448 799.592L230.062 803.338L230.531 803.512L229.144 807.258L228.675 807.084L227.288 810.83L227.757 811.004L226.37 814.75L225.901 814.576L224.514 818.322L224.983 818.496L223.597 822.242L223.128 822.068L221.741 825.814L222.21 825.988L220.823 829.734L220.354 829.56L218.967 833.306L219.436 833.48L218.049 837.226L217.58 837.052L216.194 840.798L216.663 840.972L215.276 844.718L214.807 844.544L213.42 848.29L213.889 848.464L212.502 852.21L212.033 852.036L210.646 855.782L211.115 855.956L209.728 859.702L209.26 859.528L207.873 863.274L208.342 863.448L206.955 867.194L206.486 867.02L205.099 870.766L205.568 870.94L204.181 874.686L203.712 874.512L202.326 878.258L202.794 878.432L201.408 882.177L200.939 882.004L199.552 885.75L200.021 885.923L198.634 889.669L198.165 889.496L196.778 893.242L197.247 893.415L195.86 897.161L195.392 896.988L194.005 900.734L194.474 900.907L193.087 904.653L192.618 904.48L191.231 908.226L191.7 908.399L190.313 912.145L189.844 911.972L188.458 915.718L188.926 915.891L187.54 919.637L187.071 919.464L185.684 923.21L186.153 923.383Z" stroke="black" stroke-dasharray="4 4"/>
<path d="M714.153 923.383L712.766 927.129L712.297 926.956L711.725 928.5H710.073V929H706.071V928.5H702.069V929H698.068V928.5H694.066V929H690.065V928.5H686.063V929H682.061V928.5H678.06V929H674.058V928.5H670.057V929H666.055V928.5H662.053V929H658.052V928.5H654.05V929H650.049V928.5H646.047V929H642.046V928.5H638.044V929H634.042V928.5H630.041V929H626.039V928.5H622.038V929H618.036V928.5H614.034V929H610.033V928.5H606.031V929H602.03V928.5H598.028V929H594.026V928.5H590.025V929H586.023V928.5H582.022V929H578.02V928.5H574.018V929H570.017V928.5H566.015V929H562.014V928.5H558.012V929H554.01V928.5H550.009V929H546.007V928.5H542.006V929H538.004V928.5H534.002V929H530.001V928.5H528.718L529.162 927.301L528.693 927.127L530.08 923.381L530.549 923.555L531.936 919.809L531.467 919.635L532.854 915.889L533.323 916.063L534.71 912.317L534.241 912.143L535.627 908.397L536.096 908.571L537.483 904.825L537.014 904.651L538.401 900.905L538.87 901.079L540.257 897.333L539.788 897.159L541.175 893.413L541.644 893.587L543.03 889.841L542.561 889.667L543.948 885.921L544.417 886.095L545.804 882.349L545.335 882.175L546.722 878.429L547.191 878.603L548.578 874.857L548.109 874.683L549.495 870.938L549.964 871.111L551.351 867.365L550.882 867.192L552.269 863.446L552.738 863.619L554.125 859.873L553.656 859.7L555.043 855.954L555.512 856.127L556.898 852.381L556.429 852.208L557.816 848.462L558.285 848.635L559.672 844.889L559.203 844.716L560.59 840.97L561.059 841.143L562.446 837.397L561.977 837.224L563.363 833.478L563.832 833.651L565.219 829.905L564.75 829.732L566.137 825.986L566.606 826.159L567.993 822.414L567.524 822.24L568.911 818.494L569.38 818.668L570.766 814.922L570.297 814.748L571.684 811.002L572.153 811.176L573.54 807.43L573.071 807.256L574.458 803.51L574.927 803.684L576.314 799.938L575.845 799.764L577.231 796.018L577.7 796.192L579.087 792.446L578.618 792.272L580.005 788.526L580.474 788.7L581.861 784.954L581.392 784.78L582.779 781.034L583.248 781.208L584.634 777.462L584.165 777.288L585.552 773.542L586.021 773.716L587.408 769.97L586.939 769.796L588.326 766.05L588.795 766.224L590.182 762.478L589.713 762.304L591.099 758.558L591.568 758.732L592.955 754.986L592.486 754.812L593.873 751.067L594.342 751.24L595.729 747.494L595.26 747.321L596.647 743.575L597.116 743.748L598.502 740.002L598.033 739.829L599.42 736.083L599.889 736.256L601.276 732.51L600.807 732.337L602.194 728.591L602.663 728.764L604.05 725.018L603.581 724.845L604.967 721.099L605.436 721.272L606.823 717.526L606.354 717.353L607.741 713.607L608.21 713.781L609.597 710.035L609.128 709.861L610.515 706.115L610.984 706.289L612.37 702.543L611.901 702.369L613.288 698.623L613.757 698.797L615.144 695.051L614.675 694.877L616.062 691.131L616.531 691.305L617.918 687.559L617.449 687.385L618.835 683.639L619.304 683.813L620.691 680.067L620.222 679.893L621.609 676.147L622.078 676.321L623.465 672.575L622.996 672.401L624.383 668.655L624.852 668.829L626.238 665.083L625.769 664.909L627.156 661.163L627.625 661.337L629.012 657.591L628.543 657.417L629.93 653.671L630.399 653.845L631.786 650.099L631.317 649.925L632.703 646.179L633.172 646.353L634.559 642.607L634.09 642.433L635.477 638.687L635.946 638.861L637.333 635.115L636.864 634.941L638.251 631.195L638.72 631.369L640.106 627.623L639.637 627.449L641.024 623.703L641.493 623.877L642.88 620.131L642.411 619.957L643.798 616.211L644.267 616.385L645.654 612.639L645.185 612.466L646.572 608.72L647.04 608.893L648.427 605.147L647.958 604.974L649.345 601.228L649.814 601.401L651.201 597.655L650.732 597.482L652.119 593.736L652.588 593.909L653.974 590.163L653.506 589.99L654.892 586.244L655.361 586.417L656.748 582.671L656.279 582.498L657.666 578.752L658.135 578.925L659.522 575.179L659.053 575.006L660.44 571.26L660.908 571.433L662.295 567.687L661.826 567.514L663.213 563.768L663.682 563.941L665.069 560.195L664.6 560.022L665.987 556.276L666.456 556.449L667.843 552.703L667.374 552.53L668.76 548.784L669.229 548.957L670.616 545.211L670.147 545.038L671.534 541.292L672.003 541.465L673.39 537.72L672.921 537.546L674.308 533.8L674.777 533.974L676.163 530.228L675.694 530.054L677.081 526.308L677.55 526.482L678.937 522.736L678.468 522.562L679.855 518.816L680.324 518.99L681.711 515.244L681.242 515.07L682.628 511.324L683.097 511.498L684.484 507.752L684.015 507.578L685.402 503.832L685.871 504.006L687.258 500.26L686.789 500.086L688.176 496.34L688.645 496.514L690.031 492.768L689.562 492.594L690.949 488.848L691.418 489.022L692.805 485.276L692.336 485.102L693.723 481.356L694.192 481.53L695.579 477.784L695.11 477.61L696.497 473.864L696.965 474.038L698.352 470.292L697.883 470.118L699.27 466.372L699.739 466.546L701.126 462.8L700.657 462.626L702.044 458.88L702.513 459.054L703.899 455.308L703.431 455.134L704.817 451.388L705.286 451.562L706.673 447.816L706.204 447.642L707.591 443.896L708.06 444.07L709.447 440.324L708.978 440.15L710.365 436.404L710.833 436.578L712.22 432.832L711.751 432.658L713.138 428.912L713.607 429.086L714.994 425.34L714.525 425.167L715.912 421.421L716.381 421.594L717.768 417.848L717.299 417.675L718.685 413.929L719.154 414.102L720.541 410.356L720.072 410.183L721.459 406.437L721.928 406.61L723.315 402.864L722.846 402.691L724.233 398.945L724.702 399.118L726.088 395.372L725.619 395.199L727.006 391.453L727.475 391.626L728.862 387.88L728.393 387.707L729.78 383.961L730.249 384.134L731.636 380.388L731.167 380.215L732.553 376.469L733.022 376.642L734.409 372.896L733.94 372.723L735.327 368.977L735.796 369.15L737.183 365.404L736.714 365.231L738.101 361.485L738.57 361.658L739.956 357.912L739.488 357.739L740.874 353.993L741.343 354.166L742.73 350.421L742.261 350.247L743.648 346.501L744.117 346.674L745.504 342.929L745.035 342.755L746.422 339.009L746.89 339.183L748.277 335.437L747.808 335.263L749.195 331.517L749.664 331.691L751.051 327.945L750.582 327.771L751.969 324.025L752.438 324.199L753.824 320.453L753.356 320.279L754.742 316.533L755.211 316.707L756.598 312.961L756.129 312.787L757.516 309.041L757.985 309.215L759.372 305.469L758.903 305.295L760.29 301.549L760.758 301.723L762.145 297.977L761.676 297.803L763.063 294.057L763.532 294.231L764.919 290.485L764.45 290.311L765.837 286.565L766.306 286.739L767.693 282.993L767.224 282.819L768.61 279.073L769.079 279.247L770.466 275.501L769.997 275.327L771.384 271.581L771.853 271.755L773.24 268.009L772.771 267.835L774.158 264.089L774.627 264.263L776.013 260.517L775.544 260.343L776.931 256.597L777.4 256.771L778.787 253.025L778.318 252.851L779.705 249.105L780.174 249.279L781.561 245.533L781.092 245.359L782.478 241.613L782.947 241.787L784.334 238.041L783.865 237.867L785.252 234.122L785.721 234.295L787.108 230.549L786.639 230.376L788.026 226.63L788.495 226.803L789.881 223.057L789.412 222.884L790.799 219.138L791.268 219.311L792.655 215.565L792.186 215.392L793.573 211.646L794.042 211.819L795.429 208.073L794.96 207.9L796.347 204.154L796.815 204.327L798.202 200.581L797.733 200.408L799.12 196.662L799.589 196.835L800.976 193.089L800.507 192.916L801.894 189.17L802.363 189.343L803.749 185.597L803.281 185.424L804.667 181.678L805.136 181.851L806.523 178.105L806.054 177.932L807.441 174.186L807.91 174.359L809.297 170.613L808.828 170.44L810.215 166.694L810.683 166.867L812.07 163.121L811.601 162.948L812.988 159.202L813.457 159.376L814.844 155.629L814.375 155.456L815.762 151.71L816.231 151.884L817.617 148.138L817.149 147.964L818.535 144.218L819.004 144.392L820.391 140.646L819.922 140.472L821.309 136.726L821.778 136.9L823.165 133.154L822.696 132.98L824.083 129.234L824.552 129.408L825.938 125.662L825.469 125.488L826.856 121.742L827.325 121.916L828.712 118.17L828.243 117.996L829.63 114.25L830.099 114.424L831.486 110.678L831.017 110.504L832.403 106.758L832.872 106.932L834.259 103.186L833.79 103.012L835.177 99.2662L835.646 99.4398L837.033 95.6938L836.564 95.5203L837.951 91.7742L838.42 91.9478L839.806 88.2019L839.337 88.0283L840.724 84.2823L841.193 84.4559L842.58 80.7099L842.111 80.5363L843.498 76.7903L843.967 76.9639L845.354 73.2179L844.885 73.0444L846.272 69.2984L846.74 69.472L848.127 65.726L847.658 65.5524L849.045 61.8064L849.514 61.98L850.901 58.234L850.432 58.0604L851.819 54.3144L852.288 54.488L853.674 50.7421L853.206 50.5685L854.592 46.8225L855.061 46.9961L856.448 43.2501L855.979 43.0765L857.366 39.3305L857.835 39.5041L859.222 35.7581L858.753 35.5845L860.14 31.8386L860.608 32.0122L861.995 28.2662L861.526 28.0926L862.913 24.3466L863.382 24.5202L864.769 20.7742L864.3 20.6006L865.687 16.8546L866.156 17.0282L867.543 13.2823L867.074 13.1087L868.46 9.36269L868.929 9.53629L870.316 5.79032L869.847 5.61673L871.234 1.87071L871.703 2.0443L872.275 0.5H873.927V0H877.929V0.5H881.931V0H885.932V0.5H889.934V0H893.935V0.5H897.937V0H901.939V0.5H905.94V0H909.942V0.5H913.943V0H917.945V0.5H921.947V0H925.948V0.5H929.95V0H933.951V0.5H937.953V0H941.954V0.5H945.956V0H949.958V0.5H953.959V0H957.961V0.5H961.962V0H965.964V0.5H969.966V0H973.967V0.5H977.969V0H981.97V0.5H985.972V0H989.974V0.5H993.975V0H997.977V0.5H1001.98V0H1005.98V0.5H1009.98V0H1013.98V0.5H1017.98V0H1021.99V0.5H1025.99V0H1029.99V0.5H1033.99V0H1037.99V0.5H1041.99V0H1046V0.5H1050V0H1054V0.5H1055.28L1054.84 1.69939L1055.31 1.87298L1053.92 5.61894L1053.45 5.44536L1052.06 9.19133L1052.53 9.36492L1051.15 13.1109L1050.68 12.9373L1049.29 16.6833L1049.76 16.8568L1048.37 20.6028L1047.9 20.4292L1046.52 24.1752L1046.99 24.3488L1045.6 28.0947L1045.13 27.9212L1043.74 31.6671L1044.21 31.8407L1042.83 35.5867L1042.36 35.4131L1040.97 39.1591L1041.44 39.3327L1040.05 43.0786L1039.58 42.905L1038.2 46.651L1038.67 46.8246L1037.28 50.5706L1036.81 50.397L1035.42 54.1429L1035.89 54.3165L1034.5 58.0625L1034.04 57.8889L1032.65 61.6349L1033.12 61.8085L1031.73 65.5544L1031.26 65.3808L1029.88 69.1268L1030.34 69.3004L1028.96 73.0464L1028.49 72.8728L1027.1 76.6187L1027.57 76.7923L1026.18 80.5383L1025.71 80.3647L1024.33 84.1107L1024.8 84.2842L1023.41 88.0302L1022.94 87.8566L1021.55 91.6026L1022.02 91.7762L1020.64 95.5221L1020.17 95.3486L1018.78 99.0945L1019.25 99.2681L1017.86 103.014L1017.39 102.84L1016.01 106.586L1016.48 106.76L1015.09 110.506L1014.62 110.332L1013.23 114.078L1013.7 114.252L1012.32 117.998L1011.85 117.824L1010.46 121.57L1010.93 121.744L1009.54 125.49L1009.07 125.316L1007.69 129.062L1008.16 129.236L1006.77 132.982L1006.3 132.808L1004.91 136.554L1005.38 136.728L1003.99 140.474L1003.53 140.3L1002.14 144.046L1002.61 144.22L1001.22 147.966L1000.75 147.792L999.366 151.538L999.835 151.712L998.448 155.458L997.979 155.284L996.592 159.03L997.061 159.204L995.674 162.95L995.205 162.776L993.818 166.522L994.287 166.696L992.901 170.441L992.432 170.268L991.045 174.014L991.514 174.187L990.127 177.933L989.658 177.76L988.271 181.506L988.74 181.679L987.353 185.425L986.884 185.252L985.498 188.998L985.967 189.171L984.58 192.917L984.111 192.744L982.724 196.49L983.193 196.663L981.806 200.409L981.337 200.236L979.951 203.982L980.419 204.155L979.033 207.901L978.564 207.728L977.177 211.474L977.646 211.647L976.259 215.393L975.79 215.219L974.403 218.965L974.872 219.139L973.485 222.885L973.016 222.711L971.63 226.457L972.099 226.631L970.712 230.377L970.243 230.203L968.856 233.949L969.325 234.123L967.938 237.869L967.469 237.695L966.082 241.441L966.551 241.615L965.165 245.361L964.696 245.187L963.309 248.933L963.778 249.107L962.391 252.853L961.922 252.679L960.535 256.425L961.004 256.599L959.617 260.345L959.148 260.171L957.762 263.917L958.231 264.091L956.844 267.837L956.375 267.663L954.988 271.409L955.457 271.583L954.07 275.329L953.601 275.155L952.214 278.901L952.683 279.075L951.297 282.821L950.828 282.647L949.441 286.393L949.91 286.567L948.523 290.313L948.054 290.139L946.667 293.885L947.136 294.059L945.749 297.805L945.28 297.631L943.894 301.377L944.362 301.551L942.976 305.297L942.507 305.123L941.12 308.869L941.589 309.042L940.202 312.788L939.733 312.615L938.346 316.361L938.815 316.534L937.428 320.28L936.96 320.107L935.573 323.853L936.042 324.026L934.655 327.772L934.186 327.599L932.799 331.345L933.268 331.518L931.881 335.264L931.412 335.091L930.026 338.837L930.494 339.01L929.108 342.756L928.639 342.583L927.252 346.329L927.721 346.502L926.334 350.248L925.865 350.075L924.478 353.821L924.947 353.994L923.56 357.74L923.092 357.567L921.705 361.313L922.174 361.486L920.787 365.232L920.318 365.059L918.931 368.805L919.4 368.978L918.013 372.724L917.544 372.551L916.158 376.297L916.626 376.47L915.24 380.216L914.771 380.043L913.384 383.788L913.853 383.962L912.466 387.708L911.997 387.534L910.61 391.28L911.079 391.454L909.692 395.2L909.223 395.026L907.837 398.772L908.306 398.946L906.919 402.692L906.45 402.518L905.063 406.264L905.532 406.438L904.145 410.184L903.676 410.01L902.289 413.756L902.758 413.93L901.372 417.676L900.903 417.502L899.516 421.248L899.985 421.422L898.598 425.168L898.129 424.994L896.742 428.74L897.211 428.914L895.824 432.66L895.355 432.486L893.969 436.232L894.438 436.406L893.051 440.152L892.582 439.978L891.195 443.724L891.664 443.898L890.277 447.644L889.808 447.47L888.421 451.216L888.89 451.39L887.503 455.136L887.035 454.962L885.648 458.708L886.117 458.882L884.73 462.628L884.261 462.454L882.874 466.2L883.343 466.374L881.956 470.12L881.487 469.946L880.101 473.692L880.569 473.866L879.183 477.612L878.714 477.438L877.327 481.184L877.796 481.358L876.409 485.104L875.94 484.93L874.553 488.676L875.022 488.85L873.635 492.596L873.167 492.422L871.78 496.168L872.249 496.341L870.862 500.087L870.393 499.914L869.006 503.66L869.475 503.833L868.088 507.579L867.619 507.406L866.233 511.152L866.701 511.325L865.315 515.071L864.846 514.898L863.459 518.644L863.928 518.817L862.541 522.563L862.072 522.39L860.685 526.136L861.154 526.309L859.767 530.055L859.298 529.882L857.912 533.628L858.381 533.801L856.994 537.547L856.525 537.374L855.138 541.12L855.607 541.293L854.22 545.039L853.751 544.866L852.364 548.612L852.833 548.785L851.447 552.531L850.978 552.358L849.591 556.104L850.06 556.277L848.673 560.023L848.204 559.85L846.817 563.596L847.286 563.769L845.899 567.515L845.43 567.341L844.044 571.088L844.513 571.261L843.126 575.007L842.657 574.833L841.27 578.579L841.739 578.753L840.352 582.499L839.883 582.326L838.496 586.071L838.965 586.245L837.578 589.991L837.11 589.817L835.723 593.563L836.192 593.737L834.805 597.483L834.336 597.309L832.949 601.055L833.418 601.229L832.031 604.975L831.562 604.801L830.176 608.547L830.644 608.721L829.258 612.467L828.789 612.293L827.402 616.039L827.871 616.213L826.484 619.959L826.015 619.785L824.628 623.531L825.097 623.705L823.71 627.451L823.242 627.277L821.855 631.023L822.324 631.197L820.937 634.943L820.468 634.769L819.081 638.515L819.55 638.689L818.163 642.435L817.694 642.261L816.307 646.007L816.776 646.181L815.39 649.927L814.921 649.753L813.534 653.499L814.003 653.673L812.616 657.419L812.147 657.245L810.76 660.991L811.229 661.165L809.842 664.911L809.373 664.737L807.987 668.483L808.456 668.657L807.069 672.403L806.6 672.229L805.213 675.975L805.682 676.149L804.295 679.895L803.826 679.721L802.439 683.467L802.908 683.641L801.522 687.386L801.053 687.213L799.666 690.959L800.135 691.132L798.748 694.878L798.279 694.705L796.892 698.451L797.361 698.624L795.974 702.37L795.505 702.197L794.119 705.943L794.587 706.116L793.201 709.862L792.732 709.689L791.345 713.435L791.814 713.608L790.427 717.354L789.958 717.181L788.571 720.927L789.04 721.1L787.653 724.846L787.185 724.673L785.798 728.419L786.267 728.592L784.88 732.338L784.411 732.165L783.024 735.911L783.493 736.084L782.106 739.83L781.637 739.657L780.251 743.403L780.719 743.576L779.333 747.322L778.864 747.149L777.477 750.895L777.946 751.068L776.559 754.814L776.09 754.641L774.703 758.387L775.172 758.56L773.785 762.306L773.317 762.133L771.93 765.878L772.399 766.052L771.012 769.798L770.543 769.624L769.156 773.37L769.625 773.544L768.238 777.29L767.769 777.116L766.383 780.862L766.851 781.036L765.465 784.782L764.996 784.608L763.609 788.354L764.078 788.528L762.691 792.274L762.222 792.1L760.835 795.846L761.304 796.02L759.917 799.766L759.448 799.592L758.062 803.338L758.531 803.512L757.144 807.258L756.675 807.084L755.288 810.83L755.757 811.004L754.37 814.75L753.901 814.576L752.514 818.322L752.983 818.496L751.597 822.242L751.128 822.068L749.741 825.814L750.21 825.988L748.823 829.734L748.354 829.56L746.967 833.306L747.436 833.48L746.049 837.226L745.58 837.052L744.194 840.798L744.663 840.972L743.276 844.718L742.807 844.544L741.42 848.29L741.889 848.464L740.502 852.21L740.033 852.036L738.646 855.782L739.115 855.956L737.728 859.702L737.26 859.528L735.873 863.274L736.342 863.448L734.955 867.194L734.486 867.02L733.099 870.766L733.568 870.94L732.181 874.686L731.712 874.512L730.326 878.258L730.794 878.432L729.408 882.177L728.939 882.004L727.552 885.75L728.021 885.923L726.634 889.669L726.165 889.496L724.778 893.242L725.247 893.415L723.86 897.161L723.392 896.988L722.005 900.734L722.474 900.907L721.087 904.653L720.618 904.48L719.231 908.226L719.7 908.399L718.313 912.145L717.844 911.972L716.458 915.718L716.926 915.891L715.54 919.637L715.071 919.464L713.684 923.21L714.153 923.383Z" stroke="black" stroke-dasharray="4 4"/>
</svg>
