<svg xmlns="http://www.w3.org/2000/svg" viewBox="0 0 64 64"><defs><style>.a{fill:#998bc2;}.b{fill:none;stroke:#fff;stroke-linecap:round;stroke-miterlimit:10;stroke-width:2px;}</style></defs><circle class="a" cx="42.69" cy="29" r="21.31"/><path class="b" d="M28.35,16.07a14.19,14.19,0,0,1,20,0"/><path class="b" d="M27.61,50.73a3.07,3.07,0,0,1-2.16-.88L14,38.49a3,3,0,0,1,0-4.31,23.62,23.62,0,0,0,6.49-12.07A17.91,17.91,0,0,1,26,12.45a18.37,18.37,0,0,1,24.55-.11,18,18,0,0,1,.63,26.13L50.65,38l.52.52a18.2,18.2,0,0,1-9.23,4.93,23.79,23.79,0,0,0-12.16,6.45A3.07,3.07,0,0,1,27.61,50.73Z"/><line class="b" x1="22.61" y1="53.28" x2="10.56" y2="41.31"/><line class="b" x1="7.5" y1="44.34" x2="19.56" y2="56.31"/><line class="b" x1="7.84" y1="50.74" x2="13.11" y2="55.98"/></svg>