<svg xmlns="http://www.w3.org/2000/svg" viewBox="0 0 512 512"><defs><style>.a{fill:#5453a3;}.b{fill:none;stroke:#fff;stroke-linecap:round;stroke-miterlimit:10;stroke-width:3px;}</style></defs><circle class="a" cx="355.06" cy="163.35" r="110.37"/><polyline class="b" points="267.08 187.99 323.84 187.99 323.84 244.76"/><polyline class="b" points="244.59 324.01 187.83 324.01 187.83 267.24"/><polyline class="b" points="187.83 244.76 187.83 187.99 244.59 187.99"/><polyline class="b" points="323.84 267.24 323.84 324.01 267.08 324.01"/><path class="b" d="M366.58,366.74H145.09V145.26H366.58Z"/><line class="b" x1="415.83" y1="192.75" x2="366.91" y2="192.75"/><line class="b" x1="145.09" y1="188.6" x2="96.17" y2="188.6"/><line class="b" x1="415.83" y1="238.3" x2="366.91" y2="238.3"/><line class="b" x1="415.83" y1="283.85" x2="366.91" y2="283.85"/><line class="b" x1="145.09" y1="279.7" x2="96.17" y2="279.7"/><line class="b" x1="415.83" y1="329.4" x2="366.91" y2="329.4"/><line class="b" x1="145.09" y1="325.25" x2="96.17" y2="325.25"/><line class="b" x1="182.83" y1="145.26" x2="182.83" y2="96.34"/><line class="b" x1="192.19" y1="366.74" x2="192.19" y2="415.66"/><line class="b" x1="228.38" y1="145.26" x2="228.38" y2="96.34"/><line class="b" x1="237.74" y1="366.74" x2="237.74" y2="415.66"/><line class="b" x1="273.93" y1="145.26" x2="273.93" y2="96.34"/><line class="b" x1="283.29" y1="366.74" x2="283.29" y2="393.59"/><line class="b" x1="319.48" y1="145.26" x2="319.48" y2="96.34"/><line class="b" x1="328.84" y1="366.74" x2="328.84" y2="415.66"/></svg>