<svg xmlns="http://www.w3.org/2000/svg" viewBox="0 0 512 512"><defs><style>.a{fill:#2a9db4;}.b{fill:none;stroke:#fff;stroke-linecap:round;stroke-miterlimit:10;stroke-width:3px;}</style></defs><circle class="a" cx="362.37" cy="307.49" r="110.37"/><path class="b" d="M148.39,169.92a18.16,18.16,0,0,0-18.17,16.53L117.52,322a18.23,18.23,0,0,0,18.17,19.94H376.31A18.23,18.23,0,0,0,394.48,322l-12.7-135.51a18.16,18.16,0,0,0-18.17-16.53Z"/><line class="b" x1="278.35" y1="342.08" x2="273.25" y2="169.92"/><line class="b" x1="126.38" y1="227.45" x2="385.62" y2="227.45"/><line class="b" x1="138.6" y1="261.64" x2="225.15" y2="261.64"/><line class="b" x1="138.61" y1="284.57" x2="252" y2="284.57"/><line class="b" x1="138.6" y1="307.49" x2="194" y2="307.49"/><line class="b" x1="139.91" y1="192" x2="195.3" y2="192"/><polygon class="b" points="136.96 218.01 137.71 208.65 266.62 208.65 266.87 218.01 136.96 218.01"/><path class="b" d="M316.57,271.18a28.52,28.52,0,0,0,0,40.05,27.84,27.84,0,0,0,39.62,0,28.52,28.52,0,0,0,0-40.05,27.74,27.74,0,0,0-19.81-8.27"/><polyline class="b" points="290.88 213.9 312.75 192.01 336.96 207.3 364.4 177.57"/></svg>