<?xml version="1.0" encoding="utf-8"?>
<!-- Generator: Adobe Illustrator 26.0.2, SVG Export Plug-In . SVG Version: 6.00 Build 0)  -->
<svg version="1.1" id="Develop_App" xmlns="http://www.w3.org/2000/svg" xmlns:xlink="http://www.w3.org/1999/xlink" x="0px"
	 y="0px" viewBox="0 0 1017 796" style="enable-background:new 0 0 1017 796;" xml:space="preserve">
<style type="text/css">
	.st0{fill:none;stroke:#E1E7F4;stroke-width:13;stroke-linecap:round;stroke-miterlimit:10;}
	.st1{fill:#5B5A5C;}
	.st2{fill:#403E41;}
	.st3{fill:#9EF482;}
	.st4{fill:#FFC95E;}
	.st5{fill:#D44945;}
	.st6{fill:none;stroke:#76D9E4;stroke-miterlimit:10;}
	.st7{fill:#687CCD;}
	.st8{fill:#373438;}
	.st9{fill:#1A171A;}
	.st10{fill:#555356;}
	.st11{fill:none;stroke:#4878EA;stroke-miterlimit:10;}
	.st12{fill:#F0F0EE;}
	.st13{fill:#FFA79B;}
	.st14{fill:#4878EA;}
	.st15{fill:#FCD65B;}
	.st16{fill:none;stroke:#000000;stroke-width:7;stroke-linecap:round;stroke-miterlimit:10;}
	.st17{fill:none;stroke:#F95D84;stroke-width:15;stroke-linecap:round;stroke-miterlimit:10;}
	.st18{fill:none;stroke:#6B7E9B;stroke-miterlimit:10;}
	.st19{fill:#6B7E9B;}
	.st20{fill:#211F22;}
	.st21{fill:#76D9E4;}
	.st22{fill:#9EDC6F;}
	.st23{fill:#F95D84;}
	.st24{display:none;fill:#E2ECF9;}
	.st25{fill:#2E2B2F;}
	.st26{fill:#CCCCCC;}
	.st27{fill:#363438;}
	.st28{fill:#76D9E4;fill-opacity:0.25;stroke:#76D9E4;stroke-width:0.5;stroke-miterlimit:10;}
	.st29{fill:#939393;}
	.st30{fill:#E5A39E;}
	.st31{fill:#FFFFFF;}
	.st32{fill:#8C6D6B;}
	.st33{fill:#A5807C;}
</style>
<line id="Floor" class="st0" x1="1004.9" y1="779" x2="71.1" y2="779"/>
<g id="Folder">
	<path class="st1" d="M235,440.5h434.6c3.6,0,6.4-2.9,6.4-6.4V29.4H228.6v404.6C228.6,437.6,231.4,440.5,235,440.5z"/>
	<path class="st2" d="M235,9h434.6c3.6,0,6.4,2.9,6.4,6.4v14H228.6v-14C228.6,11.9,231.4,9,235,9z"/>
	<path class="st3" d="M279,19.1c0,2.9,2.3,5.2,5.2,5.2s5.2-2.3,5.2-5.2c0-2.9-2.3-5.2-5.2-5.2S279,16.3,279,19.1z"/>
	<path class="st4" d="M262.3,19.1c0,2.9,2.3,5.2,5.2,5.2c2.9,0,5.2-2.3,5.2-5.2c0-2.9-2.3-5.2-5.2-5.2
		C264.6,14,262.3,16.3,262.3,19.1z"/>
	<path class="st5" d="M245.6,19.1c0,2.9,2.3,5.2,5.2,5.2c2.9,0,5.2-2.3,5.2-5.2c0-2.9-2.3-5.2-5.2-5.2
		C247.9,14,245.6,16.3,245.6,19.1z"/>
</g>
<g id="Photo_Box">
	<g>
		<rect x="180.8" y="84.7" class="st6" width="248.3" height="166.5"/>
		<line class="st6" x1="180.8" y1="84.7" x2="429.1" y2="251.2"/>
		<line class="st6" x1="429.1" y1="84.7" x2="180.8" y2="251.2"/>
	</g>
	<g>
		<path class="st7" d="M208.9,192.1h-43.3c-2.5,0-4.5-2-4.5-4.5l0,0c0-2.5,2-4.5,4.5-4.5h43.3c2.5,0,4.5,2,4.5,4.5l0,0
			C213.4,190,211.4,192.1,208.9,192.1z"/>
		<path class="st7" d="M229.9,208.8h-64.3c-2.5,0-4.5-2-4.5-4.5l0,0c0-2.5,2-4.5,4.5-4.5h64.3c2.5,0,4.5,2,4.5,4.5l0,0
			C234.4,206.7,232.3,208.8,229.9,208.8z"/>
		<path class="st7" d="M229.9,225.5h-64.3c-2.5,0-4.5-2-4.5-4.5v0c0-2.5,2-4.5,4.5-4.5h64.3c2.5,0,4.5,2,4.5,4.5v0
			C234.4,223.5,232.3,225.5,229.9,225.5z"/>
	</g>
</g>
<g id="Screen">
	<path class="st8" d="M867,776H524c-16.3,0-29.6-13.2-29.6-29.6V100.3c0-16.3,13.2-29.6,29.6-29.6h343c16.3,0,29.6,13.2,29.6,29.6
		v646.1C896.5,762.7,883.3,776,867,776z"/>
	<path class="st9" d="M894.7,100c0-16.3-14.5-29.6-32.4-29.6H528.3c-17.9,0-32.4,13.2-32.4,29.6v273.6
		c43.6,34,104.2,63.9,186.8,73.1c87.7,9.8,158.5,2.5,212-9.8V100z"/>
	<path class="st10" d="M567.8,691.2H483c-6.1,0-11.1-5-11.1-11.1v-84.9c0-6.1,5-11.1,11.1-11.1h84.9c6.1,0,11.1,5,11.1,11.1v84.9
		C578.9,686.3,574,691.2,567.8,691.2z"/>
	<path class="st10" d="M691.3,691.2h-84.9c-6.1,0-11.1-5-11.1-11.1v-84.9c0-6.1,5-11.1,11.1-11.1h84.9c6.1,0,11.1,5,11.1,11.1v84.9
		C702.4,686.3,697.4,691.2,691.3,691.2z"/>
	<path class="st10" d="M814.7,691.2h-84.9c-6.1,0-11.1-5-11.1-11.1v-84.9c0-6.1,5-11.1,11.1-11.1h84.9c6.1,0,11.1,5,11.1,11.1v84.9
		C825.8,686.3,820.8,691.2,814.7,691.2z"/>
	<path class="st11" d="M875.5,767.4H514.9c-16.3,0-29.6-13.2-29.6-29.6V91.8c0-16.3,13.2-29.6,29.6-29.6h360.6
		c16.3,0,29.6,13.2,29.6,29.6v646.1C905.1,754.2,891.8,767.4,875.5,767.4z"/>
	<path class="st12" d="M770.4,435.1H582.2c-6.6,0-12-5.4-12-12v-0.4c0-6.6,5.4-12,12-12h188.1c6.6,0,12,5.4,12,12v0.4
		C782.4,429.7,777,435.1,770.4,435.1z"/>
	<g>
		<path class="st12" d="M784.7,464.6h-244c-2.8,0-5.1,2.3-5.1,5.1l0,0c0,2.8,2.3,5.1,5.1,5.1h244c2.8,0,5.1-2.3,5.1-5.1l0,0
			C789.8,466.9,787.5,464.6,784.7,464.6z"/>
		<path class="st12" d="M784.7,491.4h-244c-2.8,0-5.1,2.3-5.1,5.1l0,0c0,2.8,2.3,5.1,5.1,5.1h244c2.8,0,5.1-2.3,5.1-5.1l0,0
			C789.8,493.7,787.5,491.4,784.7,491.4z"/>
		<path class="st12" d="M784.7,518.2h-244c-2.8,0-5.1,2.3-5.1,5.1l0,0c0,2.8,2.3,5.1,5.1,5.1h244c2.8,0,5.1-2.3,5.1-5.1l0,0
			C789.8,520.5,787.5,518.2,784.7,518.2z"/>
		<path class="st12" d="M706.1,544.9H540.6c-2.8,0-5.1,2.3-5.1,5.1l0,0c0,2.8,2.3,5.1,5.1,5.1h165.5c2.8,0,5.1-2.3,5.1-5.1l0,0
			C711.3,547.2,709,544.9,706.1,544.9z"/>
	</g>
</g>
<g id="Man_1">
	<g>
		<g>
			<path class="st13" d="M276.7,735.4l-12.4,26.2c-9.6-1.9-11.6,3.8-15.4-1c-1.6-2-6.5-2.2-11.6-1.7l7.9-23.5H276.7z"/>
			<polygon class="st7" points="305.1,675.5 283.8,735.4 244.5,735.6 283.2,622.8 			"/>
			<polygon points="295,703.9 305.1,675.5 283.2,622.8 272.1,655 			"/>
			<path class="st14" d="M290.7,779h-60.2l6.8-20c5.1-0.5,10-0.4,11.6,1.7c3.9,4.8,5.8-1,15.4,1l27.7,11.3
				C295.1,774.2,294.2,779,290.7,779z"/>
			<g>
				<g>
					<path d="M289.2,662.5c-6.4,17.9-12.9,35.9-19.3,53.8c-1.8,5.1-3.6,10.1-5.5,15.2c-0.3,0.8,1,1.1,1.3,0.3
						c6.4-17.9,12.9-35.9,19.3-53.8c1.8-5.1,3.6-10.1,5.5-15.2C290.8,662.1,289.5,661.7,289.2,662.5L289.2,662.5z"/>
				</g>
			</g>
			<g>
				<g>
					<path d="M250.8,725.6c11.7,0.3,23.4,0.7,35.1,1c0.8,0,0.8-1.3,0-1.3c-11.7-0.3-23.4-0.7-35.1-1
						C249.9,724.2,249.9,725.5,250.8,725.6L250.8,725.6z"/>
				</g>
			</g>
		</g>
		<g>
			<rect x="285.8" y="528.5" width="88.3" height="3.9"/>
			<rect x="345.9" y="494.1" transform="matrix(-0.3234 0.9463 -0.9463 -0.3234 977.0659 292.3813)" width="76.2" height="2.8"/>
		</g>
		<g>
			<path class="st13" d="M189.4,438.9l39.9-40.3l36,18.4l-14.5,27.1c-3.3,6.3-11.2,8.5-17.3,4.9l-10.6-6.3l-11.6,15.4L189.4,438.9z"
				/>
			<path d="M239.5,414.5c0,0,25.7,19.3,34.7,7.7c9-11.6-27-39.9-43.7-34.7c-16.7,5.1-24.4,33.4-24.4,33.4l16.7,5.1
				c0,0-3.9-18,5.1-18s6.4,11.6,6.4,11.6L239.5,414.5z"/>
			<g>
				<g>
					<path d="M254.9,429.9c0,2.2-0.1,4.4-0.1,6.6c0.2-0.2,0.3-0.4,0.5-0.6c-1.8,0.4-3.6,0.1-5.2-0.8c-0.7-0.4-1.4,0.7-0.7,1.1
						c1.9,1.1,4.1,1.4,6.2,0.9c0.3-0.1,0.5-0.4,0.5-0.6c0-2.2,0.1-4.4,0.1-6.6C256.2,429.1,254.9,429.1,254.9,429.9L254.9,429.9z"/>
				</g>
			</g>
			<g>
				<g>
					<path d="M242.2,439.3c-2.6-1.8-4.7-4.3-6.2-7.1c-0.2-0.4-0.7-0.4-1-0.1c-3,3.1-3,8.5,0.2,11.6c0.6,0.6,1.5-0.3,0.9-0.9
						c-2.6-2.5-2.7-7.1-0.2-9.7c-0.3,0-0.7-0.1-1-0.1c1.6,3,3.9,5.6,6.7,7.6C242.2,440.9,242.9,439.7,242.2,439.3L242.2,439.3z"/>
				</g>
			</g>
			<g>
				<g>
					<path d="M225.8,413.5c0.1-0.6,0.5-1,1-1.2c0.7-0.2,1.4-0.2,2.2,0c0.7,0.2,1.4,0.6,1.7,1.2c0.7,1,0.6,2.5,0.4,3.6
						c-0.4,1.6-1.1,3.1-1.9,4.5c0.4,0.2,0.8,0.3,1.2,0.5c1-3.2-1.4-6.7-4.7-7.2c-0.4,0-0.7,0.3-0.7,0.7c0,0.4,0.3,0.6,0.7,0.7
						c2.5,0.3,4.2,3.2,3.4,5.5c-0.2,0.7,0.8,1.2,1.2,0.5c0.8-1.5,1.7-3.1,2.1-4.8c0.3-1.5,0.4-3.2-0.4-4.6c-1-1.7-3.5-2.6-5.4-1.9
						c-1.1,0.4-1.8,1.3-2,2.5c0,0.4,0.3,0.7,0.7,0.7C225.6,414.1,225.8,413.8,225.8,413.5L225.8,413.5z"/>
				</g>
			</g>
		</g>
		<g>
			<g>
				<path d="M306.8,725.4c13.5-0.3,27,0.3,40.4,1.7c0.8,0.1,0.8-1.2,0-1.3c-13.4-1.4-26.9-2-40.4-1.7
					C306,724.1,306,725.4,306.8,725.4L306.8,725.4z"/>
			</g>
		</g>
		<g>
			<path class="st13" d="M356.5,755.8c-10,0-11.2,7.7-17,4.8c-1.4-0.7-5.9-0.9-12.1-0.8l-9.3-24.4h34L356.5,755.8z"/>
			<path class="st7" d="M352,735.4l-44.4,0.1l-28.3-101.3H156.9c-20.2,0-37.1-15.4-39-35.5l-1.8-19.8h163.3
				c22.5,0,41.9,15.7,46.5,37.7l25.8,117.4L352,735.4z"/>
			<path class="st14" d="M389.7,779h-55.1l-7.3-19.1c6.2-0.1,10.7,0.1,12.1,0.8c5.8,2.9,7.1-4.8,17-4.8l34.6,17.2
				C394.1,774.5,393,779,389.7,779z"/>
			<g>
				<g>
					<path d="M156.4,581.6c2,6.5,7.4,11.3,13.5,13.9c7.7,3.3,16.3,3.5,24.6,4c18.2,1.2,36.3,2.9,54.4,5.2c9.2,1.2,18.4,2.5,27.5,4
						c4.3,0.7,8.7,1.3,13,2.2c2,0.4,3.8,1.2,4.9,3c1,1.6,1.5,3.6,2,5.5c5.3,17.7,10.6,35.4,16,53.1c5.3,17.7,10.6,35.4,16,53.1
						c0.7,2.2,1.3,4.5,2,6.7c0.2,0.8,1.5,0.5,1.3-0.3c-5.3-17.7-10.6-35.4-16-53.1c-5.3-17.7-10.6-35.4-16-53.1
						c-0.7-2.2-1.3-4.5-2-6.7c-0.5-1.8-1-3.7-1.9-5.3c-1.9-3.5-5.6-4-9.2-4.6c-8.9-1.5-17.8-2.9-26.8-4.2c-18-2.5-36-4.5-54.1-5.9
						c-4.6-0.4-9.1-0.7-13.7-0.9c-4.4-0.3-8.8-0.5-13.1-1.3c-7.2-1.3-14.7-4.5-18.9-10.8c-1-1.5-1.7-3.1-2.2-4.7
						C157.5,580.4,156.2,580.8,156.4,581.6L156.4,581.6z"/>
				</g>
			</g>
			<g>
				<g>
					<path d="M281,621.8c0,3.5,0,7.1,0,10.6c0,0.8,1.3,0.8,1.3,0c0-3.5,0-7.1,0-10.6C282.3,621,281,621,281,621.8L281,621.8z"/>
				</g>
			</g>
			<g>
				<g>
					<path d="M286.1,632.6c0.6-1.6,1.3-3.2,1.9-4.8c0.1-0.3-0.1-0.7-0.5-0.8c-0.4-0.1-0.7,0.1-0.8,0.5c-0.6,1.6-1.3,3.2-1.9,4.8
						c-0.1,0.3,0.1,0.7,0.5,0.8C285.7,633.1,286,632.9,286.1,632.6L286.1,632.6z"/>
				</g>
			</g>
			<polygon points="116.1,579.1 117.5,593.9 185.9,579.1 			"/>
		</g>
		<g>
			<path class="st15" d="M133.2,482.6l-17.2,96.5h120.9l-11.5-112.3c-0.9-8.6-6-16.1-13.6-20.1l-10.6-5.6c-16.9-8.9-37.7-5.5-51,8.2
				v0C141.4,458.4,135.5,470,133.2,482.6z"/>
			<path d="M191,520.6c0,0,4.2,22.7,29.3,27.2c5.2,0.3,9.8,0.5,13.5,0.6l-8.3-81.6c-0.5-4.7-2.3-9.1-5-12.8
				c-11.7-6.2-30.2-10-42.7,16.9c0,0-2.5,30.1,2.2,52.2L191,520.6z"/>
			<g>
				<g>
					<path d="M179.6,502.6c-2.7,19.9-5.9,39.7-9.5,59.4c-1,5.6-2.1,11.2-3.2,16.7c-0.2,0.8,1.1,1.2,1.3,0.3
						c3.9-19.7,7.3-39.4,10.3-59.3c0.8-5.6,1.6-11.2,2.4-16.9C181,502.2,179.7,501.8,179.6,502.6L179.6,502.6z"/>
				</g>
			</g>
		</g>
		<g>
			<path class="st15" d="M177.8,470.8l5.2,45.2l55.3-10.3L227,464.1c-1.9-7-6.6-12.9-13-16.3l-1.4-0.7
				C195.6,438.1,175.6,451.8,177.8,470.8z"/>
			<path class="st13" d="M343.6,525.9c0,0-5.1-6.9-7.7-10.7c-5.1-7.6-8.6-5.1-14.1-2.1c-5.6,3-19.3,1.7-19.3,1.7l-64.3-9l-42.4,7.1
				l0,0c2.1,17.4,17.9,29.8,35.4,27.8l71.3-11.7c0,0,10.3,1.3,15.4,0.9c5.1-0.4,6.4-3.9,9.9-6.9c3.4-3,3-7.7,3.4-3.9
				c0.4,3.9,3.9,6.9,6,7.3C339.4,526.8,342.8,528.1,343.6,525.9z"/>
			<g>
				<g>
					<path d="M204.6,444.6c-10.6-2.7-21.9,3.5-26.8,13c-1.1,2.2-1.9,4.5-2,7c0,0.8,1.3,0.8,1.3,0c0.2-4.3,2.6-8.3,5.4-11.3
						c3.4-3.7,7.8-6.5,12.7-7.6c3-0.7,6.1-0.6,9.1,0.2C205.1,446.1,205.5,444.9,204.6,444.6L204.6,444.6z"/>
				</g>
			</g>
			<g>
				<g>
					<path d="M187,510.4c15.3-3.9,30.8-6.7,46.5-8.3c0.8-0.1,0.8-1.4,0-1.3c-15.8,1.6-31.5,4.4-46.9,8.4
						C185.8,509.3,186.2,510.6,187,510.4L187,510.4z"/>
				</g>
			</g>
		</g>
	</g>
	<g>
		<path class="st16" d="M107.1,779h81.3c29.3,0,50.5-28.1,42.4-56.3l-23.5-81.9c-1.1-3.8-4.6-6.5-8.6-6.5h-34.1
			c-3.7,0-7-2.3-8.3-5.7l-22-56.7c-3.3-8.5,3-17.7,12.1-17.7h65.9"/>
		<path class="st17" d="M245.9,634.3h-87.5c-29.4,0-54.2-24.5-57.6-57.1l-13-124.2"/>
	</g>
	<g>
		<path class="st16" d="M280.6,779h70.9c33.2,0,57.2-40.5,48-81.1l-36.4-152.3c-1.2-5.5-5.2-9.3-9.7-9.3"/>
		<line class="st17" x1="272.4" y1="539.6" x2="393.9" y2="539.6"/>
	</g>
</g>
<ellipse transform="matrix(0.4707 -0.8823 0.8823 0.4707 455.1467 815.408)" class="st18" cx="907.2" cy="28.3" rx="19.1" ry="19.1"/>
<circle class="st18" cx="422.2" cy="85.3" r="19.1"/>
<ellipse transform="matrix(0.1768 -0.9842 0.9842 0.1768 690.9022 992.4579)" class="st18" cx="938.8" cy="83.2" rx="14.1" ry="14.1"/>
<ellipse transform="matrix(0.7071 -0.7071 0.7071 0.7071 50.5519 234.9001)" class="st18" cx="308.8" cy="56.4" rx="14.1" ry="14.1"/>
<ellipse transform="matrix(0.9225 -0.386 0.386 0.9225 -79.4954 61.497)" class="st18" cx="113.4" cy="228.7" rx="14.1" ry="14.1"/>
<path class="st11" d="M379.6,487.8c-48.3,0-87.4-39.2-87.3-87.4"/>
<g>
	<g>
		<path class="st19" d="M135.3,96.6c5.6,2.5,11.2,5.1,16.8,7.6c1.2,0.6,2.7,0.4,3.4-0.9c0.6-1.1,0.3-2.9-0.9-3.4
			c-5.6-2.5-11.2-5.1-16.8-7.6c-1.2-0.6-2.7-0.4-3.4,0.9C133.8,94.2,134.1,96,135.3,96.6L135.3,96.6z"/>
	</g>
</g>
<g>
	<g>
		<path class="st19" d="M150.5,71.5c3.9,3.8,7.7,7.7,11.6,11.5c0.9,0.9,2.6,1,3.5,0c0.9-1,1-2.6,0-3.5c-3.9-3.8-7.7-7.7-11.6-11.5
			c-0.9-0.9-2.6-1-3.5,0C149.5,69,149.5,70.5,150.5,71.5L150.5,71.5z"/>
	</g>
</g>
<g>
	<g>
		<path class="st19" d="M172.9,54.5c1.7,3.4,3.5,6.8,5.2,10.2c0.6,1.2,2.3,1.6,3.4,0.9c1.2-0.8,1.5-2.2,0.9-3.4
			c-1.7-3.4-3.5-6.8-5.2-10.2c-0.6-1.2-2.3-1.6-3.4-0.9C172.6,51.9,172.3,53.3,172.9,54.5L172.9,54.5z"/>
	</g>
</g>
<g>
	<g>
		<path class="st19" d="M928.3,205.7c6-2.1,12-4.2,18-6.3c1.3-0.4,2.1-1.7,1.7-3.1c-0.3-1.2-1.8-2.2-3.1-1.7c-6,2.1-12,4.2-18,6.3
			c-1.3,0.4-2.1,1.7-1.7,3.1C925.6,205.2,927.1,206.2,928.3,205.7L928.3,205.7z"/>
	</g>
</g>
<g>
	<g>
		<path class="st19" d="M930.4,226.7c6.4-0.5,12.8-1.1,19.3-1.6c1.3-0.1,2.5-1.1,2.5-2.5c0-1.3-1.1-2.6-2.5-2.5
			c-6.4,0.5-12.8,1.1-19.3,1.6c-1.3,0.1-2.5,1.1-2.5,2.5C927.9,225.5,929,226.9,930.4,226.7L930.4,226.7z"/>
	</g>
</g>
<g>
	<g>
		<path class="st19" d="M929.3,255.6c6.5,3.6,13.1,7.3,19.6,10.9c2.8,1.6,5.3-2.7,2.5-4.3c-6.5-3.6-13.1-7.3-19.6-10.9
			C929,249.8,926.4,254.1,929.3,255.6L929.3,255.6z"/>
	</g>
</g>
<g>
	<g>
		<path class="st19" d="M5.9,369.2c6.2-1.9,12.3-3.8,18.5-5.7c1.3-0.4,2.1-1.7,1.7-3.1c-0.4-1.3-1.8-2.1-3.1-1.7
			c-6.2,1.9-12.3,3.8-18.5,5.7c-1.3,0.4-2.1,1.7-1.7,3.1C3.2,368.7,4.6,369.6,5.9,369.2L5.9,369.2z"/>
	</g>
</g>
<g>
	<g>
		<path class="st19" d="M18.2,393c4.2-3.4,8.5-6.8,12.7-10.2c1-0.8,0.9-2.7,0-3.5c-1.1-1-2.4-0.9-3.5,0c-4.2,3.4-8.5,6.8-12.7,10.2
			c-1,0.8-0.9,2.7,0,3.5C15.8,394,17.1,393.8,18.2,393L18.2,393z"/>
	</g>
</g>
<g>
	<g>
		<path class="st19" d="M36.9,413.2c1.3-2.4,2.7-4.8,4.2-7.1c0.8-1.1,1.5-2.2,2.4-3.3c0.2-0.3,0.4-0.5,0.6-0.8
			c0.3-0.3-0.2,0.2,0.1-0.1c0.1-0.1,0.2-0.3,0.3-0.4c0.4-0.6,0.9-1.1,1.4-1.7c0.8-1,1.1-2.6,0-3.5c-0.9-0.8-2.6-1.1-3.5,0
			c-3.7,4.5-7,9.3-9.7,14.4c-0.6,1.2-0.3,2.8,0.9,3.4C34.7,414.7,36.3,414.4,36.9,413.2L36.9,413.2z"/>
	</g>
</g>
<g>
	<g>
		<path class="st19" d="M958.1,355.1c0.4,0,0.8,0,1.2,0.1c0.6,0-0.4-0.1,0.1,0c0.2,0,0.5,0.1,0.7,0.1c0.8,0.2,1.6,0.4,2.3,0.7
			c0.2,0.1,0.1,0.1-0.1-0.1c0.1,0,0.2,0.1,0.3,0.1c0.2,0.1,0.4,0.2,0.6,0.3c0.4,0.2,0.7,0.4,1.1,0.6c0.3,0.2,0.7,0.5,1,0.7
			c-0.3-0.3,0,0,0.1,0.1c0.2,0.1,0.3,0.3,0.5,0.4c0.6,0.5,1.2,1.1,1.7,1.8c0.4,0.5-0.3-0.4,0.1,0.1c0.1,0.2,0.2,0.3,0.3,0.5
			c0.2,0.3,0.4,0.7,0.6,1c0.2,0.4,0.4,0.7,0.5,1.1c0.2,0.5-0.1-0.4,0.1,0.1c0.1,0.2,0.1,0.4,0.2,0.6c0.1,0.4,0.3,0.8,0.4,1.3
			c0,0.2,0.1,0.4,0.1,0.6c0.1,0.7,0-0.3,0,0.2c0.1,1.3,1,2.6,2.5,2.5c1.2-0.1,2.7-1.1,2.5-2.5c-0.5-4.2-2.4-8-5.6-10.9
			c-3.1-2.8-7.1-4.5-11.3-4.6c-1.3,0-2.6,1.2-2.5,2.5C955.6,354,956.7,355.1,958.1,355.1L958.1,355.1z"/>
	</g>
</g>
<g>
	<g>
		<path class="st19" d="M975.3,352.3c0.5,0.5,1,1,1.5,1.5c0.2,0.3,0.5,0.6,0.7,0.8c0.1,0.1,0.2,0.3,0.3,0.4c0.1,0.1,0.2,0.3,0.1,0.1
			c0.9,1.1,1.6,2.4,2.3,3.6c0.3,0.6,0.6,1.2,0.9,1.9c-0.1-0.2,0-0.1,0,0.1c0.1,0.2,0.1,0.3,0.2,0.5c0.1,0.3,0.3,0.7,0.4,1
			c0.5,1.4,0.8,2.7,1,4.2c0.2,1.3,1.9,2.1,3.1,1.7c1.4-0.5,2-1.7,1.7-3.1c-1-6.1-4.2-11.9-8.7-16.2c-0.9-0.9-2.6-1-3.5,0
			C974.4,349.7,974.3,351.3,975.3,352.3L975.3,352.3z"/>
	</g>
</g>
<g>
	<g>
		<path class="st19" d="M380.7,421.7c-2.2,8.7,1.4,18.1,8.6,23.4c1.1,0.8,2.8,0.2,3.4-0.9c0.7-1.3,0.2-2.6-0.9-3.4
			c-5.4-3.9-7.9-11.4-6.3-17.7C386.3,419.9,381.5,418.6,380.7,421.7L380.7,421.7z"/>
	</g>
</g>
<g>
	<g>
		<path class="st19" d="M366.2,431.3c-0.7,6.8,4.3,13.7,10.9,15.3c1.3,0.3,2.8-0.4,3.1-1.7c0.3-1.3-0.4-2.7-1.7-3.1
			c-0.4-0.1-0.7-0.2-1-0.3c-0.1,0-0.3-0.1-0.4-0.2c-0.2-0.1-0.1,0,0.2,0.1c-0.1,0-0.2-0.1-0.2-0.1c-0.6-0.3-1.2-0.6-1.7-1
			c-0.3-0.2-0.2-0.1,0,0c-0.1-0.1-0.3-0.2-0.4-0.3c-0.3-0.2-0.5-0.5-0.8-0.7c-0.2-0.2-0.4-0.4-0.6-0.7c-0.1-0.1-0.2-0.2-0.2-0.3
			c0.1,0.1,0.1,0.1,0.2,0.2c0,0-0.3-0.4-0.3-0.4c-0.4-0.5-0.7-1.1-1-1.7c-0.1-0.1-0.3-0.7,0-0.1c-0.1-0.1-0.1-0.3-0.2-0.4
			c-0.1-0.3-0.2-0.6-0.3-0.9c-0.1-0.3-0.2-0.7-0.2-1c0-0.1-0.1-0.6,0-0.2c0.1,0.4,0-0.1,0-0.2c-0.1-0.7,0-1.4,0-2.2
			c0.1-1.3-1.2-2.6-2.5-2.5C367.2,428.9,366.4,429.9,366.2,431.3L366.2,431.3z"/>
	</g>
</g>
<g>
	<g>
		<path class="st19" d="M321.9,585c6,4.2,9.7,11.3,10,18.5c0.1,1.3,1.1,2.5,2.5,2.5c1.3,0,2.6-1.1,2.5-2.5
			c-0.4-9.1-5.1-17.6-12.5-22.8c-1.1-0.8-2.8-0.2-3.4,0.9C320.3,582.8,320.8,584.2,321.9,585L321.9,585z"/>
	</g>
</g>
<g>
	<g>
		<path class="st19" d="M336.3,585.5c3.9,5.6,6.4,11.9,7.6,18.6c0.2,1.3,1.9,2.1,3.1,1.7c1.4-0.4,2-1.7,1.7-3.1
			c-1.2-7.1-4-13.9-8.1-19.8c-0.8-1.1-2.2-1.6-3.4-0.9C336.1,582.7,335.5,584.4,336.3,585.5L336.3,585.5z"/>
	</g>
</g>
<path class="st11" d="M343.6,269.2c0-77.4,62.8-140.1,140.2-140.1"/>
<g>
	<path class="st20" d="M426.7,380.6H42c-2.6,0-4.7-2.1-4.7-4.7V124.1c0-2.6,2.1-4.7,4.7-4.7h384.7c2.6,0,4.7,2.1,4.7,4.7v251.7
		C431.5,378.5,429.3,380.6,426.7,380.6z"/>
	<g>
		<path class="st12" d="M59.9,161.8c-1.6,0-2.5-0.9-2.5-2.2v-4.4h-1.7v-0.9h1.7v-1.7l1.2-0.1v1.8h2.5l-0.2,0.9h-2.4v4.4
			c0,0.8,0.4,1.2,1.4,1.2c0.5,0,1-0.1,1.4-0.3l0.5,0.8C61.4,161.7,60.6,161.8,59.9,161.8z"/>
		<path class="st12" d="M70.4,154.4l-0.2,2.5h-0.9v-1.6h-0.1c-1.1,0-1.9,0.8-2.4,2.4v3.1h1.5v0.9h-3.8v-0.9h1.2v-5.5h-1.2v-0.9h2
			l0.2,1.7c0.6-1.2,1.3-1.9,2.6-1.9C69.8,154.2,70.1,154.3,70.4,154.4z"/>
		<path class="st12" d="M78.6,161l-0.3,0.8c-0.6-0.1-1.1-0.4-1.3-1c-0.5,0.7-1.3,1-2.3,1c-1.5,0-2.4-0.9-2.4-2.3
			c0-1.5,1.2-2.3,3.4-2.3h1.1v-0.6c0-1.1-0.7-1.5-1.7-1.5c-0.5,0-1.2,0.1-1.9,0.4l-0.3-0.9c0.9-0.3,1.7-0.5,2.4-0.5
			c1.8,0,2.7,0.9,2.7,2.4v3.5C78,160.7,78.2,160.9,78.6,161z M76.9,159.9v-1.9h-1.1c-1.6,0-2.2,0.6-2.2,1.5c0,0.9,0.4,1.4,1.4,1.4
			C75.7,161,76.4,160.6,76.9,159.9z"/>
		<path class="st12" d="M86.7,151.4v10.3h-1l-0.1-1c-0.5,0.8-1.3,1.1-2.1,1.1c-1.9,0-2.8-1.5-2.8-3.8c0-2.2,1.1-3.8,2.9-3.8
			c0.8,0,1.5,0.3,2,0.9v-3.8L86.7,151.4z M81.9,158c0,1.9,0.6,2.9,1.8,2.9c0.8,0,1.4-0.6,1.8-1.2v-3.6c-0.4-0.6-1-0.9-1.7-0.9
			C82.6,155.2,81.9,156.1,81.9,158z"/>
		<path class="st12" d="M92.5,160.9c0.8,0,1.3-0.2,2-0.7L95,161c-0.7,0.5-1.6,0.8-2.5,0.8c-2.1,0-3.4-1.5-3.4-3.8
			c0-2.2,1.2-3.8,3.2-3.8c1.8,0,3,1.4,3,3.6c0,0.3,0,0.5,0,0.6h-4.9C90.5,160.1,91.4,160.9,92.5,160.9z M90.4,157.6h3.8
			c0-1.6-0.7-2.4-1.8-2.4C91.3,155.2,90.5,155.9,90.4,157.6z"/>
		<path class="st21" d="M111.6,156.6h-5.4v-1h5.4V156.6z M111.6,159.2h-5.4v-1h5.4V159.2z"/>
		<path class="st12" d="M128.4,151.4v10.3h-1l-0.1-1c-0.5,0.8-1.3,1.1-2.1,1.1c-1.9,0-2.8-1.5-2.8-3.8c0-2.2,1.1-3.8,2.9-3.8
			c0.8,0,1.5,0.3,2,0.9v-3.8L128.4,151.4z M123.7,158c0,1.9,0.6,2.9,1.8,2.9c0.8,0,1.4-0.6,1.8-1.2v-3.6c-0.4-0.6-1-0.9-1.7-0.9
			C124.4,155.2,123.7,156.1,123.7,158z"/>
		<path class="st12" d="M134.5,154.2c1.9,0,2.7,1.5,2.7,3.8c0,2.2-1,3.8-2.9,3.8c-0.8,0-1.5-0.3-2-0.9l-0.1,0.8h-1v-10.3l1.2-0.1v4
			C132.9,154.6,133.6,154.2,134.5,154.2z M135.9,158c0-1.9-0.6-2.9-1.7-2.9c-0.8,0-1.4,0.6-1.8,1.2v3.6c0.4,0.6,1,0.9,1.7,0.9
			C135.2,160.9,135.9,160,135.9,158z"/>
		<path class="st12" d="M142.3,159.4c0.7,0,1.2,0.5,1.2,1.2c0,0.7-0.5,1.2-1.2,1.2c-0.7,0-1.2-0.5-1.2-1.2
			C141.1,159.9,141.6,159.4,142.3,159.4z"/>
		<path class="st22" d="M151.6,160.8h2.1v0.9h-5.5v-0.9h2.3v-5.5h-2.2v-0.9h3.4V160.8z M151.5,151.8c0,0.5-0.3,0.8-0.9,0.8
			c-0.5,0-0.8-0.3-0.8-0.8s0.3-0.8,0.8-0.8C151.2,151,151.5,151.3,151.5,151.8z"/>
		<path class="st12" d="M160.8,163l-0.6,0.6c-2.3-1.8-3.6-3.6-3.6-6.8s1.3-5,3.6-6.8l0.6,0.6c-2,1.8-3,3.3-3,6.2
			C157.8,159.7,158.8,161.2,160.8,163z"/>
		<path class="st12" d="M165.5,151.4h1.5l-0.2,3.6h-1L165.5,151.4z M167.8,151.4h1.5L169,155h-1L167.8,151.4z"/>
		<path class="st15" d="M179.4,161.7h-1.2l-0.3-5c-0.1-1.3-0.1-3-0.1-3.5l-1.6,6.7h-1.2l-1.7-6.7c0,0.5,0,2.3,0,3.5l-0.3,5h-1.1
			l0.5-9.6h1.7l1.6,6.6l1.5-6.6h1.7L179.4,161.7z"/>
		<path class="st15" d="M187.1,161l-0.3,0.8c-0.6-0.1-1.1-0.4-1.3-1c-0.5,0.7-1.3,1-2.3,1c-1.5,0-2.4-0.9-2.4-2.3
			c0-1.5,1.2-2.3,3.4-2.3h1.1v-0.6c0-1.1-0.7-1.5-1.7-1.5c-0.5,0-1.2,0.1-1.9,0.4l-0.3-0.9c0.9-0.3,1.7-0.5,2.4-0.5
			c1.8,0,2.7,0.9,2.7,2.4v3.5C186.5,160.7,186.7,160.9,187.1,161z M185.3,159.9v-1.9h-1.1c-1.6,0-2.2,0.6-2.2,1.5
			c0,0.9,0.4,1.4,1.4,1.4C184.2,161,184.9,160.6,185.3,159.9z"/>
		<path class="st15" d="M195.6,154.4l-0.2,2.5h-0.9v-1.6h-0.1c-1.1,0-1.9,0.8-2.4,2.4v3.1h1.5v0.9h-3.8v-0.9h1.2v-5.5h-1.2v-0.9h2
			l0.2,1.7c0.6-1.2,1.3-1.9,2.6-1.9C194.9,154.2,195.3,154.3,195.6,154.4z"/>
		<path class="st15" d="M199.2,161.7H198v-10.3l1.2-0.1V161.7z M200.8,157.7l3.7,4h-1.5l-3.6-4l3.3-3.3h1.5L200.8,157.7z"/>
		<path class="st15" d="M209.3,160.9c0.8,0,1.3-0.2,2-0.7l0.5,0.8c-0.7,0.5-1.6,0.8-2.5,0.8c-2.1,0-3.4-1.5-3.4-3.8
			c0-2.2,1.2-3.8,3.2-3.8c1.8,0,3,1.4,3,3.6c0,0.3,0,0.5,0,0.6h-4.9C207.3,160.1,208.2,160.9,209.3,160.9z M207.2,157.6h3.8
			c0-1.6-0.7-2.4-1.8-2.4C208.1,155.2,207.3,155.9,207.2,157.6z"/>
		<path class="st15" d="M218.5,161.8c-1.6,0-2.5-0.9-2.5-2.2v-4.4h-1.7v-0.9h1.7v-1.7l1.2-0.1v1.8h2.5l-0.2,0.9h-2.4v4.4
			c0,0.8,0.4,1.2,1.4,1.2c0.5,0,1-0.1,1.4-0.3l0.5,0.8C219.9,161.7,219.2,161.8,218.5,161.8z"/>
		<path class="st15" d="M228.9,158.6c0,1.9-1.3,3.3-3.2,3.3c-2,0-3.2-1.3-3.2-3.3v-6.5h1.2v6.5c0,1.5,0.7,2.2,1.9,2.2
			c1.3,0,2-0.7,2-2.2v-6.5h1.2V158.6z"/>
		<path class="st15" d="M235.6,159.7c0-0.7-0.2-1-1.8-1.4c-1.5-0.4-2.5-0.8-2.5-2.1c0-1.2,1.1-2,2.8-2c1.2,0,2,0.4,2.7,0.8l-0.5,0.8
			c-0.5-0.4-1.2-0.7-2.1-0.7c-1.2,0-1.6,0.4-1.6,1c0,0.7,0.5,0.9,1.9,1.3c1.4,0.4,2.4,0.9,2.4,2.3c0,1.6-1.5,2.2-3.1,2.2
			c-1.3,0-2.2-0.4-2.9-1l0.7-0.8c0.6,0.5,1.3,0.8,2.2,0.8C234.9,160.9,235.6,160.4,235.6,159.7z"/>
		<path class="st12" d="M240.5,151.4h1.5l-0.2,3.6h-1L240.5,151.4z M242.9,151.4h1.5l-0.2,3.6h-1L242.9,151.4z"/>
		<path class="st12" d="M251.9,160.5c0,0.3-0.1,0.7-0.3,1.1l-1.1,2.6h-1.1l0.7-2.7c-0.3-0.2-0.4-0.6-0.4-0.9c0-0.6,0.5-1.1,1.1-1.1
			C251.4,159.4,251.9,159.9,251.9,160.5z"/>
		<path class="st12" d="M265.6,151.4h1.5l-0.2,3.6h-1L265.6,151.4z M267.9,151.4h1.5l-0.2,3.6h-1L267.9,151.4z"/>
		<path class="st15" d="M276.4,161.7h-1.2v-8.5h-3v-1h7.2l-0.1,1h-2.9V161.7z"/>
		<path class="st15" d="M287.4,154.4l-0.2,2.5h-0.9v-1.6h-0.1c-1.1,0-1.9,0.8-2.4,2.4v3.1h1.5v0.9h-3.8v-0.9h1.2v-5.5h-1.2v-0.9h2
			l0.2,1.7c0.6-1.2,1.3-1.9,2.6-1.9C286.7,154.2,287,154.3,287.4,154.4z"/>
		<path class="st15" d="M295.6,161l-0.3,0.8c-0.6-0.1-1.1-0.4-1.3-1c-0.5,0.7-1.3,1-2.3,1c-1.5,0-2.4-0.9-2.4-2.3
			c0-1.5,1.2-2.3,3.4-2.3h1.1v-0.6c0-1.1-0.7-1.5-1.7-1.5c-0.5,0-1.2,0.1-1.9,0.4l-0.3-0.9c0.9-0.3,1.7-0.5,2.4-0.5
			c1.8,0,2.7,0.9,2.7,2.4v3.5C295,160.7,295.2,160.9,295.6,161z M293.8,159.9v-1.9h-1.1c-1.6,0-2.2,0.6-2.2,1.5
			c0,0.9,0.4,1.4,1.4,1.4C292.7,161,293.4,160.6,293.8,159.9z"/>
		<path class="st15" d="M303.6,151.4v10.3h-1l-0.1-1c-0.5,0.8-1.3,1.1-2.1,1.1c-1.9,0-2.8-1.5-2.8-3.8c0-2.2,1.1-3.8,2.9-3.8
			c0.8,0,1.5,0.3,2,0.9v-3.8L303.6,151.4z M298.9,158c0,1.9,0.6,2.9,1.8,2.9c0.8,0,1.4-0.6,1.8-1.2v-3.6c-0.4-0.6-1-0.9-1.7-0.9
			C299.6,155.2,298.9,156.1,298.9,158z"/>
		<path class="st15" d="M309.5,160.9c0.8,0,1.3-0.2,2-0.7l0.5,0.8c-0.7,0.5-1.6,0.8-2.5,0.8c-2.1,0-3.4-1.5-3.4-3.8
			c0-2.2,1.2-3.8,3.2-3.8c1.8,0,3,1.4,3,3.6c0,0.3,0,0.5,0,0.6h-4.9C307.4,160.1,308.3,160.9,309.5,160.9z M307.3,157.6h3.8
			c0-1.6-0.7-2.4-1.8-2.4C308.2,155.2,307.4,155.9,307.3,157.6z"/>
		<path class="st15" d="M315.5,153.3c0,0.4,0.2,2.1,0.2,3.6v4.8h-1.1v-9.6h1.6l3.4,8.5c0-0.4-0.2-1.9-0.2-3.7v-4.8h1.1v9.6h-1.7
			L315.5,153.3z"/>
		<path class="st15" d="M326.4,154.2c1.9,0,2.7,1.5,2.7,3.8c0,2.2-1,3.8-2.9,3.8c-0.8,0-1.5-0.3-2-0.9l-0.1,0.8h-1v-10.3l1.2-0.1v4
			C324.8,154.6,325.5,154.2,326.4,154.2z M327.8,158c0-1.9-0.6-2.9-1.7-2.9c-0.8,0-1.4,0.6-1.8,1.2v3.6c0.4,0.6,1,0.9,1.7,0.9
			C327.1,160.9,327.8,160,327.8,158z"/>
		<path class="st15" d="M334.7,154.2c1.9,0,2.7,1.5,2.7,3.8c0,2.2-1,3.8-2.9,3.8c-0.8,0-1.5-0.3-2-0.9l-0.1,0.8h-1v-10.3l1.2-0.1v4
			C333.2,154.6,333.9,154.2,334.7,154.2z M336.2,158c0-1.9-0.6-2.9-1.7-2.9c-0.8,0-1.4,0.6-1.8,1.2v3.6c0.4,0.6,1,0.9,1.7,0.9
			C335.5,160.9,336.2,160,336.2,158z"/>
		<path class="st15" d="M345.7,158c0,2.3-1.1,3.8-3.2,3.8c-2.1,0-3.2-1.5-3.2-3.8c0-2.3,1.1-3.8,3.2-3.8S345.7,155.7,345.7,158z
			 M340.7,158c0,1.9,0.6,2.8,1.9,2.8c1.3,0,1.9-0.9,1.9-2.9c0-1.9-0.6-2.8-1.9-2.8C341.3,155.2,340.7,156.1,340.7,158z"/>
		<path class="st15" d="M350.7,161.8c-1.4,0-2.6-0.4-3.4-1.2l0.7-0.8c0.7,0.6,1.5,1,2.7,1s2.2-0.6,2.2-1.8c0-0.9-0.4-1.4-2.1-1.9
			c-1.9-0.6-3.1-1.3-3.1-2.8c0-1.4,1.3-2.5,3.1-2.5c1.3,0,2.3,0.4,3.1,1.1l-0.7,0.8c-0.7-0.6-1.5-0.9-2.3-0.9
			c-1.1,0-1.9,0.5-1.9,1.4c0,0.8,0.6,1.2,2.4,1.8c1.5,0.4,2.8,1.1,2.8,2.9C354.2,160.7,352.9,161.8,350.7,161.8z"/>
		<path class="st15" d="M360.3,161.8c-1.6,0-2.5-0.9-2.5-2.2v-4.4h-1.7v-0.9h1.7v-1.7l1.2-0.1v1.8h2.5l-0.2,0.9H359v4.4
			c0,0.8,0.4,1.2,1.4,1.2c0.5,0,1-0.1,1.4-0.3l0.5,0.8C361.8,161.7,361,161.8,360.3,161.8z"/>
		<path class="st15" d="M370.8,158c0,2.3-1.1,3.8-3.2,3.8c-2.1,0-3.2-1.5-3.2-3.8c0-2.3,1.1-3.8,3.2-3.8S370.8,155.7,370.8,158z
			 M365.7,158c0,1.9,0.6,2.8,1.9,2.8c1.3,0,1.9-0.9,1.9-2.9c0-1.9-0.6-2.8-1.9-2.8C366.3,155.2,365.7,156.1,365.7,158z"/>
		<path class="st15" d="M378.4,160.2l0.6,0.8c-0.6,0.5-1.6,0.9-2.5,0.9c-2.2,0-3.4-1.5-3.4-3.8c0-2.2,1.3-3.9,3.4-3.9
			c0.9,0,1.8,0.3,2.4,0.9l-0.6,0.8c-0.6-0.4-1.2-0.6-1.9-0.6c-1.3,0-2.2,0.9-2.2,2.9c0,2,0.9,2.8,2.2,2.8
			C377.2,160.8,377.8,160.6,378.4,160.2z"/>
		<path class="st15" d="M382.8,161.7h-1.2v-10.3l1.2-0.1V161.7z M384.4,157.7l3.7,4h-1.5l-3.6-4l3.3-3.3h1.5L384.4,157.7z"/>
		<path class="st12" d="M390.7,151.4h1.5L392,155h-1L390.7,151.4z M393.1,151.4h1.5l-0.2,3.6h-1L393.1,151.4z"/>
		<path class="st12" d="M399.2,150.7l0.6-0.6c2.3,1.8,3.6,3.6,3.6,6.8s-1.3,5-3.6,6.8l-0.6-0.6c2-1.8,3-3.3,3-6.2
			C402.2,153.9,401.2,152.4,399.2,150.7z"/>
		<path class="st12" d="M142.3,176.1c0.7,0,1.2,0.5,1.2,1.2c0,0.7-0.5,1.2-1.2,1.2c-0.7,0-1.2-0.5-1.2-1.2
			C141.1,176.6,141.6,176.1,142.3,176.1z"/>
		<path class="st22" d="M151.7,178.4l-1-5.4l-1,5.4h-1.6l-1.3-7.3h1.2l0.9,6.6l1.2-5.7h1.4l1.1,5.7l0.9-6.6h1.1l-1.3,7.3H151.7z"/>
		<path class="st22" d="M157.4,172.1c0.6-0.8,1.5-1.2,2.3-1.2c1.4,0,2.1,0.8,2.1,2.2v5.3h-1.2v-5.3c0-0.9-0.4-1.3-1.3-1.3
			c-0.8,0-1.6,0.6-2,1.2v5.3h-1.2v-10.3l1.2-0.1V172.1z"/>
		<path class="st22" d="M167.6,177.6c0.8,0,1.3-0.2,2-0.7l0.5,0.8c-0.7,0.5-1.6,0.8-2.5,0.8c-2.1,0-3.4-1.5-3.4-3.8
			c0-2.2,1.2-3.8,3.2-3.8c1.8,0,3,1.4,3,3.6c0,0.3,0,0.5,0,0.6h-4.9C165.5,176.8,166.5,177.6,167.6,177.6z M165.5,174.2h3.8
			c0-1.6-0.7-2.4-1.8-2.4C166.4,171.9,165.6,172.6,165.5,174.2z"/>
		<path class="st22" d="M178.9,171.1l-0.2,2.5h-0.9V172h-0.1c-1.1,0-1.9,0.8-2.4,2.4v3.1h1.5v0.9H173v-0.9h1.2V172H173v-0.9h2
			l0.2,1.7c0.6-1.2,1.3-1.9,2.6-1.9C178.3,170.9,178.6,171,178.9,171.1z"/>
		<path class="st22" d="M184.3,177.6c0.8,0,1.3-0.2,2-0.7l0.5,0.8c-0.7,0.5-1.6,0.8-2.5,0.8c-2.1,0-3.4-1.5-3.4-3.8
			c0-2.2,1.2-3.8,3.2-3.8c1.8,0,3,1.4,3,3.6c0,0.3,0,0.5,0,0.6h-4.9C182.2,176.8,183.2,177.6,184.3,177.6z M182.2,174.2h3.8
			c0-1.6-0.7-2.4-1.8-2.4C183.1,171.9,182.3,172.6,182.2,174.2z"/>
		<path class="st12" d="M194.1,179.7l-0.6,0.6c-2.3-1.8-3.6-3.6-3.6-6.8s1.3-5,3.6-6.8l0.6,0.6c-2,1.8-3,3.3-3,6.2
			C191.2,176.4,192.2,177.9,194.1,179.7z"/>
		<path class="st12" d="M198.8,168.1h1.5l-0.2,3.6h-1L198.8,168.1z M201.1,168.1h1.5l-0.2,3.6h-1L201.1,168.1z"/>
		<path class="st15" d="M208.2,178.4H206v-9.6h2c2.3,0,4.5,0.8,4.5,4.7C212.6,177.6,210.2,178.4,208.2,178.4z M208.4,169.8h-1.1v7.6
			h1.1c1.4,0,2.9-0.7,2.9-3.9C211.3,170.2,209.7,169.8,208.4,169.8z"/>
		<path class="st15" d="M220.5,177.7l-0.3,0.8c-0.6-0.1-1.1-0.4-1.3-1c-0.5,0.7-1.3,1-2.3,1c-1.5,0-2.4-0.9-2.4-2.3
			c0-1.5,1.2-2.3,3.4-2.3h1.1v-0.6c0-1.1-0.7-1.5-1.7-1.5c-0.5,0-1.2,0.1-1.9,0.4l-0.3-0.9c0.9-0.3,1.7-0.5,2.4-0.5
			c1.8,0,2.7,0.9,2.7,2.4v3.5C219.9,177.4,220.1,177.6,220.5,177.7z M218.7,176.6v-1.9h-1.1c-1.6,0-2.2,0.6-2.2,1.5
			c0,0.9,0.4,1.4,1.4,1.4C217.6,177.7,218.3,177.3,218.7,176.6z"/>
		<path class="st15" d="M226.8,178.5c-1.6,0-2.5-0.9-2.5-2.2V172h-1.7v-0.9h1.7v-1.7l1.2-0.1v1.8h2.5l-0.2,0.9h-2.4v4.4
			c0,0.8,0.4,1.2,1.4,1.2c0.5,0,1-0.1,1.4-0.3l0.5,0.8C228.3,178.3,227.5,178.5,226.8,178.5z"/>
		<path class="st15" d="M234.4,177.6c0.8,0,1.3-0.2,2-0.7l0.5,0.8c-0.7,0.5-1.6,0.8-2.5,0.8c-2.1,0-3.4-1.5-3.4-3.8
			c0-2.2,1.2-3.8,3.2-3.8c1.8,0,3,1.4,3,3.6c0,0.3,0,0.5,0,0.6h-4.9C232.3,176.8,233.2,177.6,234.4,177.6z M232.2,174.2h3.8
			c0-1.6-0.7-2.4-1.8-2.4C233.1,171.9,232.3,172.6,232.2,174.2z"/>
		<path class="st21" d="M245.1,173.2h-5.4v-1h5.4V173.2z M245.1,175.9h-5.4v-1h5.4V175.9z"/>
		<path class="st23" d="M253.2,176.9l0.6,0.8c-0.6,0.5-1.6,0.9-2.5,0.9c-2.2,0-3.4-1.5-3.4-3.8c0-2.2,1.3-3.9,3.4-3.9
			c0.9,0,1.8,0.3,2.4,0.9l-0.6,0.8c-0.6-0.4-1.2-0.6-1.9-0.6c-1.3,0-2.2,0.9-2.2,2.9c0,2,0.9,2.8,2.2,2.8
			C252.1,177.5,252.7,177.3,253.2,176.9z"/>
		<path class="st23" d="M257.5,176.3c0,0.9,0.4,1.4,1.2,1.4c0.8,0,1.6-0.5,2-1.2v-5.4h1.2v7.3h-1l-0.1-1c-0.6,0.7-1.5,1.1-2.3,1.1
			c-1.4,0-2.1-0.8-2.1-2.2v-5.3h1.2V176.3z"/>
		<path class="st23" d="M270.7,171.1l-0.2,2.5h-0.9V172h-0.1c-1.1,0-1.9,0.8-2.4,2.4v3.1h1.5v0.9h-3.8v-0.9h1.2V172h-1.2v-0.9h2
			l0.2,1.7c0.6-1.2,1.3-1.9,2.6-1.9C270,170.9,270.3,171,270.7,171.1z"/>
		<path class="st23" d="M279,171.1l-0.2,2.5h-0.9V172h-0.1c-1.1,0-1.9,0.8-2.4,2.4v3.1h1.5v0.9h-3.8v-0.9h1.2V172h-1.2v-0.9h2
			l0.2,1.7c0.6-1.2,1.3-1.9,2.6-1.9C278.4,170.9,278.7,171,279,171.1z"/>
		<path class="st23" d="M284.4,177.6c0.8,0,1.3-0.2,2-0.7l0.5,0.8c-0.7,0.5-1.6,0.8-2.5,0.8c-2.1,0-3.4-1.5-3.4-3.8
			c0-2.2,1.2-3.8,3.2-3.8c1.8,0,3,1.4,3,3.6c0,0.3,0,0.5,0,0.6h-4.9C282.4,176.8,283.3,177.6,284.4,177.6z M282.3,174.2h3.8
			c0-1.6-0.7-2.4-1.8-2.4C283.2,171.9,282.4,172.6,282.3,174.2z"/>
		<path class="st23" d="M289.7,171.1h1l0.1,1c0.6-0.8,1.6-1.2,2.4-1.2c1.4,0,2.1,0.8,2.1,2.2v5.3h-1.2v-4.4c0-1.5-0.2-2.1-1.3-2.1
			c-0.9,0-1.6,0.6-2,1.2v5.3h-1.2V171.1z"/>
		<path class="st23" d="M301.9,178.5c-1.6,0-2.5-0.9-2.5-2.2V172h-1.7v-0.9h1.7v-1.7l1.2-0.1v1.8h2.5L303,172h-2.4v4.4
			c0,0.8,0.4,1.2,1.4,1.2c0.5,0,1-0.1,1.4-0.3l0.5,0.8C303.4,178.3,302.6,178.5,301.9,178.5z"/>
		<path class="st23" d="M308.4,178.4h-2.2v-9.6h2c2.3,0,4.5,0.8,4.5,4.7C312.7,177.6,310.4,178.4,308.4,178.4z M308.5,169.8h-1.1
			v7.6h1.1c1.4,0,2.9-0.7,2.9-3.9C311.4,170.2,309.8,169.8,308.5,169.8z"/>
		<path class="st23" d="M320.6,177.7l-0.3,0.8c-0.6-0.1-1.1-0.4-1.3-1c-0.5,0.7-1.3,1-2.3,1c-1.5,0-2.4-0.9-2.4-2.3
			c0-1.5,1.2-2.3,3.4-2.3h1.1v-0.6c0-1.1-0.7-1.5-1.7-1.5c-0.5,0-1.2,0.1-1.9,0.4l-0.3-0.9c0.9-0.3,1.7-0.5,2.4-0.5
			c1.8,0,2.7,0.9,2.7,2.4v3.5C320,177.4,320.2,177.6,320.6,177.7z M318.8,176.6v-1.9h-1.1c-1.6,0-2.2,0.6-2.2,1.5
			c0,0.9,0.4,1.4,1.4,1.4C317.7,177.7,318.4,177.3,318.8,176.6z"/>
		<path class="st23" d="M326.9,178.5c-1.6,0-2.5-0.9-2.5-2.2V172h-1.7v-0.9h1.7v-1.7l1.2-0.1v1.8h2.5L328,172h-2.4v4.4
			c0,0.8,0.4,1.2,1.4,1.2c0.5,0,1-0.1,1.4-0.3l0.5,0.8C328.4,178.3,327.6,178.5,326.9,178.5z"/>
		<path class="st23" d="M334.5,177.6c0.8,0,1.3-0.2,2-0.7l0.5,0.8c-0.7,0.5-1.6,0.8-2.5,0.8c-2.1,0-3.4-1.5-3.4-3.8
			c0-2.2,1.2-3.8,3.2-3.8c1.8,0,3,1.4,3,3.6c0,0.3,0,0.5,0,0.6h-4.9C332.4,176.8,333.4,177.6,334.5,177.6z M332.4,174.2h3.8
			c0-1.6-0.7-2.4-1.8-2.4C333.3,171.9,332.5,172.6,332.4,174.2z"/>
		<path class="st23" d="M340.5,170c0,0.4,0.2,2.1,0.2,3.6v4.8h-1.1v-9.6h1.6l3.4,8.5c0-0.4-0.2-1.9-0.2-3.7v-4.8h1.1v9.6h-1.7
			L340.5,170z"/>
		<path class="st23" d="M351.7,178.4c-0.5,1.5-1.3,2.7-3.3,2.9l-0.2-0.9c1.5-0.3,1.9-0.9,2.3-2h-0.4l-2.5-7.3h1.2l2.1,6.4l2.1-6.4
			h1.2L351.7,178.4z"/>
		<path class="st12" d="M361,179.7l-0.6,0.6c-2.3-1.8-3.6-3.6-3.6-6.8s1.3-5,3.6-6.8l0.6,0.6c-2,1.8-3,3.3-3,6.2
			C358,176.4,359,177.9,361,179.7z"/>
		<path class="st12" d="M365.8,167.3l0.6-0.6c2.3,1.8,3.6,3.6,3.6,6.8s-1.3,5-3.6,6.8l-0.6-0.6c2-1.8,3-3.3,3-6.2
			C368.8,170.6,367.8,169.1,365.8,167.3z"/>
		<path class="st12" d="M374,168.1h1.5l-0.2,3.6h-1L374,168.1z M376.4,168.1h1.5l-0.2,3.6h-1L376.4,168.1z"/>
		<path class="st12" d="M382.5,167.3l0.6-0.6c2.3,1.8,3.6,3.6,3.6,6.8s-1.3,5-3.6,6.8l-0.6-0.6c2-1.8,3-3.3,3-6.2
			C385.5,170.6,384.5,169.1,382.5,167.3z"/>
		<path class="st12" d="M142.3,192.8c0.7,0,1.2,0.5,1.2,1.2c0,0.7-0.5,1.2-1.2,1.2c-0.7,0-1.2-0.5-1.2-1.2
			C141.1,193.3,141.6,192.8,142.3,192.8z"/>
		<path class="st22" d="M151.3,195.1H150l-2.7-7.3h1.3l2.1,6.3l2.1-6.3h1.2L151.3,195.1z"/>
		<path class="st22" d="M159.9,194.1h2.1v0.9h-5.5v-0.9h2.3v-5.5h-2.2v-0.9h3.4V194.1z M159.9,185.1c0,0.5-0.3,0.8-0.9,0.8
			c-0.5,0-0.8-0.3-0.8-0.8s0.3-0.8,0.8-0.8C159.5,184.3,159.9,184.7,159.9,185.1z"/>
		<path class="st22" d="M167.6,194.3c0.8,0,1.3-0.2,2-0.7l0.5,0.8c-0.7,0.5-1.6,0.8-2.5,0.8c-2.1,0-3.4-1.5-3.4-3.8
			c0-2.2,1.2-3.8,3.2-3.8c1.8,0,3,1.4,3,3.6c0,0.3,0,0.5,0,0.6h-4.9C165.5,193.5,166.5,194.3,167.6,194.3z M165.5,190.9h3.8
			c0-1.6-0.7-2.4-1.8-2.4C166.4,188.6,165.6,189.3,165.5,190.9z"/>
		<path class="st22" d="M176.7,195.1l-1-5.4l-1,5.4h-1.6l-1.3-7.3h1.2l0.9,6.6l1.2-5.7h1.4l1.1,5.7l0.9-6.6h1.1l-1.3,7.3H176.7z"/>
		<path class="st12" d="M185.8,196.4l-0.6,0.6c-2.3-1.8-3.6-3.6-3.6-6.8s1.3-5,3.6-6.8l0.6,0.6c-2,1.8-3,3.3-3,6.2
			C182.8,193.1,183.8,194.6,185.8,196.4z"/>
		<path class="st12" d="M190.5,184.8h1.5l-0.2,3.6h-1L190.5,184.8z M192.8,184.8h1.5l-0.2,3.6h-1L192.8,184.8z"/>
		<path class="st15" d="M200.5,195.2c-1.4,0-2.6-0.4-3.4-1.2l0.7-0.8c0.7,0.6,1.5,1,2.7,1s2.2-0.6,2.2-1.8c0-0.9-0.4-1.4-2.1-1.9
			c-1.9-0.6-3.1-1.3-3.1-2.8c0-1.4,1.3-2.5,3.1-2.5c1.3,0,2.3,0.4,3.1,1.1l-0.7,0.8c-0.7-0.6-1.5-0.9-2.3-0.9
			c-1.1,0-1.9,0.5-1.9,1.4c0,0.8,0.6,1.2,2.4,1.8c1.5,0.4,2.8,1.1,2.8,2.9C204,194.1,202.7,195.2,200.5,195.2z"/>
		<path class="st15" d="M209.8,195.1c-0.5,1.5-1.3,2.7-3.3,2.9l-0.2-0.9c1.5-0.3,1.9-0.9,2.3-2h-0.4l-2.5-7.3h1.2l2.1,6.4l2.1-6.4
			h1.2L209.8,195.1z"/>
		<path class="st15" d="M220.9,189.6v5.4h-1.1v-5.3c0-0.9,0-1.3-0.6-1.3c-0.4,0-0.9,0.2-1.3,0.9v5.7h-1.1v-5.3c0-0.9,0-1.3-0.6-1.3
			c-0.5,0-0.9,0.2-1.3,0.9v5.7h-1.1v-7.3h0.9l0.1,0.9c0.4-0.6,0.8-1,1.6-1c0.6,0,1.1,0.2,1.3,1c0.4-0.6,0.9-1,1.6-1
			C220.2,187.6,220.9,187.9,220.9,189.6z"/>
		<path class="st12" d="M223.9,184.8h1.5l-0.2,3.6h-1L223.9,184.8z M226.2,184.8h1.5l-0.2,3.6h-1L226.2,184.8z"/>
		<path class="st12" d="M235.2,193.9c0,0.3-0.1,0.7-0.3,1.1l-1.1,2.6h-1.1l0.7-2.7c-0.3-0.2-0.4-0.6-0.4-0.9c0-0.6,0.5-1.1,1.1-1.1
			C234.7,192.8,235.2,193.3,235.2,193.9z"/>
		<path class="st12" d="M248.9,184.8h1.5l-0.2,3.6h-1L248.9,184.8z M251.2,184.8h1.5l-0.2,3.6h-1L251.2,184.8z"/>
		<path class="st15" d="M259,191.5h-1.2v3.6h-1.2v-9.6h2.4c2.3,0,3.7,0.9,3.7,2.9C262.7,190.7,261.2,191.5,259,191.5z M259.2,186.5
			h-1.4v4.1h1.3c1.3,0,2.3-0.5,2.3-2.1C261.4,187,260.4,186.5,259.2,186.5z"/>
		<path class="st15" d="M270.7,187.7l-0.2,2.5h-0.9v-1.6h-0.1c-1.1,0-1.9,0.8-2.4,2.4v3.1h1.5v0.9h-3.8v-0.9h1.2v-5.5h-1.2v-0.9h2
			l0.2,1.7c0.6-1.2,1.3-1.9,2.6-1.9C270,187.6,270.3,187.7,270.7,187.7z"/>
		<path class="st15" d="M276.7,194.1h2.1v0.9h-5.5v-0.9h2.3v-5.5h-2.2v-0.9h3.4V194.1z M276.7,185.1c0,0.5-0.3,0.8-0.9,0.8
			c-0.5,0-0.8-0.3-0.8-0.8s0.3-0.8,0.8-0.8C276.3,184.3,276.7,184.7,276.7,185.1z"/>
		<path class="st15" d="M286.6,193.6l0.6,0.8c-0.6,0.5-1.6,0.9-2.5,0.9c-2.2,0-3.4-1.5-3.4-3.8c0-2.2,1.3-3.9,3.4-3.9
			c0.9,0,1.8,0.3,2.4,0.9l-0.6,0.8c-0.6-0.4-1.2-0.6-1.9-0.6c-1.3,0-2.2,0.9-2.2,2.9c0,2,0.9,2.8,2.2,2.8
			C285.4,194.2,286,194,286.6,193.6z"/>
		<path class="st15" d="M292.8,194.3c0.8,0,1.3-0.2,2-0.7l0.5,0.8c-0.7,0.5-1.6,0.8-2.5,0.8c-2.1,0-3.4-1.5-3.4-3.8
			c0-2.2,1.2-3.8,3.2-3.8c1.8,0,3,1.4,3,3.6c0,0.3,0,0.5,0,0.6h-4.9C290.7,193.5,291.6,194.3,292.8,194.3z M290.6,190.9h3.8
			c0-1.6-0.7-2.4-1.8-2.4C291.5,188.6,290.7,189.3,290.6,190.9z"/>
		<path class="st12" d="M299,184.8h1.5l-0.2,3.6h-1L299,184.8z M301.3,184.8h1.5l-0.2,3.6h-1L301.3,184.8z"/>
		<path class="st12" d="M310.3,193.9c0,0.3-0.1,0.7-0.3,1.1l-1.1,2.6h-1.1l0.7-2.7c-0.3-0.2-0.4-0.6-0.4-0.9c0-0.6,0.5-1.1,1.1-1.1
			C309.8,192.8,310.3,193.3,310.3,193.9z"/>
		<path class="st12" d="M324,184.8h1.5l-0.2,3.6h-1L324,184.8z M326.3,184.8h1.5l-0.2,3.6h-1L326.3,184.8z"/>
		<path class="st15" d="M334,195.2c-1.4,0-2.6-0.4-3.4-1.2l0.7-0.8c0.7,0.6,1.5,1,2.7,1s2.2-0.6,2.2-1.8c0-0.9-0.4-1.4-2.1-1.9
			c-1.9-0.6-3.1-1.3-3.1-2.8c0-1.4,1.3-2.5,3.1-2.5c1.3,0,2.3,0.4,3.1,1.1l-0.7,0.8c-0.7-0.6-1.5-0.9-2.3-0.9
			c-1.1,0-1.9,0.5-1.9,1.4c0,0.8,0.6,1.2,2.4,1.8c1.5,0.4,2.8,1.1,2.8,2.9C337.5,194.1,336.2,195.2,334,195.2z"/>
		<path class="st15" d="M343.5,194.1h2.1v0.9h-5.5v-0.9h2.3v-5.5h-2.2v-0.9h3.4V194.1z M343.4,185.1c0,0.5-0.3,0.8-0.9,0.8
			c-0.5,0-0.8-0.3-0.8-0.8s0.3-0.8,0.8-0.8C343.1,184.3,343.4,184.7,343.4,185.1z"/>
		<path class="st15" d="M353.7,194.1l-0.1,1h-5.4v-0.9l4.1-5.4h-3.7v-1h5.1v0.9l-4,5.4H353.7z"/>
		<path class="st15" d="M359.5,194.3c0.8,0,1.3-0.2,2-0.7l0.5,0.8c-0.7,0.5-1.6,0.8-2.5,0.8c-2.1,0-3.4-1.5-3.4-3.8
			c0-2.2,1.2-3.8,3.2-3.8c1.8,0,3,1.4,3,3.6c0,0.3,0,0.5,0,0.6h-4.9C357.5,193.5,358.4,194.3,359.5,194.3z M357.4,190.9h3.8
			c0-1.6-0.7-2.4-1.8-2.4C358.3,188.6,357.5,189.3,357.4,190.9z"/>
		<path class="st12" d="M365.7,184.8h1.5l-0.2,3.6h-1L365.7,184.8z M368,184.8h1.5l-0.2,3.6h-1L368,184.8z"/>
		<path class="st12" d="M374.2,184l0.6-0.6c2.3,1.8,3.6,3.6,3.6,6.8s-1.3,5-3.6,6.8l-0.6-0.6c2-1.8,3-3.3,3-6.2
			C377.1,187.3,376.2,185.8,374.2,184z"/>
		<path class="st12" d="M60.4,226.5c0-0.7-0.2-1-1.8-1.4c-1.5-0.4-2.5-0.8-2.5-2.1c0-1.2,1.1-2,2.8-2c1.2,0,2,0.4,2.7,0.8l-0.5,0.8
			c-0.5-0.4-1.2-0.7-2.1-0.7c-1.2,0-1.6,0.4-1.6,1c0,0.7,0.5,0.9,1.9,1.3c1.4,0.4,2.4,0.9,2.4,2.3c0,1.6-1.5,2.2-3.1,2.2
			c-1.3,0-2.2-0.4-2.9-1l0.7-0.8c0.6,0.5,1.3,0.8,2.2,0.8C59.7,227.6,60.4,227.2,60.4,226.5z"/>
		<path class="st12" d="M65.6,226.3c0,0.9,0.4,1.4,1.2,1.4c0.8,0,1.6-0.5,2-1.2v-5.4H70v7.3h-1l-0.1-1c-0.6,0.7-1.5,1.1-2.3,1.1
			c-1.4,0-2.1-0.8-2.1-2.2v-5.3h1.2V226.3z"/>
		<path class="st12" d="M79,223v5.4h-1.1v-5.3c0-0.9,0-1.3-0.6-1.3c-0.4,0-0.9,0.2-1.3,0.9v5.7H75v-5.3c0-0.9,0-1.3-0.6-1.3
			c-0.5,0-0.9,0.2-1.3,0.9v5.7h-1.1v-7.3H73l0.1,0.9c0.4-0.6,0.8-1,1.6-1c0.6,0,1.1,0.2,1.3,1c0.4-0.6,0.9-1,1.6-1
			C78.3,221,79,221.3,79,223z"/>
		<path class="st12" d="M87.4,223v5.4h-1.1v-5.3c0-0.9,0-1.3-0.6-1.3c-0.4,0-0.9,0.2-1.3,0.9v5.7h-1.1v-5.3c0-0.9,0-1.3-0.6-1.3
			c-0.5,0-0.9,0.2-1.3,0.9v5.7h-1.1v-7.3h0.9l0.1,0.9c0.4-0.6,0.8-1,1.6-1c0.6,0,1.1,0.2,1.3,1c0.4-0.6,0.9-1,1.6-1
			C86.7,221,87.4,221.3,87.4,223z"/>
		<path class="st12" d="M95.3,227.8l-0.3,0.8c-0.6-0.1-1.1-0.4-1.3-1c-0.5,0.7-1.3,1-2.3,1c-1.5,0-2.4-0.9-2.4-2.3
			c0-1.5,1.2-2.3,3.4-2.3h1.1v-0.6c0-1.1-0.7-1.5-1.7-1.5c-0.5,0-1.2,0.1-1.9,0.4l-0.3-0.9c0.9-0.3,1.7-0.5,2.4-0.5
			c1.8,0,2.7,0.9,2.7,2.4v3.5C94.7,227.4,94.9,227.7,95.3,227.8z M93.5,226.7v-1.9h-1.1c-1.6,0-2.2,0.6-2.2,1.5
			c0,0.9,0.4,1.4,1.4,1.4C92.4,227.7,93.1,227.3,93.5,226.7z"/>
		<path class="st12" d="M103.8,221.1l-0.2,2.5h-0.9V222h-0.1c-1.1,0-1.9,0.8-2.4,2.4v3.1h1.5v0.9h-3.8v-0.9H99V222h-1.2v-0.9h2
			l0.2,1.7c0.6-1.2,1.3-1.9,2.6-1.9C103.2,221,103.5,221,103.8,221.1z"/>
		<path class="st12" d="M109.7,228.5c-0.5,1.5-1.3,2.7-3.3,2.9l-0.2-0.9c1.5-0.3,1.9-0.9,2.3-2h-0.4l-2.5-7.3h1.2l2.1,6.4l2.1-6.4
			h1.2L109.7,228.5z"/>
		<path class="st21" d="M128.3,223.3h-5.4v-1h5.4V223.3z M128.3,225.9h-5.4v-1h5.4V225.9z"/>
		<path class="st12" d="M143.4,228.6c-1.6,0-2.5-0.9-2.5-2.2V222h-1.7v-0.9h1.7v-1.7l1.2-0.1v1.8h2.5l-0.2,0.9h-2.4v4.4
			c0,0.8,0.4,1.2,1.4,1.2c0.5,0,1-0.1,1.4-0.3l0.5,0.8C144.8,228.4,144.1,228.6,143.4,228.6z"/>
		<path class="st12" d="M153.9,221.1l-0.2,2.5h-0.9V222h-0.1c-1.1,0-1.9,0.8-2.4,2.4v3.1h1.5v0.9h-3.8v-0.9h1.2V222h-1.2v-0.9h2
			l0.2,1.7c0.6-1.2,1.3-1.9,2.6-1.9C153.2,221,153.5,221,153.9,221.1z"/>
		<path class="st12" d="M162.1,227.8l-0.3,0.8c-0.6-0.1-1.1-0.4-1.3-1c-0.5,0.7-1.3,1-2.3,1c-1.5,0-2.4-0.9-2.4-2.3
			c0-1.5,1.2-2.3,3.4-2.3h1.1v-0.6c0-1.1-0.7-1.5-1.7-1.5c-0.5,0-1.2,0.1-1.9,0.4l-0.3-0.9c0.9-0.3,1.7-0.5,2.4-0.5
			c1.8,0,2.7,0.9,2.7,2.4v3.5C161.5,227.4,161.7,227.7,162.1,227.8z M160.3,226.7v-1.9h-1.1c-1.6,0-2.2,0.6-2.2,1.5
			c0,0.9,0.4,1.4,1.4,1.4C159.2,227.7,159.9,227.3,160.3,226.7z"/>
		<path class="st12" d="M170.1,218.2v10.3h-1l-0.1-1c-0.5,0.8-1.3,1.1-2.1,1.1c-1.9,0-2.8-1.5-2.8-3.8c0-2.2,1.1-3.8,2.9-3.8
			c0.8,0,1.5,0.3,2,0.9V218L170.1,218.2z M165.4,224.8c0,1.9,0.6,2.9,1.8,2.9c0.8,0,1.4-0.6,1.8-1.2v-3.6c-0.4-0.6-1-0.9-1.7-0.9
			C166.1,221.9,165.4,222.9,165.4,224.8z"/>
		<path class="st12" d="M176,227.6c0.8,0,1.3-0.2,2-0.7l0.5,0.8c-0.7,0.5-1.6,0.8-2.5,0.8c-2.1,0-3.4-1.5-3.4-3.8
			c0-2.2,1.2-3.8,3.2-3.8c1.8,0,3,1.4,3,3.6c0,0.3,0,0.5,0,0.6h-4.9C173.9,226.9,174.8,227.6,176,227.6z M173.8,224.3h3.8
			c0-1.6-0.7-2.4-1.8-2.4C174.7,221.9,173.9,222.7,173.8,224.3z"/>
		<path class="st12" d="M184,226.2c0.7,0,1.2,0.5,1.2,1.2c0,0.7-0.5,1.2-1.2,1.2c-0.7,0-1.2-0.5-1.2-1.2
			C182.8,226.7,183.3,226.2,184,226.2z"/>
		<path class="st22" d="M192.9,221c1.9,0,2.7,1.5,2.7,3.8c0,2.2-1,3.8-2.9,3.8c-0.8,0-1.5-0.3-2-0.9l-0.1,0.8h-1v-10.3l1.2-0.1v4
			C191.3,221.4,192,221,192.9,221z M194.3,224.8c0-1.9-0.6-2.9-1.7-2.9c-0.8,0-1.4,0.6-1.8,1.2v3.6c0.4,0.6,1,0.9,1.7,0.9
			C193.6,227.7,194.3,226.7,194.3,224.8z"/>
		<path class="st22" d="M201.5,228.5c-0.5,1.5-1.3,2.7-3.3,2.9l-0.2-0.9c1.5-0.3,1.9-0.9,2.3-2H200l-2.5-7.3h1.2l2.1,6.4l2.1-6.4
			h1.2L201.5,228.5z"/>
		<path class="st12" d="M210.8,229.8l-0.6,0.6c-2.3-1.8-3.6-3.6-3.6-6.8s1.3-5,3.6-6.8l0.6,0.6c-2,1.8-3,3.3-3,6.2
			C207.9,226.5,208.8,228,210.8,229.8z"/>
		<path class="st23" d="M98.7,242.7l-0.8,2.4h-1.2l3.1-9.6h1.5l3.1,9.6h-1.3l-0.8-2.4H98.7z M102.1,241.7l-1.6-5.1l-1.6,5.1H102.1z"
			/>
		<path class="st23" d="M112.5,238.1c-0.6,0.2-1.3,0.2-2.1,0.2c0.9,0.4,1.3,1,1.3,1.8c0,1.4-1,2.5-2.8,2.5c-0.5,0-0.8,0-1.1-0.2
			c-0.2,0.2-0.4,0.4-0.4,0.7c0,0.3,0.2,0.6,1,0.6h1.3c1.5,0,2.6,0.8,2.6,2c0,1.4-1.3,2.2-3.5,2.2c-2.3,0-3.1-0.7-3.1-2.2h1.1
			c0,0.9,0.4,1.3,2,1.3c1.6,0,2.3-0.4,2.3-1.2c0-0.7-0.7-1-1.6-1h-1.3c-1.3,0-1.8-0.7-1.8-1.4c0-0.5,0.3-0.9,0.8-1.3
			c-0.8-0.4-1.2-1.1-1.2-2c0-1.5,1.2-2.5,2.9-2.5c1.8,0,2.5-0.3,3.3-0.6L112.5,238.1z M107.1,240.2c0,1,0.5,1.7,1.7,1.7
			c1,0,1.6-0.6,1.6-1.7c0-1.1-0.5-1.7-1.6-1.7C107.6,238.5,107.1,239.2,107.1,240.2z"/>
		<path class="st23" d="M120.8,238.1c-0.6,0.2-1.3,0.2-2.1,0.2c0.9,0.4,1.3,1,1.3,1.8c0,1.4-1,2.5-2.8,2.5c-0.5,0-0.8,0-1.1-0.2
			c-0.2,0.2-0.4,0.4-0.4,0.7c0,0.3,0.2,0.6,1,0.6h1.3c1.5,0,2.6,0.8,2.6,2c0,1.4-1.3,2.2-3.5,2.2c-2.3,0-3.1-0.7-3.1-2.2h1.1
			c0,0.9,0.4,1.3,2,1.3c1.6,0,2.3-0.4,2.3-1.2c0-0.7-0.7-1-1.6-1h-1.3c-1.3,0-1.8-0.7-1.8-1.4c0-0.5,0.3-0.9,0.8-1.3
			c-0.8-0.4-1.2-1.1-1.2-2c0-1.5,1.2-2.5,2.9-2.5c1.8,0,2.5-0.3,3.3-0.6L120.8,238.1z M115.4,240.2c0,1,0.5,1.7,1.7,1.7
			c1,0,1.6-0.6,1.6-1.7c0-1.1-0.5-1.7-1.6-1.7C115.9,238.5,115.4,239.2,115.4,240.2z"/>
		<path class="st23" d="M129.2,236.3l-0.7,0.8c-0.6-0.5-1.3-0.7-2-0.7c-1.6,0-2.9,1-2.9,3.9c0,2.8,1.3,3.9,2.9,3.9
			c1.1,0,1.7-0.4,2.2-0.8l0.6,0.8c-0.6,0.6-1.5,1-2.9,1c-2.3,0-4.2-1.7-4.2-4.9c0-3.2,1.9-4.9,4.1-4.9
			C127.7,235.4,128.4,235.7,129.2,236.3z"/>
		<path class="st23" d="M137.1,241.5c0,2.3-1.1,3.8-3.2,3.8c-2.1,0-3.2-1.5-3.2-3.8c0-2.3,1.1-3.8,3.2-3.8S137.1,239.2,137.1,241.5z
			 M132.1,241.5c0,1.9,0.6,2.8,1.9,2.8c1.3,0,1.9-0.9,1.9-2.9c0-1.9-0.6-2.8-1.9-2.8C132.7,238.6,132.1,239.5,132.1,241.5z"/>
		<path class="st23" d="M145.8,239.7v5.4h-1.1v-5.3c0-0.9,0-1.3-0.6-1.3c-0.4,0-0.9,0.2-1.3,0.9v5.7h-1.1v-5.3c0-0.9,0-1.3-0.6-1.3
			c-0.5,0-0.9,0.2-1.3,0.9v5.7h-1.1v-7.3h0.9l0.1,0.9c0.4-0.6,0.8-1,1.6-1c0.6,0,1.1,0.2,1.3,1c0.4-0.6,0.9-1,1.6-1
			C145.1,237.7,145.8,238,145.8,239.7z"/>
		<path class="st23" d="M151.1,237.7c1.9,0,2.7,1.5,2.7,3.8c0,2.2-1,3.8-2.9,3.8c-0.8,0-1.5-0.3-2-0.9l-0.1,0.8h-1v-10.3l1.2-0.1v4
			C149.6,238.1,150.3,237.7,151.1,237.7z M152.6,241.5c0-1.9-0.6-2.9-1.7-2.9c-0.8,0-1.4,0.6-1.8,1.2v3.6c0.4,0.6,1,0.9,1.7,0.9
			C151.9,244.3,152.6,243.4,152.6,241.5z"/>
		<path class="st23" d="M162.2,241.5c0,2.3-1.1,3.8-3.2,3.8c-2.1,0-3.2-1.5-3.2-3.8c0-2.3,1.1-3.8,3.2-3.8S162.2,239.2,162.2,241.5z
			 M157.1,241.5c0,1.9,0.6,2.8,1.9,2.8c1.3,0,1.9-0.9,1.9-2.9c0-1.9-0.6-2.8-1.9-2.8C157.7,238.6,157.1,239.5,157.1,241.5z"/>
		<path class="st12" d="M169.1,246.4l-0.6,0.6c-2.3-1.8-3.6-3.6-3.6-6.8s1.3-5,3.6-6.8l0.6,0.6c-2,1.8-3,3.3-3,6.2
			C166.1,243.2,167.1,244.7,169.1,246.4z"/>
		<path class="st23" d="M132,259.4l-0.8,2.4h-1.2l3.1-9.6h1.5l3.1,9.6h-1.3l-0.8-2.4H132z M135.5,258.4l-1.6-5.1l-1.6,5.1H135.5z"/>
		<path class="st23" d="M145.8,254.8c-0.6,0.2-1.3,0.2-2.1,0.2c0.9,0.4,1.3,1,1.3,1.8c0,1.4-1,2.5-2.8,2.5c-0.5,0-0.8,0-1.1-0.2
			c-0.2,0.2-0.4,0.4-0.4,0.7c0,0.3,0.2,0.6,1,0.6h1.3c1.5,0,2.6,0.8,2.6,2c0,1.4-1.3,2.2-3.5,2.2c-2.3,0-3.1-0.7-3.1-2.2h1.1
			c0,0.9,0.4,1.3,2,1.3c1.6,0,2.3-0.4,2.3-1.2c0-0.7-0.7-1-1.6-1h-1.3c-1.3,0-1.8-0.7-1.8-1.4c0-0.5,0.3-0.9,0.8-1.3
			c-0.8-0.4-1.2-1.1-1.2-2c0-1.5,1.2-2.5,2.9-2.5c1.8,0,2.5-0.3,3.3-0.6L145.8,254.8z M140.4,256.9c0,1,0.5,1.7,1.7,1.7
			c1,0,1.6-0.6,1.6-1.7c0-1.1-0.5-1.7-1.6-1.7C141,255.2,140.4,255.9,140.4,256.9z"/>
		<path class="st23" d="M154.2,254.8c-0.6,0.2-1.3,0.2-2.1,0.2c0.9,0.4,1.3,1,1.3,1.8c0,1.4-1,2.5-2.8,2.5c-0.5,0-0.8,0-1.1-0.2
			c-0.2,0.2-0.4,0.4-0.4,0.7c0,0.3,0.2,0.6,1,0.6h1.3c1.5,0,2.6,0.8,2.6,2c0,1.4-1.3,2.2-3.5,2.2c-2.3,0-3.1-0.7-3.1-2.2h1.1
			c0,0.9,0.4,1.3,2,1.3c1.6,0,2.3-0.4,2.3-1.2c0-0.7-0.7-1-1.6-1h-1.3c-1.3,0-1.8-0.7-1.8-1.4c0-0.5,0.3-0.9,0.8-1.3
			c-0.8-0.4-1.2-1.1-1.2-2c0-1.5,1.2-2.5,2.9-2.5c1.8,0,2.5-0.3,3.3-0.6L154.2,254.8z M148.8,256.9c0,1,0.5,1.7,1.7,1.7
			c1,0,1.6-0.6,1.6-1.7c0-1.1-0.5-1.7-1.6-1.7C149.3,255.2,148.8,255.9,148.8,256.9z"/>
		<path class="st23" d="M161.7,261.8h-1.6l-1.1-7.2l-1.1,7.2h-1.6l-1.3-9.6h1.2l1,8.3l1.2-7.1h1.5l1.1,7.1l1.1-8.3h1.1L161.7,261.8z
			"/>
		<path class="st23" d="M165.4,259.4l-0.8,2.4h-1.2l3.1-9.6h1.5l3.1,9.6H170l-0.8-2.4H165.4z M168.9,258.4l-1.6-5.1l-1.6,5.1H168.9z
			"/>
		<path class="st23" d="M176.4,261.8H175l-2.7-7.3h1.3l2.1,6.3l2.1-6.3h1.2L176.4,261.8z"/>
		<path class="st23" d="M187.6,254.8c-0.6,0.2-1.3,0.2-2.1,0.2c0.9,0.4,1.3,1,1.3,1.8c0,1.4-1,2.5-2.8,2.5c-0.5,0-0.8,0-1.1-0.2
			c-0.2,0.2-0.4,0.4-0.4,0.7c0,0.3,0.2,0.6,1,0.6h1.3c1.5,0,2.6,0.8,2.6,2c0,1.4-1.3,2.2-3.5,2.2c-2.3,0-3.1-0.7-3.1-2.2h1.1
			c0,0.9,0.4,1.3,2,1.3c1.6,0,2.3-0.4,2.3-1.2c0-0.7-0.7-1-1.6-1h-1.3c-1.3,0-1.8-0.7-1.8-1.4c0-0.5,0.3-0.9,0.8-1.3
			c-0.8-0.4-1.2-1.1-1.2-2c0-1.5,1.2-2.5,2.9-2.5c1.8,0,2.5-0.3,3.3-0.6L187.6,254.8z M182.2,256.9c0,1,0.5,1.7,1.7,1.7
			c1,0,1.6-0.6,1.6-1.7c0-1.1-0.5-1.7-1.6-1.7C182.7,255.2,182.2,255.9,182.2,256.9z"/>
		<path class="st12" d="M194.1,263.1l-0.6,0.6c-2.3-1.8-3.6-3.6-3.6-6.8s1.3-5,3.6-6.8l0.6,0.6c-2,1.8-3,3.3-3,6.2
			C191.2,259.9,192.1,261.4,194.1,263.1z"/>
		<path class="st12" d="M198.8,251.6h1.5l-0.2,3.6h-1L198.8,251.6z M201.1,251.6h1.5l-0.2,3.6h-1L201.1,251.6z"/>
		<path class="st15" d="M208.9,262c-1.4,0-2.6-0.4-3.4-1.2l0.7-0.8c0.7,0.6,1.5,1,2.7,1s2.2-0.6,2.2-1.8c0-0.9-0.4-1.4-2.1-1.9
			c-1.9-0.6-3.1-1.3-3.1-2.8c0-1.4,1.3-2.5,3.1-2.5c1.3,0,2.3,0.4,3.1,1.1l-0.7,0.8c-0.7-0.6-1.5-0.9-2.3-0.9
			c-1.1,0-1.9,0.5-1.9,1.4c0,0.8,0.6,1.2,2.4,1.8c1.5,0.4,2.8,1.1,2.8,2.9C212.4,260.8,211.1,262,208.9,262z"/>
		<path class="st15" d="M218.3,260.9h2.1v0.9h-5.5v-0.9h2.3v-5.5H215v-0.9h3.4V260.9z M218.3,251.9c0,0.5-0.3,0.8-0.9,0.8
			c-0.5,0-0.8-0.3-0.8-0.8s0.3-0.8,0.8-0.8C217.9,251.1,218.3,251.4,218.3,251.9z"/>
		<path class="st15" d="M228.5,260.8l-0.1,1H223v-0.9l4.1-5.4h-3.7v-1h5.1v0.9l-4,5.4H228.5z"/>
		<path class="st15" d="M234.4,261c0.8,0,1.3-0.2,2-0.7l0.5,0.8c-0.7,0.5-1.6,0.8-2.5,0.8c-2.1,0-3.4-1.5-3.4-3.8
			c0-2.2,1.2-3.8,3.2-3.8c1.8,0,3,1.4,3,3.6c0,0.3,0,0.5,0,0.6h-4.9C232.3,260.3,233.2,261,234.4,261z M232.2,257.7h3.8
			c0-1.6-0.7-2.4-1.8-2.4C233.1,255.3,232.3,256.1,232.2,257.7z"/>
		<path class="st12" d="M240.5,251.6h1.5l-0.2,3.6h-1L240.5,251.6z M242.9,251.6h1.5l-0.2,3.6h-1L242.9,251.6z"/>
		<path class="st12" d="M251.9,260.6c0,0.3-0.1,0.7-0.3,1.1l-1.1,2.6h-1.1l0.7-2.7c-0.3-0.2-0.4-0.6-0.4-0.9c0-0.6,0.5-1.1,1.1-1.1
			C251.4,259.5,251.9,260,251.9,260.6z"/>
		<path class="st12" d="M265.6,251.6h1.5l-0.2,3.6h-1L265.6,251.6z M267.9,251.6h1.5l-0.2,3.6h-1L267.9,251.6z"/>
		<path class="st15" d="M278.4,252.2h1.2l-3.2,9.6h-1.3l-3.2-9.6h1.3l2.6,8.2L278.4,252.2z"/>
		<path class="st15" d="M286.8,261.8h-1.6l-1.1-7.2l-1.1,7.2h-1.6l-1.3-9.6h1.2l1,8.3l1.2-7.1h1.5l1.1,7.1l1.1-8.3h1.1L286.8,261.8z
			"/>
		<path class="st15" d="M290.6,259.4l-0.8,2.4h-1.2l3.1-9.6h1.5l3.1,9.6h-1.3l-0.8-2.4H290.6z M294,258.4l-1.6-5.1l-1.6,5.1H294z"/>
		<path class="st15" d="M300.7,258.3h-1.2v3.6h-1.2v-9.6h2.4c2.3,0,3.7,0.9,3.7,2.9C304.4,257.4,302.9,258.3,300.7,258.3z
			 M300.9,253.2h-1.4v4.1h1.3c1.3,0,2.3-0.5,2.3-2.1C303.1,253.7,302.2,253.2,300.9,253.2z"/>
		<path class="st15" d="M311.9,256.7h-5.4v-1h5.4V256.7z M311.9,259.3h-5.4v-1h5.4V259.3z"/>
		<path class="st15" d="M317.4,258.3h-1.2v3.6H315v-9.6h2.4c2.3,0,3.7,0.9,3.7,2.9C321.1,257.4,319.6,258.3,317.4,258.3z
			 M317.6,253.2h-1.4v4.1h1.3c1.3,0,2.3-0.5,2.3-2.1C319.8,253.7,318.8,253.2,317.6,253.2z"/>
		<path class="st15" d="M329.1,254.5l-0.2,2.5H328v-1.6h-0.1c-1.1,0-1.9,0.8-2.4,2.4v3.1h1.5v0.9h-3.8v-0.9h1.2v-5.5h-1.2v-0.9h2
			l0.2,1.7c0.6-1.2,1.3-1.9,2.6-1.9C328.4,254.3,328.8,254.4,329.1,254.5z"/>
		<path class="st15" d="M335.1,260.9h2.1v0.9h-5.5v-0.9h2.3v-5.5h-2.2v-0.9h3.4V260.9z M335.1,251.9c0,0.5-0.3,0.8-0.9,0.8
			c-0.5,0-0.8-0.3-0.8-0.8s0.3-0.8,0.8-0.8C334.7,251.1,335.1,251.4,335.1,251.9z"/>
		<path class="st15" d="M345,260.3l0.6,0.8c-0.6,0.5-1.6,0.9-2.5,0.9c-2.2,0-3.4-1.5-3.4-3.8c0-2.2,1.3-3.9,3.4-3.9
			c0.9,0,1.8,0.3,2.4,0.9L345,256c-0.6-0.4-1.2-0.6-1.9-0.6c-1.3,0-2.2,0.9-2.2,2.9c0,2,0.9,2.8,2.2,2.8
			C343.8,261,344.5,260.7,345,260.3z"/>
		<path class="st15" d="M351.2,261c0.8,0,1.3-0.2,2-0.7l0.5,0.8c-0.7,0.5-1.6,0.8-2.5,0.8c-2.1,0-3.4-1.5-3.4-3.8
			c0-2.2,1.2-3.8,3.2-3.8c1.8,0,3,1.4,3,3.6c0,0.3,0,0.5,0,0.6h-4.9C349.1,260.3,350.1,261,351.2,261z M349.1,257.7h3.8
			c0-1.6-0.7-2.4-1.8-2.4C349.9,255.3,349.2,256.1,349.1,257.7z"/>
		<path class="st12" d="M357.4,251.6h1.5l-0.2,3.6h-1L357.4,251.6z M359.7,251.6h1.5l-0.2,3.6h-1L359.7,251.6z"/>
		<path class="st12" d="M365.8,250.8l0.6-0.6c2.3,1.8,3.6,3.6,3.6,6.8s-1.3,5-3.6,6.8l-0.6-0.6c2-1.8,3-3.3,3-6.2
			C368.8,254,367.8,252.6,365.8,250.8z"/>
		<path class="st12" d="M377.1,260.6c0,0.3-0.1,0.7-0.3,1.1l-1.1,2.6h-1.1l0.7-2.7c-0.3-0.2-0.4-0.6-0.4-0.9c0-0.6,0.5-1.1,1.1-1.1
			C376.6,259.5,377.1,260,377.1,260.6z"/>
		<path class="st23" d="M132,276.1l-0.8,2.4h-1.2l3.1-9.6h1.5l3.1,9.6h-1.3l-0.8-2.4H132z M135.5,275.1l-1.6-5.1l-1.6,5.1H135.5z"/>
		<path class="st23" d="M145.8,271.5c-0.6,0.2-1.3,0.2-2.1,0.2c0.9,0.4,1.3,1,1.3,1.8c0,1.4-1,2.5-2.8,2.5c-0.5,0-0.8,0-1.1-0.2
			c-0.2,0.2-0.4,0.4-0.4,0.7c0,0.3,0.2,0.6,1,0.6h1.3c1.5,0,2.6,0.8,2.6,2c0,1.4-1.3,2.2-3.5,2.2c-2.3,0-3.1-0.7-3.1-2.2h1.1
			c0,0.9,0.4,1.3,2,1.3c1.6,0,2.3-0.4,2.3-1.2c0-0.7-0.7-1-1.6-1h-1.3c-1.3,0-1.8-0.7-1.8-1.4c0-0.5,0.3-0.9,0.8-1.3
			c-0.8-0.4-1.2-1.1-1.2-2c0-1.5,1.2-2.5,2.9-2.5c1.8,0,2.5-0.3,3.3-0.6L145.8,271.5z M140.4,273.6c0,1,0.5,1.7,1.7,1.7
			c1,0,1.6-0.6,1.6-1.7c0-1.1-0.5-1.7-1.6-1.7C141,271.9,140.4,272.6,140.4,273.6z"/>
		<path class="st23" d="M154.2,271.5c-0.6,0.2-1.3,0.2-2.1,0.2c0.9,0.4,1.3,1,1.3,1.8c0,1.4-1,2.5-2.8,2.5c-0.5,0-0.8,0-1.1-0.2
			c-0.2,0.2-0.4,0.4-0.4,0.7c0,0.3,0.2,0.6,1,0.6h1.3c1.5,0,2.6,0.8,2.6,2c0,1.4-1.3,2.2-3.5,2.2c-2.3,0-3.1-0.7-3.1-2.2h1.1
			c0,0.9,0.4,1.3,2,1.3c1.6,0,2.3-0.4,2.3-1.2c0-0.7-0.7-1-1.6-1h-1.3c-1.3,0-1.8-0.7-1.8-1.4c0-0.5,0.3-0.9,0.8-1.3
			c-0.8-0.4-1.2-1.1-1.2-2c0-1.5,1.2-2.5,2.9-2.5c1.8,0,2.5-0.3,3.3-0.6L154.2,271.5z M148.8,273.6c0,1,0.5,1.7,1.7,1.7
			c1,0,1.6-0.6,1.6-1.7c0-1.1-0.5-1.7-1.6-1.7C149.3,271.9,148.8,272.6,148.8,273.6z"/>
		<path class="st23" d="M158.8,278.7c-1.4,0-2.6-0.4-3.4-1.2l0.7-0.8c0.7,0.6,1.5,1,2.7,1s2.2-0.6,2.2-1.8c0-0.9-0.4-1.4-2.1-1.9
			c-1.9-0.6-3.1-1.3-3.1-2.8c0-1.4,1.3-2.5,3.1-2.5c1.3,0,2.3,0.4,3.1,1.1l-0.7,0.8c-0.7-0.6-1.5-0.9-2.3-0.9
			c-1.1,0-1.9,0.5-1.9,1.4c0,0.8,0.6,1.2,2.4,1.8c1.5,0.4,2.8,1.1,2.8,2.9C162.3,277.5,161,278.7,158.8,278.7z"/>
		<path class="st23" d="M165.7,276.4c0,0.9,0.4,1.4,1.2,1.4c0.8,0,1.6-0.5,2-1.2v-5.4h1.2v7.3h-1l-0.1-1c-0.6,0.7-1.5,1.1-2.3,1.1
			c-1.4,0-2.1-0.8-2.1-2.2v-5.3h1.2V276.4z"/>
		<path class="st23" d="M179.1,273.1v5.4h-1.1v-5.3c0-0.9,0-1.3-0.6-1.3c-0.4,0-0.9,0.2-1.3,0.9v5.7h-1.1v-5.3c0-0.9,0-1.3-0.6-1.3
			c-0.5,0-0.9,0.2-1.3,0.9v5.7h-1.1v-7.3h0.9l0.1,0.9c0.4-0.6,0.8-1,1.6-1c0.6,0,1.1,0.2,1.3,1c0.4-0.6,0.9-1,1.6-1
			C178.4,271,179.1,271.4,179.1,273.1z"/>
		<path class="st12" d="M185.8,279.8l-0.6,0.6c-2.3-1.8-3.6-3.6-3.6-6.8s1.3-5,3.6-6.8l0.6,0.6c-2,1.8-3,3.3-3,6.2
			C182.8,276.6,183.8,278.1,185.8,279.8z"/>
		<path class="st12" d="M190.5,268.2h1.5l-0.2,3.6h-1L190.5,268.2z M192.8,268.2h1.5l-0.2,3.6h-1L192.8,268.2z"/>
		<path class="st15" d="M201.3,278.5h-1.2V270h-3v-1h7.2l-0.1,1h-2.9V278.5z"/>
		<path class="st15" d="M212.2,274.8c0,2.3-1.1,3.8-3.2,3.8c-2.1,0-3.2-1.5-3.2-3.8c0-2.3,1.1-3.8,3.2-3.8S212.2,272.5,212.2,274.8z
			 M207.2,274.9c0,1.9,0.6,2.8,1.9,2.8c1.3,0,1.9-0.9,1.9-2.9c0-1.9-0.6-2.8-1.9-2.8C207.8,272,207.2,272.9,207.2,274.9z"/>
		<path class="st15" d="M218.5,278.7c-1.6,0-2.5-0.9-2.5-2.2v-4.4h-1.7v-0.9h1.7v-1.7l1.2-0.1v1.8h2.5l-0.2,0.9h-2.4v4.4
			c0,0.8,0.4,1.2,1.4,1.2c0.5,0,1-0.1,1.4-0.3l0.5,0.8C219.9,278.5,219.2,278.7,218.5,278.7z"/>
		<path class="st15" d="M228.8,277.8l-0.3,0.8c-0.6-0.1-1.1-0.4-1.3-1c-0.5,0.7-1.3,1-2.3,1c-1.5,0-2.4-0.9-2.4-2.3
			c0-1.5,1.2-2.3,3.4-2.3h1.1v-0.6c0-1.1-0.7-1.5-1.7-1.5c-0.5,0-1.2,0.1-1.9,0.4l-0.3-0.9c0.9-0.3,1.7-0.5,2.4-0.5
			c1.8,0,2.7,0.9,2.7,2.4v3.5C228.2,277.5,228.4,277.7,228.8,277.8z M227,276.7v-1.9H226c-1.6,0-2.2,0.6-2.2,1.5
			c0,0.9,0.4,1.4,1.4,1.4C225.9,277.8,226.6,277.4,227,276.7z"/>
		<path class="st15" d="M234.2,276.7c0,0.7,0.5,1,1.2,1c0.4,0,0.8-0.1,1.2-0.2l0.3,0.8c-0.4,0.2-1,0.4-1.7,0.4c-1.3,0-2.2-0.8-2.2-2
			v-7.5h-2.3v-0.9h3.4V276.7z"/>
		<path class="st15" d="M245,268.9h1.2l-3.2,9.6h-1.3l-3.2-9.6h1.3l2.6,8.2L245,268.9z"/>
		<path class="st15" d="M253.9,274.8c0,2.3-1.1,3.8-3.2,3.8c-2.1,0-3.2-1.5-3.2-3.8c0-2.3,1.1-3.8,3.2-3.8S253.9,272.5,253.9,274.8z
			 M248.9,274.9c0,1.9,0.6,2.8,1.9,2.8c1.3,0,1.9-0.9,1.9-2.9c0-1.9-0.6-2.8-1.9-2.8C249.5,272,248.9,272.9,248.9,274.9z"/>
		<path class="st15" d="M259.2,276.7c0,0.7,0.5,1,1.2,1c0.4,0,0.8-0.1,1.2-0.2l0.3,0.8c-0.4,0.2-1,0.4-1.7,0.4c-1.3,0-2.2-0.8-2.2-2
			v-7.5h-2.3v-0.9h3.4V276.7z"/>
		<path class="st15" d="M265.9,276.4c0,0.9,0.4,1.4,1.2,1.4c0.8,0,1.6-0.5,2-1.2v-5.4h1.2v7.3h-1l-0.1-1c-0.6,0.7-1.5,1.1-2.3,1.1
			c-1.4,0-2.1-0.8-2.1-2.2v-5.3h1.2V276.4z"/>
		<path class="st15" d="M279.3,273.1v5.4h-1.1v-5.3c0-0.9,0-1.3-0.6-1.3c-0.4,0-0.9,0.2-1.3,0.9v5.7h-1.1v-5.3c0-0.9,0-1.3-0.6-1.3
			c-0.5,0-0.9,0.2-1.3,0.9v5.7h-1.1v-7.3h0.9l0.1,0.9c0.4-0.6,0.8-1,1.6-1c0.6,0,1.1,0.2,1.3,1c0.4-0.6,0.9-1,1.6-1
			C278.6,271,279.3,271.4,279.3,273.1z"/>
		<path class="st15" d="M284.4,277.7c0.8,0,1.3-0.2,2-0.7l0.5,0.8c-0.7,0.5-1.6,0.8-2.5,0.8c-2.1,0-3.4-1.5-3.4-3.8
			c0-2.2,1.2-3.8,3.2-3.8c1.8,0,3,1.4,3,3.6c0,0.3,0,0.5,0,0.6h-4.9C282.4,277,283.3,277.7,284.4,277.7z M282.3,274.4h3.8
			c0-1.6-0.7-2.4-1.8-2.4C283.2,272,282.4,272.8,282.3,274.4z"/>
		<path class="st15" d="M295.2,273.4h-5.4v-1h5.4V273.4z M295.2,276h-5.4v-1h5.4V276z"/>
		<path class="st15" d="M300.6,278.7c-1.4,0-2.6-0.4-3.4-1.2l0.7-0.8c0.7,0.6,1.5,1,2.7,1s2.2-0.6,2.2-1.8c0-0.9-0.4-1.4-2.1-1.9
			c-1.9-0.6-3.1-1.3-3.1-2.8c0-1.4,1.3-2.5,3.1-2.5c1.3,0,2.3,0.4,3.1,1.1l-0.7,0.8c-0.7-0.6-1.5-0.9-2.3-0.9
			c-1.1,0-1.9,0.5-1.9,1.4c0,0.8,0.6,1.2,2.4,1.8c1.5,0.4,2.8,1.1,2.8,2.9C304.1,277.5,302.9,278.7,300.6,278.7z"/>
		<path class="st15" d="M310.1,277.6h2.1v0.9h-5.5v-0.9h2.3v-5.5h-2.2v-0.9h3.4V277.6z M310,268.6c0,0.5-0.3,0.8-0.9,0.8
			c-0.5,0-0.8-0.3-0.8-0.8s0.3-0.8,0.8-0.8C309.7,267.8,310,268.1,310,268.6z"/>
		<path class="st15" d="M320.3,277.5l-0.1,1h-5.4v-0.9l4.1-5.4h-3.7v-1h5.1v0.9l-4,5.4H320.3z"/>
		<path class="st15" d="M326.2,277.7c0.8,0,1.3-0.2,2-0.7l0.5,0.8c-0.7,0.5-1.6,0.8-2.5,0.8c-2.1,0-3.4-1.5-3.4-3.8
			c0-2.2,1.2-3.8,3.2-3.8c1.8,0,3,1.4,3,3.6c0,0.3,0,0.5,0,0.6H324C324.1,277,325,277.7,326.2,277.7z M324,274.4h3.8
			c0-1.6-0.7-2.4-1.8-2.4C324.9,272,324.1,272.8,324,274.4z"/>
		<path class="st12" d="M332.3,268.2h1.5l-0.2,3.6h-1L332.3,268.2z M334.6,268.2h1.5l-0.2,3.6h-1L334.6,268.2z"/>
		<path class="st12" d="M340.8,267.5l0.6-0.6c2.3,1.8,3.6,3.6,3.6,6.8s-1.3,5-3.6,6.8l-0.6-0.6c2-1.8,3-3.3,3-6.2
			C343.8,270.7,342.8,269.3,340.8,267.5z"/>
		<path class="st12" d="M352,277.3c0,0.3-0.1,0.7-0.3,1.1l-1.1,2.6h-1.1l0.7-2.7c-0.3-0.2-0.4-0.6-0.4-0.9c0-0.6,0.5-1.1,1.1-1.1
			C351.5,276.2,352,276.7,352,277.3z"/>
		<path class="st23" d="M132,292.8l-0.8,2.4h-1.2l3.1-9.6h1.5l3.1,9.6h-1.3l-0.8-2.4H132z M135.5,291.8l-1.6-5.1l-1.6,5.1H135.5z"/>
		<path class="st23" d="M145.8,288.2c-0.6,0.2-1.3,0.2-2.1,0.2c0.9,0.4,1.3,1,1.3,1.8c0,1.4-1,2.5-2.8,2.5c-0.5,0-0.8,0-1.1-0.2
			c-0.2,0.2-0.4,0.4-0.4,0.7c0,0.3,0.2,0.6,1,0.6h1.3c1.5,0,2.6,0.8,2.6,2c0,1.4-1.3,2.2-3.5,2.2c-2.3,0-3.1-0.7-3.1-2.2h1.1
			c0,0.9,0.4,1.3,2,1.3c1.6,0,2.3-0.4,2.3-1.2c0-0.7-0.7-1-1.6-1h-1.3c-1.3,0-1.8-0.7-1.8-1.4c0-0.5,0.3-0.9,0.8-1.3
			c-0.8-0.4-1.2-1.1-1.2-2c0-1.5,1.2-2.5,2.9-2.5c1.8,0,2.5-0.3,3.3-0.6L145.8,288.2z M140.4,290.3c0,1,0.5,1.7,1.7,1.7
			c1,0,1.6-0.6,1.6-1.7c0-1.1-0.5-1.7-1.6-1.7C141,288.6,140.4,289.3,140.4,290.3z"/>
		<path class="st23" d="M154.2,288.2c-0.6,0.2-1.3,0.2-2.1,0.2c0.9,0.4,1.3,1,1.3,1.8c0,1.4-1,2.5-2.8,2.5c-0.5,0-0.8,0-1.1-0.2
			c-0.2,0.2-0.4,0.4-0.4,0.7c0,0.3,0.2,0.6,1,0.6h1.3c1.5,0,2.6,0.8,2.6,2c0,1.4-1.3,2.2-3.5,2.2c-2.3,0-3.1-0.7-3.1-2.2h1.1
			c0,0.9,0.4,1.3,2,1.3c1.6,0,2.3-0.4,2.3-1.2c0-0.7-0.7-1-1.6-1h-1.3c-1.3,0-1.8-0.7-1.8-1.4c0-0.5,0.3-0.9,0.8-1.3
			c-0.8-0.4-1.2-1.1-1.2-2c0-1.5,1.2-2.5,2.9-2.5c1.8,0,2.5-0.3,3.3-0.6L154.2,288.2z M148.8,290.3c0,1,0.5,1.7,1.7,1.7
			c1,0,1.6-0.6,1.6-1.7c0-1.1-0.5-1.7-1.6-1.7C149.3,288.6,148.8,289.3,148.8,290.3z"/>
		<path class="st23" d="M162.8,295.2h-1.2l-0.3-5c-0.1-1.3-0.1-3-0.1-3.5l-1.6,6.7h-1.2l-1.7-6.7c0,0.5,0,2.3,0,3.5l-0.2,5h-1.1
			l0.5-9.6h1.7l1.6,6.6l1.5-6.6h1.7L162.8,295.2z"/>
		<path class="st23" d="M168.3,294.3h2.1v0.9h-5.5v-0.9h2.3v-5.5h-2.2v-0.9h3.4V294.3z M168.2,285.3c0,0.5-0.3,0.8-0.9,0.8
			c-0.5,0-0.8-0.3-0.8-0.8s0.3-0.8,0.8-0.8C167.9,284.5,168.2,284.8,168.2,285.3z"/>
		<path class="st23" d="M172.9,287.9h1l0.1,1c0.6-0.8,1.6-1.2,2.4-1.2c1.4,0,2.1,0.8,2.1,2.2v5.3h-1.2v-4.4c0-1.5-0.2-2.1-1.3-2.1
			c-0.9,0-1.6,0.6-2,1.2v5.3h-1.2V287.9z"/>
		<path class="st12" d="M185.8,296.5l-0.6,0.6c-2.3-1.8-3.6-3.6-3.6-6.8s1.3-5,3.6-6.8l0.6,0.6c-2,1.8-3,3.3-3,6.2
			C182.8,293.2,183.8,294.7,185.8,296.5z"/>
		<path class="st12" d="M190.5,284.9h1.5l-0.2,3.6h-1L190.5,284.9z M192.8,284.9h1.5l-0.2,3.6h-1L192.8,284.9z"/>
		<path class="st15" d="M204.5,295.2h-1.2l-0.3-5c-0.1-1.3-0.1-3-0.1-3.5l-1.6,6.7h-1.2l-1.7-6.7c0,0.5,0,2.3,0,3.5l-0.2,5H197
			l0.5-9.6h1.7l1.6,6.6l1.5-6.6h1.7L204.5,295.2z"/>
		<path class="st15" d="M210,294.3h2.1v0.9h-5.5v-0.9h2.3v-5.5h-2.2v-0.9h3.4V294.3z M209.9,285.3c0,0.5-0.3,0.8-0.9,0.8
			c-0.5,0-0.8-0.3-0.8-0.8s0.3-0.8,0.8-0.8C209.6,284.5,209.9,284.8,209.9,285.3z"/>
		<path class="st15" d="M214.6,287.9h1l0.1,1c0.6-0.8,1.6-1.2,2.4-1.2c1.4,0,2.1,0.8,2.1,2.2v5.3H219v-4.4c0-1.5-0.2-2.1-1.3-2.1
			c-0.9,0-1.6,0.6-2,1.2v5.3h-1.2V287.9z"/>
		<path class="st15" d="M225.6,291.6h-1.2v3.6h-1.2v-9.6h2.4c2.3,0,3.7,0.9,3.7,2.9C229.3,290.8,227.8,291.6,225.6,291.6z
			 M225.8,286.6h-1.4v4.1h1.3c1.3,0,2.3-0.5,2.3-2.1C228,287.1,227.1,286.6,225.8,286.6z"/>
		<path class="st15" d="M237.3,287.9l-0.2,2.5h-0.9v-1.6h-0.1c-1.1,0-1.9,0.8-2.4,2.4v3.1h1.5v0.9h-3.8v-0.9h1.2v-5.5h-1.2v-0.9h2
			l0.2,1.7c0.6-1.2,1.3-1.9,2.6-1.9C236.7,287.7,237,287.8,237.3,287.9z"/>
		<path class="st15" d="M243.4,294.3h2.1v0.9h-5.5v-0.9h2.3v-5.5H240v-0.9h3.4V294.3z M243.3,285.3c0,0.5-0.3,0.8-0.9,0.8
			c-0.5,0-0.8-0.3-0.8-0.8s0.3-0.8,0.8-0.8C242.9,284.5,243.3,284.8,243.3,285.3z"/>
		<path class="st15" d="M253.2,293.7l0.6,0.8c-0.6,0.5-1.6,0.9-2.5,0.9c-2.2,0-3.4-1.5-3.4-3.8c0-2.2,1.3-3.9,3.4-3.9
			c0.9,0,1.8,0.3,2.4,0.9l-0.6,0.8c-0.6-0.4-1.2-0.6-1.9-0.6c-1.3,0-2.2,0.9-2.2,2.9c0,2,0.9,2.8,2.2,2.8
			C252.1,294.4,252.7,294.1,253.2,293.7z"/>
		<path class="st15" d="M259.4,294.4c0.8,0,1.3-0.2,2-0.7l0.5,0.8c-0.7,0.5-1.6,0.8-2.5,0.8c-2.1,0-3.4-1.5-3.4-3.8
			c0-2.2,1.2-3.8,3.2-3.8c1.8,0,3,1.4,3,3.6c0,0.3,0,0.5,0,0.6h-4.9C257.3,293.6,258.3,294.4,259.4,294.4z M257.3,291.1h3.8
			c0-1.6-0.7-2.4-1.8-2.4C258.2,288.7,257.4,289.4,257.3,291.1z"/>
		<path class="st21" d="M270.2,290.1h-5.4v-1h5.4V290.1z M270.2,292.7h-5.4v-1h5.4V292.7z"/>
		<path class="st15" d="M275.7,291.6h-1.2v3.6h-1.2v-9.6h2.4c2.3,0,3.7,0.9,3.7,2.9C279.4,290.8,277.8,291.6,275.7,291.6z
			 M275.8,286.6h-1.4v4.1h1.3c1.3,0,2.3-0.5,2.3-2.1C278.1,287.1,277.1,286.6,275.8,286.6z"/>
		<path class="st15" d="M287.4,287.9l-0.2,2.5h-0.9v-1.6h-0.1c-1.1,0-1.9,0.8-2.4,2.4v3.1h1.5v0.9h-3.8v-0.9h1.2v-5.5h-1.2v-0.9h2
			l0.2,1.7c0.6-1.2,1.3-1.9,2.6-1.9C286.7,287.7,287,287.8,287.4,287.9z"/>
		<path class="st15" d="M293.4,294.3h2.1v0.9H290v-0.9h2.3v-5.5h-2.2v-0.9h3.4V294.3z M293.4,285.3c0,0.5-0.3,0.8-0.9,0.8
			c-0.5,0-0.8-0.3-0.8-0.8s0.3-0.8,0.8-0.8C293,284.5,293.4,284.8,293.4,285.3z"/>
		<path class="st15" d="M303.3,293.7l0.6,0.8c-0.6,0.5-1.6,0.9-2.5,0.9c-2.2,0-3.4-1.5-3.4-3.8c0-2.2,1.3-3.9,3.4-3.9
			c0.9,0,1.8,0.3,2.4,0.9l-0.6,0.8c-0.6-0.4-1.2-0.6-1.9-0.6c-1.3,0-2.2,0.9-2.2,2.9c0,2,0.9,2.8,2.2,2.8
			C302.1,294.4,302.7,294.1,303.3,293.7z"/>
		<path class="st15" d="M309.5,294.4c0.8,0,1.3-0.2,2-0.7l0.5,0.8c-0.7,0.5-1.6,0.8-2.5,0.8c-2.1,0-3.4-1.5-3.4-3.8
			c0-2.2,1.2-3.8,3.2-3.8c1.8,0,3,1.4,3,3.6c0,0.3,0,0.5,0,0.6h-4.9C307.4,293.6,308.3,294.4,309.5,294.4z M307.3,291.1h3.8
			c0-1.6-0.7-2.4-1.8-2.4C308.2,288.7,307.4,289.4,307.3,291.1z"/>
		<path class="st12" d="M315.6,284.9h1.5l-0.2,3.6h-1L315.6,284.9z M318,284.9h1.5l-0.2,3.6h-1L318,284.9z"/>
		<path class="st12" d="M324.1,284.2l0.6-0.6c2.3,1.8,3.6,3.6,3.6,6.8s-1.3,5-3.6,6.8l-0.6-0.6c2-1.8,3-3.3,3-6.2
			C327.1,287.4,326.1,285.9,324.1,284.2z"/>
		<path class="st12" d="M335.3,294c0,0.3-0.1,0.7-0.3,1.1l-1.1,2.6h-1.1l0.7-2.7c-0.3-0.2-0.4-0.6-0.4-0.9c0-0.6,0.5-1.1,1.1-1.1
			C334.9,292.9,335.3,293.4,335.3,294z"/>
		<path class="st23" d="M132,309.4l-0.8,2.4h-1.2l3.1-9.6h1.5l3.1,9.6h-1.3l-0.8-2.4H132z M135.5,308.4l-1.6-5.1l-1.6,5.1H135.5z"/>
		<path class="st23" d="M145.8,304.9c-0.6,0.2-1.3,0.2-2.1,0.2c0.9,0.4,1.3,1,1.3,1.8c0,1.4-1,2.5-2.8,2.5c-0.5,0-0.8,0-1.1-0.2
			c-0.2,0.2-0.4,0.4-0.4,0.7c0,0.3,0.2,0.6,1,0.6h1.3c1.5,0,2.6,0.8,2.6,2c0,1.4-1.3,2.2-3.5,2.2c-2.3,0-3.1-0.7-3.1-2.2h1.1
			c0,0.9,0.4,1.3,2,1.3c1.6,0,2.3-0.4,2.3-1.2c0-0.7-0.7-1-1.6-1h-1.3c-1.3,0-1.8-0.7-1.8-1.4c0-0.5,0.3-0.9,0.8-1.3
			c-0.8-0.4-1.2-1.1-1.2-2c0-1.5,1.2-2.5,2.9-2.5c1.8,0,2.5-0.3,3.3-0.6L145.8,304.9z M140.4,307c0,1,0.5,1.7,1.7,1.7
			c1,0,1.6-0.6,1.6-1.7c0-1.1-0.5-1.7-1.6-1.7C141,305.3,140.4,306,140.4,307z"/>
		<path class="st23" d="M154.2,304.9c-0.6,0.2-1.3,0.2-2.1,0.2c0.9,0.4,1.3,1,1.3,1.8c0,1.4-1,2.5-2.8,2.5c-0.5,0-0.8,0-1.1-0.2
			c-0.2,0.2-0.4,0.4-0.4,0.7c0,0.3,0.2,0.6,1,0.6h1.3c1.5,0,2.6,0.8,2.6,2c0,1.4-1.3,2.2-3.5,2.2c-2.3,0-3.1-0.7-3.1-2.2h1.1
			c0,0.9,0.4,1.3,2,1.3c1.6,0,2.3-0.4,2.3-1.2c0-0.7-0.7-1-1.6-1h-1.3c-1.3,0-1.8-0.7-1.8-1.4c0-0.5,0.3-0.9,0.8-1.3
			c-0.8-0.4-1.2-1.1-1.2-2c0-1.5,1.2-2.5,2.9-2.5c1.8,0,2.5-0.3,3.3-0.6L154.2,304.9z M148.8,307c0,1,0.5,1.7,1.7,1.7
			c1,0,1.6-0.6,1.6-1.7c0-1.1-0.5-1.7-1.6-1.7C149.3,305.3,148.8,306,148.8,307z"/>
		<path class="st23" d="M162.8,311.9h-1.2l-0.3-5c-0.1-1.3-0.1-3-0.1-3.5l-1.6,6.7h-1.2l-1.7-6.7c0,0.5,0,2.3,0,3.5l-0.2,5h-1.1
			l0.5-9.6h1.7l1.6,6.6l1.5-6.6h1.7L162.8,311.9z"/>
		<path class="st23" d="M170.4,311.2l-0.3,0.8c-0.6-0.1-1.1-0.4-1.3-1c-0.5,0.7-1.3,1-2.3,1c-1.5,0-2.4-0.9-2.4-2.3
			c0-1.5,1.2-2.3,3.4-2.3h1.1v-0.6c0-1.1-0.7-1.5-1.7-1.5c-0.5,0-1.2,0.1-1.9,0.4l-0.3-0.9c0.9-0.3,1.7-0.5,2.4-0.5
			c1.8,0,2.7,0.9,2.7,2.4v3.5C169.8,310.9,170,311.1,170.4,311.2z M168.6,310.1v-1.9h-1.1c-1.6,0-2.2,0.6-2.2,1.5
			c0,0.9,0.4,1.4,1.4,1.4C167.5,311.2,168.2,310.8,168.6,310.1z"/>
		<path class="st23" d="M172.3,311.9l2.7-3.9l-2.4-3.5h1.4l1.7,2.7l1.7-2.7h1.3l-2.4,3.4l2.7,3.9h-1.4l-2-3.1l-2,3.1H172.3z"/>
		<path class="st12" d="M185.8,313.2l-0.6,0.6c-2.3-1.8-3.6-3.6-3.6-6.8s1.3-5,3.6-6.8l0.6,0.6c-2,1.8-3,3.3-3,6.2
			C182.8,309.9,183.8,311.4,185.8,313.2z"/>
		<path class="st12" d="M190.5,301.6h1.5l-0.2,3.6h-1L190.5,301.6z M192.8,301.6h1.5l-0.2,3.6h-1L192.8,301.6z"/>
		<path class="st15" d="M204.5,311.9h-1.2l-0.3-5c-0.1-1.3-0.1-3-0.1-3.5l-1.6,6.7h-1.2l-1.7-6.7c0,0.5,0,2.3,0,3.5l-0.2,5H197
			l0.5-9.6h1.7l1.6,6.6l1.5-6.6h1.7L204.5,311.9z"/>
		<path class="st15" d="M212.1,311.2l-0.3,0.8c-0.6-0.1-1.1-0.4-1.3-1c-0.5,0.7-1.3,1-2.3,1c-1.5,0-2.4-0.9-2.4-2.3
			c0-1.5,1.2-2.3,3.4-2.3h1.1v-0.6c0-1.1-0.7-1.5-1.7-1.5c-0.5,0-1.2,0.1-1.9,0.4l-0.3-0.9c0.9-0.3,1.7-0.5,2.4-0.5
			c1.8,0,2.7,0.9,2.7,2.4v3.5C211.5,310.9,211.7,311.1,212.1,311.2z M210.4,310.1v-1.9h-1.1c-1.6,0-2.2,0.6-2.2,1.5
			c0,0.9,0.4,1.4,1.4,1.4C209.2,311.2,209.9,310.8,210.4,310.1z"/>
		<path class="st15" d="M214,311.9l2.7-3.9l-2.4-3.5h1.4l1.7,2.7l1.7-2.7h1.3l-2.4,3.4l2.7,3.9h-1.4l-2-3.1l-2,3.1H214z"/>
		<path class="st15" d="M225.6,308.3h-1.2v3.6h-1.2v-9.6h2.4c2.3,0,3.7,0.9,3.7,2.9C229.3,307.5,227.8,308.3,225.6,308.3z
			 M225.8,303.3h-1.4v4.1h1.3c1.3,0,2.3-0.5,2.3-2.1C228,303.8,227.1,303.3,225.8,303.3z"/>
		<path class="st15" d="M237.3,304.6l-0.2,2.5h-0.9v-1.6h-0.1c-1.1,0-1.9,0.8-2.4,2.4v3.1h1.5v0.9h-3.8V311h1.2v-5.5h-1.2v-0.9h2
			l0.2,1.7c0.6-1.2,1.3-1.9,2.6-1.9C236.7,304.4,237,304.5,237.3,304.6z"/>
		<path class="st15" d="M243.4,311h2.1v0.9h-5.5V311h2.3v-5.5H240v-0.9h3.4V311z M243.3,302c0,0.5-0.3,0.8-0.9,0.8
			c-0.5,0-0.8-0.3-0.8-0.8s0.3-0.8,0.8-0.8C242.9,301.1,243.3,301.5,243.3,302z"/>
		<path class="st15" d="M253.2,310.4l0.6,0.8c-0.6,0.5-1.6,0.9-2.5,0.9c-2.2,0-3.4-1.5-3.4-3.8c0-2.2,1.3-3.9,3.4-3.9
			c0.9,0,1.8,0.3,2.4,0.9l-0.6,0.8c-0.6-0.4-1.2-0.6-1.9-0.6c-1.3,0-2.2,0.9-2.2,2.9c0,2,0.9,2.8,2.2,2.8
			C252.1,311,252.7,310.8,253.2,310.4z"/>
		<path class="st15" d="M259.4,311.1c0.8,0,1.3-0.2,2-0.7l0.5,0.8c-0.7,0.5-1.6,0.8-2.5,0.8c-2.1,0-3.4-1.5-3.4-3.8
			c0-2.2,1.2-3.8,3.2-3.8c1.8,0,3,1.4,3,3.6c0,0.3,0,0.5,0,0.6h-4.9C257.3,310.3,258.3,311.1,259.4,311.1z M257.3,307.7h3.8
			c0-1.6-0.7-2.4-1.8-2.4C258.2,305.4,257.4,306.1,257.3,307.7z"/>
		<path class="st21" d="M270.2,306.7h-5.4v-1h5.4V306.7z M270.2,309.4h-5.4v-1h5.4V309.4z"/>
		<path class="st15" d="M275.7,308.3h-1.2v3.6h-1.2v-9.6h2.4c2.3,0,3.7,0.9,3.7,2.9C279.4,307.5,277.8,308.3,275.7,308.3z
			 M275.8,303.3h-1.4v4.1h1.3c1.3,0,2.3-0.5,2.3-2.1C278.1,303.8,277.1,303.3,275.8,303.3z"/>
		<path class="st15" d="M287.4,304.6l-0.2,2.5h-0.9v-1.6h-0.1c-1.1,0-1.9,0.8-2.4,2.4v3.1h1.5v0.9h-3.8V311h1.2v-5.5h-1.2v-0.9h2
			l0.2,1.7c0.6-1.2,1.3-1.9,2.6-1.9C286.7,304.4,287,304.5,287.4,304.6z"/>
		<path class="st15" d="M293.4,311h2.1v0.9H290V311h2.3v-5.5h-2.2v-0.9h3.4V311z M293.4,302c0,0.5-0.3,0.8-0.9,0.8
			c-0.5,0-0.8-0.3-0.8-0.8s0.3-0.8,0.8-0.8C293,301.1,293.4,301.5,293.4,302z"/>
		<path class="st15" d="M303.3,310.4l0.6,0.8c-0.6,0.5-1.6,0.9-2.5,0.9c-2.2,0-3.4-1.5-3.4-3.8c0-2.2,1.3-3.9,3.4-3.9
			c0.9,0,1.8,0.3,2.4,0.9l-0.6,0.8c-0.6-0.4-1.2-0.6-1.9-0.6c-1.3,0-2.2,0.9-2.2,2.9c0,2,0.9,2.8,2.2,2.8
			C302.1,311,302.7,310.8,303.3,310.4z"/>
		<path class="st15" d="M309.5,311.1c0.8,0,1.3-0.2,2-0.7l0.5,0.8c-0.7,0.5-1.6,0.8-2.5,0.8c-2.1,0-3.4-1.5-3.4-3.8
			c0-2.2,1.2-3.8,3.2-3.8c1.8,0,3,1.4,3,3.6c0,0.3,0,0.5,0,0.6h-4.9C307.4,310.3,308.3,311.1,309.5,311.1z M307.3,307.7h3.8
			c0-1.6-0.7-2.4-1.8-2.4C308.2,305.4,307.4,306.1,307.3,307.7z"/>
		<path class="st12" d="M315.6,301.6h1.5l-0.2,3.6h-1L315.6,301.6z M318,301.6h1.5l-0.2,3.6h-1L318,301.6z"/>
		<path class="st12" d="M324.1,300.9l0.6-0.6c2.3,1.8,3.6,3.6,3.6,6.8s-1.3,5-3.6,6.8l-0.6-0.6c2-1.8,3-3.3,3-6.2
			C327.1,304.1,326.1,302.6,324.1,300.9z"/>
		<path class="st12" d="M98.8,317.5l0.6-0.6c2.3,1.8,3.6,3.6,3.6,6.8s-1.3,5-3.6,6.8l-0.6-0.6c2-1.8,3-3.3,3-6.2
			C101.8,320.8,100.8,319.3,98.8,317.5z"/>
		<path class="st12" d="M110.1,327.4c0,0.3-0.1,0.7-0.3,1.1l-1.1,2.6h-1.1l0.7-2.7c-0.3-0.2-0.4-0.6-0.4-0.9c0-0.6,0.5-1.1,1.1-1.1
			C109.6,326.3,110.1,326.8,110.1,327.4z"/>
		<path class="st12" d="M98.7,335h1.5l-0.2,3.6h-1L98.7,335z M101,335h1.5l-0.2,3.6h-1L101,335z"/>
		<path class="st15" d="M108.7,345.4c-1.4,0-2.6-0.4-3.4-1.2l0.7-0.8c0.7,0.6,1.5,1,2.7,1s2.2-0.6,2.2-1.8c0-0.9-0.4-1.4-2.1-1.9
			c-1.9-0.6-3.1-1.3-3.1-2.8c0-1.4,1.3-2.5,3.1-2.5c1.3,0,2.3,0.4,3.1,1.1l-0.7,0.8c-0.7-0.6-1.5-0.9-2.3-0.9
			c-1.1,0-1.9,0.5-1.9,1.4c0,0.8,0.6,1.2,2.4,1.8c1.5,0.4,2.8,1.1,2.8,2.9C112.2,344.3,111,345.4,108.7,345.4z"/>
		<path class="st15" d="M118,345.3c-0.5,1.5-1.3,2.7-3.3,2.9l-0.2-0.9c1.5-0.3,1.9-0.9,2.3-2h-0.4l-2.5-7.3h1.2l2.1,6.4l2.1-6.4h1.2
			L118,345.3z"/>
		<path class="st15" d="M129.1,339.8v5.4H128V340c0-0.9,0-1.3-0.6-1.3c-0.4,0-0.9,0.2-1.3,0.9v5.7h-1.1V340c0-0.9,0-1.3-0.6-1.3
			c-0.5,0-0.9,0.2-1.3,0.9v5.7h-1.1v-7.3h0.9l0.1,0.9c0.4-0.6,0.8-1,1.6-1c0.6,0,1.1,0.2,1.3,1c0.4-0.6,0.9-1,1.6-1
			C128.4,337.8,129.1,338.1,129.1,339.8z"/>
		<path class="st12" d="M132.1,335h1.5l-0.2,3.6h-1L132.1,335z M134.4,335h1.5l-0.2,3.6h-1L134.4,335z"/>
		<path class="st12" d="M57.1,350.9l0.6-0.6c2.3,1.8,3.6,3.6,3.6,6.8s-1.3,5-3.6,6.8l-0.6-0.6c2-1.8,3-3.3,3-6.2
			C60.1,354.2,59.1,352.7,57.1,350.9z"/>
	</g>
	<circle class="st2" cx="55.5" cy="136" r="5.3"/>
	<circle class="st2" cx="75" cy="136" r="5.3"/>
	<circle class="st2" cx="94.5" cy="136" r="5.3"/>
</g>
<path class="st24" d="M1400.3,230.5h-132.9c-6.6,0-12-5.4-12-12V85.7c0-6.6,5.4-12,12-12h132.9c6.6,0,12,5.4,12,12v132.9
	C1412.3,225.1,1406.9,230.5,1400.3,230.5z"/>
<g>
	<path class="st25" d="M879.3,312.4H520.1c-2.9,0-5.3-2.4-5.3-5.3V120c0-2.9,2.4-5.3,5.3-5.3h359.3c2.9,0,5.3,2.4,5.3,5.3v187.1
		C884.7,310.1,882.3,312.4,879.3,312.4z"/>
	<circle class="st2" cx="529.7" cy="128.2" r="5.4"/>
	<circle class="st2" cx="549.6" cy="128.2" r="5.4"/>
	<circle class="st2" cx="569.4" cy="128.2" r="5.4"/>
	<rect x="515.2" y="171.8" class="st9" width="368.9" height="1.3"/>
	<g>
		<path class="st26" d="M624.8,162.1h-3.2l-3.7-12.5h2.8l2.5,10.3l2.4-10.3h2.7L624.8,162.1z"/>
		<path class="st26" d="M641.2,162.1h-3.4l-1.7-9.7l-1.8,9.7h-3.3l-2.2-12.5h2.6l1.4,10.4l1.9-10.4h2.8l1.8,10.4l1.6-10.4h2.5
			L641.2,162.1z"/>
		<path class="st26" d="M650.5,159.3h-3.9l-0.7,2.8h-2.8l3.8-12.5h3.2l3.8,12.5h-2.8L650.5,159.3z M649.9,157.3l-1.5-5.7l-1.5,5.7
			H649.9z"/>
		<path class="st26" d="M664.1,153.6c0,2.9-2.1,4.2-4.9,4.2h-1.4v4.2h-2.6v-12.5h3.9C662.1,149.6,664.1,150.9,664.1,153.6z
			 M661.3,153.6c0-1.5-0.9-2.1-2.4-2.1h-1.2v4.4h1.2C660.4,155.9,661.3,155.3,661.3,153.6z"/>
	</g>
	<g>
		<path class="st26" d="M722.2,151.7H719v10.4h-2.6v-10.4H713v-2.1h9.4L722.2,151.7z"/>
		<path class="st26" d="M730.9,157.3c0,3-1.7,5.1-4.6,5.1c-2.8,0-4.6-1.9-4.6-5.1c0-3,1.7-5.1,4.6-5.1
			C729.2,152.2,730.9,154.1,730.9,157.3z M724.4,157.3c0,2.2,0.6,3.2,1.9,3.2c1.3,0,1.9-1,1.9-3.2c0-2.2-0.6-3.2-1.9-3.2
			C725,154.1,724.4,155.1,724.4,157.3z"/>
		<path class="st26" d="M738.5,161.6c-0.7,0.5-1.6,0.7-2.5,0.7c-2,0-3-1.2-3-3.3v-4.8h-1.4v-1.8h1.4v-2.1l2.6-0.3v2.4h2.2l-0.3,1.8
			h-1.9v4.7c0,0.9,0.3,1.3,1,1.3c0.3,0,0.7-0.1,1.1-0.3L738.5,161.6z"/>
		<path class="st26" d="M747.6,160.6l-0.5,1.7c-1.1-0.1-1.8-0.5-2.2-1.4c-0.7,1-1.7,1.4-2.9,1.4c-1.9,0-3.1-1.2-3.1-3
			c0-2.1,1.6-3.2,4.4-3.2h1.1v-0.5c0-1.2-0.5-1.6-1.7-1.6c-0.6,0-1.5,0.2-2.5,0.5l-0.6-1.7c1.2-0.5,2.4-0.7,3.5-0.7
			c2.6,0,3.8,1.2,3.8,3.3v3.9C746.9,160.2,747.2,160.5,747.6,160.6z M744.4,159.5v-1.8h-0.8c-1.4,0-2.1,0.5-2.1,1.5
			c0,0.8,0.4,1.3,1.2,1.3C743.5,160.5,744,160.1,744.4,159.5z"/>
		<path class="st26" d="M749.4,159.8v-11l2.6-0.3v11.3c0,0.4,0.2,0.6,0.5,0.6c0.2,0,0.4,0,0.5-0.1l0.5,1.8c-0.4,0.2-1,0.3-1.6,0.3
			C750.3,162.4,749.4,161.4,749.4,159.8z"/>
		<path class="st26" d="M760.3,162.1h-3.2l-3.7-12.5h2.8l2.5,10.3l2.4-10.3h2.7L760.3,162.1z"/>
		<path class="st26" d="M773,157.3c0,3-1.7,5.1-4.6,5.1c-2.8,0-4.6-1.9-4.6-5.1c0-3,1.7-5.1,4.6-5.1
			C771.3,152.2,773,154.1,773,157.3z M766.5,157.3c0,2.2,0.6,3.2,1.9,3.2c1.3,0,1.9-1,1.9-3.2c0-2.2-0.6-3.2-1.9-3.2
			C767.1,154.1,766.5,155.1,766.5,157.3z"/>
		<path class="st26" d="M774.8,159.8v-11l2.6-0.3v11.3c0,0.4,0.2,0.6,0.5,0.6c0.2,0,0.4,0,0.5-0.1l0.5,1.8c-0.4,0.2-1,0.3-1.6,0.3
			C775.7,162.4,774.8,161.4,774.8,159.8z"/>
		<path class="st26" d="M788.1,162.1h-2.2l-0.1-1.3c-0.7,1.1-1.6,1.6-2.9,1.6c-1.8,0-2.7-1.1-2.7-3v-6.9h2.6v6.5c0,1,0.3,1.4,1,1.4
			s1.3-0.5,1.7-1.2v-6.7h2.6V162.1z"/>
		<path class="st26" d="M803.4,155.1v7h-2.6v-6.5c0-1.1-0.4-1.4-0.9-1.4c-0.7,0-1.2,0.5-1.7,1.3v6.6h-2.6v-6.5
			c0-1.1-0.4-1.4-0.9-1.4c-0.7,0-1.2,0.5-1.6,1.3v6.6h-2.6v-9.5h2.2l0.2,1.2c0.7-1,1.6-1.5,2.8-1.5c1.1,0,1.9,0.6,2.3,1.6
			c0.7-1,1.6-1.6,2.8-1.6C802.4,152.2,803.4,153.3,803.4,155.1z"/>
		<path class="st26" d="M813.9,158.1h-6c0.2,1.8,1,2.4,2.3,2.4c0.8,0,1.5-0.3,2.3-0.8l1.1,1.4c-0.9,0.8-2.1,1.3-3.6,1.3
			c-3.1,0-4.7-2-4.7-5c0-2.9,1.5-5.1,4.3-5.1c2.7,0,4.3,1.8,4.3,4.8C813.9,157.4,813.9,157.8,813.9,158.1z M811.4,156.4
			c0-1.4-0.5-2.4-1.7-2.4c-1,0-1.6,0.7-1.8,2.5h3.5V156.4z"/>
	</g>
	<g>
		<path class="st26" d="M848.9,162.1h-2.6L846,157c-0.1-1.8-0.2-3.7-0.1-5.1l-2.1,8.8h-2.5l-2.2-8.8c0.1,1.7,0.1,3.4,0,5.1l-0.3,5
			h-2.6l1-12.5h3.4l2.1,8.6l1.9-8.6h3.4L848.9,162.1z"/>
		<path class="st26" d="M853.8,149.1c0,0.8-0.6,1.5-1.6,1.5c-0.9,0-1.5-0.6-1.5-1.5s0.6-1.5,1.5-1.5
			C853.2,147.6,853.8,148.3,853.8,149.1z M853.6,162.1H851v-9.5h2.6V162.1z"/>
		<path class="st26" d="M864.1,155.1v7h-2.6v-6.5c0-1.1-0.4-1.4-1-1.4c-0.7,0-1.3,0.5-1.8,1.3v6.6h-2.6v-9.5h2.2l0.2,1.2
			c0.8-1,1.7-1.5,2.9-1.5C863.1,152.2,864.1,153.3,864.1,155.1z"/>
		<path class="st26" d="M875.5,153.6c0,2.9-2.1,4.2-4.9,4.2h-1.4v4.2h-2.6v-12.5h3.9C873.6,149.6,875.5,150.9,875.5,153.6z
			 M872.8,153.6c0-1.5-0.9-2.1-2.4-2.1h-1.2v4.4h1.2C871.9,155.9,872.8,155.3,872.8,153.6z"/>
		<path class="st26" d="M883.1,152.4l-0.4,2.5c-0.3-0.1-0.5-0.1-0.8-0.1c-1.2,0-1.7,0.9-2.1,2.4v4.9h-2.6v-9.5h2.2l0.2,1.9
			c0.5-1.3,1.4-2.1,2.5-2.1C882.5,152.2,882.8,152.3,883.1,152.4z"/>
	</g>
	<g>
		<path class="st26" d="M538.7,150.9l-1.3,1.5c-0.9-0.7-1.7-1-2.8-1c-1.1,0-1.8,0.5-1.8,1.4c0,0.9,0.5,1.2,2.5,1.9
			c2.3,0.7,3.7,1.7,3.7,4c0,2.3-1.8,3.9-4.8,3.9c-2.1,0-3.6-0.7-4.6-1.7l1.4-1.5c0.9,0.8,1.9,1.2,3.2,1.2s2.1-0.6,2.1-1.7
			c0-1-0.5-1.4-2.4-2c-2.7-0.8-3.8-1.9-3.8-3.8c0-2.1,1.8-3.5,4.4-3.5C536.3,149.3,537.6,149.9,538.7,150.9z"/>
		<path class="st26" d="M545.3,162.1c-0.7,2.3-2.2,3.7-5.1,3.9l-0.3-1.8c1.9-0.3,2.5-0.8,3.1-2.1h-0.9l-3-9.5h2.7l1.9,7.9l2-7.9h2.6
			L545.3,162.1z"/>
		<path class="st26" d="M562.5,155.1v7h-2.6v-6.5c0-1.1-0.4-1.4-0.9-1.4c-0.7,0-1.2,0.5-1.7,1.3v6.6h-2.6v-6.5
			c0-1.1-0.4-1.4-0.9-1.4c-0.7,0-1.2,0.5-1.6,1.3v6.6h-2.6v-9.5h2.2l0.2,1.2c0.7-1,1.6-1.5,2.8-1.5c1.1,0,1.9,0.6,2.3,1.6
			c0.7-1,1.6-1.6,2.8-1.6C561.4,152.2,562.5,153.3,562.5,155.1z"/>
	</g>
	<rect x="514.8" y="173.1" class="st27" width="369.9" height="19"/>
	<rect x="514.8" y="211" class="st27" width="369.9" height="19"/>
	<rect x="514.8" y="248.9" class="st27" width="369.9" height="19"/>
	<rect x="514.8" y="286.8" class="st27" width="369.9" height="19"/>
	
		<rect x="568.6" y="155.5" transform="matrix(4.448718e-10 -1 1 4.448718e-10 427.0247 739.2408)" class="st9" width="29" height="1.2"/>
	
		<rect x="682" y="155.5" transform="matrix(4.448718e-10 -1 1 4.448718e-10 540.4548 852.6709)" class="st9" width="29" height="1.2"/>
	
		<rect x="811.7" y="155.5" transform="matrix(4.448718e-10 -1 1 4.448718e-10 670.1269 982.343)" class="st9" width="29" height="1.2"/>
	<rect x="515.1" y="229.9" class="st28" width="369.3" height="19"/>
	<path class="st29" d="M570.2,187.4h-41.3c-2.7,0-4.9-2.2-4.9-4.9v0c0-2.7,2.2-4.9,4.9-4.9h41.3c2.7,0,4.9,2.2,4.9,4.9v0
		C575.1,185.2,572.9,187.4,570.2,187.4z"/>
	<path class="st22" d="M685.8,187.4h-33.4c-2.7,0-4.9-2.2-4.9-4.9v0c0-2.7,2.2-4.9,4.9-4.9h33.4c2.7,0,4.9,2.2,4.9,4.9v0
		C690.7,185.2,688.5,187.4,685.8,187.4z"/>
	<path class="st22" d="M685.8,206.2h-39.9c-2.7,0-4.9-2.2-4.9-4.9v0c0-2.7,2.2-4.9,4.9-4.9h39.9c2.7,0,4.9,2.2,4.9,4.9v0
		C690.7,204,688.5,206.2,685.8,206.2z"/>
	<path class="st22" d="M685.8,224.9h-35.9c-2.7,0-4.9-2.2-4.9-4.9v0c0-2.7,2.2-4.9,4.9-4.9h35.9c2.7,0,4.9,2.2,4.9,4.9v0
		C690.7,222.7,688.5,224.9,685.8,224.9z"/>
	<path class="st22" d="M685.8,243.7h-56.9c-2.7,0-4.9-2.2-4.9-4.9l0,0c0-2.7,2.2-4.9,4.9-4.9h56.9c2.7,0,4.9,2.2,4.9,4.9l0,0
		C690.7,241.5,688.5,243.7,685.8,243.7z"/>
	<path class="st22" d="M685.8,262.4h-35.9c-2.7,0-4.9-2.2-4.9-4.9l0,0c0-2.7,2.2-4.9,4.9-4.9h35.9c2.7,0,4.9,2.2,4.9,4.9l0,0
		C690.7,260.2,688.5,262.4,685.8,262.4z"/>
	<path class="st22" d="M685.8,281.2h-58.3c-2.7,0-4.9-2.2-4.9-4.9l0,0c0-2.7,2.2-4.9,4.9-4.9h58.3c2.7,0,4.9,2.2,4.9,4.9l0,0
		C690.7,279,688.5,281.2,685.8,281.2z"/>
	<path class="st22" d="M685.8,299.9H633c-2.7,0-4.9-2.2-4.9-4.9l0,0c0-2.7,2.2-4.9,4.9-4.9h52.8c2.7,0,4.9,2.2,4.9,4.9l0,0
		C690.7,297.8,688.5,299.9,685.8,299.9z"/>
	<path class="st22" d="M819.8,187.4h-63.4c-2.7,0-4.9-2.2-4.9-4.9v0c0-2.7,2.2-4.9,4.9-4.9h63.4c2.7,0,4.9,2.2,4.9,4.9v0
		C824.7,185.2,822.5,187.4,819.8,187.4z"/>
	<path class="st22" d="M819.8,206.2h-56.2c-2.7,0-4.9-2.2-4.9-4.9v0c0-2.7,2.2-4.9,4.9-4.9h56.2c2.7,0,4.9,2.2,4.9,4.9v0
		C824.7,204,822.5,206.2,819.8,206.2z"/>
	<path class="st22" d="M819.8,224.9h-56.9c-2.7,0-4.9-2.2-4.9-4.9v0c0-2.7,2.2-4.9,4.9-4.9h56.9c2.7,0,4.9,2.2,4.9,4.9v0
		C824.7,222.7,822.5,224.9,819.8,224.9z"/>
	<path class="st22" d="M819.8,243.7H738c-2.7,0-4.9-2.2-4.9-4.9l0,0c0-2.7,2.2-4.9,4.9-4.9h81.8c2.7,0,4.9,2.2,4.9,4.9l0,0
		C824.7,241.5,822.5,243.7,819.8,243.7z"/>
	<path class="st22" d="M819.8,262.4h-35.9c-2.7,0-4.9-2.2-4.9-4.9l0,0c0-2.7,2.2-4.9,4.9-4.9h35.9c2.7,0,4.9,2.2,4.9,4.9l0,0
		C824.7,260.2,822.5,262.4,819.8,262.4z"/>
	<path class="st22" d="M819.8,281.2h-58.3c-2.7,0-4.9-2.2-4.9-4.9l0,0c0-2.7,2.2-4.9,4.9-4.9h58.3c2.7,0,4.9,2.2,4.9,4.9l0,0
		C824.7,279,822.5,281.2,819.8,281.2z"/>
	<path class="st22" d="M819.8,299.9H767c-2.7,0-4.9-2.2-4.9-4.9l0,0c0-2.7,2.2-4.9,4.9-4.9h52.8c2.7,0,4.9,2.2,4.9,4.9l0,0
		C824.7,297.8,822.5,299.9,819.8,299.9z"/>
	<path class="st22" d="M884.5,187.4h-26.1c-2.7,0-4.9-2.2-4.9-4.9v0c0-2.7,2.2-4.9,4.9-4.9h26.1V187.4z"/>
	<path class="st22" d="M884.5,206.2h-23c-2.7,0-4.9-2.2-4.9-4.9v0c0-2.7,2.2-4.9,4.9-4.9h23V206.2z"/>
	<path class="st22" d="M884.5,224.9h-23.3c-2.7,0-4.9-2.2-4.9-4.9v0c0-2.7,2.2-4.9,4.9-4.9h23.3V224.9z"/>
	<path class="st22" d="M884.5,243.7h-30.3c-2.7,0-4.9-2.2-4.9-4.9l0,0c0-2.7,2.2-4.9,4.9-4.9h30.3V243.7z"/>
	<path class="st22" d="M884.5,262.4h-14.4c-2.7,0-4.9-2.2-4.9-4.9l0,0c0-2.7,2.2-4.9,4.9-4.9h14.4V262.4z"/>
	<path class="st22" d="M884.5,281.2h-23.9c-2.7,0-4.9-2.2-4.9-4.9l0,0c0-2.7,2.2-4.9,4.9-4.9h23.9V281.2z"/>
	<path class="st22" d="M884.5,299.9H863c-2.7,0-4.9-2.2-4.9-4.9l0,0c0-2.7,2.2-4.9,4.9-4.9h21.6V299.9z"/>
	<path class="st29" d="M552.5,206.2h-23.6c-2.7,0-4.9-2.2-4.9-4.9v0c0-2.7,2.2-4.9,4.9-4.9h23.6c2.7,0,4.9,2.2,4.9,4.9v0
		C557.4,204,555.2,206.2,552.5,206.2z"/>
	<path class="st29" d="M558.8,224.9h-29.9c-2.7,0-4.9-2.2-4.9-4.9v0c0-2.7,2.2-4.9,4.9-4.9h29.9c2.7,0,4.9,2.2,4.9,4.9v0
		C563.7,222.7,561.5,224.9,558.8,224.9z"/>
	<path class="st29" d="M544.7,243.7h-15.8c-2.7,0-4.9-2.2-4.9-4.9l0,0c0-2.7,2.2-4.9,4.9-4.9h15.8c2.7,0,4.9,2.2,4.9,4.9l0,0
		C549.6,241.5,547.4,243.7,544.7,243.7z"/>
	<path class="st29" d="M561.1,262.4h-32.2c-2.7,0-4.9-2.2-4.9-4.9l0,0c0-2.7,2.2-4.9,4.9-4.9h32.2c2.7,0,4.9,2.2,4.9,4.9l0,0
		C566,260.2,563.8,262.4,561.1,262.4z"/>
	<path class="st29" d="M570.2,281.2h-41.3c-2.7,0-4.9-2.2-4.9-4.9l0,0c0-2.7,2.2-4.9,4.9-4.9h41.3c2.7,0,4.9,2.2,4.9,4.9l0,0
		C575.1,279,572.9,281.2,570.2,281.2z"/>
	<path class="st29" d="M558.8,299.9h-29.9c-2.7,0-4.9-2.2-4.9-4.9l0,0c0-2.7,2.2-4.9,4.9-4.9h29.9c2.7,0,4.9,2.2,4.9,4.9l0,0
		C563.7,297.8,561.5,299.9,558.8,299.9z"/>
</g>
<g>
	<polygon class="st15" points="615.3,257.2 614.4,279.4 592.5,279.4 598.9,256.3 	"/>
	<path class="st30" d="M614.4,279.4l-3.1,72.6c-0.4,9.9-8,18.1-17.8,19.3l-65.9,8l-2.7-5.9l-15.6-33.6h66.5l16.8-60.4H614.4z"/>
	<path class="st15" d="M598.9,256.3c0,0-3.8-10-1.6-20.1c2.2-10.1,9.3-11.1,15-13c5.7-2,9.8-3.7,15,3c5.2,6.6,8.1,6.1,3.9,7.4
		c-4.2,1.2-7.6,1.5-9.8-1.2c-2.2-2.7-2.5-3.9-2.5-3.9s4.9,10.1,2,13.5c-3,3.4-5.9,3.7-5.9,3.7l0.3,11.7L598.9,256.3z"/>
	<g>
		<g>
			<path d="M578,344.1c0.4,3.5,0.8,7.1,1.2,10.6c0.1,0.8,1.4,0.8,1.3,0c-0.4-3.5-0.8-7.1-1.2-10.6
				C579.2,343.3,577.9,343.2,578,344.1L578,344.1z"/>
		</g>
	</g>
	<g>
		<g>
			<path d="M581.2,342c3.2,2.2,6.5,4.4,9.7,6.7c0.7,0.5,1.4-0.7,0.7-1.1c-3.2-2.2-6.5-4.4-9.7-6.7
				C581.1,340.4,580.5,341.5,581.2,342L581.2,342z"/>
		</g>
	</g>
	<g>
		<path d="M504.4,292.1c0,0,21.2-5.5,12.5-25.7c-8.7-20.2-27-22.9-38.6-13.8c-11.6,9.2-2.9,22-2.9,22s-10.6-6.4-15.4,1.8
			c-4.8,8.3,1,12.8,1,12.8s-14.5-4.9-18.3,4.6c-4.5,11,8.7,13.8,8.7,13.8s-5.8,7.3-2.9,12.8c2.9,5.5,6.8,7.3,6.8,7.3
			s-15.4,2.8-15.4,15.6c0,12.8,21.2,9.2,21.2,9.2h28l1.9-47.7L504.4,292.1z"/>
		<path class="st15" d="M480.3,318.7l-1.9,23.8l24.2,11.2l0.8-33.2l10.5-3.8c5-1.8,7.1-7.8,4.3-12.3l-18.6-29.7
			c0,0-5.8,26.6-14.5,28.4c-8.7,1.8-9.6-4.6-9.6-4.6s-15.4,7.3-9.6,15.6C471.6,322.4,480.3,318.7,480.3,318.7z"/>
		<g>
			<g>
				<path d="M504.4,292.2c0.9,2.3,2.7,4.1,5,5c-0.2-0.2-0.3-0.4-0.5-0.6c-0.1,1-0.5,1.9-1.1,2.7c-0.2,0.3-0.3,0.7,0,0.9
					c0.2,0.2,0.7,0.3,0.9,0c0.8-1.1,1.3-2.3,1.4-3.6c0-0.3-0.2-0.5-0.5-0.6c-1.9-0.7-3.4-2.2-4.1-4.1c-0.1-0.3-0.4-0.6-0.8-0.5
					C504.6,291.5,504.3,291.9,504.4,292.2L504.4,292.2z"/>
			</g>
		</g>
		<g>
			<g>
				<path d="M508.6,308.6c-2.8,1.9-6.8,1.2-9-1.4c-0.2-0.3-0.7-0.2-0.9,0c-0.3,0.3-0.2,0.7,0,0.9c2.5,3.1,7.3,3.8,10.5,1.6
					C509.9,309.2,509.3,308.1,508.6,308.6L508.6,308.6z"/>
			</g>
		</g>
		<g>
			<g>
				<path d="M502.4,319c-2.1,0.6-4.3,1.3-6.4,1.9c-0.8,0.2-0.5,1.5,0.3,1.3c2.1-0.6,4.3-1.3,6.4-1.9
					C503.6,320,503.2,318.8,502.4,319L502.4,319z"/>
			</g>
		</g>
		<g>
			<g>
				<path d="M470.4,311.1c-0.1-2.9,2.7-5.3,5.5-5c2.9,0.3,5.2,3,5.5,5.8c0.4-0.2,0.7-0.3,1.1-0.5c-1.4-1.6-3.6-2.3-5.7-1.7
					c-2,0.5-3.5,2.2-4,4.2c-0.2,0.8,1.1,1.2,1.3,0.3c0.4-1.5,1.5-2.8,3.1-3.3c1.6-0.4,3.3,0.2,4.4,1.4c0.4,0.4,1.2,0.1,1.1-0.5
					c-0.4-3.5-3.1-6.8-6.8-7.1c-3.5-0.3-7,2.8-6.8,6.3C469.1,311.9,470.4,311.9,470.4,311.1L470.4,311.1z"/>
			</g>
		</g>
	</g>
	<g>
		<path class="st13" d="M442.7,503.1l123.4-1.8l-19.3-89.9l1.5-1.6c12-12.4,11.9-32.1-0.2-44.3L532,349.1c-5.9-6-14-9.3-22.4-9.3
			h-29.5c-13.9,0-25.2,11-25.6,24.9L442.7,503.1z"/>
		<polygon points="448.2,438.1 447.1,451.2 485.9,459.4 455.4,435.7 		"/>
		<g>
			<g>
				<path d="M542,409.7c-5-4.4-12.2-3.9-18.4-3.7c-6.3,0.2-12.9,0.7-18.9,3c-3.2,1.3-6.2,3.1-8.7,5.6c-0.6,0.6,0.3,1.5,0.9,0.9
					c4.2-4.3,9.9-6.4,15.8-7.4c3-0.5,6.1-0.7,9.2-0.9c3-0.1,6.1-0.2,9.1-0.1c3.6,0.2,7.3,0.9,10,3.3
					C541.7,411.2,542.6,410.3,542,409.7L542,409.7z"/>
			</g>
		</g>
	</g>
	<g>
		<path class="st15" d="M474.3,748.5l-4.6,16.9c-8.7,0-10.6,3.9-14.5,0c-1.2-1.2-4.4-2.3-8.4-3.3l0.8-13.6H474.3z"/>
		<path class="st15" d="M600.4,748.5l-0.5,15c-8.7-1.9-4.8,8.6-10.6,3.8c-0.9-0.8-4.4-1.3-9.5-1.8l-2.9-17.1H600.4z"/>
		<path d="M603.4,655.1l-3,93.5h-23.5l-11.5-67.4c-0.7-4.3-1-8.7-0.9-13.1l0.7-20.9l-46.3-80.7L501.5,648l-27.2,100.6h-26.6l4-64.3
			c0.5-6.9,1.8-13.7,3.9-20.3l6.4-19.6c0,0-13.5-69.8-14.5-92.9c-1-23.1,2.9-48.3,2.9-48.3l115.7-1.8l35.1,134.5
			C602.9,642,603.6,648.5,603.4,655.1z"/>
		<path class="st7" d="M497.8,781.9h-52.2l1.2-19.7c4,1,7.2,2.1,8.4,3.3c3.9,3.9,5.8,0,14.5,0l29.1,10.5
			C502,777.1,501.1,781.9,497.8,781.9z"/>
		<path class="st7" d="M630.9,781.9h-48.4l-2.8-16.2c5.2,0.4,8.6,1,9.5,1.8c5.8,4.8,1.9-5.7,10.6-3.8L632,776
			C635.1,777.2,634.3,781.9,630.9,781.9z"/>
		<g>
			<g>
				<path class="st31" d="M465.4,508.1c-0.9,15.5-1.3,31.1-1.2,46.7c0.1,15.6,0.8,31.1,2,46.6c0.6,7.8,1.4,15.5,2.2,23.2
					c0.9,7.8,2,15.5,3,23.3c0.5,3.8,0.8,7.6,0.5,11.4c-0.2,3.9-0.9,7.7-1.7,11.5c-1.5,7.6-3,15.2-4.4,22.9
					c-2.8,15.3-5.2,30.7-7.3,46.1c-0.2,1.8-0.5,3.7-0.7,5.5c-0.1,0.8,1.2,0.8,1.3,0c2-15.5,4.4-31,7.1-46.4
					c1.3-7.7,2.8-15.3,4.3-22.9c1.5-7.4,3.1-14.7,2.7-22.3c-0.4-7.7-1.9-15.3-2.8-22.9c-1-7.8-1.8-15.6-2.5-23.5
					c-1.4-15.5-2.2-31.1-2.5-46.6c-0.3-15.6,0-31.1,0.8-46.7c0.1-1.9,0.2-3.9,0.3-5.8C466.8,507.2,465.5,507.2,465.4,508.1
					L465.4,508.1z"/>
			</g>
		</g>
		<g>
			<g>
				<path class="st31" d="M478.5,507.3c2.5,12.5-1.2,26-9.7,35.5c-0.6,0.6,0.4,1.6,0.9,0.9c8.8-9.9,12.5-23.8,10-36.8
					C479.6,506.1,478.4,506.4,478.5,507.3L478.5,507.3z"/>
			</g>
		</g>
		<g>
			<g>
				<path class="st31" d="M521.3,563.9c0.6-4.7,2.4-9.2,5.2-13c0.5-0.7-0.6-1.3-1.1-0.7c-2.9,4-4.7,8.7-5.4,13.7
					C519.9,564.7,521.2,564.7,521.3,563.9L521.3,563.9z"/>
			</g>
		</g>
		<g>
			<g>
				<path class="st31" d="M525.3,558.4c11.5,23.3,23.6,46.4,36.2,69.1c1.6,2.9,3.2,5.7,4.8,8.6c1.6,2.8,3.2,5.5,4.6,8.3
					c2.8,6,3,12.6,3.5,19.1c1,13.1,2.4,26.1,4,39.1c1.9,14.6,4.1,29.2,6.7,43.7c0.2,0.8,1.4,0.5,1.3-0.3c-4.7-26.1-8.2-52.5-10.4-79
					c-0.3-3.3-0.5-6.5-0.8-9.8c-0.3-3.1-0.6-6.1-1.5-9.1c-0.9-2.9-2.3-5.6-3.8-8.2c-1.6-2.8-3.2-5.7-4.8-8.5
					c-6.4-11.4-12.6-22.9-18.7-34.5c-6.8-12.9-13.5-26-20-39.1C526.1,557,525,557.6,525.3,558.4L525.3,558.4z"/>
			</g>
		</g>
	</g>
	<g>
		<polygon class="st15" points="517.9,455.9 510.2,469.1 485.9,459.4 496.4,439.3 		"/>
		<path class="st13" d="M466.8,416.4l29.5,22.9l-10.4,20.2l-42.3-16.9c-11.4-4.5-17.2-17.2-13.3-28.8l17-50.4
			c4.7-14,18-23.3,32.7-23.1l27.3,0.5L466.8,416.4z"/>
		<path class="st10" d="M547.3,568.6l-60-60c-4.3-4.3-4.3-11.4,0-15.7l60-60c4.3-4.3,11.4-4.3,15.7,0l60,60c4.3,4.3,4.3,11.4,0,15.7
			l-60,60C558.7,572.9,551.7,572.9,547.3,568.6z"/>
		<path class="st15" d="M529.4,466.2l-3.4-11.4c-0.8-2.8-3.8-4.3-6.6-3.3c-2.8,1-5,3.1-6.2,5.9l-6.1,12.3c-0.9,2.1-0.7,4.5,0.4,6.4
			l5.3,8.4c-0.8,1.5-1.5,3.2-1.5,4.3c0,2.2,3.7,5.3,4.4,3.1c0.6-2.2,3.8-5.7,3.8-5.7l2.7-4.1c1.8-1.6,2.7-4,2.6-6.4l-0.2-3.5
			C527.9,472.3,530.3,469.2,529.4,466.2z"/>
		<g>
			<g>
				<path d="M521,459.1c1.5,4.1,2.9,8.2,4,12.4c0.2,0.8,1.5,0.5,1.3-0.3c-1.2-4.2-2.5-8.3-4-12.4C521.9,458,520.7,458.3,521,459.1
					L521,459.1z"/>
			</g>
		</g>
		<g>
			<g>
				<path d="M515.1,454.3c-2.8,3.6-5.2,7.5-7.1,11.7c-0.4,0.8,0.8,1.4,1.1,0.7c2-4.1,4.4-8,7.1-11.7
					C516.7,454.3,515.6,453.6,515.1,454.3L515.1,454.3z"/>
			</g>
		</g>
		<g>
			<g>
				<path d="M517.9,466c1.7,4.7,3.1,9.6,4.2,14.5c0.2,0.8,1.5,0.5,1.3-0.3c-1.1-4.9-2.6-9.7-4.2-14.5
					C518.9,464.9,517.6,465.2,517.9,466L517.9,466z"/>
			</g>
		</g>
		<g>
			<g>
				<path d="M513.8,474.3c2.1,3.4,3.9,7.1,5.3,10.9c0.3,0.8,1.5,0.5,1.3-0.3c-1.4-3.9-3.2-7.7-5.4-11.2
					C514.5,472.9,513.3,473.6,513.8,474.3L513.8,474.3z"/>
			</g>
		</g>
		<g>
			<g>
				<path d="M488.9,376.1c-5.7,8.6-10.9,17.5-15.5,26.8c-1.1,2.2-2.2,4.5-3.3,6.8c-0.8,1.8-2.3,4.1-1.1,6c0.6,0.9,1.5,1.6,2.2,2.4
					c1,1,2,1.9,3,2.9c2,1.9,4,3.8,6,5.7c4.5,4.3,9,8.6,13.5,13c0.6,0.6,1.5-0.3,0.9-0.9c-7.5-7.2-15.1-14.5-22.6-21.7
					c-0.9-0.8-2.2-1.8-2.2-3.1c0.1-1.3,1-2.6,1.5-3.8c1-2.2,2-4.3,3.1-6.4c2.2-4.4,4.5-8.7,6.9-12.9c2.7-4.8,5.6-9.4,8.7-14
					C490.5,376,489.4,375.4,488.9,376.1L488.9,376.1z"/>
			</g>
		</g>
		<g>
			<g>
				<path d="M475.4,346.4c6.8,3.7,11.3,11.1,11.3,18.9c0,0.8,1.3,0.8,1.3,0c0-8.2-4.7-16.1-11.9-20
					C475.3,344.9,474.6,346,475.4,346.4L475.4,346.4z"/>
			</g>
		</g>
		<g>
			<g>
				<path d="M464,413.8c-3.2,0-6.4,0-9.6,0c-0.8,0-0.8,1.3,0,1.3c3.2,0,6.4,0,9.6,0C464.9,415.1,464.9,413.8,464,413.8L464,413.8z"
					/>
			</g>
		</g>
		<g>
			<g>
				<path d="M465.6,417.7c-2,1.2-3.4,3.1-4.1,5.3c-0.1,0.3,0.1,0.7,0.5,0.8c0.4,0.1,0.7-0.1,0.8-0.5c0.6-1.8,1.8-3.5,3.5-4.5
					C467,418.4,466.3,417.3,465.6,417.7L465.6,417.7z"/>
			</g>
		</g>
	</g>
</g>
<g id="Man">
	<path class="st32" d="M786.8,359.2c0,0-0.3-7.1-2.6-11.6c-4.3-8.6-9.4-9.4-9.4-9.4c-3.4,0-15.9-3.4-15.9-3.4s-0.4,5.1,4.3,8.1
		s8.1,0.4,8.1,0.4s-2.6,4.3-1.7,9.9c0.9,5.6,4.3,5.1,4.3,5.1l0.4,13.7h7.3l86.1,45l6.4-34.7L786.8,359.2z"/>
	<g>
		<path class="st5" d="M895.4,354.1h14.1c26,0,46.5,22.2,44.4,48.1l-3.5,128H844.6l33.1-161.7C879.4,360.1,886.8,354.1,895.4,354.1z
			"/>
		<path d="M881.4,360.7c-1.8,2.2-3.1,4.8-3.7,7.7l-16,78.2l37.4-52.1C911.7,380.4,899.8,358.5,881.4,360.7z"/>
		<g>
			<g>
				<path d="M884.8,417.1c0.7,28.8-0.2,57.6-2.5,86.4c-0.6,8.1-1.4,16.2-2.3,24.2c-0.1,0.8,1.2,0.8,1.3,0c3.1-28.6,4.8-57.4,5-86.3
					c0-8.1,0-16.2-0.2-24.3C886.1,416.2,884.8,416.2,884.8,417.1L884.8,417.1z"/>
			</g>
		</g>
	</g>
	<g>
		<path class="st33" d="M881.9,301.3l-5.3,25.6c-1.2,6,3.4,11.7,9.5,11.7h4.8l-1.3,18l27,2.6l-6.4-63L881.9,301.3z"/>
		<path d="M874.2,282.1c12.9-11.6,24.4,3.9,24.4,3.9s16.2-2.2,23.1,6.4c16.7,20.6-11.6,45-11.6,45l-11.6-9c0,0,12.9-3.9,9-15.4
			c-3.9-11.6-12.9,2.6-12.9,2.6s-5.1-16.7-12.9-14.1S860.9,294,874.2,282.1z"/>
		<g>
			<g>
				<path d="M880.9,311.6c0.1,2.7-1.7,5.3-4.2,6.1c-0.8,0.3-0.5,1.5,0.3,1.3c3.1-1,5.3-4.1,5.2-7.3
					C882.2,310.8,880.9,310.8,880.9,311.6L880.9,311.6z"/>
			</g>
		</g>
		<g>
			<g>
				<path d="M879.4,327.7c2.7,0.3,5.4-0.2,7.8-1.3c-0.3-0.1-0.6-0.3-1-0.4c0.8,2.1-0.1,4.5-2,5.6c-0.7,0.4-0.1,1.6,0.7,1.1
					c2.4-1.4,3.6-4.5,2.6-7.1c-0.2-0.4-0.6-0.6-1-0.4c-2.2,1-4.7,1.4-7.1,1.1c-0.4,0-0.7,0.3-0.7,0.7
					C878.7,327.4,879,327.7,879.4,327.7L879.4,327.7z"/>
			</g>
		</g>
	</g>
	<g>
		<path class="st5" d="M904.1,390.4l-59.4,58.7L821.4,416l57.2-56.7c3.4-3.4,8-5.3,12.8-5.3l0,0
			C910.6,354.1,919.1,378.4,904.1,390.4z"/>
		<g>
			<g>
				<path d="M890.9,360.4c9.5,4.1,14.7,15.9,11.1,25.6c-0.3,0.8,1,1.1,1.3,0.3c3.7-10.3-1.7-22.8-11.7-27.1
					C890.8,359,890.1,360.1,890.9,360.4L890.9,360.4z"/>
			</g>
		</g>
		<g>
			<g>
				<path d="M830.2,412c3.8,10,9.8,19.1,17.4,26.5c0.6,0.6,1.5-0.3,0.9-0.9c-7.5-7.3-13.4-16.2-17.1-26
					C831.2,410.8,829.9,411.2,830.2,412L830.2,412z"/>
			</g>
		</g>
		<path class="st33" d="M821.4,416l-6.3,6.2l-60.4-21.9c0,0,0.9-9.9-5.1-12.4c-6-2.6-13.3-5.1-16.3-8.1s-3,6.4,0.4,7.3
			c3.4,0.9,6.4,2.6,6.4,2.6s-8.6,3.4-12.9,1.7s-9.4-6-12.9-6c-3.4,0-9.4,1.3-7.7,2.1c1.7,0.9,6.9,2.6,8.6,4.7c0.8,1,2.3,1.6,3.8,2
			c0.4,0.1,0.3,0.7-0.1,0.7c-2.4,0-5.8,0-8-0.5c-3.9-0.9-6.9-0.9-8.1,0.9c-1.3,1.7,4.7,3,4.7,3s1.3,3,3,4.7s9.9,3.4,12.9,5.1
			s19.3,3.9,19.3,3.9l67.6,35c8.2,4.3,18.1,3.5,25.6-2l3.8-2.8L821.4,416z"/>
		<g>
			<g>
				<path d="M719.7,395.4c1.1,0.2,2.3,0.3,3.4,0.5c0.2,0,0.3,0,0.5-0.1c0.1-0.1,0.3-0.2,0.3-0.4c0.1-0.3-0.1-0.8-0.5-0.8
					c-1.1-0.2-2.3-0.3-3.4-0.5c-0.2,0-0.3,0-0.5,0.1c-0.1,0.1-0.3,0.2-0.3,0.4C719.2,394.9,719.4,395.4,719.7,395.4L719.7,395.4z"/>
			</g>
		</g>
		<g>
			<g>
				<path d="M709.3,399.6c3.6,1.8,7.5,2.7,11.4,2.8c0.8,0,0.8-1.3,0-1.3c-3.7-0.1-7.4-1-10.8-2.6
					C709.2,398.1,708.6,399.2,709.3,399.6L709.3,399.6z"/>
			</g>
		</g>
	</g>
	<g>
		<path d="M780.4,762.9c12.9,1.6,6.1,6.4,16.7,4.5c10.6-1.9,10.6-1.9,10.6-1.9l0.8-0.1l-2.4,13.6h-56.4c-2.5,0-3.1-3.5-0.8-4.3
			L780.4,762.9"/>
		<path d="M986.1,779h-54.3c-2.4,0-3.1-3.4-0.9-4.3l26.9-11.1c11.6-1.9,12.2,7.1,16.7,3.2c1.8-1.6,3.8-3.4,5.4-4.9L986.1,779z"/>
		<path class="st14" d="M960.1,706.3h-34.7l-22.4-39.6c-5.4-9.5-9-19.9-10.6-30.7l-7.7-52l-54.2,55.4l-11.7,66.9h-34.6l4.1-61.6
			c0.7-10.2,3.6-20.2,8.6-29.2l47.7-85.4h99c0,0,2.5,19.3,1.9,31.8c-0.6,12.6-7.1,83.9-7.1,83.9L960.1,706.3z"/>
		<path class="st15" d="M814.1,733.3l-5.6,32.1l-0.8,0.1c0,0,0,0-10.6,1.9c-10.6,1.9-3.9-2.9-16.7-4.5l2-29.6H814.1z"/>
		<path class="st15" d="M979.9,761.8c-1.7,1.6-3.6,3.3-5.4,4.9c-4.5,3.9-5.1-5.1-16.7-3.2l-17.1-30.2h29.1L979.9,761.8z"/>
		<polygon class="st33" points="818.8,706.3 814.1,733.3 782.3,733.3 784.2,706.3 		"/>
		<polygon class="st33" points="969.8,733.3 940.7,733.3 925.4,706.3 960.1,706.3 		"/>
		<g>
			<g>
				<path d="M874.9,533c-14.3,20.5-28.6,41.1-42.9,61.6c-3.6,5.1-7.1,10.3-10.7,15.4c-3.4,4.9-7,9.7-10.1,14.8
					c-3,4.8-4.9,9.9-5.7,15.5c-0.8,5.9-0.9,11.9-1.2,17.8c-0.7,13.9-1.4,27.9-2.1,41.8c0,0.8,1.3,0.8,1.3,0
					c0.6-12.3,1.2-24.6,1.8-36.8c0.3-6.1,0.5-12.2,1-18.3c0.4-5.8,1.6-11.4,4.4-16.5c2.8-5.1,6.4-9.8,9.7-14.6c3.5-5,7-10,10.5-15
					c7.1-10.2,14.1-20.3,21.2-30.5c8-11.5,16-22.9,23.9-34.4C876.6,533,875.4,532.3,874.9,533L874.9,533z"/>
			</g>
		</g>
		<g>
			<g>
				<path d="M865.7,532.3c-2.4,4.5-3.7,9.5-3.7,14.6c0,0.8,1.3,0.8,1.3,0c0-4.9,1.2-9.7,3.5-13.9
					C867.2,532.2,866.1,531.6,865.7,532.3L865.7,532.3z"/>
			</g>
		</g>
		<g>
			<g>
				<path d="M886,581.8c4.7-5.4,9.2-10.9,14-16.2c1.1-1.1,2.2-2,3.8-2.1c1.2-0.1,2.5,0.3,3.7,0.5c2.3,0.6,4.6,1.1,6.8,0.1
					c0.8-0.4,0.1-1.5-0.7-1.1c-2.4,1.1-5.2-0.2-7.6-0.6c-2.6-0.5-4.8,0.1-6.7,2c-2.4,2.6-4.7,5.4-7,8c-2.4,2.8-4.9,5.6-7.3,8.4
					C884.6,581.5,885.5,582.4,886,581.8L886,581.8z"/>
			</g>
		</g>
		<g>
			<g>
				<path d="M898.4,567.5c-1.9,18.6-0.9,37.4,2.8,55.8c3.6,18.3,9.9,36.1,18.6,52.6c4.9,9.4,10.7,18.3,17.1,26.7
					c0.5,0.7,1.6,0,1.1-0.7c-11.4-14.8-20.5-31.4-27-48.9c-6.5-17.4-10.5-35.7-11.8-54.2c-0.7-10.4-0.6-20.9,0.5-31.4
					C899.8,566.7,898.5,566.7,898.4,567.5L898.4,567.5z"/>
			</g>
		</g>
		<g>
			<g>
				<path d="M789.4,692.9c10.7,0,21.4,0,32.1,0c0.8,0,0.8-1.3,0-1.3c-10.7,0-21.4,0-32.1,0C788.5,691.5,788.5,692.9,789.4,692.9
					L789.4,692.9z"/>
			</g>
		</g>
		<g>
			<g>
				<path d="M920.5,693c10.7-0.6,21.4-1.1,32.1-1.7c0.8,0,0.8-1.4,0-1.3c-10.7,0.6-21.4,1.1-32.1,1.7
					C919.7,691.7,919.7,693,920.5,693L920.5,693z"/>
			</g>
		</g>
		<g>
			<g>
				<path d="M892.2,543.7c7.7-0.5,15.4-1.1,23.1-1.6c0.8-0.1,0.8-1.4,0-1.3c-7.7,0.5-15.4,1.1-23.1,1.6
					C891.4,542.4,891.4,543.7,892.2,543.7L892.2,543.7z"/>
			</g>
		</g>
		<g>
			<g>
				<path d="M934.6,543.7c2.6,0,5.1,0,7.7,0c0.8,0,0.8-1.3,0-1.3c-2.6,0-5.1,0-7.7,0C933.8,542.4,933.8,543.7,934.6,543.7
					L934.6,543.7z"/>
			</g>
		</g>
		<path d="M878.1,530.2l66.6,9.5c-0.5-5.5-1-9.5-1-9.5H878.1z"/>
	</g>
	<g>
		<path class="st14" d="M656.4,398.6h103c15.7,0,28.5-12.8,28.5-28.5l0,0c0-15.7-12.8-28.5-28.5-28.5h-103
			c-15.7,0-28.5,12.8-28.5,28.5l0,0C627.9,385.9,640.7,398.6,656.4,398.6z"/>
		<g>
			<path class="st12" d="M634.2,371.6c-0.8,0-1.5-0.7-1.5-1.5c0-0.3,0-0.6,0-0.9c0-0.8,0.7-1.5,1.6-1.4c0.8,0,1.5,0.7,1.4,1.6
				c0,0.3,0,0.5,0,0.8C635.7,371,635,371.6,634.2,371.6z"/>
		</g>
		<g>
			<path class="st12" d="M634.9,365.8c-0.1,0-0.3,0-0.4,0c-0.8-0.2-1.3-1-1.1-1.8c2.8-10.8,12.5-18.3,23.7-18.3
				c0.8,0,1.5,0.7,1.5,1.5c0,0.8-0.7,1.5-1.5,1.5c-9.8,0-18.3,6.6-20.8,16C636.2,365.4,635.6,365.8,634.9,365.8z"/>
		</g>
		<path class="st12" d="M658.2,383.6h99.4c7.5,0,13.5-6,13.5-13.5l0,0c0-7.5-6-13.5-13.5-13.5h-99.4c-7.5,0-13.5,6-13.5,13.5l0,0
			C644.7,377.6,650.8,383.6,658.2,383.6z"/>
	</g>
</g>
<g>
	<g>
		<path class="st10" d="M898.4,100.1h-28.3c-1.4,0-2.6-1.2-2.6-2.6v-1.3c0-1.4,1.2-2.6,2.6-2.6h28.3c1.4,0,2.6,1.2,2.6,2.6v1.3
			C901,99,899.8,100.1,898.4,100.1z"/>
		<path class="st10" d="M898.4,109.8h-28.3c-1.4,0-2.6-1.2-2.6-2.6v-1.3c0-1.4,1.2-2.6,2.6-2.6h28.3c1.4,0,2.6,1.2,2.6,2.6v1.3
			C901,108.6,899.8,109.8,898.4,109.8z"/>
		<path class="st10" d="M898.4,119.4h-28.3c-1.4,0-2.6-1.2-2.6-2.6v-1.3c0-1.4,1.2-2.6,2.6-2.6h28.3c1.4,0,2.6,1.2,2.6,2.6v1.3
			C901,118.3,899.8,119.4,898.4,119.4z"/>
	</g>
</g>
<g>
</g>
<g>
</g>
<g>
</g>
<g>
</g>
<g>
</g>
</svg>
