<?xml version="1.0" encoding="utf-8"?>
<!-- Generator: Adobe Illustrator 26.1.0, SVG Export Plug-In . SVG Version: 6.00 Build 0)  -->
<svg version="1.1" id="Layer_1" xmlns="http://www.w3.org/2000/svg" xmlns:xlink="http://www.w3.org/1999/xlink" x="0px" y="0px"
	 viewBox="0 0 1241 322" style="enable-background:new 0 0 1241 322;" xml:space="preserve">
<style type="text/css">
	.st0{fill:#040427;}
	.st1{fill:#284660;}
	.st2{fill:none;stroke:#76D9E4;stroke-dasharray:4,4;}
	.st3{fill:#68BFCD;}
	.st4{fill:#FCFCFA;}
	.st5{fill:#76D9E4;}
	.st6{fill-rule:evenodd;clip-rule:evenodd;fill:#68BFCD;}
</style>
<rect class="st0" width="1241" height="322"/>
<path class="st1" d="M183,127h185c6.6,0,12,5.4,12,12v59c0,6.6-5.4,12-12,12H183c-6.6,0-12-5.4-12-12v-59
	C171,132.4,176.4,127,183,127z"/>
<path class="st1" d="M183,20h185c6.6,0,12,5.4,12,12v60c0,6.6-5.4,12-12,12H183c-6.6,0-12-5.4-12-12V32C171,25.4,176.4,20,183,20z"
	/>
<path class="st1" d="M725,52h116c6.6,0,12,5.4,12,12v43c0,6.6-5.4,12-12,12H725c-6.6,0-12-5.4-12-12V64C713,57.4,718.4,52,725,52z"
	/>
<path class="st2" d="M723,42.5h120c9.7,0,17.5,7.8,17.5,17.5v201c0,9.7-7.8,17.5-17.5,17.5H723c-9.7,0-17.5-7.8-17.5-17.5V60
	C705.5,50.3,713.3,42.5,723,42.5z"/>
<path class="st3" d="M971.5,8.5L1004,41c4.7,4.7,4.7,12.3,0,17l-32.5,32.5c-4.7,4.7-12.3,4.7-17,0L922,58c-4.7-4.7-4.7-12.3,0-17
	l32.5-32.5C959.2,3.8,966.8,3.8,971.5,8.5z"/>
<path class="st3" d="M971.5,118.5L1005,152c4.7,4.7,4.7,12.3,0,17l-33.5,33.5c-4.7,4.7-12.3,4.7-17,0L921,169
	c-4.7-4.7-4.7-12.3,0-17l33.5-33.5C959.2,113.8,966.8,113.8,971.5,118.5z"/>
<path class="st3" d="M971.5,231.5L1004,264c4.7,4.7,4.7,12.3,0,17l-32.5,32.5c-4.7,4.7-12.3,4.7-17,0L922,281
	c-4.7-4.7-4.7-12.3,0-17l32.5-32.5C959.2,226.8,966.8,226.8,971.5,231.5z"/>
<path class="st3" d="M1085.7,8.5l32.5,32.5c4.7,4.7,4.7,12.3,0,17l-32.5,32.5c-4.7,4.7-12.3,4.7-17,0L1036.2,58
	c-4.7-4.7-4.7-12.3,0-17l32.5-32.5C1073.4,3.8,1081,3.8,1085.7,8.5z"/>
<path class="st3" d="M1085.7,119.5l32.5,32.5c4.7,4.7,4.7,12.3,0,17l-32.5,32.5c-4.7,4.7-12.3,4.7-17,0l-32.5-32.5
	c-4.7-4.7-4.7-12.3,0-17l32.5-32.5C1073.4,114.8,1081,114.8,1085.7,119.5z"/>
<path class="st3" d="M1085.7,231.5l32.5,32.5c4.7,4.7,4.7,12.3,0,17l-32.5,32.5c-4.7,4.7-12.3,4.7-17,0l-32.5-32.5
	c-4.7-4.7-4.7-12.3,0-17l32.5-32.5C1073.4,226.8,1081,226.8,1085.7,231.5z"/>
<path class="st3" d="M1199.7,8.5l32.5,32.5c4.7,4.7,4.7,12.3,0,17l-32.5,32.5c-4.7,4.7-12.3,4.7-17,0L1150.2,58
	c-4.7-4.7-4.7-12.3,0-17l32.5-32.5C1187.4,3.8,1195,3.8,1199.7,8.5z"/>
<path class="st3" d="M1199.7,119.5l32.5,32.5c4.7,4.7,4.7,12.3,0,17l-32.5,32.5c-4.7,4.7-12.3,4.7-17,0l-32.5-32.5
	c-4.7-4.7-4.7-12.3,0-17l32.5-32.5C1187.4,114.8,1195,114.8,1199.7,119.5z"/>
<path class="st3" d="M1199.7,231.5l32.5,32.5c4.7,4.7,4.7,12.3,0,17l-32.5,32.5c-4.7,4.7-12.3,4.7-17,0l-32.5-32.5
	c-4.7-4.7-4.7-12.3,0-17l32.5-32.5C1187.4,226.8,1195,226.8,1199.7,231.5z"/>
<path class="st1" d="M725,127h116c6.6,0,12,5.4,12,12v119c0,6.6-5.4,12-12,12H725c-6.6,0-12-5.4-12-12V139
	C713,132.4,718.4,127,725,127z"/>
<path class="st1" d="M183,233h185c6.6,0,12,5.4,12,12v60c0,6.6-5.4,12-12,12H183c-6.6,0-12-5.4-12-12v-60
	C171,238.4,176.4,233,183,233z"/>
<circle class="st2" cx="557" cy="161" r="132.5"/>
<circle class="st1" cx="557.5" cy="160.5" r="125.5"/>
<path class="st4" d="M463.2,123.1c0-4-2.4-4.8-4.9-4.8h-2.5v9.7h2.6C460.9,128,463.2,127,463.2,123.1z M460.8,123.1
	c0,2.5-0.9,3.2-2.2,3.2h-0.5V120h0.5C459.9,120,460.8,120.5,460.8,123.1z M466.5,124.9h4.8c0-0.2,0-0.5,0-0.8c0-2.4-1.4-3.8-3.5-3.8
	c-2.3,0-3.6,1.8-3.6,4c0,2.3,1.3,3.9,3.9,3.9c1.3,0,2.3-0.4,3-1l-0.9-1.2c-0.6,0.4-1.2,0.6-1.9,0.6
	C467.3,126.6,466.6,126.2,466.5,124.9z M467.8,121.8c0.9,0,1.3,0.7,1.3,1.8h-2.7C466.5,122.4,467,121.8,467.8,121.8z M474.8,124.9
	h4.8c0-0.2,0-0.5,0-0.8c0-2.4-1.4-3.8-3.5-3.8c-2.3,0-3.6,1.8-3.6,4c0,2.3,1.3,3.9,3.9,3.9c1.3,0,2.3-0.4,3-1l-0.9-1.2
	c-0.6,0.4-1.2,0.6-1.9,0.6C475.7,126.6,475,126.2,474.8,124.9z M476.2,121.8c0.9,0,1.3,0.7,1.3,1.8h-2.7
	C474.9,122.4,475.4,121.8,476.2,121.8z M485.4,120.3c-0.7,0-1.5,0.3-2.1,1.1l-0.1-0.8h-2v10.5l2.2-0.2v-3.4c0.4,0.5,1,0.8,1.8,0.8
	c1.8,0,2.9-1.7,2.9-4C488.2,121.8,487.4,120.3,485.4,120.3z M484.8,122c0.7,0,1.1,0.5,1.1,2.3c0,1.7-0.5,2.3-1.2,2.3
	c-0.5,0-0.8-0.2-1.1-0.7v-3.1C483.9,122.3,484.2,122,484.8,122z M491.9,117.4l-2.2,0.2V128h2.2v-5.1c0.4-0.6,0.8-0.9,1.3-0.9
	c0.5,0,0.7,0.3,0.7,1.2v4.8h2.2v-5.5c0-1.4-0.7-2.2-2-2.2c-0.8,0-1.6,0.3-2.2,1V117.4z M504.4,125.9v-2.9c0-1.7-1-2.6-3.2-2.6
	c-0.8,0-1.9,0.2-2.9,0.6l0.5,1.5c0.7-0.3,1.6-0.4,2-0.4c1,0,1.5,0.4,1.5,1.1v0.3h-1c-2.3,0-3.6,0.9-3.6,2.5c0,1.4,1,2.3,2.5,2.3
	c0.9,0,1.9-0.3,2.4-1c0.3,0.6,1,0.9,1.8,1l0.5-1.5C504.5,126.6,504.4,126.4,504.4,125.9z M500.9,126.7c-0.6,0-1-0.3-1-0.9
	c0-0.7,0.6-1.1,1.8-1.1h0.5v1.2C502,126.4,501.4,126.7,500.9,126.7z M513.5,120.6h-2.2l-1.5,5.7l-1.4-5.7h-2.4l2.5,7.4h2.6
	L513.5,120.6z M516.8,124.9h4.8c0-0.2,0-0.5,0-0.8c0-2.4-1.4-3.8-3.5-3.8c-2.3,0-3.6,1.8-3.6,4c0,2.3,1.3,3.9,3.9,3.9
	c1.3,0,2.3-0.4,3-1l-0.9-1.2c-0.6,0.4-1.2,0.6-1.9,0.6C517.7,126.6,517,126.2,516.8,124.9z M518.2,121.8c0.9,0,1.3,0.7,1.3,1.8h-2.7
	C516.9,122.4,517.4,121.8,518.2,121.8z M523.3,128h2.2v-5.2c0.4-0.5,0.8-0.9,1.3-0.9c0.5,0,0.7,0.3,0.7,1.2v4.8h2.2v-5.5
	c0-1.4-0.8-2.2-2-2.2c-1,0-1.7,0.4-2.3,1.1l-0.2-0.9h-1.9V128z M547.1,123.1c0-3.2-1.2-5.1-3.8-5.1c-2.5,0-3.8,2-3.8,5.1
	c0,3.2,1.2,5.1,3.6,5.1c1.7,0,2.3,0.8,2.9,2.2l1.9-0.6c-0.5-1.6-1.4-2.1-2.9-2.3C546.6,126.7,547.1,125,547.1,123.1z M544.8,123.1
	c0,2.4-0.3,3.4-1.4,3.4c-1.1,0-1.4-1-1.4-3.4c0-2.4,0.3-3.4,1.4-3.4C544.5,119.7,544.8,120.8,544.8,123.1z M550.7,120.6h-2.2v5.4
	c0,1.4,0.7,2.3,2.1,2.3c0.9,0,1.8-0.4,2.3-1.1l0.1,0.9h1.9v-7.4h-2.2v5.2c-0.3,0.5-0.8,0.8-1.3,0.8c-0.5,0-0.8-0.2-0.8-1V120.6z
	 M558.8,124.9h4.8c0-0.2,0-0.5,0-0.8c0-2.4-1.4-3.8-3.5-3.8c-2.3,0-3.6,1.8-3.6,4c0,2.3,1.3,3.9,3.9,3.9c1.3,0,2.3-0.4,3-1l-0.9-1.2
	c-0.6,0.4-1.2,0.6-1.9,0.6C559.6,126.6,558.9,126.2,558.8,124.9z M560.2,121.8c0.9,0,1.3,0.7,1.3,1.8h-2.7
	C558.9,122.4,559.4,121.8,560.2,121.8z M570.9,120.3c-1.2,0-2,0.6-2.5,1.9l-0.4-1.7h-2.7v1.5h1v4.5h-1v1.5h4.7v-1.5h-1.5v-2.1
	c0.3-1.1,1-1.9,1.8-2.1v1.4h1.4l0.4-3.1C571.8,120.4,571.4,120.3,570.9,120.3z M580.7,120.6h-2.3l-1.6,6l-1.4-6h-2.3l2.4,7.4h0.8
	c-0.4,1-0.9,1.4-2.4,1.6l0.3,1.6c2.3-0.1,3.5-1.1,4.2-3.1L580.7,120.6z M593.1,119.9h3.8l0.2-1.6h-6.3v9.7h6.3v-1.7h-4v-2.5h3.4
	v-1.6h-3.4V119.9z M598.8,128h2.2v-5.2c0.4-0.5,0.8-0.9,1.3-0.9c0.5,0,0.7,0.3,0.7,1.2v4.8h2.2v-5.5c0-1.4-0.8-2.2-2-2.2
	c-1,0-1.7,0.4-2.3,1.1l-0.2-0.9h-1.9V128z M613.8,119.4c-0.9,0.5-1.8,1-3.5,1c-1.9,0-3.3,1-3.3,2.7c0,1,0.4,1.6,1.3,2.1
	c-0.5,0.3-0.8,0.9-0.8,1.4c0,0.8,0.7,1.5,2.3,1.5h1.2c0.7,0,1.1,0.3,1.1,0.7c0,0.5-0.3,0.9-1.7,0.9c-1.4,0-1.7-0.3-1.7-0.9h-2
	c0,1.5,0.7,2.4,3.6,2.4c2.6,0,4-0.9,4-2.5c0-1.2-1.1-2.2-2.8-2.2h-1.2c-0.7,0-0.8-0.2-0.8-0.4c0-0.2,0.1-0.3,0.2-0.4
	c0.3,0.1,0.5,0.1,0.9,0.1c1.9,0,3.1-1.1,3.1-2.5c0-1-0.5-1.5-1.4-1.9c0.9,0,1.6-0.1,2.1-0.3L613.8,119.4z M610.4,121.8
	c0.7,0,1.1,0.4,1.1,1.2c0,0.9-0.4,1.3-1.1,1.3c-0.7,0-1.1-0.5-1.1-1.3C609.3,122.2,609.7,121.8,610.4,121.8z M618.8,116.7
	c-0.8,0-1.3,0.5-1.3,1.2c0,0.7,0.5,1.2,1.3,1.2c0.8,0,1.3-0.5,1.3-1.2C620.1,117.2,619.6,116.7,618.8,116.7z M620.2,120.6h-4.2v1.5
	h2v4.4h-2.1v1.5h6.2v-1.5h-1.9V120.6z M624,128h2.2v-5.2c0.4-0.5,0.8-0.9,1.3-0.9c0.5,0,0.7,0.3,0.7,1.2v4.8h2.2v-5.5
	c0-1.4-0.8-2.2-2-2.2c-1,0-1.7,0.4-2.3,1.1l-0.2-0.9H624V128z M634.3,124.9h4.8c0-0.2,0-0.5,0-0.8c0-2.4-1.4-3.8-3.5-3.8
	c-2.3,0-3.6,1.8-3.6,4c0,2.3,1.3,3.9,3.9,3.9c1.3,0,2.3-0.4,3-1L638,126c-0.6,0.4-1.2,0.6-1.9,0.6
	C635.2,126.6,634.5,126.2,634.3,124.9z M635.7,121.8c0.9,0,1.3,0.7,1.3,1.8h-2.7C634.4,122.4,634.9,121.8,635.7,121.8z"/>
<path class="st5" d="M743.8,72.4h-5.5v1h2.1V81h-2.1v1h5.5v-1h-2.1v-7.7h2.1V72.4z M746.6,82h1.2v-5.4c0.4-0.6,1.1-1.2,2-1.2
	c1.1,0,1.3,0.6,1.3,2.1V82h1.2v-5.3c0-1.4-0.6-2.2-2.1-2.2c-0.9,0-1.8,0.4-2.4,1.2l-0.1-1h-1V82z M760.9,81.6l-0.5-0.8
	c-0.4,0.2-0.9,0.4-1.4,0.4c-1,0-1.4-0.4-1.4-1.2v-4.4h2.4l0.2-0.9h-2.6v-1.8l-1.2,0.1v1.7h-1.7v0.9h1.7v4.4c0,1.3,0.9,2.2,2.5,2.2
	C759.6,82.2,760.4,82,760.9,81.6z M764.4,78.7h5c0-0.2,0-0.4,0-0.6c0-2.2-1.1-3.6-3-3.6c-2,0-3.2,1.6-3.2,3.8c0,2.3,1.2,3.8,3.4,3.8
	c0.9,0,1.8-0.3,2.5-0.9l-0.5-0.8c-0.7,0.4-1.2,0.7-2,0.7C765.4,81.2,764.4,80.4,764.4,78.7z M766.3,75.4c1.1,0,1.8,0.8,1.8,2.4h-3.8
	C764.5,76.2,765.2,75.4,766.3,75.4z M776.8,74.5c-1.3,0-2.1,0.7-2.6,1.9l-0.2-1.8h-2v0.9h1.2v5.6h-1.2V82h3.8v-0.9h-1.5V78
	c0.5-1.6,1.3-2.4,2.4-2.4h0.1v1.6h1l0.2-2.5C777.5,74.5,777.2,74.5,776.8,74.5z M785.5,80.4v-3.5c0-1.5-0.9-2.4-2.8-2.4
	c-0.7,0-1.5,0.1-2.4,0.5l0.3,0.9c0.8-0.3,1.4-0.4,1.9-0.4c1.1,0,1.8,0.4,1.8,1.5v0.6h-1.1c-2.2,0-3.4,0.9-3.4,2.4
	c0,1.4,0.9,2.3,2.4,2.3c1,0,1.8-0.3,2.3-1c0.2,0.7,0.7,1,1.3,1.1l0.3-0.8C785.7,81.2,785.5,81,785.5,80.4z M782.4,81.3
	c-1,0-1.4-0.5-1.4-1.4c0-1,0.6-1.5,2.2-1.5h1.1v1.9C783.9,80.9,783.2,81.3,782.4,81.3z M791.9,81.1c-1.3,0-2.2-0.8-2.2-2.8
	c0-1.9,0.9-2.9,2.2-2.9c0.7,0,1.3,0.2,1.9,0.6l0.6-0.8c-0.7-0.6-1.5-0.9-2.5-0.9c-2.2,0-3.5,1.7-3.5,3.9c0,2.3,1.3,3.8,3.5,3.8
	c0.9,0,1.8-0.3,2.5-0.9l-0.6-0.8C793.3,80.9,792.7,81.1,791.9,81.1z M802.9,81.6l-0.5-0.8c-0.4,0.2-0.9,0.4-1.4,0.4
	c-1,0-1.4-0.4-1.4-1.2v-4.4h2.4l0.2-0.9h-2.6v-1.8l-1.2,0.1v1.7h-1.7v0.9h1.7v4.4c0,1.3,0.9,2.2,2.5,2.2
	C801.6,82.2,802.3,82,802.9,81.6z M808.2,71.2c-0.5,0-0.8,0.3-0.8,0.8c0,0.5,0.3,0.8,0.8,0.8c0.5,0,0.9-0.3,0.9-0.8
	C809.1,71.5,808.7,71.2,808.2,71.2z M809.1,74.6h-3.4v0.9h2.2v5.5h-2.3V82h5.5v-0.9h-2.1V74.6z M819.9,74.6h-1.2l-2.1,6.3l-2.1-6.3
	h-1.3l2.7,7.4h1.4L819.9,74.6z M823.1,78.7h5c0-0.2,0-0.4,0-0.6c0-2.2-1.1-3.6-3-3.6c-2,0-3.2,1.6-3.2,3.8c0,2.3,1.2,3.8,3.4,3.8
	c0.9,0,1.8-0.3,2.5-0.9l-0.5-0.8c-0.7,0.4-1.2,0.7-2,0.7C824.1,81.2,823.2,80.4,823.1,78.7z M825.1,75.4c1.1,0,1.8,0.8,1.8,2.4h-3.8
	C823.2,76.2,824,75.4,825.1,75.4z M731.8,96.3c0-1.8-1.3-2.5-2.8-2.9c-1.8-0.5-2.4-1-2.4-1.8c0-1,0.9-1.4,1.9-1.4
	c0.8,0,1.6,0.3,2.3,0.9l0.7-0.8c-0.8-0.7-1.8-1.1-3.1-1.1c-1.8,0-3.1,1-3.1,2.5c0,1.5,1.2,2.2,3.1,2.8c1.7,0.5,2.1,0.9,2.1,1.9
	c0,1.2-1.1,1.8-2.2,1.8s-2-0.4-2.7-1l-0.7,0.8c0.8,0.8,2,1.2,3.4,1.2C730.5,99.2,731.8,98,731.8,96.3z M735,95.7h5
	c0-0.2,0-0.4,0-0.6c0-2.2-1.1-3.6-3-3.6c-2,0-3.2,1.6-3.2,3.8c0,2.3,1.2,3.8,3.4,3.8c0.9,0,1.8-0.3,2.5-0.9l-0.5-0.8
	c-0.7,0.4-1.2,0.7-2,0.7C736,98.2,735,97.4,735,95.7z M737,92.4c1.1,0,1.8,0.8,1.8,2.4H735C735.1,93.2,735.9,92.4,737,92.4z
	 M744.9,98.2c-0.9,0-1.7-0.3-2.2-0.8l-0.7,0.8c0.6,0.5,1.5,1,2.9,1c1.6,0,3.1-0.6,3.1-2.2c0-1.4-1-1.9-2.4-2.3
	c-1.5-0.4-1.9-0.6-1.9-1.3c0-0.6,0.4-1,1.6-1c1,0,1.6,0.3,2.1,0.7l0.5-0.8c-0.6-0.4-1.5-0.8-2.7-0.8c-1.7,0-2.8,0.8-2.8,2
	c0,1.3,1,1.8,2.5,2.1c1.6,0.4,1.8,0.7,1.8,1.4C746.8,97.7,746.1,98.2,744.9,98.2z M753.3,98.2c-0.9,0-1.7-0.3-2.2-0.8l-0.7,0.8
	c0.6,0.5,1.5,1,2.9,1c1.6,0,3.1-0.6,3.1-2.2c0-1.4-1-1.9-2.4-2.3c-1.5-0.4-1.9-0.6-1.9-1.3c0-0.6,0.4-1,1.6-1c1,0,1.6,0.3,2.1,0.7
	l0.5-0.8c-0.6-0.4-1.5-0.8-2.7-0.8c-1.7,0-2.8,0.8-2.8,2c0,1.3,1,1.8,2.5,2.1c1.6,0.4,1.8,0.7,1.8,1.4
	C755.2,97.7,754.5,98.2,753.3,98.2z M762,88.2c-0.5,0-0.8,0.3-0.8,0.8c0,0.5,0.3,0.8,0.8,0.8c0.5,0,0.9-0.3,0.9-0.8
	C762.9,88.5,762.5,88.2,762,88.2z M763,91.6h-3.4v0.9h2.2v5.5h-2.3V99h5.5v-0.9H763V91.6z M770.4,91.5c-2.1,0-3.2,1.6-3.2,3.8
	c0,2.3,1.1,3.8,3.2,3.8c2.1,0,3.2-1.6,3.2-3.8C773.6,93,772.5,91.5,770.4,91.5z M770.4,92.4c1.3,0,1.9,0.9,1.9,2.9
	c0,2-0.6,2.9-1.9,2.9s-1.9-0.9-1.9-2.9S769.2,92.4,770.4,92.4z M776,99h1.2v-5.4c0.4-0.6,1.1-1.2,2-1.2c1.1,0,1.3,0.6,1.3,2.1V99
	h1.2v-5.3c0-1.4-0.6-2.2-2.1-2.2c-0.9,0-1.8,0.4-2.4,1.2l-0.1-1h-1V99z M793.1,100.4l6-12.3l-0.9-0.4l-6,12.3L793.1,100.4z
	 M815.7,92.1c0-1.8-1.2-2.7-3.6-2.7h-2.5V99h1.2v-4.1h1.3l2.6,4.1h1.5l-2.9-4.3C814.7,94.4,815.7,93.5,815.7,92.1z M814.4,92.1
	c0,1.3-0.8,1.8-2.2,1.8h-1.4v-3.6h1.4C813.7,90.3,814.4,90.8,814.4,92.1z M819.5,90.4h4.1l0.1-1h-5.5V99h5.6v-1h-4.4v-3.4h3.6v-1
	h-3.6V90.4z M832.8,92.3c0-2-1.4-3-3.7-3h-2.5V99h1.2v-3.6h1.2C831.2,95.4,832.8,94.6,832.8,92.3z M831.5,92.3c0,1.7-1,2.1-2.3,2.1
	h-1.4v-4.1h1.4C830.5,90.3,831.5,90.9,831.5,92.3z M835.3,99h5.5l0.2-1.1h-4.4v-8.6h-1.2V99z"/>
<path class="st5" d="M738.1,137.2c-2.2,0-4.1,1.7-4.1,5s1.8,5,4.2,5c1.4,0,2.3-0.5,2.9-1.1l-0.6-0.8c-0.5,0.4-1.2,0.8-2.2,0.8
	c-1.7,0-2.9-1.1-2.9-3.9c0-2.9,1.4-3.9,2.9-3.9c0.7,0,1.4,0.2,2,0.7l0.7-0.8C740.2,137.5,739.4,137.2,738.1,137.2z M745.8,136.7
	h-3.4v0.9h2.3v7.5c0,1.3,0.9,2,2.2,2c0.8,0,1.4-0.2,1.8-0.4l-0.3-0.9c-0.4,0.2-0.8,0.3-1.2,0.3c-0.7,0-1.2-0.3-1.2-1V136.7z
	 M754.1,136.2c-0.5,0-0.8,0.4-0.8,0.8s0.3,0.8,0.8,0.8c0.5,0,0.9-0.4,0.9-0.8S754.6,136.2,754.1,136.2z M755.1,139.6h-3.4v0.9h2.2
	v5.5h-2.3v0.9h5.5v-0.9h-2.1V139.6z M760.7,143.7h5c0-0.2,0-0.4,0-0.6c0-2.2-1.1-3.6-3-3.6c-2,0-3.2,1.6-3.2,3.8
	c0,2.3,1.2,3.8,3.4,3.8c0.9,0,1.8-0.3,2.5-0.9l-0.5-0.8c-0.7,0.4-1.2,0.7-2,0.7C761.7,146.2,760.7,145.4,760.7,143.7z M762.6,140.4
	c1.1,0,1.8,0.8,1.8,2.4h-3.8C760.8,141.2,761.5,140.4,762.6,140.4z M768.1,147h1.2v-5.4c0.4-0.6,1.1-1.2,2-1.2
	c1.1,0,1.3,0.6,1.3,2.1v4.5h1.2v-5.3c0-1.4-0.6-2.2-2.1-2.2c-0.9,0-1.8,0.4-2.4,1.2l-0.1-1h-1V147z M782.4,146.6l-0.5-0.8
	c-0.4,0.2-0.9,0.3-1.4,0.3c-1,0-1.4-0.4-1.4-1.2v-4.4h2.4l0.2-0.9h-2.6v-1.8l-1.2,0.1v1.7h-1.7v0.9h1.7v4.4c0,1.3,0.9,2.2,2.5,2.2
	C781.1,147.2,781.9,147,782.4,146.6z M798,144.5l0.8,2.5h1.3l-3.1-9.6h-1.5l-3.2,9.6h1.2l0.8-2.5H798z M794.5,143.5l1.6-5.1l1.6,5.1
	H794.5z M808.1,140.3c0-2-1.4-3-3.7-3h-2.4v9.6h1.2v-3.6h1.2C806.5,143.4,808.1,142.6,808.1,140.3z M806.8,140.3
	c0,1.7-1,2.1-2.3,2.1h-1.4v-4.1h1.4C805.8,138.3,806.8,138.9,806.8,140.3z M815.6,137.4h-5.5v1h2.1v7.7h-2.1v1h5.5v-1h-2.1v-7.7h2.1
	V137.4z M821,146.2c-0.9,0-1.7-0.3-2.2-0.8l-0.7,0.8c0.6,0.5,1.5,1,2.9,1c1.6,0,3.1-0.6,3.1-2.2c0-1.4-1-1.9-2.4-2.3
	c-1.5-0.4-1.9-0.6-1.9-1.3c0-0.6,0.4-1,1.6-1c1,0,1.6,0.3,2.1,0.7l0.5-0.8c-0.6-0.4-1.5-0.8-2.7-0.8c-1.7,0-2.8,0.8-2.8,2
	c0,1.3,1,1.8,2.5,2.1c1.6,0.4,1.8,0.7,1.8,1.4C822.8,145.7,822.1,146.2,821,146.2z M762.2,154.2c-1.6,0-2.6,1.1-2.6,2.3
	c0,0.9,0.4,1.7,1.7,2v0c-1.4,0.3-2.2,1.2-2.2,2.7s0.9,2.9,3.1,2.9c1.6,0,2.5-0.8,2.9-1.3v-3.8h1.3v-0.9h-3.9c-1,0-1.7-0.7-1.7-1.6
	c0-0.8,0.5-1.4,1.5-1.4c0.7,0,1.2,0.3,1.7,0.8l0.7-0.6C763.8,154.4,763.1,154.2,762.2,154.2z M764,159.1v3.4c-0.4,0.5-1,0.7-1.8,0.7
	c-1.4,0-2-1-2-2c0-1,0.6-2.2,2.1-2.2H764z M781.2,161.5l0.8,2.5h1.3l-3.1-9.6h-1.5l-3.1,9.6h1.2l0.8-2.5H781.2z M777.7,160.5
	l1.6-5.1l1.6,5.1H777.7z M788.2,156.5c-0.9,0-1.7,0.4-2.2,1.2l-0.1-1h-1V167l1.2-0.1v-3.5c0.5,0.6,1.1,0.8,2,0.8
	c1.9,0,2.8-1.6,2.8-3.9C790.9,158,790.2,156.5,788.2,156.5z M787.9,157.4c1.2,0,1.7,1,1.7,2.9c0,2-0.6,2.9-1.8,2.9
	c-0.7,0-1.3-0.3-1.7-0.9v-3.7C786.5,158,787.1,157.4,787.9,157.4z M796.6,156.5c-0.9,0-1.7,0.4-2.2,1.2l-0.1-1h-1V167l1.2-0.1v-3.5
	c0.5,0.6,1.1,0.8,2,0.8c1.9,0,2.8-1.6,2.8-3.9C799.3,158,798.6,156.5,796.6,156.5z M796.3,157.4c1.2,0,1.7,1,1.7,2.9
	c0,2-0.6,2.9-1.8,2.9c-0.7,0-1.3-0.3-1.7-0.9v-3.7C794.9,158,795.5,157.4,796.3,157.4z M804.2,163.2c-0.9,0-1.7-0.3-2.2-0.8
	l-0.7,0.8c0.6,0.5,1.5,1,2.9,1c1.6,0,3.1-0.6,3.1-2.2c0-1.4-1-1.9-2.4-2.3c-1.5-0.4-1.9-0.6-1.9-1.3c0-0.6,0.4-1,1.6-1
	c1,0,1.6,0.3,2.1,0.7l0.5-0.8c-0.6-0.4-1.5-0.8-2.7-0.8c-1.7,0-2.8,0.8-2.8,2c0,1.3,1,1.8,2.5,2.1c1.6,0.4,1.8,0.7,1.8,1.4
	C806,162.7,805.3,163.2,804.2,163.2z"/>
<path class="st5" d="M462.5,144.1c0-1.8-1.2-2.7-3.6-2.7h-2.5v9.6h1.2v-4.1h1.3l2.6,4.1h1.5l-2.9-4.3
	C461.5,146.4,462.5,145.5,462.5,144.1z M461.2,144.1c0,1.3-0.8,1.8-2.2,1.8h-1.4v-3.6h1.4C460.5,142.3,461.2,142.8,461.2,144.1z
	 M465.7,147.7h5c0-0.2,0-0.4,0-0.6c0-2.2-1.1-3.6-3-3.6c-2,0-3.2,1.6-3.2,3.8c0,2.3,1.2,3.8,3.4,3.8c0.9,0,1.8-0.3,2.5-0.9l-0.5-0.8
	c-0.7,0.4-1.2,0.7-2,0.7C466.7,150.2,465.8,149.4,465.7,147.7z M467.7,144.4c1.1,0,1.8,0.8,1.8,2.4h-3.8
	C465.8,145.2,466.6,144.4,467.7,144.4z M478.5,149.4v-3.5c0-1.5-0.9-2.4-2.8-2.4c-0.7,0-1.5,0.1-2.4,0.5l0.3,0.9
	c0.8-0.3,1.4-0.4,1.9-0.4c1.1,0,1.8,0.4,1.8,1.5v0.6h-1.1c-2.2,0-3.4,0.9-3.4,2.4c0,1.4,0.9,2.3,2.4,2.3c1,0,1.8-0.4,2.3-1
	c0.2,0.7,0.7,1,1.3,1.1l0.3-0.8C478.7,150.2,478.5,150,478.5,149.4z M475.4,150.3c-1,0-1.4-0.5-1.4-1.4c0-1,0.6-1.5,2.2-1.5h1.1v1.9
	C476.9,149.9,476.2,150.3,475.4,150.3z M484.5,140.7H481v0.9h2.3v7.5c0,1.3,0.9,2,2.2,2c0.8,0,1.4-0.2,1.8-0.4l-0.3-0.9
	c-0.4,0.2-0.8,0.3-1.2,0.3c-0.7,0-1.2-0.3-1.2-1V140.7z M490.3,147.1h4.9v-1h-4.9V147.1z M504.2,150.6l-0.5-0.8
	c-0.4,0.2-0.9,0.3-1.4,0.3c-1,0-1.4-0.4-1.4-1.2v-4.4h2.4l0.2-0.9h-2.6v-1.8l-1.2,0.1v1.7h-1.7v0.9h1.7v4.4c0,1.3,0.9,2.2,2.5,2.2
	C503,151.2,503.7,151,504.2,150.6z M509.6,140.2c-0.5,0-0.8,0.4-0.8,0.8s0.3,0.8,0.8,0.8c0.5,0,0.9-0.4,0.9-0.8
	S510.1,140.2,509.6,140.2z M510.5,143.6h-3.4v0.9h2.2v5.5h-2.3v0.9h5.5v-0.9h-2.1V143.6z M520,143.5c-0.7,0-1.2,0.4-1.6,1
	c-0.2-0.8-0.8-1-1.3-1c-0.7,0-1.2,0.4-1.6,1l-0.1-0.9h-0.9v7.4h1.1v-5.7c0.4-0.6,0.8-0.9,1.3-0.9c0.5,0,0.6,0.4,0.6,1.3v5.3h1.1
	v-5.7c0.4-0.6,0.8-0.9,1.3-0.9c0.5,0,0.6,0.4,0.6,1.3v5.3h1.1v-5.5C521.4,143.8,520.7,143.5,520,143.5z M524.5,147.7h5
	c0-0.2,0-0.4,0-0.6c0-2.2-1.1-3.6-3-3.6c-2,0-3.2,1.6-3.2,3.8c0,2.3,1.2,3.8,3.4,3.8c0.9,0,1.8-0.3,2.5-0.9l-0.5-0.8
	c-0.7,0.4-1.2,0.7-2,0.7C525.5,150.2,524.5,149.4,524.5,147.7z M526.5,144.4c1.1,0,1.8,0.8,1.8,2.4h-3.8
	C524.6,145.2,525.4,144.4,526.5,144.4z M534.8,148.7c-0.6,0-1.1,0.5-1.1,1.1c0,0.4,0.2,0.7,0.4,0.9l-0.7,2.8h1.1l1.1-2.6
	c0.2-0.4,0.3-0.8,0.3-1.1C535.9,149.2,535.4,148.7,534.8,148.7z M554.6,150.6l-0.5-0.8c-0.4,0.2-0.9,0.3-1.4,0.3
	c-1,0-1.4-0.4-1.4-1.2v-4.4h2.4l0.2-0.9h-2.6v-1.8l-1.2,0.1v1.7h-1.7v0.9h1.7v4.4c0,1.3,0.9,2.2,2.5,2.2
	C553.3,151.2,554.1,151,554.6,150.6z M559.9,140.2c-0.5,0-0.8,0.4-0.8,0.8s0.3,0.8,0.8,0.8c0.5,0,0.9-0.4,0.9-0.8
	S560.5,140.2,559.9,140.2z M560.9,143.6h-3.4v0.9h2.2v5.5h-2.3v0.9h5.5v-0.9h-2.1V143.6z M570.4,143.5c-0.7,0-1.2,0.4-1.6,1
	c-0.2-0.8-0.8-1-1.3-1c-0.7,0-1.2,0.4-1.6,1l-0.1-0.9h-0.9v7.4h1.1v-5.7c0.4-0.6,0.8-0.9,1.3-0.9c0.5,0,0.6,0.4,0.6,1.3v5.3h1.1
	v-5.7c0.4-0.6,0.8-0.9,1.3-0.9c0.5,0,0.6,0.4,0.6,1.3v5.3h1.1v-5.5C571.8,143.8,571.1,143.5,570.4,143.5z M574.9,147.7h5
	c0-0.2,0-0.4,0-0.6c0-2.2-1.1-3.6-3-3.6c-2,0-3.2,1.6-3.2,3.8c0,2.3,1.2,3.8,3.4,3.8c0.9,0,1.8-0.3,2.5-0.9l-0.5-0.8
	c-0.7,0.4-1.2,0.7-2,0.7C575.9,150.2,574.9,149.4,574.9,147.7z M576.8,144.4c1.1,0,1.8,0.8,1.8,2.4h-3.8
	C575,145.2,575.8,144.4,576.8,144.4z M582.7,147.1h4.9v-1h-4.9V147.1z M593.2,150.2c-0.9,0-1.7-0.3-2.2-0.8l-0.7,0.8
	c0.6,0.5,1.5,1,2.9,1c1.6,0,3.1-0.6,3.1-2.2c0-1.4-1-1.9-2.4-2.3c-1.5-0.4-1.9-0.6-1.9-1.3c0-0.6,0.4-1,1.6-1c1,0,1.6,0.3,2.1,0.7
	l0.5-0.8c-0.6-0.4-1.5-0.8-2.7-0.8c-1.7,0-2.8,0.8-2.8,2c0,1.3,1,1.8,2.5,2.1c1.6,0.4,1.8,0.7,1.8,1.4
	C595.1,149.7,594.4,150.2,593.2,150.2z M600,147.7h5c0-0.2,0-0.4,0-0.6c0-2.2-1.1-3.6-3-3.6c-2,0-3.2,1.6-3.2,3.8
	c0,2.3,1.2,3.8,3.4,3.8c0.9,0,1.8-0.3,2.5-0.9l-0.5-0.8c-0.7,0.4-1.2,0.7-2,0.7C601.1,150.2,600.1,149.4,600,147.7z M602,144.4
	c1.1,0,1.8,0.8,1.8,2.4H600C600.1,145.2,600.9,144.4,602,144.4z M612.5,143.5c-1.3,0-2.1,0.7-2.6,1.9l-0.2-1.8h-2v0.9h1.2v5.6h-1.2
	v0.9h3.8v-0.9h-1.5V147c0.5-1.6,1.3-2.4,2.4-2.4h0.1v1.6h1l0.2-2.5C613.2,143.5,612.9,143.5,612.5,143.5z M618.7,140.2
	c-0.5,0-0.8,0.4-0.8,0.8s0.3,0.8,0.8,0.8c0.5,0,0.9-0.4,0.9-0.8S619.2,140.2,618.7,140.2z M619.6,143.6h-3.4v0.9h2.2v5.5h-2.3v0.9
	h5.5v-0.9h-2.1V143.6z M625.2,147.7h5c0-0.2,0-0.4,0-0.6c0-2.2-1.1-3.6-3-3.6c-2,0-3.2,1.6-3.2,3.8c0,2.3,1.2,3.8,3.4,3.8
	c0.9,0,1.8-0.3,2.5-0.9l-0.5-0.8c-0.7,0.4-1.2,0.7-2,0.7C626.2,150.2,625.3,149.4,625.2,147.7z M627.2,144.4c1.1,0,1.8,0.8,1.8,2.4
	h-3.8C625.3,145.2,626.1,144.4,627.2,144.4z M635.2,150.2c-0.9,0-1.7-0.3-2.2-0.8l-0.7,0.8c0.6,0.5,1.5,1,2.9,1
	c1.6,0,3.1-0.6,3.1-2.2c0-1.4-1-1.9-2.4-2.3c-1.5-0.4-1.9-0.6-1.9-1.3c0-0.6,0.4-1,1.6-1c1,0,1.6,0.3,2.1,0.7l0.5-0.8
	c-0.6-0.4-1.5-0.8-2.7-0.8c-1.7,0-2.8,0.8-2.8,2c0,1.3,1,1.8,2.5,2.1c1.6,0.4,1.8,0.7,1.8,1.4C637,149.7,636.3,150.2,635.2,150.2z
	 M643.9,148.7c-0.6,0-1.1,0.5-1.1,1.1c0,0.4,0.2,0.7,0.4,0.9l-0.7,2.8h1.1l1.1-2.6c0.2-0.4,0.3-0.8,0.3-1.1
	C645,149.2,644.5,148.7,643.9,148.7z M459.7,167.1c-1.3,0-2.2-0.8-2.2-2.8c0-1.9,0.9-2.9,2.2-2.9c0.7,0,1.3,0.2,1.9,0.6l0.6-0.8
	c-0.7-0.6-1.5-0.9-2.5-0.9c-2.2,0-3.5,1.7-3.5,3.9c0,2.3,1.3,3.8,3.5,3.8c0.9,0,1.8-0.3,2.5-0.9l-0.6-0.8
	C461.1,166.9,460.5,167.1,459.7,167.1z M467.6,160.5c-2.1,0-3.2,1.6-3.2,3.8c0,2.3,1.1,3.8,3.2,3.8c2.1,0,3.2-1.6,3.2-3.9
	C470.8,162,469.7,160.5,467.6,160.5z M467.6,161.4c1.3,0,1.9,0.9,1.9,2.9c0,2-0.6,2.9-1.9,2.9s-1.9-0.9-1.9-2.9
	C465.7,162.4,466.3,161.4,467.6,161.4z M476.1,157.7h-3.4v0.9h2.3v7.5c0,1.3,0.9,2,2.2,2c0.8,0,1.4-0.2,1.8-0.4l-0.3-0.9
	c-0.4,0.2-0.8,0.3-1.2,0.3c-0.7,0-1.2-0.3-1.2-1V157.7z M482.8,160.6h-1.2v5.4c0,1.4,0.7,2.2,2.1,2.2c0.9,0,1.8-0.4,2.4-1.1l0.1,1h1
	v-7.4H486v5.4c-0.4,0.6-1.2,1.2-2,1.2c-0.9,0-1.2-0.4-1.2-1.4V160.6z M494.8,160.5c-0.7,0-1.2,0.4-1.6,1c-0.2-0.8-0.8-1-1.3-1
	c-0.7,0-1.2,0.4-1.6,1l-0.1-0.9h-0.9v7.4h1.1v-5.7c0.4-0.6,0.8-0.9,1.3-0.9c0.5,0,0.6,0.4,0.6,1.3v5.3h1.1v-5.7
	c0.4-0.6,0.8-0.9,1.3-0.9c0.5,0,0.6,0.4,0.6,1.3v5.3h1.1v-5.5C496.3,160.8,495.5,160.5,494.8,160.5z M498.4,168h1.2v-5.4
	c0.4-0.6,1.1-1.2,2-1.2c1.1,0,1.3,0.6,1.3,2.1v4.5h1.2v-5.3c0-1.4-0.6-2.2-2.1-2.2c-0.9,0-1.8,0.4-2.4,1.2l-0.1-1h-1V168z
	 M507.1,164.1h4.9v-1h-4.9V164.1z M518,160.5c-2.1,0-3.2,1.6-3.2,3.8c0,2.3,1.1,3.8,3.2,3.8c2.1,0,3.2-1.6,3.2-3.9
	C521.1,162,520,160.5,518,160.5z M518,161.4c1.3,0,1.9,0.9,1.9,2.9c0,2-0.6,2.9-1.9,2.9c-1.3,0-1.9-0.9-1.9-2.9
	C516.1,162.4,516.7,161.4,518,161.4z M528.5,160.5c-1.3,0-2.1,0.7-2.6,1.9l-0.2-1.8h-2v0.9h1.2v5.6h-1.2v0.9h3.8v-0.9H526V164
	c0.5-1.6,1.3-2.4,2.4-2.4h0.1v1.6h1l0.2-2.5C529.3,160.5,528.9,160.5,528.5,160.5z M534.8,157.2c-0.5,0-0.8,0.4-0.8,0.8
	s0.3,0.8,0.8,0.8c0.5,0,0.9-0.4,0.9-0.8S535.3,157.2,534.8,157.2z M535.7,160.6h-3.4v0.9h2.2v5.5h-2.3v0.9h5.5v-0.9h-2.1V160.6z
	 M541.3,164.7h5c0-0.2,0-0.4,0-0.6c0-2.2-1.1-3.6-3-3.6c-2,0-3.2,1.6-3.2,3.8c0,2.3,1.2,3.8,3.4,3.8c0.9,0,1.8-0.3,2.5-0.9l-0.5-0.8
	c-0.7,0.4-1.2,0.7-2,0.7C542.3,167.2,541.3,166.4,541.3,164.7z M543.3,161.4c1.1,0,1.8,0.8,1.8,2.4h-3.8
	C541.4,162.2,542.2,161.4,543.3,161.4z M548.7,168h1.2v-5.4c0.4-0.6,1.1-1.2,2-1.2c1.1,0,1.3,0.6,1.3,2.1v4.5h1.2v-5.3
	c0-1.4-0.6-2.2-2.1-2.2c-0.9,0-1.8,0.4-2.4,1.2l-0.1-1h-1V168z M563,167.6l-0.5-0.8c-0.4,0.2-0.9,0.3-1.4,0.3c-1,0-1.4-0.4-1.4-1.2
	v-4.4h2.4l0.2-0.9h-2.6v-1.8l-1.2,0.1v1.7h-1.7v0.9h1.7v4.4c0,1.3,0.9,2.2,2.5,2.2C561.7,168.2,562.5,168,563,167.6z M566.5,164.7h5
	c0-0.2,0-0.4,0-0.6c0-2.2-1.1-3.6-3-3.6c-2,0-3.2,1.6-3.2,3.8c0,2.3,1.2,3.8,3.4,3.8c0.9,0,1.8-0.3,2.5-0.9l-0.5-0.8
	c-0.7,0.4-1.2,0.7-2,0.7C567.5,167.2,566.5,166.4,566.5,164.7z M568.5,161.4c1.1,0,1.8,0.8,1.8,2.4h-3.8
	C566.6,162.2,567.4,161.4,568.5,161.4z M578.3,157.5v3.8c-0.5-0.6-1.1-0.9-2-0.9c-1.8,0-2.9,1.6-2.9,3.8c0,2.3,0.9,3.8,2.8,3.8
	c0.8,0,1.5-0.4,2.1-1.1l0.1,1h1v-10.3L578.3,157.5z M576.7,161.4c0.7,0,1.3,0.4,1.7,1v3.7c-0.4,0.6-1,1.2-1.8,1.2
	c-1.2,0-1.8-1-1.8-2.9C574.7,162.4,575.4,161.4,576.7,161.4z M596,166.4v-3.5c0-1.5-0.9-2.4-2.8-2.4c-0.7,0-1.5,0.1-2.4,0.5l0.3,0.9
	c0.8-0.3,1.4-0.4,1.9-0.4c1.1,0,1.8,0.4,1.8,1.5v0.6h-1.1c-2.2,0-3.4,0.9-3.4,2.4c0,1.4,0.9,2.3,2.4,2.3c1,0,1.8-0.4,2.3-1
	c0.2,0.7,0.7,1,1.3,1.1l0.3-0.8C596.2,167.2,596,167,596,166.4z M593,167.3c-1,0-1.4-0.5-1.4-1.4c0-1,0.6-1.5,2.2-1.5h1.1v1.9
	C594.4,166.9,593.7,167.3,593,167.3z M599.1,168h1.2v-5.4c0.4-0.6,1.1-1.2,2-1.2c1.1,0,1.3,0.6,1.3,2.1v4.5h1.2v-5.3
	c0-1.4-0.6-2.2-2.1-2.2c-0.9,0-1.8,0.4-2.4,1.2l-0.1-1h-1V168z M612.8,166.4v-3.5c0-1.5-0.9-2.4-2.8-2.4c-0.7,0-1.5,0.1-2.4,0.5
	l0.3,0.9c0.8-0.3,1.4-0.4,1.9-0.4c1.1,0,1.8,0.4,1.8,1.5v0.6h-1.1c-2.2,0-3.4,0.9-3.4,2.4c0,1.4,0.9,2.3,2.4,2.3c1,0,1.8-0.4,2.3-1
	c0.2,0.7,0.7,1,1.3,1.1l0.3-0.8C613,167.2,612.8,167,612.8,166.4z M609.7,167.3c-1,0-1.4-0.5-1.4-1.4c0-1,0.6-1.5,2.2-1.5h1.1v1.9
	C611.2,166.9,610.5,167.3,609.7,167.3z M618.8,157.7h-3.4v0.9h2.3v7.5c0,1.3,0.9,2,2.2,2c0.8,0,1.4-0.2,1.8-0.4l-0.3-0.9
	c-0.4,0.2-0.8,0.3-1.2,0.3c-0.7,0-1.2-0.3-1.2-1V157.7z M630.4,160.6h-1.2l-2.1,6.5l-2.1-6.5h-1.2l2.6,7.4h0.4
	c-0.4,1.1-0.8,1.8-2.3,2l0.2,0.9c2-0.2,2.8-1.4,3.3-2.9L630.4,160.6z M638.6,167.6l-0.5-0.8c-0.4,0.2-0.9,0.3-1.4,0.3
	c-1,0-1.4-0.4-1.4-1.2v-4.4h2.4l0.2-0.9h-2.6v-1.8l-1.2,0.1v1.7h-1.7v0.9h1.7v4.4c0,1.3,0.9,2.2,2.5,2.2
	C637.3,168.2,638,168,638.6,167.6z M643.9,157.2c-0.5,0-0.8,0.4-0.8,0.8s0.3,0.8,0.8,0.8c0.5,0,0.9-0.4,0.9-0.8
	S644.4,157.2,643.9,157.2z M644.8,160.6h-3.4v0.9h2.2v5.5h-2.3v0.9h5.5v-0.9h-2.1V160.6z M652.8,167.1c-1.3,0-2.2-0.8-2.2-2.8
	c0-1.9,0.9-2.9,2.2-2.9c0.7,0,1.3,0.2,1.9,0.6l0.6-0.8c-0.7-0.6-1.5-0.9-2.5-0.9c-2.2,0-3.5,1.7-3.5,3.9c0,2.3,1.3,3.8,3.5,3.8
	c0.9,0,1.8-0.3,2.5-0.9l-0.6-0.8C654.2,166.9,653.6,167.1,652.8,167.1z M660.4,167.2c-0.9,0-1.7-0.3-2.2-0.8l-0.7,0.8
	c0.6,0.5,1.5,1,2.9,1c1.6,0,3.1-0.6,3.1-2.2c0-1.4-1-1.9-2.4-2.3c-1.5-0.4-1.9-0.6-1.9-1.3c0-0.6,0.4-1,1.6-1c1,0,1.6,0.3,2.1,0.7
	l0.5-0.8c-0.6-0.4-1.5-0.8-2.7-0.8c-1.7,0-2.8,0.8-2.8,2c0,1.3,1,1.8,2.5,2.1c1.6,0.4,1.8,0.7,1.8,1.4
	C662.2,166.7,661.5,167.2,660.4,167.2z M457.3,181.7h5c0-0.2,0-0.4,0-0.6c0-2.2-1.1-3.6-3-3.6c-2,0-3.2,1.6-3.2,3.8
	c0,2.3,1.2,3.8,3.4,3.8c0.9,0,1.8-0.3,2.5-0.9l-0.5-0.8c-0.7,0.4-1.2,0.7-2,0.7C458.3,184.2,457.4,183.4,457.3,181.7z M459.3,178.4
	c1.1,0,1.8,0.8,1.8,2.4h-3.8C457.4,179.2,458.2,178.4,459.3,178.4z M464.8,185h1.2v-5.4c0.4-0.6,1.1-1.2,2-1.2
	c1.1,0,1.3,0.6,1.3,2.1v4.5h1.2v-5.3c0-1.4-0.6-2.2-2.1-2.2c-0.9,0-1.8,0.4-2.4,1.2l-0.1-1h-1V185z M479.2,176.9
	c-0.9,0.4-1.5,0.6-3.4,0.6c-1.8,0-2.9,1.1-2.9,2.6c0,1,0.4,1.6,1.2,2c-0.5,0.4-0.8,0.8-0.8,1.3c0,0.7,0.6,1.4,1.9,1.4h1.3
	c0.9,0,1.7,0.4,1.7,1.1c0,0.8-0.7,1.2-2.3,1.2c-1.7,0-2-0.4-2-1.3h-1.1c0,1.5,0.8,2.2,3.1,2.2c2.2,0,3.5-0.8,3.5-2.2
	c0-1.1-1.1-2-2.6-2h-1.3c-0.8,0-1-0.3-1-0.6c0-0.3,0.2-0.5,0.4-0.7c0.3,0.1,0.6,0.2,1.1,0.2c1.8,0,2.8-1.1,2.8-2.5
	c0-0.8-0.4-1.5-1.3-1.9c0.8,0,1.5,0,2.2-0.2L479.2,176.9z M475.8,178.3c1.1,0,1.6,0.6,1.6,1.7c0,1.1-0.6,1.7-1.6,1.7
	c-1.2,0-1.8-0.7-1.8-1.7C474.1,179,474.6,178.3,475.8,178.3z M484.4,174.2c-0.5,0-0.8,0.4-0.8,0.8s0.3,0.8,0.8,0.8
	c0.5,0,0.9-0.4,0.9-0.8S484.9,174.2,484.4,174.2z M485.3,177.6h-3.4v0.9h2.2v5.5h-2.3v0.9h5.5v-0.9h-2.1V177.6z M490,185h1.2v-5.4
	c0.4-0.6,1.1-1.2,2-1.2c1.1,0,1.3,0.6,1.3,2.1v4.5h1.2v-5.3c0-1.4-0.6-2.2-2.1-2.2c-0.9,0-1.8,0.4-2.4,1.2l-0.1-1h-1V185z
	 M499.3,181.7h5c0-0.2,0-0.4,0-0.6c0-2.2-1.1-3.6-3-3.6c-2,0-3.2,1.6-3.2,3.8c0,2.3,1.2,3.8,3.4,3.8c0.9,0,1.8-0.3,2.5-0.9l-0.5-0.8
	c-0.7,0.4-1.2,0.7-2,0.7C500.3,184.2,499.4,183.4,499.3,181.7z M501.3,178.4c1.1,0,1.8,0.8,1.8,2.4h-3.8
	C499.4,179.2,500.2,178.4,501.3,178.4z M520.6,185l1.3-7.4h-1.1l-1,6.7l-1.1-5.7h-1.4l-1.2,5.7l-1-6.7H514l1.3,7.4h1.6l1-5.4l1,5.4
	H520.6z M526.4,174.2c-0.5,0-0.8,0.4-0.8,0.8s0.3,0.8,0.8,0.8c0.5,0,0.9-0.4,0.9-0.8S526.9,174.2,526.4,174.2z M527.3,177.6h-3.4
	v0.9h2.2v5.5h-2.3v0.9h5.5v-0.9h-2.1V177.6z M537.8,184.6l-0.5-0.8c-0.4,0.2-0.9,0.3-1.4,0.3c-1,0-1.4-0.4-1.4-1.2v-4.4h2.4l0.2-0.9
	h-2.6v-1.8l-1.2,0.1v1.7h-1.7v0.9h1.7v4.4c0,1.3,0.9,2.2,2.5,2.2C536.5,185.2,537.3,185,537.8,184.6z M541.5,174.5l-1.2,0.1V185h1.2
	v-5.4c0.4-0.6,1.1-1.2,2-1.2c0.9,0,1.3,0.4,1.3,1.3v5.3h1.2v-5.3c0-1.4-0.6-2.2-2.1-2.2c-0.9,0-1.8,0.4-2.4,1.2V174.5z M562.1,177.5
	c-1.3,0-2.1,0.7-2.6,1.9l-0.2-1.8h-2v0.9h1.2v5.6h-1.2v0.9h3.8v-0.9h-1.5V181c0.5-1.6,1.3-2.4,2.4-2.4h0.1v1.6h1l0.2-2.5
	C562.8,177.5,562.5,177.5,562.1,177.5z M566.5,181.7h5c0-0.2,0-0.4,0-0.6c0-2.2-1.1-3.6-3-3.6c-2,0-3.2,1.6-3.2,3.8
	c0,2.3,1.2,3.8,3.4,3.8c0.9,0,1.8-0.3,2.5-0.9l-0.5-0.8c-0.7,0.4-1.2,0.7-2,0.7C567.5,184.2,566.5,183.4,566.5,181.7z M568.5,178.4
	c1.1,0,1.8,0.8,1.8,2.4h-3.8C566.6,179.2,567.4,178.4,568.5,178.4z M576.8,174.7h-3.4v0.9h2.3v7.5c0,1.3,0.9,2,2.2,2
	c0.8,0,1.4-0.2,1.8-0.4l-0.3-0.9c-0.4,0.2-0.8,0.3-1.2,0.3c-0.7,0-1.2-0.3-1.2-1V174.7z M587.6,183.4v-3.5c0-1.5-0.9-2.4-2.8-2.4
	c-0.7,0-1.5,0.1-2.4,0.5l0.3,0.9c0.8-0.3,1.4-0.4,1.9-0.4c1.1,0,1.8,0.4,1.8,1.5v0.6h-1.1c-2.2,0-3.4,0.9-3.4,2.4
	c0,1.4,0.9,2.3,2.4,2.3c1,0,1.8-0.4,2.3-1c0.2,0.7,0.7,1,1.3,1.1l0.3-0.8C587.8,184.2,587.6,184,587.6,183.4z M584.6,184.3
	c-1,0-1.4-0.5-1.4-1.4c0-1,0.6-1.5,2.2-1.5h1.1v1.9C586,183.9,585.3,184.3,584.6,184.3z M596.6,184.6l-0.5-0.8
	c-0.4,0.2-0.9,0.3-1.4,0.3c-1,0-1.4-0.4-1.4-1.2v-4.4h2.4l0.2-0.9h-2.6v-1.8l-1.2,0.1v1.7h-1.7v0.9h1.7v4.4c0,1.3,0.9,2.2,2.5,2.2
	C595.3,185.2,596.1,185,596.6,184.6z M601.9,174.2c-0.5,0-0.8,0.4-0.8,0.8s0.3,0.8,0.8,0.8c0.5,0,0.9-0.4,0.9-0.8
	S602.4,174.2,601.9,174.2z M602.8,177.6h-3.4v0.9h2.2v5.5h-2.3v0.9h5.5v-0.9h-2.1V177.6z M610.3,177.5c-2.1,0-3.2,1.6-3.2,3.8
	c0,2.3,1.1,3.8,3.2,3.8c2.1,0,3.2-1.6,3.2-3.9C613.5,179,612.4,177.5,610.3,177.5z M610.3,178.4c1.3,0,1.9,0.9,1.9,2.9
	c0,2-0.6,2.9-1.9,2.9s-1.9-0.9-1.9-2.9C608.4,179.4,609,178.4,610.3,178.4z M615.9,185h1.2v-5.4c0.4-0.6,1.1-1.2,2-1.2
	c1.1,0,1.3,0.6,1.3,2.1v4.5h1.2v-5.3c0-1.4-0.6-2.2-2.1-2.2c-0.9,0-1.8,0.4-2.4,1.2l-0.1-1h-1V185z M629.6,183.4v-3.5
	c0-1.5-0.9-2.4-2.8-2.4c-0.7,0-1.5,0.1-2.4,0.5l0.3,0.9c0.8-0.3,1.4-0.4,1.9-0.4c1.1,0,1.8,0.4,1.8,1.5v0.6h-1.1
	c-2.2,0-3.4,0.9-3.4,2.4c0,1.4,0.9,2.3,2.4,2.3c1,0,1.8-0.4,2.3-1c0.2,0.7,0.7,1,1.3,1.1l0.3-0.8C629.8,184.2,629.6,184,629.6,183.4
	z M626.5,184.3c-1,0-1.4-0.5-1.4-1.4c0-1,0.6-1.5,2.2-1.5h1.1v1.9C628,183.9,627.3,184.3,626.5,184.3z M635.6,174.7h-3.4v0.9h2.3
	v7.5c0,1.3,0.9,2,2.2,2c0.8,0,1.4-0.2,1.8-0.4l-0.3-0.9c-0.4,0.2-0.8,0.3-1.2,0.3c-0.7,0-1.2-0.3-1.2-1V174.7z M460.8,191.5v3.8
	c-0.5-0.6-1.1-0.9-2-0.9c-1.8,0-2.9,1.6-2.9,3.8c0,2.3,0.9,3.8,2.8,3.8c0.8,0,1.5-0.4,2.1-1.1l0.1,1h1v-10.3L460.8,191.5z
	 M459.1,195.4c0.7,0,1.3,0.4,1.7,1v3.7c-0.4,0.6-1,1.2-1.8,1.2c-1.2,0-1.8-1-1.8-2.9C457.2,196.4,457.9,195.4,459.1,195.4z
	 M470.1,200.4v-3.5c0-1.5-0.9-2.4-2.8-2.4c-0.7,0-1.5,0.1-2.4,0.5l0.3,0.9c0.8-0.3,1.4-0.4,1.9-0.4c1.1,0,1.8,0.4,1.8,1.5v0.6h-1.1
	c-2.2,0-3.4,0.9-3.4,2.4c0,1.4,0.9,2.3,2.4,2.3c1,0,1.8-0.4,2.3-1c0.2,0.7,0.7,1,1.3,1.1l0.3-0.8C470.3,201.2,470.1,201,470.1,200.4
	z M467,201.3c-1,0-1.4-0.5-1.4-1.4c0-1,0.6-1.5,2.2-1.5h1.1v1.9C468.5,200.9,467.8,201.3,467,201.3z M479.1,201.6l-0.5-0.8
	c-0.4,0.2-0.9,0.3-1.4,0.3c-1,0-1.4-0.4-1.4-1.2v-4.4h2.4l0.2-0.9h-2.6v-1.8l-1.2,0.1v1.7h-1.7v0.9h1.7v4.4c0,1.3,0.9,2.2,2.5,2.2
	C477.8,202.2,478.5,202,479.1,201.6z M486.9,200.4v-3.5c0-1.5-0.9-2.4-2.8-2.4c-0.7,0-1.5,0.1-2.4,0.5l0.3,0.9
	c0.8-0.3,1.4-0.4,1.9-0.4c1.1,0,1.8,0.4,1.8,1.5v0.6h-1.1c-2.2,0-3.4,0.9-3.4,2.4c0,1.4,0.9,2.3,2.4,2.3c1,0,1.8-0.4,2.3-1
	c0.2,0.7,0.7,1,1.3,1.1l0.3-0.8C487.1,201.2,486.9,201,486.9,200.4z M483.8,201.3c-1,0-1.4-0.5-1.4-1.4c0-1,0.6-1.5,2.2-1.5h1.1v1.9
	C485.3,200.9,484.6,201.3,483.8,201.3z M491.2,195.6v-4.1l-1.2,0.1V202h1l0.1-0.8c0.5,0.6,1.2,0.9,2,0.9c1.9,0,2.9-1.6,2.9-3.9
	c0-2.3-0.8-3.8-2.8-3.8C492.4,194.5,491.7,194.9,491.2,195.6z M492.8,201.2c-0.7,0-1.3-0.3-1.7-1v-3.7c0.4-0.6,1-1.2,1.8-1.2
	c1.1,0,1.8,1,1.8,2.9C494.8,200.3,494.1,201.2,492.8,201.2z M503.7,200.4v-3.5c0-1.5-0.9-2.4-2.8-2.4c-0.7,0-1.5,0.1-2.4,0.5
	l0.3,0.9c0.8-0.3,1.4-0.4,1.9-0.4c1.1,0,1.8,0.4,1.8,1.5v0.6h-1.1c-2.2,0-3.4,0.9-3.4,2.4c0,1.4,0.9,2.3,2.4,2.3c1,0,1.8-0.4,2.3-1
	c0.2,0.7,0.7,1,1.3,1.1l0.3-0.8C503.8,201.2,503.7,201,503.7,200.4z M500.6,201.3c-1,0-1.4-0.5-1.4-1.4c0-1,0.6-1.5,2.2-1.5h1.1v1.9
	C502,200.9,501.3,201.3,500.6,201.3z M509.3,201.2c-0.9,0-1.7-0.3-2.2-0.8l-0.7,0.8c0.6,0.5,1.5,1,2.9,1c1.6,0,3.1-0.6,3.1-2.2
	c0-1.4-1-1.9-2.4-2.3c-1.5-0.4-1.9-0.6-1.9-1.3c0-0.6,0.4-1,1.6-1c1,0,1.6,0.3,2.1,0.7l0.5-0.8c-0.6-0.4-1.5-0.8-2.7-0.8
	c-1.7,0-2.8,0.8-2.8,2c0,1.3,1,1.8,2.5,2.1c1.6,0.4,1.8,0.7,1.8,1.4C511.1,200.7,510.4,201.2,509.3,201.2z M516.1,198.7h5
	c0-0.2,0-0.4,0-0.6c0-2.2-1.1-3.6-3-3.6c-2,0-3.2,1.6-3.2,3.8c0,2.3,1.2,3.8,3.4,3.8c0.9,0,1.8-0.3,2.5-0.9l-0.5-0.8
	c-0.7,0.4-1.2,0.7-2,0.7C517.1,201.2,516.2,200.4,516.1,198.7z M518.1,195.4c1.1,0,1.8,0.8,1.8,2.4h-3.8
	C516.2,196.2,517,195.4,518.1,195.4z M536.3,191.5c-1.5,0-2.7,0.9-2.7,2.2v1.5h-1.8v0.9h1.8v5.9h1.2v-5.9h2.4l0.1-0.9h-2.5v-1.5
	c0-0.8,0.5-1.2,1.5-1.2c0.6,0,1.1,0.1,1.6,0.3l0.4-0.9C537.7,191.7,537.1,191.5,536.3,191.5z M541.3,198.7h5c0-0.2,0-0.4,0-0.6
	c0-2.2-1.1-3.6-3-3.6c-2,0-3.2,1.6-3.2,3.8c0,2.3,1.2,3.8,3.4,3.8c0.9,0,1.8-0.3,2.5-0.9l-0.5-0.8c-0.7,0.4-1.2,0.7-2,0.7
	C542.3,201.2,541.3,200.4,541.3,198.7z M543.3,195.4c1.1,0,1.8,0.8,1.8,2.4h-3.8C541.4,196.2,542.2,195.4,543.3,195.4z M554,200.4
	v-3.5c0-1.5-0.9-2.4-2.8-2.4c-0.7,0-1.5,0.1-2.4,0.5l0.3,0.9c0.8-0.3,1.4-0.4,1.9-0.4c1.1,0,1.8,0.4,1.8,1.5v0.6h-1.1
	c-2.2,0-3.4,0.9-3.4,2.4c0,1.4,0.9,2.3,2.4,2.3c1,0,1.8-0.4,2.3-1c0.2,0.7,0.7,1,1.3,1.1l0.3-0.8C554.2,201.2,554,201,554,200.4z
	 M551,201.3c-1,0-1.4-0.5-1.4-1.4c0-1,0.6-1.5,2.2-1.5h1.1v1.9C552.4,200.9,551.7,201.3,551,201.3z M563,201.6l-0.5-0.8
	c-0.4,0.2-0.9,0.3-1.4,0.3c-1,0-1.4-0.4-1.4-1.2v-4.4h2.4l0.2-0.9h-2.6v-1.8l-1.2,0.1v1.7h-1.7v0.9h1.7v4.4c0,1.3,0.9,2.2,2.5,2.2
	C561.7,202.2,562.5,202,563,201.6z M566.7,194.6h-1.2v5.4c0,1.4,0.7,2.2,2.1,2.2c0.9,0,1.8-0.4,2.4-1.1l0.1,1h1v-7.4H570v5.4
	c-0.4,0.6-1.2,1.2-2,1.2c-0.9,0-1.2-0.4-1.2-1.4V194.6z M578.9,194.5c-1.3,0-2.1,0.7-2.6,1.9l-0.2-1.8h-2v0.9h1.2v5.6H574v0.9h3.8
	v-0.9h-1.5V198c0.5-1.6,1.3-2.4,2.4-2.4h0.1v1.6h1l0.2-2.5C579.6,194.5,579.3,194.5,578.9,194.5z M583.3,198.7h5c0-0.2,0-0.4,0-0.6
	c0-2.2-1.1-3.6-3-3.6c-2,0-3.2,1.6-3.2,3.8c0,2.3,1.2,3.8,3.4,3.8c0.9,0,1.8-0.3,2.5-0.9l-0.5-0.8c-0.7,0.4-1.2,0.7-2,0.7
	C584.3,201.2,583.3,200.4,583.3,198.7z M585.2,195.4c1.1,0,1.8,0.8,1.8,2.4h-3.8C583.4,196.2,584.2,195.4,585.2,195.4z M593.2,201.2
	c-0.9,0-1.7-0.3-2.2-0.8l-0.7,0.8c0.6,0.5,1.5,1,2.9,1c1.6,0,3.1-0.6,3.1-2.2c0-1.4-1-1.9-2.4-2.3c-1.5-0.4-1.9-0.6-1.9-1.3
	c0-0.6,0.4-1,1.6-1c1,0,1.6,0.3,2.1,0.7l0.5-0.8c-0.6-0.4-1.5-0.8-2.7-0.8c-1.7,0-2.8,0.8-2.8,2c0,1.3,1,1.8,2.5,2.1
	c1.6,0.4,1.8,0.7,1.8,1.4C595.1,200.7,594.4,201.2,593.2,201.2z M600.7,200.9c0,0.7,0.5,1.2,1.2,1.2c0.7,0,1.2-0.5,1.2-1.2
	c0-0.7-0.5-1.2-1.2-1.2C601.2,199.7,600.7,200.2,600.7,200.9z"/>
<path class="st5" d="M235.2,150.5h-3V163h3V150.5z M243.1,153.1c-1.2,0-2.1,0.5-2.9,1.4l-0.2-1.1h-2.5v9.6h2.8v-6.5
	c0.5-0.8,1-1.2,1.7-1.2c0.6,0,0.9,0.3,0.9,1.3v6.5h2.8v-7C245.7,154.2,244.7,153.1,243.1,153.1z M247.5,158.5h5.7v-2.2h-5.7V158.5z
	 M265.8,153.1c-1.2,0-2.1,0.5-2.9,1.5c-0.4-1-1.2-1.5-2.2-1.5c-1.2,0-2,0.5-2.8,1.4l-0.2-1.1h-2.5v9.6h2.8v-6.5
	c0.4-0.8,0.9-1.2,1.5-1.2c0.4,0,0.8,0.3,0.8,1.3v6.5h2.8v-6.5c0.4-0.8,0.8-1.2,1.5-1.2c0.4,0,0.8,0.3,0.8,1.3v6.5h2.8v-7
	C268.3,154.2,267.2,153.1,265.8,153.1z M278.7,158c0-3.1-1.7-4.9-4.4-4.9c-2.9,0-4.5,2.3-4.5,5.1c0,3,1.6,5,4.8,5
	c1.5,0,2.8-0.6,3.7-1.3l-1.2-1.6c-0.8,0.6-1.5,0.8-2.3,0.8c-1.2,0-2-0.5-2.2-2.2h5.9C278.7,158.8,278.7,158.3,278.7,158z
	 M275.9,157.3h-3.2c0.1-1.7,0.7-2.3,1.6-2.3c1.1,0,1.5,0.9,1.5,2.2V157.3z M290.9,153.1c-1.2,0-2.1,0.5-2.9,1.5
	c-0.4-1-1.2-1.5-2.2-1.5c-1.2,0-2,0.5-2.8,1.4l-0.2-1.1h-2.5v9.6h2.8v-6.5c0.4-0.8,0.9-1.2,1.5-1.2c0.4,0,0.8,0.3,0.8,1.3v6.5h2.8
	v-6.5c0.4-0.8,0.8-1.2,1.5-1.2c0.4,0,0.8,0.3,0.8,1.3v6.5h2.8v-7C293.4,154.2,292.4,153.1,290.9,153.1z M299.7,153.1
	c-2.9,0-4.7,2-4.7,5.1c0,3.2,1.8,5.1,4.7,5.1c2.9,0,4.7-2,4.7-5.1C304.4,155,302.6,153.1,299.7,153.1z M299.7,155.2
	c1.2,0,1.7,0.9,1.7,3c0,2.1-0.6,3-1.7,3s-1.7-0.9-1.7-3C298,156.1,298.6,155.2,299.7,155.2z M311.3,153.2c-1.1,0-2,0.8-2.5,2.1
	l-0.2-1.8h-2.5v9.6h2.8v-4.8c0.3-1.4,0.8-2.3,2-2.3c0.3,0,0.6,0.1,0.9,0.1l0.5-2.8C311.9,153.2,311.6,153.2,311.3,153.2z M322,153.4
	h-2.9l-1.9,7.7l-1.7-7.7h-3l2.9,9.6h1c-0.5,1.2-1.2,1.8-3.1,2l0.3,2c3-0.2,4.6-1.6,5.4-4L322,153.4z M251.5,172.2
	c-3.5,0-5.6,2.5-5.6,6.5c0,4.2,2.1,6.6,5.6,6.6c3.5,0,5.6-2.5,5.6-6.6C257.1,174.6,255,172.2,251.5,172.2z M251.5,174.4
	c1.7,0,2.5,1.2,2.5,4.4c0,3.2-0.8,4.4-2.5,4.4c-1.6,0-2.5-1.2-2.5-4.4C249,175.6,249.8,174.4,251.5,174.4z M264.2,175.1
	c-1,0-2,0.5-2.5,1.3v-5.1l-2.8,0.3V185h2.5l0.1-0.9c0.6,0.8,1.4,1.2,2.5,1.2c2.4,0,3.8-2.1,3.8-5.1
	C267.8,177,266.5,175.1,264.2,175.1z M263.2,183.2c-0.6,0-1.2-0.3-1.5-0.9v-4c0.4-0.7,1-1.1,1.6-1.1c0.9,0,1.5,0.6,1.5,3
	C264.8,182.5,264.2,183.2,263.2,183.2z M271,170.4c-1,0-1.7,0.7-1.7,1.6s0.7,1.6,1.7,1.6c1,0,1.7-0.7,1.7-1.6S272,170.4,271,170.4z
	 M272.4,175.4h-2.8v8.7c0,1.7-0.7,2.2-1.9,2.8l1,2.1c2.2-0.8,3.8-1.9,3.8-5.1V175.4z M283,180c0-3.1-1.7-4.9-4.4-4.9
	c-2.9,0-4.5,2.3-4.5,5.1c0,3,1.6,5,4.8,5c1.5,0,2.8-0.6,3.7-1.3l-1.2-1.6c-0.8,0.6-1.5,0.8-2.3,0.8c-1.2,0-2-0.5-2.2-2.2h5.9
	C282.9,180.8,283,180.3,283,180z M280.2,179.3H277c0.1-1.7,0.7-2.3,1.6-2.3c1.1,0,1.5,0.9,1.5,2.2V179.3z M288.7,175.1
	c-2.9,0-4.7,2.1-4.7,5.2c0,3,1.8,5,4.7,5c1.3,0,2.3-0.4,3.2-1.1l-1.2-1.8c-0.7,0.4-1.2,0.6-1.8,0.6c-1.1,0-1.9-0.6-1.9-2.8
	c0-2.1,0.7-3,1.9-3c0.6,0,1.2,0.2,1.8,0.7l1.2-1.7C291.1,175.5,290.1,175.1,288.7,175.1z M298.2,182.7c-0.4,0.2-0.7,0.3-1,0.3
	c-0.6,0-0.9-0.3-0.9-1.2v-4.4h1.9l0.3-2h-2.2V173l-2.8,0.3v2.1h-1.4v2h1.4v4.4c0,2.2,1,3.4,3.1,3.5c0.9,0,1.9-0.3,2.6-0.8
	L298.2,182.7z M303.5,175.1c-2.4,0-3.9,1.3-3.9,2.9c0,1.5,0.9,2.4,2.8,3c1.7,0.5,2,0.7,2,1.3c0,0.6-0.5,0.9-1.4,0.9
	c-0.9,0-1.8-0.4-2.5-0.9l-1.4,1.5c0.9,0.8,2.3,1.4,4,1.4c2.4,0,4.2-1.2,4.2-3.1c0-1.7-1.1-2.5-3-3c-1.7-0.5-2-0.7-2-1.2
	c0-0.4,0.4-0.7,1.2-0.7c0.8,0,1.6,0.3,2.4,0.7l1-1.6C306.1,175.6,304.9,175.1,303.5,175.1z"/>
<path class="st0" d="M955.6,42h1.7v-9.6h-1.1v4.8c0,1.7,0.2,3.3,0.2,3.7l-3.5-8.5h-1.7V42h1.1v-4.8c0-1.5-0.1-3.2-0.2-3.6L955.6,42z
	 M960.8,38.7h5c0-0.2,0-0.4,0-0.6c0-2.2-1.1-3.6-3-3.6c-2,0-3.2,1.6-3.2,3.9c0,2.3,1.2,3.8,3.4,3.8c0.9,0,1.8-0.3,2.5-0.9l-0.5-0.8
	c-0.7,0.4-1.2,0.7-2,0.7C961.8,41.2,960.9,40.4,960.8,38.7z M962.8,35.4c1.1,0,1.8,0.8,1.8,2.4h-3.8
	C960.9,36.2,961.7,35.4,962.8,35.4z M973.7,42l1.3-7.4h-1.1l-1,6.6l-1.1-5.7h-1.4l-1.2,5.7l-1-6.6h-1.2l1.3,7.4h1.6l1-5.4l1,5.4
	H973.7z M940.8,56.3c0-1.8-1.3-2.5-2.8-2.9c-1.8-0.5-2.4-1-2.4-1.8c0-1,0.9-1.4,1.9-1.4c0.8,0,1.6,0.3,2.3,0.9l0.7-0.8
	c-0.8-0.7-1.8-1.1-3.1-1.1c-1.8,0-3.1,1-3.1,2.5c0,1.5,1.2,2.2,3.1,2.8c1.7,0.5,2.1,0.9,2.1,1.9c0,1.2-1.1,1.8-2.2,1.8
	c-1.2,0-2-0.4-2.7-1l-0.7,0.8c0.8,0.8,2,1.2,3.4,1.2C939.5,59.2,940.8,58,940.8,56.3z M949,58.6l-0.5-0.8c-0.4,0.2-0.9,0.3-1.4,0.3
	c-1,0-1.4-0.4-1.4-1.2v-4.4h2.4l0.2-0.9h-2.6v-1.8l-1.2,0.1v1.7h-1.7v0.9h1.7v4.4c0,1.3,0.9,2.2,2.5,2.2
	C947.7,59.2,948.4,59,949,58.6z M956.5,51.5c-1.3,0-2.1,0.7-2.6,1.9l-0.2-1.8h-2v0.9h1.2v5.6h-1.2V59h3.8v-0.9h-1.5V55
	c0.5-1.6,1.3-2.4,2.4-2.4h0.1v1.6h1l0.2-2.5C957.2,51.5,956.9,51.5,956.5,51.5z M960.8,55.7h5c0-0.2,0-0.4,0-0.6
	c0-2.2-1.1-3.6-3-3.6c-2,0-3.2,1.6-3.2,3.9c0,2.3,1.2,3.8,3.4,3.8c0.9,0,1.8-0.3,2.5-0.9l-0.5-0.8c-0.7,0.4-1.2,0.7-2,0.7
	C961.8,58.2,960.9,57.4,960.8,55.7z M962.8,52.4c1.1,0,1.8,0.8,1.8,2.4h-3.8C960.9,53.2,961.7,52.4,962.8,52.4z M973.6,57.4v-3.5
	c0-1.5-0.9-2.4-2.8-2.4c-0.7,0-1.5,0.1-2.4,0.5l0.3,0.9c0.8-0.3,1.4-0.4,1.9-0.4c1.1,0,1.8,0.4,1.8,1.5v0.6h-1.1
	c-2.2,0-3.4,0.9-3.4,2.4c0,1.4,0.9,2.3,2.4,2.3c1,0,1.8-0.3,2.3-1c0.2,0.7,0.7,1,1.3,1l0.3-0.8C973.7,58.2,973.6,58,973.6,57.4z
	 M970.5,58.3c-1,0-1.4-0.5-1.4-1.4c0-1,0.6-1.5,2.2-1.5h1.1v1.9C971.9,57.9,971.2,58.3,970.5,58.3z M981.5,51.5
	c-0.7,0-1.2,0.4-1.6,1c-0.2-0.8-0.8-1-1.3-1c-0.7,0-1.2,0.4-1.6,1l-0.1-0.9H976V59h1.1v-5.7c0.4-0.6,0.8-0.9,1.3-0.9
	c0.5,0,0.6,0.4,0.6,1.3V59h1.1v-5.7c0.4-0.6,0.8-0.9,1.3-0.9c0.5,0,0.6,0.4,0.6,1.3V59h1.1v-5.5C983,51.8,982.2,51.5,981.5,51.5z
	 M987.6,58.2c-0.9,0-1.7-0.3-2.2-0.8l-0.7,0.8c0.6,0.5,1.5,1,2.9,1c1.6,0,3.1-0.6,3.1-2.2c0-1.4-1-1.9-2.4-2.3
	c-1.5-0.4-1.9-0.6-1.9-1.3c0-0.6,0.4-1,1.6-1c1,0,1.6,0.3,2.1,0.7l0.5-0.8c-0.6-0.4-1.5-0.8-2.7-0.8c-1.7,0-2.8,0.8-2.8,2
	c0,1.3,1,1.8,2.5,2.1c1.6,0.4,1.8,0.7,1.8,1.4C989.4,57.7,988.7,58.2,987.6,58.2z"/>
<path class="st0" d="M938.3,147.2c-2.2,0-4.1,1.7-4.1,5s1.8,5,4.2,5c1.4,0,2.3-0.5,2.9-1.1l-0.6-0.8c-0.5,0.4-1.2,0.8-2.2,0.8
	c-1.7,0-2.9-1.1-2.9-3.9c0-2.9,1.4-3.9,2.9-3.9c0.7,0,1.4,0.2,2,0.7l0.7-0.8C940.3,147.5,939.6,147.2,938.3,147.2z M945.9,149.5
	c-2.1,0-3.2,1.6-3.2,3.8c0,2.3,1.1,3.8,3.2,3.8c2.1,0,3.2-1.6,3.2-3.9C949.1,151,948,149.5,945.9,149.5z M945.9,150.4
	c1.3,0,1.9,0.9,1.9,2.9c0,2-0.6,2.9-1.9,2.9c-1.3,0-1.9-0.9-1.9-2.9C944,151.4,944.6,150.4,945.9,150.4z M956.3,149.5
	c-0.7,0-1.2,0.4-1.6,1c-0.2-0.8-0.8-1-1.3-1c-0.7,0-1.2,0.4-1.6,1l-0.1-0.9h-0.9v7.4h1.1v-5.7c0.4-0.6,0.8-0.9,1.3-0.9
	c0.5,0,0.6,0.4,0.6,1.3v5.3h1.1v-5.7c0.4-0.6,0.8-0.9,1.3-0.9c0.5,0,0.6,0.4,0.6,1.3v5.3h1.1v-5.5
	C957.8,149.8,957.1,149.5,956.3,149.5z M963.2,149.5c-0.9,0-1.7,0.4-2.2,1.2l-0.1-1h-1V160l1.2-0.1v-3.5c0.5,0.6,1.1,0.8,2,0.8
	c1.9,0,2.8-1.6,2.8-3.9C965.9,151,965.1,149.5,963.2,149.5z M962.9,150.4c1.2,0,1.7,1,1.7,2.9c0,2-0.6,2.9-1.8,2.9
	c-0.7,0-1.3-0.3-1.7-0.9v-3.7C961.5,151,962.1,150.4,962.9,150.4z M971.2,146.7h-3.4v0.9h2.3v7.5c0,1.3,0.9,2,2.2,2
	c0.8,0,1.4-0.2,1.8-0.4l-0.3-0.9c-0.4,0.2-0.8,0.3-1.2,0.3c-0.7,0-1.2-0.3-1.2-1V146.7z M977.6,153.7h5c0-0.2,0-0.4,0-0.6
	c0-2.2-1.1-3.6-3-3.6c-2,0-3.2,1.6-3.2,3.8c0,2.3,1.2,3.8,3.4,3.8c0.9,0,1.8-0.3,2.5-0.9l-0.5-0.8c-0.7,0.4-1.2,0.7-2,0.7
	C978.6,156.2,977.7,155.4,977.6,153.7z M979.6,150.4c1.1,0,1.8,0.8,1.8,2.4h-3.8C977.7,151.2,978.5,150.4,979.6,150.4z M985.8,157
	l2-3.2l2,3.2h1.4l-2.7-3.9l2.4-3.4h-1.4l-1.7,2.7l-1.7-2.7h-1.4l2.4,3.5l-2.7,3.9H985.8z M948.6,164.4h-4.1v1h2.9v5.4
	c0,1.5-0.8,2.4-2.1,2.4c-0.6,0-1.3-0.1-2.1-0.7l-0.5,0.8c0.8,0.6,1.7,0.9,2.6,0.9c2.5,0,3.3-1.8,3.3-3.4V164.4z M954.3,166.5
	c-2.1,0-3.2,1.6-3.2,3.8c0,2.3,1.1,3.8,3.2,3.8c2.1,0,3.2-1.6,3.2-3.9C957.5,168,956.4,166.5,954.3,166.5z M954.3,167.4
	c1.3,0,1.9,0.9,1.9,2.9c0,2-0.6,2.9-1.9,2.9c-1.3,0-1.9-0.9-1.9-2.9C952.4,168.4,953,167.4,954.3,167.4z M962.7,163.2
	c-0.5,0-0.8,0.4-0.8,0.8s0.3,0.8,0.8,0.8c0.5,0,0.9-0.4,0.9-0.8S963.2,163.2,962.7,163.2z M963.6,166.6h-3.4v0.9h2.2v5.5h-2.3v0.9
	h5.5v-0.9h-2.1V166.6z M968.3,174h1.2v-5.4c0.4-0.6,1.1-1.2,2-1.2c1.1,0,1.3,0.6,1.3,2.1v4.5h1.2v-5.3c0-1.4-0.6-2.2-2.1-2.2
	c-0.9,0-1.8,0.4-2.4,1.2l-0.1-1h-1V174z M979.2,173.2c-0.9,0-1.7-0.3-2.2-0.8l-0.7,0.8c0.6,0.5,1.5,1,2.9,1c1.6,0,3.1-0.6,3.1-2.2
	c0-1.4-1-1.9-2.4-2.3c-1.5-0.4-1.9-0.6-1.9-1.3c0-0.6,0.4-1,1.6-1c1,0,1.6,0.3,2.1,0.7l0.5-0.8c-0.6-0.4-1.5-0.8-2.7-0.8
	c-1.7,0-2.8,0.8-2.8,2c0,1.3,1,1.8,2.5,2.1c1.6,0.4,1.8,0.7,1.8,1.4C981,172.7,980.3,173.2,979.2,173.2z"/>
<path class="st0" d="M951.5,272.5l0.8,2.5h1.3l-3.1-9.6h-1.5l-3.1,9.6h1.2l0.8-2.5H951.5z M948,271.5l1.6-5.1l1.6,5.1H948z
	 M961.6,268.3c0-2-1.4-3-3.7-3h-2.4v9.6h1.2v-3.6h1.2C960,271.4,961.6,270.6,961.6,268.3z M960.3,268.3c0,1.7-1,2.1-2.3,2.1h-1.4
	v-4.1h1.4C959.3,266.3,960.3,266.9,960.3,268.3z M969.1,265.4h-5.5v1h2.1v7.7h-2.1v1h5.5v-1H967v-7.7h2.1V265.4z M974.5,274.2
	c-0.9,0-1.7-0.3-2.2-0.8l-0.7,0.8c0.6,0.5,1.5,1,2.9,1c1.6,0,3.1-0.6,3.1-2.2c0-1.4-1-1.9-2.4-2.3c-1.5-0.4-1.9-0.6-1.9-1.3
	c0-0.6,0.4-1,1.6-1c1,0,1.6,0.3,2.1,0.7l0.5-0.8c-0.6-0.4-1.5-0.8-2.7-0.8c-1.7,0-2.8,0.8-2.8,2c0,1.3,1,1.8,2.5,2.1
	c1.6,0.4,1.8,0.7,1.8,1.4C976.3,273.7,975.6,274.2,974.5,274.2z"/>
<path class="st0" d="M1068.3,39.1c0-4-2.2-4.8-4.5-4.8h-2.1V44h2.2C1066,44,1068.3,43.2,1068.3,39.1z M1067,39.1
	c0,3.2-1.5,3.9-2.9,3.9h-1.2v-7.7h1.1C1065.4,35.3,1067,35.8,1067,39.1z M1075.7,42.4v-3.5c0-1.5-0.9-2.4-2.8-2.4
	c-0.7,0-1.5,0.1-2.4,0.5l0.3,0.9c0.8-0.3,1.4-0.4,1.9-0.4c1.1,0,1.8,0.4,1.8,1.5v0.6h-1.1c-2.2,0-3.4,0.9-3.4,2.4
	c0,1.4,0.9,2.3,2.4,2.3c1,0,1.8-0.3,2.3-1c0.2,0.7,0.7,1,1.3,1l0.3-0.8C1075.9,43.2,1075.7,43,1075.7,42.4z M1072.6,43.3
	c-1,0-1.4-0.5-1.4-1.4c0-1,0.6-1.5,2.2-1.5h1.1v1.9C1074.1,42.9,1073.3,43.3,1072.6,43.3z M1084.6,43.6l-0.5-0.8
	c-0.4,0.2-0.9,0.3-1.4,0.3c-1,0-1.4-0.4-1.4-1.2v-4.4h2.4l0.2-0.9h-2.6v-1.8l-1.2,0.1v1.7h-1.7v0.9h1.7v4.4c0,1.3,0.9,2.2,2.5,2.2
	C1083.3,44.2,1084.1,44,1084.6,43.6z M1092.5,42.4v-3.5c0-1.5-0.9-2.4-2.8-2.4c-0.7,0-1.5,0.1-2.4,0.5l0.3,0.9
	c0.8-0.3,1.4-0.4,1.9-0.4c1.1,0,1.8,0.4,1.8,1.5v0.6h-1.1c-2.2,0-3.4,0.9-3.4,2.4c0,1.4,0.9,2.3,2.4,2.3c0.9,0,1.8-0.3,2.3-1
	c0.2,0.7,0.7,1,1.3,1l0.3-0.8C1092.7,43.2,1092.5,43,1092.5,42.4z M1089.4,43.3c-1,0-1.4-0.5-1.4-1.4c0-1,0.6-1.5,2.2-1.5h1.1v1.9
	C1090.8,42.9,1090.1,43.3,1089.4,43.3z M1060.8,61.2c1.3,0,2.3-0.3,3.1-0.8v-4.6h-3.2l0.1,1h1.9v2.9c-0.5,0.3-1.2,0.5-1.8,0.5
	c-1.7,0-2.6-1.2-2.6-4c0-3,1.4-3.9,2.8-3.9c0.8,0,1.4,0.3,2,0.8l0.7-0.8c-0.8-0.7-1.5-1.1-2.7-1.1c-2.1,0-4,1.7-4,5
	C1057,59.5,1058.5,61.2,1060.8,61.2z M1071.2,53.5c-1.3,0-2.1,0.7-2.7,1.9l-0.2-1.8h-2v0.9h1.2v5.6h-1.2V61h3.8v-0.9h-1.5V57
	c0.5-1.6,1.3-2.4,2.4-2.4h0.1v1.6h1l0.2-2.5C1071.9,53.5,1071.6,53.5,1071.2,53.5z M1077.4,50.2c-0.5,0-0.8,0.3-0.8,0.8
	c0,0.5,0.3,0.8,0.8,0.8c0.5,0,0.9-0.4,0.9-0.8C1078.2,50.5,1077.9,50.2,1077.4,50.2z M1078.3,53.6h-3.4v0.9h2.2v5.5h-2.3V61h5.5
	v-0.9h-2.1V53.6z M1087.4,50.5v3.8c-0.5-0.6-1.1-0.9-2-0.9c-1.8,0-2.9,1.6-2.9,3.9c0,2.3,0.9,3.8,2.8,3.8c0.8,0,1.5-0.3,2.1-1.1
	l0.1,1h1V50.7L1087.4,50.5z M1085.7,54.4c0.7,0,1.3,0.4,1.7,1V59c-0.4,0.6-1,1.2-1.8,1.2c-1.2,0-1.8-1-1.8-2.9
	C1083.8,55.4,1084.5,54.4,1085.7,54.4z M1093.9,60.2c-0.9,0-1.7-0.3-2.2-0.8l-0.7,0.8c0.6,0.5,1.5,1,2.9,1c1.6,0,3.1-0.6,3.1-2.2
	c0-1.4-0.9-1.9-2.4-2.3c-1.5-0.4-1.9-0.6-1.9-1.3c0-0.6,0.4-1,1.6-1c0.9,0,1.6,0.3,2.1,0.7l0.5-0.8c-0.6-0.4-1.5-0.8-2.7-0.8
	c-1.7,0-2.8,0.8-2.8,2c0,1.3,1,1.8,2.5,2.1c1.6,0.4,1.8,0.7,1.8,1.4C1095.7,59.7,1095,60.2,1093.9,60.2z"/>
<path class="st0" d="M1043.2,160.1c0-4-2.3-4.8-4.5-4.8h-2.1v9.6h2.2C1040.8,165,1043.2,164.2,1043.2,160.1z M1041.8,160.1
	c0,3.2-1.5,3.9-2.9,3.9h-1.2v-7.7h1.1C1040.2,156.3,1041.8,156.8,1041.8,160.1z M1050.5,163.4v-3.5c0-1.5-0.9-2.4-2.8-2.4
	c-0.7,0-1.5,0.1-2.4,0.5l0.3,0.9c0.8-0.3,1.4-0.4,1.9-0.4c1.1,0,1.8,0.4,1.8,1.5v0.6h-1.1c-2.2,0-3.4,0.9-3.4,2.4
	c0,1.4,0.9,2.3,2.4,2.3c1,0,1.8-0.4,2.3-1c0.2,0.7,0.7,1,1.4,1.1l0.3-0.8C1050.7,164.2,1050.5,164,1050.5,163.4z M1047.4,164.3
	c-1,0-1.4-0.5-1.4-1.4c0-1,0.6-1.5,2.2-1.5h1.1v1.9C1048.9,163.9,1048.2,164.3,1047.4,164.3z M1056.1,164.2c-0.9,0-1.7-0.3-2.2-0.8
	l-0.7,0.8c0.6,0.5,1.5,1,2.9,1c1.6,0,3.1-0.6,3.1-2.2c0-1.4-0.9-1.9-2.4-2.3c-1.5-0.4-1.9-0.6-1.9-1.3c0-0.6,0.4-1,1.6-1
	c1,0,1.6,0.3,2.1,0.7l0.5-0.8c-0.6-0.4-1.5-0.8-2.7-0.8c-1.7,0-2.8,0.8-2.8,2c0,1.3,1,1.8,2.5,2.1c1.6,0.4,1.8,0.7,1.8,1.4
	C1057.9,163.7,1057.2,164.2,1056.1,164.2z M1063.2,154.5l-1.2,0.1V165h1.2v-5.4c0.4-0.6,1.2-1.2,2-1.2c0.9,0,1.3,0.4,1.3,1.3v5.3
	h1.2v-5.3c0-1.4-0.6-2.2-2.1-2.2c-0.9,0-1.8,0.4-2.4,1.2V154.5z M1071.6,158.6v-4.1l-1.2,0.1V165h1l0.1-0.8c0.5,0.6,1.2,0.9,2,0.9
	c1.9,0,2.9-1.6,2.9-3.9c0-2.3-0.8-3.8-2.8-3.8C1072.8,157.5,1072.1,157.9,1071.6,158.6z M1073.2,164.2c-0.7,0-1.3-0.3-1.7-1v-3.7
	c0.4-0.6,1-1.2,1.8-1.2c1.1,0,1.8,1,1.8,2.9C1075.2,163.3,1074.5,164.2,1073.2,164.2z M1081.6,157.5c-2.1,0-3.2,1.6-3.2,3.8
	c0,2.3,1.1,3.8,3.2,3.8c2.1,0,3.2-1.6,3.2-3.9C1084.8,159,1083.7,157.5,1081.6,157.5z M1081.6,158.4c1.3,0,1.9,0.9,1.9,2.9
	c0,2-0.6,2.9-1.9,2.9c-1.3,0-1.9-0.9-1.9-2.9C1079.7,159.4,1080.3,158.4,1081.6,158.4z M1092.5,163.4v-3.5c0-1.5-0.9-2.4-2.8-2.4
	c-0.7,0-1.5,0.1-2.4,0.5l0.3,0.9c0.8-0.3,1.4-0.4,1.9-0.4c1.1,0,1.8,0.4,1.8,1.5v0.6h-1.1c-2.2,0-3.4,0.9-3.4,2.4
	c0,1.4,0.9,2.3,2.4,2.3c0.9,0,1.8-0.4,2.3-1c0.2,0.7,0.7,1,1.3,1.1l0.3-0.8C1092.7,164.2,1092.5,164,1092.5,163.4z M1089.4,164.3
	c-1,0-1.4-0.5-1.4-1.4c0-1,0.6-1.5,2.2-1.5h1.1v1.9C1090.8,163.9,1090.1,164.3,1089.4,164.3z M1100.6,157.5c-1.3,0-2.1,0.7-2.7,1.9
	l-0.2-1.8h-2v0.9h1.2v5.6h-1.2v0.9h3.8v-0.9h-1.5V161c0.5-1.6,1.3-2.4,2.4-2.4h0.1v1.6h1l0.2-2.5
	C1101.3,157.5,1101,157.5,1100.6,157.5z M1108.4,154.5v3.8c-0.5-0.6-1.1-0.9-2-0.9c-1.8,0-2.9,1.6-2.9,3.8c0,2.3,0.9,3.8,2.8,3.8
	c0.8,0,1.5-0.4,2.1-1.1l0.1,1h1v-10.3L1108.4,154.5z M1106.7,158.4c0.7,0,1.3,0.4,1.7,1v3.7c-0.4,0.6-1,1.2-1.8,1.2
	c-1.2,0-1.8-1-1.8-2.9C1104.8,159.4,1105.5,158.4,1106.7,158.4z M1114.9,164.2c-0.9,0-1.7-0.3-2.2-0.8l-0.7,0.8c0.6,0.5,1.5,1,2.9,1
	c1.6,0,3.1-0.6,3.1-2.2c0-1.4-0.9-1.9-2.4-2.3c-1.5-0.4-1.9-0.6-1.9-1.3c0-0.6,0.4-1,1.6-1c1,0,1.6,0.3,2.1,0.7l0.5-0.8
	c-0.6-0.4-1.5-0.8-2.7-0.8c-1.7,0-2.8,0.8-2.8,2c0,1.3,1,1.8,2.5,2.1c1.6,0.4,1.8,0.7,1.8,1.4C1116.7,163.7,1116,164.2,1114.9,164.2
	z"/>
<path class="st0" d="M1058.8,274.5l0.8,2.5h1.3l-3.1-9.6h-1.5l-3.2,9.6h1.2l0.8-2.5H1058.8z M1055.3,273.5l1.6-5.1l1.6,5.1H1055.3z
	 M1065.4,266.7h-3.4v0.9h2.3v7.5c0,1.3,0.9,2,2.2,2c0.8,0,1.4-0.2,1.8-0.4l-0.3-0.9c-0.4,0.2-0.8,0.3-1.2,0.3c-0.7,0-1.2-0.3-1.2-1
	V266.7z M1071.8,273.7h5c0-0.2,0-0.4,0-0.6c0-2.2-1.1-3.6-3-3.6c-2,0-3.2,1.6-3.2,3.9c0,2.3,1.2,3.8,3.4,3.8c0.9,0,1.8-0.3,2.5-0.9
	l-0.5-0.8c-0.7,0.4-1.2,0.7-2,0.7C1072.8,276.2,1071.9,275.4,1071.8,273.7z M1073.8,270.4c1.1,0,1.8,0.8,1.8,2.4h-3.8
	C1071.9,271.2,1072.7,270.4,1073.8,270.4z M1084.3,269.5c-1.3,0-2.1,0.7-2.7,1.9l-0.2-1.8h-2v0.9h1.2v5.6h-1.2v0.9h3.8v-0.9h-1.5
	V273c0.5-1.6,1.3-2.4,2.4-2.4h0.1v1.6h0.9l0.2-2.5C1085,269.5,1084.7,269.5,1084.3,269.5z M1093.5,276.6l-0.5-0.8
	c-0.4,0.2-0.9,0.4-1.4,0.4c-1,0-1.4-0.4-1.4-1.2v-4.4h2.4l0.2-0.9h-2.6v-1.8l-1.2,0.1v1.7h-1.7v0.9h1.7v4.4c0,1.3,0.9,2.2,2.5,2.2
	C1092.2,277.2,1093,277,1093.5,276.6z M1098.6,276.2c-0.9,0-1.7-0.3-2.2-0.8l-0.7,0.8c0.6,0.5,1.5,1,2.9,1c1.6,0,3.1-0.6,3.1-2.2
	c0-1.4-1-1.9-2.4-2.3c-1.5-0.4-2-0.6-2-1.3c0-0.6,0.4-1,1.6-1c1,0,1.6,0.3,2.1,0.7l0.5-0.8c-0.6-0.4-1.5-0.8-2.7-0.8
	c-1.7,0-2.8,0.8-2.8,2c0,1.3,1,1.8,2.5,2.1c1.6,0.4,1.8,0.7,1.8,1.4C1100.4,275.7,1099.7,276.2,1098.6,276.2z"/>
<path class="st0" d="M1166.2,42.6l-2.6-8.3h-1.3l3.2,9.6h1.3l3.2-9.6h-1.2L1166.2,42.6z M1174.6,33.2c-0.5,0-0.8,0.3-0.8,0.8
	c0,0.5,0.3,0.8,0.8,0.8c0.5,0,0.9-0.4,0.9-0.8C1175.5,33.5,1175.1,33.2,1174.6,33.2z M1175.5,36.6h-3.4v0.9h2.2v5.5h-2.3V44h5.5
	v-0.9h-2.1V36.6z M1182.7,43.2c-0.9,0-1.7-0.3-2.2-0.8l-0.7,0.8c0.6,0.5,1.5,1,2.9,1c1.6,0,3.1-0.6,3.1-2.2c0-1.4-1-1.9-2.4-2.3
	c-1.5-0.4-2-0.6-2-1.3c0-0.6,0.4-1,1.6-1c0.9,0,1.6,0.3,2.1,0.7l0.5-0.8c-0.6-0.4-1.5-0.8-2.7-0.8c-1.7,0-2.8,0.8-2.8,2
	c0,1.3,1,1.8,2.5,2.1c1.6,0.4,1.8,0.7,1.8,1.4C1184.5,42.7,1183.8,43.2,1182.7,43.2z M1189.8,36.6h-1.2V42c0,1.4,0.7,2.2,2.1,2.2
	c0.9,0,1.8-0.4,2.4-1.1l0.1,1h1v-7.4h-1.2v5.4c-0.4,0.6-1.2,1.2-2,1.2c-0.8,0-1.2-0.4-1.2-1.4V36.6z M1202.3,42.4v-3.5
	c0-1.5-0.9-2.4-2.8-2.4c-0.7,0-1.5,0.1-2.4,0.5l0.3,0.9c0.8-0.3,1.4-0.4,1.9-0.4c1.1,0,1.8,0.4,1.8,1.5v0.6h-1.1
	c-2.2,0-3.4,0.9-3.4,2.4c0,1.4,0.9,2.3,2.4,2.3c0.9,0,1.8-0.3,2.3-1c0.2,0.7,0.7,1,1.3,1l0.3-0.8C1202.4,43.2,1202.3,43,1202.3,42.4
	z M1199.2,43.3c-1,0-1.4-0.5-1.4-1.4c0-1,0.6-1.5,2.2-1.5h1.1v1.9C1200.6,42.9,1199.9,43.3,1199.2,43.3z M1208.2,33.7h-3.4v0.9h2.3
	v7.5c0,1.3,0.9,2,2.2,2c0.8,0,1.4-0.2,1.8-0.4l-0.3-0.9c-0.4,0.2-0.8,0.3-1.2,0.3c-0.7,0-1.2-0.3-1.2-1V33.7z M1214.1,40.1h4.9v-1
	h-4.9V40.1z M1162,50.2c-0.5,0-0.8,0.3-0.8,0.8c0,0.5,0.3,0.8,0.8,0.8c0.5,0,0.9-0.4,0.9-0.8C1162.9,50.5,1162.5,50.2,1162,50.2z
	 M1162.9,53.6h-3.4v0.9h2.2v5.5h-2.3V61h5.5v-0.9h-2.1V53.6z M1169.1,60l4.1-5.4v-0.9h-5.2v1h3.8l-4.1,5.4V61h5.4l0.1-1H1169.1z
	 M1181.3,59.4v-3.5c0-1.5-0.9-2.4-2.8-2.4c-0.7,0-1.5,0.1-2.4,0.5l0.3,0.9c0.8-0.3,1.4-0.4,1.9-0.4c1.1,0,1.8,0.4,1.8,1.5v0.6h-1.1
	c-2.2,0-3.4,0.9-3.4,2.4c0,1.4,0.9,2.3,2.4,2.3c1,0,1.8-0.3,2.3-1c0.2,0.7,0.7,1,1.3,1l0.3-0.8C1181.5,60.2,1181.3,60,1181.3,59.4z
	 M1178.2,60.3c-1,0-1.4-0.5-1.4-1.4c0-1,0.6-1.5,2.2-1.5h1.1v1.9C1179.7,59.9,1179,60.3,1178.2,60.3z M1190.2,60.6l-0.5-0.8
	c-0.4,0.2-0.9,0.3-1.4,0.3c-1,0-1.4-0.4-1.4-1.2v-4.4h2.4l0.2-0.9h-2.6v-1.8l-1.2,0.1v1.7h-1.7v0.9h1.7v4.4c0,1.3,0.9,2.2,2.5,2.2
	C1189,61.2,1189.7,61,1190.2,60.6z M1195.6,50.2c-0.5,0-0.8,0.3-0.8,0.8c0,0.5,0.3,0.8,0.8,0.8s0.9-0.4,0.9-0.8
	C1196.4,50.5,1196.1,50.2,1195.6,50.2z M1196.5,53.6h-3.4v0.9h2.2v5.5h-2.3V61h5.5v-0.9h-2.1V53.6z M1204,53.5
	c-2.1,0-3.2,1.6-3.2,3.9c0,2.3,1.1,3.8,3.2,3.8c2.1,0,3.2-1.6,3.2-3.8C1207.2,55,1206.1,53.5,1204,53.5z M1204,54.4
	c1.3,0,1.9,0.9,1.9,2.9c0,2-0.6,2.9-1.9,2.9c-1.3,0-1.9-0.9-1.9-2.9S1202.7,54.4,1204,54.4z M1209.6,61h1.2v-5.4
	c0.4-0.6,1.1-1.2,2-1.2c1.1,0,1.3,0.6,1.3,2.1V61h1.2v-5.3c0-1.4-0.6-2.2-2.1-2.2c-0.9,0-1.8,0.4-2.4,1.2l-0.1-1h-1V61z
	 M1220.5,60.2c-0.9,0-1.7-0.3-2.2-0.8l-0.7,0.8c0.6,0.5,1.5,1,2.9,1c1.6,0,3.1-0.6,3.1-2.2c0-1.4-0.9-1.9-2.4-2.3
	c-1.5-0.4-2-0.6-2-1.3c0-0.6,0.4-1,1.6-1c1,0,1.6,0.3,2.1,0.7l0.5-0.8c-0.6-0.4-1.5-0.8-2.7-0.8c-1.7,0-2.8,0.8-2.8,2
	c0,1.3,1,1.8,2.5,2.1c1.6,0.4,1.8,0.7,1.8,1.4C1222.3,59.7,1221.6,60.2,1220.5,60.2z"/>
<path class="st0" d="M1152.4,153.4h4.1l0.1-1h-5.5v9.6h5.6v-1h-4.4v-3.4h3.6v-1h-3.6V153.4z M1159.2,162h1.2v-5.4
	c0.4-0.6,1.1-1.2,2-1.2c1.1,0,1.3,0.6,1.3,2.1v4.5h1.2v-5.3c0-1.4-0.6-2.2-2.1-2.2c-0.9,0-1.8,0.4-2.4,1.2l-0.1-1h-1V162z
	 M1173.5,161.6l-0.5-0.8c-0.4,0.2-0.9,0.3-1.4,0.3c-1,0-1.4-0.4-1.4-1.2v-4.4h2.4l0.2-0.9h-2.6v-1.8l-1.2,0.1v1.7h-1.7v0.9h1.7v4.4
	c0,1.3,0.9,2.2,2.5,2.2C1172.2,162.2,1172.9,162,1173.5,161.6z M1176.9,158.7h4.9c0-0.2,0-0.4,0-0.6c0-2.2-1.2-3.6-3-3.6
	c-2,0-3.2,1.6-3.2,3.8c0,2.3,1.2,3.8,3.4,3.8c0.9,0,1.8-0.3,2.5-0.9l-0.5-0.8c-0.7,0.4-1.2,0.7-2,0.7
	C1177.9,161.2,1177,160.4,1176.9,158.7z M1178.9,155.4c1.1,0,1.8,0.8,1.8,2.4h-3.8C1177,156.2,1177.8,155.4,1178.9,155.4z
	 M1189.4,154.5c-1.3,0-2.1,0.7-2.7,1.9l-0.2-1.8h-2.1v0.9h1.2v5.6h-1.2v0.9h3.8v-0.9h-1.5V158c0.5-1.6,1.3-2.4,2.4-2.4h0.1v1.6h0.9
	l0.2-2.5C1190.1,154.5,1189.8,154.5,1189.4,154.5z M1196.1,154.5c-0.9,0-1.7,0.4-2.2,1.2l-0.1-1h-1V165l1.2-0.1v-3.5
	c0.5,0.6,1.2,0.8,2,0.8c1.9,0,2.8-1.6,2.8-3.9C1198.8,156,1198,154.5,1196.1,154.5z M1195.8,155.4c1.2,0,1.7,1,1.7,2.9
	c0,2-0.6,2.9-1.8,2.9c-0.7,0-1.3-0.3-1.7-0.9v-3.7C1194.4,156,1195,155.4,1195.8,155.4z M1206.2,154.5c-1.3,0-2.1,0.7-2.7,1.9
	l-0.2-1.8h-2.1v0.9h1.2v5.6h-1.2v0.9h3.8v-0.9h-1.5V158c0.5-1.6,1.3-2.4,2.4-2.4h0.1v1.6h1l0.2-2.5
	C1206.9,154.5,1206.6,154.5,1206.2,154.5z M1212.4,151.2c-0.5,0-0.8,0.4-0.8,0.8s0.3,0.8,0.8,0.8s0.9-0.4,0.9-0.8
	S1212.9,151.2,1212.4,151.2z M1213.3,154.6h-3.4v0.9h2.2v5.5h-2.3v0.9h5.5v-0.9h-2.1V154.6z M1220.5,161.2c-0.9,0-1.7-0.3-2.2-0.8
	l-0.7,0.8c0.6,0.5,1.5,1,2.9,1c1.6,0,3.1-0.6,3.1-2.2c0-1.4-0.9-1.9-2.4-2.3c-1.5-0.4-2-0.6-2-1.3c0-0.6,0.4-1,1.6-1
	c1,0,1.6,0.3,2.1,0.7l0.5-0.8c-0.6-0.4-1.5-0.8-2.7-0.8c-1.7,0-2.8,0.8-2.8,2c0,1.3,1,1.8,2.5,2.1c1.6,0.4,1.8,0.7,1.8,1.4
	C1222.3,160.7,1221.6,161.2,1220.5,161.2z M1227.3,158.7h5c0-0.2,0-0.4,0-0.6c0-2.2-1.2-3.6-3-3.6c-2,0-3.2,1.6-3.2,3.8
	c0,2.3,1.2,3.8,3.4,3.8c0.9,0,1.8-0.3,2.5-0.9l-0.5-0.8c-0.7,0.4-1.2,0.7-2,0.7C1228.3,161.2,1227.3,160.4,1227.3,158.7z
	 M1229.3,155.4c1.1,0,1.8,0.8,1.8,2.4h-3.8C1227.4,156.2,1228.2,155.4,1229.3,155.4z M1180.7,176.5l0.8,2.5h1.3l-3.1-9.6h-1.5
	l-3.2,9.6h1.2l0.8-2.5H1180.7z M1177.2,175.5l1.6-5.1l1.6,5.1H1177.2z M1187.7,171.5c-0.9,0-1.7,0.4-2.2,1.2l-0.1-1h-1V182l1.2-0.1
	v-3.5c0.5,0.6,1.1,0.8,2,0.8c1.9,0,2.8-1.6,2.8-3.9C1190.4,173,1189.7,171.5,1187.7,171.5z M1187.4,172.4c1.2,0,1.7,1,1.7,2.9
	c0,2-0.6,2.9-1.8,2.9c-0.7,0-1.3-0.3-1.7-0.9v-3.7C1186,173,1186.6,172.4,1187.4,172.4z M1196.1,171.5c-0.9,0-1.7,0.4-2.2,1.2
	l-0.1-1h-1V182l1.2-0.1v-3.5c0.5,0.6,1.2,0.8,2,0.8c1.9,0,2.8-1.6,2.8-3.9C1198.8,173,1198,171.5,1196.1,171.5z M1195.8,172.4
	c1.2,0,1.7,1,1.7,2.9c0,2-0.6,2.9-1.8,2.9c-0.7,0-1.3-0.3-1.7-0.9v-3.7C1194.4,173,1195,172.4,1195.8,172.4z M1203.7,178.2
	c-0.9,0-1.6-0.3-2.2-0.8l-0.7,0.8c0.6,0.5,1.5,1,2.9,1c1.6,0,3.1-0.6,3.1-2.2c0-1.4-1-1.9-2.4-2.3c-1.5-0.4-1.9-0.6-1.9-1.3
	c0-0.6,0.4-1,1.6-1c0.9,0,1.6,0.3,2.1,0.7l0.5-0.8c-0.6-0.4-1.5-0.8-2.7-0.8c-1.7,0-2.8,0.8-2.8,2c0,1.3,1,1.8,2.5,2.1
	c1.6,0.4,1.8,0.7,1.8,1.4C1205.5,177.7,1204.8,178.2,1203.7,178.2z"/>
<path class="st0" d="M1168.9,257.4h-4.1v1h2.9v5.4c0,1.5-0.8,2.4-2.1,2.4c-0.6,0-1.3-0.1-2.1-0.7l-0.5,0.8c0.8,0.6,1.7,0.9,2.6,0.9
	c2.5,0,3.3-1.8,3.3-3.4V257.4z M1173,259.6h-1.2v5.4c0,1.4,0.7,2.2,2.1,2.2c0.9,0,1.8-0.4,2.4-1.1l0.1,1h1v-7.4h-1.2v5.4
	c-0.4,0.6-1.2,1.2-2,1.2c-0.8,0-1.2-0.4-1.2-1.4V259.6z M1183.5,259.5c-0.9,0-1.7,0.4-2.2,1.2l-0.1-1h-1V270l1.2-0.1v-3.5
	c0.5,0.6,1.2,0.8,2,0.8c1.9,0,2.8-1.6,2.8-3.9C1186.2,261,1185.4,259.5,1183.5,259.5z M1183.2,260.4c1.2,0,1.7,1,1.7,2.9
	c0,2-0.6,2.9-1.8,2.9c-0.7,0-1.3-0.4-1.7-0.9v-3.7C1181.8,261,1182.4,260.4,1183.2,260.4z M1194.7,259.6h-1.2l-2.1,6.5l-2.1-6.5
	h-1.2l2.6,7.4h0.4c-0.4,1.1-0.8,1.8-2.3,2l0.2,0.9c2-0.2,2.8-1.4,3.3-2.9L1194.7,259.6z M1202.8,266.6l-0.5-0.8
	c-0.4,0.2-0.9,0.4-1.4,0.4c-1,0-1.4-0.4-1.4-1.2v-4.4h2.4l0.2-0.9h-2.6v-1.8l-1.2,0.1v1.7h-1.7v0.9h1.7v4.4c0,1.3,0.9,2.2,2.5,2.2
	C1201.6,267.2,1202.3,267,1202.8,266.6z M1206.3,263.7h4.9c0-0.2,0-0.4,0-0.6c0-2.2-1.2-3.6-3-3.6c-2,0-3.2,1.6-3.2,3.9
	c0,2.3,1.2,3.8,3.4,3.8c0.9,0,1.8-0.3,2.5-0.9l-0.5-0.8c-0.7,0.4-1.2,0.7-2,0.7C1207.3,266.2,1206.4,265.4,1206.3,263.7z
	 M1208.3,260.4c1.1,0,1.8,0.8,1.8,2.4h-3.8C1206.4,261.2,1207.2,260.4,1208.3,260.4z M1218.8,259.5c-1.3,0-2.1,0.7-2.7,1.9l-0.2-1.8
	h-2.1v0.9h1.2v5.6h-1.2v0.9h3.8v-0.9h-1.5V263c0.5-1.6,1.3-2.4,2.4-2.4h0.1v1.6h1l0.2-2.5C1219.5,259.5,1219.2,259.5,1218.8,259.5z
	 M1159.1,284h1.7v-9.6h-1.1v4.8c0,1.7,0.2,3.3,0.2,3.7l-3.4-8.5h-1.7v9.6h1.1v-4.8c0-1.5-0.1-3.2-0.2-3.6L1159.1,284z M1166.2,276.5
	c-2.1,0-3.2,1.6-3.2,3.9c0,2.3,1.1,3.8,3.2,3.8c2.1,0,3.2-1.6,3.2-3.9C1169.4,278,1168.3,276.5,1166.2,276.5z M1166.2,277.4
	c1.3,0,1.9,0.9,1.9,2.9c0,2-0.6,2.9-1.9,2.9c-1.3,0-1.9-0.9-1.9-2.9C1164.3,278.4,1164.9,277.4,1166.2,277.4z M1177.7,283.6
	l-0.5-0.8c-0.4,0.2-0.9,0.4-1.4,0.4c-1,0-1.4-0.4-1.4-1.2v-4.4h2.4l0.2-0.9h-2.6v-1.8l-1.2,0.1v1.7h-1.7v0.9h1.7v4.4
	c0,1.3,0.9,2.2,2.5,2.2C1176.4,284.2,1177.1,284,1177.7,283.6z M1181.1,280.7h5c0-0.2,0-0.4,0-0.6c0-2.2-1.2-3.6-3-3.6
	c-2,0-3.2,1.6-3.2,3.9c0,2.3,1.2,3.8,3.4,3.8c0.9,0,1.8-0.3,2.5-0.9l-0.6-0.8c-0.7,0.4-1.2,0.7-2,0.7
	C1182.1,283.2,1181.2,282.4,1181.1,280.7z M1183.1,277.4c1.1,0,1.8,0.8,1.8,2.4h-3.8C1181.2,278.2,1182,277.4,1183.1,277.4z
	 M1189.8,277.6v-4.1l-1.2,0.1V284h1l0.1-0.8c0.5,0.6,1.2,0.9,2,0.9c1.9,0,2.9-1.6,2.9-3.9c0-2.3-0.8-3.8-2.8-3.8
	C1191,276.5,1190.3,276.9,1189.8,277.6z M1191.4,283.2c-0.7,0-1.3-0.4-1.7-1v-3.7c0.4-0.6,1-1.2,1.8-1.2c1.2,0,1.8,1,1.8,2.9
	C1193.3,282.3,1192.7,283.2,1191.4,283.2z M1199.8,276.5c-2.1,0-3.2,1.6-3.2,3.9c0,2.3,1.1,3.8,3.2,3.8c2.1,0,3.2-1.6,3.2-3.9
	C1202.9,278,1201.9,276.5,1199.8,276.5z M1199.8,277.4c1.3,0,1.9,0.9,1.9,2.9c0,2-0.6,2.9-1.9,2.9c-1.3,0-1.9-0.9-1.9-2.9
	C1197.9,278.4,1198.5,277.4,1199.8,277.4z M1208.2,276.5c-2.1,0-3.2,1.6-3.2,3.9c0,2.3,1.1,3.8,3.2,3.8c2.1,0,3.2-1.6,3.2-3.9
	C1211.3,278,1210.2,276.5,1208.2,276.5z M1208.2,277.4c1.3,0,1.9,0.9,1.9,2.9c0,2-0.6,2.9-1.9,2.9c-1.3,0-1.9-0.9-1.9-2.9
	C1206.3,278.4,1206.9,277.4,1208.2,277.4z M1215,273.5l-1.2,0.1V284h1.2V273.5z M1219.9,276.6h-1.5l-3.3,3.3l3.6,4h1.5l-3.7-4
	L1219.9,276.6z M1224.7,283.2c-0.9,0-1.7-0.3-2.2-0.8l-0.7,0.8c0.6,0.5,1.5,1,2.9,1c1.6,0,3.1-0.6,3.1-2.2c0-1.4-1-1.9-2.4-2.3
	c-1.5-0.4-1.9-0.6-1.9-1.3c0-0.6,0.4-1,1.6-1c0.9,0,1.6,0.3,2.1,0.7l0.5-0.8c-0.6-0.4-1.5-0.8-2.7-0.8c-1.7,0-2.8,0.8-2.8,2
	c0,1.3,1,1.8,2.5,2.1c1.6,0.4,1.8,0.7,1.8,1.4C1226.5,282.7,1225.8,283.2,1224.7,283.2z"/>
<path class="st5" d="M247.7,55.2c-2.6,0-4.5,1.4-4.5,3.6c0,1.9,1,3,3.8,3.9c1.8,0.6,2.3,1,2.3,1.9c0,1-0.8,1.5-2,1.5
	c-1.2,0-2.2-0.4-3.2-1.2l-1.5,1.6c1,1,2.6,1.8,4.7,1.8c3.1,0,4.9-1.6,4.9-3.9c0-2.3-1.4-3.3-3.7-4c-1.9-0.6-2.4-0.9-2.4-1.7
	s0.6-1.2,1.7-1.2c1,0,1.9,0.3,2.7,1l1.4-1.6C250.9,55.8,249.6,55.2,247.7,55.2z M258.9,65.7c-0.4,0.2-0.7,0.3-1,0.3
	c-0.6,0-0.9-0.3-0.9-1.2v-4.4h1.9l0.3-2H257V56l-2.8,0.3v2.1h-1.4v2h1.4v4.4c0,2.2,1,3.4,3.1,3.5c0.9,0,1.9-0.3,2.6-0.8L258.9,65.7z
	 M266,58.2c-1.1,0-2,0.8-2.5,2.1l-0.2-1.8h-2.5V68h2.8v-4.8c0.3-1.4,0.8-2.3,2-2.3c0.3,0,0.6,0.1,0.9,0.1l0.5-2.8
	C266.7,58.2,266.4,58.2,266,58.2z M276.2,63c0-3.1-1.7-4.9-4.4-4.9c-2.9,0-4.5,2.3-4.5,5.1c0,3,1.6,5,4.8,5c1.5,0,2.8-0.6,3.7-1.3
	l-1.2-1.6c-0.8,0.6-1.5,0.8-2.3,0.8c-1.2,0-2-0.5-2.2-2.2h5.9C276.2,63.8,276.2,63.3,276.2,63z M273.4,62.3h-3.2
	c0.1-1.7,0.7-2.3,1.6-2.3c1.1,0,1.5,0.9,1.5,2.2V62.3z M285.5,65.2v-3.7c0-2.2-1.2-3.4-4-3.4c-1.1,0-2.4,0.3-3.6,0.7l0.6,1.9
	c1-0.3,1.9-0.5,2.5-0.5c1.2,0,1.6,0.3,1.6,1.5v0.4h-1c-2.9,0-4.5,1.1-4.5,3.2c0,1.7,1.2,3,3.1,3c1.1,0,2.2-0.4,2.9-1.4
	c0.4,0.9,1.2,1.3,2.3,1.4l0.6-1.9C285.7,66.2,285.5,66,285.5,65.2z M281.2,66.3c-0.7,0-1.1-0.5-1.1-1.2c0-1,0.6-1.4,1.9-1.4h0.7v1.7
	C282.3,65.9,281.8,66.3,281.2,66.3z M298.3,58.1c-1.2,0-2.1,0.5-2.9,1.5c-0.4-1-1.2-1.5-2.2-1.5c-1.2,0-2,0.5-2.8,1.4l-0.2-1.1h-2.5
	V68h2.8v-6.5c0.4-0.8,0.9-1.2,1.5-1.2c0.4,0,0.8,0.3,0.8,1.3V68h2.8v-6.5c0.4-0.8,0.8-1.2,1.5-1.2c0.4,0,0.8,0.3,0.8,1.3V68h2.8v-7
	C300.8,59.2,299.8,58.1,298.3,58.1z M306.3,58.1c-2.4,0-3.9,1.3-3.9,2.9c0,1.5,0.9,2.4,2.8,3c1.7,0.5,2,0.7,2,1.3
	c0,0.6-0.5,0.9-1.4,0.9c-0.9,0-1.8-0.4-2.5-0.9l-1.4,1.5c0.9,0.8,2.3,1.4,4,1.4c2.4,0,4.2-1.2,4.2-3.2c0-1.7-1.1-2.5-3-3
	c-1.7-0.5-2-0.7-2-1.2c0-0.4,0.4-0.7,1.2-0.7c0.8,0,1.6,0.3,2.4,0.7l1-1.6C308.9,58.6,307.7,58.1,306.3,58.1z"/>
<path class="st5" d="M251.1,274.4c1.2-0.3,2.3-1.1,2.3-2.7c0-2.3-2.1-3.2-5.4-3.2h-3.5V281h4c3.1,0,5.4-0.8,5.4-3.6
	C253.9,275.3,252.5,274.7,251.1,274.4z M248.3,270.6c1.4,0,2.1,0.3,2.1,1.4s-0.6,1.5-1.9,1.5h-1.1v-2.9H248.3z M248.5,278.9h-1.1
	v-3.4h1.3c1.3,0,2.2,0.5,2.2,1.7C250.9,278.6,249.9,278.9,248.5,278.9z M263.1,278.2v-3.7c0-2.2-1.2-3.4-4-3.4
	c-1.1,0-2.4,0.3-3.6,0.7l0.6,1.9c1-0.3,1.9-0.5,2.5-0.5c1.2,0,1.6,0.3,1.6,1.5v0.4h-1c-2.9,0-4.5,1.1-4.5,3.2c0,1.7,1.2,3,3.1,3
	c1.1,0,2.2-0.4,2.9-1.4c0.4,0.9,1.2,1.3,2.3,1.4l0.6-1.9C263.3,279.2,263.1,279,263.1,278.2z M258.8,279.3c-0.7,0-1.1-0.5-1.1-1.2
	c0-1,0.6-1.4,1.9-1.4h0.7v1.7C260,278.9,259.5,279.3,258.8,279.3z M270.4,278.7c-0.4,0.2-0.7,0.3-1,0.3c-0.6,0-0.9-0.3-0.9-1.2v-4.4
	h1.9l0.3-2h-2.2V269l-2.8,0.3v2.1h-1.4v2h1.4v4.4c0,2.2,1,3.4,3.1,3.5c0.9,0,1.9-0.3,2.6-0.8L270.4,278.7z M276.3,271.1
	c-2.9,0-4.7,2.1-4.7,5.2c0,3,1.8,5,4.7,5c1.3,0,2.3-0.4,3.2-1.1l-1.2-1.8c-0.7,0.4-1.2,0.6-1.8,0.6c-1.1,0-1.9-0.6-1.9-2.8
	c0-2.1,0.7-3,1.9-3c0.6,0,1.2,0.2,1.8,0.7l1.2-1.7C278.6,271.5,277.6,271.1,276.3,271.1z M286.4,271.1c-1.1,0-2,0.5-2.8,1.3v-5.1
	l-2.8,0.3V281h2.8v-6.6c0.5-0.8,1-1.2,1.7-1.2c0.5,0,0.9,0.3,0.9,1.3v6.5h2.8v-7C289,272.2,288,271.1,286.4,271.1z M299.5,276
	c0-3.1-1.7-4.9-4.4-4.9c-2.9,0-4.5,2.3-4.5,5.1c0,3,1.6,5,4.8,5c1.5,0,2.8-0.6,3.7-1.3l-1.2-1.6c-0.8,0.6-1.5,0.8-2.3,0.8
	c-1.2,0-2-0.5-2.2-2.2h5.9C299.5,276.8,299.5,276.3,299.5,276z M296.7,275.3h-3.2c0.1-1.7,0.7-2.3,1.6-2.3c1.1,0,1.5,0.9,1.5,2.2
	V275.3z M304.5,271.1c-2.4,0-3.9,1.3-3.9,2.9c0,1.5,0.9,2.4,2.8,3c1.7,0.5,2,0.7,2,1.3c0,0.6-0.5,0.9-1.4,0.9
	c-0.9,0-1.8-0.4-2.5-0.9l-1.4,1.5c0.9,0.8,2.3,1.4,4,1.4c2.4,0,4.2-1.2,4.2-3.1c0-1.7-1.1-2.5-3-3c-1.7-0.5-2-0.7-2-1.2
	c0-0.4,0.4-0.7,1.2-0.7c0.8,0,1.6,0.3,2.4,0.7l1-1.6C307.1,271.6,305.9,271.1,304.5,271.1z"/>
<path class="st4" d="M31.3,140.5l0.8,2.5h1.3l-3.1-9.6h-1.5l-3.1,9.6h1.2l0.8-2.5H31.3z M27.8,139.5l1.6-5.1l1.6,5.1H27.8z
	 M40,135.5c-1.3,0-2.1,0.7-2.6,1.9l-0.2-1.8h-2v0.9h1.2v5.6h-1.2v0.9H39v-0.9h-1.5V139c0.5-1.6,1.3-2.4,2.4-2.4H40v1.6h1l0.2-2.5
	C40.8,135.5,40.5,135.5,40,135.5z M48.4,135.5c-1.3,0-2.1,0.7-2.6,1.9l-0.2-1.8h-2v0.9h1.2v5.6h-1.2v0.9h3.8v-0.9h-1.5V139
	c0.5-1.6,1.3-2.4,2.4-2.4h0.1v1.6h1l0.2-2.5C49.2,135.5,48.8,135.5,48.4,135.5z M54.7,135.5c-2.1,0-3.2,1.6-3.2,3.8
	c0,2.3,1.1,3.8,3.2,3.8c2.1,0,3.2-1.6,3.2-3.9C57.8,137,56.7,135.5,54.7,135.5z M54.7,136.4c1.3,0,1.9,0.9,1.9,2.9
	c0,2-0.6,2.9-1.9,2.9c-1.3,0-1.9-0.9-1.9-2.9C52.7,137.4,53.4,136.4,54.7,136.4z M65.7,143l1.3-7.4h-1.1l-1,6.7l-1.1-5.7h-1.4
	l-1.2,5.7l-1-6.7h-1.2l1.3,7.4H62l1-5.4l1,5.4H65.7z M78.8,134.4h4.3l0.1-1h-5.7v9.6h1.2v-4.3h3.8v-1h-3.8V134.4z M88.3,132.7h-3.4
	v0.9h2.3v7.5c0,1.3,0.9,2,2.2,2c0.8,0,1.4-0.2,1.8-0.4l-0.3-0.9c-0.4,0.2-0.8,0.3-1.2,0.3c-0.7,0-1.2-0.3-1.2-1V132.7z M96.6,132.2
	c-0.5,0-0.8,0.4-0.8,0.8s0.3,0.8,0.8,0.8c0.5,0,0.9-0.4,0.9-0.8S97.1,132.2,96.6,132.2z M97.6,135.6h-3.4v0.9h2.2v5.5h-2.3v0.9h5.5
	v-0.9h-2.1V135.6z M108.2,134.9c-0.9,0.4-1.5,0.6-3.4,0.6c-1.8,0-2.9,1.1-2.9,2.6c0,1,0.4,1.6,1.2,2c-0.5,0.4-0.8,0.8-0.8,1.3
	c0,0.7,0.6,1.4,1.9,1.4h1.3c0.9,0,1.7,0.4,1.7,1.1c0,0.8-0.7,1.2-2.3,1.2c-1.7,0-2-0.4-2-1.3h-1.1c0,1.5,0.8,2.2,3.1,2.2
	c2.2,0,3.5-0.8,3.5-2.2c0-1.1-1.1-2-2.6-2h-1.3c-0.8,0-1-0.3-1-0.6c0-0.3,0.2-0.5,0.4-0.7c0.3,0.1,0.6,0.2,1.1,0.2
	c1.8,0,2.8-1.1,2.8-2.5c0-0.8-0.4-1.5-1.3-1.9c0.8,0,1.5,0,2.2-0.2L108.2,134.9z M104.8,136.3c1.1,0,1.6,0.6,1.6,1.7
	c0,1.1-0.6,1.7-1.6,1.7c-1.2,0-1.8-0.7-1.8-1.7C103.1,137,103.7,136.3,104.8,136.3z M111.8,132.5l-1.2,0.1V143h1.2v-5.4
	c0.4-0.6,1.1-1.2,2-1.2c0.9,0,1.3,0.4,1.3,1.3v5.3h1.2v-5.3c0-1.4-0.6-2.2-2.1-2.2c-0.9,0-1.8,0.4-2.4,1.2V132.5z M124.9,142.6
	l-0.5-0.8c-0.4,0.2-0.9,0.3-1.4,0.3c-1,0-1.4-0.4-1.4-1.2v-4.4h2.4l0.2-0.9h-2.6v-1.8l-1.2,0.1v1.7h-1.7v0.9h1.7v4.4
	c0,1.3,0.9,2.2,2.5,2.2C123.6,143.2,124.4,143,124.9,142.6z M99.4,150.4h-4.1v1h2.9v5.4c0,1.5-0.8,2.4-2.1,2.4
	c-0.6,0-1.3-0.1-2.1-0.7l-0.5,0.8c0.8,0.6,1.7,0.9,2.6,0.9c2.5,0,3.3-1.8,3.3-3.4V150.4z M108.3,157.3c0-1.8-1.3-2.5-2.8-2.9
	c-1.8-0.5-2.4-1-2.4-1.8c0-1,0.9-1.4,1.9-1.4c0.8,0,1.6,0.3,2.3,0.9l0.7-0.8c-0.8-0.7-1.8-1.1-3.1-1.1c-1.8,0-3.1,1-3.1,2.5
	c0,1.5,1.2,2.2,3.1,2.8c1.7,0.5,2.1,0.9,2.1,1.9c0,1.2-1.1,1.8-2.2,1.8s-2-0.4-2.7-1l-0.7,0.8c0.8,0.8,2,1.2,3.4,1.2
	C107,160.2,108.3,159,108.3,157.3z M117,155.2c0-3-1.2-5-3.5-5c-2.3,0-3.5,2.1-3.5,5c0,3,1.2,5,3.5,5
	C115.7,160.2,117,158.1,117,155.2z M115.7,155.2c0,2.6-0.7,3.9-2.3,3.9c-1.6,0-2.3-1.4-2.3-3.9c0-2.6,0.7-4,2.3-4
	S115.7,152.6,115.7,155.2z M123.1,160h1.7v-9.6h-1.1v4.8c0,1.7,0.2,3.3,0.2,3.7l-3.5-8.5h-1.7v9.6h1.1v-4.8c0-1.5-0.1-3.2-0.2-3.6
	L123.1,160z M105.8,167.2c-2.2,0-4.1,1.7-4.1,5s1.8,5,4.2,5c1.4,0,2.3-0.5,2.9-1.1l-0.6-0.8c-0.5,0.4-1.2,0.8-2.2,0.8
	c-1.7,0-2.9-1.1-2.9-3.9c0-2.9,1.4-3.9,2.9-3.9c0.7,0,1.4,0.2,2,0.7l0.7-0.8C107.9,167.5,107.1,167.2,105.8,167.2z M117,172.1
	c0-4-2.3-4.8-4.5-4.8h-2.1v9.6h2.2C114.6,177,117,176.2,117,172.1z M115.7,172.1c0,3.2-1.5,3.9-2.9,3.9h-1.1v-7.7h1.1
	C114.1,168.3,115.7,168.8,115.7,172.1z M122.6,167.2c-2.2,0-4.1,1.7-4.1,5s1.8,5,4.2,5c1.4,0,2.3-0.5,2.9-1.1l-0.6-0.8
	c-0.5,0.4-1.2,0.8-2.2,0.8c-1.7,0-2.9-1.1-2.9-3.9c0-2.9,1.4-3.9,2.9-3.9c0.7,0,1.4,0.2,2,0.7l0.7-0.8
	C124.6,167.5,123.9,167.2,122.6,167.2z M46.3,192.6l-2.6-8.3h-1.3l3.2,9.6h1.3l3.2-9.6h-1.2L46.3,192.6z M52.8,190.7h5
	c0-0.2,0-0.4,0-0.6c0-2.2-1.1-3.6-3-3.6c-2,0-3.2,1.6-3.2,3.8c0,2.3,1.2,3.8,3.4,3.8c0.9,0,1.8-0.3,2.5-0.9l-0.5-0.8
	c-0.7,0.4-1.2,0.7-2,0.7C53.8,193.2,52.8,192.4,52.8,190.7z M54.8,187.4c1.1,0,1.8,0.8,1.8,2.4h-3.8
	C52.9,188.2,53.7,187.4,54.8,187.4z M60.2,194h1.2v-5.4c0.4-0.6,1.1-1.2,2-1.2c1.1,0,1.3,0.6,1.3,2.1v4.5h1.2v-5.3
	c0-1.4-0.6-2.2-2.1-2.2c-0.9,0-1.8,0.4-2.4,1.2l-0.1-1h-1V194z M73.1,183.5v3.8c-0.5-0.6-1.1-0.9-2-0.9c-1.8,0-2.9,1.6-2.9,3.8
	c0,2.3,0.9,3.8,2.8,3.8c0.8,0,1.5-0.4,2.1-1.1l0.1,1h1v-10.3L73.1,183.5z M71.4,187.4c0.7,0,1.3,0.4,1.7,1v3.7
	c-0.4,0.6-1,1.2-1.8,1.2c-1.2,0-1.8-1-1.8-2.9C69.5,188.4,70.2,187.4,71.4,187.4z M79.8,186.5c-2.1,0-3.2,1.6-3.2,3.8
	c0,2.3,1.1,3.8,3.2,3.8c2.1,0,3.2-1.6,3.2-3.9C83,188,81.9,186.5,79.8,186.5z M79.8,187.4c1.3,0,1.9,0.9,1.9,2.9
	c0,2-0.6,2.9-1.9,2.9c-1.3,0-1.9-0.9-1.9-2.9C77.9,188.4,78.6,187.4,79.8,187.4z M90.4,186.5c-1.3,0-2.1,0.7-2.6,1.9l-0.2-1.8h-2
	v0.9h1.2v5.6h-1.2v0.9h3.8v-0.9h-1.5V190c0.5-1.6,1.3-2.4,2.4-2.4h0.1v1.6h1l0.2-2.5C91.1,186.5,90.8,186.5,90.4,186.5z
	 M106.9,191.5l0.8,2.5h1.3l-3.1-9.6h-1.5l-3.2,9.6h1.2l0.8-2.5H106.9z M103.4,190.5l1.6-5.1l1.6,5.1H103.4z M117,187.3
	c0-2-1.4-3-3.7-3h-2.5v9.6h1.2v-3.6h1.2C115.5,190.4,117,189.6,117,187.3z M115.7,187.3c0,1.7-1,2.1-2.3,2.1H112v-4.1h1.4
	C114.7,185.3,115.7,185.9,115.7,187.3z M124.6,184.4H119v1h2.1v7.7H119v1h5.5v-1h-2.1v-7.7h2.1V184.4z M32.7,201.4H31l-1.5,6.6
	l-1.6-6.6h-1.7l-0.5,9.6h1.1l0.3-5c0.1-1.2,0.1-3,0-3.5l1.7,6.8h1.2l1.6-6.8c0,0.5,0,2.2,0.1,3.5l0.3,5h1.2L32.7,201.4z M40.4,209.4
	v-3.5c0-1.5-0.9-2.4-2.8-2.4c-0.7,0-1.5,0.1-2.4,0.5l0.3,0.9c0.8-0.3,1.4-0.4,1.9-0.4c1.1,0,1.8,0.4,1.8,1.5v0.6h-1.1
	c-2.2,0-3.4,0.9-3.4,2.4c0,1.4,0.9,2.3,2.4,2.3c1,0,1.8-0.4,2.3-1c0.2,0.7,0.7,1,1.3,1.1l0.3-0.8C40.5,210.2,40.4,210,40.4,209.4z
	 M37.3,210.3c-1,0-1.4-0.5-1.4-1.4c0-1,0.6-1.5,2.2-1.5h1.1v1.9C38.7,209.9,38,210.3,37.3,210.3z M43.5,211h1.2v-5.4
	c0.4-0.6,1.1-1.2,2-1.2c1.1,0,1.3,0.6,1.3,2.1v4.5h1.2v-5.3c0-1.4-0.6-2.2-2.1-2.2c-0.9,0-1.8,0.4-2.4,1.2l-0.1-1h-1V211z M53,203.6
	h-1.2v5.4c0,1.4,0.7,2.2,2.1,2.2c0.9,0,1.8-0.4,2.4-1.1l0.1,1h1v-7.4h-1.2v5.4c-0.4,0.6-1.2,1.2-2,1.2c-0.9,0-1.2-0.4-1.2-1.4V203.6
	z M65.5,209.4v-3.5c0-1.5-0.9-2.4-2.8-2.4c-0.7,0-1.5,0.1-2.4,0.5l0.3,0.9c0.8-0.3,1.4-0.4,1.9-0.4c1.1,0,1.8,0.4,1.8,1.5v0.6h-1.1
	c-2.2,0-3.4,0.9-3.4,2.4c0,1.4,0.9,2.3,2.4,2.3c1,0,1.8-0.4,2.3-1c0.2,0.7,0.7,1,1.3,1.1l0.3-0.8C65.7,210.2,65.5,210,65.5,209.4z
	 M62.5,210.3c-1,0-1.4-0.5-1.4-1.4c0-1,0.6-1.5,2.2-1.5h1.1v1.9C63.9,209.9,63.2,210.3,62.5,210.3z M71.5,200.7h-3.4v0.9h2.3v7.5
	c0,1.3,0.9,2,2.2,2c0.8,0,1.4-0.2,1.8-0.4l-0.3-0.9c-0.4,0.2-0.8,0.3-1.2,0.3c-0.7,0-1.2-0.3-1.2-1V200.7z M91,201.4h-5.5v1h2.1v7.7
	h-2.1v1H91v-1h-2.1v-7.7H91V201.4z M93.8,211H95v-5.4c0.4-0.6,1.1-1.2,2-1.2c1.1,0,1.3,0.6,1.3,2.1v4.5h1.2v-5.3
	c0-1.4-0.6-2.2-2.1-2.2c-0.9,0-1.8,0.4-2.4,1.2l-0.1-1h-1V211z M105.5,203.5c-0.9,0-1.7,0.4-2.2,1.2l-0.1-1h-1V214l1.2-0.1v-3.5
	c0.5,0.6,1.1,0.8,2,0.8c1.9,0,2.8-1.6,2.8-3.9C108.2,205,107.5,203.5,105.5,203.5z M105.2,204.4c1.2,0,1.7,1,1.7,2.9
	c0,2-0.6,2.9-1.8,2.9c-0.7,0-1.3-0.3-1.7-0.9v-3.7C103.8,205,104.4,204.4,105.2,204.4z M111.8,203.6h-1.2v5.4c0,1.4,0.7,2.2,2.1,2.2
	c0.9,0,1.8-0.4,2.4-1.1l0.1,1h1v-7.4H115v5.4c-0.4,0.6-1.2,1.2-2,1.2c-0.9,0-1.2-0.4-1.2-1.4V203.6z M124.9,210.6l-0.5-0.8
	c-0.4,0.2-0.9,0.3-1.4,0.3c-1,0-1.4-0.4-1.4-1.2v-4.4h2.4l0.2-0.9h-2.6v-1.8l-1.2,0.1v1.7h-1.7v0.9h1.7v4.4c0,1.3,0.9,2.2,2.5,2.2
	C123.6,211.2,124.4,211,124.9,210.6z"/>
<path class="st4" d="M86.7,45v-9.6h-1.2V45H86.7z M86.8,39.8l3.9,5.2h1.5l-4-5.2l3.8-4.4h-1.4L86.8,39.8z M99.1,43.4v-3.5
	c0-1.5-0.9-2.4-2.8-2.4c-0.7,0-1.5,0.1-2.4,0.5l0.3,0.9c0.8-0.3,1.4-0.4,1.9-0.4c1.1,0,1.8,0.4,1.8,1.5v0.6h-1.1
	c-2.2,0-3.4,0.9-3.4,2.4c0,1.4,0.9,2.3,2.4,2.3c1,0,1.8-0.3,2.3-1c0.2,0.7,0.7,1,1.3,1l0.3-0.8C99.3,44.2,99.1,44,99.1,43.4z
	 M96.1,44.3c-1,0-1.4-0.5-1.4-1.4c0-1,0.6-1.5,2.2-1.5h1.1v1.9C97.5,43.9,96.8,44.3,96.1,44.3z M106.6,34.5c-1.5,0-2.7,0.9-2.7,2.2
	v1.5h-1.8v0.9h1.8V45h1.2v-5.9h2.4l0.1-0.9h-2.5v-1.5c0-0.8,0.5-1.2,1.5-1.2c0.6,0,1.1,0.1,1.6,0.3l0.4-0.9
	C108,34.7,107.4,34.5,106.6,34.5z M111.9,34.5l-1.2,0.1V45h1.2V34.5z M116.8,37.6h-1.5L112,41l3.6,4h1.6l-3.7-4L116.8,37.6z
	 M124.3,43.4v-3.5c0-1.5-0.9-2.4-2.8-2.4c-0.7,0-1.5,0.1-2.4,0.5l0.3,0.9c0.8-0.3,1.4-0.4,1.9-0.4c1.1,0,1.8,0.4,1.8,1.5v0.6H122
	c-2.2,0-3.4,0.9-3.4,2.4c0,1.4,0.9,2.3,2.4,2.3c1,0,1.8-0.3,2.3-1c0.2,0.7,0.7,1,1.3,1l0.3-0.8C124.5,44.2,124.3,44,124.3,43.4z
	 M121.2,44.3c-1,0-1.4-0.5-1.4-1.4c0-1,0.6-1.5,2.2-1.5h1.1v1.9C122.7,43.9,122,44.3,121.2,44.3z M83.2,59.3c0-1.8-1.3-2.5-2.8-2.9
	c-1.8-0.5-2.4-1-2.4-1.8c0-1,0.9-1.4,1.9-1.4c0.8,0,1.6,0.3,2.3,0.9l0.7-0.8c-0.8-0.7-1.8-1.1-3.1-1.1c-1.8,0-3.1,1-3.1,2.5
	c0,1.5,1.2,2.2,3.1,2.8c1.7,0.5,2.1,0.9,2.1,1.9c0,1.2-1.1,1.8-2.2,1.8c-1.2,0-2-0.4-2.7-1l-0.7,0.8c0.8,0.8,2,1.2,3.4,1.2
	C81.9,62.2,83.2,61,83.2,59.3z M88.2,54.5c-2.1,0-3.2,1.6-3.2,3.9c0,2.3,1.1,3.8,3.2,3.8c2.1,0,3.2-1.6,3.2-3.8
	C91.4,56,90.3,54.5,88.2,54.5z M88.2,55.4c1.3,0,1.9,0.9,1.9,2.9c0,2-0.6,2.9-1.9,2.9c-1.3,0-1.9-0.9-1.9-2.9S87,55.4,88.2,55.4z
	 M96.7,51.7h-3.4v0.9h2.3v7.5c0,1.3,0.9,2,2.2,2c0.8,0,1.4-0.2,1.8-0.4l-0.3-0.9c-0.4,0.2-0.8,0.3-1.2,0.3c-0.7,0-1.2-0.3-1.2-1
	V51.7z M107.5,60.4v-3.5c0-1.5-0.9-2.4-2.8-2.4c-0.7,0-1.5,0.1-2.4,0.5l0.3,0.9c0.8-0.3,1.4-0.4,1.9-0.4c1.1,0,1.8,0.4,1.8,1.5v0.6
	h-1.1c-2.2,0-3.4,0.9-3.4,2.4c0,1.4,0.9,2.3,2.4,2.3c1,0,1.8-0.3,2.3-1c0.2,0.7,0.7,1,1.3,1l0.3-0.8C107.7,61.2,107.5,61,107.5,60.4
	z M104.5,61.3c-1,0-1.4-0.5-1.4-1.4c0-1,0.6-1.5,2.2-1.5h1.1v1.9C105.9,60.9,105.2,61.3,104.5,61.3z M114,61.1
	c-1.3,0-2.2-0.8-2.2-2.8c0-1.9,0.9-2.9,2.2-2.9c0.7,0,1.3,0.2,1.9,0.6l0.6-0.8c-0.7-0.6-1.5-0.9-2.5-0.9c-2.2,0-3.5,1.7-3.5,3.9
	c0,2.3,1.3,3.8,3.5,3.8c0.9,0,1.8-0.3,2.5-0.9l-0.6-0.8C115.3,60.9,114.7,61.1,114,61.1z M119.9,58.7h5c0-0.2,0-0.4,0-0.6
	c0-2.2-1.1-3.6-3-3.6c-2,0-3.2,1.6-3.2,3.9c0,2.3,1.2,3.8,3.4,3.8c0.9,0,1.8-0.3,2.5-0.9l-0.5-0.8c-0.7,0.4-1.2,0.7-2,0.7
	C121,61.2,120,60.4,119.9,58.7z M121.9,55.4c1.1,0,1.8,0.8,1.8,2.4h-3.8C120,56.2,120.8,55.4,121.9,55.4z M16,72.1
	c0-1.8-1.2-2.7-3.6-2.7H9.9V79h1.2v-4.1h1.3l2.6,4.1h1.5l-2.9-4.3C15,74.4,16,73.5,16,72.1z M14.7,72.1c0,1.3-0.8,1.8-2.2,1.8h-1.4
	v-3.6h1.4C14,70.3,14.7,70.8,14.7,72.1z M19.2,75.7h5c0-0.2,0-0.4,0-0.6c0-2.2-1.1-3.6-3-3.6c-2,0-3.2,1.6-3.2,3.8
	c0,2.3,1.2,3.8,3.4,3.8c0.9,0,1.8-0.3,2.5-0.9l-0.5-0.8c-0.7,0.4-1.2,0.7-2,0.7C20.2,78.2,19.3,77.4,19.2,75.7z M21.2,72.4
	c1.1,0,1.8,0.8,1.8,2.4h-3.8C19.3,73.2,20.1,72.4,21.2,72.4z M32,77.4v-3.5c0-1.5-0.9-2.4-2.8-2.4c-0.7,0-1.5,0.1-2.4,0.5l0.3,0.9
	c0.8-0.3,1.4-0.4,1.9-0.4c1.1,0,1.8,0.4,1.8,1.5v0.6h-1.1c-2.2,0-3.4,0.9-3.4,2.4c0,1.4,0.9,2.3,2.4,2.3c1,0,1.8-0.3,2.3-1
	c0.2,0.7,0.7,1,1.3,1.1l0.3-0.8C32.1,78.2,32,78,32,77.4z M28.9,78.3c-1,0-1.4-0.5-1.4-1.4c0-1,0.6-1.5,2.2-1.5h1.1v1.9
	C30.3,77.9,29.6,78.3,28.9,78.3z M37.9,68.7h-3.4v0.9h2.3v7.5c0,1.3,0.9,2,2.2,2c0.8,0,1.4-0.2,1.8-0.4l-0.3-0.9
	c-0.4,0.2-0.8,0.3-1.2,0.3c-0.7,0-1.2-0.3-1.2-1V68.7z M43.8,75.1h4.9v-1h-4.9V75.1z M55.2,70.4h2.9l0.1-1.1H51v1.1h3V79h1.2V70.4z
	 M63,68.2c-0.5,0-0.8,0.3-0.8,0.8c0,0.5,0.3,0.8,0.8,0.8c0.5,0,0.9-0.3,0.9-0.8C63.9,68.5,63.6,68.2,63,68.2z M64,71.6h-3.4v0.9h2.2
	v5.5h-2.3V79h5.5v-0.9H64V71.6z M73.5,71.5c-0.7,0-1.2,0.4-1.6,1c-0.2-0.8-0.8-1-1.3-1c-0.7,0-1.2,0.4-1.6,1l-0.1-0.9H68V79H69v-5.7
	c0.4-0.6,0.8-0.9,1.3-0.9c0.5,0,0.6,0.4,0.6,1.3V79H72v-5.7c0.4-0.6,0.8-0.9,1.3-0.9c0.5,0,0.6,0.4,0.6,1.3V79h1.1v-5.5
	C74.9,71.8,74.2,71.5,73.5,71.5z M78,75.7h5c0-0.2,0-0.4,0-0.6c0-2.2-1.1-3.6-3-3.6c-2,0-3.2,1.6-3.2,3.8c0,2.3,1.2,3.8,3.4,3.8
	c0.9,0,1.8-0.3,2.5-0.9l-0.5-0.8c-0.7,0.4-1.2,0.7-2,0.7C79,78.2,78,77.4,78,75.7z M80,72.4c1.1,0,1.8,0.8,1.8,2.4H78
	C78.1,73.2,78.9,72.4,80,72.4z M98.5,76.5l0.8,2.5h1.3l-3.1-9.6h-1.5L92.7,79h1.2l0.8-2.5H98.5z M95,75.5l1.6-5.1l1.6,5.1H95z
	 M105.5,71.5c-0.9,0-1.7,0.4-2.2,1.2l-0.1-1h-1V82l1.2-0.1v-3.5c0.5,0.6,1.1,0.8,2,0.8c1.9,0,2.8-1.6,2.8-3.8
	C108.2,73,107.5,71.5,105.5,71.5z M105.2,72.4c1.2,0,1.7,1,1.7,2.9c0,2-0.6,2.9-1.8,2.9c-0.7,0-1.3-0.4-1.7-0.9v-3.7
	C103.8,73,104.4,72.4,105.2,72.4z M113.9,71.5c-0.9,0-1.7,0.4-2.2,1.2l-0.1-1h-1V82l1.2-0.1v-3.5c0.5,0.6,1.1,0.8,2,0.8
	c1.9,0,2.8-1.6,2.8-3.8C116.6,73,115.9,71.5,113.9,71.5z M113.6,72.4c1.2,0,1.7,1,1.7,2.9c0,2-0.6,2.9-1.8,2.9
	c-0.7,0-1.3-0.4-1.7-0.9v-3.7C112.2,73,112.8,72.4,113.6,72.4z M121.5,78.2c-0.9,0-1.7-0.3-2.2-0.8l-0.7,0.8c0.6,0.5,1.5,1,2.9,1
	c1.6,0,3.1-0.6,3.1-2.2c0-1.4-1-1.9-2.4-2.3c-1.5-0.4-1.9-0.6-1.9-1.3c0-0.6,0.4-1,1.6-1c1,0,1.6,0.3,2.1,0.7l0.5-0.8
	c-0.6-0.4-1.5-0.8-2.7-0.8c-1.7,0-2.8,0.8-2.8,2c0,1.3,1,1.8,2.5,2.1c1.6,0.4,1.8,0.7,1.8,1.4C123.3,77.7,122.7,78.2,121.5,78.2z
	 M38.4,87.4h2.9l0.1-1.1h-7.3v1.1h3V96h1.2V87.4z M44.6,85.5l-1.2,0.1V96h1.2v-5.4c0.4-0.6,1.1-1.2,2-1.2c0.9,0,1.3,0.4,1.3,1.3V96
	h1.2v-5.3c0-1.4-0.6-2.2-2.1-2.2c-0.9,0-1.8,0.4-2.4,1.2V85.5z M54.6,85.2c-0.5,0-0.8,0.3-0.8,0.8c0,0.5,0.3,0.8,0.8,0.8
	c0.5,0,0.9-0.3,0.9-0.8C55.5,85.5,55.2,85.2,54.6,85.2z M55.6,88.6h-3.4v0.9h2.2v5.5h-2.3V96h5.5v-0.9h-2.1V88.6z M65.2,88.5
	c-1.3,0-2.1,0.7-2.6,1.9l-0.2-1.8h-2v0.9h1.2v5.6h-1.2V96h3.8v-0.9h-1.5V92c0.5-1.6,1.3-2.4,2.4-2.4h0.1v1.6h1l0.2-2.5
	C65.9,88.5,65.6,88.5,65.2,88.5z M73.1,85.5v3.8c-0.5-0.6-1.1-0.9-2-0.9c-1.8,0-2.9,1.6-2.9,3.8c0,2.3,0.9,3.8,2.8,3.8
	c0.8,0,1.5-0.3,2.1-1.1l0.1,1h1V85.7L73.1,85.5z M71.4,89.4c0.7,0,1.3,0.3,1.7,1V94c-0.4,0.6-1,1.2-1.8,1.2c-1.2,0-1.8-1-1.8-2.9
	C69.5,90.4,70.2,89.4,71.4,89.4z M77.4,92.1h4.9v-1h-4.9V92.1z M88.7,88.5c-0.9,0-1.7,0.4-2.2,1.2l-0.1-1h-1V99l1.2-0.1v-3.5
	c0.5,0.6,1.1,0.8,2,0.8c1.9,0,2.8-1.6,2.8-3.8C91.4,90,90.7,88.5,88.7,88.5z M88.5,89.4c1.2,0,1.7,1,1.7,2.9c0,2-0.6,2.9-1.8,2.9
	c-0.7,0-1.3-0.4-1.7-0.9v-3.7C87,90,87.6,89.4,88.5,89.4z M99.1,94.4v-3.5c0-1.5-0.9-2.4-2.8-2.4c-0.7,0-1.5,0.1-2.4,0.5l0.3,0.9
	c0.8-0.3,1.4-0.4,1.9-0.4c1.1,0,1.8,0.4,1.8,1.5v0.6h-1.1c-2.2,0-3.4,0.9-3.4,2.4c0,1.4,0.9,2.3,2.4,2.3c1,0,1.8-0.3,2.3-1
	c0.2,0.7,0.7,1,1.3,1.1l0.3-0.8C99.3,95.2,99.1,95,99.1,94.4z M96.1,95.3c-1,0-1.4-0.5-1.4-1.4c0-1,0.6-1.5,2.2-1.5h1.1v1.9
	C97.5,94.9,96.8,95.3,96.1,95.3z M107.2,88.5c-1.3,0-2.1,0.7-2.6,1.9l-0.2-1.8h-2v0.9h1.2v5.6h-1.2V96h3.8v-0.9h-1.5V92
	c0.5-1.6,1.3-2.4,2.4-2.4h0.1v1.6h1l0.2-2.5C107.9,88.5,107.6,88.5,107.2,88.5z M116.5,95.6l-0.5-0.8c-0.4,0.2-0.9,0.4-1.4,0.4
	c-1,0-1.4-0.4-1.4-1.2v-4.4h2.4l0.2-0.9h-2.6v-1.8L112,87v1.7h-1.7v0.9h1.7v4.4c0,1.3,0.9,2.2,2.5,2.2C115.2,96.2,116,96,116.5,95.6
	z M125.1,88.6h-1.2l-2.1,6.5l-2.1-6.5h-1.2L121,96h0.4c-0.4,1.1-0.8,1.8-2.3,2l0.2,0.9c2-0.2,2.8-1.4,3.3-2.9L125.1,88.6z
	 M87.2,104.4h4.3l0.1-1H86v9.6h1.2v-4.3H91v-1h-3.8V104.4z M94.8,109.7h5c0-0.2,0-0.4,0-0.6c0-2.2-1.1-3.6-3-3.6
	c-2,0-3.2,1.6-3.2,3.8c0,2.3,1.2,3.8,3.4,3.8c0.9,0,1.8-0.3,2.5-0.9l-0.5-0.8c-0.7,0.4-1.2,0.7-2,0.7
	C95.8,112.2,94.8,111.4,94.8,109.7z M96.7,106.4c1.1,0,1.8,0.8,1.8,2.4h-3.8C94.9,107.2,95.7,106.4,96.7,106.4z M103.2,109.7h5
	c0-0.2,0-0.4,0-0.6c0-2.2-1.1-3.6-3-3.6c-2,0-3.2,1.6-3.2,3.8c0,2.3,1.2,3.8,3.4,3.8c0.9,0,1.8-0.3,2.5-0.9l-0.5-0.8
	c-0.7,0.4-1.2,0.7-2,0.7C104.2,112.2,103.2,111.4,103.2,109.7z M105.1,106.4c1.1,0,1.8,0.8,1.8,2.4h-3.8
	C103.3,107.2,104.1,106.4,105.1,106.4z M115,102.5v3.8c-0.5-0.6-1.1-0.9-2-0.9c-1.8,0-2.9,1.6-2.9,3.8c0,2.3,0.9,3.8,2.8,3.8
	c0.8,0,1.5-0.3,2.1-1.1l0.1,1h1v-10.3L115,102.5z M113.4,106.4c0.7,0,1.3,0.3,1.7,1v3.7c-0.4,0.6-1,1.2-1.8,1.2
	c-1.2,0-1.8-1-1.8-2.9C111.4,107.4,112.1,106.4,113.4,106.4z M121.5,112.2c-0.9,0-1.7-0.3-2.2-0.8l-0.7,0.8c0.6,0.5,1.5,1,2.9,1
	c1.6,0,3.1-0.6,3.1-2.2c0-1.4-1-1.9-2.4-2.3c-1.5-0.4-1.9-0.6-1.9-1.3c0-0.6,0.4-1,1.6-1c1,0,1.6,0.3,2.1,0.7l0.5-0.8
	c-0.6-0.4-1.5-0.8-2.7-0.8c-1.7,0-2.8,0.8-2.8,2c0,1.3,1,1.8,2.5,2.1c1.6,0.4,1.8,0.7,1.8,1.4C123.3,111.7,122.7,112.2,121.5,112.2z
	"/>
<path class="st4" d="M75,242.3c0-2-1.4-3-3.7-3h-2.5v9.6h1.2v-3.6h1.2C73.5,245.4,75,244.6,75,242.3z M73.7,242.3
	c0,1.7-1,2.1-2.3,2.1h-1.4v-4.1h1.4C72.8,240.3,73.7,240.9,73.7,242.3z M82.3,247.4v-3.5c0-1.5-0.9-2.4-2.8-2.4
	c-0.7,0-1.5,0.1-2.4,0.5l0.3,0.9c0.8-0.3,1.4-0.4,1.9-0.4c1.1,0,1.8,0.4,1.8,1.5v0.6H80c-2.2,0-3.4,0.9-3.4,2.4
	c0,1.4,0.9,2.3,2.4,2.3c1,0,1.8-0.4,2.3-1c0.2,0.7,0.7,1,1.3,1.1l0.3-0.8C82.5,248.2,82.3,248,82.3,247.4z M79.3,248.3
	c-1,0-1.4-0.5-1.4-1.4c0-1,0.6-1.5,2.2-1.5h1.1v1.9C80.7,247.9,80,248.3,79.3,248.3z M90.4,241.5c-1.3,0-2.1,0.7-2.6,1.9l-0.2-1.8
	h-2v0.9h1.2v5.6h-1.2v0.9h3.8v-0.9h-1.5V245c0.5-1.6,1.3-2.4,2.4-2.4h0.1v1.6h1l0.2-2.5C91.1,241.5,90.8,241.5,90.4,241.5z
	 M96.3,241.5c-1.8,0-2.8,1.6-2.8,3.8c0,2.3,0.7,3.8,2.7,3.8c0.8,0,1.5-0.3,2.1-1.1v3.8l1.2,0.1v-10.3h-1l-0.1,0.8
	C97.8,241.8,97.1,241.5,96.3,241.5z M96.6,242.4c0.7,0,1.3,0.4,1.7,1v3.7c-0.4,0.6-1,1.1-1.8,1.1c-1.1,0-1.7-0.9-1.7-2.9
	C94.7,243.4,95.3,242.4,96.6,242.4z M103.4,241.6h-1.2v5.4c0,1.4,0.7,2.2,2.1,2.2c0.9,0,1.8-0.4,2.4-1.1l0.1,1h1v-7.4h-1.2v5.4
	c-0.4,0.6-1.2,1.2-2,1.2c-0.9,0-1.2-0.4-1.2-1.4V241.6z M111.5,245.7h5c0-0.2,0-0.4,0-0.6c0-2.2-1.1-3.6-3-3.6c-2,0-3.2,1.6-3.2,3.8
	c0,2.3,1.2,3.8,3.4,3.8c0.9,0,1.8-0.3,2.5-0.9l-0.5-0.8c-0.7,0.4-1.2,0.7-2,0.7C112.6,248.2,111.6,247.4,111.5,245.7z M113.5,242.4
	c1.1,0,1.8,0.8,1.8,2.4h-3.8C111.6,243.2,112.4,242.4,113.5,242.4z M124.9,248.6l-0.5-0.8c-0.4,0.2-0.9,0.3-1.4,0.3
	c-1,0-1.4-0.4-1.4-1.2v-4.4h2.4l0.2-0.9h-2.6v-1.8l-1.2,0.1v1.7h-1.7v0.9h1.7v4.4c0,1.3,0.9,2.2,2.5,2.2
	C123.6,249.2,124.4,249,124.9,248.6z M97.4,256.2c-2.2,0-4.1,1.7-4.1,5c0,3.2,1.8,5,4.2,5c1.4,0,2.3-0.5,2.9-1l-0.6-0.8
	c-0.5,0.4-1.2,0.8-2.2,0.8c-1.7,0-2.9-1.1-2.9-3.9c0-2.9,1.4-3.9,2.9-3.9c0.7,0,1.4,0.2,2,0.7l0.7-0.8
	C99.5,256.5,98.7,256.2,97.4,256.2z M108.3,263.3c0-1.8-1.3-2.5-2.8-2.9c-1.8-0.5-2.4-1-2.4-1.8c0-1,0.9-1.4,1.9-1.4
	c0.8,0,1.6,0.3,2.3,0.9l0.7-0.8c-0.8-0.7-1.8-1.1-3.1-1.1c-1.8,0-3.1,1-3.1,2.5c0,1.5,1.2,2.2,3.1,2.8c1.7,0.5,2.1,0.9,2.1,1.9
	c0,1.2-1.1,1.8-2.2,1.8s-2-0.4-2.7-1l-0.7,0.8c0.8,0.8,2,1.2,3.4,1.2C107,266.2,108.3,265,108.3,263.3z M113.4,264.6l-2.6-8.3h-1.3
	l3.2,9.6h1.3l3.2-9.6H116L113.4,264.6z M121.5,265.2c-0.9,0-1.7-0.3-2.2-0.8l-0.7,0.8c0.6,0.5,1.5,1,2.9,1c1.6,0,3.1-0.6,3.1-2.2
	c0-1.4-1-1.9-2.4-2.3c-1.5-0.4-1.9-0.6-1.9-1.3c0-0.6,0.4-1,1.6-1c1,0,1.6,0.3,2.1,0.7l0.5-0.8c-0.6-0.4-1.5-0.8-2.7-0.8
	c-1.7,0-2.8,0.8-2.8,2c0,1.3,1,1.8,2.5,2.1c1.6,0.4,1.8,0.7,1.8,1.4C123.3,264.7,122.7,265.2,121.5,265.2z M66.4,280.3
	c0-1.6-1.1-2.2-2.2-2.4c0.9-0.2,1.8-0.9,1.8-2.1c0-1.9-1.7-2.4-3.4-2.4h-2.4v9.6h2.6C64.6,283,66.4,282.4,66.4,280.3z M64.7,275.9
	c0,1.1-0.6,1.6-1.8,1.6h-1.6v-3.1h1.4C64,274.3,64.7,274.8,64.7,275.9z M65.1,280.3c0,1.4-1.2,1.7-2.1,1.7h-1.6v-3.5H63
	C64.2,278.5,65.1,278.8,65.1,280.3z M71.4,272.2c-0.5,0-0.8,0.4-0.8,0.8c0,0.5,0.3,0.8,0.8,0.8c0.5,0,0.9-0.3,0.9-0.8
	C72.3,272.5,72,272.2,71.4,272.2z M72.4,275.6H69v0.9h2.2v5.5h-2.3v0.9h5.5v-0.9h-2.1V275.6z M77,283h1.2v-5.4
	c0.4-0.6,1.1-1.2,2-1.2c1.1,0,1.3,0.6,1.3,2.1v4.5h1.2v-5.3c0-1.4-0.6-2.2-2.1-2.2c-0.9,0-1.8,0.4-2.4,1.2l-0.1-1h-1V283z
	 M90.7,281.4v-3.5c0-1.5-0.9-2.4-2.8-2.4c-0.7,0-1.5,0.1-2.4,0.5l0.3,0.9c0.8-0.3,1.4-0.4,1.9-0.4c1.1,0,1.8,0.4,1.8,1.5v0.6h-1.1
	c-2.2,0-3.4,0.9-3.4,2.4c0,1.4,0.9,2.3,2.4,2.3c1,0,1.8-0.4,2.3-1c0.2,0.7,0.7,1,1.3,1l0.3-0.8C90.9,282.2,90.7,282,90.7,281.4z
	 M87.7,282.3c-1,0-1.4-0.5-1.4-1.4c0-1,0.6-1.5,2.2-1.5h1.1v1.9C89.1,281.9,88.4,282.3,87.7,282.3z M98.8,275.5
	c-1.3,0-2.1,0.7-2.6,1.9l-0.2-1.8h-2v0.9h1.2v5.6h-1.2v0.9h3.8v-0.9h-1.5V279c0.5-1.6,1.3-2.4,2.4-2.4h0.1v1.6h1l0.2-2.5
	C99.5,275.5,99.2,275.5,98.8,275.5z M105,272.2c-0.5,0-0.8,0.4-0.8,0.8c0,0.5,0.3,0.8,0.8,0.8c0.5,0,0.9-0.3,0.9-0.8
	C105.9,272.5,105.5,272.2,105,272.2z M106,275.6h-3.4v0.9h2.2v5.5h-2.3v0.9h5.5v-0.9H106V275.6z M111.5,279.7h5c0-0.2,0-0.4,0-0.6
	c0-2.2-1.1-3.6-3-3.6c-2,0-3.2,1.6-3.2,3.9c0,2.3,1.2,3.8,3.4,3.8c0.9,0,1.8-0.3,2.5-0.9l-0.5-0.8c-0.7,0.4-1.2,0.7-2,0.7
	C112.6,282.2,111.6,281.4,111.5,279.7z M113.5,276.4c1.1,0,1.8,0.8,1.8,2.4h-3.8C111.6,277.2,112.4,276.4,113.5,276.4z M121.5,282.2
	c-0.9,0-1.7-0.3-2.2-0.8l-0.7,0.8c0.6,0.5,1.5,1,2.9,1c1.6,0,3.1-0.6,3.1-2.2c0-1.4-1-1.9-2.4-2.3c-1.5-0.4-1.9-0.6-1.9-1.3
	c0-0.6,0.4-1,1.6-1c1,0,1.6,0.3,2.1,0.7l0.5-0.8c-0.6-0.4-1.5-0.8-2.7-0.8c-1.7,0-2.8,0.8-2.8,2c0,1.3,1,1.8,2.5,2.1
	c1.6,0.4,1.8,0.7,1.8,1.4C123.3,281.7,122.7,282.2,121.5,282.2z M100.2,295.2c0-3-1.2-5-3.5-5c-2.3,0-3.5,2.1-3.5,5c0,3,1.2,5,3.5,5
	C99,300.2,100.2,298.1,100.2,295.2z M98.9,295.2c0,2.6-0.7,3.9-2.3,3.9c-1.6,0-2.3-1.4-2.3-3.9c0-2.6,0.7-4,2.3-4
	S98.9,292.6,98.9,295.2z M108.6,295.1c0-4-2.3-4.8-4.5-4.8H102v9.6h2.2C106.2,300,108.6,299.2,108.6,295.1z M107.3,295.1
	c0,3.2-1.5,3.9-2.9,3.9h-1.1v-7.7h1.1C105.7,291.3,107.3,291.8,107.3,295.1z M116.8,297.3c0-1.6-1.1-2.2-2.2-2.4
	c0.9-0.2,1.8-0.9,1.8-2.1c0-1.9-1.7-2.4-3.4-2.4h-2.4v9.6h2.6C114.9,300,116.8,299.4,116.8,297.3z M115.1,292.9
	c0,1.1-0.6,1.6-1.8,1.6h-1.6v-3.1h1.4C114.4,291.3,115.1,291.8,115.1,292.9z M115.5,297.3c0,1.4-1.2,1.7-2.1,1.7h-1.6v-3.5h1.6
	C114.5,295.5,115.5,295.8,115.5,297.3z M122.6,290.2c-2.2,0-4.1,1.7-4.1,5c0,3.2,1.8,5,4.2,5c1.4,0,2.3-0.5,2.9-1l-0.6-0.8
	c-0.5,0.4-1.2,0.8-2.2,0.8c-1.7,0-2.9-1.1-2.9-3.9c0-2.9,1.4-3.9,2.9-3.9c0.7,0,1.4,0.2,2,0.7l0.7-0.8
	C124.6,290.5,123.9,290.2,122.6,290.2z"/>
<path class="st3" d="M149,275.7c0,0.9,1.1,1.4,1.8,0.7l6.8-6.8c0.4-0.4,0.4-1.1,0-1.5l-6.8-6.8c-0.7-0.7-1.8-0.2-1.8,0.7V275.7z"/>
<path class="st3" d="M149,173.7c0,0.9,1.1,1.4,1.8,0.7l6.8-6.8c0.4-0.4,0.4-1.1,0-1.5l-6.8-6.8c-0.7-0.7-1.8-0.2-1.8,0.7V173.7z"/>
<path class="st3" d="M402,170.7c0,0.9,1.1,1.4,1.8,0.7l6.8-6.8c0.4-0.4,0.4-1.1,0-1.5l-6.8-6.8c-0.7-0.7-1.8-0.2-1.8,0.7V170.7z"/>
<path class="st3" d="M881,167.7c0,0.9,1.1,1.4,1.8,0.7l6.8-6.8c0.4-0.4,0.4-1.1,0-1.5l-6.8-6.8c-0.7-0.7-1.8-0.2-1.8,0.7V167.7z"/>
<path class="st3" d="M149,73.7c0,0.9,1.1,1.4,1.8,0.7l6.8-6.8c0.4-0.4,0.4-1.1,0-1.5l-6.8-6.8c-0.7-0.7-1.8-0.2-1.8,0.7V73.7z"/>
<line class="st2" x1="693" y1="160.5" x2="705" y2="160.5"/>
<path class="st3" d="M758.3,255.6c-7.9,0-14.3-6.4-14.3-14.3c0-7.9,6.4-14.3,14.3-14.3c5.1,0,9.9,2.7,12.4,7.1l-6.2,3.6
	c-1.3-2.2-3.7-3.6-6.2-3.6c-4,0-7.2,3.2-7.2,7.2c0,3.9,3.2,7.2,7.2,7.2c2.5,0,4.9-1.4,6.2-3.6l6.2,3.6
	C768.2,252.9,763.4,255.6,758.3,255.6z"/>
<path class="st3" d="M772.7,240.5h-1.6v-1.6h-1.6v1.6h-1.6v1.6h1.6v1.6h1.6v-1.6h1.6V240.5z"/>
<path class="st3" d="M778.6,240.5H777v-1.6h-1.6v1.6h-1.6v1.6h1.6v1.6h1.6v-1.6h1.6V240.5z"/>
<path class="st3" d="M801.4,203.3c0,0-1.5,0.9,1.1,1.2c3.1,0.4,4.7,0.3,8.2-0.3c0,0,0.9,0.6,2.2,1.1
	C805,208.5,795.3,205,801.4,203.3z"/>
<path class="st3" d="M800.4,199c0,0-1.7,1.2,0.9,1.5c3.3,0.3,6,0.4,10.5-0.5c0,0,0.6,0.6,1.6,1C804.1,203.7,793.7,201.2,800.4,199z"
	/>
<path class="st3" d="M808.4,191.7c1.9,2.2-0.5,4.1-0.5,4.1s4.8-2.5,2.6-5.6c-2.1-2.9-3.7-4.3,4.9-9.3
	C815.4,181,801.9,184.4,808.4,191.7z"/>
<path class="st3" d="M818.6,206.5c0,0,1.1,0.9-1.2,1.6c-4.5,1.3-18.5,1.7-22.4,0.1c-1.4-0.6,1.2-1.5,2.1-1.6
	c0.9-0.2,1.4-0.2,1.4-0.2c-1.6-1.1-10.1,2.2-4.3,3.1C809.7,212,822.6,208.3,818.6,206.5z"/>
<path class="st3" d="M802.1,194.6c0,0-7.2,1.7-2.5,2.3c2,0.3,5.8,0.2,9.5-0.1c3-0.2,5.9-0.8,5.9-0.8s-1,0.4-1.8,1
	c-7.3,1.9-21.3,1-17.3-0.9C799.3,194.4,802.1,194.6,802.1,194.6z"/>
<path class="st3" d="M814.9,201.7c7.4-3.8,4-7.5,1.6-7c-0.6,0.1-0.8,0.2-0.8,0.2s0.2-0.3,0.6-0.5c4.7-1.7,8.3,4.9-1.5,7.5
	C814.8,201.9,814.9,201.8,814.9,201.7z"/>
<path class="st3" d="M810.5,173c0,0,4.1,4.1-3.9,10.3c-6.4,5-1.5,7.9,0,11.2c-3.7-3.4-6.5-6.3-4.6-9.1
	C804.6,181.4,812.1,179.5,810.5,173z"/>
<path class="st3" d="M802.8,212.1c7.1,0.5,18-0.2,18.2-3.6c0,0-0.5,1.3-5.9,2.3c-6.1,1.1-13.5,1-17.9,0.3
	C797.2,211,798.1,211.8,802.8,212.1z"/>
<path class="st6" d="M793,227h28.7v28.7H793V227z M814.9,251c-1.3,0-2.1-0.7-2.7-1.6l-2.2,1.3c0.8,1.6,2.4,2.8,4.9,2.8
	c2.6,0,4.5-1.3,4.5-3.8c0-2.2-1.3-3.2-3.6-4.2l-0.7-0.3c-1.2-0.5-1.7-0.8-1.7-1.6c0-0.7,0.5-1.2,1.3-1.2c0.8,0,1.3,0.3,1.7,1.2
	l2.1-1.3c-0.9-1.6-2.1-2.2-3.8-2.2c-2.4,0-3.9,1.5-3.9,3.6c0,2.2,1.3,3.2,3.2,4.1l0.7,0.3c1.2,0.5,2,0.9,2,1.8
	C816.7,250.5,816,251,814.9,251z M804.5,251c-0.9,0-1.3-0.6-1.7-1.4l-2.2,1.3c0.6,1.3,1.9,2.5,4,2.5c2.4,0,4-1.3,4-4.1v-9.2h-2.7
	v9.2C805.9,250.7,805.4,251,804.5,251z"/>
<path class="st3" d="M760.8,183c-8.1,0-7.6,3.5-7.6,3.5l0,3.7h7.7v1.1h-10.8c0,0-5.2-0.6-5.2,7.6s4.5,7.9,4.5,7.9h2.7V203
	c0,0-0.1-4.5,4.4-4.5c4.6,0,7.7,0,7.7,0s4.3,0.1,4.3-4.2c0-4.2,0-7,0-7S769.3,183,760.8,183z M756.6,185.5c0.8,0,1.4,0.6,1.4,1.4
	c0,0.8-0.6,1.4-1.4,1.4c-0.8,0-1.4-0.6-1.4-1.4C755.2,186.1,755.8,185.5,756.6,185.5z"/>
<path class="st3" d="M761,214.8c8.1,0,7.6-3.5,7.6-3.5l0-3.7h-7.7v-1.1h10.8c0,0,5.2,0.6,5.2-7.6s-4.5-7.9-4.5-7.9h-2.7v3.8
	c0,0,0.1,4.5-4.4,4.5c-4.6,0-7.7,0-7.7,0s-4.3-0.1-4.3,4.2c0,4.2,0,7,0,7S752.6,214.8,761,214.8z M765.3,212.4
	c-0.8,0-1.4-0.6-1.4-1.4c0-0.8,0.6-1.4,1.4-1.4c0.8,0,1.4,0.6,1.4,1.4C766.7,211.8,766.1,212.4,765.3,212.4z"/>
</svg>
