<svg width="489" height="436" viewBox="0 0 489 436" fill="none" xmlns="http://www.w3.org/2000/svg">
<circle cx="93" cy="249" r="92.5" stroke="#76D9E4" stroke-dasharray="4 4"/>
<path d="M329.548 430.362L328.155 434.12L327.686 433.947L327.111 435.5H325.494V436H321.564V435.5H317.634V436H313.704V435.5H309.774V436H305.844V435.5H301.914V436H297.984V435.5H294.054V436H290.124V435.5H286.194V436H282.264V435.5H278.334V436H274.405V435.5H270.475V436H266.545V435.5H262.615V436H258.685V435.5H254.755V436H250.825V435.5H246.895V436H242.965V435.5H241.718L242.165 434.294L241.696 434.121L243.089 430.362L243.558 430.536L244.95 426.777L244.481 426.603L245.874 422.845L246.343 423.019L247.736 419.26L247.267 419.086L248.659 415.328L249.128 415.501L250.521 411.743L250.052 411.569L251.444 407.81L251.913 407.984L253.306 404.225L252.837 404.052L254.23 400.293L254.699 400.467L256.091 396.708L255.622 396.535L257.015 392.776L257.484 392.95L258.876 389.191L258.407 389.017L259.8 385.259L260.269 385.432L261.662 381.674L261.193 381.5L262.585 377.741L263.054 377.915L264.447 374.156L263.978 373.983L265.37 370.224L265.839 370.398L267.232 366.639L266.763 366.466L268.156 362.707L268.625 362.881L270.017 359.122L269.548 358.948L270.941 355.19L271.41 355.363L272.802 351.605L272.333 351.431L273.726 347.672L274.195 347.846L275.587 344.088L275.119 343.914L276.511 340.155L276.98 340.329L278.373 336.57L277.904 336.397L279.296 332.638L279.765 332.812L281.158 329.053L280.689 328.879L282.082 325.121L282.55 325.294L283.943 321.536L283.474 321.362L284.867 317.603L285.336 317.777L286.728 314.019L286.259 313.845L287.652 310.086L288.121 310.26L289.513 306.501L289.045 306.328L290.437 302.569L290.906 302.743L292.299 298.984L291.83 298.81L293.222 295.052L293.691 295.225L295.084 291.467L294.615 291.293L296.008 287.534L296.476 287.708L297.869 283.95L297.4 283.776L298.793 280.017L299.262 280.191L300.654 276.432L300.185 276.259L301.578 272.5L302.047 272.674L303.439 268.915L302.971 268.741L304.363 264.983L304.832 265.156L306.225 261.398L305.756 261.224L307.148 257.465L307.617 257.639L309.01 253.881L308.541 253.707L309.934 249.948L310.402 250.122L311.795 246.363L311.326 246.19L312.719 242.431L313.188 242.605L314.58 238.846L314.111 238.672L315.504 234.914L315.973 235.087L317.365 231.329L316.897 231.155L318.289 227.396L318.758 227.57L320.151 223.812L319.682 223.638L321.074 219.879L321.543 220.053L322.936 216.294L322.467 216.121L323.86 212.362L324.328 212.536L325.721 208.777L325.252 208.603L326.645 204.845L327.114 205.018L328.506 201.26L328.037 201.086L329.43 197.327L329.899 197.501L331.291 193.743L330.823 193.569L332.215 189.81L332.684 189.984L334.077 186.225L333.608 186.052L335 182.293L335.469 182.467L336.862 178.708L336.393 178.534L337.786 174.776L338.254 174.95L339.647 171.191L339.178 171.017L340.571 167.259L341.04 167.432L342.432 163.674L341.963 163.5L343.356 159.741L343.825 159.915L345.217 156.156L344.748 155.983L346.141 152.224L346.61 152.398L348.003 148.639L347.534 148.466L348.926 144.707L349.395 144.881L350.788 141.122L350.319 140.948L351.711 137.19L352.18 137.363L353.573 133.605L353.104 133.431L354.497 129.672L354.966 129.846L356.358 126.088L355.889 125.914L357.282 122.155L357.751 122.329L359.143 118.57L358.674 118.397L360.067 114.638L360.536 114.812L361.928 111.053L361.46 110.879L362.852 107.121L363.321 107.295L364.714 103.536L364.245 103.362L365.637 99.6036L366.106 99.7773L367.499 96.0187L367.03 95.845L368.423 92.0863L368.891 92.2601L370.284 88.5014L369.815 88.3277L371.208 84.5691L371.677 84.7428L373.069 80.9842L372.6 80.8105L373.993 77.0519L374.462 77.2256L375.854 73.467L375.386 73.2933L376.778 69.5347L377.247 69.7084L378.64 65.9498L378.171 65.7761L379.563 62.0175L380.032 62.1912L381.425 58.4326L380.956 58.2589L382.349 54.5002L382.817 54.674L384.21 50.9153L383.741 50.7416L385.134 46.983L385.603 47.1567L386.995 43.3981L386.526 43.2244L387.919 39.4658L388.388 39.6395L389.78 35.8809L389.311 35.7072L390.704 31.9486L391.173 32.1223L392.566 28.3637L392.097 28.1899L393.489 24.4314L393.958 24.6051L395.351 20.8465L394.882 20.6727L396.274 16.9141L396.743 17.0878L398.136 13.3292L397.667 13.1555L399.06 9.39689L399.529 9.57061L400.921 5.81202L400.452 5.6383L401.845 1.87969L402.314 2.0534L402.889 0.5H404.506V0H408.436V0.5H412.366V0H416.296V0.5H420.226V0H424.156V0.5H428.086V0H432.016V0.5H435.946V0H439.876V0.5H443.806V0H447.736V0.5H451.666V0H455.596V0.5H459.525V0H463.455V0.5H467.385V0H471.315V0.5H475.245V0H479.175V0.5H483.105V0H487.035V0.5H488.282L487.835 1.7056L488.304 1.87931L486.911 5.63793L486.442 5.46422L485.05 9.22284L485.519 9.39655L484.126 13.1552L483.657 12.9815L482.264 16.7401L482.733 16.9138L481.341 20.6724L480.872 20.4987L479.479 24.2573L479.948 24.431L478.556 28.1897L478.087 28.0159L476.694 31.7746L477.163 31.9483L475.77 35.7069L475.301 35.5332L473.909 39.2918L474.378 39.4655L472.985 43.2241L472.516 43.0504L471.124 46.8091L471.593 46.9828L470.2 50.7414L469.731 50.5677L468.338 54.3263L468.807 54.5L467.415 58.2586L466.946 58.0849L465.553 61.8435L466.022 62.0173L464.63 65.7759L464.161 65.6022L462.768 69.3608L463.237 69.5345L461.844 73.2931L461.376 73.1194L459.983 76.878L460.452 77.0517L459.059 80.8103L458.59 80.6366L457.198 84.3952L457.667 84.569L456.274 88.3276L455.805 88.1539L454.413 91.9125L454.881 92.0862L453.489 95.8448L453.02 95.6711L451.627 99.4297L452.096 99.6034L450.704 103.362L450.235 103.188L448.842 106.947L449.311 107.121L447.918 110.879L447.45 110.706L446.057 114.464L446.526 114.638L445.133 118.397L444.664 118.223L443.272 121.981L443.741 122.155L442.348 125.914L441.879 125.74L440.487 129.499L440.955 129.672L439.563 133.431L439.094 133.257L437.701 137.016L438.17 137.19L436.778 140.948L436.309 140.775L434.916 144.533L435.385 144.707L433.992 148.466L433.524 148.292L432.131 152.05L432.6 152.224L431.207 155.983L430.738 155.809L429.346 159.568L429.815 159.741L428.422 163.5L427.953 163.326L426.561 167.085L427.029 167.259L425.637 171.017L425.168 170.844L423.775 174.602L424.244 174.776L422.852 178.535L422.383 178.361L420.99 182.119L421.459 182.293L420.066 186.052L419.598 185.878L418.205 189.637L418.674 189.81L417.281 193.569L416.812 193.395L415.42 197.154L415.889 197.328L414.496 201.086L414.027 200.913L412.635 204.671L413.103 204.845L411.711 208.604L411.242 208.43L409.849 212.188L410.318 212.362L408.926 216.121L408.457 215.947L407.064 219.706L407.533 219.879L406.14 223.638L405.672 223.464L404.279 227.223L404.748 227.397L403.355 231.155L402.886 230.982L401.494 234.74L401.963 234.914L400.57 238.673L400.101 238.499L398.709 242.257L399.177 242.431L397.785 246.19L397.316 246.016L395.923 249.775L396.392 249.948L395 253.707L394.531 253.533L393.138 257.292L393.607 257.466L392.214 261.224L391.746 261.051L390.353 264.809L390.822 264.983L389.429 268.741L388.96 268.568L387.568 272.326L388.037 272.5L386.644 276.259L386.175 276.085L384.783 279.844L385.252 280.017L383.859 283.776L383.39 283.602L381.997 287.361L382.466 287.535L381.074 291.293L380.605 291.119L379.212 294.878L379.681 295.052L378.289 298.81L377.82 298.637L376.427 302.395L376.896 302.569L375.503 306.328L375.035 306.154L373.642 309.912L374.111 310.086L372.718 313.845L372.249 313.671L370.857 317.43L371.326 317.603L369.933 321.362L369.464 321.188L368.072 324.947L368.54 325.121L367.148 328.879L366.679 328.706L365.286 332.464L365.755 332.638L364.363 336.396L363.894 336.223L362.501 339.981L362.97 340.155L361.577 343.914L361.109 343.74L359.716 347.499L360.185 347.672L358.792 351.431L358.323 351.257L356.931 355.016L357.4 355.19L356.007 358.948L355.538 358.774L354.146 362.533L354.614 362.707L353.222 366.465L352.753 366.292L351.36 370.05L351.829 370.224L350.437 373.983L349.968 373.809L348.575 377.567L349.044 377.741L347.651 381.5L347.183 381.326L345.79 385.085L346.259 385.258L344.866 389.017L344.397 388.843L343.005 392.602L343.474 392.776L342.081 396.534L341.612 396.361L340.22 400.119L340.689 400.293L339.296 404.051L338.827 403.878L337.434 407.636L337.903 407.81L336.511 411.569L336.042 411.395L334.649 415.154L335.118 415.327L333.726 419.086L333.257 418.912L331.864 422.671L332.333 422.845L330.94 426.603L330.471 426.429L329.079 430.188L329.548 430.362Z" stroke="#76D9E4" stroke-dasharray="4 4"/>
</svg>
