<svg xmlns="http://www.w3.org/2000/svg" xmlns:xlink="http://www.w3.org/1999/xlink" viewBox="0 0 848 350"><defs><style>.a,.b,.c,.d,.l,.m,.n{fill:none;}.b,.c,.d{stroke:#41748a;}.b,.c,.d,.l,.m,.n,.r{stroke-miterlimit:10;}.b{stroke-dasharray:4 4;}.c{stroke-dasharray:4 4;}.e{fill:#0f1d39;}.f{fill:#f0f0ee;}.g,.r{fill:#76d9e4;}.h{fill:#fff;}.i{fill:#9edc6f;}.j{fill:#fcd65b;}.k{fill:#f95d84;}.l{stroke:#f05d84;}.m{stroke:#fcd65b;}.n{stroke:#a1cf6f;}.o{fill:#1b314c;}.p{fill:#040427;}.q{clip-path:url(#a);}.r{fill-opacity:0.25;stroke:#76d9e4;stroke-width:0.5px;}</style><clipPath id="a"><rect class="a" x="431.6" y="77.79" width="348.21" height="239.39" rx="5.67"/></clipPath></defs><rect class="b" x="737.5" y="29.56" width="41" height="41" transform="translate(707.94 808.06) rotate(-90)"/><rect class="b" x="101.75" y="289.81" width="48.25" height="48.25"/><rect class="b" x="362.75" y="241.81" width="48.25" height="48.25"/><rect class="b" x="53.5" y="241.56" width="48.25" height="48.25"/><circle class="c" cx="765.69" cy="247.27" r="78.94"/><rect class="d" x="1.9" y="1.64" width="455.81" height="254.52" rx="5.02"/><rect class="e" x="17.82" y="29.15" width="487.22" height="243.85" rx="5.08"/><path class="f" d="M38.36,62.65a2.19,2.19,0,0,1-2.47-2.21V56h-1.7v-.92h1.7V53.45l1.17-.14v1.81h2.56l-.15.92H37.06v4.39c0,.81.41,1.24,1.42,1.24a3,3,0,0,0,1.41-.35l.46.8A3.84,3.84,0,0,1,38.36,62.65Z"/><path class="f" d="M48.91,55.12l-.17,2.51h-1V56h-.07c-1.14,0-1.95.81-2.43,2.44v3.11h1.5v.91H43v-.91h1.17V56H43v-.91h2l.22,1.75A2.75,2.75,0,0,1,47.87,55,3.6,3.6,0,0,1,48.91,55.12Z"/><path class="f" d="M57.18,61.83l-.29.84a1.49,1.49,0,0,1-1.35-1.05,2.84,2.84,0,0,1-2.31,1,2.16,2.16,0,0,1-2.38-2.27c0-1.51,1.22-2.36,3.45-2.36h1.09v-.61c0-1.07-.66-1.47-1.75-1.47a6.2,6.2,0,0,0-1.92.38l-.32-.89A7,7,0,0,1,53.82,55c1.83,0,2.76.93,2.76,2.38v3.55C56.58,61.48,56.76,61.7,57.18,61.83Zm-1.79-1.11V58.83H54.32c-1.62,0-2.21.59-2.21,1.54a1.24,1.24,0,0,0,1.42,1.4A2.27,2.27,0,0,0,55.39,60.72Z"/><path class="f" d="M65.29,52.15V62.5h-1l-.11-1a2.5,2.5,0,0,1-2.09,1.12c-1.93,0-2.81-1.54-2.81-3.83S60.31,55,62.12,55a2.47,2.47,0,0,1,2,.89V52Zm-4.78,6.67c0,1.91.62,2.89,1.78,2.89a2.23,2.23,0,0,0,1.82-1.17V56.87a2,2,0,0,0-1.68-.95C61.21,55.92,60.51,56.87,60.51,58.82Z"/><path class="f" d="M71.17,61.67a3.31,3.31,0,0,0,2-.66l.55.79a4.22,4.22,0,0,1-2.52.85c-2.16,0-3.38-1.54-3.38-3.83S69,55,71,55s3,1.39,3,3.63a5.29,5.29,0,0,1,0,.63H69C69.08,60.93,70,61.67,71.17,61.67ZM69,58.33h3.84c0-1.59-.73-2.4-1.85-2.4S69.12,56.7,69,58.33Z"/><path class="g" d="M90.4,57.32H85v-1H90.4Zm0,2.66H85V59H90.4Z"/><path class="h" d="M105.07,62.5h-1.22V53.9h-3v-1h7.27l-.12,1h-2.92Z"/><path class="h" d="M116.11,55.12l-.17,2.51h-1V56h-.07c-1.14,0-2,.81-2.43,2.44v3.11H114v.91h-3.84v-.91h1.17V56h-1.17v-.91h2l.22,1.75A2.75,2.75,0,0,1,115.07,55,3.66,3.66,0,0,1,116.11,55.12Z"/><path class="h" d="M124.38,61.83l-.29.84a1.49,1.49,0,0,1-1.35-1.05,2.84,2.84,0,0,1-2.31,1,2.16,2.16,0,0,1-2.38-2.27c0-1.51,1.22-2.36,3.44-2.36h1.1v-.61c0-1.07-.66-1.47-1.75-1.47a6.2,6.2,0,0,0-1.92.38l-.33-.89A7.11,7.11,0,0,1,121,55c1.83,0,2.76.93,2.76,2.38v3.55C123.78,61.48,124,61.7,124.38,61.83Zm-1.79-1.11V58.83h-1.07c-1.62,0-2.21.59-2.21,1.54a1.24,1.24,0,0,0,1.41,1.4A2.27,2.27,0,0,0,122.59,60.72Z"/><path class="h" d="M132.49,52.15V62.5h-1l-.11-1a2.5,2.5,0,0,1-2.09,1.12c-1.93,0-2.82-1.54-2.82-3.83S127.51,55,129.32,55a2.49,2.49,0,0,1,2,.89V52Zm-4.78,6.67c0,1.91.62,2.89,1.78,2.89a2.23,2.23,0,0,0,1.82-1.17V56.87a2,2,0,0,0-1.68-.95C128.41,55.92,127.71,56.87,127.71,58.82Z"/><path class="h" d="M138.36,61.67a3.32,3.32,0,0,0,2-.66l.55.79a4.25,4.25,0,0,1-2.53.85c-2.15,0-3.37-1.54-3.37-3.83S136.23,55,138.2,55s3,1.39,3,3.63c0,.25,0,.48,0,.63h-5C136.28,60.93,137.23,61.67,138.36,61.67Zm-2.14-3.34h3.84c0-1.59-.73-2.4-1.85-2.4S136.32,56.7,136.22,58.33Z"/><path class="h" d="M144.41,54c0,.42.17,2.15.17,3.64V62.5h-1.14V52.85h1.66l3.46,8.51c0-.39-.17-1.94-.17-3.68V52.85h1.13V62.5h-1.71Z"/><path class="h" d="M155.37,55c2,0,2.76,1.53,2.76,3.84s-1,3.85-2.92,3.85a2.4,2.4,0,0,1-2-.92l-.08.77h-1V52.15l1.18-.14v4.07A2.62,2.62,0,0,1,155.37,55Zm1.49,3.84c0-1.92-.6-2.88-1.75-2.88a2.36,2.36,0,0,0-1.85,1.17v3.66a2,2,0,0,0,1.68,1C156.16,61.7,156.86,60.76,156.86,58.8Z"/><path class="h" d="M163.77,55c2,0,2.76,1.53,2.76,3.84s-1,3.85-2.92,3.85a2.4,2.4,0,0,1-2-.92l-.08.77h-1V52.15l1.18-.14v4.07A2.61,2.61,0,0,1,163.77,55Zm1.49,3.84c0-1.92-.6-2.88-1.75-2.88a2.36,2.36,0,0,0-1.85,1.17v3.66a2,2,0,0,0,1.68,1C164.56,61.7,165.26,60.76,165.26,58.8Z"/><path class="h" d="M174.86,58.8c0,2.27-1.12,3.85-3.18,3.85s-3.18-1.51-3.18-3.83S169.62,55,171.7,55,174.86,56.48,174.86,58.8Zm-5.08,0c0,2,.63,2.87,1.9,2.87s1.91-.91,1.91-2.89-.63-2.87-1.89-2.87S169.78,56.85,169.78,58.82Z"/><path class="h" d="M179.87,62.65a4.79,4.79,0,0,1-3.39-1.21l.73-.83a3.7,3.7,0,0,0,2.68,1c1.17,0,2.24-.58,2.24-1.8,0-.94-.45-1.4-2.1-1.87-1.92-.57-3.11-1.27-3.11-2.79s1.27-2.5,3.12-2.5a4.44,4.44,0,0,1,3.08,1.11l-.73.79a3.39,3.39,0,0,0-2.31-.87c-1.06,0-1.93.46-1.93,1.43s.59,1.24,2.42,1.77c1.52.44,2.83,1.07,2.83,2.9C183.4,61.49,182.11,62.65,179.87,62.65Z"/><path class="h" d="M189.56,62.65a2.2,2.2,0,0,1-2.48-2.21V56h-1.69v-.92h1.69V53.45l1.18-.14v1.81h2.56l-.15.92h-2.41v4.39c0,.81.41,1.24,1.41,1.24a3,3,0,0,0,1.42-.35l.46.8A3.84,3.84,0,0,1,189.56,62.65Z"/><path class="h" d="M200.06,58.8c0,2.27-1.12,3.85-3.18,3.85s-3.18-1.51-3.18-3.83S194.82,55,196.9,55,200.06,56.48,200.06,58.8Zm-5.08,0c0,2,.63,2.87,1.9,2.87s1.91-.91,1.91-2.89-.63-2.87-1.89-2.87S195,56.85,195,58.82Z"/><path class="h" d="M207.75,61l.56.77a4,4,0,0,1-2.48.88c-2.21,0-3.47-1.5-3.47-3.81S203.63,55,205.83,55a3.73,3.73,0,0,1,2.46.87l-.57.77a3.38,3.38,0,0,0-1.9-.64c-1.28,0-2.19.94-2.19,2.88s.93,2.81,2.2,2.81A3.36,3.36,0,0,0,207.75,61Z"/><path class="h" d="M212.14,62.5H211V52.15l1.17-.14Zm1.61-4,3.7,4H215.9l-3.63-4,3.28-3.35h1.51Z"/><path class="f" d="M222.07,60.19a1.23,1.23,0,1,1-1.23,1.23A1.2,1.2,0,0,1,222.07,60.19Z"/><path class="f" d="M130.84,77a1.23,1.23,0,1,1-1.23,1.23A1.2,1.2,0,0,1,130.84,77Z"/><path class="i" d="M140.26,79.3l-1-5.41-1,5.41h-1.63l-1.33-7.38h1.19l1,6.65,1.17-5.71H140l1.11,5.71.95-6.65h1.13l-1.27,7.38Z"/><path class="i" d="M146,72.94a3,3,0,0,1,2.36-1.18c1.45,0,2.08.82,2.08,2.19V79.3h-1.18V74c0-.88-.41-1.26-1.29-1.26a2.65,2.65,0,0,0-2,1.22V79.3h-1.18V69l1.18-.12Z"/><path class="i" d="M156.33,78.47a3.32,3.32,0,0,0,2-.66l.54.79a4.2,4.2,0,0,1-2.52.85c-2.16,0-3.37-1.54-3.37-3.83s1.24-3.86,3.2-3.86,3,1.39,3,3.63c0,.25,0,.48,0,.63h-5C154.25,77.73,155.2,78.47,156.33,78.47Zm-2.14-3.34H158c0-1.59-.73-2.4-1.85-2.4S154.29,73.5,154.19,75.13Z"/><path class="i" d="M167.67,71.92l-.16,2.5h-1V72.84h-.07c-1.13,0-1.94.81-2.42,2.44v3.11h1.5v.91h-3.84v-.91h1.16V72.83h-1.16v-.91h2.05l.22,1.75a2.75,2.75,0,0,1,2.65-1.91A3.59,3.59,0,0,1,167.67,71.92Z"/><path class="i" d="M173.13,78.47a3.32,3.32,0,0,0,2-.66l.54.79a4.2,4.2,0,0,1-2.52.85c-2.16,0-3.37-1.54-3.37-3.83s1.24-3.86,3.2-3.86,3,1.39,3,3.63c0,.25,0,.48,0,.63h-5C171,77.73,172,78.47,173.13,78.47ZM171,75.13h3.84c0-1.59-.73-2.4-1.85-2.4S171.09,73.5,171,75.13Z"/><path class="f" d="M183,80.62l-.61.64c-2.28-1.86-3.61-3.67-3.61-6.86s1.33-5,3.61-6.87l.61.65c-2,1.79-3,3.28-3,6.22S181,78.84,183,80.62Z"/><path class="f" d="M187.75,69h1.47L189,72.59h-1Zm2.34,0h1.47l-.21,3.64h-1Z"/><path class="j" d="M197.22,79.3H195V69.65h2.06c2.27,0,4.53.77,4.53,4.77S199.23,79.3,197.22,79.3Zm.15-8.66h-1.14v7.68h1.15c1.39,0,2.91-.7,2.91-3.9C200.29,71.06,198.7,70.64,197.37,70.64Z"/><path class="j" d="M209.55,78.63l-.3.84a1.46,1.46,0,0,1-1.34-1,2.84,2.84,0,0,1-2.31,1,2.16,2.16,0,0,1-2.38-2.27c0-1.51,1.21-2.36,3.44-2.36h1.09v-.61c0-1.07-.65-1.47-1.75-1.47a6.25,6.25,0,0,0-1.92.38l-.32-.89a7.05,7.05,0,0,1,2.42-.47c1.84,0,2.76.93,2.76,2.38v3.55C208.94,78.28,209.13,78.5,209.55,78.63Zm-1.8-1.11V75.63h-1.06c-1.63,0-2.21.59-2.21,1.54a1.24,1.24,0,0,0,1.41,1.4A2.24,2.24,0,0,0,207.75,77.52Z"/><path class="j" d="M215.93,79.45a2.2,2.2,0,0,1-2.48-2.21v-4.4h-1.69v-.92h1.69V70.25l1.18-.14v1.81h2.56l-.15.92h-2.41v4.39c0,.81.4,1.24,1.41,1.24a3,3,0,0,0,1.42-.35l.46.8A3.84,3.84,0,0,1,215.93,79.45Z"/><path class="j" d="M223.53,78.47a3.32,3.32,0,0,0,2-.66l.54.79a4.2,4.2,0,0,1-2.52.85c-2.16,0-3.37-1.54-3.37-3.83s1.24-3.86,3.2-3.86,3,1.39,3,3.63c0,.25,0,.48,0,.63h-5C221.44,77.73,222.4,78.47,223.53,78.47Zm-2.14-3.34h3.84c0-1.59-.73-2.4-1.85-2.4S221.49,73.5,221.39,75.13Z"/><path class="g" d="M234.37,74.12h-5.44v-1h5.44Zm0,2.66h-5.44v-1h5.44Z"/><path class="k" d="M242.52,77.8l.56.77a4,4,0,0,1-2.48.88c-2.22,0-3.48-1.5-3.48-3.81s1.28-3.88,3.48-3.88a3.73,3.73,0,0,1,2.46.87l-.57.77a3.39,3.39,0,0,0-1.91-.64c-1.27,0-2.18.94-2.18,2.88s.92,2.8,2.2,2.8A3.35,3.35,0,0,0,242.52,77.8Z"/><path class="k" d="M246.83,77.16c0,1,.39,1.37,1.24,1.37a2.55,2.55,0,0,0,2-1.18V71.92h1.17V79.3h-1l-.09-1a3.05,3.05,0,0,1-2.37,1.15,1.93,1.93,0,0,1-2.13-2.17V71.92h1.18Z"/><path class="k" d="M260.07,71.92l-.17,2.5H259V72.84h-.07c-1.13,0-1.95.81-2.42,2.44v3.11H258v.91h-3.84v-.91h1.16V72.83h-1.16v-.91h2l.23,1.75A2.74,2.74,0,0,1,259,71.76,3.59,3.59,0,0,1,260.07,71.92Z"/><path class="k" d="M268.47,71.92l-.17,2.5h-.95V72.84h-.07c-1.13,0-1.95.81-2.42,2.44v3.11h1.5v.91h-3.84v-.91h1.16V72.83h-1.16v-.91h2l.23,1.75a2.74,2.74,0,0,1,2.65-1.91A3.59,3.59,0,0,1,268.47,71.92Z"/><path class="k" d="M273.93,78.47a3.32,3.32,0,0,0,2-.66l.54.79a4.2,4.2,0,0,1-2.52.85c-2.16,0-3.38-1.54-3.38-3.83s1.25-3.86,3.21-3.86,3,1.39,3,3.63c0,.25,0,.48,0,.63h-5C271.84,77.73,272.8,78.47,273.93,78.47Zm-2.14-3.34h3.84c0-1.59-.73-2.4-1.85-2.4S271.89,73.5,271.79,75.13Z"/><path class="k" d="M279.25,71.92h1l.1,1a3.2,3.2,0,0,1,2.43-1.19c1.45,0,2.08.82,2.08,2.19V79.3h-1.18V74.82c0-1.52-.15-2.12-1.26-2.12a2.6,2.6,0,0,0-2,1.23V79.3h-1.18Z"/><path class="k" d="M291.53,79.45a2.2,2.2,0,0,1-2.48-2.21v-4.4h-1.7v-.92h1.7V70.25l1.18-.14v1.81h2.56l-.15.92h-2.41v4.39c0,.81.4,1.24,1.41,1.24a3,3,0,0,0,1.42-.35l.46.8A3.84,3.84,0,0,1,291.53,79.45Z"/><path class="k" d="M298,79.3h-2.21V69.65h2.06c2.27,0,4.52.77,4.52,4.77S300,79.3,298,79.3Zm.14-8.66H297v7.68h1.15c1.38,0,2.91-.7,2.91-3.9C301.09,71.06,299.49,70.64,298.16,70.64Z"/><path class="k" d="M310.35,78.63l-.3.84a1.46,1.46,0,0,1-1.34-1,2.85,2.85,0,0,1-2.31,1A2.17,2.17,0,0,1,304,77.18c0-1.51,1.22-2.36,3.45-2.36h1.09v-.61c0-1.07-.66-1.47-1.75-1.47a6.25,6.25,0,0,0-1.92.38l-.32-.89a7.05,7.05,0,0,1,2.42-.47c1.84,0,2.76.93,2.76,2.38v3.55C309.74,78.28,309.93,78.5,310.35,78.63Zm-1.8-1.11V75.63h-1.06c-1.63,0-2.22.59-2.22,1.54a1.24,1.24,0,0,0,1.42,1.4A2.24,2.24,0,0,0,308.55,77.52Z"/><path class="k" d="M316.73,79.45a2.2,2.2,0,0,1-2.48-2.21v-4.4h-1.7v-.92h1.7V70.25l1.18-.14v1.81H318l-.15.92h-2.41v4.39c0,.81.4,1.24,1.41,1.24a3,3,0,0,0,1.42-.35l.46.8A3.84,3.84,0,0,1,316.73,79.45Z"/><path class="k" d="M324.33,78.47a3.32,3.32,0,0,0,2-.66l.54.79a4.22,4.22,0,0,1-2.52.85c-2.16,0-3.38-1.54-3.38-3.83s1.25-3.86,3.21-3.86,3,1.39,3,3.63c0,.25,0,.48,0,.63h-5C322.24,77.73,323.2,78.47,324.33,78.47Zm-2.14-3.34H326c0-1.59-.72-2.4-1.84-2.4S322.29,73.5,322.19,75.13Z"/><path class="k" d="M330.38,70.82c0,.43.16,2.16.16,3.65V79.3h-1.13V69.65h1.65l3.46,8.51c0-.39-.17-1.94-.17-3.68V69.65h1.14V79.3h-1.71Z"/><path class="k" d="M341.61,79.34a3.74,3.74,0,0,1-3.31,2.93l-.17-.94a2.55,2.55,0,0,0,2.34-2h-.39l-2.56-7.38h1.24l2.12,6.48L343,71.92h1.22Z"/><path class="f" d="M351,80.62l-.6.64c-2.28-1.86-3.61-3.67-3.61-6.86s1.33-5,3.61-6.87l.6.65c-2,1.79-3,3.28-3,6.22S349,78.84,351,80.62Z"/><path class="f" d="M355.88,68.18l.61-.65c2.28,1.87,3.61,3.67,3.61,6.87s-1.33,5-3.61,6.86l-.61-.64c2-1.78,3-3.3,3-6.22S357.9,70,355.88,68.18Z"/><path class="f" d="M364.14,69h1.48l-.23,3.64h-1Zm2.34,0H368l-.21,3.64h-1Z"/><path class="f" d="M372.68,68.18l.61-.65c2.28,1.87,3.61,3.67,3.61,6.87s-1.33,5-3.61,6.86l-.61-.64c2-1.78,3-3.3,3-6.22S374.7,70,372.68,68.18Z"/><path class="f" d="M130.84,93.79A1.23,1.23,0,1,1,129.61,95,1.2,1.2,0,0,1,130.84,93.79Z"/><path class="i" d="M139.92,96.1h-1.35l-2.68-7.38h1.26L139.28,95l2.1-6.32h1.23Z"/><path class="i" d="M148.59,95.16h2.07v.94h-5.52v-.94h2.27v-5.5h-2.2v-.94h3.38Zm-.07-9.06a.81.81,0,0,1-.87.82.83.83,0,1,1,0-1.65A.81.81,0,0,1,148.52,86.1Z"/><path class="i" d="M156.33,95.27a3.32,3.32,0,0,0,2-.66l.54.79a4.2,4.2,0,0,1-2.52.85c-2.16,0-3.37-1.54-3.37-3.83s1.24-3.86,3.2-3.86,3,1.39,3,3.63c0,.25,0,.48,0,.63h-5C154.25,94.53,155.2,95.27,156.33,95.27Zm-2.14-3.34H158c0-1.59-.73-2.4-1.85-2.4S154.29,90.3,154.19,91.93Z"/><path class="i" d="M165.46,96.1l-1-5.41-1,5.41h-1.63l-1.33-7.38h1.19l.95,6.65,1.18-5.71h1.39l1.1,5.71,1-6.65h1.13l-1.27,7.38Z"/><path class="f" d="M174.62,97.42l-.61.64c-2.28-1.86-3.61-3.67-3.61-6.86s1.33-5,3.61-6.87l.61.65c-2,1.79-3,3.28-3,6.22S172.63,95.64,174.62,97.42Z"/><path class="f" d="M179.35,85.75h1.47l-.23,3.64h-1Zm2.34,0h1.47L183,89.39h-1Z"/><path class="j" d="M189.44,96.25A4.77,4.77,0,0,1,186.05,95l.73-.83a3.7,3.7,0,0,0,2.68,1c1.17,0,2.24-.58,2.24-1.8,0-.94-.45-1.4-2.1-1.87-1.92-.57-3.11-1.27-3.11-2.79s1.27-2.5,3.12-2.5a4.44,4.44,0,0,1,3.08,1.11l-.73.79a3.41,3.41,0,0,0-2.31-.87c-1.06,0-1.93.46-1.93,1.43,0,.82.59,1.24,2.42,1.77,1.51.44,2.83,1.07,2.83,2.9C193,95.09,191.68,96.25,189.44,96.25Z"/><path class="j" d="M198.81,96.14a3.74,3.74,0,0,1-3.31,2.93l-.17-.94a2.54,2.54,0,0,0,2.34-2h-.39l-2.56-7.38H196l2.12,6.48,2.09-6.48h1.22Z"/><path class="j" d="M209.94,90.61V96.1h-1.08V90.8c0-.93,0-1.31-.57-1.31a1.56,1.56,0,0,0-1.29.88V96.1h-1.1V90.8c0-.93,0-1.31-.57-1.31a1.56,1.56,0,0,0-1.29.88V96.1H203V88.72h.91l.09.87a1.89,1.89,0,0,1,1.59-1,1.29,1.29,0,0,1,1.34,1,1.9,1.9,0,0,1,1.62-1C209.22,88.56,209.94,88.91,209.94,90.61Z"/><path class="f" d="M213,85.75h1.47l-.23,3.64h-1Zm2.34,0h1.47l-.21,3.64h-1Z"/><path class="f" d="M224.39,94.91a2.53,2.53,0,0,1-.27,1.11L223,98.61h-1.06l.66-2.76a1.18,1.18,0,0,1-.45-.93,1.13,1.13,0,0,1,2.26,0Z"/><path class="f" d="M238.15,85.75h1.47l-.23,3.64h-1Zm2.34,0H242l-.21,3.64h-1Z"/><path class="j" d="M248.32,92.51h-1.24V96.1h-1.21V86.45h2.45c2.32,0,3.73,1,3.73,3C252.05,91.67,250.5,92.51,248.32,92.51Zm.16-5.09h-1.4v4.13h1.36c1.33,0,2.31-.46,2.31-2.12C250.75,88,249.78,87.42,248.48,87.42Z"/><path class="j" d="M260.07,88.72l-.17,2.51H259V89.64h-.07c-1.13,0-1.95.81-2.42,2.44v3.11H258v.91h-3.84v-.91h1.16V89.63h-1.16v-.91h2l.23,1.75A2.74,2.74,0,0,1,259,88.56,3.59,3.59,0,0,1,260.07,88.72Z"/><path class="j" d="M266.19,95.16h2.07v.94h-5.52v-.94H265v-5.5h-2.2v-.94h3.38Zm-.07-9.06a.81.81,0,0,1-.87.82.83.83,0,1,1,0-1.65A.81.81,0,0,1,266.12,86.1Z"/><path class="j" d="M276.12,94.6l.56.77a4,4,0,0,1-2.48.88c-2.22,0-3.48-1.5-3.48-3.81s1.28-3.88,3.48-3.88a3.73,3.73,0,0,1,2.46.87l-.57.77a3.39,3.39,0,0,0-1.91-.64c-1.27,0-2.18.94-2.18,2.88s.92,2.81,2.2,2.81A3.36,3.36,0,0,0,276.12,94.6Z"/><path class="j" d="M282.33,95.27a3.32,3.32,0,0,0,2-.66l.54.79a4.2,4.2,0,0,1-2.52.85c-2.16,0-3.38-1.54-3.38-3.83s1.25-3.86,3.21-3.86,3,1.39,3,3.63c0,.25,0,.48,0,.63h-5C280.24,94.53,281.2,95.27,282.33,95.27Zm-2.14-3.34H284c0-1.59-.73-2.4-1.85-2.4S280.29,90.3,280.19,91.93Z"/><path class="f" d="M288.55,85.75H290l-.23,3.64h-1Zm2.33,0h1.48l-.22,3.64h-1Z"/><path class="f" d="M300,94.91a2.65,2.65,0,0,1-.26,1.11l-1.14,2.59h-1.06l.66-2.76a1.18,1.18,0,0,1-.45-.93,1.13,1.13,0,0,1,2.25,0Z"/><path class="f" d="M313.75,85.75h1.47L315,89.39h-1Zm2.33,0h1.48l-.22,3.64h-1Z"/><path class="j" d="M323.84,96.25A4.77,4.77,0,0,1,320.45,95l.73-.83a3.69,3.69,0,0,0,2.67,1c1.18,0,2.25-.58,2.25-1.8,0-.94-.45-1.4-2.11-1.87-1.92-.57-3.11-1.27-3.11-2.79s1.28-2.5,3.13-2.5a4.46,4.46,0,0,1,3.08,1.11l-.73.79a3.42,3.42,0,0,0-2.31-.87c-1.06,0-1.93.46-1.93,1.43,0,.82.58,1.24,2.42,1.77,1.51.44,2.83,1.07,2.83,2.9C327.37,95.09,326.08,96.25,323.84,96.25Z"/><path class="j" d="M333.39,95.16h2.07v.94h-5.52v-.94h2.27v-5.5H330v-.94h3.38Zm-.07-9.06a.81.81,0,0,1-.87.82.83.83,0,1,1,0-1.65A.81.81,0,0,1,333.32,86.1Z"/><path class="j" d="M343.62,95.09l-.14,1h-5.4v-.9l4.09-5.45H338.4v-1h5.18v.92l-4.06,5.45Z"/><path class="j" d="M349.53,95.27a3.27,3.27,0,0,0,2-.66l.55.79a4.22,4.22,0,0,1-2.52.85c-2.16,0-3.38-1.54-3.38-3.83s1.25-3.86,3.21-3.86,3,1.39,3,3.63c0,.25,0,.48,0,.63h-5C347.44,94.53,348.39,95.27,349.53,95.27Zm-2.14-3.34h3.83c0-1.59-.72-2.4-1.84-2.4S347.48,90.3,347.39,91.93Z"/><path class="f" d="M355.74,85.75h1.48L357,89.39h-1Zm2.34,0h1.47l-.21,3.64h-1Z"/><path class="f" d="M364.28,85l.61-.65c2.28,1.87,3.61,3.67,3.61,6.87s-1.33,5-3.61,6.86l-.61-.64c2-1.78,3-3.3,3-6.22S366.3,86.77,364.28,85Z"/><path class="f" d="M38.83,127.71c0-.66-.21-1-1.78-1.4s-2.52-.84-2.52-2.13,1.13-2,2.8-2A4.5,4.5,0,0,1,40,123l-.54.81a3.45,3.45,0,0,0-2.12-.67c-1.18,0-1.6.4-1.6,1s.46.9,2,1.31,2.39.89,2.39,2.26c0,1.59-1.53,2.2-3.09,2.2a4.21,4.21,0,0,1-2.89-1l.66-.77a3.48,3.48,0,0,0,2.23.8C38.14,128.89,38.83,128.42,38.83,127.71Z"/><path class="f" d="M44.06,127.56c0,.95.39,1.37,1.25,1.37a2.55,2.55,0,0,0,2-1.18v-5.43h1.18v7.38h-1l-.1-1A3.07,3.07,0,0,1,45,129.85a1.92,1.92,0,0,1-2.13-2.17v-5.36h1.18Z"/><path class="f" d="M57.57,124.21v5.49H56.49v-5.3c0-.93,0-1.31-.57-1.31a1.57,1.57,0,0,0-1.29.88v5.73H53.54v-5.3c0-.93,0-1.31-.58-1.31a1.53,1.53,0,0,0-1.28.88v5.73H50.6v-7.38h.91l.08.87a1.91,1.91,0,0,1,1.6-1,1.28,1.28,0,0,1,1.33,1,1.92,1.92,0,0,1,1.62-1C56.86,122.16,57.57,122.51,57.57,124.21Z"/><path class="f" d="M66,124.21v5.49H64.89v-5.3c0-.93,0-1.31-.57-1.31A1.57,1.57,0,0,0,63,124v5.73H61.94v-5.3c0-.93,0-1.31-.58-1.31a1.53,1.53,0,0,0-1.28.88v5.73H59v-7.38h.91l.08.87a1.91,1.91,0,0,1,1.6-1,1.28,1.28,0,0,1,1.33,1,1.92,1.92,0,0,1,1.62-1C65.26,122.16,66,122.51,66,124.21Z"/><path class="f" d="M74,129l-.29.84a1.49,1.49,0,0,1-1.35-1.05,2.84,2.84,0,0,1-2.31,1,2.16,2.16,0,0,1-2.38-2.27c0-1.51,1.22-2.36,3.45-2.36h1.09v-.61c0-1.07-.66-1.47-1.75-1.47a6.2,6.2,0,0,0-1.92.38l-.32-.89a7,7,0,0,1,2.42-.47c1.83,0,2.76.93,2.76,2.39v3.54C73.38,128.68,73.56,128.9,74,129Zm-1.79-1.11V126H71.12c-1.62,0-2.21.59-2.21,1.54a1.24,1.24,0,0,0,1.42,1.4A2.27,2.27,0,0,0,72.19,127.92Z"/><path class="f" d="M82.51,122.32l-.17,2.51h-1v-1.59h-.07c-1.14,0-1.95.81-2.43,2.44v3.11h1.5v.91H76.55v-.91h1.17v-5.56H76.55v-.91h2l.22,1.75a2.75,2.75,0,0,1,2.65-1.91A3.66,3.66,0,0,1,82.51,122.32Z"/><path class="f" d="M88.44,129.74a3.72,3.72,0,0,1-3.3,2.93l-.17-.94a2.55,2.55,0,0,0,2.34-2h-.4l-2.56-7.38H85.6l2.11,6.48,2.09-6.48H91Z"/><path class="g" d="M107.2,124.52h-5.43v-1h5.43Zm0,2.66h-5.43v-1h5.43Z"/><path class="f" d="M122.36,129.85a2.2,2.2,0,0,1-2.48-2.21v-4.4h-1.69v-.92h1.69v-1.67l1.18-.14v1.81h2.56l-.15.92h-2.41v4.39c0,.81.41,1.24,1.41,1.24a3,3,0,0,0,1.42-.35l.46.8A3.84,3.84,0,0,1,122.36,129.85Z"/><path class="f" d="M132.91,122.32l-.17,2.51h-1v-1.59h-.07c-1.14,0-1.95.81-2.43,2.44v3.11h1.5v.91H127v-.91h1.17v-5.56H127v-.91h2l.22,1.75a2.75,2.75,0,0,1,2.65-1.91A3.66,3.66,0,0,1,132.91,122.32Z"/><path class="f" d="M141.18,129l-.29.84a1.49,1.49,0,0,1-1.35-1.05,2.84,2.84,0,0,1-2.31,1,2.16,2.16,0,0,1-2.38-2.27c0-1.51,1.22-2.36,3.44-2.36h1.1v-.61c0-1.07-.66-1.47-1.75-1.47a6.2,6.2,0,0,0-1.92.38l-.33-.89a7.11,7.11,0,0,1,2.43-.47c1.83,0,2.76.93,2.76,2.39v3.54C140.58,128.68,140.76,128.9,141.18,129Zm-1.79-1.11V126h-1.07c-1.62,0-2.21.59-2.21,1.54a1.24,1.24,0,0,0,1.41,1.4A2.27,2.27,0,0,0,139.39,127.92Z"/><path class="f" d="M149.29,119.35V129.7h-1l-.11-1a2.5,2.5,0,0,1-2.09,1.12c-1.93,0-2.82-1.54-2.82-3.83s1.08-3.86,2.89-3.86a2.49,2.49,0,0,1,2,.89v-3.84ZM144.51,126c0,1.91.62,2.9,1.78,2.9a2.22,2.22,0,0,0,1.82-1.18v-3.67a2,2,0,0,0-1.68-.95C145.21,123.12,144.51,124.07,144.51,126Z"/><path class="f" d="M155.16,128.87a3.32,3.32,0,0,0,2-.66l.55.79a4.25,4.25,0,0,1-2.53.85c-2.15,0-3.37-1.54-3.37-3.83s1.24-3.86,3.21-3.86,3,1.39,3,3.63c0,.25,0,.48,0,.63h-5C153.08,128.13,154,128.87,155.16,128.87ZM153,125.53h3.84c0-1.59-.73-2.4-1.85-2.4S153.12,123.9,153,125.53Z"/><path class="f" d="M163.27,127.39a1.23,1.23,0,1,1-1.23,1.23A1.2,1.2,0,0,1,163.27,127.39Z"/><path class="i" d="M172.17,122.16c2,0,2.76,1.53,2.76,3.84s-1,3.85-2.92,3.85a2.4,2.4,0,0,1-2-.92l-.08.77h-1V119.35l1.18-.14v4.07A2.61,2.61,0,0,1,172.17,122.16Zm1.49,3.84c0-1.92-.6-2.88-1.75-2.88a2.36,2.36,0,0,0-1.85,1.17V128a2,2,0,0,0,1.68,1C173,128.9,173.66,128,173.66,126Z"/><path class="i" d="M180.84,129.74a3.73,3.73,0,0,1-3.31,2.93l-.16-.94a2.55,2.55,0,0,0,2.34-2h-.4l-2.56-7.38H178l2.11,6.48,2.09-6.48h1.22Z"/><path class="f" d="M190.25,131l-.6.64C187.36,129.8,186,128,186,124.8s1.33-5,3.62-6.87l.6.65c-2,1.79-3,3.28-3,6.22S188.26,129.24,190.25,131Z"/><path class="k" d="M86.91,144l-.77,2.47H84.93l3.15-9.65h1.54l3.14,9.65H91.5L90.73,144Zm3.5-1-1.59-5.15L87.23,143Z"/><path class="k" d="M100.81,139.45a7.17,7.17,0,0,1-2.16.21,2,2,0,0,1,1.29,1.87,2.48,2.48,0,0,1-2.77,2.5,3.17,3.17,0,0,1-1.11-.15,1,1,0,0,0-.38.71c0,.35.23.63,1,.63H98c1.48,0,2.6.86,2.6,2,0,1.44-1.27,2.24-3.52,2.24S94,148.74,94,147.24H95c0,.87.39,1.28,2,1.28s2.33-.42,2.33-1.22-.71-1.05-1.65-1.05H96.44c-1.29,0-1.86-.66-1.86-1.4a1.59,1.59,0,0,1,.81-1.29,2.1,2.1,0,0,1-1.23-2A2.65,2.65,0,0,1,97.1,139a7.16,7.16,0,0,0,3.36-.61Zm-5.45,2.08a1.58,1.58,0,0,0,1.75,1.72,1.52,1.52,0,0,0,1.61-1.74,1.47,1.47,0,0,0-1.64-1.68A1.55,1.55,0,0,0,95.36,141.53Z"/><path class="k" d="M109.21,139.45a7.17,7.17,0,0,1-2.16.21,2,2,0,0,1,1.29,1.87,2.48,2.48,0,0,1-2.77,2.5,3.17,3.17,0,0,1-1.11-.15,1,1,0,0,0-.38.71c0,.35.23.63,1,.63h1.33c1.49,0,2.61.86,2.61,2,0,1.44-1.27,2.24-3.52,2.24s-3.11-.73-3.11-2.23h1.07c0,.87.39,1.28,2,1.28s2.33-.42,2.33-1.22-.71-1.05-1.65-1.05h-1.32c-1.29,0-1.86-.66-1.86-1.4a1.59,1.59,0,0,1,.81-1.29,2.1,2.1,0,0,1-1.23-2A2.65,2.65,0,0,1,105.5,139a7.16,7.16,0,0,0,3.36-.61Zm-5.45,2.08a1.58,1.58,0,0,0,1.75,1.72,1.52,1.52,0,0,0,1.61-1.74,1.47,1.47,0,0,0-1.64-1.68A1.55,1.55,0,0,0,103.76,141.53Z"/><path class="k" d="M117.67,137.63l-.69.8a3,3,0,0,0-2-.71c-1.57,0-2.94,1-2.94,3.95s1.27,4,2.92,4a3.42,3.42,0,0,0,2.25-.8l.63.78a4,4,0,0,1-2.89,1.05c-2.35,0-4.19-1.73-4.19-5s1.91-5,4.13-5A4.14,4.14,0,0,1,117.67,137.63Z"/><path class="k" d="M125.63,142.8c0,2.27-1.12,3.85-3.18,3.85s-3.18-1.51-3.18-3.83,1.12-3.86,3.2-3.86S125.63,140.48,125.63,142.8Zm-5.08,0c0,2,.63,2.87,1.9,2.87s1.91-.91,1.91-2.89-.63-2.87-1.89-2.87S120.55,140.85,120.55,142.82Z"/><path class="k" d="M134.34,141v5.49h-1.08v-5.3c0-.93,0-1.31-.57-1.31a1.56,1.56,0,0,0-1.29.88v5.73h-1.09v-5.3c0-.93-.05-1.31-.58-1.31a1.56,1.56,0,0,0-1.29.88v5.73h-1.08v-7.38h.91l.09.87a1.9,1.9,0,0,1,1.6-1,1.28,1.28,0,0,1,1.33,1,1.9,1.9,0,0,1,1.62-1C133.63,139,134.34,139.31,134.34,141Z"/><path class="k" d="M139.74,139c2,0,2.76,1.53,2.76,3.84s-1,3.85-2.93,3.85a2.38,2.38,0,0,1-2-.92l-.08.77h-1V136.15l1.18-.14v4.07A2.61,2.61,0,0,1,139.74,139Zm1.49,3.84c0-1.92-.61-2.88-1.75-2.88a2.34,2.34,0,0,0-1.85,1.17v3.66a2,2,0,0,0,1.68.95C140.53,145.7,141.23,144.76,141.23,142.8Z"/><path class="k" d="M150.83,142.8c0,2.27-1.12,3.85-3.18,3.85s-3.18-1.51-3.18-3.83,1.12-3.86,3.2-3.86S150.83,140.48,150.83,142.8Zm-5.08,0c0,2,.63,2.87,1.9,2.87s1.91-.91,1.91-2.89-.63-2.87-1.89-2.87S145.75,140.85,145.75,142.82Z"/><path class="f" d="M157.82,147.82l-.61.64c-2.28-1.86-3.61-3.67-3.61-6.86s1.33-5,3.61-6.87l.61.65c-2,1.79-3,3.28-3,6.22S155.83,146,157.82,147.82Z"/><path class="k" d="M138.47,160.83l-.77,2.47h-1.2l3.15-9.65h1.54l3.14,9.65h-1.26l-.77-2.47Zm3.5-1-1.58-5.15-1.6,5.15Z"/><path class="k" d="M152.38,156.25a7.17,7.17,0,0,1-2.16.21,2,2,0,0,1,1.29,1.87,2.48,2.48,0,0,1-2.77,2.5,3.17,3.17,0,0,1-1.11-.15,1,1,0,0,0-.38.71c0,.35.22.63,1,.63h1.33c1.49,0,2.61.86,2.61,2,0,1.44-1.28,2.24-3.52,2.24s-3.11-.73-3.11-2.23h1.07c0,.87.39,1.28,2,1.28s2.33-.42,2.33-1.22-.72-1-1.66-1H148c-1.29,0-1.87-.66-1.87-1.4a1.58,1.58,0,0,1,.82-1.29,2.1,2.1,0,0,1-1.24-2,2.65,2.65,0,0,1,2.95-2.57,7.19,7.19,0,0,0,3.36-.61Zm-5.45,2.08a1.57,1.57,0,0,0,1.75,1.72,1.52,1.52,0,0,0,1.61-1.74,1.48,1.48,0,0,0-1.64-1.68A1.55,1.55,0,0,0,146.93,158.33Z"/><path class="k" d="M160.78,156.25a7.17,7.17,0,0,1-2.16.21,2,2,0,0,1,1.29,1.87,2.48,2.48,0,0,1-2.77,2.5,3.13,3.13,0,0,1-1.11-.15,1,1,0,0,0-.38.71c0,.35.22.63,1,.63H158c1.49,0,2.61.86,2.61,2,0,1.44-1.28,2.24-3.52,2.24s-3.11-.73-3.11-2.23H155c0,.87.39,1.28,2,1.28s2.33-.42,2.33-1.22-.72-1-1.66-1h-1.31c-1.29,0-1.87-.66-1.87-1.4a1.58,1.58,0,0,1,.82-1.29,2.1,2.1,0,0,1-1.24-2,2.65,2.65,0,0,1,2.95-2.57,7.19,7.19,0,0,0,3.36-.61Zm-5.45,2.08a1.57,1.57,0,0,0,1.75,1.72,1.52,1.52,0,0,0,1.61-1.74,1.48,1.48,0,0,0-1.64-1.68A1.55,1.55,0,0,0,155.33,158.33Z"/><path class="k" d="M163.67,160.83l-.77,2.47h-1.2l3.15-9.65h1.54l3.14,9.65h-1.26l-.77-2.47Zm3.5-1-1.58-5.15-1.6,5.15Z"/><path class="k" d="M174.69,163.3h-1.36l-2.67-7.38h1.26l2.13,6.31,2.1-6.31h1.23Z"/><path class="k" d="M186,156.25a7.17,7.17,0,0,1-2.16.21,2,2,0,0,1,1.29,1.87,2.48,2.48,0,0,1-2.78,2.5,3.11,3.11,0,0,1-1.1-.15,1,1,0,0,0-.38.71c0,.35.22.63,1,.63h1.33c1.49,0,2.61.86,2.61,2,0,1.44-1.28,2.24-3.52,2.24s-3.11-.73-3.11-2.23h1.07c0,.87.39,1.28,2,1.28s2.33-.42,2.33-1.22-.72-1-1.66-1h-1.31c-1.29,0-1.87-.66-1.87-1.4a1.58,1.58,0,0,1,.82-1.29,2.1,2.1,0,0,1-1.24-2,2.65,2.65,0,0,1,3-2.57,7.19,7.19,0,0,0,3.36-.61Zm-5.45,2.08a1.57,1.57,0,0,0,1.75,1.72,1.52,1.52,0,0,0,1.61-1.74,1.48,1.48,0,0,0-1.64-1.68A1.55,1.55,0,0,0,180.53,158.33Z"/><path class="f" d="M192.58,164.62l-.6.64c-2.28-1.86-3.61-3.67-3.61-6.86s1.33-5,3.61-6.87l.6.65c-2,1.79-3,3.28-3,6.22S190.59,162.84,192.58,164.62Z"/><path class="f" d="M197.31,153h1.47l-.22,3.64h-1Zm2.34,0h1.47l-.21,3.64h-1Z"/><path class="j" d="M205.67,160.83l-.77,2.47h-1.2l3.15-9.65h1.54l3.14,9.65h-1.26l-.77-2.47Zm3.5-1-1.58-5.15-1.6,5.15Z"/><path class="j" d="M216.69,163.3h-1.36l-2.67-7.38h1.26l2.13,6.31,2.1-6.31h1.23Z"/><path class="j" d="M228,156.25a7.17,7.17,0,0,1-2.16.21,2,2,0,0,1,1.29,1.87,2.48,2.48,0,0,1-2.78,2.5,3.11,3.11,0,0,1-1.1-.15,1,1,0,0,0-.38.71c0,.35.22.63,1,.63h1.33c1.49,0,2.61.86,2.61,2,0,1.44-1.28,2.24-3.52,2.24s-3.11-.73-3.11-2.23h1.07c0,.87.39,1.28,2,1.28s2.33-.42,2.33-1.22-.72-1-1.66-1h-1.31c-1.29,0-1.87-.66-1.87-1.4a1.58,1.58,0,0,1,.82-1.29,2.1,2.1,0,0,1-1.24-2,2.65,2.65,0,0,1,2.94-2.57,7.21,7.21,0,0,0,3.37-.61Zm-5.45,2.08a1.57,1.57,0,0,0,1.75,1.72,1.52,1.52,0,0,0,1.61-1.74,1.48,1.48,0,0,0-1.64-1.68A1.55,1.55,0,0,0,222.53,158.33Z"/><path class="j" d="M232.69,159.71h-1.24v3.59h-1.21v-9.65h2.45c2.31,0,3.73.95,3.73,3C236.42,158.87,234.86,159.71,232.69,159.71Zm.16-5.1h-1.4v4.14h1.35c1.34,0,2.32-.47,2.32-2.12C235.12,155.15,234.15,154.61,232.85,154.61Z"/><path class="j" d="M244.44,155.92l-.17,2.5h-1v-1.58h-.07c-1.14,0-1.95.81-2.42,2.44v3.11h1.5v.91h-3.84v-.91h1.16v-5.56h-1.16v-.91h2l.23,1.75a2.74,2.74,0,0,1,2.64-1.91A3.6,3.6,0,0,1,244.44,155.92Z"/><path class="j" d="M250.56,162.36h2.07v.94h-5.52v-.94h2.27v-5.5h-2.2v-.94h3.38Zm-.07-9.06a.81.81,0,0,1-.87.82.83.83,0,1,1,0-1.65A.81.81,0,0,1,250.49,153.3Z"/><path class="j" d="M260.48,161.8l.56.77a4,4,0,0,1-2.48.88c-2.21,0-3.47-1.5-3.47-3.81s1.28-3.88,3.47-3.88a3.76,3.76,0,0,1,2.47.87l-.57.77a3.39,3.39,0,0,0-1.91-.64c-1.27,0-2.18.94-2.18,2.88s.92,2.8,2.19,2.8A3.32,3.32,0,0,0,260.48,161.8Z"/><path class="j" d="M266.7,162.47a3.29,3.29,0,0,0,2-.66l.55.79a4.22,4.22,0,0,1-2.52.85c-2.16,0-3.38-1.54-3.38-3.83s1.25-3.86,3.21-3.86,3,1.39,3,3.63a5.29,5.29,0,0,1,0,.63h-4.95C264.61,161.73,265.56,162.47,266.7,162.47Zm-2.14-3.34h3.83c0-1.59-.73-2.4-1.85-2.4S264.65,157.5,264.56,159.13Z"/><path class="g" d="M277.54,158.12H272.1v-1h5.44Zm0,2.66H272.1v-1h5.44Z"/><path class="j" d="M283.09,159.71h-1.24v3.59h-1.21v-9.65h2.45c2.31,0,3.73.95,3.73,3C286.82,158.87,285.26,159.71,283.09,159.71Zm.16-5.1h-1.4v4.14h1.35c1.33,0,2.32-.47,2.32-2.12C285.52,155.15,284.55,154.61,283.25,154.61Z"/><path class="j" d="M294.84,155.92l-.17,2.5h-.95v-1.58h-.07c-1.14,0-1.95.81-2.42,2.44v3.11h1.49v.91h-3.83v-.91h1.16v-5.56h-1.16v-.91h2l.23,1.75a2.74,2.74,0,0,1,2.64-1.91A3.6,3.6,0,0,1,294.84,155.92Z"/><path class="j" d="M301,162.36H303v.94h-5.52v-.94h2.27v-5.5h-2.2v-.94H301Zm-.07-9.06a.81.81,0,0,1-.87.82.83.83,0,1,1,0-1.65A.81.81,0,0,1,300.89,153.3Z"/><path class="j" d="M310.88,161.8l.56.77a4,4,0,0,1-2.48.88c-2.21,0-3.47-1.5-3.47-3.81s1.27-3.88,3.47-3.88a3.76,3.76,0,0,1,2.47.87l-.58.77a3.36,3.36,0,0,0-1.9-.64c-1.27,0-2.19.94-2.19,2.88s.93,2.8,2.2,2.8A3.32,3.32,0,0,0,310.88,161.8Z"/><path class="j" d="M317.1,162.47a3.31,3.31,0,0,0,2-.66l.55.79a4.22,4.22,0,0,1-2.52.85c-2.16,0-3.38-1.54-3.38-3.83s1.25-3.86,3.21-3.86,3,1.39,3,3.63a5.29,5.29,0,0,1,0,.63h-5C315,161.73,316,162.47,317.1,162.47ZM315,159.13h3.84c0-1.59-.73-2.4-1.85-2.4S315.05,157.5,315,159.13Z"/><path class="f" d="M323.31,153h1.47l-.22,3.64h-1Zm2.34,0h1.47l-.21,3.64h-1Z"/><path class="f" d="M331.85,152.18l.6-.65c2.29,1.87,3.62,3.67,3.62,6.87s-1.33,5-3.62,6.86l-.6-.64c2-1.78,3-3.3,3-6.22S333.87,154,331.85,152.18Z"/><path class="f" d="M343.15,162.11a2.65,2.65,0,0,1-.26,1.11l-1.14,2.59h-1.06l.65-2.76a1.2,1.2,0,0,1-.44-.93,1.13,1.13,0,1,1,2.25,0Z"/><path class="k" d="M138.47,177.63l-.77,2.47h-1.2l3.15-9.65h1.54l3.14,9.65h-1.26l-.77-2.47Zm3.5-1-1.58-5.15-1.6,5.15Z"/><path class="k" d="M152.38,173.05a7.17,7.17,0,0,1-2.16.21,2,2,0,0,1,1.29,1.87,2.48,2.48,0,0,1-2.77,2.5,3.17,3.17,0,0,1-1.11-.15,1,1,0,0,0-.38.71c0,.36.22.63,1,.63h1.33c1.49,0,2.61.86,2.61,2,0,1.44-1.28,2.24-3.52,2.24s-3.11-.73-3.11-2.23h1.07c0,.87.39,1.28,2,1.28s2.33-.42,2.33-1.22-.72-1.05-1.66-1.05H148c-1.29,0-1.87-.66-1.87-1.4a1.58,1.58,0,0,1,.82-1.29,2.1,2.1,0,0,1-1.24-2,2.65,2.65,0,0,1,2.95-2.57A7.19,7.19,0,0,0,152,172Zm-5.45,2.08a1.57,1.57,0,0,0,1.75,1.72,1.52,1.52,0,0,0,1.61-1.74,1.48,1.48,0,0,0-1.64-1.68A1.55,1.55,0,0,0,146.93,175.13Z"/><path class="k" d="M160.78,173.05a7.17,7.17,0,0,1-2.16.21,2,2,0,0,1,1.29,1.87,2.48,2.48,0,0,1-2.77,2.5,3.13,3.13,0,0,1-1.11-.15,1,1,0,0,0-.38.71c0,.36.22.63,1,.63H158c1.49,0,2.61.86,2.61,2,0,1.44-1.28,2.24-3.52,2.24s-3.11-.73-3.11-2.23H155c0,.87.39,1.28,2,1.28s2.33-.42,2.33-1.22-.72-1.05-1.66-1.05h-1.31c-1.29,0-1.87-.66-1.87-1.4a1.58,1.58,0,0,1,.82-1.29,2.1,2.1,0,0,1-1.24-2,2.65,2.65,0,0,1,2.95-2.57,7.19,7.19,0,0,0,3.36-.61Zm-5.45,2.08a1.57,1.57,0,0,0,1.75,1.72,1.52,1.52,0,0,0,1.61-1.74,1.48,1.48,0,0,0-1.64-1.68A1.55,1.55,0,0,0,155.33,175.13Z"/><path class="k" d="M165.41,180.25A4.75,4.75,0,0,1,162,179l.73-.83a3.69,3.69,0,0,0,2.67,1c1.18,0,2.24-.58,2.24-1.8,0-.94-.44-1.4-2.1-1.87-1.92-.57-3.11-1.27-3.11-2.79s1.28-2.5,3.13-2.5a4.46,4.46,0,0,1,3.08,1.11l-.73.79a3.42,3.42,0,0,0-2.31-.87c-1.07,0-1.93.46-1.93,1.43,0,.82.58,1.24,2.42,1.77,1.51.44,2.83,1.07,2.83,2.9C168.94,179.09,167.65,180.25,165.41,180.25Z"/><path class="k" d="M172.39,178c0,.95.4,1.37,1.25,1.37a2.53,2.53,0,0,0,2-1.18v-5.43h1.18v7.38h-1l-.1-1a3,3,0,0,1-2.36,1.14,1.92,1.92,0,0,1-2.13-2.17v-5.36h1.17Z"/><path class="k" d="M185.91,174.61v5.49h-1.08v-5.3c0-.93,0-1.31-.58-1.31a1.55,1.55,0,0,0-1.28.88v5.73h-1.1v-5.3c0-.93,0-1.31-.57-1.31a1.56,1.56,0,0,0-1.29.88v5.73h-1.08v-7.38h.91l.09.87a1.89,1.89,0,0,1,1.59-1,1.28,1.28,0,0,1,1.33,1,1.93,1.93,0,0,1,1.63-1C185.19,172.56,185.91,172.91,185.91,174.61Z"/><path class="f" d="M192.58,181.42l-.6.64c-2.28-1.86-3.61-3.67-3.61-6.86s1.33-5,3.61-6.87l.6.65c-2,1.79-3,3.28-3,6.22S190.59,179.64,192.58,181.42Z"/><path class="f" d="M197.31,169.75h1.47l-.22,3.64h-1Zm2.34,0h1.47l-.21,3.64h-1Z"/><path class="j" d="M208.21,180.1H207v-8.6h-3v-1.05h7.27l-.13,1.05h-2.91Z"/><path class="j" d="M219.2,176.4c0,2.27-1.12,3.85-3.18,3.85s-3.18-1.51-3.18-3.83,1.12-3.86,3.19-3.86S219.2,174.08,219.2,176.4Zm-5.09,0c0,2,.63,2.87,1.91,2.87s1.9-.91,1.9-2.89-.63-2.87-1.89-2.87S214.11,174.45,214.11,176.42Z"/><path class="j" d="M225.5,180.25A2.19,2.19,0,0,1,223,178v-4.4h-1.7v-.92H223v-1.67l1.17-.14v1.81h2.57l-.16.92h-2.41V178c0,.81.41,1.24,1.42,1.24a2.94,2.94,0,0,0,1.41-.35l.47.8A3.84,3.84,0,0,1,225.5,180.25Z"/><path class="j" d="M235.91,179.43l-.29.84a1.46,1.46,0,0,1-1.34-1.05,2.86,2.86,0,0,1-2.32,1,2.16,2.16,0,0,1-2.38-2.27c0-1.51,1.22-2.36,3.45-2.36h1.09V175c0-1.07-.66-1.47-1.75-1.47a6.25,6.25,0,0,0-1.92.38l-.32-.89a7,7,0,0,1,2.42-.47c1.84,0,2.76.93,2.76,2.38v3.55C235.31,179.08,235.49,179.3,235.91,179.43Zm-1.79-1.11v-1.89h-1.06c-1.63,0-2.22.59-2.22,1.54a1.24,1.24,0,0,0,1.42,1.4A2.24,2.24,0,0,0,234.12,178.32Z"/><path class="j" d="M241.3,178.28c0,.73.51,1,1.22,1a3.22,3.22,0,0,0,1.23-.25l.31.86a3.77,3.77,0,0,1-1.75.37,2,2,0,0,1-2.18-2v-7.53h-2.27v-.94h3.44Z"/><path class="j" d="M252.25,170.45h1.22l-3.22,9.65H249l-3.22-9.65h1.3l2.58,8.26Z"/><path class="j" d="M261.2,176.4c0,2.27-1.12,3.85-3.18,3.85s-3.18-1.51-3.18-3.83,1.12-3.86,3.19-3.86S261.2,174.08,261.2,176.4Zm-5.09,0c0,2,.63,2.87,1.91,2.87s1.9-.91,1.9-2.89-.63-2.87-1.89-2.87S256.11,174.45,256.11,176.42Z"/><path class="j" d="M266.5,178.28c0,.73.51,1,1.22,1A3.26,3.26,0,0,0,269,179l.31.86a3.77,3.77,0,0,1-1.75.37,2,2,0,0,1-2.18-2v-7.53h-2.27v-.94h3.44Z"/><path class="j" d="M273.19,178c0,.95.4,1.37,1.25,1.37a2.53,2.53,0,0,0,2-1.18v-5.43h1.18v7.38h-1l-.1-1a3.07,3.07,0,0,1-2.36,1.14,1.92,1.92,0,0,1-2.13-2.17v-5.36h1.17Z"/><path class="j" d="M286.71,174.61v5.49h-1.08v-5.3c0-.93-.05-1.31-.58-1.31a1.57,1.57,0,0,0-1.29.88v5.73h-1.09v-5.3c0-.93,0-1.31-.57-1.31a1.54,1.54,0,0,0-1.29.88v5.73h-1.08v-7.38h.91l.08.87a1.92,1.92,0,0,1,1.6-1,1.28,1.28,0,0,1,1.33,1,1.92,1.92,0,0,1,1.63-1C286,172.56,286.71,172.91,286.71,174.61Z"/><path class="j" d="M291.9,179.27a3.31,3.31,0,0,0,2-.66l.55.79a4.22,4.22,0,0,1-2.52.85c-2.16,0-3.38-1.54-3.38-3.83s1.25-3.86,3.21-3.86,3,1.39,3,3.63a5.29,5.29,0,0,1,0,.63h-5C289.81,178.53,290.76,179.27,291.9,179.27Zm-2.15-3.34h3.84c0-1.59-.73-2.4-1.85-2.4S289.85,174.3,289.75,175.93Z"/><path class="g" d="M302.74,174.92H297.3v-1h5.44Zm0,2.66H297.3v-1h5.44Z"/><path class="j" d="M308.21,180.25a4.75,4.75,0,0,1-3.39-1.21l.73-.83a3.68,3.68,0,0,0,2.67,1c1.18,0,2.24-.58,2.24-1.8,0-.94-.45-1.4-2.1-1.87-1.92-.57-3.11-1.27-3.11-2.79s1.28-2.5,3.13-2.5a4.48,4.48,0,0,1,3.08,1.11l-.73.79a3.42,3.42,0,0,0-2.31-.87c-1.07,0-1.94.46-1.94,1.43,0,.82.59,1.24,2.43,1.77,1.51.44,2.83,1.07,2.83,2.9C311.74,179.09,310.45,180.25,308.21,180.25Z"/><path class="j" d="M317.76,179.16h2.07v.94h-5.52v-.94h2.27v-5.5h-2.2v-.94h3.38Zm-.07-9.06a.81.81,0,0,1-.87.82.83.83,0,1,1,0-1.65A.81.81,0,0,1,317.69,170.1Z"/><path class="j" d="M328,179.09l-.14,1h-5.41v-.9l4.09-5.45h-3.76v-1H328v.92l-4.06,5.45Z"/><path class="j" d="M333.9,179.27a3.31,3.31,0,0,0,2-.66l.55.79a4.22,4.22,0,0,1-2.52.85c-2.16,0-3.38-1.54-3.38-3.83s1.25-3.86,3.21-3.86,3,1.39,3,3.63a5.29,5.29,0,0,1,0,.63h-5C331.81,178.53,332.76,179.27,333.9,179.27Zm-2.15-3.34h3.84c0-1.59-.73-2.4-1.85-2.4S331.85,174.3,331.75,175.93Z"/><path class="f" d="M340.11,169.75h1.47l-.22,3.64h-1Zm2.34,0h1.47l-.21,3.64h-1Z"/><path class="f" d="M348.65,169l.6-.65c2.29,1.87,3.62,3.67,3.62,6.87s-1.33,5-3.62,6.86l-.6-.64c2-1.78,3-3.3,3-6.22S350.67,170.77,348.65,169Z"/><path class="f" d="M87.09,185.78l.6-.65C90,187,91.3,188.8,91.3,192s-1.33,5-3.61,6.86l-.6-.64c2-1.78,3-3.3,3-6.22S89.1,187.57,87.09,185.78Z"/><path class="f" d="M98.39,195.71a2.53,2.53,0,0,1-.27,1.11L97,199.41H95.92l.66-2.76a1.18,1.18,0,0,1-.45-.93,1.13,1.13,0,0,1,2.26,0Z"/><path class="f" d="M87,203.35h1.47L88.19,207h-1Zm2.34,0h1.47L90.55,207h-1Z"/><path class="j" d="M97,213.85a4.77,4.77,0,0,1-3.39-1.21l.73-.83a3.7,3.7,0,0,0,2.68,1c1.17,0,2.24-.58,2.24-1.8,0-.94-.45-1.4-2.1-1.87-1.92-.57-3.11-1.27-3.11-2.79s1.27-2.5,3.12-2.5a4.44,4.44,0,0,1,3.08,1.11l-.73.79a3.41,3.41,0,0,0-2.31-.87c-1.06,0-1.93.46-1.93,1.43,0,.82.59,1.24,2.42,1.77,1.52.44,2.83,1.07,2.83,2.9C100.57,212.69,99.28,213.85,97,213.85Z"/><path class="j" d="M106.41,213.74a3.74,3.74,0,0,1-3.31,2.93l-.17-.94a2.53,2.53,0,0,0,2.34-2h-.39l-2.56-7.38h1.25l2.11,6.48,2.09-6.48H109Z"/><path class="j" d="M117.54,208.21v5.49h-1.08v-5.3c0-.93,0-1.31-.57-1.31a1.56,1.56,0,0,0-1.29.88v5.73h-1.09v-5.3c0-.93-.05-1.31-.58-1.31a1.56,1.56,0,0,0-1.29.88v5.73h-1.08v-7.38h.91l.09.87a1.9,1.9,0,0,1,1.6-1,1.28,1.28,0,0,1,1.33,1,1.9,1.9,0,0,1,1.62-1C116.83,206.16,117.54,206.51,117.54,208.21Z"/><path class="f" d="M120.55,203.35H122l-.23,3.64h-1Zm2.34,0h1.47l-.21,3.64h-1Z"/><path class="f" d="M35.52,219.38l.6-.65c2.29,1.87,3.62,3.67,3.62,6.87s-1.33,5-3.62,6.86l-.6-.64c2-1.78,3-3.3,3-6.22S37.54,221.17,35.52,219.38Z"/><circle class="l" cx="15.76" cy="15.62" r="6.56"/><circle class="m" cx="39.82" cy="15.62" r="6.56"/><circle class="n" cx="63.89" cy="15.62" r="6.56"/><rect class="d" x="408.74" y="56.97" width="346.88" height="250.59" rx="5.8"/><rect class="o" x="414.74" y="62.97" width="346.88" height="239.39" rx="5.67"/><circle class="l" cx="432.83" cy="79.33" r="6.56"/><circle class="m" cx="456.89" cy="79.33" r="6.56"/><circle class="n" cx="480.95" cy="79.33" r="6.56"/><path class="g" d="M572.34,82.82a3.46,3.46,0,0,1-2,.62,2.27,2.27,0,0,1-2.44-2.58V75.4h-1.58V74.18h1.58V72.13l1.58-.19v2.24h2.15l-.17,1.22h-2v5.39c0,.91.3,1.34,1.09,1.34a2.26,2.26,0,0,0,1.2-.39Z"/><path class="g" d="M578.8,74.08l-.29,1.54a2.75,2.75,0,0,0-.79-.1c-1.13,0-1.79.81-2.16,2.54v5.17H574v-9h1.36l.16,1.84a2.58,2.58,0,0,1,2.42-2A3.74,3.74,0,0,1,578.8,74.08Z"/><path class="g" d="M587.12,82.34l-.36,1.1A1.82,1.82,0,0,1,585,82.08a3.08,3.08,0,0,1-2.7,1.36,2.63,2.63,0,0,1-2.88-2.73c0-1.94,1.46-3,4-3h1.39v-.67c0-1.31-.63-1.79-1.89-1.79a8.09,8.09,0,0,0-2.44.48l-.39-1.15a8.92,8.92,0,0,1,3.13-.62c2.18,0,3.17,1.12,3.17,3v4.14C586.36,81.91,586.66,82.17,587.12,82.34Zm-2.34-1.5V78.77H583.6c-1.67,0-2.51.61-2.51,1.85a1.42,1.42,0,0,0,1.56,1.63A2.31,2.31,0,0,0,584.78,80.84Z"/><path class="g" d="M596.63,70.54V83.23h-1.4L595.08,82a3,3,0,0,1-2.61,1.46c-2.2,0-3.42-1.87-3.42-4.69S590.39,74,592.61,74a3.26,3.26,0,0,1,2.44,1.12V70.35Zm-1.58,10.3V76.41a2.61,2.61,0,0,0-2.1-1.18c-1.36,0-2.2,1.13-2.2,3.48s.76,3.48,2.06,3.48A2.6,2.6,0,0,0,595.05,80.84Z"/><path class="g" d="M606.7,79.25h-5.77c.15,2.09,1.13,2.9,2.44,2.9a3.81,3.81,0,0,0,2.35-.79l.69,1a5,5,0,0,1-3.16,1.13c-2.53,0-4-1.77-4-4.64S600.67,74,603,74s3.73,1.7,3.73,4.47C606.73,78.75,606.72,79,606.7,79.25ZM605.17,78c0-1.77-.7-2.75-2.13-2.75-1.2,0-2,.84-2.11,2.85h4.24Z"/><path class="g" d="M614.88,75l-.67,1a4.14,4.14,0,0,0-2.35-.77c-1,0-1.67.46-1.67,1.18s.48,1.08,1.94,1.46c1.91.48,3,1.24,3,2.82,0,1.89-1.74,2.75-3.57,2.75a5,5,0,0,1-3.42-1.19l.84-1a4.09,4.09,0,0,0,2.54.88c1.19,0,1.94-.52,1.94-1.38s-.44-1.23-2.2-1.7c-2-.51-2.73-1.36-2.73-2.63,0-1.44,1.39-2.49,3.27-2.49A4.81,4.81,0,0,1,614.88,75Z"/><rect class="e" x="431.6" y="77.79" width="347.4" height="239.39" rx="5.67"/><circle class="l" cx="449.69" cy="94.15" r="6.56"/><circle class="m" cx="473.75" cy="94.15" r="6.56"/><circle class="n" cx="497.81" cy="94.15" r="6.56"/><path class="g" d="M578.91,89.82l-.67,1a4.15,4.15,0,0,0-2.35-.78c-1,0-1.67.47-1.67,1.19s.48,1.08,1.94,1.46c1.91.48,3,1.24,3,2.82,0,1.89-1.74,2.75-3.58,2.75a5,5,0,0,1-3.41-1.19l.84-1a4.09,4.09,0,0,0,2.54.87c1.19,0,1.94-.51,1.94-1.37s-.45-1.24-2.2-1.7c-2-.52-2.73-1.36-2.73-2.63,0-1.44,1.39-2.49,3.26-2.49A4.82,4.82,0,0,1,578.91,89.82Z"/><path class="g" d="M588.14,98.05h-1.36l-.12-1.41a3,3,0,0,1-2.82,1.62c-1.58,0-2.52-1-2.52-2.77V89h1.58v6.32c0,1.24.41,1.7,1.39,1.7a2.73,2.73,0,0,0,2.27-1.56V89h1.58Z"/><path class="g" d="M603,91.56v6.49h-1.58V91.78c0-1.36-.58-1.75-1.27-1.75-1,0-1.51.63-2.13,1.59v6.43h-1.58V91.78c0-1.36-.58-1.75-1.27-1.75-1,0-1.53.63-2.13,1.59v6.43h-1.58V89h1.36l.13,1.32a3,3,0,0,1,2.62-1.53,2.28,2.28,0,0,1,2.28,1.63,3.14,3.14,0,0,1,2.7-1.63A2.46,2.46,0,0,1,603,91.56Z"/><path class="g" d="M617.69,91.56v6.49H616.1V91.78c0-1.36-.58-1.75-1.27-1.75-1,0-1.51.63-2.13,1.59v6.43h-1.58V91.78c0-1.36-.58-1.75-1.27-1.75-1,0-1.53.63-2.13,1.59v6.43h-1.58V89h1.36l.13,1.32a3,3,0,0,1,2.62-1.53,2.28,2.28,0,0,1,2.28,1.63,3.14,3.14,0,0,1,2.7-1.63A2.46,2.46,0,0,1,617.69,91.56Z"/><path class="g" d="M627.73,97.16l-.36,1.1a1.83,1.83,0,0,1-1.77-1.36,3.11,3.11,0,0,1-2.7,1.36A2.64,2.64,0,0,1,620,95.52c0-1.94,1.46-3,4-3h1.39v-.67c0-1.31-.64-1.79-1.89-1.79a8.09,8.09,0,0,0-2.44.48l-.4-1.15a9,9,0,0,1,3.13-.62c2.18,0,3.18,1.12,3.18,3v4.14C627,96.73,627.26,97,627.73,97.16Zm-2.34-1.5V93.58H624.2c-1.66,0-2.5.62-2.5,1.86a1.43,1.43,0,0,0,1.56,1.63A2.32,2.32,0,0,0,625.39,95.66Z"/><path class="g" d="M635.05,88.89l-.29,1.55a2.85,2.85,0,0,0-.79-.1c-1.14,0-1.79.8-2.17,2.54v5.17h-1.58V89h1.36l.15,1.83a2.59,2.59,0,0,1,2.43-2A3.8,3.8,0,0,1,635.05,88.89Z"/><path class="g" d="M640.65,98.1a4.59,4.59,0,0,1-4.21,3.61l-.17-1.24a3.08,3.08,0,0,0,2.87-2.42h-.53l-3-9h1.68l2.42,7.9L642,89h1.64Z"/><rect class="p" x="432" y="147.06" width="346.47" height="1.36"/><path class="f" d="M547.72,135.78H544l-.67,2.66h-2.63l3.66-11.89h3.07l3.65,11.89h-2.68Zm-.48-1.87-1.4-5.48-1.39,5.48Z"/><path class="f" d="M556.07,138.44h-2.9l-3-9.1h2.65l1.8,7.2,1.84-7.2H559Z"/><path class="f" d="M568.31,129.84a7.7,7.7,0,0,1-2.63.34,2.39,2.39,0,0,1,1.68,2.34c0,1.77-1.42,3-3.74,3a4,4,0,0,1-1.07-.12.77.77,0,0,0-.34.61c0,.3.15.6,1,.6h1.39c2.06,0,3.38,1.1,3.38,2.61,0,1.84-1.6,2.95-4.64,2.95-3.33,0-4.24-1.08-4.24-2.9h2.18c0,.86.38,1.24,2.12,1.24s2.13-.47,2.13-1.12-.47-1-1.43-1h-1.34c-1.91,0-2.7-.82-2.7-1.78a2.07,2.07,0,0,1,1.07-1.7,2.72,2.72,0,0,1-1.62-2.6c0-2,1.6-3.3,3.89-3.3a7.24,7.24,0,0,0,4.26-1.1ZM562,132.33a1.47,1.47,0,0,0,1.51,1.66c1,0,1.5-.58,1.5-1.7s-.5-1.6-1.51-1.6A1.46,1.46,0,0,0,562,132.33Z"/><path class="f" d="M578.12,130.39c0,2.74-2,4-4.67,4h-1.36v4.05h-2.52V126.55h3.67C576.27,126.55,578.12,127.79,578.12,130.39Zm-2.61,0c0-1.4-.82-2-2.3-2h-1.12v4.15h1.15C574.63,132.53,575.51,132,575.51,130.39Z"/><path class="f" d="M585.36,129.22l-.41,2.35a3,3,0,0,0-.81-.12c-1.12,0-1.63.83-2,2.3v4.69h-2.44v-9.1h2.11l.23,1.77a2.6,2.6,0,0,1,2.37-2A3.09,3.09,0,0,1,585.36,129.22Z"/><path class="f" d="M589.26,126.07a1.42,1.42,0,0,1-1.49,1.43,1.43,1.43,0,1,1,1.49-1.43ZM589,138.44h-2.44v-9.1H589Z"/><path class="f" d="M598.23,130.16l-1.06,1.45a2.78,2.78,0,0,0-1.79-.66c-1.22,0-1.94.88-1.94,3s.77,2.82,1.92,2.82a3.1,3.1,0,0,0,1.81-.64l1.06,1.53a4.55,4.55,0,0,1-3,1.07c-2.71,0-4.38-1.86-4.38-4.76s1.69-4.9,4.35-4.9A4.36,4.36,0,0,1,598.23,130.16Z"/><path class="f" d="M607.1,134.63h-5.68c.17,1.75,1,2.27,2.16,2.27a3.7,3.7,0,0,0,2.22-.79l1,1.37a5.38,5.38,0,0,1-3.45,1.24c-2.92,0-4.45-1.93-4.45-4.78s1.47-4.88,4.14-4.88,4.1,1.72,4.1,4.62C607.15,134,607.12,134.37,607.1,134.63ZM604.73,133c0-1.38-.46-2.27-1.63-2.27-1,0-1.55.64-1.68,2.37h3.31Z"/><path class="f" d="M662.2,128.53h-3v9.91h-2.53v-9.91h-3.16v-2h9Z"/><path class="f" d="M670.52,133.89c0,2.89-1.63,4.83-4.36,4.83s-4.36-1.81-4.36-4.83,1.63-4.83,4.38-4.83S670.52,130.87,670.52,133.89Zm-6.18,0c0,2.1.62,3,1.82,3s1.82-.93,1.82-3-.62-3-1.8-3S664.34,131.81,664.34,133.89Z"/><path class="f" d="M677.83,138a4.25,4.25,0,0,1-2.37.71c-1.89,0-2.85-1.1-2.85-3.13v-4.54h-1.36v-1.71h1.36v-2l2.44-.29v2.29h2.09l-.24,1.71h-1.85v4.49c0,.89.29,1.24.91,1.24a2.06,2.06,0,0,0,1-.33Z"/><path class="f" d="M686.54,137.07l-.51,1.61a2.21,2.21,0,0,1-2.1-1.32,3.1,3.1,0,0,1-2.73,1.36,2.72,2.72,0,0,1-3-2.82c0-2,1.49-3.08,4.19-3.08h1v-.44c0-1.14-.49-1.5-1.64-1.5a8.28,8.28,0,0,0-2.4.48l-.55-1.63a9.57,9.57,0,0,1,3.37-.67c2.52,0,3.6,1.12,3.6,3.18v3.68C685.87,136.66,686.1,136.91,686.54,137.07Zm-3-1.12v-1.73h-.81c-1.33,0-2,.48-2,1.47,0,.81.41,1.28,1.17,1.28A1.83,1.83,0,0,0,683.49,136Z"/><path class="f" d="M688.23,136.24V125.71l2.44-.27v10.73c0,.4.16.61.5.61a1,1,0,0,0,.48-.11l.5,1.74a4.07,4.07,0,0,1-1.56.31A2.21,2.21,0,0,1,688.23,136.24Z"/><path class="f" d="M698.66,138.44h-3.07l-3.54-11.89h2.7l2.42,9.8,2.33-9.8h2.58Z"/><path class="f" d="M710.73,133.89c0,2.89-1.63,4.83-4.37,4.83s-4.36-1.81-4.36-4.83,1.63-4.83,4.38-4.83S710.73,130.87,710.73,133.89Zm-6.19,0c0,2.1.62,3,1.82,3s1.83-.93,1.83-3-.62-3-1.81-3S704.54,131.81,704.54,133.89Z"/><path class="f" d="M712.5,136.24V125.71l2.44-.27v10.73c0,.4.16.61.5.61a1,1,0,0,0,.48-.11l.5,1.74a4.07,4.07,0,0,1-1.56.31A2.21,2.21,0,0,1,712.5,136.24Z"/><path class="f" d="M725.13,138.44H723l-.12-1.22a3.05,3.05,0,0,1-2.77,1.5c-1.68,0-2.54-1.08-2.54-2.84v-6.54H720v6.23c0,1,.33,1.33,1,1.33a2,2,0,0,0,1.66-1.19v-6.37h2.44Z"/><path class="f" d="M739.79,131.81v6.63h-2.44v-6.22c0-1-.41-1.34-.89-1.34-.67,0-1.12.47-1.58,1.27v6.29h-2.44v-6.22c0-1-.4-1.34-.89-1.34-.68,0-1.12.47-1.57,1.27v6.29h-2.44v-9.1h2.12l.18,1.13a3.11,3.11,0,0,1,2.65-1.41,2.2,2.2,0,0,1,2.18,1.5,3.18,3.18,0,0,1,2.72-1.5C738.81,129.06,739.79,130.09,739.79,131.81Z"/><path class="f" d="M749.76,134.63h-5.68c.17,1.75,1,2.27,2.16,2.27a3.68,3.68,0,0,0,2.22-.79l1,1.37a5.38,5.38,0,0,1-3.45,1.24c-2.92,0-4.45-1.93-4.45-4.78s1.48-4.88,4.14-4.88,4.11,1.72,4.11,4.62C749.82,134,749.78,134.37,749.76,134.63ZM747.39,133c0-1.38-.46-2.27-1.63-2.27-1,0-1.55.63-1.68,2.37h3.31Z"/><path class="f" d="M458.9,127.77l-1.2,1.4a3.94,3.94,0,0,0-2.63-1c-1,0-1.73.45-1.73,1.29s.44,1.17,2.39,1.77c2.14.68,3.52,1.58,3.52,3.78s-1.72,3.71-4.61,3.71a6.06,6.06,0,0,1-4.39-1.67l1.3-1.42a4.48,4.48,0,0,0,3,1.18c1.21,0,2-.58,2-1.63s-.46-1.36-2.27-1.91c-2.58-.81-3.61-1.84-3.61-3.64,0-2,1.76-3.35,4.16-3.35A5.44,5.44,0,0,1,458.9,127.77Z"/><path class="f" d="M465.28,138.46a5,5,0,0,1-4.91,3.76l-.26-1.75c1.81-.24,2.42-.79,2.92-2h-.84l-2.83-9.1H462l1.82,7.52,1.93-7.52h2.52Z"/><path class="f" d="M481.64,131.81v6.63H479.2v-6.22c0-1-.41-1.34-.89-1.34-.67,0-1.12.47-1.58,1.27v6.29h-2.44v-6.22c0-1-.4-1.34-.89-1.34-.67,0-1.12.47-1.57,1.27v6.29h-2.44v-9.1h2.12l.19,1.13a3.1,3.1,0,0,1,2.64-1.41,2.2,2.2,0,0,1,2.18,1.5,3.18,3.18,0,0,1,2.72-1.5C480.66,129.06,481.64,130.09,481.64,131.81Z"/><rect class="e" x="431.6" y="148.42" width="346.88" height="22.95"/><rect class="o" x="431.6" y="171.36" width="346.88" height="22.95"/><rect class="e" x="431.6" y="194.31" width="346.88" height="22.95"/><rect class="o" x="431.6" y="217.26" width="346.88" height="22.95"/><rect class="e" x="431.6" y="240.21" width="346.88" height="22.95"/><rect class="o" x="431.6" y="263.15" width="346.88" height="22.95"/><rect class="e" x="431.6" y="286.1" width="346.88" height="22.95"/><g class="q"><path class="h" d="M454.55,164.28h-4.49l-.89,3h-1.65l3.8-11.84h2.06l3.78,11.84h-1.72Zm-.4-1.32-1.84-6.19L450.46,163Z"/><path class="h" d="M466.39,156.51l-1,1a3.73,3.73,0,0,0-2.6-1c-1.7,0-3.4,1.29-3.4,4.77s1.15,4.8,3.23,4.8a4.47,4.47,0,0,0,2.25-.55V162h-2.1l-.18-1.32h3.9v5.72a7.51,7.51,0,0,1-4,1.05c-2.94,0-4.85-2.05-4.85-6.14s2.44-6.11,5.11-6.11A5.11,5.11,0,0,1,466.39,156.51Z"/><path class="h" d="M454.55,187.2h-4.49l-.89,3h-1.65l3.8-11.84h2.06l3.78,11.84h-1.72Zm-.4-1.33-1.84-6.18-1.85,6.18Z"/><path class="h" d="M469.57,190.17H468l-.42-5.34c-.15-1.86-.27-3.85-.29-4.83l-2.56,8.83h-1.53L460.5,180c0,1.39-.09,3.23-.23,5l-.39,5.22h-1.55l1-11.84h2.2l2.49,8.61,2.37-8.61h2.22Z"/><path class="h" d="M479.92,179.29l-.9,1.05a3.47,3.47,0,0,0-2.28-.87c-1.79,0-3.28,1.2-3.28,4.77,0,3.42,1.42,4.76,3.26,4.76a4,4,0,0,0,2.51-1l.82,1.05a4.6,4.6,0,0,1-3.38,1.33c-2.87,0-4.95-2.15-4.95-6.14s2.23-6.11,4.91-6.11A4.71,4.71,0,0,1,479.92,179.29Z"/><path class="h" d="M454.55,210.12h-4.49l-.89,3h-1.65l3.8-11.84h2.06l3.78,11.84h-1.72Zm-.4-1.33-1.84-6.18-1.85,6.18Z"/><path class="h" d="M466.39,202.35l-1,1a3.74,3.74,0,0,0-2.6-1c-1.7,0-3.4,1.29-3.4,4.78s1.15,4.8,3.23,4.8a4.47,4.47,0,0,0,2.25-.55v-3.56h-2.1l-.18-1.32h3.9v5.72a7.6,7.6,0,0,1-4,1.05c-2.94,0-4.85-2.05-4.85-6.14s2.44-6.11,5.11-6.11A5.11,5.11,0,0,1,466.39,202.35Z"/><path class="h" d="M471,213.09h-1.64V201.25H471Z"/><path class="h" d="M454.55,233h-4.49l-.89,3h-1.65l3.8-11.84h2.06L457.16,236h-1.72Zm-.4-1.33-1.84-6.18-1.85,6.18Z"/><path class="h" d="M460.62,234.58h4.86l-.19,1.43H459V224.17h1.64Z"/><path class="h" d="M470.64,236h-1.76l-3.81-11.84h1.75l3,10.07,3-10.07h1.65Z"/><path class="h" d="M454.55,256h-4.49l-.89,3h-1.65l3.8-11.84h2.06l3.78,11.84h-1.72Zm-.4-1.32-1.84-6.18-1.85,6.18Z"/><path class="h" d="M460.62,257.5h4.86l-.19,1.43H459V247.09h1.64Z"/><path class="h" d="M469.18,258.93h-1.64V247.09h1.64Zm1.95-6.43,4.81,6.43h-2l-4.67-6.33,4.5-5.51h1.86Z"/><path class="h" d="M454.55,278.87h-4.49l-.89,3h-1.65l3.8-11.83h2.06l3.78,11.83h-1.72Zm-.4-1.32-1.84-6.19-1.85,6.19Z"/><path class="h" d="M465.2,271.31h-4.58v3.87h4v1.3h-4v4.06h4.91v1.3H459V270h6.41Z"/><path class="h" d="M476.1,271.11l-1,1a3.73,3.73,0,0,0-2.6-1c-1.7,0-3.4,1.29-3.4,4.78s1.15,4.79,3.23,4.79a4.37,4.37,0,0,0,2.25-.55V276.6h-2.09l-.19-1.32h3.9V281a7.51,7.51,0,0,1-4,1.05c-2.94,0-4.84-2-4.84-6.13s2.44-6.12,5.1-6.12A5,5,0,0,1,476.1,271.11Z"/><path class="h" d="M454.55,301.79h-4.49l-.89,3h-1.65l3.8-11.83h2.06l3.78,11.83h-1.72Zm-.4-1.32-1.84-6.19-1.85,6.19Z"/><path class="h" d="M465.89,293.89l-.89,1.05a3.49,3.49,0,0,0-2.29-.88c-1.79,0-3.28,1.2-3.28,4.78,0,3.41,1.43,4.76,3.26,4.76a4,4,0,0,0,2.51-1l.83,1a4.64,4.64,0,0,1-3.39,1.32c-2.87,0-4.95-2.15-4.95-6.13s2.24-6.12,4.92-6.12A4.66,4.66,0,0,1,465.89,293.89Z"/><path class="h" d="M476.05,301.4c0,2.5-1.94,3.36-4.69,3.36h-3.27V292.93h2.8c2.92,0,4.64.92,4.64,3a2.63,2.63,0,0,1-2.21,2.59C474.69,298.75,476.05,299.39,476.05,301.4Zm-6.32-7.19v3.73h1.78c1.33,0,2.36-.65,2.36-1.9,0-1.46-1.05-1.83-2.8-1.83Zm4.6,7.19c0-1.67-1.24-2.2-2.66-2.2h-1.94v4.26h1.63C473.08,303.46,474.33,303.11,474.33,301.4Z"/><path class="h" d="M454.55,324.71h-4.49l-.89,3h-1.65l3.8-11.84h2.06l3.78,11.84h-1.72Zm-.4-1.32-1.84-6.19-1.85,6.19Z"/><path class="h" d="M466.94,324.31c0,2.51-1.94,3.37-4.69,3.37H459V315.84h2.8c2.92,0,4.64.93,4.64,3a2.64,2.64,0,0,1-2.21,2.6C465.58,321.67,466.94,322.3,466.94,324.31Zm-6.32-7.18v3.73h1.78c1.33,0,2.36-.65,2.36-1.91,0-1.46-1.05-1.82-2.8-1.82Zm4.6,7.18c0-1.66-1.24-2.19-2.66-2.19h-1.94v4.26h1.63C464,326.38,465.22,326,465.22,324.31Z"/><path class="h" d="M477.39,324.31c0,2.51-1.94,3.37-4.69,3.37h-3.27V315.84h2.8c2.93,0,4.64.93,4.64,3a2.64,2.64,0,0,1-2.21,2.6C476,321.67,477.39,322.3,477.39,324.31Zm-6.32-7.18v3.73h1.78c1.33,0,2.36-.65,2.36-1.91,0-1.46-1-1.82-2.8-1.82Zm4.6,7.18c0-1.66-1.24-2.19-2.66-2.19h-1.94v4.26h1.63C474.42,326.38,475.67,326,475.67,324.31Z"/><path class="h" d="M483.66,327.68h-1.75l-3.81-11.84h1.75l3,10.07,3-10.07h1.65Z"/><path class="i" d="M551.39,166v1.27h-6.92V166h2.9V157.1l-2.68,1.63-.69-1.12,3.56-2.2H549V166Z"/><path class="i" d="M560.24,158.18a2.79,2.79,0,0,1-2.35,2.75,2.82,2.82,0,0,1,2.73,2.92c0,2-1.67,3.61-4.16,3.61a4.75,4.75,0,0,1-3.69-1.6l1-.84a3.63,3.63,0,0,0,2.65,1.15,2.27,2.27,0,0,0,2.56-2.34c0-1.65-1-2.2-2.4-2.2h-1l.19-1.22h.7a2,2,0,0,0,2.2-2,2,2,0,0,0-2.18-1.94,3.39,3.39,0,0,0-2.49,1.08l-.86-.94a4.85,4.85,0,0,1,3.44-1.39C558.83,155.21,560.24,156.56,560.24,158.18Z"/><path class="i" d="M565.13,166.25a1.2,1.2,0,0,1-1.21,1.21,1.18,1.18,0,0,1-1.18-1.21,1.17,1.17,0,0,1,1.18-1.18A1.18,1.18,0,0,1,565.13,166.25Z"/><path class="i" d="M574.66,161.32c0,4-1.27,6.14-3.85,6.14s-3.84-2.13-3.84-6.14,1.27-6.11,3.84-6.11S574.66,157.34,574.66,161.32Zm-6,0c0,3.58.75,4.88,2.19,4.88s2.2-1.3,2.2-4.88-.77-4.86-2.2-4.86S568.62,157.77,568.62,161.32Z"/><path class="i" d="M583.69,158.52c0,2.15-1.38,3.89-5.24,7.41H584l-.19,1.32h-7.13V166c4.4-4.23,5.4-5.54,5.4-7.41a1.91,1.91,0,0,0-2.06-2.08,2.9,2.9,0,0,0-2.51,1.26l-1.07-.83a4.33,4.33,0,0,1,3.66-1.73A3.29,3.29,0,0,1,583.69,158.52Z"/><path class="i" d="M593.59,156.6,589,167.46l-1.43-.52L592,156.7h-5.43v-1.29h7Z"/><path class="i" d="M603.68,164.09c0,2-1.67,3.37-4,3.37s-4-1.34-4-3.32a3.25,3.25,0,0,1,2.28-3.09,2.87,2.87,0,0,1-1.8-2.75c0-2.08,1.75-3.09,3.52-3.09s3.52.94,3.52,3a2.93,2.93,0,0,1-2,2.68A3.32,3.32,0,0,1,603.68,164.09Zm-1.65,0c0-1.34-.62-2-2.61-2.54l-.38-.14a2.68,2.68,0,0,0-1.7,2.66,2,2,0,0,0,2.32,2.08A2.1,2.1,0,0,0,602,164.14Zm-4.31-5.82c0,1.25.8,1.72,2.3,2.18l.14,0a2.3,2.3,0,0,0,1.51-2.21,1.8,1.8,0,0,0-2-1.93A1.76,1.76,0,0,0,597.72,158.32Z"/><path class="i" d="M561,187.34h-1.49v2.83H558v-2.83h-4.92V186.2l3.46-8.07,1.32.55-3.11,7.4H558l.13-3.3h1.38v3.3H561Z"/><path class="i" d="M565.13,189.17a1.2,1.2,0,0,1-1.21,1.21,1.18,1.18,0,0,1-1.18-1.21,1.17,1.17,0,0,1,1.18-1.18A1.18,1.18,0,0,1,565.13,189.17Z"/><path class="i" d="M574.34,179.52l-4.64,10.86-1.43-.52,4.47-10.24h-5.43v-1.29h7Z"/><path class="i" d="M583.69,181.44c0,2.15-1.38,3.88-5.24,7.41H584l-.19,1.32h-7.13v-1.25c4.4-4.23,5.4-5.54,5.4-7.41a1.91,1.91,0,0,0-2.06-2.08,2.9,2.9,0,0,0-2.51,1.26l-1.07-.83a4.33,4.33,0,0,1,3.66-1.73A3.29,3.29,0,0,1,583.69,181.44Z"/><path class="i" d="M593.66,182.73c0,5-1.93,6.6-6.24,7.82l-.36-1.19c3-.82,4.83-2.15,4.93-4.88a3.13,3.13,0,0,1-2.61,1.38c-1.82,0-3.25-1.45-3.25-3.8a3.65,3.65,0,0,1,3.75-3.93C592.4,178.13,593.66,179.91,593.66,182.73Zm-1.64.43c.06-2.8-.67-3.78-2.14-3.78s-2.12.93-2.12,2.71.79,2.53,2,2.53A2.74,2.74,0,0,0,592,183.16Z"/><path class="i" d="M603.66,187.34h-1.49v2.83h-1.53v-2.83h-4.92V186.2l3.46-8.07,1.32.55-3.11,7.4h3.26l.14-3.3h1.38v3.3h1.49Z"/><path class="i" d="M551.39,211.82v1.27h-6.92v-1.27h2.9v-8.89l-2.68,1.64-.69-1.12,3.56-2.2H549v10.57Z"/><path class="i" d="M560.91,207.16c0,4-1.27,6.14-3.85,6.14s-3.85-2.14-3.85-6.14,1.28-6.11,3.85-6.11S560.91,203.18,560.91,207.16Zm-6,0c0,3.57.76,4.88,2.2,4.88s2.2-1.31,2.2-4.88-.77-4.86-2.2-4.86S554.86,203.6,554.86,207.16Z"/><path class="i" d="M565.13,212.09a1.2,1.2,0,0,1-1.21,1.21,1.18,1.18,0,0,1-1.18-1.21,1.17,1.17,0,0,1,1.18-1.18A1.18,1.18,0,0,1,565.13,212.09Z"/><path class="i" d="M574.06,204.36c0,2.15-1.37,3.88-5.24,7.41h5.52l-.19,1.32H567v-1.26c4.4-4.22,5.39-5.53,5.39-7.4a1.91,1.91,0,0,0-2.06-2.08,2.93,2.93,0,0,0-2.51,1.25l-1.06-.82a4.3,4.3,0,0,1,3.66-1.73A3.29,3.29,0,0,1,574.06,204.36Z"/><path class="i" d="M584.41,210.25h-1.5v2.84h-1.52v-2.84h-4.92v-1.13l3.45-8.07,1.33.54L578.14,209h3.26l.14-3.3h1.37V209h1.5Z"/><path class="i" d="M594,211.82v1.27h-6.93v-1.27H590v-8.89l-2.68,1.64-.69-1.12,3.56-2.2h1.39v10.57Z"/><path class="i" d="M603.63,209.1c0,2.6-1.67,4.2-3.73,4.2-2.85,0-3.94-2.31-3.94-5.78,0-3.93,1.67-6.47,4.44-6.47a4.14,4.14,0,0,1,2.37.7l-.62,1.05a3.34,3.34,0,0,0-1.77-.5c-1.72,0-2.75,1.79-2.82,4.59a3.25,3.25,0,0,1,2.77-1.53C602.1,205.36,603.63,206.58,603.63,209.1Zm-1.62.05c0-1.9-.81-2.54-2-2.54a2.94,2.94,0,0,0-2.47,1.6c0,2.63.74,3.83,2.32,3.83C601.29,212,602,210.92,602,209.15Z"/><path class="i" d="M551.37,232c0,2.6-1.66,4.19-3.73,4.19-2.85,0-3.93-2.3-3.93-5.77,0-3.93,1.67-6.48,4.43-6.48a4.12,4.12,0,0,1,2.37.71l-.62,1.05a3.31,3.31,0,0,0-1.77-.5c-1.71,0-2.74,1.78-2.81,4.58a3.24,3.24,0,0,1,2.76-1.52C549.84,228.28,551.37,229.5,551.37,232Zm-1.61,0c0-1.9-.81-2.54-2-2.54a3,3,0,0,0-2.48,1.6c.06,2.63.74,3.83,2.32,3.83C549,235,549.76,233.84,549.76,232.07Z"/><path class="i" d="M560.59,225.36,556,236.21l-1.43-.51L559,225.46h-5.43v-1.29h7Z"/><path class="i" d="M565.13,235a1.19,1.19,0,0,1-1.21,1.2,1.19,1.19,0,1,1,1.21-1.2Z"/><path class="i" d="M574.66,230.08c0,4-1.27,6.13-3.85,6.13s-3.84-2.13-3.84-6.13,1.27-6.12,3.84-6.12S574.66,226.09,574.66,230.08Zm-6,0c0,3.57.75,4.88,2.19,4.88s2.2-1.31,2.2-4.88-.77-4.86-2.2-4.86S568.62,226.52,568.62,230.08Z"/><path class="i" d="M584.41,233.17h-1.5V236h-1.52v-2.84h-4.92V232l3.45-8.08,1.33.55-3.11,7.41h3.26l.14-3.3h1.37v3.3h1.5Z"/><path class="i" d="M594,234.74V236h-6.93v-1.27H590v-8.89l-2.68,1.64-.69-1.12,3.56-2.2h1.39v10.57Z"/><path class="i" d="M602.68,225.41H598V229a4.11,4.11,0,0,1,2-.49c1.93,0,3.25,1.35,3.25,3.72a3.79,3.79,0,0,1-4.07,4,4.73,4.73,0,0,1-3.49-1.46l1-.92a3.33,3.33,0,0,0,2.51,1.09c1.53,0,2.44-.94,2.44-2.71s-.91-2.47-2.08-2.47a4.5,4.5,0,0,0-1.8.39h-1.24v-6h6.37Z"/><path class="i" d="M550.62,249.85a2.79,2.79,0,0,1-2.36,2.75,2.83,2.83,0,0,1,2.73,2.92c0,2-1.66,3.61-4.15,3.61a4.75,4.75,0,0,1-3.7-1.6l1-.84a3.56,3.56,0,0,0,2.64,1.15,2.26,2.26,0,0,0,2.56-2.33c0-1.65-1-2.2-2.4-2.2h-1l.19-1.22h.71a2,2,0,0,0,2.2-2,2,2,0,0,0-2.19-1.94,3.4,3.4,0,0,0-2.49,1.08l-.86-.95a4.86,4.86,0,0,1,3.44-1.39C549.21,246.88,550.62,248.24,550.62,249.85Z"/><path class="i" d="M561,254.94c0,2.59-1.67,4.19-3.73,4.19-2.85,0-3.93-2.3-3.93-5.77,0-3.94,1.66-6.48,4.43-6.48a4.12,4.12,0,0,1,2.37.71l-.62,1a3.39,3.39,0,0,0-1.77-.49c-1.72,0-2.75,1.78-2.82,4.58a3.28,3.28,0,0,1,2.77-1.53C559.47,251.19,561,252.41,561,254.94Zm-1.62.05c0-1.91-.8-2.54-2-2.54a2.92,2.92,0,0,0-2.47,1.6c0,2.63.74,3.83,2.32,3.83C558.66,257.88,559.38,256.76,559.38,255Z"/><path class="i" d="M565.13,257.93a1.19,1.19,0,0,1-1.21,1.2,1.2,1.2,0,0,1,0-2.39A1.19,1.19,0,0,1,565.13,257.93Z"/><path class="i" d="M574.06,250.2c0,2.15-1.37,3.88-5.24,7.4h5.52l-.19,1.33H567v-1.26c4.4-4.22,5.39-5.53,5.39-7.4a1.91,1.91,0,0,0-2.06-2.08,2.93,2.93,0,0,0-2.51,1.25l-1.06-.82a4.31,4.31,0,0,1,3.66-1.74A3.29,3.29,0,0,1,574.06,250.2Z"/><path class="i" d="M584,251.49c0,5-1.92,6.59-6.24,7.81l-.36-1.18c3-.83,4.83-2.15,4.93-4.88a3.1,3.1,0,0,1-2.61,1.37c-1.82,0-3.24-1.44-3.24-3.79a3.64,3.64,0,0,1,3.74-3.94C582.78,246.88,584,248.67,584,251.49Zm-1.63.43c.05-2.8-.67-3.78-2.15-3.78s-2.11.92-2.11,2.71.79,2.53,1.94,2.53A2.77,2.77,0,0,0,582.4,251.92Z"/><path class="i" d="M593.66,251.49c0,5-1.93,6.59-6.24,7.81l-.36-1.18c3-.83,4.83-2.15,4.93-4.88a3.12,3.12,0,0,1-2.61,1.37c-1.82,0-3.25-1.44-3.25-3.79a3.65,3.65,0,0,1,3.75-3.94C592.4,246.88,593.66,248.67,593.66,251.49Zm-1.64.43c.06-2.8-.67-3.78-2.14-3.78s-2.12.92-2.12,2.71.79,2.53,2,2.53A2.76,2.76,0,0,0,592,251.92Z"/><path class="i" d="M603.64,257.65v1.28h-6.92v-1.28h2.9v-8.88l-2.68,1.63-.68-1.11,3.55-2.2h1.39v10.56Z"/><path class="i" d="M560.24,272.77a2.79,2.79,0,0,1-2.35,2.75,2.83,2.83,0,0,1,2.73,2.92c0,2.05-1.67,3.61-4.16,3.61a4.75,4.75,0,0,1-3.69-1.6l1-.84a3.63,3.63,0,0,0,2.65,1.15,2.26,2.26,0,0,0,2.56-2.33c0-1.65-1-2.2-2.4-2.2h-1l.19-1.22h.7a2,2,0,0,0,2.2-2,2,2,0,0,0-2.18-1.95,3.4,3.4,0,0,0-2.49,1.09l-.86-.95a4.85,4.85,0,0,1,3.44-1.39C558.83,269.8,560.24,271.16,560.24,272.77Z"/><path class="i" d="M565.13,280.85a1.19,1.19,0,0,1-1.21,1.2,1.2,1.2,0,0,1,0-2.39A1.19,1.19,0,0,1,565.13,280.85Z"/><path class="i" d="M574.06,273.12c0,2.14-1.37,3.88-5.24,7.4h5.52l-.19,1.32H567v-1.25c4.4-4.23,5.39-5.53,5.39-7.4a1.91,1.91,0,0,0-2.06-2.08,2.91,2.91,0,0,0-2.51,1.25l-1.06-.82a4.29,4.29,0,0,1,3.66-1.74A3.29,3.29,0,0,1,574.06,273.12Z"/><path class="i" d="M584.39,280.57v1.27h-6.92v-1.27h2.9v-8.88l-2.68,1.63-.69-1.11,3.56-2.2H582v10.56Z"/><path class="i" d="M593.66,274.41c0,5-1.93,6.59-6.24,7.81l-.36-1.18c3-.83,4.83-2.15,4.93-4.88a3.12,3.12,0,0,1-2.61,1.37c-1.82,0-3.25-1.44-3.25-3.79a3.65,3.65,0,0,1,3.75-3.94C592.4,269.8,593.66,271.59,593.66,274.41Zm-1.64.43c.06-2.81-.67-3.79-2.14-3.79s-2.12.93-2.12,2.72.79,2.53,2,2.53A2.76,2.76,0,0,0,592,274.84Z"/><path class="i" d="M603.63,277.86c0,2.59-1.67,4.19-3.73,4.19-2.85,0-3.94-2.3-3.94-5.77,0-3.94,1.67-6.48,4.44-6.48a4.22,4.22,0,0,1,2.37.7l-.62,1.05a3.4,3.4,0,0,0-1.77-.5c-1.72,0-2.75,1.79-2.82,4.59a3.28,3.28,0,0,1,2.77-1.53C602.1,274.11,603.63,275.33,603.63,277.86Zm-1.62.05c0-1.91-.81-2.54-2-2.54a2.92,2.92,0,0,0-2.47,1.6c0,2.62.74,3.83,2.32,3.83C601.29,280.8,602,279.68,602,277.91Z"/><path class="i" d="M551.39,303.49v1.27h-6.92v-1.27h2.9v-8.88l-2.68,1.63-.69-1.11,3.56-2.2H549v10.56Z"/><path class="i" d="M560.91,298.84c0,4-1.27,6.13-3.85,6.13s-3.85-2.13-3.85-6.13,1.28-6.12,3.85-6.12S560.91,294.85,560.91,298.84Zm-6,0c0,3.57.76,4.88,2.2,4.88s2.2-1.31,2.2-4.88-.77-4.87-2.2-4.87S554.86,295.28,554.86,298.84Z"/><path class="i" d="M565.13,303.77a1.19,1.19,0,0,1-1.21,1.2,1.2,1.2,0,1,1,1.21-1.2Z"/><path class="i" d="M574.77,303.49v1.27h-6.93v-1.27h2.91v-8.88l-2.68,1.63-.69-1.11,3.55-2.2h1.4v10.56Z"/><path class="i" d="M583.62,295.69a2.79,2.79,0,0,1-2.36,2.75,2.84,2.84,0,0,1,2.74,2.92c0,2.05-1.67,3.61-4.16,3.61a4.77,4.77,0,0,1-3.7-1.6l1-.84a3.62,3.62,0,0,0,2.65,1.15,2.27,2.27,0,0,0,2.56-2.34c0-1.64-1-2.19-2.41-2.19h-1l.18-1.22h.71a2,2,0,0,0,2.2-2,2,2,0,0,0-2.18-1.95,3.42,3.42,0,0,0-2.5,1.09l-.85-.95a4.84,4.84,0,0,1,3.43-1.39C582.21,292.72,583.62,294.08,583.62,295.69Z"/><path class="i" d="M594,300.78c0,2.59-1.67,4.19-3.73,4.19-2.85,0-3.93-2.3-3.93-5.77,0-3.94,1.66-6.48,4.43-6.48a4.19,4.19,0,0,1,2.37.7l-.62,1.05a3.4,3.4,0,0,0-1.77-.5c-1.71,0-2.75,1.79-2.81,4.59A3.25,3.25,0,0,1,590.7,297C592.47,297,594,298.25,594,300.78Zm-1.61.05c0-1.91-.81-2.54-2-2.54a3,3,0,0,0-2.48,1.59c0,2.63.74,3.84,2.32,3.84C591.66,303.72,592.39,302.6,592.39,300.83Z"/><path class="i" d="M603.21,294.11,598.57,305l-1.42-.52,4.47-10.24h-5.43v-1.28h7Z"/><path class="i" d="M551,320.24c0,5-1.93,6.6-6.24,7.82l-.36-1.19c3-.82,4.83-2.14,4.93-4.88a3.13,3.13,0,0,1-2.61,1.38c-1.82,0-3.25-1.44-3.25-3.8a3.65,3.65,0,0,1,3.75-3.93C549.77,315.64,551,317.42,551,320.24Zm-1.63.43c.05-2.8-.67-3.78-2.15-3.78s-2.11.93-2.11,2.72.79,2.52,1.94,2.52A2.77,2.77,0,0,0,549.4,320.67Z"/><path class="i" d="M560.31,319c0,2.15-1.37,3.89-5.24,7.41h5.52l-.19,1.32h-7.13v-1.25c4.39-4.23,5.39-5.54,5.39-7.41a1.91,1.91,0,0,0-2.06-2.08,2.91,2.91,0,0,0-2.51,1.26l-1.06-.83a4.3,4.3,0,0,1,3.66-1.73A3.29,3.29,0,0,1,560.31,319Z"/><path class="i" d="M565.13,326.69a1.19,1.19,0,0,1-1.21,1.2,1.2,1.2,0,1,1,1.21-1.2Z"/><path class="i" d="M573.8,317.08h-4.64v3.61a4,4,0,0,1,2-.5c1.92,0,3.24,1.36,3.24,3.73a3.79,3.79,0,0,1-4.07,4,4.73,4.73,0,0,1-3.49-1.46l1-.93a3.28,3.28,0,0,0,2.5,1.1c1.53,0,2.44-1,2.44-2.72s-.91-2.47-2.08-2.47a4.51,4.51,0,0,0-1.8.4h-1.24v-6H574Z"/><path class="i" d="M583.62,318.61a2.79,2.79,0,0,1-2.36,2.75,2.83,2.83,0,0,1,2.74,2.92c0,2-1.67,3.61-4.16,3.61a4.77,4.77,0,0,1-3.7-1.6l1-.84a3.62,3.62,0,0,0,2.65,1.15,2.27,2.27,0,0,0,2.56-2.34c0-1.65-1-2.2-2.41-2.2h-1l.18-1.22h.71a2,2,0,0,0,2.2-2,2,2,0,0,0-2.18-1.94,3.41,3.41,0,0,0-2.5,1.08l-.85-.94a4.84,4.84,0,0,1,3.43-1.39C582.21,315.64,583.62,317,583.62,318.61Z"/><path class="i" d="M594.05,324.52c0,2-1.66,3.37-4,3.37s-4-1.34-4-3.32a3.25,3.25,0,0,1,2.29-3.09,2.87,2.87,0,0,1-1.81-2.75c0-2.08,1.76-3.09,3.53-3.09s3.52.94,3.52,3a2.93,2.93,0,0,1-2,2.68A3.31,3.31,0,0,1,594.05,324.52Zm-1.65.05c0-1.34-.62-2-2.61-2.54l-.38-.14a2.68,2.68,0,0,0-1.7,2.66,2,2,0,0,0,2.32,2.08A2.1,2.1,0,0,0,592.4,324.57Zm-4.31-5.82c0,1.25.81,1.72,2.3,2.18l.14,0a2.29,2.29,0,0,0,1.51-2.21,1.8,1.8,0,0,0-2-1.93A1.77,1.77,0,0,0,588.09,318.75Z"/><path class="i" d="M603.63,323.7c0,2.59-1.67,4.19-3.73,4.19-2.85,0-3.94-2.3-3.94-5.77,0-3.94,1.67-6.48,4.44-6.48a4.22,4.22,0,0,1,2.37.7l-.62,1.05a3.34,3.34,0,0,0-1.77-.5c-1.72,0-2.75,1.79-2.82,4.59a3.25,3.25,0,0,1,2.77-1.53C602.1,320,603.63,321.17,603.63,323.7Zm-1.62.05c0-1.91-.81-2.55-2-2.55a2.94,2.94,0,0,0-2.47,1.6c0,2.63.74,3.83,2.32,3.83C601.29,326.63,602,325.52,602,323.75Z"/><path class="i" d="M678.87,159.81c0,5-1.93,6.6-6.24,7.82l-.36-1.19c3-.82,4.83-2.14,4.93-4.88a3.13,3.13,0,0,1-2.61,1.38c-1.82,0-3.25-1.45-3.25-3.8a3.65,3.65,0,0,1,3.75-3.93C677.61,155.21,678.87,157,678.87,159.81Zm-1.64.43c.06-2.8-.67-3.78-2.14-3.78s-2.12.93-2.12,2.72.79,2.52,1.94,2.52A2.74,2.74,0,0,0,677.23,160.24Z"/><path class="i" d="M683.34,166.25a2.85,2.85,0,0,1-.31,1.22l-1.15,2.63h-1.14l.69-2.85a1.24,1.24,0,0,1-.48-1,1.2,1.2,0,0,1,2.39,0Z"/><path class="i" d="M692.62,159.81c0,5-1.93,6.6-6.24,7.82l-.36-1.19c3-.82,4.83-2.14,4.93-4.88a3.13,3.13,0,0,1-2.61,1.38c-1.82,0-3.25-1.45-3.25-3.8a3.65,3.65,0,0,1,3.75-3.93C691.36,155.21,692.62,157,692.62,159.81Zm-1.63.43c0-2.8-.67-3.78-2.15-3.78s-2.12.93-2.12,2.72.79,2.52,1.95,2.52A2.77,2.77,0,0,0,691,160.24Z"/><path class="i" d="M702.6,166v1.27h-6.92V166h2.9V157.1l-2.68,1.63-.68-1.12,3.55-2.2h1.39V166Z"/><path class="i" d="M711.8,156.6l-4.64,10.86-1.42-.52,4.46-10.24h-5.43v-1.29h7Z"/><path class="i" d="M716.34,166.25a2.85,2.85,0,0,1-.31,1.22l-1.15,2.63h-1.13l.68-2.85a1.24,1.24,0,0,1-.48-1,1.2,1.2,0,0,1,2.39,0Z"/><path class="i" d="M725.28,158.52c0,2.15-1.38,3.89-5.24,7.41h5.51l-.19,1.32h-7.13V166c4.4-4.23,5.4-5.54,5.4-7.41a1.92,1.92,0,0,0-2.07-2.08,2.9,2.9,0,0,0-2.5,1.26l-1.07-.83a4.33,4.33,0,0,1,3.66-1.73A3.29,3.29,0,0,1,725.28,158.52Z"/><path class="i" d="M734.9,158.52c0,2.15-1.37,3.89-5.24,7.41h5.52l-.19,1.32h-7.13V166c4.4-4.23,5.39-5.54,5.39-7.41a1.91,1.91,0,0,0-2.06-2.08,2.91,2.91,0,0,0-2.51,1.26l-1.06-.83a4.32,4.32,0,0,1,3.66-1.73A3.29,3.29,0,0,1,734.9,158.52Z"/><path class="i" d="M744.27,156.65h-4.64v3.61a4,4,0,0,1,2-.5c1.93,0,3.25,1.36,3.25,3.73a3.79,3.79,0,0,1-4.07,4,4.73,4.73,0,0,1-3.49-1.46l1-.93a3.3,3.3,0,0,0,2.51,1.1c1.53,0,2.44-.95,2.44-2.72s-.91-2.47-2.08-2.47a4.67,4.67,0,0,0-1.8.39h-1.24v-6h6.37Z"/><path class="i" d="M668.9,181.44c0,2.15-1.38,3.88-5.24,7.41h5.51l-.19,1.32h-7.13v-1.26c4.4-4.22,5.4-5.53,5.4-7.4a1.91,1.91,0,0,0-2.06-2.08,2.92,2.92,0,0,0-2.51,1.25l-1.07-.82a4.33,4.33,0,0,1,3.66-1.73A3.29,3.29,0,0,1,668.9,181.44Z"/><path class="i" d="M678.27,179.57h-4.64v3.61a4,4,0,0,1,2-.5c1.92,0,3.24,1.36,3.24,3.73a3.79,3.79,0,0,1-4.07,4,4.7,4.7,0,0,1-3.49-1.47l1-.92a3.28,3.28,0,0,0,2.5,1.1c1.53,0,2.44-1,2.44-2.72s-.91-2.47-2.07-2.47a4.72,4.72,0,0,0-1.81.39h-1.24v-6h6.38Z"/><path class="i" d="M683.34,189.17a2.88,2.88,0,0,1-.31,1.22L681.88,193h-1.14l.69-2.85a1.24,1.24,0,0,1-.48-1,1.17,1.17,0,0,1,1.18-1.18A1.18,1.18,0,0,1,683.34,189.17Z"/><path class="i" d="M692.2,181.1a2.8,2.8,0,0,1-2.35,2.75,2.82,2.82,0,0,1,2.73,2.92c0,2-1.66,3.61-4.15,3.61a4.75,4.75,0,0,1-3.7-1.6l1-.84a3.6,3.6,0,0,0,2.64,1.15,2.27,2.27,0,0,0,2.56-2.34c0-1.65-1-2.2-2.4-2.2h-1l.19-1.22h.71a2,2,0,0,0,2.19-2,2,2,0,0,0-2.18-1.94,3.39,3.39,0,0,0-2.49,1.08l-.86-.94a4.82,4.82,0,0,1,3.44-1.39C690.8,178.13,692.2,179.48,692.2,181.1Z"/><path class="i" d="M701.64,179.57H697v3.61a4,4,0,0,1,2-.5c1.93,0,3.25,1.36,3.25,3.73a3.79,3.79,0,0,1-4.07,4,4.7,4.7,0,0,1-3.49-1.47l1-.92a3.3,3.3,0,0,0,2.51,1.1c1.53,0,2.44-1,2.44-2.72s-.91-2.47-2.08-2.47a4.67,4.67,0,0,0-1.8.39h-1.24v-6h6.38Z"/><path class="i" d="M712.13,184.24c0,4-1.27,6.14-3.85,6.14s-3.85-2.14-3.85-6.14,1.27-6.11,3.85-6.11S712.13,180.26,712.13,184.24Zm-6,0c0,3.58.75,4.88,2.2,4.88s2.2-1.3,2.2-4.88-.78-4.86-2.2-4.86S706.08,180.68,706.08,184.24Z"/><path class="i" d="M716.34,189.17a2.88,2.88,0,0,1-.31,1.22L714.88,193h-1.13l.68-2.85a1.24,1.24,0,0,1-.48-1,1.2,1.2,0,0,1,2.39,0Z"/><path class="i" d="M726,187c0,2-1.67,3.37-4,3.37s-4-1.34-4-3.32a3.24,3.24,0,0,1,2.28-3.09,2.87,2.87,0,0,1-1.8-2.75c0-2.08,1.75-3.09,3.52-3.09s3.52.94,3.52,3a2.94,2.94,0,0,1-2,2.68A3.31,3.31,0,0,1,726,187Zm-1.65.05c0-1.34-.62-2-2.62-2.54l-.37-.14a2.66,2.66,0,0,0-1.7,2.66,2,2,0,0,0,2.31,2.08A2.1,2.1,0,0,0,724.37,187.06Zm-4.32-5.83c0,1.26.81,1.72,2.31,2.19l.13,0a2.3,2.3,0,0,0,1.51-2.22,1.79,1.79,0,0,0-2-1.92A1.77,1.77,0,0,0,720.05,181.23Z"/><path class="i" d="M734.9,181.44c0,2.15-1.37,3.88-5.24,7.41h5.52l-.19,1.32h-7.13v-1.26c4.4-4.22,5.39-5.53,5.39-7.4a1.91,1.91,0,0,0-2.06-2.08,2.93,2.93,0,0,0-2.51,1.25l-1.06-.82a4.3,4.3,0,0,1,3.66-1.73A3.29,3.29,0,0,1,734.9,181.44Z"/><path class="i" d="M745.25,187.33h-1.5v2.84h-1.52v-2.84h-4.92V186.2l3.46-8.07,1.32.54L739,186.08h3.26l.14-3.3h1.37v3.3h1.5Z"/><path class="i" d="M678.45,204a2.8,2.8,0,0,1-2.35,2.75,2.82,2.82,0,0,1,2.73,2.92c0,2-1.66,3.6-4.16,3.6A4.74,4.74,0,0,1,671,211.7l1-.85a3.57,3.57,0,0,0,2.64,1.16,2.27,2.27,0,0,0,2.56-2.34c0-1.65-1-2.2-2.4-2.2h-1l.19-1.22h.7a2,2,0,0,0,2.2-2,2,2,0,0,0-2.18-1.94,3.39,3.39,0,0,0-2.49,1.08l-.86-.94a4.81,4.81,0,0,1,3.44-1.4C677.05,201,678.45,202.4,678.45,204Z"/><path class="i" d="M683.34,212.09a2.88,2.88,0,0,1-.31,1.22l-1.15,2.63h-1.14l.69-2.85a1.27,1.27,0,0,1-.48-1,1.2,1.2,0,0,1,2.39,0Z"/><path class="i" d="M692.2,204a2.8,2.8,0,0,1-2.35,2.75,2.82,2.82,0,0,1,2.73,2.92c0,2-1.66,3.6-4.15,3.6a4.74,4.74,0,0,1-3.7-1.59l1-.85a3.57,3.57,0,0,0,2.64,1.16,2.27,2.27,0,0,0,2.56-2.34c0-1.65-1-2.2-2.4-2.2h-1l.19-1.22h.71a2,2,0,0,0,2.19-2,2,2,0,0,0-2.18-1.94,3.39,3.39,0,0,0-2.49,1.08l-.86-.94a4.83,4.83,0,0,1,3.44-1.4C690.8,201,692.2,202.4,692.2,204Z"/><path class="i" d="M702.64,209.93c0,2-1.67,3.36-4,3.36s-4-1.34-4-3.31a3.24,3.24,0,0,1,2.28-3.09,2.87,2.87,0,0,1-1.8-2.75c0-2.08,1.75-3.1,3.52-3.1s3.52,1,3.52,3a2.94,2.94,0,0,1-2,2.68A3.3,3.3,0,0,1,702.64,209.93ZM701,210c0-1.34-.62-2-2.61-2.54l-.38-.14a2.68,2.68,0,0,0-1.7,2.66,2,2,0,0,0,2.32,2.08A2.1,2.1,0,0,0,701,210Zm-4.31-5.83c0,1.26.8,1.72,2.3,2.19l.14,0a2.32,2.32,0,0,0,1.51-2.22,1.79,1.79,0,0,0-2-1.92A1.75,1.75,0,0,0,696.68,204.15Z"/><path class="i" d="M712.26,209.93c0,2-1.66,3.36-4,3.36s-4-1.34-4-3.31a3.24,3.24,0,0,1,2.29-3.09,2.87,2.87,0,0,1-1.8-2.75c0-2.08,1.75-3.1,3.52-3.1s3.52,1,3.52,3a2.94,2.94,0,0,1-2,2.68A3.3,3.3,0,0,1,712.26,209.93Zm-1.65,0c0-1.34-.61-2-2.61-2.54l-.38-.14a2.68,2.68,0,0,0-1.7,2.66,2,2,0,0,0,2.32,2.08A2.1,2.1,0,0,0,710.61,210Zm-4.31-5.83c0,1.26.81,1.72,2.3,2.19l.14,0a2.31,2.31,0,0,0,1.51-2.22,1.79,1.79,0,0,0-2-1.92A1.76,1.76,0,0,0,706.3,204.15Z"/><path class="i" d="M716.34,212.09a2.88,2.88,0,0,1-.31,1.22l-1.15,2.63h-1.13l.68-2.85a1.27,1.27,0,0,1-.48-1,1.2,1.2,0,0,1,2.39,0Z"/><path class="i" d="M725,202.49h-4.64v3.61a4,4,0,0,1,2-.5c1.92,0,3.25,1.35,3.25,3.73a3.79,3.79,0,0,1-4.08,4,4.71,4.71,0,0,1-3.48-1.46l1-.92a3.32,3.32,0,0,0,2.51,1.1c1.53,0,2.44-.95,2.44-2.72s-.91-2.47-2.08-2.47a4.54,4.54,0,0,0-1.81.39h-1.23v-6h6.37Z"/><path class="i" d="M735.5,207.16c0,4-1.27,6.13-3.84,6.13s-3.85-2.13-3.85-6.13,1.27-6.12,3.85-6.12S735.5,203.17,735.5,207.16Zm-6,0c0,3.57.75,4.88,2.2,4.88s2.19-1.31,2.19-4.88-.77-4.86-2.19-4.86S729.46,203.6,729.46,207.16Z"/><path class="i" d="M744.8,202.44l-4.64,10.85-1.42-.51,4.46-10.24h-5.42v-1.29h7Z"/><path class="i" d="M692.2,226.93a2.79,2.79,0,0,1-2.35,2.75,2.83,2.83,0,0,1,2.73,2.92c0,2.05-1.66,3.61-4.15,3.61a4.75,4.75,0,0,1-3.7-1.6l1-.84a3.56,3.56,0,0,0,2.64,1.15,2.26,2.26,0,0,0,2.56-2.33c0-1.65-1-2.2-2.4-2.2h-1l.19-1.22h.71a2,2,0,0,0,2.19-2,2,2,0,0,0-2.18-1.94A3.39,3.39,0,0,0,686,226.3l-.86-1a4.86,4.86,0,0,1,3.44-1.39C690.8,224,692.2,225.32,692.2,226.93Z"/><path class="i" d="M701.64,225.41H697V229a4.11,4.11,0,0,1,2-.49c1.93,0,3.25,1.35,3.25,3.72a3.79,3.79,0,0,1-4.07,4,4.73,4.73,0,0,1-3.49-1.46l1-.93a3.3,3.3,0,0,0,2.51,1.1c1.53,0,2.44-.94,2.44-2.71s-.91-2.47-2.08-2.47a4.5,4.5,0,0,0-1.8.39h-1.24v-6h6.38Z"/><path class="i" d="M712.25,233.17h-1.5V236h-1.53v-2.84h-4.91V232l3.45-8.08,1.33.55L706,231.92h3.26l.14-3.3h1.37v3.3h1.5Z"/><path class="i" d="M716.34,235a2.88,2.88,0,0,1-.31,1.22l-1.15,2.63h-1.13l.68-2.85a1.27,1.27,0,0,1-.48-1,1.2,1.2,0,0,1,2.39,0Z"/><path class="i" d="M726,232.84c0,2-1.67,3.37-4,3.37s-4-1.34-4-3.31a3.24,3.24,0,0,1,2.28-3.1,2.86,2.86,0,0,1-1.8-2.75c0-2.07,1.75-3.09,3.52-3.09s3.52.95,3.52,3a2.94,2.94,0,0,1-2,2.68A3.31,3.31,0,0,1,726,232.84Zm-1.65.06c0-1.34-.62-2-2.62-2.55l-.37-.13a2.66,2.66,0,0,0-1.7,2.66A2,2,0,0,0,722,235,2.1,2.1,0,0,0,724.37,232.9Zm-4.32-5.83c0,1.26.81,1.72,2.31,2.18l.13,0a2.31,2.31,0,0,0,1.51-2.22,1.79,1.79,0,0,0-2-1.92A1.76,1.76,0,0,0,720.05,227.07Z"/><path class="i" d="M735.62,233.17h-1.49V236H732.6v-2.84h-4.91V232l3.45-8.08,1.32.55-3.11,7.41h3.27l.13-3.3h1.38v3.3h1.49Z"/><path class="i" d="M744.53,227.28c0,2.15-1.38,3.88-5.24,7.4h5.51l-.19,1.33h-7.13v-1.26c4.4-4.22,5.4-5.53,5.4-7.4a1.91,1.91,0,0,0-2.06-2.08,2.92,2.92,0,0,0-2.51,1.25l-1.07-.82A4.34,4.34,0,0,1,740.9,224,3.3,3.3,0,0,1,744.53,227.28Z"/><path class="i" d="M679.23,257.65v1.28H672.3v-1.28h2.91v-8.88l-2.68,1.63-.69-1.11,3.56-2.2h1.39v10.56Z"/><path class="i" d="M683.34,257.93a2.88,2.88,0,0,1-.31,1.22l-1.15,2.63h-1.14l.69-2.85a1.27,1.27,0,0,1-.48-1,1.2,1.2,0,0,1,2.39,0Z"/><path class="i" d="M692.62,251.49c0,5-1.93,6.59-6.24,7.81l-.36-1.18c3-.83,4.83-2.15,4.93-4.88a3.12,3.12,0,0,1-2.61,1.37c-1.82,0-3.25-1.44-3.25-3.79a3.65,3.65,0,0,1,3.75-3.94C691.36,246.88,692.62,248.67,692.62,251.49Zm-1.63.43c0-2.81-.67-3.78-2.15-3.78s-2.12.92-2.12,2.71.79,2.53,1.95,2.53A2.79,2.79,0,0,0,691,251.92Z"/><path class="i" d="M702.59,254.94c0,2.59-1.67,4.19-3.73,4.19-2.85,0-3.94-2.3-3.94-5.77,0-3.94,1.67-6.48,4.44-6.48a4.15,4.15,0,0,1,2.37.71l-.62,1a3.39,3.39,0,0,0-1.77-.49c-1.72,0-2.75,1.78-2.82,4.58a3.28,3.28,0,0,1,2.77-1.53C701.06,251.19,702.59,252.41,702.59,254.94ZM701,255c0-1.91-.81-2.54-2-2.54a2.92,2.92,0,0,0-2.47,1.6c.05,2.62.74,3.83,2.32,3.83C700.25,257.88,701,256.76,701,255Z"/><path class="i" d="M712.23,257.65v1.28h-6.92v-1.28h2.9v-8.88l-2.68,1.63-.69-1.11,3.56-2.2h1.39v10.56Z"/><path class="i" d="M716.34,257.93a2.88,2.88,0,0,1-.31,1.22l-1.15,2.63h-1.13l.68-2.85a1.27,1.27,0,0,1-.48-1,1.2,1.2,0,0,1,2.39,0Z"/><path class="i" d="M725,248.32h-4.64v3.61a4,4,0,0,1,2-.5c1.92,0,3.25,1.36,3.25,3.73a3.79,3.79,0,0,1-4.08,4,4.71,4.71,0,0,1-3.48-1.46l1-.93a3.29,3.29,0,0,0,2.51,1.1c1.53,0,2.44-.94,2.44-2.71s-.91-2.48-2.08-2.48a4.56,4.56,0,0,0-1.81.4h-1.23v-6h6.37Z"/><path class="i" d="M735.64,255.76c0,2-1.67,3.37-4,3.37s-4-1.34-4-3.31a3.25,3.25,0,0,1,2.29-3.1,2.87,2.87,0,0,1-1.81-2.75c0-2.07,1.76-3.09,3.53-3.09s3.52,1,3.52,3a3,3,0,0,1-2,2.68A3.29,3.29,0,0,1,735.64,255.76Zm-1.65.06c0-1.34-.62-2-2.61-2.55l-.38-.13a2.67,2.67,0,0,0-1.7,2.66,2,2,0,0,0,2.32,2.08A2.1,2.1,0,0,0,734,255.82ZM729.68,250c0,1.26.81,1.72,2.3,2.18l.14,0a2.32,2.32,0,0,0,1.51-2.22,1.79,1.79,0,0,0-2-1.92A1.76,1.76,0,0,0,729.68,250Z"/><path class="i" d="M744.8,248.27l-4.64,10.86-1.42-.51,4.46-10.24h-5.42v-1.29h7Z"/><path class="i" d="M678.52,273.12c0,2.14-1.37,3.88-5.24,7.4h5.52l-.19,1.32h-7.13v-1.25c4.4-4.23,5.39-5.53,5.39-7.41a1.91,1.91,0,0,0-2.06-2.07,2.91,2.91,0,0,0-2.51,1.25l-1.06-.82a4.31,4.31,0,0,1,3.66-1.74A3.29,3.29,0,0,1,678.52,273.12Z"/><path class="i" d="M683.34,280.85a2.88,2.88,0,0,1-.31,1.22l-1.15,2.63h-1.14l.69-2.86a1.24,1.24,0,0,1-.48-1,1.2,1.2,0,0,1,2.39,0Z"/><path class="i" d="M693,280.57v1.27h-6.93v-1.27H689v-8.88l-2.68,1.63-.69-1.11,3.56-2.2h1.39v10.56Z"/><path class="i" d="M702.6,280.57v1.27h-6.92v-1.27h2.9v-8.88l-2.68,1.63-.68-1.11,3.55-2.2h1.39v10.56Z"/><path class="i" d="M711.87,274.4c0,5-1.93,6.6-6.24,7.82l-.36-1.18c3-.83,4.83-2.15,4.93-4.88a3.12,3.12,0,0,1-2.61,1.37c-1.82,0-3.25-1.44-3.25-3.8a3.65,3.65,0,0,1,3.75-3.93C710.61,269.8,711.87,271.59,711.87,274.4Zm-1.63.43c0-2.8-.67-3.78-2.15-3.78S706,272,706,273.77s.79,2.52,1.94,2.52A2.77,2.77,0,0,0,710.24,274.83Z"/><path class="i" d="M716.34,280.85a2.88,2.88,0,0,1-.31,1.22l-1.15,2.63h-1.13l.68-2.86a1.24,1.24,0,0,1-.48-1,1.2,1.2,0,0,1,2.39,0Z"/><path class="i" d="M726,280.57v1.27h-6.92v-1.27H722v-8.88l-2.68,1.63-.69-1.11,3.56-2.2h1.39v10.56Z"/><path class="i" d="M735.5,275.92c0,4-1.27,6.13-3.84,6.13s-3.85-2.13-3.85-6.13,1.27-6.12,3.85-6.12S735.5,271.93,735.5,275.92Zm-6,0c0,3.57.75,4.88,2.2,4.88s2.19-1.31,2.19-4.88-.77-4.87-2.19-4.87S729.46,272.36,729.46,275.92Z"/><path class="i" d="M745.25,279h-1.5v2.83h-1.52V279h-4.92v-1.13l3.46-8.08,1.32.55-3.11,7.4h3.26l.14-3.29h1.37v3.29h1.5Z"/><path class="i" d="M678.52,296c0,2.15-1.37,3.89-5.24,7.41h5.52l-.19,1.32h-7.13v-1.25c4.4-4.23,5.39-5.53,5.39-7.41a1.91,1.91,0,0,0-2.06-2.08,2.91,2.91,0,0,0-2.51,1.26l-1.06-.83a4.33,4.33,0,0,1,3.66-1.73A3.29,3.29,0,0,1,678.52,296Z"/><path class="i" d="M683.34,303.77A2.92,2.92,0,0,1,683,305l-1.15,2.63h-1.14l.69-2.86a1.24,1.24,0,0,1-.48-1,1.2,1.2,0,0,1,2.39,0Z"/><path class="i" d="M692.87,298.84c0,4-1.27,6.13-3.84,6.13s-3.85-2.13-3.85-6.13,1.27-6.12,3.85-6.12S692.87,294.85,692.87,298.84Zm-6,0c0,3.57.75,4.87,2.2,4.87s2.2-1.3,2.2-4.87S690.45,294,689,294,686.83,295.28,686.83,298.84Z"/><path class="i" d="M702.5,298.84c0,4-1.27,6.13-3.85,6.13s-3.85-2.13-3.85-6.13,1.28-6.12,3.85-6.12S702.5,294.85,702.5,298.84Zm-6,0c0,3.57.76,4.87,2.2,4.87s2.2-1.3,2.2-4.87-.77-4.87-2.2-4.87S696.45,295.28,696.45,298.84Z"/><path class="i" d="M712.21,300.78c0,2.59-1.66,4.19-3.73,4.19-2.85,0-3.93-2.3-3.93-5.77,0-3.94,1.67-6.48,4.43-6.48a4.19,4.19,0,0,1,2.37.7l-.62,1.05A3.3,3.3,0,0,0,709,294c-1.72,0-2.75,1.79-2.82,4.59a3.25,3.25,0,0,1,2.76-1.53C710.68,297,712.21,298.25,712.21,300.78Zm-1.61.05c0-1.91-.81-2.54-2-2.54a3,3,0,0,0-2.48,1.59c.06,2.63.74,3.83,2.32,3.83C709.88,303.71,710.6,302.6,710.6,300.83Z"/><path class="i" d="M716.34,303.77A2.92,2.92,0,0,1,716,305l-1.15,2.63h-1.13l.68-2.86a1.24,1.24,0,0,1-.48-1,1.2,1.2,0,0,1,2.39,0Z"/><path class="i" d="M725.21,295.69a2.79,2.79,0,0,1-2.36,2.75,2.84,2.84,0,0,1,2.74,2.92c0,2.05-1.67,3.61-4.16,3.61a4.75,4.75,0,0,1-3.7-1.6l1-.84a3.6,3.6,0,0,0,2.65,1.15,2.27,2.27,0,0,0,2.56-2.34c0-1.65-1-2.2-2.41-2.2h-1l.19-1.22h.71a2,2,0,0,0,2.2-2,2,2,0,0,0-2.19-1.94,3.38,3.38,0,0,0-2.49,1.09l-.86-.95a4.88,4.88,0,0,1,3.44-1.39C723.8,292.72,725.21,294.08,725.21,295.69Z"/><path class="i" d="M735.59,300.78c0,2.59-1.67,4.19-3.73,4.19-2.85,0-3.93-2.3-3.93-5.77,0-3.94,1.66-6.48,4.43-6.48a4.19,4.19,0,0,1,2.37.7l-.62,1.05a3.31,3.31,0,0,0-1.77-.5c-1.72,0-2.75,1.79-2.82,4.59a3.28,3.28,0,0,1,2.77-1.53C734.06,297,735.59,298.25,735.59,300.78Zm-1.62.05c0-1.91-.8-2.54-2-2.54a3,3,0,0,0-2.48,1.59c.05,2.63.74,3.83,2.32,3.83C733.25,303.71,734,302.6,734,300.83Z"/><path class="i" d="M745.21,300.78c0,2.59-1.66,4.19-3.72,4.19-2.86,0-3.94-2.3-3.94-5.77,0-3.94,1.67-6.48,4.43-6.48a4.23,4.23,0,0,1,2.38.7l-.62,1.05A3.36,3.36,0,0,0,742,294c-1.72,0-2.75,1.79-2.82,4.59a3.27,3.27,0,0,1,2.77-1.53C743.69,297,745.21,298.25,745.21,300.78Zm-1.61.05c0-1.91-.81-2.54-2-2.54a2.93,2.93,0,0,0-2.47,1.59c.05,2.63.74,3.83,2.32,3.83C742.88,303.71,743.6,302.6,743.6,300.83Z"/><path class="i" d="M678.8,317l-4.64,10.86-1.43-.52,4.47-10.24h-5.43v-1.29h7Z"/><path class="i" d="M683.34,326.68a2.85,2.85,0,0,1-.31,1.22l-1.15,2.63h-1.14l.69-2.85a1.24,1.24,0,0,1-.48-1,1.2,1.2,0,0,1,2.39,0Z"/><path class="i" d="M692.62,320.24c0,5-1.93,6.6-6.24,7.82l-.36-1.19c3-.82,4.83-2.14,4.93-4.88a3.13,3.13,0,0,1-2.61,1.38c-1.82,0-3.25-1.45-3.25-3.8a3.65,3.65,0,0,1,3.75-3.93C691.36,315.64,692.62,317.42,692.62,320.24Zm-1.63.43c0-2.8-.67-3.78-2.15-3.78s-2.12.93-2.12,2.72.79,2.52,1.95,2.52A2.77,2.77,0,0,0,691,320.67Z"/><path class="i" d="M701.83,318.61a2.79,2.79,0,0,1-2.35,2.75,2.82,2.82,0,0,1,2.73,2.92c0,2-1.67,3.61-4.16,3.61a4.75,4.75,0,0,1-3.69-1.6l1-.84A3.63,3.63,0,0,0,698,326.6a2.27,2.27,0,0,0,2.56-2.34c0-1.65-1-2.2-2.41-2.2h-1l.19-1.22h.7a2,2,0,0,0,2.2-2,2,2,0,0,0-2.18-1.94,3.37,3.37,0,0,0-2.49,1.08l-.86-.94a4.84,4.84,0,0,1,3.43-1.39C700.42,315.64,701.83,317,701.83,318.61Z"/><path class="i" d="M711.87,320.24c0,5-1.93,6.6-6.24,7.82l-.36-1.19c3-.82,4.83-2.14,4.93-4.88a3.13,3.13,0,0,1-2.61,1.38c-1.82,0-3.25-1.45-3.25-3.8a3.65,3.65,0,0,1,3.75-3.93C710.61,315.64,711.87,317.42,711.87,320.24Zm-1.63.43c0-2.8-.67-3.78-2.15-3.78s-2.11.93-2.11,2.72.79,2.52,1.94,2.52A2.77,2.77,0,0,0,710.24,320.67Z"/><path class="i" d="M716.34,326.68a2.85,2.85,0,0,1-.31,1.22l-1.15,2.63h-1.13l.68-2.85a1.24,1.24,0,0,1-.48-1,1.2,1.2,0,0,1,2.39,0Z"/><path class="i" d="M725.88,321.75c0,4-1.27,6.14-3.85,6.14s-3.85-2.13-3.85-6.14,1.27-6.11,3.85-6.11S725.88,317.77,725.88,321.75Zm-6,0c0,3.58.76,4.88,2.2,4.88s2.2-1.3,2.2-4.88-.78-4.86-2.2-4.86S719.83,318.2,719.83,321.75Z"/><path class="i" d="M735.25,320.24c0,5-1.93,6.6-6.24,7.82l-.36-1.19c3-.82,4.83-2.14,4.93-4.88a3.13,3.13,0,0,1-2.61,1.38c-1.82,0-3.25-1.45-3.25-3.8a3.65,3.65,0,0,1,3.75-3.93C734,315.64,735.25,317.42,735.25,320.24Zm-1.64.43c0-2.8-.67-3.78-2.14-3.78s-2.12.93-2.12,2.72.79,2.52,1.94,2.52A2.74,2.74,0,0,0,733.61,320.67Z"/><path class="i" d="M745.13,321.75c0,4-1.27,6.14-3.85,6.14s-3.85-2.13-3.85-6.14,1.27-6.11,3.85-6.11S745.13,317.77,745.13,321.75Zm-6,0c0,3.58.76,4.88,2.2,4.88s2.2-1.3,2.2-4.88-.77-4.86-2.2-4.86S739.08,318.2,739.08,321.75Z"/></g><rect class="p" x="501.49" y="131.87" width="25.78" height="1.43" transform="translate(381.8 646.97) rotate(-90)"/><rect class="p" x="621.68" y="131.87" width="25.78" height="1.43" transform="translate(501.99 767.16) rotate(-90)"/><rect class="r" x="431.6" y="172.8" width="346.88" height="22.95"/><polygon class="i" points="401 22.07 401 9.9 411.49 15.99 401 22.07"/><path class="i" d="M423.06,16.83l3.52,5.24h-1.79L421.54,17H420v5.07h-1.48V10.23h3c2.92,0,4.45,1.13,4.45,3.33A3.38,3.38,0,0,1,423.06,16.83Zm-1.4-5.4H420v4.4h1.73c1.7,0,2.68-.63,2.68-2.27S423.48,11.43,421.66,11.43Z"/><path class="i" d="M430.19,19.44c0,1.17.48,1.68,1.53,1.68a3.12,3.12,0,0,0,2.46-1.44V13h1.44v9.06h-1.24l-.12-1.22a3.76,3.76,0,0,1-2.9,1.41,2.37,2.37,0,0,1-2.61-2.67V13h1.44Z"/><path class="i" d="M439.06,13h1.24l.12,1.28a3.93,3.93,0,0,1,3-1.47c1.77,0,2.54,1,2.54,2.68v6.57h-1.44v-5.5c0-1.86-.19-2.59-1.55-2.59a3.18,3.18,0,0,0-2.46,1.51v6.58h-1.44Z"/><rect class="b" x="778.5" y="70.56" width="41" height="41" transform="translate(707.94 890.06) rotate(-90)"/></svg>